<svg viewBox="0 0 297.5 91.7619" xmlns="http://www.w3.org/2000/svg"><path d="m230.7919 75.3689c0 5.381-3.7255 9.977-9.1034 9.977a6.1363 6.1363 0 0 1 -6.4445-6.5078c0-5.3462 3.7255-9.9771 9.1034-9.9771 4.2415 0 6.4445 3.045 6.4445 6.5079zm-11.661 3.371c0 2.1683 1.1332 3.6939 3.0767 3.6939 2.82 0 4.6973-3.887 4.6973-7.0333 0-1.6174-.7438-3.6274-3.0133-3.6274-3.0102 0-4.7607 4.0199-4.7607 6.9669zm37.3315-3.371c0 5.381-3.7255 9.977-9.1033 9.977a6.1363 6.1363 0 0 1 -6.4446-6.5078c0-5.3462 3.7256-9.977 9.1034-9.977 4.2415 0 6.4445 3.045 6.4445 6.5078zm-11.6609 3.3711c0 2.1683 1.1332 3.6939 3.0767 3.6939 2.82 0 4.6973-3.8869 4.6973-7.0332 0-1.6175-.7439-3.6275-3.0134-3.6275-3.0102-.0001-4.7606 4.0199-4.7606 6.9668zm-8.3652-14.6866-3.9825 20.9381h3.76l4.0114-20.9381zm-60.8063 4.8393a9.94 9.94 0 0 0 -10.0086 10.1385c0 3.7571 2.4278 6.2831 6.3812 6.2831a10.6124 10.6124 0 0 0 4.6511-.9627l.6224-3.2735a8.5077 8.5077 0 0 1 -4.2384 1.1911c-2.105 0-3.466-1.3294-3.466-3.6907 0-3.3046 2.3011-6.6408 5.9286-6.6408a5.7091 5.7091 0 0 1 2.9063.7355l.5965-3.1373a8.6868 8.6868 0 0 0 -3.3731-.6432zm-21.5491 11.8573a4.3394 4.3394 0 0 1 -.421-2.2378c6.09.13 10.3315-1.168 10.3315-5.2133 0-2.6589-1.9751-4.4378-5.0866-4.4378-5.4411 0-8.9388 5.1817-8.9388 9.9422 0 3.8554 2.105 6.5427 6.4794 6.5427a12.2847 12.2847 0 0 0 5.9621-1.4788l.6457-3.3961a9.4992 9.4992 0 0 1 -5.7342 1.8964 3.4855 3.4855 0 0 1 -3.2381-1.6175zm4.34-9.0717c1.2 0 2.0068.6141 2.0068 1.6206 0 1.9087-2.4942 2.4278-6.3812 2.3929.4554-1.9087 2.0095-4.0136 4.374-4.0136zm110.1847-2.8173c-6.7084 0-10.1439 5.9313-10.1439 10.9223 0 2.82 1.3936 5.5745 4.7644 5.5745a6.3531 6.3531 0 0 0 5.2438-2.8166l-.3021 1.38c-.7755 3.6623-2.6557 4.8271-5.1183 4.8271a9.1193 9.1193 0 0 1 -4.1466-.94l-.5852 3.0784a11.2044 11.2044 0 0 0 4.6533.875 9.2682 9.2682 0 0 0 5.8908-1.75c1.8006-1.4876 2.6864-3.95 3.2748-7.0269l1.4283-7.1548a13.0277 13.0277 0 0 0 .3238-2.7225c0-2.8522-1.9771-4.2465-5.2831-4.2465zm1.1994 6.7738-.2914 1.4584c-.6483 3.1765-2.6578 5.186-4.6025 5.186-1.75 0-2.4958-1.4584-2.4958-3.1765 0-3.111 2.172-7.3567 5.4773-7.3567a1.885 1.885 0 0 1 2.1067 2.01 6.5535 6.5535 0 0 1 -.1943 1.8788zm-57.1629-2.4373c0-2.9786-1.75-4.3365-4.0168-4.3365a6.8273 6.8273 0 0 0 -5.7617 3.3083l.5841-3.0488h-3.4013l-3.0187 15.8709h3.76l1.396-7.2865c.68-3.6971 2.8456-5.7672 4.5612-5.7672 1.4909 0 1.9784.9369 1.9784 2.2663a10.5456 10.5456 0 0 1 -.186 1.88l-1.6942 8.9072h3.76l1.7623-9.1984a14.7876 14.7876 0 0 0 .2767-2.5953zm-21.8437-4.3365a6.65 6.65 0 0 0 -5.2472 2.61l1.4211-7.4174h-3.7892l-3.9824 20.9381h3.76l1.396-7.2865c.68-3.6971 2.8457-5.7672 4.5613-5.7672 1.4908 0 1.9783.9369 1.9783 2.2663a10.5364 10.5364 0 0 1 -.186 1.88l-1.6942 8.9072h3.76l1.7623-9.1984a14.7876 14.7876 0 0 0 .2763-2.5955c.0004-2.9787-1.75-4.3366-4.0163-4.3366zm-43.7841-3.7057h-3.6681l-.8059 4.06h-2.105l-.5508 2.9151h2.1082l-1.3613 7.03a14.7064 14.7064 0 0 0 -.326 2.9152c0 1.8138 1.1365 3.2382 3.7257 3.2382a7.5264 7.5264 0 0 0 2.4626-.3229l.5688-2.99a7.446 7.446 0 0 1 -1.509.1421 1.2455 1.2455 0 0 1 -1.3927-1.4276 11.1694 11.1694 0 0 1 .2911-2.2347l1.2314-6.35h3.5325l.5823-2.9151h-3.5324zm142.3836 16.924-.083.4364h-.9607l-.4711 2.4757h-.4743l.4711-2.4757h-.9655l.083-.4364zm3.5537 0-.5541 2.9121h-.4743l.388-2.0387-1.1823 1.3815h-.2832l-.6558-1.3856-.3887 2.0428h-.4743l.5541-2.9121h.4282l.79 1.6681 1.4239-1.6681zm-19.2116 8.8076c2.89 1.3369 5.7379.7452 7.8029-2.949v-.0062l10.5532-18.8112h-4.0168l-5.9933 11.7432-1.456-11.7432h-3.9534l2.8115 15.4473-1.2307 2.4658c-1.1057 1.8893-3.0352 1.2728-3.9327.7749zm-117.8919-53.9727a11.5713 11.5713 0 0 1 -3.4 8.54c-2.9993 2.9774-7.865 4.6009-13.7154 4.5559-4.1986-.0695-8.4407-1.09-10.8407-2.5647l1.5988-8.41a24.1513 24.1513 0 0 0 10.3036 2.9047c2.7306 0 4.57-1.26 4.57-3.2808 0-1.8319-1.2929-3.1122-4.5957-4.7281-5.2241-2.6122-7.838-5.9238-7.838-9.8268 0-7.68 6.5411-12.8693 16.355-12.8693 5.1928 0 8.5735 1.2237 10.448 2.4266l-1.5959 8.3938a17.5024 17.5024 0 0 0 -9.38-2.6741c-2.86 0-4.7231 1.198-4.7231 3.2036 0 1.4386 1.4254 2.7277 4.4428 4.1986 3.9303 1.9633 8.3706 4.8713 8.3706 10.1306zm-68.0241-25.6029c-13.8248 0-24.2416 10.0953-24.2416 23.4829 0 9.2456 6.1435 15.2156 15.6732 15.2156a25.8506 25.8506 0 0 0 10.5891-1.9885l1.7466-9.2237a19.5132 19.5132 0 0 1 -9.2271 2.3857c-3.485 0-7.2235-2.0054-7.2235-7.6028 0-6.596 4.678-13.4413 12.53-13.4413a12.0076 12.0076 0 0 1 6.0883 1.4493l1.7093-8.9679a21.2833 21.2833 0 0 0 -7.6443-1.3093zm193.8509 30.0987a24.591 24.591 0 0 0 12.96-3.6573l-1.7668 9.2846c-5.2575 2.6843-11.4342 2.9758-13.8464 2.9758-10.2637 0-16.1311-5.708-16.1311-15.6735a24.6168 24.6168 0 0 1 5.7876-15.7979 20.5983 20.5983 0 0 1 15.8777-7.3058c7.7647 0 12.944 4.5111 12.944 11.2a10.14 10.14 0 0 1 -2.9888 7.5692c-3.7084 3.6141-12.8482 5.64-21.1721 4.0049-.3964 4.6893 3.1343 7.4 8.3359 7.4zm-7.13-14.557c6.474.0531 10.1157-.6018 11.7049-2.1754 1.7205-1.71 1.1818-5.3723-3.06-5.3723-4.7712-.0005-7.8093 3.9118-8.6444 7.5472zm-17.2357-15.5417c-13.8248 0-24.2415 10.0953-24.2415 23.4829 0 9.2456 6.1434 15.2156 15.6731 15.2156a25.8511 25.8511 0 0 0 10.5892-1.9885l1.7465-9.2237a19.5135 19.5135 0 0 1 -9.2271 2.3857c-3.485 0-7.2234-2.0053-7.2234-7.6028 0-6.596 4.678-13.4413 12.53-13.4413a12.0081 12.0081 0 0 1 6.0883 1.4493l1.7092-8.9679a21.2851 21.2851 0 0 0 -7.6443-1.3093zm-26.0569 17.1221-3.9781 20.8192h-10.5363l1.3692-7.1658a11.094 11.094 0 0 1 -11.1178 8c-7.33 0-10.6431-6.5073-10.647-13.02a28.1392 28.1392 0 0 1 7.77-19.5968 21.0645 21.0645 0 0 1 15.2248-6.236c4.4763.0178 7.7876 1.3135 9.8626 3.8282 3.071 3.722 2.8191 9.3088 2.0526 13.3712zm-10.144-4.79c-.1286-2.6252-1.4951-4.04-3.9454-4.04-5.1887 0-9.6839 8.9557-9.68 15.1836.0014 3.8912 1.4436 6.3144 3.9529 6.3144 4.0134 0 7.47-4.1971 8.6593-10.3434a41.8713 41.8713 0 0 0 1.0132-7.1145zm-159.3409 4.79-3.9781 20.8192h-10.5363l1.3692-7.1658a11.0942 11.0942 0 0 1 -11.1178 8c-7.33 0-10.6431-6.5073-10.647-13.02a28.1391 28.1391 0 0 1 7.77-19.5968 21.0648 21.0648 0 0 1 15.2249-6.236c4.4762.0178 7.7876 1.3135 9.8625 3.8282 3.071 3.722 2.819 9.3088 2.0526 13.3712zm-10.144-4.79c-.1287-2.6252-1.4951-4.04-3.9454-4.04-5.1887 0-9.6839 8.9557-9.68 15.1836.002 3.8908 1.4436 6.314 3.953 6.314 4.0134 0 7.47-4.1971 8.6593-10.3434a41.8814 41.8814 0 0 0 1.0131-7.1141zm143.9825 1.7482c0 9.0451-4.3427 18.3191-12.17 22.4919a17.5608 17.5608 0 0 1 -8.0189 2.2036c-3.9185 0-6.1153-1.4649-7.3678-3.7234l-2.8021 14.81h-11.031l9.3639-49.2537h9.7159l-1.1359 5.9784c2.7449-3.993 6.81-6.664 11.4115-6.664 7.301 0 12.0344 5.5328 12.0344 14.1573zm-11.4722.8356c0-1.7533-.414-6.0112-4.4545-6.0112-4.1085 0-7.577 4.6808-8.9216 11.7806-.46 2.4275-1.7482 9.7163 3.327 9.7163 5.7941.0001 10.0491-8.2247 10.0491-15.4856zm-168.7659-6.0313 1.5722-8.2759h-9.7146l-7.2254 37.99h11.0329l2.9792-15.6637c1.7566-9.2364 7.0557-12.9325 14.5971-11.7908l2.1546-11.3315a15.2836 15.2836 0 0 0 -15.396 9.0719zm88.4878 29.0567 3.8-19.9893 7.8215 19.9893h11.8629l-8.0925-20.1481 14.7278-17.1845h-12.043l-14.2107 16.996 5.4969-28.916h-10.9557l-9.364 49.2526z"/></svg>