<?xml version="1.0" encoding="utf-8"?>
<!-- Generator: Adobe Illustrator 21.1.0, SVG Export Plug-In . SVG Version: 6.00 Build 0)  -->
<svg version="1.1" xmlns="http://www.w3.org/2000/svg" xmlns:xlink="http://www.w3.org/1999/xlink" x="0px" y="0px" width="509px"
	 height="600px" viewBox="0 0 509 600" style="enable-background:new 0 0 509 600;" xml:space="preserve">
<style type="text/css">
	.st0{fill:#AB2D34;}
	.st1{opacity:0.77;fill:#732126;}
	.st2{opacity:0.77;fill:#AB2D34;enable-background:new    ;}
	.st3{opacity:0.77;fill:#F7931E;enable-background:new    ;}
</style>
<g id="Layer_1">
	
		<rect x="-1888.8" y="351.2" transform="matrix(0.7071 -0.7071 0.7071 0.7071 -231.3096 243.7067)" class="st0" width="4134.6" height="99.8"/>
	
		<rect x="-1437.2" y="223.2" transform="matrix(0.7071 -0.7071 0.7071 0.7071 -319.9889 654.5187)" class="st1" width="4134.6" height="980.7"/>
	<polygon class="st2" points="2444,-0.4 2444.8,143.2 2004.9,601.2 1950.6,601.2 1935.9,601.2 1934.6,512.2 	"/>
	<polygon class="st3" points="1500.1,1216.9 1399.2,1319 764.2,1331.8 725.8,1293.4 715.4,1283 777.5,1219.2 	"/>
	<polygon class="st1" points="1871.4,266.6 1864.5,720.1 1413.5,720.4 1861.5,262.4 1873.7,251.2 	"/>
	<polygon class="st2" points="2258.5,-121.7 2258.5,62.3 2139.1,62.3 2139.1,0 	"/>
</g>
<g id="Layer_2">
</g>
<g id="Layer_3">
</g>
</svg>
