<svg viewBox="0 0 475.7 84.8" xmlns="http://www.w3.org/2000/svg"><g><path d="M74.7,25.6c1.7,0,2.9,0.5,3.8,1c2,0.9,4.2,2,7.1,3.4c0,0,4.6-3.3,4.9-3.5c1.6-1.1,3.1-0.3,3.6,0.7c1.7,3.3,4.9,10,6.6,16.2c0.2,0.7,0,1.9-1.2,2.2c-0.7,0.2-1.8,0.4-3,0.5c-1.7,0.2-1.6,1.6-1.6,2.4c0,1,0,7.9,0,10.2c0,1.4-1.1,6.1-6.5,6.1c-0.4,0-12.4,0-12.4,0c-4.7,0-8.4-3.9-8.4-8.1c0-2.8,0-22,0-24.2C67.5,28.3,71.3,25.5,74.7,25.6"/><path d="M55.1 64.8H15v4.5h47.1c0 0 1.7-3.9 1.7-8.3 0-.2 0-30.3 0-30.3 0-2.4 1-6.4 5.9-7.5.1 0 .3-.1.4-.1 13.9-3.3 28.2-.3 36.3 3.2 1.5.7 1.8-.5 1.7-1 .2-6.8-5-14.6-14.5-15-7.7-.2-12 2.6-13.6 3.4-.1.1-.3 0-.5-.2C78.1 12.1 75 10 71.6 9c-.5-.1-.6-.9 0-.9 7.3-.8 13.7 0 16.4.5.6.1 1.1-.3.8-.8-.2-.4-.3-.6-.6-1.3-.7-1.4-2.4-2.9-4.6-3.5-5.7-1.6-15.5-3-24.3-3-9.8-.1-20.2 1.9-22.8 2.5-.6.1-1.5.4-1.7.4-.5 0-.7.7-.4 1 .2.2.7.7 1 1 .3.4.5 1-.1 1.6L17.1 22.8h12.4.1c.8 0 1.6.7 1.6 1.6 0 .8-.7 1.6-1.5 1.6h-.1H13.5l-4.9 4.5h21.1.1c.8 0 1.5.9 1.5 1.6 0 .7-.6 1.6-1.5 1.6h-.1H5l-5 4.6h42.7.1c.8 0 1.5.9 1.5 1.6 0 .9-.6 1.7-1.5 1.7h-.1H0v4.5h42.6.1c1 0 1.5.9 1.5 1.7 0 .7-.7 1.5-1.6 1.5h-.1H0v4.5h55.7.1c.9 0 1.5.8 1.5 1.7 0 .8-.7 1.6-1.5 1.6h-.1H15v4.5h40.1.8c.8 0 1.4.9 1.4 1.7 0 .8-.7 1.6-1.4 1.6L55.1 64.8 55.1 64.8zM30 80.2v4.6c0 0 6 0 9.5 0 8.5-.1 14-4.6 14-4.6H30zM30 72.5V77h27.3c1.3-1.3 2.9-3.6 3.3-4.5H30zM469.5 44.9c0-.1 0-.2 0-.2-.2-3.5-1.3-6.6-2.9-9-3.4-5.3-9.3-8.2-16.4-8.1-7.1-.1-13.1 2.8-16.4 8.1-1.6 2.4-2.8 5.5-2.9 9 0 .1 0 .2 0 .2-1 11.6 5.8 19.7 17.4 20.6.7.1 1.4.1 2 .1.7 0 1.3 0 2-.1C463.7 64.6 470.4 56.6 469.5 44.9M451 60.1c-.3 0-.6 0-.9 0s-.6 0-.9 0c-1.7-.2-3-.8-4.2-1.7-.3-.3-.7-.6-1-1-1.8-2-2.7-5.4-3-8.1-.5-6.3.7-15.5 8.4-16.1.2 0 .4 0 .6 0h.1.1c.2 0 .4 0 .6 0 7.7.6 9 9.8 8.5 16.1-.2 2.7-1.1 6.1-3 8.1-.3.4-.7.7-1 1C454 59.3 452.6 59.9 451 60.1M392.7 36.3c0-2.9.3-7.9.3-7.9l0 0h-9.5l0 0c0 0 .3 5.1.3 7.9V57c0 2.9-.3 7.8-.3 7.8l0 0h9.4l0 0c0 0-.3-4.9-.3-7.8L392.7 36.3zM337.3 59.1c-2 0-4.6 0-6.6 0-.1-3.7-.1-7.2-.1-10.4v-.5l0 0v-.1h10.9V43h-10.9c0-5.5.1-9.2.1-9.2h13.6v-5.5c-9.5 0-23.2 0-23.2 0s.2 5 .2 7.9v20.7c0 2.6-.2 7.1-.2 7.9h24.1V59C345.3 59 340.5 59.1 337.3 59.1M179.5 59.1c-2 0-4.6 0-6.6 0-.1-3.7-.1-7.2-.1-10.4v-.5l0 0v-.1h10.9v-5.2h-10.9c0-5.5.1-9.2.1-9.2h13.6v-5.5c-9.5 0-23.2 0-23.2 0s.2 5 .2 7.9v20.8c0 2.6-.2 7.1-.2 7.9h24.1V59C187.4 59 182.6 59.1 179.5 59.1M368.3 45.2l10.5-16.8h-7.2l-.1.2c-2.2 3.8-4.9 8.4-6 10.1l-.4.7L359 28.3h-10.9l10.5 18.9-10.9 17.6h7.2c4.7-8 7.1-11.6 7.1-11.6l6.5 11.6h10.8L368.3 45.2zM422.2 59.8c-8.4 0-13-6.2-12.7-13.8.2-6.6 3.2-12.3 10.5-12.8 2.8-.2 5 .3 8.9 1.3l-.4-5.7c0 0-3.3-1-8-1.2-6-.2-11.4.9-15.8 4.9-3.9 3.5-6.2 8.8-6.2 13.9 0 5.6 2.3 10.8 6.7 14.4 4.5 3.8 9.4 4.7 15.1 4.7 3.8 0 6-.3 9.7-1.2l-.6-5.6C428.7 59 426 59.8 422.2 59.8M300.6 22.9h10.5l.3 2.4c2.4 24.3 3.8 39.5 3.8 39.5h-11l-1.1-15.1-1-13.5-9.3 28.5c-2.5 0-5.9 0-5.9 0s-2.9-10.1-3.5-11.6L278.1 36c0 0-.8 9.5-1.1 13.6-.6 8.2-1.2 15.1-1.2 15.1h-8.2c0 0 3.4-34.1 3.6-36.2.3-2.1.7-5.8.7-5.8h10.8l8.9 24.5L300.6 22.9zM263.2 45c0-.1 0-.2 0-.2-.2-3.5-1.3-6.6-2.9-9-3.4-5.3-9.3-8.1-16.4-8-7.1-.1-13 2.7-16.4 8-1.6 2.4-2.8 5.5-2.9 9 0 .1 0 .2 0 .2-1 11.6 5.8 19.6 17.3 20.5.7.1 1.4.1 2 .1.7 0 1.3 0 2-.1C257.4 64.6 264.1 56.6 263.2 45M244.8 60.1c-.3 0-.6 0-.9 0-.3 0-.6 0-.9 0-1.7-.2-3-.8-4.2-1.7-.3-.3-.7-.6-1-1-1.8-2-2.7-5.4-3-8.1-.5-6.3.7-15.4 8.4-16 .2 0 .4 0 .6 0h.1.1c.2 0 .4 0 .6 0 7.7.6 8.9 9.8 8.4 16-.2 2.7-1.1 6-2.9 8.1-.3.4-.7.7-1 1C247.8 59.3 246.3 59.9 244.8 60.1M161 64.8c-.3-.8-2.3-5.4-3.7-9.1L145 22.9h-9.6c0 0-2.7 7.7-3.1 9l-9 25.4c-1.2 3.3-2.8 7.5-2.8 7.5h7.8c0 0 2.2-7.1 2.7-8.3l1.2-3.5h13.6l1.9 5.4c.4 1 2 6.4 2 6.5L161 64.8 161 64.8zM134.2 46.9l4.6-13.6.3-.8 4.8 14.4H134.2zM225.1 64.8c-2.3-3.2-3.1-4.6-4.8-7l-6.5-10.2c3.1-1.5 6.1-4.1 6.5-9.6.3-3.4-1.5-6.2-2.6-7.2-1.6-1.4-3.1-2-5.3-2.2-1.7-.2-3-.2-4-.3H193c0 0 .2 5 .2 7.9v20.6c0 2.9-.2 7.9-.2 7.9h9.5c0 0-.3-5-.3-7.9l.1-6.6c0 0 2.1 0 3.5 0l6 11c.8 1.4 2 3.1 2.2 3.6H225.1zM208.3 44.4c-1.4.7-4.6.5-6.2.4l.1-10.4.9-.1c2.9-.2 5 .2 5.9.6 1.3.6 2.1 1.8 2.1 3.9C211.3 41.9 210.1 43.5 208.3 44.4M468.5 61.2c0-2 1.6-3.6 3.6-3.6s3.6 1.6 3.6 3.6-1.6 3.6-3.6 3.6S468.5 63.2 468.5 61.2M474.8 61.2c0-1.7-1.2-2.9-2.7-2.9s-2.7 1.2-2.7 2.9 1.2 2.9 2.7 2.9C473.6 64.1 474.8 62.9 474.8 61.2M470.7 59.2h1.5c1 0 1.5.3 1.5 1.2 0 .7-.4 1-1.1 1.1l1.1 1.8h-.8l-1.1-1.8h-.5v1.8h-.8v-4.1H470.7zM471.4 60.9h.7c.4 0 .8-.1.8-.6s-.4-.6-.8-.6h-.7V60.9z"/></g><path  d="M368.6,75.8c-70.8-15.4-101,8.8-101,8.8s33-19.5,101-4.7c69.4,15.1,101-9.2,101-9.2S434.3,90.2,368.6,75.8z"/></svg>