<svg xmlns="http://www.w3.org/2000/svg" width="300" height="82.3988" viewBox="0 0 300 82.3988"><path d="M88.4349,63.6693c-2.172-.1552-1.59-5.2363-6.1865-4.6739-3.2582.3879-3.6072,4.2666-3.8787,7.292-.33,3.3745-.7176,6.2448-1.7067,5.8181s-.6206-1.9394-.9891-6.652c-.4072-5.3914-1.726-8.3587-4.9453-8.8823-3.8788-.6206-5.45,5.3139-6.1284,7.6217s-1.9394,3.3357-2.6182,3.3357-1.7454-.31-2.0557-3.0254,1.9394-7.389,5.023-10.6665C74.2582,44.0235,87.64,37.1,87.64,21.9342,87.62,7.5829,77.4,0,67.8389,0A17.1829,17.1829,0,0,0,55.1555,5.6435c-2.2691,2.23-3.2388,4.7321-4.1115,4.7321s-1.823-2.5018-4.0726-4.7321A17.222,17.222,0,0,0,34.2879,0C24.8045,0,14.5064,7.5635,14.5064,21.8954c0,15.1658,13.3622,22.0893,22.6906,31.9025,3.0836,3.2775,5.275,7.932,5.0229,10.6665s-1.4157,2.8121-1.9393,2.7927-1.7649-.5236-2.657-3.8787-1.823-5.8181-5.2168-6.0508c-3.7818-.2328-4.7709,4.9647-5.1006,9.0956-.2715,3.549-.3685,10.22-1.7066,9.6968-.7758-.33-1.1636-7.9708-1.8036-13.8277-.4849-4.5381-1.0861-14.2349-3.7236-15.9609-3.2-2.0945-6.012.2521-6.8847,3.9757-.6594,2.7733-.7564,5.0811-1.59,8.8047-.6206,2.7733-1.3188,4.5187-4.0145,4.5187H0v4.0727H1.7648c9.8132.4072,12.5671-.6012,13.75-5.023a96.35,96.35,0,0,0,1.6872-9.6968c.3491-1.9394,1.5321-2.89,2.0558,2.463.2521,2.6569.5042,6.0508.9115,9.4835,1.2024,10.1234,1.5127,17.1245,5.9344,17.4542,4.9066.4267,4.9454-8.5913,5.2751-12.16.1939-2.269.4848-8.7465,1.6291-8.0483,1.59.95.989,9.0956,8.5331,9.4253,4.3248.2133,5.9151-3.0642,6.206-6.71s-3.006-8.5138-7.4665-12.8968C29.5365,41.4248,22.07,35.9752,22.07,24.339S30.351,6.5356,37.5848,6.5356c1.59,0,6.4775-.2715,12.3732,9.27a1.2992,1.2992,0,0,0,2.25,0c5.8181-9.5417,10.7635-9.27,12.3732-9.27,7.2338,0,15.5149,5.8181,15.5149,17.8034S72.5516,41.1921,61.8851,51.7616c-4.4412,4.3829-7.486,9.6968-7.4084,13.1877s1.9394,6.9235,6.206,6.71c7.292-.33,6.8847-6.3029,8.378-9.5416.8145-1.7261,1.9394-1.7261,2.1139.8727s.2715,3.51.5624,6.2835c.3491,3.5685,1.6291,7.5829,4.8484,7.2726,2.7733-.2715,4.3636-1.9393,4.8872-7.1174.1358-1.4933.2522-2.1721.4461-4.3442.1164-1.2412.4848-2.1721,1.0278-1.9394s1.0473,1.4546,1.4158,2.3079a4.4411,4.4411,0,0,0,4.4023,2.4436h11.3647V63.8244c-4.4411,0-10.3174,0-11.6362-.1357m39.0394-53.2161c4.7126,0,7.4084,2.6957,7.4084,5.818a4.4024,4.4024,0,0,1-3.7236,4.7515c-.7564.2133-.8339,1.0666,0,1.2024a5.2169,5.2169,0,0,1,4.5963,5.6241c0,3.646-3.3745,6.09-7.389,6.09H117.6418V10.4726Zm-5.5272,19.7427h5.8181c2.1915,0,3.4521-.97,3.4521-2.8315,0-2.2884-2.1527-2.6569-3.7624-3.4133a2.25,2.25,0,0,1,0-4.2278c1.3382-.5624,2.9284-.9309,2.9672-2.9866,0-1.61-1.1636-2.6375-3.2-2.6375h-5.2751ZM142.291,17.92v1.7842a5.7021,5.7021,0,0,1,4.926-2.0945v3.9951c-3.0448,0-4.5575,1.3963-4.5575,3.8787v8.475h-4.4023V17.92Zm6.8654-4.3248a2.5891,2.5891,0,1,1,2.5793,2.5988A2.5986,2.5986,0,0,1,149.1564,13.5949ZM153.83,17.92v15.961h-4.4024V17.92Zm14.72,13.2265a5.12,5.12,0,0,1-4.8484,3.0642,4.4412,4.4412,0,0,1-4.8484-4.8484V21.5075h-2.6375V17.92h2.6375V12.5865h4.3054V17.92h3.646v3.5878h-3.6072v7.8738c0,.834.3685,1.2412.9309,1.2412s.9309-.349,1.4351-1.2605l.4267-.8146,2.9672,1.6679Zm1.7455-17.5513a2.5891,2.5891,0,1,1,2.5793,2.5988A2.5986,2.5986,0,0,1,170.2955,13.5949Zm4.6738,4.3248v15.961h-4.3248V17.92Zm7.2532,11.4035c0,.8339.97,1.2605,2.4242,1.2605s2.2691-.4654,2.2691-1.3381c0-2.9478-8.2811-.9891-8.2811-6.71,0-2.89,2.463-4.8484,6.5745-4.8484a7.7574,7.7574,0,0,1,5.818,2.25l-2.1527,2.6376A5.1582,5.1582,0,0,0,185.2867,21.1c-1.629,0-2.269.5624-2.269,1.28,0,2.4824,8.32,1.0861,8.32,6.6715,0,3.1223-2.5987,5.0811-6.7489,5.0811-3.8788,0-6.5939-1.6485-6.5939-4.383a4.499,4.499,0,0,1,.737-2.3854l3.7623,1.2606A1.65,1.65,0,0,0,182.2225,29.3232Zm26.7051-5.7212c0,1.3188-.33,3.0254-.33,5.1781a19.393,19.393,0,0,0,.6594,5.1006h-4.3248a18.6189,18.6189,0,0,1-.6594-4.9648c0-1.9394.2909-3.4133.2909-4.5575a2.6956,2.6956,0,0,0-3.0448-3.0836,3.433,3.433,0,0,0-3.7236,3.8787v8.8241h-4.3248V9.9683h4.2666v9.6968a6.1479,6.1479,0,0,1,4.8872-2.0751,5.8187,5.8187,0,0,1,6.303,6.012ZM239.841,10.4726V33.8807h-4.4217V23.4663h-2.87c-5.12,0-7.6411,2.5018-7.6411,6.6908v3.7236h-4.4411V10.4726h4.4411v12.16a11.52,11.52,0,0,1,8.3005-2.89H235.4v-9.27Zm17.4931,21.3136A9.0767,9.0767,0,0,1,250.43,34.21a7.7576,7.7576,0,0,1-8.3781-8.2423,8.1453,8.1453,0,0,1,7.9153-8.369q.3478-.01.6955.01c4.3054,0,6.2835,2.5406,6.2835,5.1587,0,4.3636-5.3526,5.8181-10.3174,5.8181.5624,1.2994,1.726,1.9394,3.8787,1.9394a7.3113,7.3113,0,0,0,4.7126-1.61Zm-11.21-6.2254c4.0145,0,6.5745-.64,6.5745-2.5987,0-1.0279-.6982-1.7843-2.3273-1.7843a4.189,4.189,0,0,0-4.2512,4.1259Q246.1186,25.4322,246.1245,25.5608Zm24.5136,8.32c-.2327-.737-.4267-1.4352-.6012-2.1721a6.42,6.42,0,0,1-5.45,2.5018c-3.5684,0-5.663-2.0364-5.663-4.9648s1.9394-4.6739,7.1175-4.79c1.5321,0,3.103-.097,3.103-1.3576s-.9115-1.7842-2.8315-1.7842a4.0532,4.0532,0,0,0-3.5878,1.6485L259.39,20.9063a7.7574,7.7574,0,0,1,6.8847-3.2969c4.3248,0,7.1951,2.0945,7.2144,6.6908a29.9235,29.9235,0,0,0,1.1443,9.58Zm-1.1055-4.9648a9.6257,9.6257,0,0,0-.1551-2.0557,7.4293,7.4293,0,0,1-2.89.3685c-1.28,0-3.2581.1939-3.2581,2.1139a1.9394,1.9394,0,0,0,1.9315,1.9472q.0914,0,.1824-.0079A5.4494,5.4494,0,0,0,269.5326,28.9159ZM280.8779,17.92v1.7842a5.702,5.702,0,0,1,4.8484-2.0945v3.9951c-3.0448,0-4.5381,1.3963-4.5381,3.8787v8.475h-4.3248V17.92Zm18.6567,13.2265a5.12,5.12,0,0,1-4.8484,3.0642,4.461,4.461,0,0,1-4.7709-4.8484V21.5075h-2.6569V17.92h2.6569V12.5865H294.24V17.92h3.5878v3.5878H294.24v7.8738c0,.834.3685,1.2412.9309,1.2412s.9309-.349,1.4351-1.2605l.4267-.8146L300,30.2153ZM122.0053,48.038v7.2144a9.27,9.27,0,0,1,5.8181-1.59h3.1612V57.347h-3.8788c-3.4714,0-4.9841,1.5321-4.9841,4.0532v6.303h-4.48V44.4308h14.6422v3.6848Zm10.7441,11.7913a8.572,8.572,0,1,1,8.8763,8.2565q-.1134.0042-.2268.0052a8.0871,8.0871,0,0,1-8.6321-7.5026Q132.74,60.21,132.7494,59.8293Zm12.761,0c0-2.9284-1.5515-4.6932-4.189-4.6932a4.1113,4.1113,0,0,0-4.2278,4.81,4.2278,4.2278,0,1,0,8.4168,0Zm6.4581,2.23c0-1.3188.33-3.0448.33-5.1393a19.2225,19.2225,0,0,0-.6594-5.12h4.3248a18.4473,18.4473,0,0,1,.6594,4.9841c0,1.9394-.31,3.3939-.31,4.5188,0,1.9393.9115,3.0836,2.87,3.0836a3.433,3.433,0,0,0,3.7624-3.743V51.8H167.27V67.7032h-4.0339V65.9577a7.0009,7.0009,0,0,1-5.2945,2.0945,5.6823,5.6823,0,0,1-5.9732-5.9926Zm33.8806-4.5769c0,1.3188-.33,3.0254-.33,5.1781a19.3917,19.3917,0,0,0,.6593,5.1005h-4.3247a18.6141,18.6141,0,0,1-.6594-4.9647c0-1.9394.2909-3.4327.2909-4.5575a2.6958,2.6958,0,0,0-3.0254-3.0836,3.4327,3.4327,0,0,0-3.7236,3.7817v8.766h-4.2472V51.8h3.8787v1.7454a7.2724,7.2724,0,0,1,5.12-2.0557,5.8176,5.8176,0,0,1,6.3611,5.9926Zm15.67,10.22a10.938,10.938,0,0,1-.4267-2.1333,6.4,6.4,0,0,1-5.3914,2.54,7.7576,7.7576,0,0,1-7.7765-7.7384q-.0006-.2812.019-.562a8.1066,8.1066,0,0,1,7.89-8.3171q.0984-.0025.1968-.0028a5.818,5.818,0,0,1,4.0532,1.4739V43.849h4.383V57.25a43.656,43.656,0,0,0,1.1636,10.5113Zm-1.2412-7.99c0-2.9672-1.59-4.6157-4.0533-4.6157S192.21,56.7458,192.21,59.713s1.5515,4.6157,4.0144,4.6157,4.1115-1.5709,4.1115-4.5575Zm19.0445,7.99c-.2327-.737-.4266-1.4352-.5818-2.1721a6.4585,6.4585,0,0,1-5.469,2.5018c-3.549,0-5.6435-2.0364-5.6435-4.9648s1.9393-4.6739,7.1174-4.79c1.5321,0,3.0836-.097,3.0836-1.3576s-.8921-1.8036-2.8121-1.8036a4.1114,4.1114,0,0,0-3.6072,1.6678l-3.3163-2.0557a7.7573,7.7573,0,0,1,6.8848-3.2969c4.3247,0,7.1756,2.0945,7.2144,6.6908a29.9241,29.9241,0,0,0,1.1248,9.58Zm-1.086-5.0618a20.074,20.074,0,0,0-.1745-2.0557,7.0214,7.0214,0,0,1-2.89.3491c-1.2606,0-3.2581.2133-3.2581,2.1333a1.9394,1.9394,0,0,0,2.1333,1.9393,5.45,5.45,0,0,0,4.189-2.3078Zm18.8118,2.3854A5.12,5.12,0,0,1,232.2,68.091a4.4413,4.4413,0,0,1-4.7514-4.8678V55.4658h-2.657V51.8h2.657V46.4671h4.3248V51.8h3.5878v3.5878h-3.5878V63.262c0,.8339.3685,1.2218.9309,1.2218s.9309-.33,1.4157-1.2606l.4461-.7951,2.9478,1.6678Zm1.8036-17.5512a2.8337,2.8337,0,1,1,2.5988,2.5794A2.5987,2.5987,0,0,1,238.8519,47.4756ZM243.5452,51.8V67.7032H239.22V51.8Zm2.9284,8.0289a8.5526,8.5526,0,1,1,8.8385,8.2568q-.1332.0045-.2665.0049a8.0871,8.0871,0,0,1-8.56-7.5854Q246.4657,60.168,246.4736,59.8293Zm12.761,0c0-2.9284-1.5709-4.6932-4.189-4.6932a4.1113,4.1113,0,0,0-4.2278,4.81,4.2278,4.2278,0,1,0,8.4168,0Zm22.6712-2.3466c0,1.3188-.33,3.0254-.33,5.1781a19.3918,19.3918,0,0,0,.6594,5.1005h-4.3248a19.3921,19.3921,0,0,1-.6594-4.9647c0-1.9394.31-3.4327.31-4.5575a2.6958,2.6958,0,0,0-3.0254-3.0836,3.4327,3.4327,0,0,0-3.7236,3.7817v8.766h-4.3247V51.8h4.0145v1.7454a7.2724,7.2724,0,0,1,5.12-2.0557,5.8181,5.8181,0,0,1,6.2835,5.9926Z" fill="#fff"/></svg>