<svg xmlns="http://www.w3.org/2000/svg" viewBox="0 0 341.7 45.7"><path d="M331.6.9v28.9C329.9 26.9 315 .9 315 .9h-13.1v44.8H312V16c1.7 3 17 29.6 17 29.6h12.6V.9h-10zM32 .9s-8.1 24.8-8.9 27.4C22.2 25.7 14.2.9 14.2.9H0v44.8h9.9V15.1c1.6 5.3 9.3 30.6 9.3 30.6h7.5s8.1-25.6 9.7-30.7v30.7h9.9V.9H32m131.7 44.8h-33.1V.9h33.1v8.7h-22.3v8.3h20.4v8.7h-20.4V37h22.3m-108.3.6h24.3v8.1H55.4zM112 .9s-12 15-13.7 17V.9H88.1v44.8h10.2V25.9c1.8 2.2 14 19.8 14 19.8h14.2s-18.8-23.2-19.5-24c.7-.8 18.4-20.7 18.4-20.7H112zm140.6 22.2c0 13.8 7.3 23.4 21.2 23.4 13.7 0 21.2-9.8 21.2-23.4C295 9.5 287.4 0 273.8 0c-13.8 0-21.2 9.4-21.2 23.1m10.8.1c0-6.8 3-13.7 10.4-13.7s10.4 7 10.4 13.7c0 7-2.8 14-10.4 14-7.6-.1-10.4-7.1-10.4-14m-71.3-4.8c-4.9-1.3-9.5-2.1-9.6-5.2 0-.9.3-1.6 1-2.3 1.7-1.6 5.6-2.1 8.7-1.9 4.7.4 7.5 1.2 11.2 3.3l2.2-9.1c-5.7-2-10.1-3.3-16.3-3.2-11.2.1-18.2 5.6-18.2 14.4 0 9 8.5 11.3 15.7 13.3 4.7 1.3 9.3 2 9.3 5.5s-5.6 4.7-9.4 4.7c-4.4 0-8.4-1.2-13.2-4l-2.9 9c6.5 2.5 10.4 3.6 16.6 3.6 6.8 0 12.4-1.9 15.8-5.3 2.5-2.4 3.8-5.7 3.8-9.4.1-9.1-7.9-11.6-14.7-13.4m40.6 0c-4.9-1.3-9.5-2.1-9.6-5.2 0-.9.3-1.6 1-2.3 1.8-1.6 5.7-2.1 8.7-1.9 4.7.4 7.5 1.2 11.2 3.3l2.2-9.1c-5.7-2-10.1-3.3-16.3-3.2-11.2.1-18.2 5.6-18.2 14.4 0 9 8.5 11.3 15.7 13.3 4.7 1.3 9.3 2 9.3 5.5s-5.6 4.7-9.4 4.7c-4.4 0-8.4-1.2-13.2-4l-2.9 9c6.4 2.5 10.4 3.6 16.6 3.6 6.8 0 12.4-1.9 15.9-5.3 2.4-2.4 3.8-5.7 3.8-9.4 0-9.1-8-11.6-14.8-13.4M70.5 32.9c3.8 0 7.4-.6 10.4-2.1l-3.1-7.2c-1.5.9-3.4 1.5-5.3 1.5-5.3 0-9.6-2.6-9.6-8.6s4.3-8.6 9.6-8.6c2 0 3.8.5 5.3 1.4l3.1-7.2C77.9.7 74.3 0 70.5 0 59.8.1 53 6.2 53 16.5c0 10.2 6.8 16.4 17.5 16.4" fill="#FFF"/></svg>