<svg xmlns="http://www.w3.org/2000/svg" width="230" height="40" viewBox="0 0 230 40"><path d="M36.01,19.572a8.2379,8.2379,0,0,1,8.2429-8.124,7.7378,7.7378,0,0,1,5.5678,2.24L48.256,15.2524a5.6636,5.6636,0,0,0-4.0031-1.585,5.9052,5.9052,0,0,0,0,11.8092,5.43,5.43,0,0,0,4.1019-1.6255,4.6314,4.6314,0,0,0,1.2089-2.7931H44.2529V18.8389h7.47a7.2828,7.2828,0,0,1,.1191,1.3875,7.3235,7.3235,0,0,1-1.9229,5.19,7.417,7.417,0,0,1-5.6666,2.2788A8.2377,8.2377,0,0,1,36.01,19.572m21.8691-2.3382a5.2306,5.2306,0,1,1-5.2512,5.231,5.1553,5.1553,0,0,1,5.2512-5.231m0,8.4a3.025,3.025,0,0,0,2.9522-3.1689,2.96,2.96,0,1,0-5.9046,0,3.0251,3.0251,0,0,0,2.9524,3.1689m11.4544-8.4a5.2306,5.2306,0,1,1-5.2513,5.231,5.1555,5.1555,0,0,1,5.2513-5.231m0,8.4a3.0249,3.0249,0,0,0,2.952-3.1689,2.96,2.96,0,1,0-5.9044,0,3.0252,3.0252,0,0,0,2.9525,3.1689m16.24-8.0822v9.3911c0,3.8639-2.2788,5.449-4.973,5.449A4.9893,4.9893,0,0,1,75.9617,29.3l2.0026-.831A2.8949,2.8949,0,0,0,80.6,30.3305c1.7223,0,2.793-1.0709,2.793-3.0714v-.7519h-.0784A3.5659,3.5659,0,0,1,80.56,27.6949a5.2353,5.2353,0,0,1,0-10.4611,3.629,3.629,0,0,1,2.7548,1.17h.0784v-.8519Zm-4.8156,8.0822a2.9232,2.9232,0,0,0,2.7949-3.1487,2.9487,2.9487,0,0,0-2.7949-3.19,3.0246,3.0246,0,0,0-2.912,3.19,3,3,0,0,0,2.912,3.1487m8.6995-13.631h-2.299V27.38h2.299Zm6.3,13.631A2.9914,2.9914,0,0,0,98.3342,24.19l1.7825,1.1877a5.202,5.202,0,0,1-4.36,2.3171,5.1185,5.1185,0,0,1-5.1908-5.23,4.971,4.971,0,0,1,4.9327-5.231,4.8633,4.8633,0,0,1,4.479,3.3293l.2378.5939L93.22,24.0488a2.6589,2.6589,0,0,0,2.537,1.5848m-.1774-6.3783a2.868,2.868,0,0,0-2.7348,3.0511l4.6747-1.9419a2.022,2.022,0,0,0-1.94-1.1092M115.24,27.0127a6.8773,6.8773,0,0,0,2.4739-1.8707l-1.3271-1.286a5.5458,5.5458,0,0,1-4.2938,2.0785,5.35,5.35,0,0,1-3.9395-1.584,5.5126,5.5126,0,0,1-1.5623-4.0764,5.5157,5.5157,0,0,1,1.5623-4.0772,5.3522,5.3522,0,0,1,3.9395-1.5832,4.8381,4.8381,0,0,1,3.8992,1.8409l1.3062-1.2667a6.5533,6.5533,0,0,0-5.2054-2.316,7.2348,7.2348,0,0,0-7.362,7.4023,7.2018,7.2018,0,0,0,7.362,7.4014A7.5462,7.5462,0,0,0,115.24,27.0127Zm3.91-13.8237v14.17h1.8216V13.189Zm4.6146,13.0224a4.7876,4.7876,0,0,0,3.5819,1.464,4.7239,4.7239,0,0,0,3.561-1.464,5.0479,5.0479,0,0,0,1.4254-3.7011,5.0917,5.0917,0,0,0-1.4254-3.7011,4.7239,4.7239,0,0,0-3.561-1.464,4.7876,4.7876,0,0,0-3.5819,1.464,5.13,5.13,0,0,0-1.406,3.7011A5.129,5.129,0,0,0,123.7651,26.2114Zm1.3255-6.2144a3.0652,3.0652,0,0,1,4.5112,0,3.5234,3.5234,0,0,1,.9116,2.5133,3.5521,3.5521,0,0,1-.9116,2.5335,3.1085,3.1085,0,0,1-4.5112,0,3.5511,3.5511,0,0,1-.91-2.5335A3.5224,3.5224,0,0,1,125.0906,19.997Zm17.2258-2.3353h-1.8216v5.3632a3.1894,3.1894,0,0,1-.7312,2.1075,2.2766,2.2766,0,0,1-1.8216.881,2.1412,2.1412,0,0,1-2.395-2.3748V17.6616h-1.82v6.0953a4.0713,4.0713,0,0,0,.96,2.9,3.5829,3.5829,0,0,0,2.7412,1.0187,3.65,3.65,0,0,0,1.791-.4751,3.2352,3.2352,0,0,0,1.2756-1.187h.0805V27.359h1.741Zm8.0208,9.5588a3.4051,3.4051,0,0,0,1.3545-1.2071h.0789V27.359h1.7427V13.189h-1.8216v4.4726l.0789,1.3456h-.0789A3.4051,3.4051,0,0,0,150.3372,17.8a4.1834,4.1834,0,0,0-1.95-.455,4.2613,4.2613,0,0,0-3.2646,1.5035,5.3362,5.3362,0,0,0-1.3465,3.6617,5.3341,5.3341,0,0,0,1.3465,3.6609,4.26,4.26,0,0,0,3.2646,1.5043A4.1834,4.1834,0,0,0,150.3372,27.22Zm-3.8493-2.1968a3.5675,3.5675,0,0,1-.8907-2.5133,3.6113,3.6113,0,0,1,.8907-2.5133,2.8369,2.8369,0,0,1,2.1952-.99,2.8,2.8,0,0,1,2.1968.99,3.6112,3.6112,0,0,1,.8907,2.5133,3.5967,3.5967,0,0,1-.8907,2.5335,2.787,2.787,0,0,1-2.1968.97A2.8369,2.8369,0,0,1,146.4879,25.0236Zm16.93-3.47a4.4055,4.4055,0,0,0,3.1608-1.22,4.1386,4.1386,0,0,0,0-6.0616,4.4118,4.4118,0,0,0-3.1608-1.24h-4.8813V27.3554h1.84V21.5539Zm.04-6.7616a2.49,2.49,0,0,1,1.82,4.261,2.4322,2.4322,0,0,1-1.82.74h-3.0809V14.7923Zm5.7375-1.76V27.3554h1.84V13.0318Zm3.7567,6.1216,1.62,1.02a2.8207,2.8207,0,0,1,2.4407-1.3,2.6079,2.6079,0,0,1,1.78.67,2.096,2.096,0,0,1,.76,1.63v.42a5.4347,5.4347,0,0,0-2.7007-.6,4.847,4.847,0,0,0-3.0708.9,2.9143,2.9143,0,0,0-1.15,2.4207,3.066,3.066,0,0,0,1.09,2.4005,3.9523,3.9523,0,0,0,2.7106.96,3.5116,3.5116,0,0,0,3.0409-1.68h.08v1.36h1.76V21.3138a3.8708,3.8708,0,0,0-1.18-2.9907,4.5632,4.5632,0,0,0-3.2208-1.09A4.5176,4.5176,0,0,0,172.9526,19.1533Zm2.3306,3.861a3.1171,3.1171,0,0,1,1.87-.54,3.7816,3.7816,0,0,1,2.4007.68,2.6936,2.6936,0,0,1-.91,2.02,2.933,2.933,0,0,1-2.07.86,2.2449,2.2449,0,0,1-1.43-.48,1.4692,1.4692,0,0,1-.61-1.2A1.604,1.604,0,0,1,175.2832,23.0143Zm13.0051,4.2411-.58-1.6405a2.196,2.196,0,0,1-.39.13,1.8413,1.8413,0,0,1-.43.05,1.236,1.236,0,0,1-.86-.35,1.79,1.79,0,0,1-.38-1.33V19.2333h2.4005v-1.68h-2.4005V14.5522h-1.84v3.0007h-1.7205v1.68h1.7205v5.4814a2.7437,2.7437,0,0,0,.81,2.0605,2.7963,2.7963,0,0,0,1.99.74A4.9477,4.9477,0,0,0,188.2883,27.2555Zm3.7506-13.4835a3.1368,3.1368,0,0,0-.93,2.3607v1.42h-1.84v1.68h1.84v8.1221h1.84V19.2333H195.51v-1.68h-2.5608v-1.24a1.78,1.78,0,0,1,.43-1.25,1.4369,1.4369,0,0,1,1.11-.47,2.3819,2.3819,0,0,1,1.08.24l.5-1.62a3.4837,3.4837,0,0,0-1.64-.34A3.2951,3.2951,0,0,0,192.0389,13.7719Zm5.3252,12.4232a4.84,4.84,0,0,0,3.6209,1.48,4.776,4.776,0,0,0,3.6008-1.48,5.1025,5.1025,0,0,0,1.44-3.741,5.1458,5.1458,0,0,0-1.44-3.7409,4.7773,4.7773,0,0,0-3.6008-1.48,4.8415,4.8415,0,0,0-3.6209,1.48,5.1853,5.1853,0,0,0-1.42,3.7409A5.1843,5.1843,0,0,0,197.3642,26.1951Zm1.34-6.2817a3.1,3.1,0,0,1,4.5611,0,3.5633,3.5633,0,0,1,.92,2.5406,3.5906,3.5906,0,0,1-.92,2.5608,3.1431,3.1431,0,0,1-4.5611,0,3.5892,3.5892,0,0,1-.92-2.5608A3.5619,3.5619,0,0,1,198.7045,19.9135Zm10.4686,2.0405a2.8091,2.8091,0,0,1,.77-1.96,2.3815,2.3815,0,0,1,1.81-.84,3.0537,3.0537,0,0,1,1.08.14l.56-1.78a3.4491,3.4491,0,0,0-1.36-.24,3.1918,3.1918,0,0,0-1.71.55,2.6571,2.6571,0,0,0-1.15,1.33h-.08v-1.6h-1.76v9.8025h1.84Zm7.2136-.02a3.2925,3.2925,0,0,1,.72-2.12,2.1979,2.1979,0,0,1,1.78-.9,2.0588,2.0588,0,0,1,1.68.61,3.1473,3.1473,0,0,1,.5,1.99v5.8415h1.84V21.934a3.2925,3.2925,0,0,1,.72-2.12,2.1979,2.1979,0,0,1,1.78-.9,2.0591,2.0591,0,0,1,1.68.61,3.1474,3.1474,0,0,1,.5,1.99v5.8415h1.84V21.2338a4.3267,4.3267,0,0,0-.92-2.9607,3.3157,3.3157,0,0,0-2.6206-1.04,3.825,3.825,0,0,0-3.3809,1.8806,2.95,2.95,0,0,0-1.2-1.38,3.603,3.603,0,0,0-3.631-.02,3.2726,3.2726,0,0,0-1.29,1.2h-.08v-1.36h-1.76v9.8025h1.84Z" fill="#757575"/><path d="M18.7989,27.318H10.2464L3.1438,15.015l-2.3962,4.15a1.6547,1.6547,0,0,0,0,1.4917L6.9893,31.468a1.6547,1.6547,0,0,0,1.2919.7459h7.6912Z" fill="#ffcf40"/><path d="M5.97,19.9108l4.2762-7.4066,14.206,0-2.3962-4.15a1.6547,1.6547,0,0,0-1.2919-.7459H8.2812a1.6547,1.6547,0,0,0-1.2919.7459L3.1437,15.0151Z" fill="#537dbe"/><path d="M18.7995,12.5047l4.2762,7.4066L15.9723,32.2139h4.7923a1.6547,1.6547,0,0,0,1.2919-.7459l6.2417-10.811a1.6547,1.6547,0,0,0,0-1.4917l-3.8456-6.6608Z" fill="#da4535"/><path d="M18.7992,12.5044H10.2467L5.9705,19.9108l4.2762,7.4071h8.5524l4.2762-7.4071ZM14.5228,23.6616a3.75,3.75,0,1,1,3.7505-3.75A3.7545,3.7545,0,0,1,14.5228,23.6616Z" fill="#eee"/></svg>