<svg height="40" viewBox="0 0 230 40" width="230" xmlns="http://www.w3.org/2000/svg"><g fill="#dc3c03"><path d="m46.6419 11.055c5.4063-2.0357 10.8065-4.0989 16.2342-6.0829 2.9226.9079 5.8639 1.7433 8.8139 2.5509.0579 8.3624-.003 16.7248.03 25.0842-2.6392.7466-5.2905 1.4537-7.9266 2.2125a2.0792 2.0792 0 0 1 -1.4872.0945q-6.4227-2.3817-12.8484-4.7542a18.7392 18.7392 0 0 1 -2.8159-1.1885q.0229-8.9552 0-17.9164m5.5038 1.219c0 4.9.0122 9.8039-.0061 14.7043-1.7219.7162-3.5138 1.2708-5.1778 2.118 5.2509.8746 10.5505 1.4384 15.8136 2.2674q.0091-10.8294 0-21.6527c-3.5411.8746-7.0945 1.6822-10.6297 2.563z"/><path d="m102.4056 11.0093c1.0971-1.3287 2.9378-1.4293 4.5134-1.1581q.0091.9234.0213 1.8529c-1.0118-.1829-2.3771-.4846-3.0567.5394-.7405 1.1672-.4267 2.6361-.4907 3.9435q2.5142.0091 5.0284 0c.0122-1.7432-.2621-3.7515 1.0331-5.1473 1.0971-1.347 2.95-1.4689 4.5408-1.1916.0091.6186.0152 1.2373.0274 1.859-1.0087-.18-2.3832-.4937-3.0567.5272-.7345 1.1794-.3444 2.6483-.4388 3.9587.9965-.003 1.99-.0061 2.9866-.0061-.0122.5943-.0213 1.1885-.0244 1.7828q-1.4857-.0091-2.9622-.0091c.0061 3.6936-.003 7.3872.003 11.0808q-1.0605.0091-2.115.0152c.0152-3.6967 0-7.39.0061-11.0869q-2.5142-.0137-5.0315 0c.0091 3.6936-.0061 7.39.0091 11.0839q-1.0148 0-2.0236-.003c.0183-3.6906 0-7.3811.0091-11.0717q-1.1337-.0183-2.2643-.0213c-.0031-.5882-.0061-1.1733-.0061-1.7615.7558-.003 1.5146-.0091 2.27-.0152.0282-1.7492-.3192-3.788 1.0217-5.1716z"/><path d="m115.3576 12.399c-.7253-.9813.1676-2.1485 1.2221-2.31a2.8417 2.8417 0 0 1 1.3775 1.3836c-.1433 1.2312-1.7672 2.0296-2.5996.9264z"/><path d="m86.5828 11.1434a8.9434 8.9434 0 0 1 7.8626 1.1306 9.0173 9.0173 0 0 1 3.3646 7.1435 10.7229 10.7229 0 0 1 -1.9778 6.9788c-3.06 3.9283-9.8009 4.0349-12.9764.1981a9.5993 9.5993 0 0 1 -2.0815-6.2779 10.4335 10.4335 0 0 1 1.8895-6.4455 7.7973 7.7973 0 0 1 3.9191-2.7275m.8655 1.7737a5.913 5.913 0 0 0 -3.4407 2.886 9.5537 9.5537 0 0 0 -.451 7.6432 5.97 5.97 0 0 0 4.0653 3.8276 6.2747 6.2747 0 0 0 6.3358-1.8285 8.537 8.537 0 0 0 1.667-5.4368 8.6807 8.6807 0 0 0 -1.6822-5.4094 6.1272 6.1272 0 0 0 -6.4943-1.6822z"/><path d="m147.8442 11.7285a8.5069 8.5069 0 0 1 5.6471-.8472 4.3057 4.3057 0 0 1 3.337 3.0231 4.8437 4.8437 0 0 1 -.9478 4.2726 6.5054 6.5054 0 0 1 -2.5873 1.53 4.4922 4.4922 0 0 1 3.98 2.5386 5.0619 5.0619 0 0 1 -1.9413 6.0585 8.7717 8.7717 0 0 1 -8.1308.2133c-.0213-.768-.0244-1.536-.0335-2.3039a6.5673 6.5673 0 0 0 6.6223.8594 3.3675 3.3675 0 0 0 .3718-5.6166c-1.5329-1-3.4437-.7649-5.1808-.7893-.0152-.5943-.0274-1.1916-.0335-1.7859 1.5024-.0091 3.1237.11 4.4829-.6583a3.3386 3.3386 0 0 0 1.0057-4.4281c-.68-1.1672-2.182-1.3958-3.4163-1.3043a6.5021 6.5021 0 0 0 -3.1847 1.2617c.0062-.6735.0092-1.3501.0092-2.0236z"/><path d="m163.9016 11.5609a7.8575 7.8575 0 0 1 6.1684-.4109c.0091.6766.0122 1.3562.0183 2.0327-1.798-.8868-4.19-1.0971-5.7873.3169-1.9017 1.7158-2.4167 4.4281-2.4411 6.8813a5.5374 5.5374 0 0 1 1.8346-2.0266 5.11 5.11 0 0 1 6.5888 1.5786 6.52 6.52 0 0 1 -1.2921 8.3106 5.8143 5.8143 0 0 1 -4.9614.9661 5.6582 5.6582 0 0 1 -3.6784-3.8429 15.6328 15.6328 0 0 1 -.3261-7.4664 9.0663 9.0663 0 0 1 3.8765-6.3389m.0457 8.3594c-2.4593 1.2434-2.4533 4.8943-.6552 6.7015a3.2955 3.2955 0 0 0 4.8486-.1432 4.9511 4.9511 0 0 0 .2225-5.5739 3.4665 3.4665 0 0 0 -4.4161-.9852z"/><path d="m173.5867 20.1c.0853-3.0292.4541-6.04.5364-9.0694 2.7946-.0183 5.5861-.003 8.3807-.0091q0 .928.003 1.8559c-2.1881.0061-4.3762-.003-6.5613.0061-.0975 1.7584-.2042 3.5168-.387 5.2692 2.0175-.1006 4.2726-.11 5.9335 1.2251 2.9622 2.35 2.2735 7.75-1.1855 9.3041a8.8935 8.8935 0 0 1 -7.1373-.03c.0091-.7284.0091-1.4567.0091-2.1851a6.3942 6.3942 0 0 0 6.1712.5882c2.3679-1.2038 2.563-5.0985.2347-6.4486-1.8255-.9969-4.0166-.7379-5.9975-.5064z"/><path d="m120.8431 18.4971c1.8072-2.6666 5.5953-3.267 8.42-2.0053-.0061.707-.0091 1.4141 0 2.1211a5.0026 5.0026 0 0 0 -5.5191-.259 5.75 5.75 0 0 0 -1.07 7.7163c1.5268 2.03 4.6719 1.9108 6.5674.4724-.0122.67-.0183 1.344-.0274 2.0175a6.9723 6.9723 0 0 1 -7.3354-.43c-2.8122-2.2641-2.9676-6.7622-1.0355-9.633z"/><path d="m132.6523 17.5128a5.5473 5.5473 0 0 1 7.8291-.0792c1.3775 1.5542 1.5207 3.7454 1.46 5.72-3.0475.0091-6.0951-.0061-9.1456.0091.0945 1.5664.6491 3.337 2.1942 4.038a6.2012 6.2012 0 0 0 6.0524-.9691c-.0091.6583-.0122 1.3165-.0152 1.9748a8.4938 8.4938 0 0 1 -6.217.9844 5.37 5.37 0 0 1 -3.7881-3.91c-.7009-2.63-.36-5.7629 1.63-7.7681m1.9718.75a5.1575 5.1575 0 0 0 -1.81 3.13c2.3618.0183 4.7267.0152 7.0886.003a6.2619 6.2619 0 0 0 -.7741-2.5355 3.2588 3.2588 0 0 0 -4.5044-.5978z"/><path d="m115.4216 29.0537q.0137-6.4318.003-12.8667c.6735 0 1.35.003 2.0236.0061q-.0229 6.4318-.0031 12.8575c-.6735.0001-1.35.0031-2.0235.0031z"/></g></svg>