<svg xmlns="http://www.w3.org/2000/svg" width="230" height="40" viewBox="0 0 230 40"><path d="M67.1017,7.3116a2.4168,2.4168,0,0,1,2.41,2.41v5.6765H63.6555V14.47a1.3039,1.3039,0,0,0-1.303-1.303H50.74a1.3039,1.3039,0,0,0-1.303,1.303v.9272H43.5811V9.7212a2.4168,2.4168,0,0,1,2.41-2.41ZM63.6555,25.53a1.3028,1.3028,0,0,1-1.303,1.303H50.74a1.3029,1.3029,0,0,1-1.303-1.303v-.9273H43.5811V30.28a2.4154,2.4154,0,0,0,2.41,2.408H67.1017a2.4153,2.4153,0,0,0,2.41-2.408V24.6023H63.6555V25.53ZM49.4368,17.073H43.5811v5.8558h5.8558V17.073Zm20.0743,0H63.6555v5.8558h5.8557V17.073Z" fill="#eb1d46"/><path d="M186.4189,24.9183a1.6472,1.6472,0,1,0-1.6481,1.648,1.6486,1.6486,0,0,0,1.6481-1.648Zm-1.6481,1.2432a1.2424,1.2424,0,1,1,1.2433-1.2432,1.2439,1.2439,0,0,1-1.2433,1.2432Zm.6182-1.5421v-.0085a.516.516,0,0,0-.1349-.374.6073.6073,0,0,0-.4388-.1537h-.6063V25.697h.3347v-.5311h.2084l.2988.5311h.3826l-.3432-.5994a.4878.4878,0,0,0,.2987-.4782Zm-.3363.01a.2331.2331,0,0,1-.2631.2424h-.246v-.4867h.2392c.1706,0,.27.08.27.2408V24.63ZM87.48,20.1127v-.2237c0-3.897-2.5565-6.7267-6.0318-6.7267-3.499,0-6.0812,2.8793-6.0812,6.7524v.222c0,3.8971,2.5564,6.7029,6.0317,6.7029,3.4991,0,6.0812-2.8554,6.0812-6.7268Zm-9.3089-.05v-.1486c0-2.4591,1.2671-4.271,3.2276-4.271,1.9109,0,3.2771,1.8375,3.2771,4.2949v.1486c0,2.4574-1.2671,4.295-3.2277,4.295-1.9109,0-3.2771-1.8615-3.2771-4.3189Zm22.6615.0991v-.3484c0-4.4435-2.4813-6.6516-5.1129-6.6516a4.4432,4.4432,0,0,0-3.8475,2.3584V13.41H89.0665V30.3147h2.8057V24.58A4.4831,4.4831,0,0,0,95.72,26.8138c2.6555,0,5.1129-2.2337,5.1129-6.6516Zm-9.01-.05v-.2493c0-2.58,1.44-4.22,3.1268-4.22,1.689,0,3.0535,1.6138,3.0535,4.2453v.2237c0,2.63-1.3405,4.22-3.0535,4.22-1.6871,0-3.1268-1.6394-3.1268-4.22Zm21.1638,4.6911-1.4652-1.7385a4.1829,4.1829,0,0,1-3.0278,1.39c-1.7128,0-3.0773-1.19-3.3267-3.4h8.2415c.0256-.3962.0256-.7941.0256-.9683,0-3.9466-1.8871-6.9249-5.4613-6.9249-3.2276,0-5.61,2.83-5.61,6.7763v.1981c0,4.1208,2.6316,6.7029,6.0061,6.7029a6.0514,6.0514,0,0,0,4.6177-2.0356Zm-5.0138-9.2832c1.6377,0,2.582,1.5131,2.7307,3.5982h-5.56c.1982-2.2337,1.2911-3.5982,2.83-3.5982ZM121.67,13.1622c2.5308,0,4.0456,1.7863,4.0456,4.5921v8.8119H122.91V18.5484c0-1.8375-.8675-2.8553-2.3567-2.8553-1.4653,0-2.4831,1.093-2.4831,2.9049v7.9682h-2.8041V13.41H118.07v1.9366a4.1214,4.1214,0,0,1,3.6-2.1842Zm15.3525,9.6555c0,2.5821-1.9622,3.9961-4.493,3.9961a7.77,7.77,0,0,1-4.891-1.8358l1.3166-2.0117a5.9919,5.9919,0,0,0,3.6239,1.5387c1.1663,0,1.8358-.62,1.8358-1.44v-.0239c0-.9444-1.0178-1.3662-2.58-2.0356-1.9621-.8436-3.6-1.7385-3.6-3.897v-.05c0-2.3584,1.8871-3.8475,4.3445-3.8475a7.5186,7.5186,0,0,1,4.2693,1.414l-1.192,2.0612a5.8712,5.8712,0,0,0-3.1268-1.1663c-1.0434,0-1.6634.57-1.6634,1.2911v.0495c0,.8675,1.0417,1.315,2.5821,2.01,2.0339.9188,3.5743,1.8614,3.5743,3.9209v.0256Zm8.6838,3.3762a4.7773,4.7773,0,0,1-2.3328.57c-1.9365,0-3.4-.82-3.4-3.3762v-7.57h-.98l-.4595-2.4079h1.44V9.8612h2.8041V13.41h2.9543v2.4079h-2.9543v7a1.258,1.258,0,0,0,1.4157,1.44,3.1809,3.1809,0,0,0,1.5131-.3723V26.194Zm10.7484-11.5921a5.2261,5.2261,0,0,0-3.8731-1.3406,9.335,9.335,0,0,0-4.3428,1.0435l.7941,2.2337a7.4639,7.4639,0,0,1,3.1764-.7958c1.788,0,2.83.9187,2.83,2.6811V18.97a8.9628,8.9628,0,0,0-3.0279-.5209c-2.78,0-4.6672,1.39-4.6672,4.22v.1229a3.8416,3.8416,0,0,0,4.0217,4.0217,4.185,4.185,0,0,0,3.6495-1.8614v1.6138H157.77V18.4a5.1957,5.1957,0,0,0-1.3149-3.798Zm-1.39,7.5465a2.6328,2.6328,0,0,1-2.8553,2.5565A2.0073,2.0073,0,0,1,150.075,22.62v-.05c0-1.39.9444-2.21,2.5565-2.21a6.3275,6.3275,0,0,1,2.4334.4713v1.3167Zm14.6285,2.705a5.5065,5.5065,0,0,1-4.3684,1.9861c-3.4258,0-5.9088-2.7563-5.9088-6.6772v-.2477c0-3.9226,2.5565-6.7524,6.0078-6.7524a5.562,5.562,0,0,1,4.22,1.7863L168.08,17.01a3.54,3.54,0,0,0-2.6556-1.3167c-1.8375,0-3.178,1.7624-3.178,4.2454v.1247c0,2.5565,1.3405,4.2693,3.2515,4.2693a3.6652,3.6652,0,0,0,2.6811-1.3405l1.5147,1.8614Zm8.5847-5.1163,3.9244,6.8292H178.951l-2.6418-4.7116,1.9689-2.1176Zm.4732-6.3272h3.3265l-7.82,9.3583v3.798h-2.804V8.6436h2.804v10.55l4.4931-5.7841Z" fill="#504540"/></svg>