<svg viewBox="0 0 48.75 46.25" xmlns="http://www.w3.org/2000/svg"><g fill="none" stroke="#000" stroke-miterlimit="3.8637" stroke-width="1.25"><path d="m4.625 5.625h19"/><path d="m4.625 9.625h19"/><path d="m4.625 13.625h19"/><path d="m4.625 17.625h16"/><path d="m44.125 9.625h-12.5"/><path d="m41.125 13.625h-9.5"/><path d="m32.625 4.625v-4h-32v22h19v5l5-5h8v-4"/><path d="m48.125 18.625h-6.5l-5 5v-5h-9v-14h20.5z"/><path d="m41.625 39.625a6 6 0 0 1 6 6h-21a5.9991 5.9991 0 0 1 6-6z"/><circle cx="37.125" cy="34.625" r="5"/><path d="m15.625 39.625a6 6 0 0 1 6 6h-21a5.9991 5.9991 0 0 1 6-6z"/><circle cx="11.125" cy="34.625" r="5"/></g></svg>