<svg height="40" viewBox="0 0 230 40" width="230" xmlns="http://www.w3.org/2000/svg"><g fill="#0072c6"><path d="m48.8967 4.1778v31.6435l22.2852 4.1787v-40zm15.3066 24.2656-8.6591-.9072.04-16.1963 8.3579-.9375-.0044 3.3232-5.3457.3428v3.75l4.9834-.166v3.416l-4.9419-.166v3.833l5.6167.375z" fill-rule="evenodd"/><path d="m86.5774 8.0245h-13.6974v3.0488c.2617.0127.4844.0264.6362.039l1.9138 2.2237-.5034 1.4834-1.5113-1.1651h-.5353v5.7237a12.8141 12.8141 0 0 0 2.249 1.69s0 .7412-1.31.2119a5.3322 5.3322 0 0 1 -.9385-.5723v5.875h.7095a23.4868 23.4868 0 0 0 4.03-4.9785s.7056 0 .2017 1.377-4.4331 6.0371-4.4331 6.0371l-.5083.001v3.01h13.6971a1.51 1.51 0 0 0 1.4712-1.5459v-20.912a1.5106 1.5106 0 0 0 -1.4712-1.5468zm-6.835 20.9169-1.9141-2.2236.504-1.4834 1.5107 1.1656h3.0234v-3.1783a23.0058 23.0058 0 0 0 -4.7364-4.2353s0-.7422 1.31-.2119 5.7437 4.66 5.7437 4.66l.0068 5.2852c-.2005.4229-4.3963.3126-5.4481.2217zm5.3682-12.1865-2.1162 2.0127-1.4107-.53 1.1089-1.5876-.0005-3.1778h-3.0221a23.4675 23.4675 0 0 0 -4.0308 4.9776s-.7061 0-.2017-1.377 4.4336-6.0371 4.4336-6.0371l5.0289-.0073c.403.2129.297 4.6216.2106 5.7265z" fill-rule="evenodd"/><path d="m128.3437 11.8777h1.7108v6.7352a4.1137 4.1137 0 0 1 2.5122-1.88 4.0433 4.0433 0 0 1 3.3753.6936 4.66 4.66 0 0 1 1.1713 3.36c0 2.2194.0154 4.4387 0 6.6581h-1.6953c-.0154-2.0652 0-4.13-.0154-6.1957a3.7683 3.7683 0 0 0 -.7706-2.4968 2.5489 2.5489 0 0 0 -3.0979-.2312 3.4687 3.4687 0 0 0 -1.4642 2.8975c-.0154 2.0036 0 4.0226 0 6.0262-.57.0154-1.1405.0154-1.7108.0154-.0154-5.21-.0154-10.3883-.0154-15.5823z"/><path d="m100.4321 27.4287c-.0154-4.9165 0-9.8176 0-14.7341 2.5122 0 5.009-.0154 7.5212 0v1.5721c-1.9265.0154-3.8377 0-5.7642 0v4.8395h5.3172v1.6028c-1.7724.0154-3.5448 0-5.3172 0v5.086c2.0344.0154 4.0534 0 6.0879.0154 0 .5086 0 1.0326.0154 1.5412a6.7176 6.7176 0 0 1 -1.11.0771c-2.2653 0-4.5155.0313-6.7503 0z"/><path d="m120.16 18.0735a5.0842 5.0842 0 0 1 3.6373-1.4179 5.1489 5.1489 0 0 1 2.6663.524c0 .57 0 1.1559-.0154 1.7262a4.3654 4.3654 0 0 0 -3.4986-.6936 3.7521 3.7521 0 0 0 -2.62 3.1749 5.13 5.13 0 0 0 .4778 3.1441 3.2515 3.2515 0 0 0 2.82 1.6491 4.4484 4.4484 0 0 0 2.7588-.8631c0 .5548 0 1.11-.0154 1.6645a6.0648 6.0648 0 0 1 -4.5466.4315 4.7212 4.7212 0 0 1 -3.0054-3.0362 6.2779 6.2779 0 0 1 1.3412-6.3035z"/><path d="m147.1313 20.6319a4.9721 4.9721 0 0 0 -.4624-2.3581 2.9873 2.9873 0 0 0 -2.3581-1.5721 7.1224 7.1224 0 0 0 -4.5158.9556c0 .57 0 1.1559.0154 1.7262a6.6753 6.6753 0 0 1 2.2348-1.1405 2.9912 2.9912 0 0 1 2.6355.3082 3.002 3.002 0 0 1 .7552 2.1423c-1.68.3853-3.4986.2466-5.0706 1.048a3.3259 3.3259 0 0 0 -1.048 4.6391 3.7475 3.7475 0 0 0 6.1187-.6319c-.0154.5548-.0154 1.1251 0 1.68h1.68c.0153-2.2502-.0001-4.5312.0153-6.7968zm-2.2964 4.4081a2.7277 2.7277 0 0 1 -3.4524.8631 1.8552 1.8552 0 0 1 -.4624-2.6509 3.3887 3.3887 0 0 1 1.9728-.786q1.2715-.1618 2.543-.37a4.6283 4.6283 0 0 1 -.601 2.9438z"/><path d="m151.4313 18.5975a3.9061 3.9061 0 0 1 2.5739-1.88 4.0079 4.0079 0 0 1 3.0516.57 4.3587 4.3587 0 0 1 1.3871 3.4986c-.0154 2.204.0308 4.4079-.0154 6.6119a6.94 6.94 0 0 1 -1.6954-.0154c.0154-1.9882 0-3.9918 0-5.98a4.0361 4.0361 0 0 0 -.7244-2.62 2.4614 2.4614 0 0 0 -2.6663-.5086 3.1492 3.1492 0 0 0 -1.9111 2.9592c0 2.05-.0154 4.1.0154 6.1341a12.5621 12.5621 0 0 1 -1.6954.0616c-.0925-3.4678.0308-6.9355-.0462-10.4033a1.0868 1.0868 0 0 0 .1079-.1387c.5394-.0308 1.0943-.0154 1.6491-.0154-.0308.6009-.0308 1.1557-.0308 1.726z"/><path d="m169.9107 16.9021h-1.68v1.4333a3.9128 3.9128 0 0 0 -1.495-1.3409 4.6792 4.6792 0 0 0 -2.5584-.2928 4.39 4.39 0 0 0 -3.2366 2.3889 8.0021 8.0021 0 0 0 -.6627 4.485 4.95 4.95 0 0 0 1.8186 3.3291 4.5158 4.5158 0 0 0 3.9918.5394 4.2035 4.2035 0 0 0 2.1423-1.7878 7.7893 7.7893 0 0 1 -.4932 3.4678 3.1374 3.1374 0 0 1 -2.1731 1.6337 6.519 6.519 0 0 1 -4.5929-.8631c-.0154.57-.0154 1.1559-.0154 1.7262a8.4739 8.4739 0 0 0 4.7778.6319 4.5967 4.5967 0 0 0 3.1133-1.7108 6.2269 6.2269 0 0 0 1.0635-3.7144c0-3.329 0-6.6276 0-9.9255zm-2.3889 8.0144a3.0747 3.0747 0 0 1 -3.93.9247 3.5361 3.5361 0 0 1 -1.6029-2.728 5.9234 5.9234 0 0 1 .6165-3.56 2.8147 2.8147 0 0 1 1.6183-1.2946 2.95 2.95 0 0 1 3.0208.6781 3.0805 3.0805 0 0 1 .94 2.3118 5.71 5.71 0 0 1 -.6627 3.668z"/><path d="m180.4989 18.7824a3.7964 3.7964 0 0 0 -2.8975-2.0961 4.86 4.86 0 0 0 -2.9129.4161 5.3066 5.3066 0 0 0 -2.7434 4.2692 6.87 6.87 0 0 0 .9093 4.4387 4.1594 4.1594 0 0 0 3.0516 1.8032 6.5528 6.5528 0 0 0 4.4233-.94c0-.5394-.0154-1.0789-.0154-1.6183a4.9048 4.9048 0 0 1 -4.87.8014 3.5635 3.5635 0 0 1 -1.7724-3.2674h7.4285a8.03 8.03 0 0 0 -.6011-3.8068zm-6.7814 2.3581a3.7461 3.7461 0 0 1 1.1559-2.2964 2.6858 2.6858 0 0 1 3.6527-.0462 3.5738 3.5738 0 0 1 .8323 2.3427z"/><path d="m108.97 16.9021c.6473 0 1.2792-.0308 1.9265.0154.1541.0925.2158.2774.3237.4161.74 1.3255 1.48 2.6355 2.2348 3.961.8631-1.4642 1.7416-2.9283 2.62-4.3925h1.8957c-1.1713 1.7724-2.3427 3.5294-3.514 5.2864 1.1405 1.757 2.3427 3.4678 3.4678 5.24h-1.9728c-.8631-1.4025-1.7108-2.805-2.5584-4.223-.8785 1.4025-1.7108 2.8359-2.62 4.223-.6473 0-1.2792 0-1.9265-.0154 1.11-1.7108 2.3273-3.36 3.4678-5.04.1387-.1387-.0616-.3237-.1079-.4624-1.0939-1.6641-2.1882-3.3286-3.2367-5.0086z"/></g></svg>