<?xml version="1.0" encoding="utf-8"?>
<!-- Generator: Adobe Illustrator 19.1.0, SVG Export Plug-In . SVG Version: 6.00 Build 0)  -->
<svg version="1.1" id="Layer_1" xmlns="http://www.w3.org/2000/svg" xmlns:xlink="http://www.w3.org/1999/xlink" x="0px" y="0px"
	 viewBox="548 468 88 86" style="enable-background:new 548 468 88 86;" xml:space="preserve">
<style type="text/css">
	.st0{fill:#2A5699;}
	.st1{fill:#FFFFFF;}
	.st2{fill:#207245;}
	.st3{fill:#D24625;}
	.st4{fill:#0071C5;}
	.st5{fill:#733781;}
	.st6{fill:#077467;}
	.st7{fill:#094AB1;}
</style>
<g id="onenote">
	<path class="st5" d="M594,468h6c0,2.7,0,5.3,0,8c9.4,0.4,18.8-0.8,28.1,0.6c0.3,1.1,0.7,2.1,1,3.2c2.4,0.4,6.2,0.1,6.5,3.3
		c0.8,5.8,0.2,11.8-0.2,17.6c0.5,6.2,0.9,12.6-0.2,18.8c0.9,5.7,0.9,11.6,0.3,17.4c-0.4,3.1-4.1,2.9-6.5,3.3
		c-0.3,1.6-0.3,3.4-1.2,4.9c-1.8,1.1-4,0.9-6,1c-7.3-0.1-14.7,0-22,0c0,2.7,0,5.3,0,8h-6.3c-15.2-2.8-30.5-5.3-45.7-8
		c0-23.3,0-46.6,0-70C563.4,473.4,578.7,470.7,594,468z"/>
	<path class="st1" d="M600,479c8.7,0,17.3,0,26,0c0,1.3,0,2.7,0,4c2.3,0,4.6,0,6.9,0.1c0.1,5.3,0.2,10.5,0,15.8
		c-2.3,0.1-4.6,0.1-6.9,0.1c0,14.7,0,29.3,0,44c-8.7,0-17.3,0-26,0c0-2.7,0-5.3,0-8c6.3,0,12.7,0,19,0c0-1.3,0-2.7,0-4
		c-6.3,0-12.7,0-19,0c0-1.7,0-3.4,0-5c6.3,0,12.7,0,19,0c0-1.3,0-2.6,0-4c-6.3,0-12.7,0-19,0c0-1.7,0-3.4,0-5c6.3,0,12.7,0,19,0
		c0-1.3,0-2.6,0-4c-6.3,0-12.7,0-19,0c0-1.7,0-3.4,0-5c6.3,0,12.7,0,19,0c0-1.3,0-2.6,0-4c-6.3,0-12.7,0-19,0c0-1.7,0-3.4,0-5
		c6.3,0,12.7,0,19,0c0-1.3,0-2.6,0-4c-6.3,0-12.7,0-19,0c0-1.7,0-3.4,0-5c6.3,0,12.7,0,19,0c0-1.3,0-2.6,0-4c-6.3,0-12.7,0-19,0
		C600,483.7,600,481.3,600,479z"/>
	<path class="st1" d="M578.9,494.2c2-0.1,4-0.2,6-0.3c0,11,0,22.1,0,33.1c-2.2-0.1-4.3-0.2-6.4-0.3c-4-7.6-8.3-15.1-12.1-22.8
		c0.2,7.4,0.1,14.8,0.1,22.2c-1.8-0.1-3.6-0.2-5.4-0.3c0-10.2,0-20.3,0-30.5c2.1-0.1,4.1-0.2,6.2-0.3c3.9,7.2,7.9,14.3,11.7,21.5
		C579,509,578.9,501.6,578.9,494.2z"/>
	<path class="st1" d="M629,502c1.3,0,2.6,0.1,3.9,0.2c0.2,5.3,0.2,10.5,0,15.8c-1.3,0.1-2.6,0.1-3.9,0.2
		C629,512.7,629,507.3,629,502z"/>
	<path class="st1" d="M629,520.9c1.3,0.1,2.6,0.1,3.9,0.2c0.2,5.2,0.1,10.5,0,15.7c-1.3,0.1-2.6,0.2-3.9,0.2
		C629,531.7,629,526.3,629,520.9z"/>
</g>
</svg>
