<?xml version="1.0" encoding="utf-8"?>
<!-- Generator: Adobe Illustrator 19.1.0, SVG Export Plug-In . SVG Version: 6.00 Build 0)  -->
<svg version="1.1" id="Layer_1" xmlns="http://www.w3.org/2000/svg" xmlns:xlink="http://www.w3.org/1999/xlink" x="0px" y="0px"
	 viewBox="651 468 88 86" style="enable-background:new 651 468 88 86;" xml:space="preserve">
<style type="text/css">
	.st0{fill:#2A5699;}
	.st1{fill:#FFFFFF;}
	.st2{fill:#207245;}
	.st3{fill:#D24625;}
	.st4{fill:#0071C5;}
	.st5{fill:#733781;}
	.st6{fill:#077467;}
	.st7{fill:#094AB1;}
</style>
<g id="publisher">
	<path class="st6" d="M697.1,468h5.9c0,6,0,12,0,18c2.3,0,4.7,0,7,0c0.3-3.6-1.3-9.2,3.2-10.7c6.2-0.7,12.5-0.1,18.8-0.3
		c2.5,0.2,5.6-0.6,7.5,1.5c0.5,1.4,0.5,3,0.5,4.5c0,13.7-0.1,27.3,0,41c0,1.8,0,3.7-0.6,5.4c-3,1-6.3,0.5-9.4,0.6
		c-0.2,4.6,0.4,9.2-0.3,13.7c-0.8,2.3-3.6,2.2-5.7,2.3c-7,0-14,0-21,0c0,3.3,0,6.7,0,10h-6.2c-15.2-2.8-30.5-5.3-45.8-8
		c0-23.3,0-46.7,0-70C666.4,473.3,681.7,470.7,697.1,468z"/>
	<path class="st1" d="M714.9,478.3c7.3-0.6,14.8-0.1,22.1-0.3c0,15.3,0,30.7,0,46c-2.3,0-4.7,0-7,0c0-12,0-24,0-36
		C725.3,484.2,719,482.7,714.9,478.3z"/>
	<path class="st1" d="M703,489c7.7,0,15.3,0,23,0c0,17.3,0,34.7,0,52c-7.7,0-15.3,0-23,0c0-2,0-4,0-6c5.7,0,11.3,0,17,0
		c0-1.3,0-2.7,0-4c-5.7,0-11.3,0-17,0c0-1.7,0-3.3,0-5c5.7,0,11.3,0,17,0c0-1.3,0-2.7,0-4c-5.7,0-11.3,0-17,0c0-1.7,0-3.3,0-5
		c5.7,0,11.3,0,17,0c0-1.3,0-2.7,0-4c-5.7,0-11.3,0-17,0c0-1.7,0-3.3,0-5c5.7,0,11.3,0,17,0c0-4.7,0-9.3,0-14c-5.7,0-11.3,0-17,0
		C703,492.3,703,490.7,703,489z"/>
	<path class="st1" d="M667,494.5c5.5,0.2,12.1-2.2,16.6,1.9c4.3,5.2,3.1,14.8-3.2,18c-2.3,1.2-4.9,1-7.3,0.9c0,3.9,0,7.8,0,11.8
		c-2-0.2-4-0.4-6-0.6C667,515.7,667,505.1,667,494.5z"/>
	<path class="st6" d="M673,499.8c2-0.1,4.5-0.5,5.8,1.4c1.1,2,1,4.5,0.1,6.5c-1.2,2.1-3.7,1.9-5.7,2.1
		C673,506.5,673,503.2,673,499.8z"/>
</g>
</svg>
