<?xml version="1.0" encoding="utf-8"?>
<!-- Generator: Adobe Illustrator 19.1.0, SVG Export Plug-In . SVG Version: 6.00 Build 0)  -->
<svg version="1.1" id="Layer_1" xmlns="http://www.w3.org/2000/svg" xmlns:xlink="http://www.w3.org/1999/xlink" x="0px" y="0px"
	 viewBox="241 468 88 86" style="enable-background:new 241 468 88 86;" xml:space="preserve">
<style type="text/css">
	.st0{fill:#2A5699;}
	.st1{fill:#FFFFFF;}
	.st2{fill:#207245;}
	.st3{fill:#D24625;}
	.st4{fill:#0071C5;}
	.st5{fill:#733781;}
	.st6{fill:#077467;}
	.st7{fill:#094AB1;}
</style>
<g id="powerpoint">
	<path class="st3" d="M287.3,468h5.7c0,3,0,6,0,9c10.7,0.1,21.4-0.1,32.1,0c2.3-0.2,4.1,1.6,3.9,3.9c0.2,18.7,0,37.4,0.1,56.1
		c-0.1,2,0.2,4.3-1,6.1c-1.5,1.1-3.4,0.9-5.1,1c-10-0.1-20,0-30,0c0,3.3,0,6.7,0,10h-6.2c-15.2-2.8-30.5-5.3-45.8-8
		c0-23.3,0-46.7,0-70C256.4,473.4,271.9,470.6,287.3,468z"/>
	<path class="st1" d="M293,480c11,0,22,0,33,0c0,20.3,0,40.7,0,61c-11,0-22,0-33,0c0-2.7,0-5.3,0-8c8,0,16,0,24,0c0-1.3,0-2.7,0-4
		c-8,0-16,0-24,0c0-1.7,0-3.3,0-5c8,0,16,0,24,0c0-1.3,0-2.7,0-4c-8,0-16,0-24,0c0-2,0-3.9,0-5.9c4,1.2,8.5,1.2,12-1.2
		c3.8-2.3,5.8-6.6,6.2-10.9c-4.4,0-8.8,0-13.2,0c0-4.4,0-8.7-0.1-13c-1.6,0.3-3.3,0.7-4.9,1C293,486.6,293,483.3,293,480z"/>
	<path class="st3" d="M300,486.9c6.9,0.3,12.8,6.2,13.2,13.1c-4.4,0-8.8,0-13.2,0C300,495.6,300,491.2,300,486.9z"/>
	<path class="st1" d="M257.1,494.4c5.4,0.3,12-2.2,16.5,1.9c4.3,5.2,3.2,14.9-3.2,18c-2.3,1.2-4.9,1-7.3,0.9c0,3.9,0,7.8,0,11.7
		c-2-0.2-4-0.3-6-0.5C257,515.8,256.9,505.1,257.1,494.4z"/>
	<path class="st3" d="M263,499.8c2-0.1,4.4-0.4,5.7,1.4c1.1,2,1.1,4.5,0.1,6.6c-1.1,2.1-3.7,1.9-5.7,2.1
		C262.9,506.5,263,503.2,263,499.8z"/>
</g>
</svg>
