<?xml version="1.0" encoding="utf-8"?>
<!-- Generator: Adobe Illustrator 19.1.0, SVG Export Plug-In . SVG Version: 6.00 Build 0)  -->
<svg version="1.1" id="Layer_1" xmlns="http://www.w3.org/2000/svg" xmlns:xlink="http://www.w3.org/1999/xlink" x="0px" y="0px"
	 viewBox="753 468 88 86" style="enable-background:new 753 468 88 86;" xml:space="preserve">
<style type="text/css">
	.st0{fill:#2A5699;}
	.st1{fill:#FFFFFF;}
	.st2{fill:#207245;}
	.st3{fill:#D24625;}
	.st4{fill:#0071C5;}
	.st5{fill:#733781;}
	.st6{fill:#077467;}
	.st7{fill:#094AB1;}
</style>
<g>
	<g>
		<path class="st1" d="M840.9,554.8C840.9,554.8,840.8,554.9,840.9,554.8c-29.2,0-58.2,0-87.4,0c0-14.5,0-29.1,0-43.6
			c0-14.6,0-29.1,0-43.7c29.1,0,58.2,0,87.4,0C840.9,496.6,840.9,525.7,840.9,554.8z M758.3,510.7c0.1,1.7,0.2,3.2,0.4,4.7
			c0.9,7.7,3.8,14.5,8.8,20.3c8.9,10.3,20.3,14.8,33.8,13.7c0.5,0,1,0.1,1.4,0.3c5,3,10.5,4.1,16.2,3.2
			c16.5-2.7,25.1-20.9,16.8-35.4c-0.2-0.4-0.3-1-0.3-1.5c0.4-3.4,0.4-6.7,0-10.1c-1.4-10.2-6.1-18.6-14.1-25.1
			c-8.6-6.9-18.4-9.5-29.3-8.3c-0.5,0.1-1-0.1-1.4-0.3c-5.4-2.7-11.1-3.4-17-1.8c-14.7,4-21.9,20.2-15.1,33.8
			c0.2,0.4,0.2,0.9,0.2,1.3C758.6,507.2,758.4,509.1,758.3,510.7z"/>
		<path d="M758.3,510.7c0.1-1.6,0.3-3.4,0.4-5.2c0-0.4,0-0.9-0.2-1.3c-6.8-13.6,0.4-29.8,15.1-33.8c5.9-1.6,11.5-0.9,17,1.8
			c0.4,0.2,1,0.3,1.4,0.3c10.9-1.2,20.8,1.4,29.3,8.3c8,6.5,12.7,14.9,14.1,25.1c0.5,3.4,0.4,6.7,0,10.1c-0.1,0.5,0,1.1,0.3,1.5
			c8.3,14.6-0.3,32.7-16.8,35.4c-5.8,0.9-11.2-0.2-16.2-3.2c-0.4-0.2-0.9-0.4-1.4-0.3c-13.6,1.1-24.9-3.3-33.8-13.7
			c-5-5.8-7.9-12.7-8.8-20.3C758.5,513.9,758.4,512.4,758.3,510.7z M832.5,510.5c-0.3-2.2-0.4-4.7-1-7.1
			c-4.1-18.5-21.2-30.1-40-27.4c-0.6,0.1-1.3-0.1-1.8-0.3c-4.1-2.3-8.5-3.1-13.1-2.5c-13.2,1.9-21.1,15.9-15.7,28.2
			c0.9,2.1,1.1,3.9,0.9,6.1c-0.9,9.9,1.8,18.9,8.3,26.4c8.3,9.5,18.9,13.4,31.4,12c0.8-0.1,1.3,0.1,2,0.5c5.1,3.4,10.7,4.4,16.6,2.8
			c13.2-3.5,19.3-18.7,12.1-30.4c-0.4-0.6-0.7-1.2-0.6-2C832.1,514.8,832.3,512.8,832.5,510.5z"/>
		<path class="st1" d="M832.5,510.5c-0.2,2.3-0.4,4.2-0.7,6.2c-0.1,0.8,0.2,1.4,0.6,2c7.2,11.7,1.1,26.9-12.1,30.4
			c-5.9,1.6-11.5,0.6-16.6-2.8c-0.6-0.4-1.2-0.6-2-0.5c-12.5,1.4-23.1-2.5-31.4-12c-6.6-7.5-9.3-16.4-8.3-26.4
			c0.2-2.2,0-4.1-0.9-6.1c-5.4-12.2,2.5-26.3,15.7-28.2c4.6-0.7,9,0.2,13.1,2.5c0.5,0.3,1.2,0.4,1.8,0.3c18.8-2.7,35.8,9,40,27.4
			C832.1,505.8,832.2,508.3,832.5,510.5z M796.7,532.7c0,0.1,0,0.2,0,0.2c2.4-0.4,4.9-0.5,7.2-1.2c5.5-1.5,9.4-4.8,10.1-10.8
			c0.6-5.3-1.3-9.8-6.6-12.3c-1.1-0.5-2.3-0.9-3.4-1.2c-3.2-0.8-6.4-1.4-9.6-2.3c-1.5-0.4-3-1-4.4-1.8c-1.7-1-2.1-2.8-1.2-4.6
			c0.7-1.4,1.9-2.3,3.3-2.6c4.2-0.9,8.2-0.6,11.3,2.8c0.7,0.8,1.4,1.5,2.2,2.1c1.4,1.1,3.5,1.1,5.1,0.1c1.5-0.9,2.1-2.4,1.5-4.3
			c-0.3-1-0.8-2.1-1.5-2.8c-0.9-1-2-1.9-3.1-2.6c-3.1-2-6.6-3-10.2-3.2c-4.3-0.2-8.5,0.3-12.4,2.5c-4.9,2.8-6.6,7.2-5.8,12.5
			c0.6,4.2,3.2,7,7.1,8.4c3.2,1.2,6.6,1.9,9.9,2.8c1.9,0.5,3.8,0.9,5.6,1.6c2.9,1.2,3.6,4.6,1.5,6.9c-0.6,0.7-1.4,1.2-2.2,1.7
			c-3,1.5-9.5,1.4-12.3-2.5c-0.5-0.8-1.2-1.5-1.8-2.2c-0.5-0.6-1.1-1.2-1.8-1.5c-2.8-1.6-6,0.3-6,3.6c0,2,0.8,3.6,2.1,5.1
			c1.5,1.6,3.3,2.8,5.3,3.7C789.7,532.2,793.2,532.7,796.7,532.7z"/>
		<path d="M796.7,532.7c-3.5,0-7-0.5-10.2-1.9c-2-0.9-3.8-2.1-5.3-3.7c-1.3-1.4-2.1-3.1-2.1-5.1c0-3.2,3.2-5.1,6-3.6
			c0.7,0.4,1.2,1,1.8,1.5c0.6,0.7,1.3,1.4,1.8,2.2c2.8,3.9,9.3,4,12.3,2.5c0.8-0.4,1.6-1,2.2-1.7c2.2-2.3,1.5-5.8-1.5-6.9
			c-1.8-0.7-3.7-1.1-5.6-1.6c-3.3-0.9-6.7-1.6-9.9-2.8c-3.8-1.4-6.4-4.1-7.1-8.4c-0.8-5.3,1-9.7,5.8-12.5c3.8-2.2,8-2.7,12.4-2.5
			c3.7,0.2,7.1,1.2,10.2,3.2c1.1,0.7,2.2,1.6,3.1,2.6c0.7,0.8,1.2,1.8,1.5,2.8c0.5,1.9,0,3.4-1.5,4.3c-1.6,1-3.7,1-5.1-0.1
			c-0.8-0.6-1.5-1.4-2.2-2.1c-3.1-3.5-7.1-3.8-11.3-2.8c-1.5,0.3-2.6,1.2-3.3,2.6c-0.9,1.8-0.5,3.6,1.2,4.6c1.4,0.8,2.9,1.4,4.4,1.8
			c3.2,0.8,6.4,1.5,9.6,2.3c1.2,0.3,2.3,0.7,3.4,1.2c5.3,2.5,7.2,7,6.6,12.3c-0.7,6-4.6,9.3-10.1,10.8c-2.3,0.7-4.8,0.8-7.2,1.2
			C796.7,532.8,796.7,532.8,796.7,532.7z"/>
	</g>
</g>
</svg>
