<?xml version="1.0" encoding="utf-8"?>
<!-- Generator: Adobe Illustrator 19.1.0, SVG Export Plug-In . SVG Version: 6.00 Build 0)  -->
<svg version="1.1" id="Layer_1" xmlns="http://www.w3.org/2000/svg" xmlns:xlink="http://www.w3.org/1999/xlink" x="0px" y="0px"
	 viewBox="39 468 88 86" style="enable-background:new 39 468 88 86;" xml:space="preserve">
<style type="text/css">
	.st0{fill:#2A5699;}
	.st1{fill:#FFFFFF;}
	.st2{fill:#207245;}
	.st3{fill:#D24625;}
	.st4{fill:#0071C5;}
	.st5{fill:#733781;}
	.st6{fill:#077467;}
	.st7{fill:#094AB1;}
</style>
<g id="word">
	<path class="st0" d="M85,468h6c0,2.7,0,5.3,0,8c10.7,0.1,21.4-0.1,32.1,0.1c2.3-0.2,4.1,1.5,3.9,3.8c0.2,19.7,0,39.4,0.1,59.1
		c-0.1,2,0.2,4.3-1,6c-1.5,1-3.3,0.9-5.1,1c-10-0.1-20,0-30,0c0,2.7,0,5.3,0,8h-6.2c-15.2-2.8-30.5-5.3-45.7-8c0-23.3,0-46.7,0-70
		C54.3,473.3,69.7,470.7,85,468z"/>
	<path class="st1" d="M91,479c11,0,22,0,33,0c0,21.3,0,42.7,0,64c-11,0-22,0-33,0c0-2.7,0-5.3,0-8c8.7,0,17.3,0,26,0
		c0-1.3,0-2.7,0-4c-8.7,0-17.3,0-26,0c0-1.7,0-3.3,0-5c8.7,0,17.3,0,26,0c0-1.3,0-2.7,0-4c-8.7,0-17.3,0-26,0c0-1.7,0-3.3,0-5
		c8.7,0,17.3,0,26,0c0-1.3,0-2.7,0-4c-8.7,0-17.3,0-26,0c0-1.7,0-3.3,0-5c8.7,0,17.3,0,26,0c0-1.3,0-2.7,0-4c-8.7,0-17.3,0-26,0
		c0-1.7,0-3.3,0-5c8.7,0,17.3,0,26,0c0-1.3,0-2.7,0-4c-8.7,0-17.3,0-26,0c0-1.7,0-3.3,0-5c8.7,0,17.3,0,26,0c0-1.3,0-2.7,0-4
		c-8.7,0-17.3,0-26,0C91,483.7,91,481.3,91,479z"/>
	<path class="st1" d="M59.7,496.7c1.9-0.1,3.8-0.2,5.7-0.3c1.3,6.8,2.7,13.5,4.1,20.2c1.1-6.9,2.4-13.9,3.6-20.8c2-0.1,4-0.2,6-0.3
		c-2.3,9.7-4.2,19.5-6.7,29.1c-1.7,0.9-4.2,0-6.2,0.1c-1.3-6.6-2.9-13.2-4.1-19.9c-1.2,6.5-2.7,12.9-4,19.3
		c-1.9-0.1-3.9-0.2-5.8-0.3c-1.7-8.8-3.6-17.5-5.2-26.4c1.7-0.1,3.4-0.1,5.1-0.2c1,6.4,2.2,12.7,3.1,19.1
		C56.8,509.8,58.3,503.2,59.7,496.7z"/>
</g>
</svg>
