<svg height="40" viewBox="0 0 230 40" width="230" xmlns="http://www.w3.org/2000/svg"><g fill="#0072c6"><path d="m117.4079 7.3422v25.3148l17.8282 3.343v-32zm12.2453 19.4125-6.9273-.7258.032-12.957 6.6863-.75-.0035 2.6586-4.2766.2742v3l3.9867-.1328v2.7328l-3.9535-.1328v3.0664l4.4934.3z"/><path d="m147.5525 10.42h-10.9579v2.439c.2094.01.3875.0211.509.0312l1.531 1.779-.4027 1.1867-1.209-.9321h-.4282v4.579a10.2513 10.2513 0 0 0 1.7992 1.352s0 .593-1.048.17a4.2658 4.2658 0 0 1 -.7508-.4578v4.7h.5676a18.79 18.79 0 0 0 3.224-3.9828s.5645 0 .1614 1.1016-3.5465 4.83-3.5465 4.83l-.4066.0008v2.408h10.9577a1.208 1.208 0 0 0 1.177-1.2367v-16.7309a1.2085 1.2085 0 0 0 -1.1772-1.237zm-5.468 16.7335-1.5313-1.7789.4032-1.1867 1.2086.9325h2.4187v-2.543a18.4046 18.4046 0 0 0 -3.7891-3.3882s0-.5938 1.048-.17 4.595 3.728 4.595 3.728l.0054 4.2282c-.1604.3387-3.5171.2504-4.3585.1777zm4.2946-9.7492-1.693 1.61-1.1286-.424.8871-1.27v-2.5422h-2.4177a18.774 18.774 0 0 0 -3.2246 3.9821s-.5649 0-.1614-1.1016 3.5469-4.83 3.5469-4.83l4.0231-.0058c.3221.1702.2373 3.6972.1682 4.5811z"/><path d="m180.9655 13.5022h1.3686v5.3878a3.2909 3.2909 0 0 1 2.01-1.504 3.2346 3.2346 0 0 1 2.7.5549 3.728 3.728 0 0 1 .937 2.688c0 1.7755.0123 3.551 0 5.3265h-1.3561c-.0123-1.6522 0-3.304-.0123-4.9566a3.0146 3.0146 0 0 0 -.6165-1.9974 2.0391 2.0391 0 0 0 -2.4783-.185 2.7749 2.7749 0 0 0 -1.1714 2.318c-.0123 1.6029 0 3.2181 0 4.821-.456.0123-.9124.0123-1.3686.0123-.0123-4.168-.0123-8.3106-.0123-12.4658z"/><path d="m158.6363 25.943c-.0123-3.9332 0-7.8541 0-11.7873 2.01 0 4.0072-.0123 6.017 0v1.2577c-1.5412.0123-3.07 0-4.6114 0v3.8716h4.2538v1.2822c-1.4179.0123-2.8358 0-4.2538 0v4.0688c1.6275.0123 3.2427 0 4.87.0123 0 .4069 0 .8261.0123 1.233a5.3741 5.3741 0 0 1 -.888.0617c-1.8119 0-3.6121.025-5.3999 0z"/><path d="m174.4186 18.4588a4.0674 4.0674 0 0 1 2.91-1.1343 4.1191 4.1191 0 0 1 2.133.4192c0 .456 0 .9247-.0123 1.381a3.4923 3.4923 0 0 0 -2.7993-.5547 3.0017 3.0017 0 0 0 -2.096 2.54 4.104 4.104 0 0 0 .3822 2.5153 2.6012 2.6012 0 0 0 2.256 1.3193 3.5587 3.5587 0 0 0 2.207-.69c0 .4438 0 .888-.0123 1.3316a4.8518 4.8518 0 0 1 -3.6373.3452 3.777 3.777 0 0 1 -2.4043-2.429 5.0223 5.0223 0 0 1 1.073-5.0428z"/><path d="m195.9956 20.5055a3.9777 3.9777 0 0 0 -.37-1.8865 2.39 2.39 0 0 0 -1.8865-1.2577 5.6979 5.6979 0 0 0 -3.6126.7645c0 .456 0 .9247.0123 1.381a5.34 5.34 0 0 1 1.7878-.9124 2.393 2.393 0 0 1 2.1084.2466 2.4016 2.4016 0 0 1 .6042 1.7138c-1.344.3082-2.7989.1973-4.0565.8384a2.6607 2.6607 0 0 0 -.87 3.6608l.0319.05a2.998 2.998 0 0 0 4.895-.5055c-.0123.4438-.0123.9 0 1.344h1.344c.012-1.7997-.0003-3.6245.012-5.437zm-1.8371 3.5265a2.1822 2.1822 0 0 1 -2.7619.69 1.4842 1.4842 0 0 1 -.4143-2.0576q.0214-.0321.0443-.0631a2.711 2.711 0 0 1 1.5782-.6288q1.0172-.1294 2.0344-.296a3.7027 3.7027 0 0 1 -.4807 2.3555z"/><path d="m199.4356 18.878a3.1249 3.1249 0 0 1 2.0591-1.504 3.2063 3.2063 0 0 1 2.4413.456 3.4869 3.4869 0 0 1 1.11 2.7989c-.0123 1.7632.0246 3.5263-.0123 5.29a5.552 5.552 0 0 1 -1.3563-.0123c.0123-1.5906 0-3.1934 0-4.784a3.2289 3.2289 0 0 0 -.58-2.096 1.9691 1.9691 0 0 0 -2.133-.4069 2.5194 2.5194 0 0 0 -1.5289 2.3674c0 1.64-.0123 3.28.0123 4.9073a10.05 10.05 0 0 1 -1.3563.0493c-.074-2.7742.0246-5.5484-.037-8.3226a.87.87 0 0 0 .0863-.111c.4315-.0246.8754-.0123 1.3193-.0123-.0246.4807-.0246.9246-.0246 1.3808z"/><path d="m214.2191 17.5217h-1.344v1.1466a3.13 3.13 0 0 0 -1.196-1.0727 3.7434 3.7434 0 0 0 -2.0467-.2342 3.512 3.512 0 0 0 -2.5893 1.9111 6.4016 6.4016 0 0 0 -.53 3.588 3.96 3.96 0 0 0 1.4549 2.6633 3.6126 3.6126 0 0 0 3.1934.4315 3.3628 3.3628 0 0 0 1.7138-1.43 6.2315 6.2315 0 0 1 -.3946 2.7742 2.51 2.51 0 0 1 -1.7385 1.307 5.2152 5.2152 0 0 1 -3.6743-.69c-.0123.456-.0123.9247-.0123 1.381a6.7791 6.7791 0 0 0 3.8222.5055 3.6773 3.6773 0 0 0 2.4906-1.3686 4.9816 4.9816 0 0 0 .8508-2.9715v-7.94zm-1.9111 6.4115a2.46 2.46 0 0 1 -3.144.74 2.8289 2.8289 0 0 1 -1.2823-2.1824 4.7387 4.7387 0 0 1 .4932-2.848 2.2517 2.2517 0 0 1 1.2946-1.0357 2.36 2.36 0 0 1 2.4166.5425 2.4644 2.4644 0 0 1 .752 1.8494 4.568 4.568 0 0 1 -.5301 2.9342z"/><path d="m222.69 19.0259a3.0371 3.0371 0 0 0 -2.318-1.6769 3.888 3.888 0 0 0 -2.33.3329 4.2453 4.2453 0 0 0 -2.1947 3.4154 5.4961 5.4961 0 0 0 .7274 3.551 3.3275 3.3275 0 0 0 2.4413 1.4426 5.2422 5.2422 0 0 0 3.5386-.752c0-.4315-.0123-.8631-.0123-1.2946a3.9238 3.9238 0 0 1 -3.896.6411 2.8508 2.8508 0 0 1 -1.4179-2.6139h5.9428a6.4239 6.4239 0 0 0 -.4812-3.0456zm-5.4251 1.8865a2.9969 2.9969 0 0 1 .9247-1.8371 2.1486 2.1486 0 0 1 2.9222-.037 2.859 2.859 0 0 1 .6658 1.8742z"/><path d="m165.4666 17.5217c.5178 0 1.0234-.0246 1.5412.0123.1233.074.1726.2219.259.3329.592 1.06 1.184 2.1084 1.7878 3.1688.69-1.1714 1.3933-2.3426 2.096-3.514h1.5166c-.937 1.4179-1.8742 2.8235-2.8112 4.2291.9124 1.4056 1.8742 2.7742 2.7742 4.192h-1.5782c-.69-1.122-1.3686-2.244-2.0467-3.3784-.7028 1.122-1.3686 2.2687-2.096 3.3784-.5178 0-1.0234 0-1.5412-.0123.888-1.3686 1.8618-2.688 2.7742-4.032.111-.111-.0493-.259-.0863-.37-.8751-1.3313-1.7506-2.6629-2.5894-4.0069z"/></g><path d="m10.2548 14.0122a9.0139 9.0139 0 0 1 17.5537-2.883 6.7165 6.7165 0 0 1 9.39 7.9817 7.0281 7.0281 0 0 1 -1.5225 13.8891h-21.036a7.836 7.836 0 0 1 -3.4041-14.8932 8.9733 8.9733 0 0 1 -.9811-4.0946zm13.5737 10.2714-1.58-1.125-4.7061 3.9193a.3592.3592 0 0 1 -.46-.5519l4.5614-3.7981-5.5052-3.8911v8.42a.718.718 0 0 0 .7184.718h14.3588a.718.718 0 0 0 .7185-.718l-.0264-8.4329-5.4786 3.9038 4.5607 3.7982a.359.359 0 0 1 -.4593.5519l-4.7063-3.9193-1.58 1.125a.4659.4659 0 0 1 -.4165 0zm.2082-.7327 7.8975-5.627a.7184.7184 0 0 0 -.7185-.718h-14.3582a.7184.7184 0 0 0 -.7184.718z" fill="#0064ba"/><path d="m51.8745 16.9387-1.6533-2.1987a1.5756 1.5756 0 0 0 1.46-1.5754c0-.9686-.7608-1.606-1.9447-1.606h-2.3132v5.38h.608v-2.09h1.5361l1.56 2.09zm-.8079-3.7506c0 .7-.576 1.1148-1.3837 1.1148h-1.6515v-2.1829h1.66c.8686 0 1.3752.3992 1.3752 1.0681zm4.1134-1.6669h-.5688l-2.4512 5.4175h.6222l.638-1.4215h2.9268l.6315 1.4215h.6542zm.93 3.45h-2.451l1.2294-2.7445zm4.4066 2.06a2.6844 2.6844 0 0 1 -2.6966-2.7742 2.7074 2.7074 0 0 1 2.72-2.79 2.7963 2.7963 0 0 1 2.0981.8522l-.4147.4466a2.3381 2.3381 0 0 0 -1.69-.7383 2.1067 2.1067 0 0 0 -2.0834 2.2133 2.1249 2.1249 0 0 0 2.0833 2.2292 2.3359 2.3359 0 0 0 1.7357-.7758l.3994.3919a2.8 2.8 0 0 1 -2.1523.9452zm7.8981-.0926h-.7619l-2.0677-2.6053-1.1453 1.1611v1.4443h-.606v-5.38h.606v3.2126l3.0902-3.2123h.7838l-2.3062 2.3516zm2.6767-2.9815c1.1994.2612 1.7536.6993 1.7536 1.5291 0 .93-.7687 1.53-1.8376 1.53a3.1429 3.1429 0 0 1 -2.1966-.8613l.3754-.4452a2.5627 2.5627 0 0 0 1.8438.7603c.723 0 1.1976-.3765 1.1976-.9223 0-.507-.268-.7913-1.3973-1.03-1.2379-.2689-1.8056-.6678-1.8056-1.5593a1.5841 1.5841 0 0 1 1.7669-1.4762 2.8091 2.8091 0 0 1 1.8917.6612l-.354.4683a2.3657 2.3657 0 0 0 -1.553-.584c-.7 0-1.1451.3843-1.1451.8761.0003.5146.277.7996 1.4597 1.0534zm7.2015-.684c0-1.0689-.7991-1.7143-2.015-1.7143h-2.0127v5.38h.608v-1.898h1.3056c1.1455 0 2.1137-.6001 2.1137-1.7675zm-.6157.0231c0 .7142-.5833 1.19-1.4743 1.19h-1.3297v-2.3662h1.36c.8689 0 1.4436.3992 1.4436 1.1764zm15.9446-1.1842h-3.282v1.8366h2.9369v.5536h-2.9373v1.8828h3.3206v.5535h-3.9285v-5.38h3.89zm-12.4318-.5908h-.5686l-2.4524 5.4175h.6233l.6376-1.4215h2.9268l.631 1.4215h.6536zm.9305 3.45h-2.4524l1.23-2.7445zm4.4059 2.06a2.6866 2.6866 0 0 1 -2.6981-2.7743 2.7086 2.7086 0 0 1 2.7217-2.79 2.8 2.8 0 0 1 2.0986.8522l-.4147.4466a2.3435 2.3435 0 0 0 -1.6923-.7383 2.1082 2.1082 0 0 0 -2.0831 2.2135 2.1251 2.1251 0 0 0 2.0835 2.2291 2.3452 2.3452 0 0 0 1.7382-.7758l.3976.3919a2.7967 2.7967 0 0 1 -2.1512.9452zm8.2565-4.3172a.5777.5777 0 1 0 -.5785-.5777.5774.5774 0 0 0 .5787.5778zm.6872-.5777a.6875.6875 0 1 1 -.6872-.6878.6871.6871 0 0 1 .6871.6879zm-.4543.37-.0118-.0063-.2013-.27h-.181v.2614a.0145.0145 0 0 1 -.0153.0147h-.0786a.0159.0159 0 0 1 -.0153-.0147v-.7094a.016.016 0 0 1 .0153-.0158h.3052c.1611 0 .27.0887.27.2272a.2181.2181 0 0 1 -.1814.218l.204.2713c.009.0115.0041.0234-.0113.0234zm-.1893-.6355h-.2049v.2576h.2026c.1039 0 .169-.0511.169-.1322.0002-.0762-.056-.1255-.1666-.1255zm-47.4032 19.6934v-12.1693h9.3914v2.3808h-6.67v2.4693h5.87v2.3821h-5.87v2.5554h6.76v2.3817zm20.9353 0v-7.945l-3.5042 5.1983h-.0712l-3.4691-5.1455v7.8923h-2.6861v-12.1694h2.953l3.2734 5.1451 3.2723-5.1453h2.9527v12.1695zm16.4221 0-5.3362-12.256h-2.5254l-5.3371 12.256h2.7927l1.1379-2.7292h5.2648l1.1394 2.7292zm-4.9814-5.0942h-3.308l1.654-3.9457zm5.4324 5.0944v-12.1695h2.7375v12.1693zm4.9359 0v-12.1695h2.74v9.7351h6.2077v2.4339z" fill="#060a10" fill-rule="evenodd"/></svg>