<svg id="solve_logo" viewBox="0 0 213.4522 54" xmlns="http://www.w3.org/2000/svg"><title>Solve</title><path d="m122.2294 17.664c-9.2755 0-16.5386 6.97-16.5386 15.8691v.1089c0 8.8362 7.217 15.76 16.4255 15.76 9.2756 0 16.5429-6.97 16.5429-15.8692v-.1128c0-8.8359-7.217-15.756-16.4298-15.756zm-7.6394 15.756c0-4.6649 3.096-7.922 7.5265-7.922 4.36 0 7.648 3.4537 7.648 8.0348v.1089c0 4.6691-3.1 7.9241-7.5349 7.9241-4.3553 0-7.64-3.4516-7.64-8.033z"/><path d="m175.556 18.225-6.594 19.563-6.544-19.563h-9.555l12.007 30.73h8.066l11.874-30.391.134-.339z"/><path d="m150.75 40.39c0 1.2551.4564 1.8822 1.54 1.8822a3.61 3.61 0 0 0 1.4823-.2848l2.3851 6.1042a14.0219 14.0219 0 0 1 -6.0917 1.3106c-5.2477 0-8.3276-3.137-8.3276-8.67v-31.1649l9.0118-.97z"/><path d="m198.587 17.664c-8.5977 0-15.0826 6.82-15.0826 15.8691v.1089c0 9.129 6.6982 15.76 15.9236 15.76a15.2191 15.2191 0 0 0 12.4594-5.6941l.1463-.184-5.2214-4.6191-.163.1549a9.5478 9.5478 0 0 1 -7.1084 3.0125 6.68 6.68 0 0 1 -7.02-5.3806h20.7977l.0208-.23c.0628-.8784.1131-1.6023.1131-2.255-.0003-7.6353-3.8914-16.5426-14.8655-16.5426zm0 7.33c3.2175 0 5.4558 2.1922 6.0414 5.8781h-12.2334c.745-3.74 2.9872-5.878 6.192-5.878z"/><path d="m91.0729 24.8936c-6.87-1.7615-8.2631-2.5855-8.2631-4.9076v-.1131c0-1.92 1.8786-3.1649 4.7906-3.1649 3.0583 0 6.3426 1.2488 10.0452 3.8176l.205.1444 4.8488-6.8135-.2758-.2257a22.8964 22.8964 0 0 0 -14.71-5.0331c-8.2253 0-13.9655 4.9577-13.9655 12.0618v.1088c0 8.2086 5.7065 10.3173 13.1748 12.2251 6.6354 1.6987 7.7024 2.7864 7.7024 4.74v.1089c0 2.1587-2.0166 3.4474-5.4056 3.4474-3.9871 0-7.6563-1.4936-11.5389-4.7025l-.6891-.5818-4.9129 6.9035.184.1631a25.15 25.15 0 0 0 16.7939 6.33c9.0285 0 14.639-4.7486 14.639-12.3966v-.1129c-.0003-7.2293-5.0457-10.0241-12.6228-11.9989z"/><path d="m54 54h-54v-4h50v-36h-36v16h20v4h-24v-24h44zm-10-34h-24v4h20v16h-36v-36h50v-4h-54v44h44z" fill="#eb0000"/></svg>