<?xml version="1.0" standalone="no"?>
<!DOCTYPE svg PUBLIC "-//W3C//DTD SVG 1.1//EN" "http://www.w3.org/Graphics/SVG/1.1/DTD/svg11.dtd">
<svg xmlns="http://www.w3.org/2000/svg">
<metadata>Copyright (C) 2017 by original authors @ fontello.com</metadata>
<defs>
<font id="rswebfonts" horiz-adv-x="1000" >
<font-face font-family="rswebfonts" font-weight="400" font-stretch="normal" units-per-em="1000" ascent="850" descent="-150" />
<missing-glyph horiz-adv-x="1000" />
<glyph glyph-name="envelope-o" unicode="&#x2709;" d="M929 11v428q-18-20-39-36-149-115-238-189-28-24-46-37t-48-28-57-13h-2q-26 0-57 13t-48 28-46 37q-88 74-238 189-21 16-39 36v-428q0-7 6-13t12-5h822q7 0 12 5t6 13z m0 586v14t-1 7-1 7-3 5-5 4-8 2h-822q-7 0-12-6t-6-12q0-94 83-159 107-84 223-176 4-3 20-17t25-21 25-17 28-16 24-5h2q11 0 24 5t28 16 25 17 25 21 20 17q116 92 224 176 30 24 56 65t26 73z m71 21v-607q0-37-26-63t-63-27h-822q-36 0-63 27t-26 63v607q0 37 26 63t63 26h822q37 0 63-26t26-63z" horiz-adv-x="1000" />

<glyph glyph-name="print" unicode="&#xe800;" d="M214-7h500v143h-500v-143z m0 357h500v214h-89q-22 0-38 16t-16 38v89h-357v-357z m643-36q0 15-10 25t-26 11-25-11-10-25 10-25 25-10 26 10 10 25z m72 0v-232q0-7-6-12t-12-6h-125v-89q0-22-16-38t-38-16h-536q-22 0-37 16t-16 38v89h-125q-7 0-13 6t-5 12v232q0 44 32 76t75 31h36v304q0 22 16 38t37 16h375q23 0 50-12t42-26l85-85q15-16 27-43t11-49v-143h35q45 0 76-31t32-76z" horiz-adv-x="928.6" />

<glyph glyph-name="caret-right" unicode="&#xe801;" d="M321 350q0-14-10-25l-250-250q-11-11-25-11t-25 11-11 25v500q0 15 11 25t25 11 25-11l250-250q10-10 10-25z" horiz-adv-x="357.1" />

<glyph glyph-name="comments" unicode="&#xe802;" d="M786 421q0-77-53-143t-143-104-197-38q-48 0-98 9-70-49-155-72-21-5-48-9h-2q-6 0-12 5t-6 12q-1 1-1 3t1 4 1 3l1 3t2 3 2 3 3 3 2 2q3 3 13 14t15 16 12 17 14 21 11 25q-69 40-108 98t-40 125q0 78 53 144t143 104 197 38 197-38 143-104 53-144z m214-142q0-67-40-126t-108-98q5-14 11-25t14-21 13-16 14-17 13-14q0 0 2-2t3-3 2-3 2-3l1-3t1-3 1-4-1-3q-2-8-7-13t-12-4q-28 4-48 9-86 23-156 72-50-9-98-9-151 0-263 74 32-3 49-3 90 0 172 25t148 72q69 52 107 119t37 141q0 43-13 85 72-39 114-99t42-128z" horiz-adv-x="1000" />

<glyph glyph-name="times" unicode="&#xe803;" d="M724 112q0-22-15-38l-76-76q-16-15-38-15t-38 15l-164 165-164-165q-16-15-38-15t-38 15l-76 76q-16 16-16 38t16 38l164 164-164 164q-16 16-16 38t16 38l76 76q16 16 38 16t38-16l164-164 164 164q16 16 38 16t38-16l76-76q15-15 15-38t-15-38l-164-164 164-164q15-15 15-38z" horiz-adv-x="785.7" />

<glyph glyph-name="exclamation-circle" unicode="&#xe804;" d="M429 779q116 0 215-58t156-156 57-215-57-215-156-156-215-58-216 58-155 156-58 215 58 215 155 156 216 58z m71-696v106q0 8-5 13t-12 5h-107q-8 0-13-5t-6-13v-106q0-8 6-13t13-6h107q7 0 12 6t5 13z m-1 192l10 346q0 7-6 10-5 5-13 5h-123q-8 0-13-5-6-3-6-10l10-346q0-6 5-10t14-4h103q8 0 13 4t6 10z" horiz-adv-x="857.1" />

<glyph glyph-name="bullhorn" unicode="&#xe805;" d="M929 493q29 0 50-21t21-51-21-50-50-21v-214q0-29-22-50t-50-22q-233 194-453 212-32-10-51-36t-17-57 22-51q-11-19-13-37t4-32 19-31 26-28 35-28q-17-32-63-46t-94-7-73 31q-4 13-17 49t-18 53-12 50-9 56 2 55 12 62h-68q-36 0-63 26t-26 63v107q0 37 26 63t63 26h268q243 0 500 215 29 0 50-22t22-50v-214z m-72-337v532q-220-168-428-191v-151q210-23 428-190z" horiz-adv-x="1000" />

<glyph glyph-name="caret-down" unicode="&#xe806;" d="M571 457q0-14-10-25l-250-250q-11-11-25-11t-25 11l-250 250q-11 11-11 25t11 25 25 11h500q14 0 25-11t10-25z" horiz-adv-x="571.4" />

<glyph glyph-name="check" unicode="&#xe807;" d="M933 534q0-22-16-38l-404-404-76-76q-16-15-38-15t-38 15l-76 76-202 202q-15 16-15 38t15 38l76 76q16 16 38 16t38-16l164-165 366 367q16 16 38 16t38-16l76-76q16-15 16-38z" horiz-adv-x="1000" />

<glyph glyph-name="wrench" unicode="&#xe808;" d="M214 29q0 14-10 25t-25 10-25-10-11-25 11-25 25-11 25 11 10 25z m360 234l-381-381q-21-20-50-20-29 0-51 20l-59 61q-21 20-21 50 0 29 21 51l380 380q22-55 64-97t97-64z m354 243q0-22-13-59-27-75-92-122t-144-46q-104 0-177 73t-73 177 73 176 177 74q32 0 67-10t60-26q9-6 9-15t-9-16l-163-94v-125l108-60q2 2 44 27t75 45 40 20q8 0 13-5t5-14z" horiz-adv-x="928.6" />

<glyph glyph-name="plus" unicode="&#xe809;" d="M786 439v-107q0-22-16-38t-38-15h-232v-233q0-22-16-37t-38-16h-107q-22 0-38 16t-15 37v233h-232q-23 0-38 15t-16 38v107q0 23 16 38t38 16h232v232q0 22 15 38t38 16h107q23 0 38-16t16-38v-232h232q23 0 38-16t16-38z" horiz-adv-x="785.7" />

<glyph glyph-name="globe" unicode="&#xe80a;" d="M429 779q116 0 215-58t156-156 57-215-57-215-156-156-215-58-216 58-155 156-58 215 58 215 155 156 216 58z m153-291q-2-1-6-5t-7-6q1 0 2 3t3 6 2 4q3 4 12 8 8 4 29 7 19 5 29-6-1 1 5 7t8 7q2 1 8 3t9 4l1 12q-7-1-10 4t-3 12q0-2-4-5 0 4-2 5t-7-1-5-1q-5 2-8 5t-5 9-2 8q-1 3-5 6t-5 6q-1 1-2 3t-1 4-3 3-3 1-4-3-4-5-2-3q-2 1-4 1t-2-1-3-1-3-2q-1-2-4-2t-5-1q8 3-1 6-5 2-9 2 6 2 5 6t-5 8h3q-1 2-5 5t-10 5-7 3q-5 3-19 5t-18 1q-3-4-3-6t2-8 2-7q1-3-3-7t-3-7q0-4 7-9t6-12q-2-4-9-9t-9-6q-3-5-1-11t6-9q1-1 1-2t-2-3-3-2-4-2l-1-1q-7-3-12 3t-7 15q-4 14-9 17-13 4-16-1-3 7-23 15-14 5-33 2 4 0 0 8-4 9-10 7 1 3 2 10t0 7q2 8 7 13 1 1 4 5t5 7 1 4q19-3 28 6 2 3 6 9t6 10q5 3 8 3t8-3 8-3q8-1 8 6t-4 11q7 0 2 10-2 4-5 5-6 2-15-3-4-2 2-4-1 0-6-6t-9-10-9 3q0 0-3 7t-5 8q-5 0-9-9 1 5-6 9t-14 4q11 7-4 15-4 3-12 3t-11-2q-2-4-3-7t3-4 6-3 6-2 5-2q8-6 5-8-1 0-5-2t-6-2-4-2q-1-3 0-8t-1-8q-3 3-5 10t-4 9q4-5-14-3l-5 0q-3 0-9-1t-12-1-7 5q-3 4 0 11 0 2 2 1-2 2-6 5t-6 5q-25-8-52-23 3 0 6 1 3 1 8 4t5 3q19 7 24 4l3 2q7-9 11-14-4 3-17 1-11-3-12-7 4-6 2-10-2 2-6 6t-8 6-8 3q-9 0-13-1-81-45-131-124 4-4 7-4 2-1 3-5t1-6 6 1q5-4 2-10 1 0 25-15 10-10 11-12 2-6-5-10-1 1-5 5t-5 2q-2-3 0-10t6-7q-4 0-5-9t-2-20 0-13l1-1q-2-6 3-19t12-11q-7-1 11-24 3-4 4-5 2-1 7-4t9-6 5-5q2-3 6-13t8-13q-2-3 5-11t6-13q-1 0-2-1t-1 0q2-4 9-8t8-7q1-2 1-6t2-6 4-1q2 11-13 35-8 13-9 16-2 2-4 8t-2 8q1 0 3 0t5-2 4-3 1-1q-1-4 1-10t7-10 10-11 6-7q4-4 8-11t0-8q5 0 11-5t10-11q3-5 4-15t3-13q1-4 5-8t7-5l9-5t7-3q3-2 10-6t12-7q6-2 9-2t8 1 8 2q8 1 16-8t12-12q20-10 30-6-1 0 1-4t4-9 5-8 3-5q3-3 10-8t10-8q4 2 4 5-1-5 4-11t10-6q8 2 8 18-17-8-27 10 0 0-2 3t-2 5-1 4 0 5 2 1q5 0 6 2t-1 7-2 8q-1 4-6 11t-7 8q-3-5-9-4t-9 5q0-1-1-3t-1-4q-7 0-8 0 1 2 1 10t2 13q1 2 3 6t5 9 2 7-3 5-9 1q-11 0-15-11-1-2-2-6t-2-6-5-4q-4-2-14-1t-13 3q-8 4-13 16t-5 20q0 6 1 15t2 14-3 14q2 1 5 5t5 6q2 1 3 1t3 0 2 1 1 3q0 1-2 2-1 1-2 1 4-1 16 1t15-1q9-6 12 1 0 1-1 6t0 7q3-15 16-5 2-1 9-3t9-2q2-1 4-3t3-3 3 0 5 4q5-8 7-13 6-23 10-25 4-2 6-1t3 5 0 8-1 7l-1 5v10l0 4q-8 2-10 7t0 10 9 10q0 1 4 2t9 4 7 4q12 11 8 20 4 0 6 5 0 0-2 2t-5 2-2 2q5 2 1 8 3 2 4 7t4 5q5-6 12-1 5 5 1 9 2 4 11 6t10 5q4-1 5 1t0 7 2 7q2 2 9 5t7 2l9 7q2 2 0 2 10-1 18 6 5 6-4 11 2 4-1 5t-9 4q2 0 7 0t5 1q9 5-3 9-10 2-24-7z m-91-490q115 21 195 106-1 2-7 2t-7 2q-10 4-13 5 1 4-1 7t-5 5-7 5-6 4q-1 1-4 3t-4 3-4 2-5 2-5-1l-2-1q-2 0-3-1t-3-2-2-1 0-2q-12 10-20 13-3 0-6 3t-6 4-6 0-6-3q-3-3-4-9t-1-7q-4 3 0 10t1 10q-1 3-6 2t-6-2-7-5-5-3-4-3-5-5q-2-2-4-6t-2-6q-1 2-7 3t-5 3q1-5 2-19t3-22q4-17-7-26-15-14-16-23-2-12 7-14 0-4-5-12t-4-12q0-3 2-9z" horiz-adv-x="857.1" />

<glyph glyph-name="gear" unicode="&#xe80b;" d="M571 350q0 59-41 101t-101 42-101-42-42-101 42-101 101-42 101 42 41 101z m286 61v-124q0-7-4-13t-11-7l-104-16q-10-30-21-51 19-27 59-77 6-6 6-13t-5-13q-15-21-55-61t-53-39q-7 0-14 5l-77 60q-25-13-51-21-9-76-16-104-4-16-20-16h-124q-8 0-14 5t-6 12l-16 103q-27 9-50 21l-79-60q-6-5-14-5-8 0-14 6-70 64-92 94-4 5-4 13 0 6 5 12 8 12 28 37t30 40q-15 28-23 55l-102 15q-7 1-11 7t-5 13v124q0 7 5 13t10 7l104 16q8 25 22 51-23 32-60 77-6 7-6 14 0 5 5 12 15 20 55 60t53 40q7 0 15-5l77-60q24 13 50 21 9 76 17 104 3 16 20 16h124q7 0 13-5t7-12l15-103q28-9 51-20l79 59q5 5 13 5 7 0 14-5 72-67 92-95 4-5 4-12 0-7-4-13-9-12-29-37t-30-40q15-28 23-54l102-16q7-1 12-7t4-13z" horiz-adv-x="857.1" />

<glyph glyph-name="phone" unicode="&#xe80c;" d="M786 158q0-15-6-39t-12-38q-11-28-68-60-52-28-103-28-15 0-30 2t-32 7-26 8-31 11-28 10q-54 20-97 47-71 44-148 120t-120 148q-27 43-46 97-2 5-10 28t-12 31-8 26-7 32-2 29q0 52 29 104 31 57 59 68 14 6 38 12t39 6q8 0 12-2 10-3 30-42 6-11 16-31t20-35 17-30q2-2 10-14t12-20 4-16q0-11-16-27t-35-31-34-30-16-25q0-5 3-13t4-11 8-14 7-10q42-77 97-132t131-97q1 0 10-6t14-8 11-5 13-2q10 0 25 16t30 34 31 35 28 16q7 0 15-4t20-12 14-10q14-8 30-17t36-20 30-17q39-19 42-29 2-4 2-12z" horiz-adv-x="785.7" />

<glyph glyph-name="sign-in" unicode="&#xe80d;" d="M661 350q0-14-11-25l-303-304q-11-10-26-10t-25 10-10 25v161h-250q-15 0-25 11t-11 25v214q0 15 11 25t25 11h250v161q0 14 10 25t25 10 26-10l303-304q11-10 11-25z m196 196v-392q0-67-47-114t-114-47h-178q-7 0-13 5t-5 13q0 2-1 11t0 15 2 13 5 11 12 3h178q37 0 64 27t26 63v392q0 37-26 64t-64 26h-174t-6 0-6 2-5 3-4 5-1 8q0 2-1 11t0 15 2 13 5 11 12 3h178q67 0 114-47t47-114z" horiz-adv-x="857.1" />

<glyph glyph-name="auto-compute" unicode="&#xe900;" d="M500 94c-3 0-9 0-14 0h-5l-4 6c-7 9-14 23-18 45 0 2 0 3 0 3-7 2-15 4-23 7 0 0-2-2-2-2-14-19-28-26-37-31l-6-3-5 1c-5 2-11 5-13 7-3 1-7 4-12 7l-5 4v4c-1 11-1 28 8 49 0 1 2 3 2 3-7 4-13 11-18 17 0 0-1 0-3-2-12-6-25-7-39-7-3 0-6 0-9 0h-5l-6 7c-3 4-6 10-8 13s-5 8-6 12l-3 7 1 4c5 10 13 25 32 38 1 1 3 1 3 3-3 8-5 16-7 23 0 0-1 0-3 0-23 4-37 11-45 18l-5 3v4c0 5 0 11 0 14s0 10 0 15v4l5 3c9 7 23 14 45 18 2 0 3 0 3 0 2 7 4 15 7 23 0 0-2 2-2 2-19 14-26 28-31 37l-3 9 1 5c2 5 5 11 7 13 1 3 4 7 7 12l4 5h4c3 0 6 0 10 0 12 0 25-3 37-8 2 0 3-2 3-2 5 7 11 13 17 18 0 0 0 1-1 3-10 20-10 37-8 48v5l5 3c3 3 9 6 12 8s8 4 13 6l4 2 5-2c9-5 25-12 38-31 1-2 1-3 3-3 6 3 15 4 23 6 0 0 0 1 0 3 3 23 11 38 17 45l3 5h5c5 0 11 0 14 0s10 0 16 0h5l3-5c6-9 14-23 17-45 0-2 0-3 0-3 8-2 15-3 23-6 0 0 2 1 2 1 14 19 28 27 37 31l5 2 5-2c4-1 11-4 12-6 3-1 8-4 13-8l4-3v-4c2-11 2-29-7-49 0-1-2-3-2-3 6-5 13-11 17-17 0 0 2 0 3 1 13 7 25 8 39 8 4 0 7 0 10 0h4l4-4c3-4 6-10 7-13s5-9 7-12l1-5-1-5c-5-9-13-25-32-37-1-2-3-2-3-3 3-7 5-16 7-24 0 0 1 0 3 0 23-3 37-11 45-17l5-3v-5c0-5 0-11 0-14s0-9 0-14v-5l9-4c-9-7-23-14-45-18-2 0-3 0-3 0-2-7-4-15-7-23 0 0 2-2 2-2 19-14 26-28 31-37l2-5-2-4c-1-5-5-11-6-13-2-3-5-8-8-12l-3-5h-5c-3 0-6 0-9 0-13 0-25 3-38 8-1 0-3 1-3 1-4-6-11-12-17-17 0 0 0-2 2-3 9-20 9-38 7-49v-4l-7-8c-5-3-10-6-13-8s-9-5-12-6l-7-3-4 1c-10 5-25 13-38 32-1 1-1 3-3 3-6-3-16-5-23-7 0 0 0-1 0-3-3-23-11-37-18-45l-3-5h-4c-7-1-13-1-16-1z m-6 25c4 0 8 0 12 0 5 6 8 15 11 29 2 15 8 22 21 24 7 1 14 3 21 6 4 2 5 2 8 2 13 0 19-8 21-13 7-11 17-17 23-20l6 3 5 3c0 8-2 19-6 31s-3 24 4 32c7 4 11 9 16 15s11 8 17 8c6 0 10-1 13-3 11-5 20-6 31-6l3 4 3 7c-3 7-9 15-20 23-5 3-16 13-11 28 3 8 5 14 6 22 3 11 11 19 24 20 14 2 23 7 29 11v13c-6 5-15 8-29 11-14 1-22 8-24 20-1 8-3 14-6 22-5 17 6 25 11 28 11 8 17 17 20 24l-3 6-3 4c-9 0-20-1-31-6-3-1-8-3-13-3-6 0-12 3-17 8-5 6-9 11-16 16-9 7-11 18-4 29 4 13 6 24 6 31l-5 4-6 1c-8-3-16-9-23-20-4-3-10-13-22-13-3 0-5 0-8 2-8 3-14 5-22 6-11 3-19 11-20 24-2 14-7 23-11 29-5 0-8 0-13 0-4-6-8-15-11-29-1-14-8-22-20-24-8-1-14-3-22-6-3-2-5-2-8-2-12 0-18 8-20 13-8 11-17 17-23 20l-7-3-4-3c0-8 0-19 6-31 5-13 3-24-5-32-6-4-11-9-15-15-5-5-11-8-18-8s-9 2-12 3c-11 5-20 6-31 6l-4-4-1-5c3-8 9-16 20-23 5-4 16-13 11-29-3-7-5-14-6-21-3-11-11-19-24-21-14-1-23-6-29-11v-12c6-5 15-8 29-11 15-2 22-8 24-20 1-8 3-15 6-22 3-11 0-21-11-30-11-8-17-17-20-23l3-7 3-4c10 0 20 1 31 6 4 1 8 3 13 3 6 0 12-3 17-8 5-6 9-11 16-15 9-8 11-19 4-30-4-13-6-24-6-31l5-4 6-3c8 3 16 10 24 21 3 3 9 12 20 12 3 0 5 0 8-1 7-2 14-5 22-7 10-3 18-11 20-23s6-22 11-28z m6 158c-41 0-73 32-73 73s32 73 73 73c41 0 73-32 73-73s-32-73-73-73z m0 121c-27 0-48-21-48-48s21-48 48-48c27 0 48 21 48 48s-21 48-48 48z m403-43l-56 56-17-17 86-86 86 86-18 17-56-56c-5 234-194 422-428 422-208 0-381-149-419-347l22-22c28 195 195 345 397 345 220 0 400-178 403-398z m-750-66l17 17-86 86-84-86 17-17 56 56c4-232 193-422 427-422 208 0 381 149 419 347l-22 22c-28-195-195-345-397-345-220 0-400 178-403 397l56-55z" horiz-adv-x="1000" />

<glyph glyph-name="auto-maintenance" unicode="&#xe901;" d="M623 408c2-3 4-6 5-11l27-6c11-2 25-11 25-43s-14-40-27-42l-26-4c-2-4-4-7-5-11l16-24c6-9 10-25-11-47s-39-18-49-11l-22 16c-3-2-6-3-11-5l-6-26c-1-11-11-25-42-25s-41 14-42 26l-5 27c-3 1-6 3-11 5l-23-16c-10-6-25-11-47 11s-19 39-11 48l15 21c-1 3-3 6-4 11l-27 6c-11 1-25 11-25 42s14 41 27 42l26 5c2 3 3 6 5 11l-16 23c-6 10-11 25 11 47s39 19 49 11l22-16c3 2 6 4 11 5l6 27c1 11 11 25 42 25s41-14 42-27l5-26c3-2 6-4 11-5l23 16c10 6 25 10 47-11s19-39 11-49l-16-20z m24-69c0 2 1 5 1 11s0 9-1 11l-34 5c-10 1-13 9-13 12-2 8-5 14-8 20-1 4-6 11 0 19l21 28c0 2-2 5-8 10-5 4-8 6-10 8l-28-21c-6-4-14-3-19 0-6 3-12 6-20 8-3 2-11 3-12 13l-5 34c-2 0-5 1-11 1s-9 0-11-1l-5-34c-1-10-9-13-12-13-8-2-14-5-20-8-5-3-13-4-19 0l-28 21c-2 0-3-2-10-8-4-5-6-8-7-10l20-28c6-8 1-15 0-19-3-6-6-12-8-20-2-3-3-11-12-12l-35-5c0-2-1-5-1-11s0-9 1-11l35-5c9-1 12-9 12-12 2-8 5-14 8-20 1-4 6-11 0-19l-20-28c0-2 1-5 7-10 5-4 8-6 10-7l28 20c6 5 14 3 19 0 6-3 12-6 20-8 3-2 11-3 12-12l5-35c2 0 5-1 11-1s9 0 11 1l5 35c1 9 9 12 12 12 8 2 14 5 20 8 5 3 13 5 19 0l28-20c2 0 3 1 10 7 4 5 6 8 8 10l-21 28c-6 8-1 15 0 19 3 6 6 12 8 20 2 3 3 11 13 12l34 5z m-147 81c39 0 70-31 70-70s-31-70-70-70-70 31-70 70 31 70 70 70z m-39-70c0-22 17-39 39-39s39 17 39 39c0 22-17 39-39 39s-39-17-39-39z m-373-30l100 100 100-100-22-22-61 63v-11c0-164 133-297 297-297 131 0 242 85 281 203l25-25c-50-122-169-209-308-209-181 0-328 147-328 328v9l-61-62-23 23z m825 60l-100-99-100 100 21 22 61-61v8c0 164-132 297-297 297-131 0-242-84-281-203l-25 25c50 122 169 209 308 209 181 0 328-147 328-328v-9l61 61 24-22z" horiz-adv-x="1000" />

<glyph glyph-name="auto-os-maintenance" unicode="&#xe902;" d="M88 320l100 100 100-100-22-22-61 63v-11c0-164 133-297 297-297 131 0 242 85 281 203l25-25c-50-122-169-209-308-209-181 0-328 147-328 328v9l-61-62-23 23z m825 61l-100-100-100 100 21 22 61-62v9c0 164-132 297-297 297-131 0-242-84-281-203l-25 25c50 122 169 209 308 209 181 0 328-147 328-328v-9l61 62 24-22z m-319-172c-5 0-11 0-16 2s-9 3-14 5c-5 1-9 4-12 7-5 4-8 7-11 10s-7 8-10 11c-3 4-4 9-8 12-1 5-3 10-4 14-3 7-3 13-3 18h31c0-4 0-7 1-10 0-3 2-6 4-9s3-6 4-8c2-3 3-5 7-6 1-2 4-5 6-7 3-1 4-3 8-4s6-2 9-3 12-2 19 0c3 0 6 1 9 3s5 3 8 4c3 2 5 4 6 7 2 1 5 4 6 6 2 3 4 5 5 8s2 6 3 9c0 3 2 6 2 10 0 34-16 39-41 45l-14 1-9 4c-25 6-64 15-64 75 0 4 0 10 1 15s3 10 5 14c1 5 5 10 8 13 3 4 6 8 9 11s8 6 11 9c5 3 9 5 13 8 4 1 9 3 14 5 11 1 21 1 31 0 5-2 9-4 14-5s9-5 12-8c5-3 8-6 11-9s7-8 10-11c3-5 4-10 8-14 1-5 3-10 4-14s2-11 2-16h-31c0 3 0 6-2 9 0 3-2 7-3 10s-3 4-5 8c-1 3-3 4-6 6-2 1-5 4-6 6-3 2-5 3-8 5s-6 1-10 3-12 1-18 0c-3 0-7-2-10-3s-6-3-7-5c-4-2-5-3-7-6-1-2-4-5-6-6-2-4-3-5-5-8s-1-7-3-10c0-3-1-6-1-9 0-34 15-39 40-45l11-3 10-4c25-6 64-15 64-75 0-4 0-11-2-15s-3-10-5-14c-1-5-4-10-7-13-4-4-7-8-10-11s-8-6-11-9c-4-3-9-5-14-8-4-1-9-3-14-5 2 0-5 0-9 0z m-188 0c-43 0-78 35-78 79v125c0 43 35 78 78 78s78-35 78-78v-125c0-44-34-79-78-79z m0 250c-26 0-47-20-47-46v-125c0-27 21-47 47-47s47 20 47 47v125c0 26-20 46-47 46z" horiz-adv-x="1000" />

<glyph glyph-name="auto-patching" unicode="&#xe903;" d="M500 631c69-42 152-54 231-50v-245c0-133-115-231-231-269-116 38-231 136-231 269v245c79-4 162 8 231 50z m208-75c-70-1-144 11-208 47-64-36-137-48-208-47v-218c0-115 100-205 208-244 108 37 208 128 208 244v218z m-130-212l-61-61 44-44c17-17 44-17 61 0s17 44 0 61l-44 44z m-156 34l61 61-44 44c-17 17-44 17-61 0s-17-44 0-61l44-44z m-61-61l44 44-44 44c-27 26-27 68 0 95s69 27 95 0l44-44 44 44c26 27 69 27 95 0s27-69 0-95l-44-44 44-44c27-26 27-69 0-95s-69-27-95 0l-44 45-44-44c-26-26-68-26-95 0-27 25-27 68 0 94z m217 61l44 44c17 17 17 44 0 61s-44 17-61 0l-44-44 61-61z m-78-76l61 61-61 59-61-61 61-59z m-122-2c-17-17-17-44 0-61s44-17 61 0l44 44-61 61-44-44z m195 0c0 6 5 13 13 13 6 0 12-5 12-13 0-6-4-12-12-12s-13 6-13 12z m13-36c0 6 5 13 12 13 7 0 13-5 13-13 0-6-5-12-13-12s-12 6-12 12z m-38 13c0 6 5 12 13 12s12-5 12-12c0-7-4-13-12-13s-13 5-13 13z m-134 182c0-6-5-12-12-12s-11 5-11 12 4 13 12 13 11-6 11-13z m38-12c0-6-5-13-13-13s-12 5-12 13 4 12 12 12 13-6 13-12z m-25-25c0-6-5-13-13-13s-12 5-12 13 4 12 12 12 13-4 13-12z m170 25c-6 0-13 5-13 12s5 13 13 13c6 0 12-5 12-13s-4-12-12-12z m-11-36c-6 0-13 5-13 12s5 13 13 13c6 0 12-5 12-13s-6-12-12-12z m-25 23c-6 0-13 5-13 13s5 12 13 12 12-4 12-12-6-13-12-13z m-158-157c6 0 13-5 13-13 0-6-5-12-13-12s-12 6-12 12c0 6 4 13 12 13z m11 36c6 0 13-5 13-13 0-6-5-12-13-12s-12 4-12 12c1 8 6 13 12 13z m25-25c6 0 13-5 13-13 0-6-5-12-13-12s-12 4-12 12c0 8 6 13 12 13z m464 67l-56 56-17-17 86-86 86 86-18 17-56-56c-5 234-194 422-428 422-208 0-381-149-419-347l22-22c28 195 195 345 397 345 220 0 400-178 403-398z m-750-66l17 17-86 86-84-86 17-17 56 56c4-232 193-422 427-422 208 0 381 149 419 347l-22 22c-28-195-195-345-397-345-220 0-400 178-403 397l56-55z" horiz-adv-x="1000" />

<glyph glyph-name="auto-process" unicode="&#xe904;" d="M500 567c-120 0-219-98-219-219s99-218 219-218 219 98 219 218-99 219-219 219z m250-219c0-137-112-250-250-250s-250 113-250 250c0 138 113 250 250 250s250-112 250-250z m-375-7c0 3 0 4 0 7 0 69 56 125 125 125 42 0 78-20 102-51l-11-11c-21 28-53 47-89 47-61 0-110-49-110-110 0-3 0-6 0-9l41 41 11-11-58-58-58 58 11 11 36-39z m125-102c61 0 109 49 109 109 0 4 0 7 0 10l-40-41-11 11 58 58 57-58-10-11-38 39c0-3 0-4 0-8 0-68-56-125-125-125-42 0-78 21-102 52l11 11c21-30 54-47 91-47z" horiz-adv-x="1000" />

<glyph glyph-name="auto-protection" unicode="&#xe905;" d="M417 305l-70-71-9-65 65 9 70 70 18-17-77-76-105-16 16 106 77 77 15-17z m178 65l41 41-19 19-40-41-18 17 41 41-19 19-40-41-19 19 41 40-29 29 18 17 46-47 57 56-10 9 18 18 73-74-19-17-9 9-56-56 46-47-18-15-28 28-41-41-16 17z m75 152l-18-19 18-19 19 19-19 19z m-36-36l-18-19 18-19 19 19-19 19z m-181-217l-73-74-17 18 73 73 17-17z m-72 267l-28-28 44-44 64 64 17-17-28-28 219-219-36-36 76-76-17-18-76 77-36-36-219 219-30-28-17 17 64 64-42 44-28-28-17 17 73 73 17-17z m235-252l-28-28-18 17 28 29-18 18-28-28-18 17 29 29-19 18-28-28-18 17 29 28-19 19-30-26-17 17 28 28-20 19-28-28-18 17 29 28-19 19-56-57 203-200 56 57-20 18z m287 71l-56 56-17-17 86-86 86 86-18 17-56-56c-5 234-194 422-428 422-208 0-381-149-419-347l22-22c28 195 195 345 397 345 220 0 400-178 403-398z m-750-66l17 17-86 86-84-86 17-17 56 56c4-232 193-422 427-422 208 0 381 149 419 347l-22 22c-28-195-195-345-397-345-220 0-400 178-403 397l56-55z" horiz-adv-x="1000" />

<glyph glyph-name="auto-scripts" unicode="&#xe906;" d="M500 753c-202 0-369-148-398-342l-22 22c39 195 212 344 420 344 234 0 423-189 427-422l56 56 17-17-86-86-86 86 17 17 57-56c-2 220-182 398-402 398z m-347-464l17 17-86 86-84-86 17-17 56 56c4-232 193-422 427-422 208 0 381 149 419 347l-22 22c-28-195-195-345-397-345-220 0-400 178-403 397l56-55z m164 219v25c0 20 16 36 36 36s36-16 36-36c0-3 0-6-1-10l-5-15h-66z m97-341v25h269v-25c0-20-17-36-38-36h-242c6 10 11 22 11 36z m-122 366v-49h86l-83-301c-1-5-1-10-1-16 0-34 26-61 61-61h292c34 0 61 27 61 61v49h-86l83 301c1 5 1 10 1 16 0 34-26 61-61 61h-292c-33 0-61-27-61-61z m99-317v-49c0-20-16-36-36-36s-36 16-36 36c0 3 0 6 1 10l94 340c2 5 2 10 2 16 0 14-5 26-13 36h244c20 0 36-16 36-36 0-3 0-6-2-10l-86-307h-204z m39 86h31l-38 48 36 48h-31l-34-48 36-48z m109 96l36-48-36-48h31l36 48-36 48h-31z m-70-121h25l36 146h-25l-36-146z" horiz-adv-x="1000" />

<glyph glyph-name="cl-autoscale" unicode="&#xe907;" d="M105 486c0 136 109 245 245 245 108 0 200-70 233-167 25 13 51 19 81 19 102 0 183-81 183-183 0-19-3-36-8-53 86-19 150-95 150-188 0-106-86-190-191-190h-573c-117 0-214 95-214 214 0 84 50 158 120 192-17 33-26 70-26 111z m245 225c-123 0-225-100-225-225 0-38 9-72 25-103l9-17-18-10c-66-31-110-98-110-175 0-108 88-194 194-194h572c95 0 172 77 172 172 0 83-58 150-135 168l-20 4 6 21c5 15 8 31 8 48 0 91-73 163-162 163-27 0-50-7-72-18l-22-7-8 21c-30 88-114 152-214 152z m128-605l24-20h-100c-24 0-46 16-52 37l-44 149h-87l192 170 183-170h-83v-99h-52l100-84 100 84h-54l50 168c1 4 1 9 1 14 0 25-20 43-43 43h-127l-20 21h147c34 0 64-28 64-64 0-7-2-13-4-19l-43-142h81l-153-130-153 130h86v98h53l-131 124-141-124h50l48-162c5-14 18-24 33-24h75z" horiz-adv-x="1000" />

<glyph glyph-name="cl-backup" unicode="&#xe908;" d="M98 488c0 137 111 250 250 250 110 0 204-71 236-171 25 13 54 19 83 19 103 0 186-83 186-186 0-19-3-37-8-55 88-18 153-97 153-190 0-108-87-194-193-194h-585c-120 0-217 97-217 217 0 86 50 161 122 195-17 36-27 74-27 115z m250 229c-126 0-229-101-229-229 0-38 9-74 25-105l9-17-19-10c-65-31-111-100-111-178 0-109 88-197 197-197h583c97 0 175 78 175 175 0 83-58 153-137 171l-21 4 7 21c4 15 7 31 7 48 0 92-75 166-165 166-27 0-52-7-74-18l-20-9-8 22c-33 91-119 156-219 156z m261-297c61 0 110-48 110-109v-39h-21v39c0 50-40 89-89 89-50 0-89-41-89-89v-50h119l-228-180-230 180h119v50c0 61 48 109 109 109h200z m-198-314l170 135h-81v70c0 37 19 70 47 89h-136c-50 0-89-41-89-89v-70h-81l170-135z" horiz-adv-x="1000" />

<glyph glyph-name="cl-big-data" unicode="&#xe909;" d="M98 488c0 137 111 250 250 250 110 0 204-71 236-171 25 13 54 19 83 19 103 0 186-83 186-186 0-19-3-37-8-55 88-18 153-97 153-190 0-108-87-194-193-194h-585c-120 0-217 97-217 217 0 86 50 161 122 195-17 36-27 74-27 115z m250 229c-126 0-229-101-229-229 0-38 9-74 25-105l9-17-19-10c-65-31-111-100-111-178 0-109 88-197 197-197h583c97 0 175 78 175 175 0 83-58 153-137 171l-21 4 7 21c4 15 7 31 7 48 0 92-75 166-165 166-27 0-52-7-74-18l-20-9-8 22c-33 91-119 156-219 156z m152-437h80v-199h-80v199z m59-19h-39v-159h39v159z m-178 219h80v-397h-80v397z m60-21h-39v-357h39v357z m-180-118h80v-258h-80v258z m61-21h-41v-218h39v218z m297 39h79v-278h-79v278z m59-18h-39v-239h39v239z" horiz-adv-x="1000" />

<glyph glyph-name="cl-block-storage" unicode="&#xe90a;" d="M98 488c0 137 111 250 250 250 110 0 204-71 236-171 25 13 54 19 83 19 103 0 186-83 186-186 0-19-3-37-8-55 88-18 153-97 153-190 0-108-87-194-193-194h-585c-120 0-217 97-217 217 0 86 50 161 122 195-17 36-27 74-27 115z m250 229c-126 0-229-101-229-229 0-38 9-74 25-105l9-17-19-10c-65-31-111-100-111-178 0-109 88-197 197-197h583c97 0 175 78 175 175 0 83-58 153-137 171l-21 4 7 21c4 15 7 31 7 48 0 92-75 166-165 166-27 0-52-7-74-18l-20-9-8 22c-33 91-119 156-219 156z m72-636v-20h-100v20h100z m219 60v298h-298v-298h298z m-139-19v-22c11-5 20-16 20-28 0-17-14-30-29-30-18 0-30 14-30 30 0 12 8 23 20 28v22h-159v337h337v-337h-159z m109 169c0-66-53-119-118-119s-119 53-119 119 53 118 119 118 118-53 118-118z m-118-100c54 0 100 43 100 100 0 54-44 100-100 100s-100-46-100-100c0-55 45-100 100-100z m0 150c28 0 50-22 50-50s-22-50-50-50c-28 0-50 22-50 50 0 26 22 50 50 50z m29-50c0 17-14 29-29 29-18 0-30-14-30-29 0-18 14-30 30-30s29 12 29 30z m139-210v-20h-100v20h100z" horiz-adv-x="1000" />

<glyph glyph-name="cl-cdn" unicode="&#xe90b;" d="M105 486c0 136 109 245 245 245 108 0 200-70 233-167 25 13 51 19 81 19 102 0 183-81 183-183 0-19-3-36-8-53 86-19 150-95 150-188 0-106-86-190-191-190h-573c-117 0-214 95-214 214 0 84 50 158 120 192-17 33-26 70-26 111z m245 225c-123 0-225-100-225-225 0-38 9-72 25-103l9-17-18-10c-66-31-110-98-110-175 0-108 88-194 194-194h572c95 0 172 77 172 172 0 83-58 150-135 168l-20 4 6 21c5 15 8 31 8 48 0 91-73 163-162 163-27 0-50-7-72-18l-22-7-8 21c-30 88-114 152-214 152z m345-448c0 20-14 35-32 39-16 71-72 128-144 143-3 19-19 33-39 33s-36-14-39-33c-72-15-128-72-144-143-19-4-33-19-33-39s14-36 33-40c16-71 72-128 144-143 3-19 18-33 39-33s36 14 39 33c72 15 128 72 144 143 18 4 32 19 32 40z m-73 87c9-16 17-33 20-52-11-4-20-14-23-26h-38c-1 28-4 55-11 78h52z m-16 20h-43c-8 21-18 36-29 49 30-10 54-27 72-49z m-93-261c-5 8-13 13-22 14v32h51c-8-21-19-36-29-46z m-65 0c-10 11-21 27-29 46h51v-32c-7-1-15-7-22-14z m0 305c5-8 13-12 22-14v-31h-51c8 20 19 36 29 45z m65 0c10-11 21-26 29-45h-51v31c7 3 15 8 22 14z m-43-64v-78h-72c2 28 5 55 13 78h59z m0-98v-79h-59c-8 24-13 50-13 79h72z m21-79v79h72c-2-29-5-55-13-79h-59z m0 99v78h59c8-23 13-50 13-78h-72z m-66 147c-11-13-20-30-28-49h-44c20 22 44 39 72 49z m-34-69c-7-23-11-50-11-78h-38c-3 12-12 22-23 26 4 19 11 36 20 52h52z m-52-177c-9 16-17 33-20 52 11 5 20 14 23 27h38c1-29 4-55 11-79h-52z m16-18h43c8-21 18-36 29-49-30 10-54 27-72 49z m181-50c11 12 20 29 28 48h44c-20-20-44-37-72-48z m34 68c7 24 11 50 11 79h38c3-13 12-22 23-27-4-19-11-36-20-52h-52z" horiz-adv-x="1000" />

<glyph glyph-name="cl-control-panel" unicode="&#xe90c;" d="M98 488c0 137 111 250 250 250 110 0 204-71 236-171 25 13 54 19 83 19 103 0 186-83 186-186 0-19-3-37-8-55 88-18 153-97 153-190 0-108-87-194-193-194h-585c-120 0-217 97-217 217 0 86 50 161 122 195-17 36-27 74-27 115z m250 229c-126 0-229-101-229-229 0-38 9-74 25-105l9-17-19-10c-65-31-111-100-111-178 0-109 88-197 197-197h583c97 0 175 78 175 175 0 83-58 153-137 171l-21 4 7 21c4 15 7 31 7 48 0 92-75 166-165 166-27 0-52-7-74-18l-20-9-8 22c-33 91-119 156-219 156z m13-258v-79h59v-80h-59v-219h-20v219h-60v80h60v79h20z m-59-100v-39h100v39h-100z m278 0v-39h100v39h-100z m59 100v-79h59v-80h-59v-219h-20v219h-60v80h60v79h20z m-100-278v39h-100v-39h100z m-59-100v80h-60v80h60v218h20v-218h59v-80h-59v-80h-20z" horiz-adv-x="1000" />

<glyph glyph-name="cl-databases" unicode="&#xe90d;" d="M98 488c0 137 111 250 250 250 110 0 204-71 236-171 25 13 54 19 83 19 103 0 186-83 186-186 0-19-3-37-8-55 88-18 153-97 153-190 0-108-87-194-193-194h-585c-120 0-217 97-217 217 0 86 50 161 122 195-17 36-27 74-27 115z m250 229c-126 0-229-101-229-229 0-38 9-74 25-105l9-17-19-10c-65-31-111-100-111-178 0-109 88-197 197-197h583c97 0 175 78 175 175 0 83-58 153-137 171l-21 4 7 21c4 15 7 31 7 48 0 92-75 166-165 166-27 0-52-7-74-18l-20-9-8 22c-33 91-119 156-219 156z m-46-289c42 27 132 31 179 31 25 0 199-4 199-59v-258c0-54-174-59-199-59s-198 5-198 59v258c-2 13 8 22 19 28z m9-17c-9-6-9-9-9-11 0-11 40-23 48-25 33-9 80-14 131-14 41 0 132 5 169 28 9 6 9 9 9 11 0 11-40 23-48 25-33 9-80 14-131 14-41 0-130-5-169-28z m-9-97c0-11 40-23 48-25 33-9 80-14 131-14 41 0 132 5 169 28 9 6 9 10 9 11v58c-46-28-159-31-178-31-20 0-133 3-178 31v-58z m0-86c0-11 40-23 48-25 33-9 80-14 131-14 41 0 132 5 169 28 9 6 9 10 9 11v58c-46-28-159-31-178-31-20 0-133 3-178 31v-58z m357-30c-46-28-159-31-178-31-20 0-133 3-178 31v-57c0-11 41-24 49-25 32-10 79-14 131-14 40 0 131 4 169 28 9 6 9 9 9 11v57z" horiz-adv-x="1000" />

<glyph glyph-name="cl-dns" unicode="&#xe90e;" d="M839 347c5 17 8 34 8 53 0 102-81 183-183 183-30 0-56-6-81-19-33 97-125 167-233 167-136 0-245-109-245-245 0-41 9-78 26-111-72-34-120-108-120-192 0-117 95-214 214-214h572c106 0 191 86 191 190 1 93-63 169-149 188z m-42-358h-572c-108 0-194 86-194 194 0 76 46 144 110 175l18 9-9 17c-16 32-25 66-25 104 0 125 102 226 227 226 100 0 184-64 214-153l7-22 21 9c22 11 47 18 72 18 90 0 162-74 162-163 0-17-3-33-8-48l-6-21 20-4c77-17 135-86 135-167 0-97-77-174-172-174z m-224 278l69 83h94v20h-103l-72-87-67 81 70 84h94v21h-103l-74-89-75 87h-103v-20h94l70-84-67-82-72 89h-103v-20h94l69-83-69-83h-94v-20h103l72 88 67-82-70-84h-94v-20h103l74 89 73-89h103v20h-93l-71 84 67 82 72-88h103v20h-93l-68 83z m-92-81l-67 81 67 81 67-81-67-81z" horiz-adv-x="1000" />

<glyph glyph-name="cl-email" unicode="&#xe90f;" d="M98 488c0 137 111 250 250 250 110 0 204-71 236-171 25 13 54 19 83 19 103 0 186-83 186-186 0-19-3-37-8-55 88-18 153-97 153-190 0-108-87-194-193-194h-585c-120 0-217 97-217 217 0 86 50 161 122 195-17 36-27 74-27 115z m250 229c-126 0-229-101-229-229 0-38 9-74 25-105l9-17-19-10c-65-31-111-100-111-178 0-109 88-197 197-197h583c97 0 175 78 175 175 0 83-58 153-137 171l-21 4 7 21c4 15 7 31 7 48 0 92-75 166-165 166-27 0-52-7-74-18l-20-9-8 22c-33 91-119 156-219 156z m83-483l-139-112h375l-139 112-48-34-49 34z m-150-96l133 107-133 96v-203z m0 228l199-143 198 143v14h-397v-14z m397-25l-133-96 133-107v203z m20 59v-298h-437v298h437z" horiz-adv-x="1000" />

<glyph glyph-name="cl-email-archive" unicode="&#xe910;" d="M98 488c0 137 111 250 250 250 110 0 204-71 236-171 25 13 54 19 83 19 103 0 186-83 186-186 0-19-3-37-8-55 88-18 153-97 153-190 0-108-87-194-193-194h-585c-120 0-217 97-217 217 0 86 50 161 122 195-17 36-27 74-27 115z m250 229c-126 0-229-101-229-229 0-38 9-74 25-105l9-17-19-10c-65-31-111-100-111-178 0-109 88-197 197-197h583c97 0 175 78 175 175 0 83-58 153-137 171l-21 4 7 21c4 15 7 31 7 48 0 92-75 166-165 166-27 0-52-7-74-18l-20-9-8 22c-33 91-119 156-219 156z m350-337h-278v39h-139v-319h417v280z m-257 20h278v-319h-458v358h178v-39z m198-59v-199h-298v199h298z m-20-153v96l-64-45 64-51z m-258-27h258l-80 66-48-35-49 35-81-66z m0 122v-97l64 52-64 45z m258 37h-258v-12l130-92 129 92v12z" horiz-adv-x="1000" />

<glyph glyph-name="cl-files" unicode="&#xe911;" d="M98 488c0 137 111 250 250 250 110 0 204-71 236-171 25 13 54 19 83 19 103 0 186-83 186-186 0-19-3-37-8-55 88-18 153-97 153-190 0-108-87-194-193-194h-585c-120 0-217 97-217 217 0 86 50 161 122 195-17 36-27 74-27 115z m250 229c-126 0-229-101-229-229 0-38 9-74 25-105l9-17-19-10c-65-31-111-100-111-178 0-109 88-197 197-197h583c97 0 175 78 175 175 0 83-58 153-137 171l-21 4 7 21c4 15 7 31 7 48 0 92-75 166-165 166-27 0-52-7-74-18l-20-9-8 22c-33 91-119 156-219 156z m271-376l-119 117v-119h119z m-139 118h-139v-357h278v218h-139v139z m28 21l131-132v-265h-317v397h186z" horiz-adv-x="1000" />

<glyph glyph-name="cl-hybrid" unicode="&#xe912;" d="M578 456c0 8 6 14 14 14s14-6 14-14c0-8-6-14-14-14-8-1-14 5-14 14z m0-186c0 8 6 14 14 14s14-6 14-14c0-7-6-14-14-14-8-1-14 7-14 14z m313 93c0 56-33 106-82 128 19 50 8 107-32 148s-99 52-149 33c-22 48-72 81-128 81s-106-33-128-81c-50 19-108 8-149-33s-51-98-32-148c-49-22-82-71-82-128s33-107 82-129c-19-50-8-107 32-148s99-52 149-33c22-48 72-81 128-81s106 33 128 81c50-19 108-8 149 33s51 98 32 148c49 24 82 72 82 129z m-400-371c-52 5-94 41-108 88-17-10-38-16-60-16-32 0-64 13-85 36-40 39-46 98-21 145-51 14-87 61-87 118s37 103 87 117c-25 47-19 106 21 145 23 23 53 36 85 36 21 0 41-5 60-16 14 49 56 85 108 88v-214h-168v-127h166v-59h-166v-127h166v-214z m165 508v-87h-312v87h312z m-312-273v87h312v-87h-312z m439 18c25-47 19-106-20-145-24-23-54-36-86-36-21 0-41 5-60 16-14-49-56-85-108-88v214h166v127h-166v59h166v127h-166v215c52-4 94-40 108-87 17 9 38 16 60 16 32 0 64-13 86-36 39-39 45-99 20-146 51-14 87-61 87-117s-36-103-87-119z" horiz-adv-x="1000" />

<glyph glyph-name="cl-images" unicode="&#xe913;" d="M98 488c0 137 111 250 250 250 110 0 204-71 236-171 25 13 54 19 83 19 103 0 186-83 186-186 0-19-3-37-8-55 88-18 153-97 153-190 0-108-87-194-193-194h-585c-120 0-217 97-217 217 0 86 50 161 122 195-17 36-27 74-27 115z m250 229c-126 0-229-101-229-229 0-38 9-74 25-105l9-17-19-10c-65-31-111-100-111-178 0-109 88-197 197-197h583c97 0 175 78 175 175 0 83-58 153-137 171l-21 4 7 21c4 15 7 31 7 48 0 92-75 166-165 166-27 0-52-7-74-18l-20-9-8 22c-33 91-119 156-219 156z m311-278h-357v-358h357v358z m-378 20h397v-396h-397v396z m60-278h278v219h-278v-219z m298-20h-317v259h319v-259z m-139 173c6 5 14 7 22 7 22 0 39-18 39-39 0-8-2-14-6-21 1 0 3 0 6 0 22 0 39-17 39-39s-17-39-39-39h-159c-22 0-39 17-39 39 0 21 15 38 35 39-9 11-15 25-15 41 0 33 26 59 59 59 28-1 52-20 58-47z" horiz-adv-x="1000" />

<glyph glyph-name="cl-load-balancers" unicode="&#xe914;" d="M98 488c0 137 111 250 250 250 110 0 204-71 236-171 25 13 54 19 83 19 103 0 186-83 186-186 0-19-3-37-8-55 88-18 153-97 153-190 0-108-87-194-193-194h-585c-120 0-217 97-217 217 0 86 50 161 122 195-17 36-27 74-27 115z m250 229c-126 0-229-101-229-229 0-38 9-74 25-105l9-17-19-10c-65-31-111-100-111-178 0-109 88-197 197-197h583c97 0 175 78 175 175 0 83-58 153-137 171l-21 4 7 21c4 15 7 31 7 48 0 92-75 166-165 166-27 0-52-7-74-18l-20-9-8 22c-33 91-119 156-219 156z m132-536v-51c17-5 29-21 29-39 0-22-17-39-39-39s-39 17-39 39c0 18 13 34 30 39v51c-34 5-59 35-59 69 0 9 1 17 4 27l-86 50c-9-18-14-36-17-54l-47 102 113 9c-14-11-28-25-38-40l86-50c11 14 27 23 46 26v100c-19-1-38-4-55-12l64 92 64-92c-17 8-36 11-55 12v-101c19-3 35-13 46-27l86 50c-11 16-24 30-38 41l113-10-47-101c-3 19-8 36-18 53l-85-50c3-8 4-17 4-25-3-34-28-64-62-69z m-10 21c28 0 50 21 50 50s-22 50-50 50-50-22-50-50c0-29 22-50 50-50z" horiz-adv-x="1000" />

<glyph glyph-name="cl-monitoring" unicode="&#xe915;" d="M98 527c0 137 111 250 250 250 110 0 204-71 236-171 25 13 54 19 83 19 103 0 186-83 186-186 0-19-3-37-8-55 88-18 153-96 153-190 0-108-87-194-193-194h-585c-120 0-217 97-217 217 0 86 50 161 122 196-17 34-27 71-27 114z m250 228c-126 0-229-103-229-230 0-37 9-73 25-105l9-18-19-10c-65-31-111-100-111-178 0-109 88-197 197-197h583c97 0 175 78 175 175 0 83-58 153-137 171l-21 4 7 21c4 15 7 31 7 48 0 92-75 166-165 166-27 0-52-7-74-18l-20-9-9 25c-32 91-118 155-218 155z m-67-457c0 110 89 199 199 199s198-89 198-199c0-109-89-198-198-198s-199 89-199 198z m377 21h-78l-27-80h-20l-49 147-61-186h-20l-26 80h-77c9-89 86-160 178-160 99 0 178 80 178 178 3 7 3 15 2 21z m-161 98l48-147 22 68h89c-18 79-89 139-175 139-98 0-178-80-178-179h92l22-67 61 186h19z" horiz-adv-x="1000" />

<glyph glyph-name="cl-networks" unicode="&#xe916;" d="M98 488c0 137 111 250 250 250 110 0 204-71 236-171 25 13 54 19 83 19 103 0 186-83 186-186 0-19-3-37-8-55 88-18 153-97 153-190 0-108-87-194-193-194h-585c-120 0-217 97-217 217 0 86 50 161 122 195-17 36-27 74-27 115z m250 229c-126 0-229-101-229-229 0-38 9-74 25-105l9-17-19-10c-65-31-111-100-111-178 0-109 88-197 197-197h583c97 0 175 78 175 175 0 83-58 153-137 171l-21 4 7 21c4 15 7 31 7 48 0 92-75 166-165 166-27 0-52-7-74-18l-20-9-8 22c-33 91-119 156-219 156z m311-595h100v59h-100v-59z m-218 0h100v59h-100v-59z m-100 278h100v59h-100v-59z m-119-278h100v59h-100v-59z m178 258v-80h319v-100h59v-100h-139v100h59v80h-198v-80h59v-100h-139v100h60v80h-199v-80h60v-100h-139v100h59v100h119v80h-60v100h139v-100h-59z" horiz-adv-x="1000" />

<glyph glyph-name="cl-office" unicode="&#xe917;" d="M105 486c0 136 109 245 245 245 108 0 200-70 233-167 25 13 51 19 81 19 102 0 183-81 183-183 0-19-3-36-8-53 86-19 150-95 150-188 0-106-86-190-191-190h-573c-117 0-214 95-214 214 0 84 50 158 120 192-17 33-26 70-26 111z m245 225c-123 0-225-100-225-225 0-38 9-72 25-103l9-17-18-10c-66-31-110-98-110-175 0-108 88-194 194-194h572c95 0 172 77 172 172 0 83-58 150-135 168l-20 4 6 21c5 15 8 31 8 48 0 91-73 163-162 163-27 0-50-7-72-18l-22-7-8 21c-30 88-114 152-214 152z m288-439v117h-99v47l-81 81h-125v-126h-78v-255h78v-63l62 63h85v-48h264v184h-106z m-25-105l-107 86h213l-106-86z m-113 64l73-59-73-56v115z m89-70l24-19 23 19 70-55h-187l70 55z m63 12l73 60v-117l-73 57z m-35 197v-98h-78v98h78z m-165 125l67-67h-67v67z m-99 2h78v-88h88v-137h-166v225z m36-342l-34-35v35h-78v215h59v-117h147v-98h-94z" horiz-adv-x="1000" />

<glyph glyph-name="cl-orchestration" unicode="&#xe918;" d="M98 488c0 137 111 250 250 250 110 0 204-71 236-171 25 13 54 19 83 19 103 0 186-83 186-186 0-19-3-37-8-55 88-18 153-97 153-190 0-108-87-194-193-194h-585c-120 0-217 97-217 217 0 86 50 161 122 195-17 36-27 74-27 115z m250 229c-126 0-229-101-229-229 0-38 9-74 25-105l9-17-19-10c-65-31-111-100-111-178 0-109 88-197 197-197h583c97 0 175 78 175 175 0 83-58 153-137 171l-21 4 7 21c4 15 7 31 7 48 0 92-75 166-165 166-27 0-52-7-74-18l-20-9-8 22c-33 91-119 156-219 156z m-28-453l80 45-45 27c-58 33-77 106-44 162 33 58 106 77 162 44l-9-17c-47 28-108 11-136-36s-11-108 36-136l45-26v92h21v-116l-100-58-10 19z m189 64l46 27c56 33 129 14 162-44 33-56 14-130-44-163l-9 18c47 28 64 87 36 136-28 46-87 64-136 36l-45-27 79-45-9-18-100 58v116h20v-94z m-39-95v-53c0-66-53-119-118-119s-119 53-119 119h20c0-55 44-100 100-100s100 43 100 100v53l-80-45-9 17 100 58 100-58-9-17-85 45z" horiz-adv-x="1000" />

<glyph glyph-name="cl-private-cloud" unicode="&#xe919;" d="M98 488c0 137 111 250 250 250 110 0 204-71 236-171 25 13 54 19 83 19 103 0 186-83 186-186 0-19-3-37-8-55 88-18 153-97 153-190 0-108-87-194-193-194h-585c-120 0-217 97-217 217 0 86 50 161 122 195-17 36-27 74-27 115z m250 229c-126 0-229-101-229-229 0-38 9-74 25-105l9-17-19-10c-65-31-111-100-111-178 0-109 88-197 197-197h583c97 0 175 78 175 175 0 83-58 153-137 171l-21 4 7 21c4 15 7 31 7 48 0 92-75 166-165 166-27 0-52-7-74-18l-20-9-8 22c-33 91-119 156-219 156z m113-437h262l-20 40h-248l-30 60h-128l-55-110 55-109h126l30 59h53l10 21h47l9-21h34l10 21h45l9-21h32l20 39h-261v21z m-175 120h152l29-59h249l34-71-34-70h-57l-9 20h-20l-10-20h-59l-9 20h-21l-9-20h-53l-30-59h-151l-65 129 63 130z m55-180v100h-14l-25-50 25-50h14z m20-18h-45l-35 70 35 70h45v-140z" horiz-adv-x="1000" />

<glyph glyph-name="cl-queues" unicode="&#xe91a;" d="M98 488c0 137 111 250 250 250 110 0 204-71 236-171 25 13 54 19 83 19 103 0 186-83 186-186 0-19-3-37-8-55 88-18 153-97 153-190 0-108-87-194-193-194h-585c-120 0-217 97-217 217 0 86 50 161 122 195-17 36-27 74-27 115z m250 229c-126 0-229-101-229-229 0-38 9-74 25-105l9-17-19-10c-65-31-111-100-111-178 0-109 88-197 197-197h583c97 0 175 78 175 175 0 83-58 153-137 171l-21 4 7 21c4 15 7 31 7 48 0 92-75 166-165 166-27 0-52-7-74-18l-20-9-8 22c-33 91-119 156-219 156z m-67-276l21-11 159-85v-195l39 6v188l-159 84v22l178-95v-197l39 6v191l-160 84v22l182-95v-197l39 6v189l-160 84v22l179-95v-197l39 6v189l-160 85v22l178-96v-198l39 6v-100l-340-51-177 114v103l181-117 38 6v187l-139 74v-170l-16 14v189z m438-272l-321-49-156 102v-56l161-105 316 48v60z" horiz-adv-x="1000" />

<glyph glyph-name="cl-registry" unicode="&#xe91b;" d="M98 488c0 137 111 250 250 250 110 0 204-71 236-171 25 13 54 19 83 19 103 0 186-83 186-186 0-19-3-37-8-55 88-18 153-97 153-190 0-108-87-194-193-194h-585c-120 0-217 97-217 217 0 86 50 161 122 195-17 36-27 74-27 115z m250 229c-126 0-229-101-229-229 0-38 9-74 25-105l9-17-19-10c-65-31-111-100-111-178 0-109 88-197 197-197h583c97 0 175 78 175 175 0 83-58 153-137 171l-21 4 7 21c4 15 7 31 7 48 0 92-75 166-165 166-27 0-52-7-74-18l-20-9-8 22c-33 91-119 156-219 156z m350-317c0 22-17 39-39 39s-39-17-39-39c0-22 18-39 39-39 22-2 39 17 39 39z m-298-180c0-43 36-79 80-79s79 36 79 79c0 44-36 80-79 80s-80-36-80-80z m0 260c0 22-17 39-39 39s-39-17-39-39c0-22 17-39 39-39 22-2 39 17 39 39z m-139-299c0 22-17 39-39 39s-39-17-39-39c0-22 17-39 39-39 22-1 39 17 39 39z m577-20c0 22-18 39-40 39s-39-17-39-39c0-22 18-39 39-39s40 17 40 39z m-99 2l-162 31c-13-41-50-72-96-72-47 0-86 31-97 75l-103-16c0-33-26-59-59-59s-59 26-59 59c0 33 26 60 59 60 26 0 48-18 56-41l103 16v4c0 36 21 69 49 86l-53 116c-5-2-11-2-16-2-33 0-59 27-59 60s26 59 59 59c33 0 59-26 59-59 0-21-11-39-26-49l53-115c11 3 20 4 33 4 23 0 45-7 62-22l67 68c-6 9-11 22-11 34 0 33 27 59 60 59s59-26 59-59c0-33-26-59-59-59-13 0-25 4-35 11l-67-68c14-17 22-39 22-62 0-3 0-6 0-8l163-31c7 23 29 39 56 39 33 0 59-27 59-59s-26-60-59-60c-31-1-58 25-58 60v0z" horiz-adv-x="1000" />

<glyph glyph-name="cl-scale-apps" unicode="&#xe91c;" d="M217-34c-120 0-217 97-217 217 0 86 50 161 123 197-18 34-28 73-28 115 0 139 113 250 250 250 111 0 205-72 238-172 25 13 53 19 83 19 103 0 186-83 186-186 0-18-4-37-8-54 89-19 154-97 154-191 0-108-87-195-195-195h-586z m597 367c11 22 17 47 17 73 0 91-73 164-164 164-36 0-69-11-97-31-20 105-112 184-223 184-127 0-228-101-228-228 0-47 14-90 37-126-78-27-134-99-134-186 0-108 87-196 195-196h588c95 0 173 79 173 174 0 92-73 167-164 172z m-239-75l116-116-71-70-115 116 15 15 102-101 39 39-102 101 16 16z m-175 197l14 14c25 25 67 25 94 0l8-10-72-71 40-41-15-16-41 41-39-38 41-40-16-16-41 41-71-72-8 8c-25 25-25 67 0 93l14 15c-11 10-17 26-17 43 0 36 29 66 65 66 17-2 33-8 44-17z m83 4c-17 10-39 8-53-6l-28-28-16 14c-8 6-19 11-30 11-25 0-43-20-43-44 0-11 4-22 10-29l15-16-29-28c-14-14-17-36-6-53l180 179z m159 16l60-59-307-307-104-45 45 105 306 306z m-28-59l28-28 28 28-28 28-28-28z m-33-33l28-28 18 17-29 28-17-17z m-211-211l28-28 196 195-28 28-196-195z m13-44l-28 28-22-50 50 22z" horiz-adv-x="1000" />

<glyph glyph-name="cl-security" unicode="&#xe91d;" d="M98 488c0 137 111 250 250 250 110 0 204-71 236-171 25 13 54 19 83 19 103 0 186-83 186-186 0-19-3-37-8-55 88-18 153-97 153-190 0-108-87-194-193-194h-585c-120 0-217 97-217 217 0 86 50 161 122 195-17 36-27 74-27 115z m250 229c-126 0-229-101-229-229 0-38 9-74 25-105l9-17-19-10c-65-31-111-100-111-178 0-109 88-197 197-197h583c97 0 175 78 175 175 0 83-58 153-137 171l-21 4 7 21c4 15 7 31 7 48 0 92-75 166-165 166-27 0-52-7-74-18l-20-9-8 22c-33 91-119 156-219 156z m132-237c83 0 178-21 178-21v-203c0-117-91-192-178-214-89 22-178 97-178 214v203c0 0 95 21 178 21z m159-38c-30 6-98 17-159 17s-128-11-160-17v-186c0-103 78-172 160-193 81 21 159 90 159 193v186z m-80-162h-159v-100h159v100z m-118 20h79v59c0 22-17 39-39 39s-39-17-39-39v-59z m-60 0h39v59c0 33 27 60 60 60s59-27 59-60v-59h39v-139h-197v139z" horiz-adv-x="1000" />

<glyph glyph-name="cl-server-lg" unicode="&#xe91e;" d="M934 552c4 11 5 21 5 34 0 67-55 122-122 122-50 0-94-31-112-74-16 14-38 24-61 24-50 0-92-41-92-94-7 2-14 2-21 2-56 0-101-46-101-102h-430v-428h1000v428c0 42-28 77-66 88z m25-475h-918v346h918v-346z m-92 223c-17 0-31 14-31 31s14 32 31 32c17 0 31-15 31-32s-14-31-31-31z m-234 42h162v-20h-162v20z m-61-225h-469v266h469v-266z m-225 21h205v60h-205v-60z m-225 0h205v60h-205v-60z m205 225h-205v-61h205v61z m225 0h-205v-61h205v61z m-205-83v-61h205v61h-205z m-20-61v61h-205v-61h205z" horiz-adv-x="1000" />

<glyph glyph-name="cl-server-md" unicode="&#xe91f;" d="M934 511c4 11 5 22 5 34 0 68-55 122-122 122-50 0-94-31-112-73-16 14-38 23-61 23-50 0-92-40-92-94-7 2-14 2-21 2-56 0-101-45-101-102h-430v-346h1000v346c0 43-28 77-66 88z m25-394h-918v266h918v-266z m-92 142c-17 0-31 14-31 32s14 31 31 31c17 0 31-14 31-31s-14-32-31-32z m-234 41h162v-20h-162v20z m-61 42v-184h-469v184h469z m-225-164h205v61h-205v-61z m-225 0h205v61h-205v-61z m205 142h-205v-61h205v61z m225 0h-205v-61h205v61z" horiz-adv-x="1000" />

<glyph glyph-name="cl-server-sm" unicode="&#xe920;" d="M934 481c4 11 5 22 5 35 0 67-55 122-122 122-50 0-94-32-112-74-16 14-38 24-61 24-50 0-92-41-92-94-7 1-14 1-21 1-56 0-101-45-101-101h-430v-266h1000v266c0 42-28 76-66 87z m25-312h-918v184h918v-184z m-92 61c-17 0-31 14-31 31s14 31 31 31c17 0 31-14 31-31s-14-31-31-31z m-234 40h162v-20h-162v20z m-61 43v-104h-469v102h469z m-225-83h205v61h-205v-61z m-225 0h205v61h-205v-61z" horiz-adv-x="1000" />

<glyph glyph-name="cl-servers" unicode="&#xe921;" d="M98 488c0 137 111 250 250 250 110 0 204-71 236-171 25 13 54 19 83 19 103 0 186-83 186-186 0-19-3-37-8-55 88-18 153-97 153-190 0-108-87-194-193-194h-585c-120 0-217 97-217 217 0 86 50 161 122 195-17 36-27 74-27 115z m250 229c-126 0-229-101-229-229 0-38 9-74 25-105l9-17-19-10c-65-31-111-100-111-178 0-109 88-197 197-197h583c97 0 175 78 175 175 0 83-58 153-137 171l-21 4 7 21c4 15 7 31 7 48 0 92-75 166-165 166-27 0-52-7-74-18l-20-9-8 22c-33 91-119 156-219 156z m-67-297h397v-139h-397v139z m378-20h-357v-100h357v100z m-100-50c0 17 14 30 30 30 17 0 30-14 30-30 0-17-14-30-30-30s-30 13-30 30z m-278-109h397v-139h-397v139z m378-21h-357v-100h357v100z m-100-48c0 17 14 30 30 30 17 0 30-14 30-30 0-17-14-30-30-30-16-1-30 13-30 30z" horiz-adv-x="1000" />

<glyph glyph-name="cl-sites" unicode="&#xe922;" d="M98 488c0 137 111 250 250 250 110 0 204-71 236-171 25 13 54 19 83 19 103 0 186-83 186-186 0-19-3-37-8-55 88-18 153-97 153-190 0-108-87-194-193-194h-585c-120 0-217 97-217 217 0 86 50 161 122 195-17 36-27 74-27 115z m250 229c-126 0-229-101-229-229 0-38 9-74 25-105l9-17-19-10c-65-31-111-100-111-178 0-109 88-197 197-197h583c97 0 175 78 175 175 0 83-58 153-137 171l-21 4 7 21c4 15 7 31 7 48 0 92-75 166-165 166-27 0-52-7-74-18l-20-9-8 22c-33 91-119 156-219 156z m-87-278h458v-358h-458v358z m437-19h-417v-318h417v318z m-337-40l142-127-64-5 41-89-33-14-41 89-45-45v191z" horiz-adv-x="1000" />

<glyph glyph-name="cl-tools" unicode="&#xe923;" d="M98 488c0 137 111 250 250 250 110 0 204-71 236-171 25 13 54 19 83 19 103 0 186-83 186-186 0-19-3-37-8-55 88-18 153-97 153-190 0-108-87-194-193-194h-585c-120 0-217 97-217 217 0 86 50 161 122 195-17 36-27 74-27 115z m250 229c-126 0-229-101-229-229 0-38 9-74 25-105l9-17-19-10c-65-31-111-100-111-178 0-109 88-197 197-197h583c97 0 175 78 175 175 0 83-58 153-137 171l-21 4 7 21c4 15 7 31 7 48 0 92-75 166-165 166-27 0-52-7-74-18l-20-9-8 22c-33 91-119 156-219 156z m102-276c-22 6-47 1-64-16l-55-55c3-12 0-28-11-39s-25-14-39-11l-8-7 46-46 8 8c-4 13 0 28 11 39 15 16 40 16 56 0l200-220c15-17 36-17 50-3 12 12 12 34-3 50l-221 200c-23 23-23 61 0 84 10 8 19 14 30 16z m-69-141c-18 19-47-9-28-28l-31-31-74 73 32 31c18-18 47 10 28 28l64 65c33 32 86 32 120 0l14-15-14-14c-15 16-40 16-56 0s-16-40 0-56l59-55 25 24c-12 33-4 72 22 98 33 33 81 36 117 13l-57-58c-8-8-8-20 0-28s20-8 28 0l58 58c23-36 18-86-13-117-27-27-64-35-98-22l-21-24 97-87c25-22 27-57 5-78s-56-21-78 4l-86 94-86-94c-22-25-56-26-78-4s-21 56 4 78l97 89-50 56z m128-12l33-30 31 34c29-15 65-11 90 13 18 18 25 45 20 68l-39-39c-16-15-41-15-56 0s-16 41 0 57l37 37c-23 5-50-1-69-20-25-25-28-61-12-91l-35-29z m-28-97l-36 39-97-89c-17-16-17-36-3-50 13-13 35-13 50 3l86 97z" horiz-adv-x="1000" />

<glyph glyph-name="cont-design" unicode="&#xe924;" d="M602 325l129-130-78-78-130 130 18 17 112-112 44 43-113 113 18 17z m-193 217l16 16c28 28 75 28 103 0l10-10-80-79 45-46-19-15-45 45-44-44 46-45-18-17-45 45-80-79-9 9c-28 28-28 75 0 103l16 16c-11 12-19 29-19 48 0 41 33 74 73 74 21-2 36-8 50-21z m91 6c-19 11-44 8-59-7l-32-32-17 16c-9 8-20 13-33 13-26 0-48-22-48-49 0-12 5-23 12-33l16-17-31-31c-16-16-19-41-8-60l200 200z m177 19l65-65-339-341-115-50 50 116 339 340z m-32-67l32-31 31 31-31 31-32-31z m-36-36l32-31 18 19-31 31-19-19z m-234-234l31-32 217 218-31 31-217-217z m14-49l-31 32-24-55 55 23z m514 174l-56 56-17-17 86-86 86 86-18 17-56-56c-5 234-194 422-428 422-208 0-381-149-419-347l22-22c28 195 195 345 397 345 220 0 400-178 403-398z m-750-66l17 17-86 86-84-86 17-17 56 56c4-232 193-422 427-422 208 0 381 149 419 347l-22 22c-28-195-195-345-397-345-220 0-400 178-403 397l56-55z" horiz-adv-x="1000" />

<glyph glyph-name="cont-monitoring" unicode="&#xe925;" d="M500 606c142 0 256-114 256-256s-114-256-256-256-256 114-256 256c0 142 114 256 256 256z m0-25c-128 0-231-103-231-231s103-231 231-231c128 0 231 103 231 231s-103 231-231 231z m195-231c0-108-87-195-195-195s-195 87-195 195c0 108 87 195 195 195s195-87 195-195z m-364-25c13-83 83-147 169-147 94 0 170 77 170 170h-101l-64-142-25 196-35-77h-114z m338 50c-13 83-83 147-169 147-94 0-170-77-170-170h101l64 142 25-196 35 77h114z m234-20l-56 56-17-17 86-86 86 86-18 17-56-56c-5 234-194 422-428 422-208 0-381-149-419-347l22-22c28 195 195 345 397 345 220 0 400-178 403-398z m-750-66l17 17-86 86-84-86 17-17 56 56c4-232 193-422 427-422 208 0 381 149 419 347l-22 22c-28-195-195-345-397-345-220 0-400 178-403 397l56-55z" horiz-adv-x="1000" />

<glyph glyph-name="cont-support" unicode="&#xe926;" d="M680 170c22 24 18 53 15 85l-1 11c-22-49-61-89-110-110l11-1c32-3 63-7 85 15z m-222-23c28-6 56-6 83 0l-24 87c-6-1-12-1-19-1s-12 0-18 1l-22-87z m-52 8l11 1c-48 22-89 61-109 110l-2-11c-3-33-8-63 16-85 22-22 51-18 84-15z m-86 375c-22-24-18-53-15-85l1-11c22 49 61 89 110 110l-11 1c-32 3-63 7-85-15z m222 23c-28 6-56 6-83 0l24-87c6 1 12 1 19 1s12 0 18-1l22 87z m52-8l-11-1c48-22 89-61 109-110l2 11c3 33 8 63-16 85-22 22-51 18-84 15z m109-237c3 14 5 28 5 42s-2 28-5 42l-87-23c1-6 1-13 1-19s0-12-1-19l87-23z m-94 0c-12-31-36-55-67-67l19-68c55 19 98 63 117 118l-69 17z m-67 151c31-12 55-36 67-67l68 19c-19 55-63 98-118 117l-17-69z m-134-109c0-52 42-92 92-92s92 42 92 92c0 52-42 92-92 92s-92-40-92-92z m-17-42l-68-19c19-55 63-98 118-117l18 67c-31 14-56 39-68 69z m-94 84c-3-14-5-28-5-42s2-28 5-42l87 23c-1 7-1 13-1 19s0 13 1 19l-87 23z m94 0c12 31 36 55 67 67l-19 68c-55-19-98-63-117-118l69-17z m332-101l-3-13-4 2c0-7 1-14 1-21 5-34 10-73-22-104-20-21-43-25-67-25-12 0-26 1-39 3-8 1-14 1-22 1l2-3-13-3c-18-5-39-8-59-8s-41 3-59 8l-13 3 2 5c-7 0-14-2-21-2-12-1-25-3-37-3-24 0-47 5-67 25-32 32-27 71-22 105 1 8 1 14 1 22l-3-2-3 13c-5 19-8 39-8 59s3 41 8 60l3 12 3-2c0 7-1 15-1 21-5 34-10 73 22 104s70 27 104 22c8-1 14-1 22-1l-1 3 12 3c39 11 81 11 120 0l13-3-2-5c7 0 14 2 21 2 34 4 73 9 104-22s27-70 22-105c-1-8-1-14-1-22l3 2 3-13c5-18 8-39 8-59 1-20 0-41-7-59z m-223 462c-202 0-369-148-398-342l-22 22c39 195 212 344 420 344 234 0 423-189 427-422l56 56 17-17-86-86-86 86 17 17 57-56c-2 220-182 398-402 398z m-403-408c3-220 183-398 403-398 202 0 369 148 398 342l22-22c-39-195-212-344-420-344-234 0-423 190-427 422l-56-56-17 17 86 86 86-86-17-17-58 56z" horiz-adv-x="1000" />

<glyph glyph-name="ded-api-services" unicode="&#xe927;" d="M588 263h29v-30h-29v30z m0 57h29v-29h-29v29z m0 60h29v-30h-29v30z m0-177h29v-30h-29v30z m-105 294h17v87h-177v-29h100l60-58z m-189 59v60h117v59h247l164-164v-366h-117v30h87v292h-104l17-17v-366h-117v30h87v295h-105l18-17v-365h-411v529h117z m147 58h100l59-59h17v87h-176v-28z m206-105l12-12h135l-147 147v-135z m-105-71h135l-147 146v-134l12-12z m-278 0h117v87h-175v-470h353v295h-295v30h117v29h-117v29z m149 89v-147h146l-146 147z m-149-324h236v-30h-236v30z m0 60h236v-30h-236v30z m0 57h236v-29h-236v29z m0-176h236v-30h-236v30z m442 119h30v-30h-30v30z m0 175h30v-30h-30v30z m0-58h30v-30h-30v30z m0-60h30v-29h-30v29z m-706 530h1000v-1000h-1000v1000z m975-975v950h-950v-948h950z" horiz-adv-x="1000" />

<glyph glyph-name="ded-backup" unicode="&#xe928;" d="M0 850h1000v-1000h-1000v1000z m975-975v950h-950v-948h950z m-283 655c78 0 141-63 141-141v-51h-25v51c0 64-52 116-116 116s-115-52-115-116v-64h128l-269-206-269 206h128v64c0 78 63 141 141 141h256z m-140-232v90c0 48 23 90 59 115h-175c-64 0-116-51-116-115v-90h-78l194-146 194 146h-78z" horiz-adv-x="1000" />

<glyph glyph-name="ded-big-data" unicode="&#xe929;" d="M0 850h1000v-1000h-1000v1000z m975-975v950h-950v-948h950z m-219 527h-51v-308h51v308z m-76 25h103v-360h-103v360z m-385-52h-51v-283h51v283z m-78 27h103v-333h-103v333z m231 153h-51v-461h51v461z m-76 26h103v-512h-103v512z m231-283h-51v-204h51v204z m-78 27h103v-256h-103v256z" horiz-adv-x="1000" />

<glyph glyph-name="ded-control-panel" unicode="&#xe92a;" d="M0 850h1000v-1000h-1000v1000z m975-975v950h-950v-948h950z m-642 719v-103h76v-103h-76v-283h-25v284h-77v102h77v103h25z m-77-128v-52h128v52h-128z m360 0v-52h128v52h-128z m76 128v-103h77v-103h-77v-283h-25v284h-76v102h76v103h25z m-128-360v52h-128v-52h128z m-76-128v103h-77v104h77v281h25v-283h76v-102h-76v-103h-25z" horiz-adv-x="1000" />

<glyph glyph-name="ded-data-replication" unicode="&#xe92b;" d="M941 791h-882v-883h883v883z m-941 59h1000v-1000h-1000v1000z m358-614l-63 62v-110c0-41 33-74 74-74h73v-30h-73c-56 0-103 47-103 104v110l-63-62-20 20 98 99 99-99-22-20z m172 173h-353v264h146v-29h207v-235z m-30 29v176h-206v30h-88v-206h294z m323-411h-353v264h147v-30h206v-234z m-29 29v177h-206v30h-88v-207h294z m-152 378l63-62v111c0 40-33 73-74 73h-73v30h73c57 0 103-45 103-103v-111l63 62 20-20-98-98-97 97 20 21z" horiz-adv-x="1000" />

<glyph glyph-name="ded-databases" unicode="&#xe92c;" d="M0 850h1000v-1000h-1000v1000z m975-975v950h-950v-948h950z m-244 370c-59-36-204-40-231-40-25 0-170 3-231 40v-75c0-15 53-31 62-32 42-11 103-19 169-19 53 0 169 6 217 37 11 8 13 13 13 14v75z m-462 36c0-15 53-31 62-33 42-10 103-18 169-18 53 0 169 6 217 37 11 8 13 13 13 14v75c-60-36-205-40-232-40-25 0-170 3-231 40v-75z m0 111c0-15 53-31 62-33 42-11 103-18 169-18 53 0 169 6 217 37 11 8 13 13 13 14v75c-60-36-205-40-232-40-25 0-170 3-231 40v-75z m14 125c-11-8-13-12-13-14 0-15 53-31 63-33 42-11 103-18 169-18 53 0 168 6 217 37 11 8 12 13 12 14 0 16-53 31-62 33-42 11-103 19-169 19-53 0-169-7-217-38z m-14 22c54 34 172 41 231 41 33 0 256-7 256-77v-333c0-70-225-76-256-76s-256 6-256 76v333c0 17 12 28 25 36z" horiz-adv-x="1000" />

<glyph glyph-name="ded-email" unicode="&#xe92d;" d="M428 325l-206-166h556l-205 166-73-52-72 52z m-222-142l197 159-197 141v-300z m0 336l294-210 294 210v22h-588v-22z m588-36l-197-141 197-159v300z m29 87v-440h-646v440h646z m-823 280h1000v-1000h-1000v1000z m975-975v950h-950v-948h950z" horiz-adv-x="1000" />

<glyph glyph-name="ded-hosting" unicode="&#xe92e;" d="M227 441h545v-182h-545v182z m500-22h-454v-136h455v136z m-114-69c0 20 17 38 37 38s38-18 38-38c0-20-18-37-38-37s-37 17-37 37z m-386 319h545v-181h-545v181z m500-24h-454v-136h455v136z m-114-70c0 20 17 38 37 38s38-18 38-38c0-20-18-37-38-37s-37 17-37 37z m114-384h-454v-136h455v136z m-500 23h545v-181h-545v181z m386-89c0 20 17 38 37 38s38-18 38-38c0-20-18-37-38-37-20-2-37 15-37 37z m-613 725h1000v-1000h-1000v1000z m975-975v950h-950v-948h950z" horiz-adv-x="1000" />

<glyph glyph-name="ded-load-balancers" unicode="&#xe92f;" d="M513 230v-67c21-7 39-25 39-50 0-29-24-52-52-52s-52 23-52 52c0 23 16 43 40 50v67c-44 6-77 43-77 89 0 12 2 23 6 33l-111 64c-11-22-18-46-22-69l-61 131 146 13c-19-14-36-33-49-53l111-65c14 18 35 30 58 33v128c-25-1-48-7-70-15l83 119 82-119c-21 9-45 14-70 15v-128c24-3 44-15 58-33l111 65c-14 20-30 39-49 53l146-13-61-131c-3 23-10 47-22 69l-111-64c5-11 6-22 6-33-3-46-36-83-79-89z m-13 23c36 0 64 28 64 64s-28 64-64 64-64-28-64-64 28-64 64-64z m-495 597h1000v-1000h-1000v1000z m975-975v950h-949v-948h949z" horiz-adv-x="1000" />

<glyph glyph-name="ded-log-management" unicode="&#xe930;" d="M0 850h1000v-1000h-1000v1000z m684-392c8 0 16 6 16 15 0 8-6 16-16 16-7 0-15-6-15-16s6-15 15-15z m0-245c8 0 16 6 16 15 0 8-6 16-16 16-7 0-15-6-15-16s6-15 15-15z m-245 153c-8 0-16-7-16-16 0-8 7-16 16-16s16 7 16 16c0 8-8 16-16 16z m-123 122c-8 0-16-7-16-16 0-8 6-16 16-16s15 7 15 16c0 9-6 16-15 16z m0-246c-8 0-16-6-16-15 0-8 6-16 16-16s15 6 15 16c0 9-6 15-15 15z m-291 338v-92h247c6 17 23 31 44 31 25 0 45-21 45-46s-20-45-45-45c-21 0-38 13-44 31h-247v-93h370c7 17 24 31 44 31 25 0 45-20 45-45s-20-46-45-46c-20 0-37 13-44 32h-370v-93h247c6 18 23 32 44 32 25 0 45-21 45-46s-20-45-45-45c-21 0-38 12-44 31h-247v-92h275v-116l331 341-329 345v-115h-277z m950 0h-277v115l-176-186 139-143h314v92h-248c-7-17-24-31-44-31-25 0-45 20-45 45s20 45 45 45c20 0 37-12 44-31h246v94z m-475-49l194 202h36v-122h245v214h-950v-214h245v122h36l194-202z m475-440h-245v-122h-36l-194 200-194-202h-36v122h-245v-214h948v216z m-277-86v115h275v93h-246c-7-18-24-32-44-32-25 0-45 21-45 46s20 45 45 45c20 0 37-13 44-31h246v93h-314l-139-143 178-186z" horiz-adv-x="1000" />

<glyph glyph-name="ded-managed-virualization" unicode="&#xe931;" d="M783 670h-566v-411h564v411z m-591 27h616v-461h-616v461z m333-258h205v-128h-205v128z m180-25h-153v-76h153v76z m-257 180h-153v-77h153v77z m-179 25h204v-128h-204v128z m436-25h-153v-77h153v77z m-180 25h205v-128h-205v128z m-77-205h-153v-76h153v76z m-179 25h204v-128h-204v128z m514-281h-566v-128h564v128z m-591 25h616v-180h-616v180z m461-89c0 22 17 39 39 39s39-17 39-39-17-39-39-39c-22 0-39 17-39 39z m-653 756h1000v-1000h-1000v1000z m975-975v950h-950v-948h950z" horiz-adv-x="1000" />

<glyph glyph-name="ded-monitoring" unicode="&#xe932;" d="M500 94c142 0 256 114 256 256s-114 256-256 256-256-114-256-256c0-142 114-256 256-256z m0 487c109 0 202-76 225-179h-114l-28-86-61 189h-27l-78-241-29 86h-119c0 128 103 231 231 231z m-131-256l33-103h26l78 241 61-190h27l33 104h100c1-8 1-18 1-25 0-129-103-232-231-232-119 0-217 89-230 205h102z m-369 525v-1000h1000v1000h-1000z m975-975h-950v950h948v-950z" horiz-adv-x="1000" />

<glyph glyph-name="ded-security" unicode="&#xe933;" d="M975-125v950h-950v-948h950z m-975 975h1000v-1000h-1000v1000z m705-278c-39 8-127 22-205 22s-166-14-205-22v-241c0-134 100-220 205-250 105 30 205 116 205 250v241z m-205 47c108 0 231-25 231-25v-263c0-151-115-247-231-276-114 29-231 125-231 276v263c0 0 123 25 231 25z m-128-230h51v77c0 42 35 76 77 76s77-34 77-76v-77h51v-180h-256v180z m76 0h104v77c0 28-24 51-52 51s-52-23-52-51v-77z m155-26h-206v-129h205v129z" horiz-adv-x="1000" />

<glyph glyph-name="ded-server-lg" unicode="&#xe934;" d="M0 564h1000v-428h-1000v428z m959-387v346h-918v-346h918z m-612 61h205v60h-205v-60z m-225 0h205v60h-205v-60z m205 225h-205v-61h205v61z m225 0h-205v-61h205v61z m-205-82v-62h205v62h-205z m-20-62v62h-205v-62h205z m245-102h-469v266h469v-266z m295 185c-17 0-31 14-31 31s14 31 31 31c17 0 31-14 31-31s-14-31-31-31z m-234 40h162v-20h-162v20z" horiz-adv-x="1000" />

<glyph glyph-name="ded-server-md" unicode="&#xe935;" d="M0 523h1000v-346h-1000v346z m959-306v266h-918v-266h918z m-612 61h205v61h-205v-61z m-225 0h205v61h-205v-61z m205 144h-205v-61h205v61z m225 0h-205v-61h205v61z m20 20v-184h-469v184h469z m295-81c-17 0-31 14-31 31s14 31 31 31c17 0 31-14 31-31s-14-31-31-31z m-234 41h162v-21h-162v21z" horiz-adv-x="1000" />

<glyph glyph-name="ded-server-sm" unicode="&#xe936;" d="M0 483h1000v-266h-1000v266z m959-225v184h-918v-184h918z m-612 61h205v62h-205v-62z m-225 0h205v62h-205v-62z m450 83v-102h-469v102h469z m295-83c-17 0-31 14-31 31s14 31 31 31c17 0 31-14 31-31s-14-31-31-31z m-234 42h162v-20h-162v20z" horiz-adv-x="1000" />

<glyph glyph-name="ded-server-xl" unicode="&#xe937;" d="M2 609h995v-518h-995v518z m956-476v436h-916v-436h916z m-611 151h203v61h-203v-61z m-224 0h204v61h-204v-61z m204 224h-204v-61h204v61z m225 0h-204v-61h204v61z m-205-81v-61h203v61h-203z m-20-61v61h-204v-61h204z m245-182h-469v344h467v-344z m294 263c-18 0-32 14-32 31s14 31 32 31c17 0 31-14 31-31s-14-31-31-31z m-233 41h162v-21h-162v21z m-286-285h203v61h-203v-61z m-224 0h204v61h-204v-61z" horiz-adv-x="1000" />

<glyph glyph-name="ded-storage" unicode="&#xe938;" d="M0 850v-1000h1000v1000h-1000z m975-975h-950v950h948v-950z m-475 244c131 0 256 44 256 115 0 14-4 27-14 39 10 13 14 25 14 40s-4 26-14 39c10 12 14 25 14 39s-4 26-14 39c10 12 14 25 14 39 0 70-125 115-256 115s-256-43-256-115c0-14 4-27 14-39-8-11-14-25-14-39s4-27 14-39c-8-11-14-25-14-39s4-27 14-40c-8-10-14-25-14-39 0-70 125-115 256-115z m0 436c139 0 231-47 231-89s-92-89-231-89-231 46-231 89c0 42 92 89 231 89z m-225-147c45-36 134-58 225-58s180 22 225 58c5-6 6-14 6-20 0-43-92-90-231-90s-231 47-231 90c0 7 3 14 6 20z m0-77c45-37 134-58 225-58s180 22 225 58c5-6 6-14 6-20 0-42-92-89-231-89s-231 47-231 89c0 6 3 14 6 20z m0-76c45-38 134-58 225-58s180 22 225 58c5-7 6-14 6-21 0-42-92-89-231-89s-231 47-231 89c0 7 3 13 6 21z m225 168c22 0 78 8 78 40 0 15-14 26-26 31-14 6-32 9-52 9-22 0-78-8-78-39 0-33 56-41 78-41z m0 55c17 0 31-3 41-6 3-2 9-5 11-8-11-11-38-14-52-14-8 0-47 3-52 14 11 11 38 14 52 14z" horiz-adv-x="1000" />

<glyph glyph-name="ded-support" unicode="&#xe939;" d="M811 259l-2-6-6 2c0-10 2-21 3-33 7-50 13-103-29-145-24-24-54-35-93-35-17 0-36 2-53 5-11 1-22 3-34 3l1-6-6-2c-29-9-59-12-90-12s-61 4-91 12l-6 2 1 6c-11 0-20-2-33-3-17-2-35-5-53-5-39 0-68 11-92 35-42 42-36 95-30 145 2 11 4 22 4 33l-7-2-1 6c-10 30-13 60-13 91s5 61 13 91l1 6 7-2c0 10-2 21-4 33-6 50-12 103 30 145 24 24 53 35 92 35 18 0 36-2 55-5 11-1 22-3 33-3l-2 6 7 2c59 17 123 17 181 0l6-2-2-6c11 0 21 2 33 3 17 2 36 5 53 5 39 0 69-11 93-35 42-42 36-95 29-145-1-11-3-22-3-33l6 2 2-6c8-30 12-60 12-91s-4-61-12-91z m-178 91c0 73-60 133-133 133s-133-60-133-133c0-73 60-133 133-133s133 60 133 133z m-285 56c16 44 52 80 96 96l-27 100c-79-27-142-89-169-169l100-27z m404 27c-27 80-89 142-169 169l-27-100c44-16 80-52 96-96l100 27z m-411-55l-128 35c-5-21-7-41-7-63 0-20 2-42 7-62l128 34c-2 9-3 19-3 28s1 19 3 28z m-93-111c27-79 90-142 169-169l27 100c-44 16-80 52-96 96l-100-27z m404 27c-16-44-52-80-96-96l27-100c80 27 142 90 169 169l-100 27z m7 28l129-34c4 20 6 40 6 62 0 20-2 42-6 63l-129-35c2-9 2-19 2-28 2-9 0-19-2-28z m118 161c6 48 11 89-22 122-19 17-41 26-72 26-16 0-33-1-50-4l-25-4c75-29 136-89 165-165l4 25z m-249 26l35 129c-41 9-83 9-124 0l34-129c10 2 19 4 29 4s17-2 26-4z m-161 118c-17 1-34 4-50 4-31 0-53-8-70-26-33-33-28-74-22-122l3-25c30 75 89 136 166 165-10 2-19 2-27 4z m-144-410c-6-48-10-89 22-122 19-17 41-26 72-26 16 0 33 1 50 4l25 4c-75 29-136 89-165 165-2-9-2-17-4-25z m249-26l-34-128c40-10 82-10 123 0l-34 128c-18-3-36-3-55 0z m301 51c-29-75-89-136-165-165 8 0 15-2 25-4 17-1 34-4 50-4 31 0 53 8 70 26 33 33 28 74 22 122l-2 25z m-773 608h1000v-1000h-1000v1000z m975-975v950h-950v-948h950z" horiz-adv-x="1000" />

<glyph glyph-name="gen-antivirus" unicode="&#xe93a;" d="M633 577l94-94-22-22-36 36-61-61 75-75-22-22-36 36-187-187-40 39-103-104-22 22 104 103-39 40 187 187-36 36 22 22 75-75 61 61-36 36 22 22z m-124-274l-56 56-25-25 36-36-22-21-36 36-25-25 57-57 71 72z m-34 78l56-56 72 72-56 56-25-25 36-36-22-22-36 36-25-25z" horiz-adv-x="1000" />

<glyph glyph-name="gen-assistance" unicode="&#xe93b;" d="M342 397c-33 0-61-20-79-47l-21 16c24 32 60 57 102 57s76-25 101-57l-20-16c-20 27-48 47-83 47z m311 26c-42 0-76-25-101-57l20-16c19 27 47 47 80 47s61-20 79-47l21 16c-21 32-57 57-99 57z m-67-256c-20-11-50-19-81-19-60 0-122 24-122 68h-27c0-61 75-94 149-94 36 0 70 8 93 22 30 17 47 42 47 72h-26c0-21-11-36-33-49z m312 131l-53-282c0-5-3-8-7-10l-196-95c5-6 6-14 6-22 0-22-17-39-39-39s-39 17-39 39 18 39 39 39c2 0 5 0 7 0l204 100 39 203c-57-140-196-240-359-240-186 0-341 131-378 304-44 2-80 36-80 82 0 31 19 59 46 71 3 60 23 194 117 291 72 74 172 111 295 111s223-37 295-111c96-98 114-231 118-292 26-14 43-41 43-72 2-36-23-67-58-77z m-784 158c2 0 5 0 6 0 36 177 194 310 380 310 188 0 344-133 380-310 1 0 4 0 6 0-5 61-27 180-109 266-66 67-160 101-277 101s-211-34-277-103c-82-86-103-204-109-264z m727-78c0 55-14 108-38 153-94-70-256-43-256-43-94 17-145 50-174 82-3-59-32-120-140-120 0 0-38-2-58 22-9-30-14-61-14-94 0-187 152-339 339-339s341 152 341 339z" horiz-adv-x="1000" />

<glyph glyph-name="gen-bolt-fill" unicode="&#xe93c;" d="M550 459h94l-138-157h94l-287-218 101 157h-75l97 157h-70l139 218h183z" horiz-adv-x="1000" />

<glyph glyph-name="gen-bolt-gear" unicode="&#xe93d;" d="M500 22c-5 0-12 0-19 1l-6 2-5 6c-7 11-18 30-22 58 0 2 0 5-1 5-9 1-20 4-30 8 0 0-1-2-1-4-18-23-36-34-49-39l-8-4-6 3c-6 3-12 6-17 9-3 2-11 6-16 11l-6 5v6c-1 14-1 34 9 61 0 2 2 3 2 5-8 6-16 14-22 22 0 0-1 0-3-2-17-8-33-11-50-11-5 0-9 0-12 0h-7l-4 6c-4 5-8 11-11 16-2 3-7 11-10 17l-1 6 3 7c6 12 15 31 39 48 1 2 3 3 3 3-3 10-6 21-8 30 0 0-1 0-3 0-30 3-47 14-59 22l-7 4-1 7c0 8 0 15 0 20s0 13 1 19l2 6 6 5c11 8 30 18 58 22 2 0 3 0 5 1 1 10 4 20 8 30 0 0-2 1-4 3-23 17-34 36-39 48l-4 7 3 6c3 6 6 12 9 17 2 3 6 11 11 16l5 6h6c5 0 8 0 13 0 17 0 32-3 48-11 2 0 3-2 5-2 6 8 14 16 22 22 0 0 0 2-2 3-11 27-11 49-9 63v6l6 5c5 3 11 8 16 11 3 1 10 6 17 9l6 3 6-3c13-6 31-15 49-39 1-1 3-3 3-3 9 3 20 6 29 9 0 0 0 2 0 4 4 29 15 46 22 59l5 6 6 2c7-2 14-2 19-2s13 0 19-1l6-2 5-6c8-11 18-30 22-58 0-2 0-3 1-5 10-1 20-4 30-8 0 0 1 2 1 4 18 23 36 34 49 39l6 3 6-3c7-3 13-7 18-10 3-1 10-6 15-11l6-4v-7c2-14 2-34-9-61 0-1-2-3-2-4 8-6 16-14 22-22 0 0 2 0 3 1 18 8 33 11 50 11 5 0 10 0 13 0h6l5-6c3-5 8-11 11-15s6-11 9-18l3-6-3-6c-6-13-15-31-39-49-1-1-3-3-3-3 3-9 6-20 8-29 0 0 1 0 3 0 30-4 47-14 59-22l7-5 1-6c0-6 0-14 0-19s0-12-1-19l-2-6-6-5c-11-7-30-18-58-22-2 0-5 0-5-1-1-9-4-20-8-30 0 0 2-1 4-1 23-18 34-36 39-49l3-6-3-6c-3-7-7-13-10-17-1-4-6-11-11-16l-4-6h-7c-4 0-7 0-12 0-17 0-33 3-49 11-1 0-3 1-4 1-6-8-14-15-22-22 0 0 0-1 1-3 11-26 11-48 10-62v-7l-6-4c-5-5-13-8-16-11-5-3-11-6-17-10l-3-4-7 3c-12 6-31 15-48 39-2 1-3 3-3 3-10-3-20-6-30-9 0 0 0-2 0-3-3-30-14-47-22-60l-4-6-7-2c-7 2-15 2-20 2z m-8 31c6 0 11 0 16 0 5 10 11 20 12 38s11 28 25 31c10 1 19 5 28 8 5 1 8 1 11 1 16 0 24-11 27-15 11-14 22-22 31-27l8 5 6 4c0 11-1 24-8 40s-4 29 7 39c8 6 14 12 20 20 6 6 14 11 23 11 7 0 13-3 16-3 14-7 27-8 41-8l4 6 5 8c-5 9-12 20-26 30-5 4-21 15-15 36 4 9 7 18 8 28 3 14 14 23 30 25 17 1 30 8 39 12v16c-9 5-20 11-37 12s-29 11-32 25c-1 10-4 19-8 28-6 22 10 33 15 36 14 11 21 22 26 32l-5 7-4 7c-13 0-27-2-39-8-3-2-10-5-18-5-9 0-17 3-23 11s-12 14-20 20c-11 11-14 24-7 40 7 15 8 29 8 40l-6 5-9 3c-10-5-21-13-30-27-3-4-13-15-27-15-3 0-6 0-9 1-9 3-19 7-28 8-14 3-24 14-25 30-2 17-8 30-13 39-6 0-11 0-15 0-5-9-11-20-13-38s-11-28-25-31c-9-1-18-5-28-8-6-1-9-1-12-1-16 0-24 11-27 15-11 14-22 22-31 27l-8-5-6-4c0-11 1-24 8-39s4-30-7-40c-7-6-14-12-20-20-6-6-14-11-23-11-8 0-13 3-16 3-14 7-27 8-41 8l-4-6-2-6c5-10 13-21 27-30 4-5 20-16 14-36-3-9-7-19-8-28-3-14-14-24-30-25-17-2-29-8-39-13v-15c10-5 20-11 38-13s28-11 31-25c1-9 5-18 8-26 4-14 0-27-14-38s-22-22-27-31l5-8 4-6c13 0 27 1 40 8 3 1 9 4 17 4 9 0 17-3 23-11s13-14 20-20c11-11 15-23 7-39-7-16-8-30-8-41l6-4 8-5c9 5 20 13 30 27 3 4 12 15 26 15 3 0 6 0 11-1 10-3 19-5 27-8 14-3 23-14 25-30 1-17 6-29 12-39z m8 438c-78 0-141-63-141-141 0-28 8-55 22-77l-22-21c-18 28-31 61-31 98 0 95 77 172 172 172 33 0 64-9 91-25l-32-19c-18 8-39 13-59 13z m-59-269c17-8 37-13 59-13 78 0 141 63 141 141 0 28-8 55-22 77l23 21c19-28 31-60 31-98 0-95-76-172-171-172-33 0-64 10-91 25l30 19z m200 269l-97-93 42-4-88-71 43-4-182-110 97 93-42 4 88 71-43 4 182 110z" horiz-adv-x="1000" />

<glyph glyph-name="gen-bolt-outline" unicode="&#xe93e;" d="M623 469h-93l137 156h-139l-119-186h71l-97-156h75l-69-106 180 136h-81l135 156z m69 31l-137-156h106l-397-300 134 208h-75l97 156h-70l159 248h227l-138-156h94z" horiz-adv-x="1000" />

<glyph glyph-name="gen-building-lg" unicode="&#xe93f;" d="M522 664v30h-164v-30h164z m403-658v344h-164v-344h164z m-686 478h-164v-478h164v478z m-194 30h194v150h89v59h224v-59h209v-283h194v-375h45v-29h-1000v29h45v508z m493-508v135h-60v-135h60z m-75 150h89v-150h179v627h-462v-627h194v150z m-344 267h75v-89h-75v89z m61-15h-46v-60h46v60z m0-269h-46v-59h46v59z m-61 16h75v-89h-75v89z m61 118h-46v-59h46v59z m-61 16h75v-89h-75v89z m747-150h-46v-59h46v59z m-60 16h75v-89h-75v89z m60 118h-46v-59h46v59z m-60 16h75v-89h-75v89z m-403 119h-59v-60h59v60z m-75 15h89v-89h-89v89z m210-15h-60v-60h60v60z m-75 15h89v-89h-89v89z m209-15h-59v-60h59v60z m-75 15h89v-89h-89v89z m-194-150h-59v-59h59v59z m-75 16h89v-89h-89v89z m210-16h-60v-59h60v59z m-75 16h89v-89h-89v89z m209-16h-59v-59h59v59z m-75 16h89v-89h-89v89z m-194-150h-59v-59h59v59z m-75 16h89v-89h-89v89z m344-16h-59v-59h59v59z m-75 16h89v-89h-89v89z m-194 387h-59v-59h59v59z m-75 16h89v-89h-89v89z m210-16h-60v-59h60v59z m-75 16h89v-89h-89v89z m209-16h-59v-59h59v59z m-75 16h89v-89h-89v89z" horiz-adv-x="1000" />

<glyph glyph-name="gen-building-md" unicode="&#xe940;" d="M731 73v135h-59v-135h59z m-75 150h89v-150h180v494h-850v-492h581v148z m194 374v30h-298v-30h298z m31 59v-59h75v-522h44v-30h-1000v30h45v522h478v59h358z m-90-165h89v-89h-89v89z m75-16h-60v-59h60v59z m-672-134h-60v-60h60v60z m-75 15h89v-89h-89v89z m75-150h-60v-59h60v59z m-75 16h89v-91h-89v91z m209 119h-59v-60h59v60z m-75 15h91v-89h-89v89z m75-150h-59v-59h59v59z m-75 16h91v-91h-89v91z m210 119h-60v-60h60v60z m-75 15h89v-89h-89v89z m75-150h-60v-59h60v59z m-75 16h89v-91h-89v91z m209 119h-59v-60h59v60z m-75 15h89v-89h-89v89z m75-150h-59v-59h59v59z m-75 16h89v-91h-89v91z m209 119h-59v-60h59v60z m-75 15h89v-89h-89v89z m210-15h-60v-60h60v60z m-75 15h89v-89h-89v89z m75-150h-60v-59h60v59z m-75 16h89v-91h-89v91z m-597 253h-60v-59h60v59z m-75 16h89v-89h-89v89z m209-16h-59v-59h59v59z m-75 16h91v-89h-89v89z m210-16h-60v-59h60v59z m-75 16h89v-89h-89v89z m209-16h-59v-59h59v59z m-75 16h89v-89h-89v89z m209-16h-59v-59h59v59z m-75 16h89v-89h-89v89z" horiz-adv-x="1000" />

<glyph glyph-name="gen-building-sm" unicode="&#xe941;" d="M531 61v141h-62v-141h62z m-78 156h94v-156h203v516h-500v-516h203v156z m203 391v31h-172v-31h172z m32 62v-62h93v-547h47v-31h-656v31h47v547h234v62h235z m-94-454h94v-94h-94v94z m78-16h-63v-62h63v62z m-281 281h-63v-62h63v62z m-78 16h93v-94h-93v94z m218-16h-62v-62h62v62z m-78 16h94v-94h-94v94z m219-16h-63v-62h63v62z m-78 16h94v-94h-94v94z m-203-156h-63v-63h63v63z m-78 15h93v-93h-93v93z m218-15h-62v-63h62v63z m-78 15h94v-93h-94v93z m219-15h-63v-63h63v63z m-78 15h94v-93h-94v93z m-203-156h-63v-62h63v62z m-78 16h93v-94h-93v94z" horiz-adv-x="1000" />

<glyph glyph-name="gen-bummed" unicode="&#xe942;" d="M909 445c55 85 11 175-51 203-6 80-100 129-172 107-22 79-136 122-203 73-70 44-158 20-192-45-80 12-155-50-147-133-63-28-106-119-52-203-15-39-12-72 2-100-14-24-16-59-3-102 20-67 47-101 84-107l6-60c8-103 185-228 319-228s311 125 320 225l7 59c37 8 64 43 84 108 12 44 11 80-3 102 12 31 17 62 1 101z m-784-190c-6 22-8 39-6 51 14-18 29-36 44-54l7-77c-14 8-29 28-45 80z m375-368c-114 0-277 110-284 193l-14 143 11 141c-21 59-10 119 29 156 0 0 47-45 131-45v59c0 0 47-43 130-43v59c0 0 47-44 130-44v60c126 7 192-96 155-199l10-140-14-144c-7-86-170-196-284-196z m375 368c-16-52-31-71-45-78l8 76c14 19 29 36 43 53 2-14 0-31-6-51z m-375-128c-14 0-28 3-41 9-4 2-6 8-4 12s8 7 12 5c19-9 44-9 63 0 4 2 9 0 12-5 2-4 0-9-4-12-10-6-24-9-38-9z m-22 54c-5 0-9 5-9 10v76c0 5 4 10 9 10s10-5 10-10v-76c0-5-5-10-10-10z m122 72c0 19 16 33 33 33 19 0 33-14 33-33s-16-33-33-33c-17-1-33 14-33 33z m-266 0c0 19 16 33 33 33 19 0 33-14 33-33s-16-33-33-33c-19-1-33 14-33 33z m136-295c-3 0-7 3-9 6-2 5 2 9 6 11 22 8 44 8 64 0 5-2 8-6 7-11s-7-8-11-6c-18 6-36 6-54 0-1 0-1 0-3 0z m-70 69c-3 0-6 1-8 6s0 9 5 12c33 14 67 21 105 21 36 0 70-8 104-21 5-1 7-7 5-12s-8-6-13-5c-31 13-62 20-96 20-33 0-66-6-97-20-3-1-3-1-5-1z m-123 273l-18 8c22 48 63 45 100 44 25-2 49-4 66 11l11-15c-22-17-52-17-78-15-35 1-66 3-81-33z m446 0c-15 36-46 34-81 33-28-2-56-3-78 15l11 15c17-15 41-13 66-11 36 1 78 3 100-44l-18-8z" horiz-adv-x="1000" />

<glyph glyph-name="gen-calculator" unicode="&#xe943;" d="M120 850h760v-1000h-760v1000z m69-931h620v862h-620v-862z m483 276h69v-206h-69v206z m-413 518h483v-172h-483v172z m0-243h69v-68h-69v68z m138 0h69v-68h-69v68z m137 0h69v-68h-69v68z m138 0h69v-68h-69v68z m-413-137h69v-69h-69v69z m138 0h69v-69h-69v69z m137 0h69v-69h-69v69z m138 0h69v-69h-69v69z m-413-138h69v-68h-69v68z m138 0h69v-68h-69v68z m137 0h69v-68h-69v68z m-275-139h207v-69h-207v69z m275 0h69v-69h-69v69z" horiz-adv-x="1000" />

<glyph glyph-name="gen-chart" unicode="&#xe944;" d="M713-133h-136v35h136v-35z m-205 0h-136v35h136v-35z m-203 0h-136v35h136v-35z m695 67h-948v102h-52v34h52v52h-52v34h52v52h-52v34h52v52h-52v34h52v52h-52v34h52v52h-52v34h52v52h-52v34h52v52h-52v34h52v42h-52v34h52v50h-52v35h84v-864h916v-35z m-84-67h-136v35h136v-35z m-35 610h-67v-407h67v407z m-101 34h136v-475h-136v475z m-508-67h-69v-374h67v374z m-103 33h136v-441h-136v441z m306 204h-69v-611h67v611z m-102 33h136v-678h-136v678z m305-372h-67v-272h67v272z m-101 33h136v-339h-136v339z" horiz-adv-x="1000" />

<glyph glyph-name="gen-clock" unicode="&#xe945;" d="M500-150c-277 0-500 223-500 500s223 500 500 500 500-223 500-500c0-277-223-500-500-500z m0 39c255 0 461 206 461 461s-206 461-461 461c-255 0-461-206-461-461s206-461 461-461z m384 461c0-212-171-384-384-384s-384 172-384 384 172 384 384 384c213 0 384-171 384-384z m-37 0c0 191-155 347-347 347s-347-156-347-347c0-191 155-347 347-347s347 156 347 347z m-78-19h-196c-7-33-39-58-75-58-42 0-76 35-76 77 0 36 25 66 58 75v117c0 11 9 19 18 19 11 0 19-9 19-19v-117c27-6 49-28 55-55h195c11 0 19-9 19-18 3-13-6-21-17-21z m-230 19c0 22-17 39-39 39s-39-17-39-39c0-22 17-39 39-39 20 0 39 17 39 39z m-58 269c0 11 10 19 19 19 11 0 19-10 19-19 0-11-10-19-19-19-11 0-19 9-19 19z m38-538c0-11-8-18-19-18s-19 9-19 18c0 11 10 19 19 19 11 0 19-9 19-19z m-288 250c-11 0-18 8-18 19s9 19 18 19 19-8 19-19c0-11-9-19-19-19z m117 242c-4 10-1 21 8 27 10 5 21 2 27-6 5-10 1-21-6-27-11-6-22-3-29 6z m304-446c4-10 1-21-7-27-9-5-20-2-26 6-5 10-2 21 8 27 7 6 18 3 25-6z m71 375c10 4 21 1 27-7 5-9 2-20-8-26-9-5-20-2-26 8-5 7-2 18 7 25z m-446-304c-10-4-21-1-27 8-5 10-2 21 6 27 10 5 21 1 27-6 6-11 3-22-6-29z m-19 271c-10 4-13 17-8 26s17 13 27 8c9-5 12-17 6-26-5-11-16-14-25-8z m484-236c10-5 13-17 6-27-4-9-17-12-26-8s-13 18-8 27c8 9 19 13 28 8z m-125 359c5 10 17 13 27 6 9-4 12-17 8-26s-18-13-27-8c-9 8-12 20-8 28z m-236-484c-4-10-17-13-26-6-10 4-13 17-7 26 5 10 18 13 27 8 9-8 13-19 6-28z" horiz-adv-x="1000" />

<glyph glyph-name="gen-cloud" unicode="&#xe946;" d="M609-75v16c49 0 89 20 114 57 2 2 4 4 7 4s4-2 6-4c20-23 55-37 89-37 36 1 70 17 95 44 28 28 44 62 44 95s-14 67-37 89c-2 2-4 3-4 6s2 5 4 7c37 26 57 65 57 114h16c0-50-20-93-56-122 23-25 36-60 36-94 0-39-17-77-47-108-30-30-67-45-106-47v0c-36 0-71 14-96 36-28-36-72-56-122-56z m391 459h-16c0 49-20 89-57 114-2 2-4 4-4 7s2 4 4 6c23 20 37 55 37 89-1 36-17 70-44 95-28 28-62 44-95 44s-67-14-89-37c-2-2-3-4-6-4s-5 2-7 4c-26 37-65 57-114 57v16c50 0 93-20 122-56 25 23 60 36 94 36 39 0 77-17 108-47 30-30 45-67 47-106 0-36-14-71-36-96 36-28 56-72 56-122z m-984 0h-16c0 50 20 93 56 122-23 25-36 60-36 94 0 39 18 77 47 108 30 30 67 45 106 47 0 0 0 0 0 0 36 0 71-14 96-36 28 36 70 56 122 56v-16c-49 0-89-20-114-57-2-2-4-4-7-4s-4 2-6 4c-20 23-55 37-89 37-36-1-70-17-95-44-28-28-44-62-44-95s14-67 37-89c2-2 4-3 4-6 0-2-2-5-4-7-37-26-57-65-57-114z m375-459c-50 0-93 20-122 56-25-23-60-36-94-36-39 0-77 17-108 47-29 31-45 69-45 108 0 36 14 70 36 94-36 28-56 70-56 122h15c0-49 21-89 58-114 2-2 3-4 3-7s-1-4-3-6c-23-20-37-55-37-89s14-67 42-97c28-28 61-42 95-42 33 0 67 14 89 37 2 2 3 4 6 4 2 0 5-2 7-4 26-37 65-57 114-57v-16z" horiz-adv-x="1000" />

<glyph glyph-name="gen-code" unicode="&#xe947;" d="M264 675l9 31c2 7 2 13 2 19 0 41-33 75-75 75-41 0-75-34-75-75v-50h139z m36-775h500c42 0 75 34 75 75v50h-550v-50c0-28-9-55-25-75z m-100 950h600c69 0 125-56 125-125 0-11-2-22-5-31l-170-619h175v-100c0-69-56-125-125-125h-600c-69 0-125 56-125 125 0 11 2 22 5 31l172 619h-177v100c0 69 56 125 125 125z m497-775l175 631c1 7 3 13 3 19 0 41-33 75-75 75h-500c16-20 25-47 25-75 0-11-2-22-5-31l-192-700c-1-7-3-13-3-19 0-42 34-75 75-75 42 0 75 33 75 75v100h422z m-416 275l75 100h63l-75-100 75-100h-63l-75 100z m363 100l75-100-75-100h-63l75 100-75 100h63z m-131 50h51l-75-300h-51l75 300z" horiz-adv-x="1000" />

<glyph glyph-name="gen-data-replication" unicode="&#xe948;" d="M500 800c-248 0-450-202-450-450s202-450 450-450 450 202 450 450-202 450-450 450z m-500-450c0 277 223 500 500 500s500-223 500-500-223-500-500-500c-277 0-500 223-500 500z m622 72l53-53v95c0 34-28 63-62 63h-63v25h63c48 0 87-39 87-88v-95l53 53 17-17-82-85-85 85 19 17z m128-322v150h-175v25h-75v-175h250z m25-25h-300v225h125v-25h175v-200z m-275 350v150h-175v25h-75v-175h250z m25-25h-300v225h125v-25h175v-200z m-147-147l-53 53v-95c0-34 28-63 63-63h62v-25h-62c-49 0-88 40-88 88v95l-53-53-19 19 85 84 84-84-19-19z" horiz-adv-x="1000" />

<glyph glyph-name="gen-desktop" unicode="&#xe949;" d="M0-139v28l95 142h183c0 0 70 28 103 85h-381v723h1000v-723h-383c33-58 103-85 103-85h183l95-142v-28h-998z m569 255h-138l-12-22c-16-27-38-49-58-64h277c-21 15-43 36-58 64l-11 22z m-452-127l-56-84h878l-56 84h-766z m841 169v639h-916v-639h916z m-150-224c0 7 5 11 11 11s11-4 11-11c0-6-5-11-11-11-6 2-11 7-11 11z m-42 0c0 7 4 11 11 11s11-4 11-11c0-6-5-11-11-11-7 2-11 7-11 11z m-43 0c0 7 5 11 11 11s11-4 11-11c0-6-4-11-11-11-6 2-11 7-11 11z m-42 0c0 7 5 11 11 11s11-4 11-11c0-6-5-11-11-11-6 2-11 7-11 11z m-42 0c0 7 5 11 11 11s11-4 11-11c0-6-5-11-11-11-6 2-11 7-11 11z m-44 0c0 7 5 11 11 11s11-4 11-11c0-6-4-11-11-11-6 2-11 7-11 11z m-42 0c0 7 5 11 11 11s11-4 11-11c0-6-5-11-11-11s-11 7-11 11z m-425 0c0 7 5 11 11 11s11-4 11-11c0-6-5-11-11-11s-11 7-11 11z m42 0c0 7 5 11 11 11s11-4 11-11c0-6-4-11-11-11-6 2-11 7-11 11z m43 0c0 7 4 11 10 11s11-4 11-11c0-6-4-11-11-11s-10 7-10 11z m42 0c0 7 4 11 11 11s11-4 11-11c0-6-5-11-11-11s-11 7-11 11z m43 0c0 7 5 11 11 11s11-4 11-11c0-6-4-11-11-11-6 2-11 7-11 11z m43 0c0 7 4 11 11 11s11-4 11-11c0-6-5-11-11-11-7 2-11 7-11 11z m42 0c0 7 5 11 11 11s11-4 11-11c0-6-5-11-11-11-6 2-11 7-11 11z m42 0c0 7 5 11 11 11s11-4 11-11c0-6-5-11-11-11-6 2-11 7-11 11z m44 0c0 7 4 11 11 11s11-4 11-11c0-6-5-11-11-11s-11 7-11 11z m42 0c0 7 5 11 11 11s11-4 11-11c0-6-5-11-11-11s-11 7-11 11z m319 22c0 6 4 11 11 11s11-5 11-11c0-6-5-11-11-11s-11 5-11 11z m-42 0c0 6 4 11 10 11s11-5 11-11c0-6-4-11-11-11s-10 5-10 11z m-43 0c0 6 5 11 11 11s11-5 11-11c0-6-4-11-11-11s-11 5-11 11z m-43 0c0 6 4 11 11 11s10-5 10-11c0-6-4-11-10-11s-11 5-11 11z m-43 0c0 6 5 11 11 11s11-5 11-11c0-6-4-11-11-11s-11 5-11 11z m-42 0c0 6 5 11 11 11s11-5 11-11c0-6-5-11-11-11s-11 5-11 11z m-42 0c0 6 5 11 11 11s11-5 11-11c0-6-5-11-11-11s-11 5-11 11z m-44 0c0 6 5 11 11 11s11-5 11-11c0-6-5-11-11-11s-11 5-11 11z m-383 0c0 6 5 11 11 11s11-5 11-11c0-6-4-11-11-11s-11 5-11 11z m44 0c0 6 5 11 11 11s11-5 11-11c0-6-5-11-11-11s-11 5-11 11z m42 0c0 6 5 11 11 11s11-5 11-11c0-6-4-11-11-11s-11 5-11 11z m43 0c0 6 4 11 11 11s10-5 10-11c0-6-4-11-10-11s-11 5-11 11z m42 0c0 6 4 11 11 11s11-5 11-11c0-6-5-11-11-11s-11 5-11 11z m42 0c0 6 5 11 11 11s11-5 11-11c0-6-5-11-11-11-5 0-11 5-11 11z m44 0c0 6 4 11 11 11s11-5 11-11c0-6-5-11-11-11s-11 5-11 11z m42 0c0 6 5 11 11 11s11-5 11-11c0-6-5-11-11-11s-11 5-11 11z m42 0c0 6 5 11 11 11s11-5 11-11c0-6-5-11-11-11s-11 5-11 11z m363-22c0 7 4 11 11 11s10-4 10-11c0-6-4-11-10-11-7 2-11 7-11 11z m-768 821h830v-489h-830v489z m810-22h-788v-447h788v447z m-394-489c17 0 31-14 31-31s-14-32-31-32c-17 0-31 14-31 32s14 31 31 31z" horiz-adv-x="1000" />

<glyph glyph-name="gen-ecommerce" unicode="&#xe94a;" d="M223 267h-118v16h118v-16z m777 464v-761h-1000v761h1000z m-850-45c0-8 6-16 16-16 7 0 15 7 15 16s-6 16-15 16c-10-2-16-8-16-16z m-61 0c0-8 6-16 16-16 8 0 15 7 15 16s-6 16-15 16c-8-2-16-8-16-16z m-59 0c0-8 6-16 15-16 8 0 16 7 16 16s-6 16-16 16c-9-2-15-8-15-16z m940-194h-940v-492h940v492z m0 149h-940v-135h940v135z m-776-522h-89v-16h89v16z m29 45h-118v-16h118v16z m-29 74h-89v-16h89v16z m0 120h-89v-16h89v16z m29 44h-118v-16h118v16z m227 7h-91v16h104l9-37h350l-53-202h-253c-14 0-27-11-27-27s11-26 27-26h253v-16h-253c-24 0-41 19-41 41 0 19 14 36 31 40l-56 211z m311-186h-247l6-21h235l6 21z m11 38h-267l6-22h255l6 22z m9 37h-286l7-21h275l4 21z m11 36h-308l7-21h295l6 21z m-317 38l6-22h314l7 22h-327z m47-269c-8 0-16-6-16-15 0-8 7-16 16-16 8 0 16 6 16 16s-7 15-16 15z m231 0c-8 0-15-6-15-15 0-8 6-16 15-16 8 0 16 6 16 16s-6 15-16 15z" horiz-adv-x="1000" />

<glyph glyph-name="gen-flame" unicode="&#xe94b;" d="M405 100c-55 28-75 91-67 141 10 70 82 109 39 178 25 3 45-2 62-10-36 64-28 136 63 191-29-105 37-142 101-220 89-105 75-232-26-280h-25c21 22 56 70 34 134-3-15-34-42-84-36 28 19 39 86-11 147 3-12 3-23 0-32-14-55-80-71-82-140-1-32 16-57 29-71h-33z" horiz-adv-x="1000" />

<glyph glyph-name="gen-flame-shield" unicode="&#xe94c;" d="M766 614c-91-1-185 16-266 61-81-45-175-62-266-61v-281c0-147 127-263 266-311 139 48 266 164 266 311v281z m-266 97c88-55 195-70 297-64v-314c0-170-149-297-297-346-148 51-297 177-297 346v314c102-6 210 9 297 64z m-77-555c-43 22-60 72-53 113 10 56 66 87 32 142 20 3 36 0 50-8-29 50-22 110 50 153-24-83 29-114 81-175 70-84 59-184-22-223h-20c17 17 43 56 28 106-3-12-27-34-67-30 23 16 31 69-10 118 2-10 3-19 0-27-11-44-64-56-64-111 0-26 13-45 24-58h-29z" horiz-adv-x="1000" />

<glyph glyph-name="gen-global" unicode="&#xe94d;" d="M500-150c-277 0-500 223-500 500s223 500 500 500 500-223 500-500c0-277-223-500-500-500z m230 667h-219v-156h236c-3 56-8 108-17 156z m200 0h-182c10-48 16-101 16-156h195c0 55-11 106-29 156z m-267 177h-152v-156h216c-16 60-38 114-64 156z m145 0h-122c25-44 45-97 59-156h177c-27 59-66 112-114 156z m-135 19h111c-61 48-134 81-214 92 38-17 74-49 103-92z m-164 0h139c-39 53-87 84-139 87v-87z m239-530h182c18 48 29 101 31 156h-197c0-55-5-108-16-156z m-239 0h219c10 47 16 100 16 156h-235v-156z m139-196h-139v-87c52 3 100 34 139 87z m136 0h-111c-29-43-64-75-103-92 80 11 153 44 214 92z m-100 19h122c49 44 88 97 114 157h-175c-14-60-34-113-61-157z m-175 0h152c27 42 48 96 62 157h-214v-157z m-78-112c-39 17-73 50-103 92h-111c60-47 133-80 214-92z m-179 623h-182c-18-48-29-101-31-156h195c2 55 7 108 18 156z m-36 196h111c29 43 65 75 104 93-81-12-154-45-215-93z m100-19h-122c-49-44-88-97-114-156h176c13 59 33 112 60 156z m-246-511h182c-10 48-16 101-16 156h-197c2-55 13-106 31-156z m185-19h-177c27-59 66-114 114-156h122c-25 42-45 95-59 156z m236 0h-216c14-62 36-116 63-156h151v-21h-139c39-53 88-84 139-87v900c-51-3-100-34-139-87h139v-19h-151c-27-42-49-96-63-156h216v-21h-219c-9-47-16-100-16-156h236v-20h-237c0-57 6-110 15-157h219v-20z" horiz-adv-x="1000" />

<glyph glyph-name="gen-global-traffic" unicode="&#xe94e;" d="M500 850c-277 0-500-223-500-500s223-500 500-500 500 223 500 500c0 277-223 500-500 500z m461-491h-167c-2 52-17 100-42 143-2 4-2 9-4 15h182c18-50 29-101 31-158z m-39 177h-177c-14 61-34 114-59 156h122c48-42 87-95 114-156z m-138 177h-111c-29 43-65 75-104 93 81-12 154-45 215-93z m-275 87c52-3 100-34 139-87h-139v87z m0-106h152c27-41 47-92 61-153-52 61-128 100-214 103v50z m-157 19c39 53 87 84 139 87v-87h-139z m139-19v-50c-86-3-163-42-214-103 14 59 36 111 61 153h153z m-60 112c-39-18-75-50-104-93h-111c61 48 134 81 215 93z m-239-112h122c-25-44-45-97-59-156h-177c27 59 66 112 114 156z m-122-177h182c-2-4-2-9-4-15-25-43-40-91-42-143h-167c2 57 13 108 31 158z m-31-176h167c2-52 17-100 42-143 2-4 2-9 4-15h-182c-18 50-29 101-31 158z m39-177h177c14-61 34-114 59-156h-122c-48 42-87 95-114 156z m138-177h111c29-43 64-75 103-92-80 11-153 44-214 92z m275-87c-52 3-100 34-139 87h139v-87z m0 106h-152c-26 41-47 92-61 153 52-61 128-100 214-103v-50z m-266 344c0 152 123 275 275 275s275-123 275-275-123-275-275-275c-152 0-275 123-275 275z m498-191c-14-59-35-111-60-153h-152v50c84 3 161 42 212 103z m-214-172h139c-39-53-87-84-139-87v87z m60-93c39 17 73 50 103 92h111c-60-47-133-80-214-92z m239 112h-122c25 44 45 97 59 157h177c-27-60-66-113-114-157z m122 177h-182c2 5 2 9 4 15 25 43 40 91 42 143h167c-2-57-13-108-31-158z m-363 176h124l-50 52 14 14 75-75-75-75-14 14 51 52h-123c-5-30-28-53-58-58v-124l52 52 14-14-77-77-75 75 14 14 52-51v123c-30 5-53 28-58 58h-124l52-51-14-15-77 77 75 75 14-14-51-52h123c5 30 28 54 58 58v124l-50-50-14 14 75 75 75-75-14-14-52 51v-123c32-5 55-28 58-60z m-67 39c-27 0-48-21-48-48s21-48 48-48c27 0 48 21 48 48s-21 48-48 48z" horiz-adv-x="1000" />

<glyph glyph-name="gen-growth" unicode="&#xe94f;" d="M373 494h136v-458h-136v458z m102-33h-69v-389h67v389z m203 169h-67v-560h67v560z m-101 34h136v-626h-136v626z m136-797h-136v35h136v-35z m-205 0h-136v35h136v-35z m-203 0h-136v35h136v-35z m695 67h-948v102h-52v34h52v52h-52v34h52v52h-52v34h52v52h-52v34h52v52h-52v34h52v52h-52v34h52v52h-52v34h52v52h-52v34h52v42h-52v34h52v50h-52v35h84v-864h916v-35z m-84-67h-136v35h136v-35z m-35 931h-67v-728h67v728z m-101 35h136v-797h-136v797z m-508-542h-69v-221h67v221z m-103 34h136v-287h-136v287z" horiz-adv-x="1000" />

<glyph glyph-name="gen-hard-drive" unicode="&#xe950;" d="M734 506h-468v-312h468v312z m-500 32h532v-375h-532v375z m188-235c26 0 47 20 47 47s-21 47-47 47c-27 0-47-20-47-47s20-47 47-47z m0 172c55 0 100-34 117-83l70-28c8-3 13-9 16-16 3-12-5-25-17-28-8-1-14 0-20 3l-41 33v-6c0-69-56-125-125-125s-125 56-125 125 56 125 125 125z m16-125c0-9-7-16-16-16s-16 7-16 16 7 16 16 16 16-7 16-16z m265-125h-187c25 19 43 44 53 73 12-9 29-12 47-9 29 8 47 38 39 67-5 17-17 30-32 36l-3 2-42 17v64h125v-250z" horiz-adv-x="1000" />

<glyph glyph-name="gen-help" unicode="&#xe951;" d="M175-89h792v667h-267v267h-667v-792l217 217c-11 28-17 60-17 91 0 137 112 250 250 250 45 0 87-13 123-33l-137-136c-27-26-27-69 0-94 26-26 69-26 94 0l137 138c20-36 33-78 33-123 0-138-113-250-250-250-33 0-63 6-91 17l-217-219z m-142 0h94l257 258c30-16 63-24 99-24 120 0 217 97 217 218 0 23-3 45-9 65l-103-103c-40-39-104-39-143 0s-39 103 0 142l103 103c-20 7-42 10-65 10-120 0-217-97-217-217 0-36 7-69 23-99l-256-258v-95z m700 933v-233h233l-233 233z m12 34l255-255v-745h-1000v1000h745z m-540-567h-72v17h69c1-6 1-11 3-17z m-72 367h517v-17h-517v17z m0 50h517v-17h-517v17z m206-700h528v-17h-545l17 17z m50 50h478v-17h-495l17 17z m255 50h222v-17h-250c11 5 20 11 28 17z m56 50h167v-17h-183c5 6 10 11 16 17z m33 50h133v-17h-143c4 6 7 11 10 17z m-600 0h28l-17-17h-11v17z m622 50h112v-17h-119c2 6 5 11 7 17z m9 50h102v-17h-105c2 6 3 11 3 17z m2 50h100v-17h-100c1 6 1 11 0 17z m-278 0h59l-6-6c-7-6-16-9-24-9s-17 3-23 9c-3 1-5 3-6 6z m-355 0h67c0-6 0-11 0-17h-67v17z m626 50h108v-17h-104c-2 6-4 11-4 17z m-256 0h94l-17-17h-92c1 3 3 5 4 6l11 11z m-370 0h75c-2-6-3-11-3-17h-72v17z m609 50h125v-17h-119c-1 6-4 11-6 17z m-189 0h94l-17-17h-94l17 17z m-420 0h92c-3-5-5-11-6-17h-86v17z m581 50h152v-17h-143l-9 17z m-111 0h94l-17-17h-94l17 17z m-470 0h120c-5-5-8-11-11-17h-109v17z m0 50h167c-6-5-12-11-19-17h-148v17z m447 50h70v-17h-33c-12 6-25 12-37 17z m-447 0h255c-13-5-25-11-38-17h-217v17z m62-367h-62v17h78l-16-17z" horiz-adv-x="1000" />

<glyph glyph-name="gen-install" unicode="&#xe952;" d="M714 28c0 20 16 36 36 36s36-16 36-36c0-20-16-36-36-36s-36 17-36 36z m144-83v168h-202l57 46h192v-262h-810v262h193l56-46h-202v-168h716z m-358 810c-267 0-453-75-453-142s186-143 453-143c267 0 453 75 453 143s-186 142-453 142z m-119-328v-149h-86l205-175 205 175h-86v149c-39-4-80-5-119-5s-80 1-119 5z m286 4v-106h167l-334-284-333 286h167v106c-181 22-334 84-334 180 0 123 258 190 500 190s500-67 500-190c0-96-153-158-333-182z m-167 122c-70 0-142 20-142 64s72 64 142 64c72 0 142-20 142-64s-70-64-142-64z m-92 64c11-8 44-17 92-17s80 11 92 17c-11 8-44 17-92 17-48 2-80-9-92-17z" horiz-adv-x="1000" />

<glyph glyph-name="gen-key" unicode="&#xe953;" d="M444 372h490l-40 67h-444l-67 133h-233l-102-222 102-222h234l68 111h87l22 44h94l22-44h39l22 44h93l22-44h39l44 89h-492v44z m361-133h-39l-22-45h-94l-22 44h-39l-23-44h-91l-67-111h-286l-122 267 122 267h289l67-133h444l80-132-79-157h-93l-25 44z m-538 0v222h-37l-47-111 47-111h37z m44-45h-111l-67 156 67 156h111v-312z" horiz-adv-x="1000" />

<glyph glyph-name="gen-laptop" unicode="&#xe954;" d="M872 191v468h-744v-468h744z m-755-22l-56-85h878l-56 85h-766z m841-106h-916v-22h916v22z m-42 134l84-128v-71h-1000v71l84 128v505h830v-505z m-108-81c0 6 5 11 11 11s11-5 11-11c0-7-5-11-11-11s-11 4-11 11z m44 0c0 6 4 11 11 11s10-5 10-11c0-7-4-11-10-11s-11 4-11 11z m-363 22c0 6 5 10 11 10s11-4 11-10c0-7-5-11-11-11s-11 4-11 11z m-42 0c0 6 5 10 11 10s11-4 11-10c0-7-5-11-11-11s-11 4-11 11z m-42 0c0 6 4 10 11 10s11-4 11-10c0-7-5-11-11-11s-11 4-11 11z m-44 0c0 6 5 10 11 10s11-4 11-10c0-7-5-11-11-11-5 0-11 4-11 11z m-42 0c0 6 4 10 11 10s11-4 11-10c0-7-5-11-11-11s-11 4-11 11z m-42 0c0 6 4 10 11 10s10-4 10-10c0-7-4-11-10-11s-11 4-11 11z m-43 0c0 6 5 10 11 10s11-4 11-10c0-7-4-11-11-11s-11 4-11 11z m-42 0c0 6 5 10 11 10s11-4 11-10c0-7-5-11-11-11s-11 4-11 11z m-44 0c0 6 5 10 11 10s11-4 11-10c0-7-4-11-11-11s-11 4-11 11z m383 0c0 6 5 10 11 10s11-4 11-10c0-7-5-11-11-11s-11 4-11 11z m44 0c0 6 5 10 11 10s11-4 11-10c0-7-5-11-11-11s-11 4-11 11z m42 0c0 6 5 10 11 10s11-4 11-10c0-7-5-11-11-11s-11 4-11 11z m42 0c0 6 5 10 11 10s11-4 11-10c0-7-4-11-11-11s-11 4-11 11z m43 0c0 6 4 10 11 10s10-4 10-10c0-7-4-11-10-11s-11 4-11 11z m43 0c0 6 5 10 11 10s11-4 11-10c0-7-4-11-11-11s-11 4-11 11z m43 0c0 6 4 10 10 10s11-4 11-10c0-7-4-11-11-11s-10 4-10 11z m42 0c0 6 4 10 11 10s11-4 11-10c0-7-5-11-11-11s-11 4-11 11z m-319-22c0 6 5 11 11 11s11-5 11-11c0-7-5-11-11-11s-11 4-11 11z m-42 0c0 6 4 11 11 11s11-5 11-11c0-7-5-11-11-11s-11 4-11 11z m-44 0c0 6 5 11 11 11s11-5 11-11c0-7-5-11-11-11s-11 4-11 11z m-42 0c0 6 5 11 11 11s11-5 11-11c0-7-5-11-11-11s-11 4-11 11z m-42 0c0 6 4 11 11 11s11-5 11-11c0-7-5-11-11-11s-11 4-11 11z m-43 0c0 6 5 11 11 11s11-5 11-11c0-7-4-11-11-11s-11 4-11 11z m-43 0c0 6 4 11 11 11s11-5 11-11c0-7-5-11-11-11s-11 4-11 11z m-42 0c0 6 4 11 10 11s11-5 11-11c0-7-4-11-11-11s-10 4-10 11z m-43 0c0 6 5 11 11 11s11-5 11-11c0-7-4-11-11-11s-11 4-11 11z m-42 0c0 6 5 11 11 11s11-5 11-11c0-7-5-11-11-11s-11 4-11 11z m425 0c0 6 5 11 11 11s11-5 11-11c0-7-5-11-11-11s-11 4-11 11z m42 0c0 6 5 11 11 11s11-5 11-11c0-7-4-11-11-11s-11 4-11 11z m44 0c0 6 5 11 11 11s11-5 11-11c0-7-5-11-11-11s-11 4-11 11z m42 0c0 6 5 11 11 11s11-5 11-11c0-7-5-11-11-11s-11 4-11 11z m42 0c0 6 5 11 11 11s11-5 11-11c0-7-4-11-11-11s-11 4-11 11z m43 0c0 6 4 11 11 11s11-5 11-11c0-7-5-11-11-11s-11 4-11 11z" horiz-adv-x="1000" />

<glyph glyph-name="gen-license" unicode="&#xe955;" d="M963-38v776h-925v-774h925z m0 813h37v-848h-1000v848h963z m-340-545l49-108-86 8-50-71-36 74-34-75-50 70-88-6 52 112c-5 8 0 19 3 30 1 3 1 6 3 9-3 0-6 0-9 0-13 0-27 0-32 11s5 21 14 30c2 2 5 5 7 8-3 1-7 3-10 5-11 4-25 11-25 23s13 19 25 23c3 2 7 4 10 5-2 2-5 5-7 8-9 9-17 20-14 30 5 11 19 11 32 11 3 0 6 0 9 0-2 3-2 6-3 9-5 12-10 25-2 33 2 1 7 4 13 4s14-3 22-6c3-1 6-3 9-3 0 3 0 6 0 9 0 13 0 27 11 32 9 4 20-5 30-14 1-2 4-5 7-7 2 4 4 7 5 10 5 11 11 25 24 25s18-13 23-25c2-3 3-6 5-10 1 2 4 5 8 7 9 9 20 17 29 14 11-5 11-19 11-32 0-3 0-6 0-9 3 2 6 2 10 3 7 3 15 6 21 6s10-3 13-4c8-8 3-21-2-33-1-3-1-6-3-9 3 0 6 0 10 0 12 0 26 0 31-11s-5-21-14-30c-2-2-5-5-6-8 3-1 6-3 9-5 11-4 25-10 25-23s-13-19-25-23c-3-2-6-4-9-5 1-2 4-5 6-8 9-9 17-20 14-30-3-12-17-12-30-12-3 0-6 0-9 0 1-3 1-6 3-9 5-13 9-25 1-33z m-162-135l39 85c-11 1-17 14-22 25-1 3-3 6-5 9-1-1-4-5-7-6-10-10-21-17-30-14-11 4-11 19-11 31 0 3 0 6 0 9-3-1-6-1-9-3-7-3-13-4-19-4l-38-85 66 5 36-52z m42 105c2 3 5 9 6 13 5 10 10 18 18 20 11 0 17-6 25-13 3-1 6-6 9-7 0 3 0 9 2 12 0 11 0 22 7 27 7 4 16 1 27-4 3-1 8-3 11-3-2 3-3 8-3 11-5 11-8 21-3 27 4 8 14 8 26 8 3 0 10 0 13 1-2 3-7 8-8 10-8 7-14 15-13 25 2 7 11 12 21 17 3 1 9 4 12 6-3 2-9 5-12 6-11 5-19 10-21 17s5 16 13 25c1 4 6 7 8 10-3 0-10 0-13 1-11 0-22 0-26 8s-2 17 3 27c1 3 3 8 3 11-3-2-8-3-11-5-11-5-20-6-27-3-7 6-7 16-7 26 0 4 0 10-2 13-3-2-8-6-9-8-8-6-14-12-22-12-11 1-16 11-21 20-1 3-4 9-6 12-1-3-5-9-6-12-5-11-9-19-17-20-11 0-17 6-25 12-3 2-7 6-10 8 0-3 0-9-1-13 0-10 0-21-8-26-6-5-16-2-27 3-3 2-7 3-11 5 2-3 4-8 5-11 5-11 8-21 3-27-4-8-14-8-26-8-3 0-10 0-13-1 2-3 6-8 8-10 8-7 14-15 13-25-2-7-11-12-21-17-3-1-9-4-12-6 3-2 9-5 12-6 11-5 19-10 21-17s-5-16-13-25c-2-4-6-7-8-10 3 0 10 0 13-1 11 0 22 0 26-8s2-17-3-27c-1-3-3-8-5-11 4 0 8 3 11 3 11 5 21 7 27 4 8-5 8-14 8-27 0-3 0-9 1-12 3 1 8 6 10 7 8 7 14 13 22 13 11-2 15-11 20-20 1-4 5-10 6-13z m138-58l-39 85c-4 1-8 3-13 4-3 2-6 2-9 3 0-3 0-6 0-9 0-12 0-27-11-31-10-5-21 4-30 14l-28-52 28-59 38 53 64-8z m-53 208c0-47-38-84-85-84s-84 37-84 84c0 47 37 84 84 84s85-37 85-84z m-85-67c36 0 66 30 66 65s-30 66-66 66c-36 0-65-30-65-66s29-65 65-65z m-351 303v19h698v-19h-698z m0-38v19h698v-19h-698z m0-359v19h151v-19h-151z m546 0v19h152v-19h-152z m-546 39v19h151v-19h-151z m546 0v19h152v-19h-152z m208 433h19v-19h-19v-19h19v-18h-19v-19h19v-19h-19v-19h19v-18h-19v-19h19v-19h-19v-19h19v-18h-19v-19h19v-19h-19v-20h19v-19h-19v-19h19v-18h-19v-19h19v-19h-19v-19h19v-18h-19v-19h19v-19h-19v-19h19v-18h-19v-19h19v-19h-19v-19h19v-18h-19v-19h19v-19h-19v-19h19v-18h-19v18h-18v19h18v19h-18v19h18v18h-18v19h18v19h-18v19h18v18h-18v19h18v19h-18v19h18v18h-18v19h18v19h-18v19h18v18h-18v19h18v19h-18v19h18v18h-18v19h18v19h-18v19h18v18h-18v19h18v19h-18v19h18v18h-18v19h18v19h-18v19h18v20h-18v19h-19v-19h-19v19h-19v-19h-18v19h-19v-19h-19v19h-19v-19h-18v19h-19v-19h-19v19h-19v-19h-18v19h-19v-19h-19v19h-19v-19h-18v19h-19v-19h-22v19h-19v-19h-19v19h-18v-19h-19v19h-19v-19h-19v19h-18v-19h-19v19h-19v-19h-19v19h-18v-19h-19v19h-19v-19h-19v19h-18v-19h-19v19h-19v-19h-19v19h-18v-19h-19v19h-20v-19h-19v19h-20v-19h-19v19h-19v18h19v-18h19v18h18v-18h19v18h19v-18h19v18h18v-18h19v18h19v-18h19v18h18v-18h19v18h19v-18h19v18h18v-18h19v18h19v-18h19v18h18v-18h22v18h19v-18h19v18h18v-18h19v18h19v-18h19v18h18v-18h19v18h19v-18h19v18h18v-18h19v18h19v-18h19v18h18v-18h19v18h19v-18h19v18h18v-18h19v18h19v-18h19v18h18v-18h22v18h19v-18h-19v-19z m-754-395v18h151v-18h-151z m546 0v18h152v-18h-152z m-604-227h-19v19h19v19h-19v18h19v19h-19v19h19v19h-19v18h19v19h-19v19h19v19h-19v18h19v19h-19v19h19v20h-19v19h19v19h-19v18h19v19h-19v19h19v19h-19v18h19v19h-19v19h19v19h-19v18h19v19h-19v19h19v19h-19v18h19v19h-19v19h19v19h-19v18h19v-18h19v-19h-19v-19h19v-19h-19v-18h19v-19h-19v-19h19v-19h-19v-18h19v-19h-19v-19h19v-19h-19v-18h19v-19h-19v-19h19v-19h-19v-18h19v-19h-19v-19h19v-19h-19v-18h19v-19h-19v-19h19v-19h-19v-18h19v-19h-19v-19h19v-19h-19v-18h19v-19h-19v-19h19v-19h-19v-20h19v-19h18v19h19v-19h19v19h19v-19h18v19h19v-19h19v19h19v-19h18v19h19v-19h19v19h19v-19h18v19h19v-19h19v19h19v-19h18v19h22v-19h19v19h19v-19h18v19h19v-19h19v19h19v-19h18v19h19v-19h19v19h19v-19h18v19h19v-19h19v19h19v-19h18v19h19v-19h19v19h19v-19h18v19h19v-19h19v19h19v-19h18v19h22v-19h19v-18h-19v18h-18v-18h-19v18h-19v-18h-19v18h-18v-18h-19v18h-19v-18h-19v18h-18v-18h-19v18h-19v-18h-19v18h-18v-18h-19v18h-19v-18h-19v18h-18v-18h-19v18h-22v-18h-19v18h-19v-18h-18v18h-19v-18h-19v18h-19v-18h-18v18h-19v-18h-19v18h-19v-18h-18v18h-19v-18h-19v18h-19v-18h-18v18h-19v-18h-19v18h-19v-18h-18v18h-19v-18h-20v18h-19v-18h-20v18h-19v-18h-19v18h19v19z" horiz-adv-x="1000" />

<glyph glyph-name="gen-lock-shield" unicode="&#xe956;" d="M766 613c-91-2-185 15-266 60-81-45-175-62-266-60v-279c0-146 127-262 266-311 139 49 266 165 266 311v279z m-266 96c88-54 195-70 297-64v-309c0-170-149-297-297-345-148 48-297 175-297 345v309c102-6 210 10 297 64z m-141-296h47v78c0 51 42 93 94 93s94-42 94-93v-78h47v-235h-282v235z m79 0h125v78c0 34-29 62-63 62s-62-28-62-62v-78z m171-32h-218v-172h218v172z" horiz-adv-x="1000" />

<glyph glyph-name="gen-locked-checked-shield" unicode="&#xe957;" d="M766 613c-91-2-185 15-266 60-81-45-175-62-266-60v-279c0-146 127-262 266-311 139 49 266 165 266 311v279z m-266 96c88-54 195-70 297-64v-309c0-170-149-297-297-345-148 48-297 175-297 345v309c102-6 210 10 297 64z m80-328h-189v-172h218v113l32 34v-178h-282v235h47v78c0 51 42 93 94 93s94-42 94-93v-78h14l53 57 23-22-184-200-78 80 22 22 54-56 82 87z m-142 32h125v78c0 34-29 62-63 62s-62-28-62-62v-78z" horiz-adv-x="1000" />

<glyph glyph-name="gen-netowkring" unicode="&#xe958;" d="M575 416c-6 0-12-5-12-13 0-6 4-12 12-12s13 4 13 12c-2 8-7 13-13 13z m-150-100c6 0 13 4 13 12 0 6-5 13-13 13s-12-5-12-13c1-8 6-12 12-12z m13-122h-47v31h-78v313h375v-313h-79v-31h-46v-31h-125v31z m-94 172v-32h56c3 11 14 21 27 21 15 0 28-13 28-27 0-15-13-28-28-28-13 0-24 8-27 19h-56v-63h78v-31h47v-31h62v31h47v31h78v47h-128l-78 63h-106z m0 47v-32h112l78-62h122v31h-112l-78 63h-122z m265 93v-31h-31v31h-31v-31h-31v31h-32v-31h-31v31h-31v-31h-31v31h-47v-78h128l78-62h106v31h-56c-3-11-14-20-27-20-15 0-28 12-28 28s13 28 28 28c13 0 24-8 27-19h56v94h-47z" horiz-adv-x="1000" />

<glyph glyph-name="gen-network-connection" unicode="&#xe959;" d="M500 788c-242 0-437-196-437-438s195-438 437-438c242 0 438 196 438 438s-196 438-438 438z m500-438c0-277-223-500-500-500s-500 223-500 500c0 277 223 500 500 500s500-223 500-500z m-392 16h198l-83 82 22 22 121-120-121-120-22 22 83 82h-198c-6-48-45-86-92-92v-198l82 83 22-22-120-121-120 121 22 22 82-83v198c-48 6-86 46-92 92h-198l83-82-22-22-121 120 121 120 22-22-83-82h198c6 48 46 86 92 92v198l-82-83-22 22 120 121 120-121-22-22-82 83v-198c48-6 86-44 92-92z m-108 62c-44 0-78-34-78-78s34-78 78-78c44 0 78 34 78 78s-34 78-78 78z" horiz-adv-x="1000" />

<glyph glyph-name="gen-os" unicode="&#xe95a;" d="M702 333c1 3 1 9 1 17s0 14-1 17l-2 3-47 10-3 9c-3 14-9 30-17 42l-5 10 28 37-1 3c-2 3-5 8-11 13-6 6-11 9-13 11l-4 1-39-26-8 4c-13 8-28 14-42 18l-10 3-8 45-3 2c-3 0-8 1-17 1s-14-1-17-1l-3-2-10-47-9-3c-14-3-30-9-42-17l-10-5-37 28-3-1c-2-2-6-5-13-11s-9-11-11-13l-1-4 26-39-4-8c-8-13-14-28-18-42l-3-11-45-8-2-3c0-2-1-7-1-16s1-14 1-17l2-3 47-10 3-9c3-14 9-30 17-42l5-10-28-37 1-3c2-2 3-6 11-13 7-6 11-9 13-11l3-1 39 26 8-4c12-8 28-14 42-18l9-3 8-45 3-2c3-1 8-1 17-1 8 0 13 0 18 1l3 2 9 47 10 3c14 3 29 9 42 17l9 5 38-28 3 1c1 2 6 5 12 11s10 11 11 13l2 3-27 39 5 8c8 12 14 28 17 42l3 9 45 8 4 5z m29 44c3-8 3-16 3-27s-1-20-3-27l-8-20-43-6c-3-11-8-22-13-31l25-38-9-19c-3-6-8-14-17-21-8-8-14-13-22-16l-19-14-36 26c-11-4-20-9-31-14l-11-43-20-7c-7-3-16-3-27-3s-20 2-27 3l-20 8-6 44c-11 3-22 8-31 12l-41-26-19 9c-6 3-14 8-22 17-7 8-14 16-17 22l-9 19 26 36c-4 11-9 20-14 31l-43 11-8 20c-3 7-3 16-3 27s1 20 3 27l8 20 43 6c3 11 8 22 13 31l-25 41 9 19c3 6 8 14 17 22 8 7 14 12 22 15l21 10 36-27c10 5 20 9 31 14l9 45 20 8c8 3 16 3 27 3s20-1 27-3l20-8 6-43c11-3 22-8 31-13l38 25 19-9c6-3 14-8 22-17 7-8 14-16 17-22l9-21-26-35c4-11 9-21 14-32l45-9 9-20z m-293 67c29 0 54-25 54-55v-78c0-30-25-55-54-55s-55 25-55 55v78c0 30 25 55 55 55z m23-133v78c0 13-11 24-23 24s-24-11-24-24v-78c0-13 11-23 24-23s23 10 23 23z m102 102c-13 0-24-11-24-24 0-17 20-22 27-23 31-7 51-27 51-55 0-30-25-55-54-55s-55 25-55 55h31c0-13 11-23 24-23s23 10 23 23c0 17-20 22-27 23-31 7-51 27-51 55 0 30 25 55 55 55s54-25 54-55h-31c0 13-11 24-23 24z" horiz-adv-x="1000" />

<glyph glyph-name="gen-patching-shield" unicode="&#xe95b;" d="M500 709c88-54 195-70 297-64v-309c0-170-149-297-297-345-148 48-297 175-297 345v309c102-6 210 10 297 64z m266-96c-91-2-185 15-266 60-81-45-175-62-266-60v-279c0-146 127-262 266-311 139 49 266 165 266 311v279z m-166-269l-77-78 57-57c22-21 56-21 76 0 22 22 22 57 0 77l-56 58z m-200 45l78 77-56 56c-22 22-56 22-78 0s-22-56 0-78l56-55z m-78-80l56 57-56 56c-34 34-34 87 0 122 33 33 87 33 122 0l56-56 56 56c35 34 88 34 122 0 33-33 33-88 0-122l-56-56 56-57c33-32 33-87 0-121-33-33-87-33-122 0l-56 57-56-56c-33-33-88-33-122 0-33 33-33 88 0 120z m278 80l56 56c22 22 22 57 0 77-22 22-56 22-78 0l-56-56 78-77z m-100-100l77 77-77 78-78-77 78-78z m-156-1c-22-22-22-57 0-77 22-22 56-22 76 0l57 56-79 78-54-57z m250 1c0 9 6 16 15 16s16-7 16-16c0-9-6-16-16-16s-15 7-15 16z m15-47c0 10 7 16 16 16s16-6 16-16c0-9-7-15-16-15s-16 6-16 15z m-46 16c0 9 6 15 15 15s16-6 16-15c0-10-6-16-16-16s-15 6-15 16z m-172 234c0-9-7-15-16-15s-16 6-16 15c0 10 7 16 16 16s16-8 16-16z m47-15c0-10-7-16-16-16s-16 6-16 16c0 9 7 15 16 15s16-8 16-15z m-32-32c0-9-6-15-15-15s-16 6-16 15c0 10 6 16 16 16s15-8 15-16z m219 32c-9 0-16 6-16 15s7 16 16 16c9 0 16-6 16-16s-7-15-16-15z m-16-47c-9 0-15 6-15 15s6 16 15 16c10 0 16-6 16-16s-6-15-16-15z m-31 31c-9 0-15 6-15 16s6 15 15 15c10 0 16-6 16-15s-6-16-16-16z m-203-203c9 0 16-6 16-16s-7-15-16-15c-9 0-16 6-16 15 0 8 7 16 16 16z m16 47c9 0 15-7 15-16s-6-16-15-16c-10 0-16 7-16 16 0 8 6 16 16 16z m31-32c9 0 16-6 16-15s-7-16-16-16c-9 0-16 6-16 16 0 8 7 15 16 15z" horiz-adv-x="1000" />

<glyph glyph-name="gen-payment" unicode="&#xe95c;" d="M948 645h-896v-589h896v589z m52 52v-692h-1000v692h1000z m-128-308v-51h-25v51h25z m-744 153h744v-51h-744v51z m0-384h180v-25h-180v25z m231 0h52v-25h-52v25z m102 0h153v-25h-153v25z m411 103v-128h-180v128h180z m-308 0h52v-25h-52v25z m-103 0h52v-25h-52v25z m-308 128v-51h-25v51h25z m52 0v-51h-25v51h25z m51 0v-51h-25v51h25z m52 0v-51h-25v51h25z m51 0v-51h-25v51h25z m52 0v-51h-25v51h25z m50 0v-51h-25v51h25z m52 0v-51h-25v51h25z m51 0v-51h-25v51h25z m52 0v-51h-25v51h25z m51 0v-51h-26v51h26z m50 0v-51h-25v51h25z m52 0v-51h-25v51h25z m51 0v-51h-25v51h25z" horiz-adv-x="1000" />

<glyph glyph-name="gen-pdf" unicode="&#xe95d;" d="M502-11c0-19-16-33-33-33h-17v67h17c19 0 33-15 33-34z m467 647v-745h-1000v1000h745l255-255z m-267-13h232l-232 232v-232z m-283-617c0 19-16 33-33 33h-50v-100h17v33h33c17 1 33 15 33 34z m100-17c0 28-22 50-50 50h-33v-100h33c28 0 50 23 50 50z m83 50h-68v-100h18v33h50v17h-50v33h50v17z m334 550h-267v267h-667v-767h932v500z m-550-566h-33v-32h33c9 0 17 7 17 17s-8 15-17 15z m-58 180c27 24 53 63 78 114 57 22 110 31 147 36 39-33 77-53 108-58 8-1 16-1 22-1 36 0 51 19 53 34 2 17-11 41-53 50-30 6-74 8-122 3-36 32-70 71-94 110 11 50 16 95 14 131-3 67-48 78-70 55-13-14-17-38-14-68 5-39 19-79 44-121-13-50-30-102-52-149-45-19-83-41-114-66s-44-51-36-73c5-14 17-22 34-22v0c16-1 36 8 55 25z m-17 19c-20-17-34-20-39-20v0c-3 0-9 0-11 4-2 7 2 22 28 46 22 18 49 36 80 50-19-36-39-63-58-80z m366 131c26-6 34-17 34-23s-11-13-28-13c-5 0-11 0-17 2-21 3-47 17-75 37 32 3 64 2 86-3z m-257-3c14 33 27 70 38 105v0 1c20-28 44-56 69-79h-2c-28-7-64-14-105-27v0 0z m35 269c1-28-2-61-8-97-16 30-25 59-28 87-3 33 6 46 8 49 1 1 4 3 6 3 9 2 20-13 22-42z" horiz-adv-x="1000" />

<glyph glyph-name="gen-performance" unicode="&#xe95e;" d="M500 850c277 0 500-223 500-500s-223-500-500-500c-277 0-500 223-500 500s223 500 500 500z m0-47c-250 0-453-203-453-453s203-453 453-453c250 0 453 203 453 453s-203 453-453 453z m381-453c0-211-170-381-381-381s-381 170-381 381c0 211 170 381 381 381s381-170 381-381z m-48 0c0 184-150 333-333 333-184 0-333-150-333-333 0-184 150-333 333-333 184 0 333 149 333 333z m-286 0c0 27-22 47-47 47-27 0-47-22-47-47 0-27 22-47 47-47 27 0 47 20 47 47z m216-23h-171c-11-41-48-72-92-72-53 0-95 42-95 95s42 95 95 95c44 0 81-29 92-72h171c12 0 23-10 23-23s-11-23-23-23z m-504-79c-12 32-20 66-20 102 0 145 117 263 263 263 120 0 220-82 251-191h-148c-28 62-91 108-164 108-99 0-178-80-178-178 0-33 6-64 18-93l-22-11z" horiz-adv-x="1000" />

<glyph glyph-name="gen-power" unicode="&#xe95f;" d="M500 600c-137 0-250-112-250-250s113-250 250-250 250 113 250 250c0 138-112 250-250 250z m-219-250c0 120 99 219 219 219 58 0 111-24 150-60l-200-121 52-5-107-88 52-4-100-96c-41 39-66 94-66 155z m219-219c-58 0-111 24-150 60l200 122-52 6 107 87-52 5 100 95c41-39 64-93 64-154 2-122-97-221-217-221z" horiz-adv-x="1000" />

<glyph glyph-name="gen-processor" unicode="&#xe960;" d="M500 194c-9 0-16-6-16-16v-15h-171v375h375v-375h-172v15c0 10-7 16-16 16z m-156 234h31v47h47v31h-78v-78z m281-47h31v32h-31v-32z m-281 0h31v32h-31v-32z m281-47h31v32h-31v-32z m-281 0h31v32h-31v-32z m281-46h31v31h-31v-31z m-250-16h-31v-78h112c7 19 24 31 44 31s38-12 44-31h112v78h-31v-47h-62c-15 19-36 31-61 31h92v188h-188v-188h92c-25 0-46-12-60-31h-63v47z m-31 16h31v31h-31v-31z m234 218v-31h47v-47h31v78h-78z m-47 0v-31h32v31h-32z m-62-31v31h-31v-31h31z m15 31v-31h32v31h-32z m79-218h-125v125h125v-125z" horiz-adv-x="1000" />

<glyph glyph-name="gen-ram" unicode="&#xe961;" d="M297 538h469v-250h-63v-125h-469v250h63v125z m312-313h32v-31h31v187h-406v-187h31v31h31v-31h31v31h32v-31h31v31h31v-31h31v31h32v-31h31v31h31v-31h31v31z m-250 250h63v-62h31v62h63v-62h31v62h62v-62h32v62h62v-156h31v187h-406v-93h31v62z m125-125h63v-94h-63v94z m-93 0h62v-94h-62v94z m-94 0h62v-94h-62v94z m281 0h63v-94h-63v94z" horiz-adv-x="1000" />

<glyph glyph-name="gen-server-instance" unicode="&#xe962;" d="M842 738l-286-100v-716l286 128v688z m-583-27l266-23 242 84-242 20-266-81z m241-453l-342 39v-336l342-49v346z m0 120l-342 38v-88l342-40v90z m0 120l-342 35v-89l342-38v92z m0 135l-342 31v-103l342-34v106z m400 186v-803l-367-166-433 62v811l417 127 383-31z m-514-769c0 16 12 28 28 28s28-12 28-28c0-16-12-28-28-28s-28 12-28 28z m0 114c0 16 12 28 28 28s28-12 28-28-12-28-28-28c-16 0-28 12-28 28z" horiz-adv-x="1000" />

</font>
</defs>
</svg>
