<?xml version="1.0" standalone="no"?>
<!DOCTYPE svg PUBLIC "-//W3C//DTD SVG 1.1//EN" "http://www.w3.org/Graphics/SVG/1.1/DTD/svg11.dtd" >
<svg xmlns="http://www.w3.org/2000/svg">
<metadata>Generated by IcoMoon</metadata>
<defs>
<font id="rsweb" horiz-adv-x="1024">
<font-face units-per-em="1024" ascent="960" descent="-64" />
<missing-glyph horiz-adv-x="1024" />
<glyph unicode="&#x20;" horiz-adv-x="512" d="" />
<glyph unicode="&#xe900;" glyph-name="auto-compute" d="M512 185.6c-3.2 0-9.6 0-14.4 0h-4.8l-4.8 6.4c-6.4 9.6-14.4 24-17.6 46.4 0 1.6 0 3.2 0 3.2-8 1.6-16 3.2-24 6.4 0 0-1.6-1.6-1.6-1.6-14.4-19.2-28.8-27.2-38.4-32l-6.4-3.2-4.8 1.6c-4.8 1.6-11.2 4.8-12.8 6.4-3.2 1.6-8 4.8-12.8 8l-4.8 3.2v4.8c-1.6 11.2-1.6 28.8 8 49.6 0 1.6 1.6 3.2 1.6 3.2-6.4 4.8-12.8 11.2-17.6 17.6 0 0-1.6 0-3.2-1.6-12.8-6.4-25.6-8-40-8-3.2 0-6.4 0-9.6 0h-4.8l-6.4 8c-3.2 3.2-6.4 9.6-8 12.8s-4.8 8-6.4 12.8l-3.2 6.4 1.6 4.8c4.8 9.6 12.8 25.6 32 38.4 1.6 1.6 3.2 1.6 3.2 3.2-3.2 8-4.8 16-6.4 24 0 0-1.6 0-3.2 0-24 3.2-38.4 11.2-46.4 17.6l-4.8 3.2v4.8c0 4.8 0 11.2 0 14.4s0 9.6 0 14.4v4.8l4.8 3.2c9.6 6.4 24 14.4 46.4 17.6 1.6 0 3.2 0 3.2 0 1.6 8 3.2 16 6.4 24 0 0-1.6 1.6-1.6 1.6-19.2 14.4-27.2 28.8-32 38.4l-3.2 9.6 1.6 4.8c1.6 4.8 4.8 11.2 6.4 12.8 1.6 3.2 4.8 8 8 12.8l3.2 4.8h4.8c3.2 0 6.4 0 9.6 0 12.8 0 25.6-3.2 38.4-8 1.6 0 3.2-1.6 3.2-1.6 4.8 6.4 11.2 12.8 17.6 17.6 0 0 0 1.6-1.6 3.2-9.6 20.8-9.6 38.4-8 49.6v4.8l4.8 3.2c3.2 3.2 9.6 6.4 12.8 8s8 4.8 12.8 6.4l4.8 1.6 4.8-1.6c9.6-4.8 25.6-12.8 38.4-32 1.6-1.6 1.6-3.2 3.2-3.2 6.4 3.2 16 4.8 24 6.4 0 0 0 1.6 0 3.2 3.2 24 11.2 38.4 17.6 46.4l3.2 4.8h4.8c4.8 0 11.2 0 14.4 0s9.6 0 16 0h4.8l3.2-4.8c6.4-9.6 14.4-24 17.6-46.4 0-1.6 0-3.2 0-3.2 8-1.6 16-3.2 24-6.4 0 0 1.6 1.6 1.6 1.6 14.4 19.2 28.8 27.2 38.4 32l4.8 1.6 4.8-1.6c4.8-1.6 11.2-4.8 12.8-6.4 3.2-1.6 8-4.8 12.8-8l4.8-3.2v-4.8c1.6-11.2 1.6-28.8-8-49.6 0-1.6-1.6-3.2-1.6-3.2 6.4-4.8 12.8-11.2 17.6-17.6 0 0 1.6 0 3.2 1.6 12.8 6.4 25.6 8 40 8 3.2 0 6.4 0 9.6 0h4.8l3.2-4.8c3.2-3.2 6.4-9.6 8-12.8s4.8-9.6 6.4-12.8l1.6-4.8-1.6-4.8c-4.8-9.6-12.8-25.6-32-38.4-1.6-1.6-3.2-1.6-3.2-3.2 3.2-6.4 4.8-16 6.4-24 0 0 1.6 0 3.2 0 24-3.2 38.4-11.2 46.4-17.6l4.8-3.2v-4.8c0-4.8 0-11.2 0-14.4s0-9.6 0-14.4v-4.8l9.6-4.8c-9.6-6.4-24-14.4-46.4-17.6-1.6 0-3.2 0-3.2 0-1.6-8-3.2-16-6.4-24 0 0 1.6-1.6 1.6-1.6 19.2-14.4 27.2-28.8 32-38.4l1.6-4.8-1.6-4.8c-1.6-4.8-4.8-11.2-6.4-12.8-1.6-3.2-4.8-8-8-12.8l-3.2-4.8h-4.8c-3.2 0-6.4 0-9.6 0-12.8 0-25.6 3.2-38.4 8-1.6 0-3.2 1.6-3.2 1.6-4.8-6.4-11.2-12.8-17.6-17.6 0 0 0-1.6 1.6-3.2 9.6-20.8 9.6-38.4 8-49.6v-4.8l-8-8c-4.8-3.2-9.6-6.4-12.8-8s-9.6-4.8-12.8-6.4l-6.4-3.2-4.8 1.6c-9.6 4.8-25.6 12.8-38.4 32-1.6 1.6-1.6 3.2-3.2 3.2-6.4-3.2-16-4.8-24-6.4 0 0 0-1.6 0-3.2-3.2-24-11.2-38.4-17.6-46.4l-3.2-4.8h-4.8c-6.4-1.6-12.8-1.6-16-1.6zM505.6 211.2c4.8 0 8 0 12.8 0 4.8 6.4 8 16 11.2 30.4 1.6 14.4 8 22.4 20.8 24 8 1.6 14.4 3.2 22.4 6.4 3.2 1.6 4.8 1.6 8 1.6 12.8 0 19.2-8 20.8-12.8 8-11.2 17.6-17.6 24-20.8l6.4 3.2 4.8 3.2c0 8-1.6 19.2-6.4 32s-3.2 24 4.8 32c6.4 4.8 11.2 9.6 16 16s11.2 8 17.6 8c6.4 0 9.6-1.6 12.8-3.2 11.2-4.8 20.8-6.4 32-6.4l3.2 4.8 3.2 6.4c-3.2 8-9.6 16-20.8 24-4.8 3.2-16 12.8-11.2 28.8 3.2 8 4.8 14.4 6.4 22.4 3.2 11.2 11.2 19.2 24 20.8 14.4 1.6 24 6.4 30.4 11.2v12.8c-6.4 4.8-16 8-30.4 11.2-14.4 1.6-22.4 8-24 20.8-1.6 8-3.2 14.4-6.4 22.4-4.8 17.6 6.4 25.6 11.2 28.8 11.2 8 17.6 17.6 20.8 24l-3.2 6.4-3.2 4.8c-9.6 0-20.8-1.6-32-6.4-3.2-1.6-8-3.2-12.8-3.2-6.4 0-12.8 3.2-17.6 8-4.8 6.4-9.6 11.2-16 16-9.6 8-11.2 19.2-4.8 30.4 4.8 12.8 6.4 24 6.4 32l-4.8 3.2-6.4 1.6c-8-3.2-16-9.6-24-20.8-3.2-3.2-9.6-12.8-22.4-12.8-3.2 0-4.8 0-8 1.6-8 3.2-14.4 4.8-22.4 6.4-11.2 3.2-19.2 11.2-20.8 24-1.6 14.4-6.4 24-11.2 30.4-4.8 0-8 0-12.8 0-4.8-6.4-8-16-11.2-30.4-1.6-14.4-8-22.4-20.8-24-8-1.6-14.4-3.2-22.4-6.4-3.2-1.6-4.8-1.6-8-1.6-12.8 0-19.2 8-20.8 12.8-8 11.2-17.6 17.6-24 20.8l-6.4-3.2-4.8-3.2c0-8 0-19.2 6.4-32 4.8-12.8 3.2-24-4.8-32-6.4-4.8-11.2-9.6-16-16-4.8-4.8-11.2-8-17.6-8s-9.6 1.6-12.8 3.2c-11.2 4.8-20.8 6.4-32 6.4l-3.2-4.8-1.6-4.8c3.2-8 9.6-16 20.8-24 4.8-3.2 16-12.8 11.2-28.8-3.2-8-4.8-14.4-6.4-22.4-3.2-11.2-11.2-19.2-24-20.8-14.4-1.6-24-6.4-30.4-11.2v-12.8c6.4-4.8 16-8 30.4-11.2 14.4-1.6 22.4-8 24-20.8 1.6-8 3.2-14.4 6.4-22.4 3.2-11.2 0-20.8-11.2-30.4-11.2-8-17.6-17.6-20.8-24l3.2-6.4 3.2-4.8c9.6 0 20.8 1.6 32 6.4 3.2 1.6 8 3.2 12.8 3.2 6.4 0 12.8-3.2 17.6-8 4.8-6.4 9.6-11.2 16-16 9.6-8 11.2-19.2 4.8-30.4-4.8-12.8-6.4-24-6.4-32l4.8-3.2 6.4-3.2c8 3.2 16 9.6 24 20.8 3.2 3.2 9.6 12.8 20.8 12.8 3.2 0 4.8 0 8-1.6 8-1.6 14.4-4.8 22.4-6.4 11.2-3.2 19.2-11.2 20.8-24s6.4-22.4 11.2-28.8zM512 372.8c-41.6 0-75.2 33.6-75.2 75.2s33.6 75.2 75.2 75.2c41.6 0 75.2-33.6 75.2-75.2s-33.6-75.2-75.2-75.2zM512 497.6c-27.2 0-49.6-22.4-49.6-49.6s22.4-49.6 49.6-49.6c27.2 0 49.6 22.4 49.6 49.6s-22.4 49.6-49.6 49.6zM924.8 452.8l-57.6 57.6-17.6-17.6 88-88 88 88-17.6 17.6-57.6-57.6c-4.8 240-198.4 432-438.4 432-212.8 0-390.4-152-428.8-355.2l22.4-22.4c28.8 200 200 353.6 406.4 353.6 225.6 0 409.6-182.4 412.8-408zM156.8 385.6l17.6 17.6-88 88-86.4-88 17.6-17.6 57.6 57.6c3.2-238.4 196.8-432 436.8-432 212.8 0 390.4 152 428.8 355.2l-22.4 22.4c-28.8-200-200-353.6-406.4-353.6-225.6 0-409.6 182.4-412.8 406.4l57.6-56z" />
<glyph unicode="&#xe901;" glyph-name="auto-maintenance" d="M638.4 507.2c1.6-3.2 3.2-6.4 4.8-11.2l27.2-6.4c11.2-1.6 25.6-11.2 25.6-43.2s-14.4-41.6-27.2-43.2l-27.2-4.8c-1.6-3.2-3.2-6.4-4.8-11.2l16-24c6.4-9.6 11.2-25.6-11.2-48s-40-19.2-49.6-11.2l-22.4 16c-3.2-1.6-6.4-3.2-11.2-4.8l-6.4-27.2c-1.6-11.2-11.2-25.6-43.2-25.6s-41.6 14.4-43.2 27.2l-4.8 27.2c-3.2 1.6-6.4 3.2-11.2 4.8l-24-16c-9.6-6.4-25.6-11.2-48 11.2s-19.2 40-11.2 49.6l16 20.8c-1.6 3.2-3.2 6.4-4.8 11.2l-27.2 6.4c-11.2 1.6-25.6 11.2-25.6 43.2s14.4 41.6 27.2 43.2l27.2 4.8c1.6 3.2 3.2 6.4 4.8 11.2l-16 24c-6.4 9.6-11.2 25.6 11.2 48s40 19.2 49.6 11.2l22.4-16c3.2 1.6 6.4 3.2 11.2 4.8l6.4 27.2c1.6 11.2 11.2 25.6 43.2 25.6s41.6-14.4 43.2-27.2l4.8-27.2c3.2-1.6 6.4-3.2 11.2-4.8l24 16c9.6 6.4 25.6 11.2 48-11.2s19.2-40 11.2-49.6l-16-20.8zM662.4 436.8c0 1.6 1.6 4.8 1.6 11.2s0 9.6-1.6 11.2l-35.2 4.8c-9.6 1.6-12.8 9.6-12.8 12.8-1.6 8-4.8 14.4-8 20.8-1.6 3.2-6.4 11.2 0 19.2l20.8 28.8c0 1.6-1.6 4.8-8 9.6-4.8 4.8-8 6.4-9.6 8l-28.8-20.8c-6.4-4.8-14.4-3.2-19.2 0-6.4 3.2-12.8 6.4-20.8 8-3.2 1.6-11.2 3.2-12.8 12.8l-4.8 35.2c-1.6 0-4.8 1.6-11.2 1.6s-9.6 0-11.2-1.6l-4.8-35.2c-1.6-9.6-9.6-12.8-12.8-12.8-8-1.6-14.4-4.8-20.8-8-4.8-3.2-12.8-4.8-19.2 0l-28.8 20.8c-1.6 0-3.2-1.6-9.6-8-4.8-4.8-6.4-8-8-9.6l20.8-28.8c6.4-8 1.6-16 0-19.2-3.2-6.4-6.4-12.8-8-20.8-1.6-3.2-3.2-11.2-12.8-12.8l-35.2-4.8c0-1.6-1.6-4.8-1.6-11.2s0-9.6 1.6-11.2l35.2-4.8c9.6-1.6 12.8-9.6 12.8-12.8 1.6-8 4.8-14.4 8-20.8 1.6-3.2 6.4-11.2 0-19.2l-20.8-28.8c0-1.6 1.6-4.8 8-9.6 4.8-4.8 8-6.4 9.6-8l28.8 20.8c6.4 4.8 14.4 3.2 19.2 0 6.4-3.2 12.8-6.4 20.8-8 3.2-1.6 11.2-3.2 12.8-12.8l4.8-35.2c1.6 0 4.8-1.6 11.2-1.6s9.6 0 11.2 1.6l4.8 35.2c1.6 9.6 9.6 12.8 12.8 12.8 8 1.6 14.4 4.8 20.8 8 4.8 3.2 12.8 4.8 19.2 0l28.8-20.8c1.6 0 3.2 1.6 9.6 8 4.8 4.8 6.4 8 8 9.6l-20.8 28.8c-6.4 8-1.6 16 0 19.2 3.2 6.4 6.4 12.8 8 20.8 1.6 3.2 3.2 11.2 12.8 12.8l35.2 4.8zM512 520c40 0 72-32 72-72s-32-72-72-72-72 32-72 72 32 72 72 72zM472 448c0-22.4 17.6-40 40-40s40 17.6 40 40c0 22.4-17.6 40-40 40s-40-17.6-40-40zM89.6 417.6l102.4 102.4 102.4-102.4-22.4-22.4-62.4 64v-11.2c0-168 136-304 304-304 134.4 0 248 86.4 288 208l25.6-25.6c-51.2-124.8-172.8-214.4-315.2-214.4-185.6 0-336 150.4-336 336v9.6l-62.4-64-24 24zM934.4 478.4l-102.4-100.8-102.4 102.4 22.4 22.4 62.4-62.4v8c0 168-136 304-304 304-134.4 0-248-86.4-288-208l-25.6 25.6c51.2 124.8 172.8 214.4 315.2 214.4 185.6 0 336-150.4 336-336v-9.6l62.4 62.4 24-22.4z" />
<glyph unicode="&#xe902;" glyph-name="auto-os-maintenance" d="M89.6 417.6l102.4 102.4 102.4-102.4-22.4-22.4-62.4 64v-11.2c0-168 136-304 304-304 134.4 0 248 86.4 288 208l25.6-25.6c-51.2-124.8-172.8-214.4-315.2-214.4-185.6 0-336 150.4-336 336v9.6l-62.4-64-24 24zM934.4 480l-102.4-102.4-102.4 102.4 22.4 22.4 62.4-64v9.6c0 168-136 304-304 304-134.4 0-248-86.4-288-208l-25.6 25.6c51.2 124.8 172.8 214.4 315.2 214.4 185.6 0 336-150.4 336-336v-9.6l62.4 64 24-22.4zM608 304c-4.8 0-11.2 0-16 1.6s-9.6 3.2-14.4 4.8c-4.8 1.6-9.6 4.8-12.8 8-4.8 3.2-8 6.4-11.2 9.6s-6.4 8-9.6 11.2c-3.2 4.8-4.8 9.6-8 12.8-1.6 4.8-3.2 9.6-4.8 14.4-3.2 6.4-3.2 12.8-3.2 17.6h32c0-3.2 0-6.4 1.6-9.6 0-3.2 1.6-6.4 3.2-9.6s3.2-6.4 4.8-8c1.6-3.2 3.2-4.8 6.4-6.4 1.6-1.6 4.8-4.8 6.4-6.4 3.2-1.6 4.8-3.2 8-4.8s6.4-1.6 9.6-3.2 12.8-1.6 19.2 0c3.2 0 6.4 1.6 9.6 3.2s4.8 3.2 8 4.8c3.2 1.6 4.8 3.2 6.4 6.4 1.6 1.6 4.8 4.8 6.4 6.4 1.6 3.2 3.2 4.8 4.8 8s1.6 6.4 3.2 9.6c0 3.2 1.6 6.4 1.6 9.6 0 35.2-16 40-41.6 46.4l-14.4 1.6-9.6 3.2c-25.6 6.4-65.6 16-65.6 76.8 0 4.8 0 11.2 1.6 16s3.2 9.6 4.8 14.4c1.6 4.8 4.8 9.6 8 12.8 3.2 4.8 6.4 8 9.6 11.2s8 6.4 11.2 9.6c4.8 3.2 9.6 4.8 12.8 8 4.8 1.6 9.6 3.2 14.4 4.8 11.2 1.6 22.4 1.6 32 0 4.8-1.6 9.6-3.2 14.4-4.8s9.6-4.8 12.8-8c4.8-3.2 8-6.4 11.2-9.6s6.4-8 9.6-11.2c3.2-4.8 4.8-9.6 8-14.4 1.6-4.8 3.2-9.6 4.8-14.4s1.6-11.2 1.6-16h-32c0 3.2 0 6.4-1.6 9.6 0 3.2-1.6 6.4-3.2 9.6s-3.2 4.8-4.8 8c-1.6 3.2-3.2 4.8-6.4 6.4-1.6 1.6-4.8 4.8-6.4 6.4-3.2 1.6-4.8 3.2-8 4.8s-6.4 1.6-9.6 3.2-12.8 1.6-19.2 0c-3.2 0-6.4-1.6-9.6-3.2s-6.4-3.2-8-4.8c-3.2-1.6-4.8-3.2-6.4-6.4-1.6-1.6-4.8-4.8-6.4-6.4-1.6-3.2-3.2-4.8-4.8-8s-1.6-6.4-3.2-9.6c0-3.2-1.6-6.4-1.6-9.6 0-35.2 16-40 41.6-46.4l11.2-3.2 9.6-3.2c25.6-6.4 65.6-16 65.6-76.8 0-4.8 0-11.2-1.6-16s-3.2-9.6-4.8-14.4c-1.6-4.8-4.8-9.6-8-12.8-3.2-4.8-6.4-8-9.6-11.2s-8-6.4-11.2-9.6c-4.8-3.2-9.6-4.8-14.4-8-4.8-1.6-9.6-3.2-14.4-4.8 1.6 0-4.8 0-9.6 0zM416 304c-44.8 0-80 35.2-80 80v128c0 44.8 35.2 80 80 80s80-35.2 80-80v-128c0-44.8-35.2-80-80-80zM416 560c-27.2 0-48-20.8-48-48v-128c0-27.2 20.8-48 48-48s48 20.8 48 48v128c0 27.2-20.8 48-48 48z" />
<glyph unicode="&#xe903;" glyph-name="auto-patching" d="M512 736c70.4-43.2 155.2-56 236.8-51.2v-251.2c0-136-118.4-236.8-236.8-275.2-118.4 38.4-236.8 139.2-236.8 275.2v251.2c81.6-4.8 166.4 8 236.8 51.2zM724.8 659.2c-72-1.6-147.2 11.2-212.8 48-65.6-36.8-140.8-49.6-212.8-48v-224c0-116.8 102.4-209.6 212.8-249.6 110.4 38.4 212.8 131.2 212.8 249.6v224zM592 441.6l-62.4-62.4 44.8-44.8c17.6-17.6 44.8-17.6 62.4 0s17.6 44.8 0 62.4l-44.8 44.8zM432 476.8l62.4 62.4-44.8 44.8c-17.6 17.6-44.8 17.6-62.4 0s-17.6-44.8 0-62.4l44.8-44.8zM369.6 414.4l44.8 44.8-44.8 44.8c-27.2 27.2-27.2 70.4 0 97.6s70.4 27.2 97.6 0l44.8-44.8 44.8 44.8c27.2 27.2 70.4 27.2 97.6 0s27.2-70.4 0-97.6l-44.8-44.8 44.8-44.8c27.2-27.2 27.2-70.4 0-97.6s-70.4-27.2-97.6 0l-44.8 46.4-44.8-44.8c-27.2-27.2-70.4-27.2-97.6 0-27.2 25.6-27.2 68.8 0 96zM592 476.8l44.8 44.8c17.6 17.6 17.6 44.8 0 62.4s-44.8 17.6-62.4 0l-44.8-44.8 62.4-62.4zM512 398.4l62.4 62.4-62.4 60.8-62.4-62.4 62.4-60.8zM387.2 396.8c-17.6-17.6-17.6-44.8 0-62.4s44.8-17.6 62.4 0l44.8 44.8-62.4 62.4-44.8-44.8zM587.2 396.8c0 6.4 4.8 12.8 12.8 12.8 6.4 0 12.8-4.8 12.8-12.8 0-6.4-4.8-12.8-12.8-12.8s-12.8 6.4-12.8 12.8zM600 360c0 6.4 4.8 12.8 12.8 12.8 6.4 0 12.8-4.8 12.8-12.8 0-6.4-4.8-12.8-12.8-12.8s-12.8 6.4-12.8 12.8zM561.6 372.8c0 6.4 4.8 12.8 12.8 12.8s12.8-4.8 12.8-12.8c0-6.4-4.8-12.8-12.8-12.8s-12.8 4.8-12.8 12.8zM424 560c0-6.4-4.8-12.8-12.8-12.8s-11.2 4.8-11.2 12.8 4.8 12.8 12.8 12.8 11.2-6.4 11.2-12.8zM462.4 547.2c0-6.4-4.8-12.8-12.8-12.8s-12.8 4.8-12.8 12.8 4.8 12.8 12.8 12.8 12.8-6.4 12.8-12.8zM436.8 521.6c0-6.4-4.8-12.8-12.8-12.8s-12.8 4.8-12.8 12.8 4.8 12.8 12.8 12.8 12.8-4.8 12.8-12.8zM611.2 547.2c-6.4 0-12.8 4.8-12.8 12.8s4.8 12.8 12.8 12.8c6.4 0 12.8-4.8 12.8-12.8s-4.8-12.8-12.8-12.8zM600 510.4c-6.4 0-12.8 4.8-12.8 12.8s4.8 12.8 12.8 12.8c6.4 0 12.8-4.8 12.8-12.8s-6.4-12.8-12.8-12.8zM574.4 534.4c-6.4 0-12.8 4.8-12.8 12.8s4.8 12.8 12.8 12.8 12.8-4.8 12.8-12.8-6.4-12.8-12.8-12.8zM412.8 372.8c6.4 0 12.8-4.8 12.8-12.8 0-6.4-4.8-12.8-12.8-12.8s-12.8 6.4-12.8 12.8c0 6.4 4.8 12.8 12.8 12.8zM424 409.6c6.4 0 12.8-4.8 12.8-12.8 0-6.4-4.8-12.8-12.8-12.8s-12.8 4.8-12.8 12.8c1.6 8 6.4 12.8 12.8 12.8zM449.6 384c6.4 0 12.8-4.8 12.8-12.8 0-6.4-4.8-12.8-12.8-12.8s-12.8 4.8-12.8 12.8c0 8 6.4 12.8 12.8 12.8zM924.8 452.8l-57.6 57.6-17.6-17.6 88-88 88 88-17.6 17.6-57.6-57.6c-4.8 240-198.4 432-438.4 432-212.8 0-390.4-152-428.8-355.2l22.4-22.4c28.8 200 200 353.6 406.4 353.6 225.6 0 409.6-182.4 412.8-408zM156.8 385.6l17.6 17.6-88 88-86.4-88 17.6-17.6 57.6 57.6c3.2-238.4 196.8-432 436.8-432 212.8 0 390.4 152 428.8 355.2l-22.4 22.4c-28.8-200-200-353.6-406.4-353.6-225.6 0-409.6 182.4-412.8 406.4l57.6-56z" />
<glyph unicode="&#xe904;" glyph-name="auto-process" d="M512 670.4c-123.2 0-224-100.8-224-224s100.8-224 224-224 224 100.8 224 224-100.8 224-224 224zM768 446.4c0-140.8-115.2-256-256-256s-256 115.2-256 256c0 140.8 115.2 256 256 256s256-115.2 256-256zM384 438.4c0 3.2 0 4.8 0 8 0 70.4 57.6 128 128 128 43.2 0 80-20.8 104-52.8l-11.2-11.2c-20.8 28.8-54.4 48-91.2 48-62.4 0-112-49.6-112-112 0-3.2 0-6.4 0-9.6l41.6 41.6 11.2-11.2-59.2-59.2-59.2 59.2 11.2 11.2 36.8-40zM512 334.4c62.4 0 112 49.6 112 112 0 3.2 0 6.4 0 9.6l-41.6-41.6-11.2 11.2 59.2 59.2 59.2-59.2-11.2-11.2-38.4 40c0-3.2 0-4.8 0-8 0-70.4-57.6-128-128-128-43.2 0-80 20.8-104 52.8l11.2 11.2c20.8-30.4 54.4-48 92.8-48z" />
<glyph unicode="&#xe905;" glyph-name="auto-protection" d="M427.2 401.6l-72-72-9.6-67.2 67.2 9.6 72 72 17.6-17.6-78.4-78.4-107.2-16 16 108.8 78.4 78.4 16-17.6zM609.6 468.8l41.6 41.6-19.2 19.2-41.6-41.6-17.6 17.6 41.6 41.6-19.2 19.2-41.6-41.6-19.2 19.2 41.6 41.6-28.8 28.8 17.6 17.6 48-48 57.6 57.6-9.6 9.6 17.6 17.6 75.2-75.2-19.2-17.6-9.6 9.6-57.6-57.6 48-48-19.2-16-28.8 28.8-41.6-41.6-16 17.6zM686.4 624l-19.2-19.2 19.2-19.2 19.2 19.2-19.2 19.2zM649.6 587.2l-19.2-19.2 19.2-19.2 19.2 19.2-19.2 19.2zM464 364.8l-75.2-75.2-17.6 17.6 75.2 75.2 17.6-17.6zM390.4 638.4l-28.8-28.8 44.8-44.8 65.6 65.6 17.6-17.6-28.8-28.8 224-224-36.8-36.8 78.4-78.4-17.6-17.6-78.4 78.4-36.8-36.8-224 224-30.4-28.8-17.6 17.6 65.6 65.6-43.2 44.8-28.8-28.8-17.6 17.6 75.2 75.2 17.6-17.6zM630.4 380.8l-28.8-28.8-17.6 17.6 28.8 28.8-19.2 19.2-28.8-28.8-17.6 17.6 28.8 28.8-19.2 19.2-28.8-28.8-17.6 17.6 28.8 28.8-19.2 19.2-30.4-27.2-17.6 17.6 28.8 28.8-20.8 19.2-28.8-28.8-17.6 17.6 28.8 28.8-19.2 19.2-57.6-57.6 208-204.8 57.6 57.6-20.8 19.2zM924.8 452.8l-57.6 57.6-17.6-17.6 88-88 88 88-17.6 17.6-57.6-57.6c-4.8 240-198.4 432-438.4 432-212.8 0-390.4-152-428.8-355.2l22.4-22.4c28.8 200 200 353.6 406.4 353.6 225.6 0 409.6-182.4 412.8-408zM156.8 385.6l17.6 17.6-88 88-86.4-88 17.6-17.6 57.6 57.6c3.2-238.4 196.8-432 436.8-432 212.8 0 390.4 152 428.8 355.2l-22.4 22.4c-28.8-200-200-353.6-406.4-353.6-225.6 0-409.6 182.4-412.8 406.4l57.6-56z" />
<glyph unicode="&#xe906;" glyph-name="auto-scripts" d="M512 860.8c-206.4 0-377.6-152-408-350.4l-22.4 22.4c40 200 217.6 352 430.4 352 240 0 433.6-193.6 436.8-432l57.6 57.6 17.6-17.6-88-88-88 88 17.6 17.6 57.6-57.6c-1.6 225.6-185.6 408-411.2 408zM156.8 385.6l17.6 17.6-88 88-86.4-88 17.6-17.6 57.6 57.6c3.2-238.4 196.8-432 436.8-432 212.8 0 390.4 152 428.8 355.2l-22.4 22.4c-28.8-200-200-353.6-406.4-353.6-225.6 0-409.6 182.4-412.8 406.4l57.6-56zM324.8 609.6v25.6c0 20.8 16 36.8 36.8 36.8s36.8-16 36.8-36.8c0-3.2 0-6.4-1.6-9.6l-4.8-16h-67.2zM424 260.8v25.6h275.2v-25.6c0-20.8-17.6-36.8-38.4-36.8h-248c6.4 9.6 11.2 22.4 11.2 36.8zM299.2 635.2v-49.6h88l-84.8-308.8c-1.6-4.8-1.6-9.6-1.6-16 0-35.2 27.2-62.4 62.4-62.4h299.2c35.2 0 62.4 27.2 62.4 62.4v49.6h-88l84.8 308.8c1.6 4.8 1.6 9.6 1.6 16 0 35.2-27.2 62.4-62.4 62.4h-299.2c-33.6 0-62.4-27.2-62.4-62.4zM400 310.4v-49.6c0-20.8-16-36.8-36.8-36.8s-36.8 16-36.8 36.8c0 3.2 0 6.4 1.6 9.6l96 348.8c1.6 4.8 1.6 9.6 1.6 16 0 14.4-4.8 27.2-12.8 36.8h249.6c20.8 0 36.8-16 36.8-36.8 0-3.2 0-6.4-1.6-9.6l-88-315.2h-209.6zM440 398.4h32l-38.4 49.6 36.8 49.6h-32l-35.2-49.6 36.8-49.6zM552 497.6l36.8-49.6-36.8-49.6h32l36.8 49.6-36.8 49.6h-32zM480 372.8h25.6l36.8 150.4h-25.6l-36.8-150.4z" />
<glyph unicode="&#xe907;" glyph-name="cl-autoscale" d="M107.2 587.2c0 139.2 112 251.2 251.2 251.2 110.4 0 204.8-72 238.4-171.2 25.6 12.8 52.8 19.2 83.2 19.2 104 0 187.2-83.2 187.2-187.2 0-19.2-3.2-36.8-8-54.4 88-19.2 153.6-97.6 153.6-192 0-108.8-88-195.2-195.2-195.2h-587.2c-120 0-219.2 97.6-219.2 219.2 0 86.4 51.2 161.6 123.2 196.8-17.6 33.6-27.2 72-27.2 113.6zM358.4 817.6c-126.4 0-230.4-102.4-230.4-230.4 0-38.4 9.6-73.6 25.6-105.6l9.6-17.6-19.2-9.6c-67.2-32-112-100.8-112-179.2 0-110.4 89.6-198.4 198.4-198.4h585.6c97.6 0 176 78.4 176 176 0 84.8-59.2 153.6-137.6 171.2l-20.8 4.8 6.4 20.8c4.8 16 8 32 8 49.6 0 92.8-75.2 166.4-166.4 166.4-27.2 0-51.2-6.4-73.6-17.6l-22.4-8-8 22.4c-30.4 89.6-116.8 155.2-219.2 155.2zM489.6 198.4l24-20.8h-102.4c-24 0-46.4 16-52.8 38.4l-44.8 152h-89.6l196.8 174.4 187.2-174.4h-84.8v-100.8h-52.8l102.4-86.4 102.4 86.4h-56l51.2 171.2c1.6 4.8 1.6 9.6 1.6 14.4 0 25.6-20.8 44.8-44.8 44.8h-129.6l-20.8 20.8h150.4c35.2 0 65.6-28.8 65.6-65.6 0-6.4-1.6-12.8-3.2-19.2l-44.8-145.6h83.2l-156.8-132.8-156.8 132.8h88v100.8h54.4l-134.4 126.4-144-126.4h51.2l49.6-166.4c4.8-14.4 17.6-24 33.6-24h76.8z" />
<glyph unicode="&#xe908;" glyph-name="cl-backup" d="M100.8 588.8c0 140.8 113.6 256 256 256 112 0 208-72 241.6-174.4 25.6 12.8 54.4 19.2 84.8 19.2 105.6 0 190.4-84.8 190.4-190.4 0-19.2-3.2-38.4-8-56 89.6-19.2 156.8-99.2 156.8-195.2 0-110.4-89.6-198.4-198.4-198.4h-598.4c-123.2 0-222.4 99.2-222.4 222.4 0 88 51.2 164.8 124.8 200-17.6 36.8-27.2 75.2-27.2 116.8zM356.8 824c-129.6 0-235.2-104-235.2-235.2 0-38.4 9.6-75.2 25.6-107.2l9.6-17.6-19.2-9.6c-67.2-32-113.6-102.4-113.6-182.4 0-112 89.6-201.6 201.6-201.6h596.8c99.2 0 179.2 80 179.2 179.2 0 84.8-59.2 156.8-140.8 174.4l-20.8 4.8 6.4 20.8c4.8 16 8 32 8 49.6 0 94.4-76.8 169.6-169.6 169.6-27.2 0-52.8-6.4-75.2-17.6l-20.8-9.6-8 22.4c-33.6 92.8-121.6 160-224 160zM624 520c62.4 0 112-49.6 112-112v-40h-20.8v40c0 51.2-41.6 91.2-91.2 91.2-51.2 0-91.2-41.6-91.2-91.2v-51.2h121.6l-233.6-184-235.2 184h121.6v51.2c0 62.4 49.6 112 112 112h204.8zM420.8 198.4l174.4 137.6h-83.2v72c0 38.4 19.2 72 48 91.2h-139.2c-51.2 0-91.2-41.6-91.2-91.2v-72h-83.2l174.4-137.6z" />
<glyph unicode="&#xe909;" glyph-name="cl-big-data" d="M100.8 588.8c0 140.8 113.6 256 256 256 112 0 208-72 241.6-174.4 25.6 12.8 54.4 19.2 84.8 19.2 105.6 0 190.4-84.8 190.4-190.4 0-19.2-3.2-38.4-8-56 89.6-19.2 156.8-99.2 156.8-195.2 0-110.4-89.6-198.4-198.4-198.4h-598.4c-123.2 0-222.4 99.2-222.4 222.4 0 88 51.2 164.8 124.8 200-17.6 36.8-27.2 75.2-27.2 116.8zM356.8 824c-129.6 0-235.2-104-235.2-235.2 0-38.4 9.6-75.2 25.6-107.2l9.6-17.6-19.2-9.6c-67.2-32-113.6-102.4-113.6-182.4 0-112 89.6-201.6 201.6-201.6h596.8c99.2 0 179.2 80 179.2 179.2 0 84.8-59.2 156.8-140.8 174.4l-20.8 4.8 6.4 20.8c4.8 16 8 32 8 49.6 0 94.4-76.8 169.6-169.6 169.6-27.2 0-52.8-6.4-75.2-17.6l-20.8-9.6-8 22.4c-33.6 92.8-121.6 160-224 160zM512 376h81.6v-203.2h-81.6v203.2zM572.8 356.8h-40v-163.2h40v163.2zM390.4 580.8h81.6v-406.4h-81.6v406.4zM451.2 560h-40v-366.4h40v366.4zM267.2 438.4h81.6v-264h-81.6v264zM329.6 417.6h-41.6v-224h40v224zM633.6 457.6h81.6v-284.8h-81.6v284.8zM694.4 438.4h-40v-244.8h40v244.8z" />
<glyph unicode="&#xe90a;" glyph-name="cl-block-storage" d="M100.8 588.8c0 140.8 113.6 256 256 256 112 0 208-72 241.6-174.4 25.6 12.8 54.4 19.2 84.8 19.2 105.6 0 190.4-84.8 190.4-190.4 0-19.2-3.2-38.4-8-56 89.6-19.2 156.8-99.2 156.8-195.2 0-110.4-89.6-198.4-198.4-198.4h-598.4c-123.2 0-222.4 99.2-222.4 222.4 0 88 51.2 164.8 124.8 200-17.6 36.8-27.2 75.2-27.2 116.8zM356.8 824c-129.6 0-235.2-104-235.2-235.2 0-38.4 9.6-75.2 25.6-107.2l9.6-17.6-19.2-9.6c-67.2-32-113.6-102.4-113.6-182.4 0-112 89.6-201.6 201.6-201.6h596.8c99.2 0 179.2 80 179.2 179.2 0 84.8-59.2 156.8-140.8 174.4l-20.8 4.8 6.4 20.8c4.8 16 8 32 8 49.6 0 94.4-76.8 169.6-169.6 169.6-27.2 0-52.8-6.4-75.2-17.6l-20.8-9.6-8 22.4c-33.6 92.8-121.6 160-224 160zM430.4 172.8v-20.8h-102.4v20.8h102.4zM654.4 233.6v305.6h-305.6v-305.6h305.6zM512 214.4v-22.4c11.2-4.8 20.8-16 20.8-28.8 0-17.6-14.4-30.4-30.4-30.4-17.6 0-30.4 14.4-30.4 30.4 0 12.8 8 24 20.8 28.8v22.4h-163.2v345.6h345.6v-345.6h-163.2zM624 387.2c0-67.2-54.4-121.6-121.6-121.6s-121.6 54.4-121.6 121.6 54.4 121.6 121.6 121.6 121.6-54.4 121.6-121.6zM502.4 284.8c56 0 102.4 44.8 102.4 102.4 0 56-44.8 102.4-102.4 102.4s-102.4-46.4-102.4-102.4c0-56 46.4-102.4 102.4-102.4zM502.4 438.4c28.8 0 51.2-22.4 51.2-51.2s-22.4-51.2-51.2-51.2c-28.8 0-51.2 22.4-51.2 51.2 0 27.2 22.4 51.2 51.2 51.2zM532.8 387.2c0 17.6-14.4 30.4-30.4 30.4-17.6 0-30.4-14.4-30.4-30.4 0-17.6 14.4-30.4 30.4-30.4s30.4 12.8 30.4 30.4zM675.2 172.8v-20.8h-102.4v20.8h102.4z" />
<glyph unicode="&#xe90b;" glyph-name="cl-cdn" d="M107.2 587.2c0 139.2 112 251.2 251.2 251.2 110.4 0 204.8-72 238.4-171.2 25.6 12.8 52.8 19.2 83.2 19.2 104 0 187.2-83.2 187.2-187.2 0-19.2-3.2-36.8-8-54.4 88-19.2 153.6-97.6 153.6-192 0-108.8-88-195.2-195.2-195.2h-587.2c-120 0-219.2 97.6-219.2 219.2 0 86.4 51.2 161.6 123.2 196.8-17.6 33.6-27.2 72-27.2 113.6zM358.4 817.6c-126.4 0-230.4-102.4-230.4-230.4 0-38.4 9.6-73.6 25.6-105.6l9.6-17.6-19.2-9.6c-67.2-32-112-100.8-112-179.2 0-110.4 89.6-198.4 198.4-198.4h585.6c97.6 0 176 78.4 176 176 0 84.8-59.2 153.6-137.6 171.2l-20.8 4.8 6.4 20.8c4.8 16 8 32 8 49.6 0 92.8-75.2 166.4-166.4 166.4-27.2 0-51.2-6.4-73.6-17.6l-22.4-8-8 22.4c-30.4 89.6-116.8 155.2-219.2 155.2zM712 358.4c0 20.8-14.4 36.8-33.6 40-16 73.6-73.6 131.2-147.2 147.2-3.2 19.2-19.2 33.6-40 33.6s-36.8-14.4-40-33.6c-73.6-16-131.2-73.6-147.2-147.2-19.2-3.2-33.6-19.2-33.6-40s14.4-36.8 33.6-40c16-73.6 73.6-131.2 147.2-147.2 3.2-19.2 19.2-33.6 40-33.6s36.8 14.4 40 33.6c73.6 16 131.2 73.6 147.2 147.2 19.2 3.2 33.6 19.2 33.6 40zM636.8 448c9.6-16 17.6-33.6 20.8-52.8-11.2-4.8-20.8-14.4-24-27.2h-38.4c-1.6 28.8-4.8 56-11.2 80h52.8zM620.8 468.8h-44.8c-8 20.8-17.6 36.8-28.8 49.6 30.4-9.6 54.4-27.2 73.6-49.6zM524.8 201.6c-4.8 8-12.8 12.8-22.4 14.4v32h52.8c-8-20.8-19.2-36.8-30.4-46.4zM459.2 201.6c-11.2 11.2-22.4 27.2-30.4 46.4h52.8v-32c-8-1.6-16-8-22.4-14.4zM459.2 513.6c4.8-8 12.8-12.8 22.4-14.4v-32h-52.8c8 20.8 19.2 36.8 30.4 46.4zM524.8 513.6c11.2-11.2 22.4-27.2 30.4-46.4h-52.8v32c8 3.2 16 8 22.4 14.4zM481.6 448v-80h-73.6c1.6 28.8 4.8 56 12.8 80h60.8zM481.6 347.2v-80h-60.8c-8 24-12.8 51.2-12.8 80h73.6zM502.4 267.2v80h73.6c-1.6-28.8-4.8-56-12.8-80h-60.8zM502.4 368v80h60.8c8-24 12.8-51.2 12.8-80h-73.6zM435.2 518.4c-11.2-12.8-20.8-30.4-28.8-49.6h-44.8c20.8 22.4 44.8 40 73.6 49.6zM400 448c-6.4-24-11.2-51.2-11.2-80h-38.4c-3.2 12.8-12.8 22.4-24 27.2 4.8 19.2 11.2 36.8 20.8 52.8h52.8zM347.2 267.2c-9.6 16-17.6 33.6-20.8 52.8 11.2 4.8 20.8 14.4 24 27.2h38.4c1.6-28.8 4.8-56 11.2-80h-52.8zM363.2 248h44.8c8-20.8 17.6-36.8 28.8-49.6-30.4 9.6-54.4 27.2-73.6 49.6zM548.8 196.8c11.2 12.8 20.8 30.4 28.8 49.6h44.8c-20.8-20.8-44.8-38.4-73.6-49.6zM584 267.2c6.4 24 11.2 51.2 11.2 80h38.4c3.2-12.8 12.8-22.4 24-27.2-4.8-19.2-11.2-36.8-20.8-52.8h-52.8z" />
<glyph unicode="&#xe90c;" glyph-name="cl-control-panel" d="M100.8 588.8c0 140.8 113.6 256 256 256 112 0 208-72 241.6-174.4 25.6 12.8 54.4 19.2 84.8 19.2 105.6 0 190.4-84.8 190.4-190.4 0-19.2-3.2-38.4-8-56 89.6-19.2 156.8-99.2 156.8-195.2 0-110.4-89.6-198.4-198.4-198.4h-598.4c-123.2 0-222.4 99.2-222.4 222.4 0 88 51.2 164.8 124.8 200-17.6 36.8-27.2 75.2-27.2 116.8zM356.8 824c-129.6 0-235.2-104-235.2-235.2 0-38.4 9.6-75.2 25.6-107.2l9.6-17.6-19.2-9.6c-67.2-32-113.6-102.4-113.6-182.4 0-112 89.6-201.6 201.6-201.6h596.8c99.2 0 179.2 80 179.2 179.2 0 84.8-59.2 156.8-140.8 174.4l-20.8 4.8 6.4 20.8c4.8 16 8 32 8 49.6 0 94.4-76.8 169.6-169.6 169.6-27.2 0-52.8-6.4-75.2-17.6l-20.8-9.6-8 22.4c-33.6 92.8-121.6 160-224 160zM369.6 560v-81.6h60.8v-81.6h-60.8v-224h-20.8v224h-60.8v81.6h60.8v81.6h20.8zM308.8 457.6v-40h102.4v40h-102.4zM593.6 457.6v-40h102.4v40h-102.4zM654.4 560v-81.6h60.8v-81.6h-60.8v-224h-20.8v224h-60.8v81.6h60.8v81.6h20.8zM552 275.2v40h-102.4v-40h102.4zM491.2 172.8v81.6h-60.8v81.6h60.8v224h20.8v-224h60.8v-81.6h-60.8v-81.6h-20.8z" />
<glyph unicode="&#xe90d;" glyph-name="cl-databases" d="M100.8 588.8c0 140.8 113.6 256 256 256 112 0 208-72 241.6-174.4 25.6 12.8 54.4 19.2 84.8 19.2 105.6 0 190.4-84.8 190.4-190.4 0-19.2-3.2-38.4-8-56 89.6-19.2 156.8-99.2 156.8-195.2 0-110.4-89.6-198.4-198.4-198.4h-598.4c-123.2 0-222.4 99.2-222.4 222.4 0 88 51.2 164.8 124.8 200-17.6 36.8-27.2 75.2-27.2 116.8zM356.8 824c-129.6 0-235.2-104-235.2-235.2 0-38.4 9.6-75.2 25.6-107.2l9.6-17.6-19.2-9.6c-67.2-32-113.6-102.4-113.6-182.4 0-112 89.6-201.6 201.6-201.6h596.8c99.2 0 179.2 80 179.2 179.2 0 84.8-59.2 156.8-140.8 174.4l-20.8 4.8 6.4 20.8c4.8 16 8 32 8 49.6 0 94.4-76.8 169.6-169.6 169.6-27.2 0-52.8-6.4-75.2-17.6l-20.8-9.6-8 22.4c-33.6 92.8-121.6 160-224 160zM308.8 528c43.2 27.2 136 32 184 32 25.6 0 203.2-4.8 203.2-60.8v-264c0-56-177.6-60.8-203.2-60.8s-203.2 4.8-203.2 60.8v264c-1.6 12.8 8 22.4 19.2 28.8zM318.4 510.4c-9.6-6.4-9.6-9.6-9.6-11.2 0-11.2 41.6-24 49.6-25.6 33.6-9.6 81.6-14.4 134.4-14.4 41.6 0 134.4 4.8 172.8 28.8 9.6 6.4 9.6 9.6 9.6 11.2 0 11.2-41.6 24-49.6 25.6-33.6 9.6-81.6 14.4-134.4 14.4-41.6 0-132.8-4.8-172.8-28.8zM308.8 411.2c0-11.2 41.6-24 49.6-25.6 33.6-9.6 81.6-14.4 134.4-14.4 41.6 0 134.4 4.8 172.8 28.8 9.6 6.4 9.6 9.6 9.6 11.2v59.2c-48-28.8-163.2-32-182.4-32-20.8 0-136 3.2-182.4 32v-59.2zM308.8 323.2c0-11.2 41.6-24 49.6-25.6 33.6-9.6 81.6-14.4 134.4-14.4 41.6 0 134.4 4.8 172.8 28.8 9.6 6.4 9.6 9.6 9.6 11.2v59.2c-48-28.8-163.2-32-182.4-32-20.8 0-136 3.2-182.4 32v-59.2zM675.2 292.8c-48-28.8-163.2-32-182.4-32-20.8 0-136 3.2-182.4 32v-59.2c0-11.2 41.6-24 49.6-25.6 33.6-9.6 81.6-14.4 134.4-14.4 41.6 0 134.4 4.8 172.8 28.8 9.6 6.4 9.6 9.6 9.6 11.2v59.2z" />
<glyph unicode="&#xe90e;" glyph-name="cl-dns" d="M859.2 444.8c4.8 17.6 8 35.2 8 54.4 0 104-83.2 187.2-187.2 187.2-30.4 0-57.6-6.4-83.2-19.2-33.6 99.2-128 171.2-238.4 171.2-139.2 0-251.2-112-251.2-251.2 0-41.6 9.6-80 27.2-113.6-73.6-35.2-123.2-110.4-123.2-196.8 0-120 97.6-219.2 219.2-219.2h585.6c108.8 0 195.2 88 195.2 195.2 1.6 94.4-64 172.8-152 192zM816 78.4h-585.6c-110.4 0-198.4 88-198.4 198.4 0 78.4 46.4 147.2 112 179.2l19.2 9.6-9.6 17.6c-16 32-25.6 67.2-25.6 105.6 0 128 104 232 232 232 102.4 0 188.8-65.6 219.2-156.8l8-22.4 20.8 9.6c22.4 11.2 48 17.6 73.6 17.6 92.8 0 166.4-75.2 166.4-166.4 0-17.6-3.2-33.6-8-49.6l-6.4-20.8 20.8-4.8c78.4-17.6 137.6-88 137.6-171.2 0-99.2-78.4-177.6-176-177.6zM587.2 363.2l70.4 84.8h96v20.8h-105.6l-73.6-89.6-68.8 83.2 72 86.4h96v20.8h-105.6l-75.2-91.2-76.8 89.6h-105.6v-20.8h96l72-86.4-68.8-83.2-73.6 91.2h-105.6v-20.8h96l70.4-84.8-70.4-84.8h-96v-20.8h105.6l73.6 89.6 68.8-83.2-72-86.4h-96v-20.8h105.6l75.2 91.2 75.2-91.2h105.6v20.8h-96l-72 86.4 68.8 83.2 73.6-89.6h105.6v20.8h-96l-68.8 84.8zM492.8 280l-68.8 83.2 68.8 83.2 68.8-83.2-68.8-83.2z" />
<glyph unicode="&#xe90f;" glyph-name="cl-email" d="M100.8 588.8c0 140.8 113.6 256 256 256 112 0 208-72 241.6-174.4 25.6 12.8 54.4 19.2 84.8 19.2 105.6 0 190.4-84.8 190.4-190.4 0-19.2-3.2-38.4-8-56 89.6-19.2 156.8-99.2 156.8-195.2 0-110.4-89.6-198.4-198.4-198.4h-598.4c-123.2 0-222.4 99.2-222.4 222.4 0 88 51.2 164.8 124.8 200-17.6 36.8-27.2 75.2-27.2 116.8zM356.8 824c-129.6 0-235.2-104-235.2-235.2 0-38.4 9.6-75.2 25.6-107.2l9.6-17.6-19.2-9.6c-67.2-32-113.6-102.4-113.6-182.4 0-112 89.6-201.6 201.6-201.6h596.8c99.2 0 179.2 80 179.2 179.2 0 84.8-59.2 156.8-140.8 174.4l-20.8 4.8 6.4 20.8c4.8 16 8 32 8 49.6 0 94.4-76.8 169.6-169.6 169.6-27.2 0-52.8-6.4-75.2-17.6l-20.8-9.6-8 22.4c-33.6 92.8-121.6 160-224 160zM441.6 329.6l-142.4-115.2h384l-142.4 115.2-49.6-35.2-49.6 35.2zM288 230.4l136 110.4-136 97.6v-208zM288 464l203.2-145.6 203.2 145.6v14.4h-406.4v-14.4zM694.4 438.4l-136-97.6 136-110.4v208zM715.2 499.2v-305.6h-448v305.6h448z" />
<glyph unicode="&#xe910;" glyph-name="cl-email-archive" d="M100.8 588.8c0 140.8 113.6 256 256 256 112 0 208-72 241.6-174.4 25.6 12.8 54.4 19.2 84.8 19.2 105.6 0 190.4-84.8 190.4-190.4 0-19.2-3.2-38.4-8-56 89.6-19.2 156.8-99.2 156.8-195.2 0-110.4-89.6-198.4-198.4-198.4h-598.4c-123.2 0-222.4 99.2-222.4 222.4 0 88 51.2 164.8 124.8 200-17.6 36.8-27.2 75.2-27.2 116.8zM356.8 824c-129.6 0-235.2-104-235.2-235.2 0-38.4 9.6-75.2 25.6-107.2l9.6-17.6-19.2-9.6c-67.2-32-113.6-102.4-113.6-182.4 0-112 89.6-201.6 201.6-201.6h596.8c99.2 0 179.2 80 179.2 179.2 0 84.8-59.2 156.8-140.8 174.4l-20.8 4.8 6.4 20.8c4.8 16 8 32 8 49.6 0 94.4-76.8 169.6-169.6 169.6-27.2 0-52.8-6.4-75.2-17.6l-20.8-9.6-8 22.4c-33.6 92.8-121.6 160-224 160zM715.2 478.4h-284.8v40h-142.4v-326.4h427.2v286.4zM451.2 499.2h284.8v-326.4h-468.8v366.4h182.4v-40zM654.4 438.4v-203.2h-305.6v203.2h305.6zM633.6 281.6v99.2l-65.6-46.4 65.6-52.8zM369.6 254.4h264l-81.6 67.2-49.6-35.2-49.6 35.2-83.2-67.2zM369.6 379.2v-99.2l65.6 52.8-65.6 46.4zM633.6 417.6h-264v-12.8l132.8-94.4 132.8 94.4v12.8z" />
<glyph unicode="&#xe911;" glyph-name="cl-files" d="M100.8 588.8c0 140.8 113.6 256 256 256 112 0 208-72 241.6-174.4 25.6 12.8 54.4 19.2 84.8 19.2 105.6 0 190.4-84.8 190.4-190.4 0-19.2-3.2-38.4-8-56 89.6-19.2 156.8-99.2 156.8-195.2 0-110.4-89.6-198.4-198.4-198.4h-598.4c-123.2 0-222.4 99.2-222.4 222.4 0 88 51.2 164.8 124.8 200-17.6 36.8-27.2 75.2-27.2 116.8zM356.8 824c-129.6 0-235.2-104-235.2-235.2 0-38.4 9.6-75.2 25.6-107.2l9.6-17.6-19.2-9.6c-67.2-32-113.6-102.4-113.6-182.4 0-112 89.6-201.6 201.6-201.6h596.8c99.2 0 179.2 80 179.2 179.2 0 84.8-59.2 156.8-140.8 174.4l-20.8 4.8 6.4 20.8c4.8 16 8 32 8 49.6 0 94.4-76.8 169.6-169.6 169.6-27.2 0-52.8-6.4-75.2-17.6l-20.8-9.6-8 22.4c-33.6 92.8-121.6 160-224 160zM633.6 438.4l-121.6 120v-121.6h121.6zM491.2 560h-142.4v-366.4h284.8v224h-142.4v142.4zM520 580.8l134.4-134.4v-272h-324.8v406.4h190.4z" />
<glyph unicode="&#xe912;" glyph-name="cl-hybrid" d="M592 556.8c0 8 6.4 14.4 14.4 14.4s14.4-6.4 14.4-14.4c0-8-6.4-14.4-14.4-14.4-8-1.6-14.4 4.8-14.4 14.4zM592 366.4c0 8 6.4 14.4 14.4 14.4s14.4-6.4 14.4-14.4c0-8-6.4-14.4-14.4-14.4-8-1.6-14.4 6.4-14.4 14.4zM912 460.8c0 57.6-33.6 108.8-83.2 131.2 19.2 51.2 8 110.4-33.6 152s-100.8 52.8-152 33.6c-22.4 49.6-73.6 83.2-131.2 83.2s-108.8-33.6-131.2-83.2c-51.2 19.2-110.4 8-152-33.6s-52.8-100.8-33.6-152c-49.6-22.4-83.2-72-83.2-131.2s33.6-108.8 83.2-131.2c-19.2-51.2-8-110.4 33.6-152s100.8-52.8 152-33.6c22.4-49.6 73.6-83.2 131.2-83.2s108.8 33.6 131.2 83.2c51.2-19.2 110.4-8 152 33.6s52.8 100.8 33.6 152c49.6 24 83.2 73.6 83.2 131.2zM502.4 81.6c-52.8 4.8-96 41.6-110.4 89.6-17.6-9.6-38.4-16-60.8-16-33.6 0-65.6 12.8-88 36.8-40 40-46.4 100.8-20.8 148.8-52.8 14.4-89.6 62.4-89.6 120s38.4 105.6 89.6 120c-25.6 48-19.2 108.8 20.8 148.8 24 24 54.4 36.8 88 36.8 20.8 0 41.6-4.8 60.8-16 14.4 49.6 57.6 86.4 110.4 89.6v-219.2h-171.2v-129.6h169.6v-60.8h-169.6v-129.6h169.6v-219.2zM672 601.6v-89.6h-320v89.6h320zM352 321.6v89.6h320v-89.6h-320zM801.6 340.8c25.6-48 19.2-108.8-20.8-148.8-24-24-54.4-36.8-88-36.8-20.8 0-41.6 4.8-60.8 16-14.4-49.6-57.6-86.4-110.4-89.6v219.2h169.6v129.6h-169.6v60.8h169.6v129.6h-169.6v220.8c52.8-4.8 96-41.6 110.4-89.6 17.6 9.6 38.4 16 60.8 16 33.6 0 65.6-12.8 88-36.8 40-40 46.4-100.8 20.8-148.8 52.8-14.4 89.6-62.4 89.6-120s-36.8-105.6-89.6-121.6z" />
<glyph unicode="&#xe913;" glyph-name="cl-images" d="M100.8 588.8c0 140.8 113.6 256 256 256 112 0 208-72 241.6-174.4 25.6 12.8 54.4 19.2 84.8 19.2 105.6 0 190.4-84.8 190.4-190.4 0-19.2-3.2-38.4-8-56 89.6-19.2 156.8-99.2 156.8-195.2 0-110.4-89.6-198.4-198.4-198.4h-598.4c-123.2 0-222.4 99.2-222.4 222.4 0 88 51.2 164.8 124.8 200-17.6 36.8-27.2 75.2-27.2 116.8zM356.8 824c-129.6 0-235.2-104-235.2-235.2 0-38.4 9.6-75.2 25.6-107.2l9.6-17.6-19.2-9.6c-67.2-32-113.6-102.4-113.6-182.4 0-112 89.6-201.6 201.6-201.6h596.8c99.2 0 179.2 80 179.2 179.2 0 84.8-59.2 156.8-140.8 174.4l-20.8 4.8 6.4 20.8c4.8 16 8 32 8 49.6 0 94.4-76.8 169.6-169.6 169.6-27.2 0-52.8-6.4-75.2-17.6l-20.8-9.6-8 22.4c-33.6 92.8-121.6 160-224 160zM675.2 539.2h-366.4v-366.4h366.4v366.4zM288 560h406.4v-406.4h-406.4v406.4zM348.8 275.2h284.8v224h-284.8v-224zM654.4 254.4h-324.8v265.6h326.4v-265.6zM512 432c6.4 4.8 14.4 6.4 22.4 6.4 22.4 0 40-17.6 40-40 0-8-1.6-14.4-6.4-20.8 1.6 0 3.2 0 6.4 0 22.4 0 40-17.6 40-40s-17.6-40-40-40h-163.2c-22.4 0-40 17.6-40 40 0 20.8 16 38.4 36.8 40-9.6 11.2-16 25.6-16 41.6 0 33.6 27.2 60.8 60.8 60.8 28.8-1.6 52.8-20.8 59.2-48z" />
<glyph unicode="&#xe914;" glyph-name="cl-load-balancers" d="M100.8 588.8c0 140.8 113.6 256 256 256 112 0 208-72 241.6-174.4 25.6 12.8 54.4 19.2 84.8 19.2 105.6 0 190.4-84.8 190.4-190.4 0-19.2-3.2-38.4-8-56 89.6-19.2 156.8-99.2 156.8-195.2 0-110.4-89.6-198.4-198.4-198.4h-598.4c-123.2 0-222.4 99.2-222.4 222.4 0 88 51.2 164.8 124.8 200-17.6 36.8-27.2 75.2-27.2 116.8zM356.8 824c-129.6 0-235.2-104-235.2-235.2 0-38.4 9.6-75.2 25.6-107.2l9.6-17.6-19.2-9.6c-67.2-32-113.6-102.4-113.6-182.4 0-112 89.6-201.6 201.6-201.6h596.8c99.2 0 179.2 80 179.2 179.2 0 84.8-59.2 156.8-140.8 174.4l-20.8 4.8 6.4 20.8c4.8 16 8 32 8 49.6 0 94.4-76.8 169.6-169.6 169.6-27.2 0-52.8-6.4-75.2-17.6l-20.8-9.6-8 22.4c-33.6 92.8-121.6 160-224 160zM491.2 275.2v-52.8c17.6-4.8 30.4-20.8 30.4-40 0-22.4-17.6-40-40-40s-40 17.6-40 40c0 19.2 12.8 35.2 30.4 40v52.8c-35.2 4.8-60.8 35.2-60.8 70.4 0 9.6 1.6 17.6 4.8 27.2l-88 51.2c-9.6-17.6-14.4-36.8-17.6-54.4l-48 104 115.2 9.6c-14.4-11.2-28.8-25.6-38.4-41.6l88-51.2c11.2 14.4 27.2 24 46.4 27.2v102.4c-19.2-1.6-38.4-4.8-56-12.8l65.6 94.4 65.6-94.4c-17.6 8-36.8 11.2-56 12.8v-104c19.2-3.2 35.2-12.8 46.4-27.2l88 51.2c-11.2 16-24 30.4-38.4 41.6l115.2-9.6-48-104c-3.2 19.2-8 36.8-17.6 54.4l-88-51.2c3.2-8 4.8-17.6 4.8-25.6-3.2-35.2-28.8-65.6-64-70.4zM481.6 296c28.8 0 51.2 22.4 51.2 51.2s-22.4 51.2-51.2 51.2-51.2-22.4-51.2-51.2c0-28.8 22.4-51.2 51.2-51.2z" />
<glyph unicode="&#xe915;" glyph-name="cl-monitoring" d="M100.8 628.8c0 140.8 113.6 256 256 256 112 0 208-72 241.6-174.4 25.6 12.8 54.4 19.2 84.8 19.2 105.6 0 190.4-84.8 190.4-190.4 0-19.2-3.2-38.4-8-56 89.6-19.2 156.8-99.2 156.8-195.2 0-110.4-89.6-198.4-198.4-198.4h-598.4c-123.2 0-222.4 99.2-222.4 222.4 0 88 51.2 164.8 124.8 200-17.6 35.2-27.2 73.6-27.2 116.8zM356.8 862.4c-129.6 0-235.2-105.6-235.2-235.2 0-38.4 9.6-75.2 25.6-107.2l9.6-19.2-19.2-9.6c-67.2-32-113.6-102.4-113.6-182.4 0-112 89.6-201.6 201.6-201.6h596.8c99.2 0 179.2 80 179.2 179.2 0 84.8-59.2 156.8-140.8 174.4l-20.8 4.8 6.4 20.8c4.8 16 8 32 8 49.6 0 94.4-76.8 169.6-169.6 169.6-27.2 0-52.8-6.4-75.2-17.6l-20.8-9.6-9.6 25.6c-32 92.8-120 158.4-222.4 158.4zM288 395.2c0 112 91.2 203.2 203.2 203.2s203.2-91.2 203.2-203.2c0-112-91.2-203.2-203.2-203.2s-203.2 91.2-203.2 203.2zM673.6 416h-80l-27.2-81.6h-20.8l-49.6 150.4-62.4-190.4h-20.8l-27.2 81.6h-78.4c9.6-91.2 88-163.2 182.4-163.2 100.8 0 182.4 81.6 182.4 182.4 3.2 6.4 3.2 14.4 1.6 20.8zM508.8 516.8l49.6-150.4 22.4 68.8h91.2c-19.2 81.6-91.2 142.4-179.2 142.4-100.8 0-182.4-81.6-182.4-182.4h94.4l22.4-68.8 62.4 190.4h19.2z" />
<glyph unicode="&#xe916;" glyph-name="cl-networks" d="M100.8 588.8c0 140.8 113.6 256 256 256 112 0 208-72 241.6-174.4 25.6 12.8 54.4 19.2 84.8 19.2 105.6 0 190.4-84.8 190.4-190.4 0-19.2-3.2-38.4-8-56 89.6-19.2 156.8-99.2 156.8-195.2 0-110.4-89.6-198.4-198.4-198.4h-598.4c-123.2 0-222.4 99.2-222.4 222.4 0 88 51.2 164.8 124.8 200-17.6 36.8-27.2 75.2-27.2 116.8zM356.8 824c-129.6 0-235.2-104-235.2-235.2 0-38.4 9.6-75.2 25.6-107.2l9.6-17.6-19.2-9.6c-67.2-32-113.6-102.4-113.6-182.4 0-112 89.6-201.6 201.6-201.6h596.8c99.2 0 179.2 80 179.2 179.2 0 84.8-59.2 156.8-140.8 174.4l-20.8 4.8 6.4 20.8c4.8 16 8 32 8 49.6 0 94.4-76.8 169.6-169.6 169.6-27.2 0-52.8-6.4-75.2-17.6l-20.8-9.6-8 22.4c-33.6 92.8-121.6 160-224 160zM675.2 214.4h102.4v60.8h-102.4v-60.8zM451.2 214.4h102.4v60.8h-102.4v-60.8zM348.8 499.2h102.4v60.8h-102.4v-60.8zM227.2 214.4h102.4v60.8h-102.4v-60.8zM409.6 478.4v-81.6h326.4v-102.4h60.8v-102.4h-142.4v102.4h60.8v81.6h-203.2v-81.6h60.8v-102.4h-142.4v102.4h60.8v81.6h-203.2v-81.6h60.8v-102.4h-142.4v102.4h60.8v102.4h121.6v81.6h-60.8v102.4h142.4v-102.4h-60.8z" />
<glyph unicode="&#xe917;" glyph-name="cl-office" d="M107.2 587.2c0 139.2 112 251.2 251.2 251.2 110.4 0 204.8-72 238.4-171.2 25.6 12.8 52.8 19.2 83.2 19.2 104 0 187.2-83.2 187.2-187.2 0-19.2-3.2-36.8-8-54.4 88-19.2 153.6-97.6 153.6-192 0-108.8-88-195.2-195.2-195.2h-587.2c-120 0-219.2 97.6-219.2 219.2 0 86.4 51.2 161.6 123.2 196.8-17.6 33.6-27.2 72-27.2 113.6zM358.4 817.6c-126.4 0-230.4-102.4-230.4-230.4 0-38.4 9.6-73.6 25.6-105.6l9.6-17.6-19.2-9.6c-67.2-32-112-100.8-112-179.2 0-110.4 89.6-198.4 198.4-198.4h585.6c97.6 0 176 78.4 176 176 0 84.8-59.2 153.6-137.6 171.2l-20.8 4.8 6.4 20.8c4.8 16 8 32 8 49.6 0 92.8-75.2 166.4-166.4 166.4-27.2 0-51.2-6.4-73.6-17.6l-22.4-8-8 22.4c-30.4 89.6-116.8 155.2-219.2 155.2zM652.8 368v120h-100.8v48l-83.2 83.2h-128v-129.6h-80v-260.8h80v-64l64 64h86.4v-49.6h270.4v188.8h-108.8zM627.2 260.8l-108.8 88h217.6l-108.8-88zM512 326.4l75.2-60.8-75.2-57.6v118.4zM603.2 254.4l24-19.2 24 19.2 72-56h-192l72 56zM667.2 267.2l75.2 60.8v-120l-75.2 59.2zM632 468.8v-100.8h-80v100.8h80zM462.4 596.8l68.8-68.8h-68.8v68.8zM361.6 598.4h80v-89.6h89.6v-140.8h-169.6v230.4zM398.4 248l-35.2-35.2v35.2h-80v220.8h60.8v-120h150.4v-100.8h-96z" />
<glyph unicode="&#xe918;" glyph-name="cl-orchestration" d="M100.8 588.8c0 140.8 113.6 256 256 256 112 0 208-72 241.6-174.4 25.6 12.8 54.4 19.2 84.8 19.2 105.6 0 190.4-84.8 190.4-190.4 0-19.2-3.2-38.4-8-56 89.6-19.2 156.8-99.2 156.8-195.2 0-110.4-89.6-198.4-198.4-198.4h-598.4c-123.2 0-222.4 99.2-222.4 222.4 0 88 51.2 164.8 124.8 200-17.6 36.8-27.2 75.2-27.2 116.8zM356.8 824c-129.6 0-235.2-104-235.2-235.2 0-38.4 9.6-75.2 25.6-107.2l9.6-17.6-19.2-9.6c-67.2-32-113.6-102.4-113.6-182.4 0-112 89.6-201.6 201.6-201.6h596.8c99.2 0 179.2 80 179.2 179.2 0 84.8-59.2 156.8-140.8 174.4l-20.8 4.8 6.4 20.8c4.8 16 8 32 8 49.6 0 94.4-76.8 169.6-169.6 169.6-27.2 0-52.8-6.4-75.2-17.6l-20.8-9.6-8 22.4c-33.6 92.8-121.6 160-224 160zM328 360l81.6 46.4-46.4 27.2c-59.2 33.6-78.4 108.8-44.8 166.4 33.6 59.2 108.8 78.4 166.4 44.8l-9.6-17.6c-48 28.8-110.4 11.2-139.2-36.8s-11.2-110.4 36.8-139.2l46.4-27.2v94.4h20.8v-118.4l-102.4-59.2-9.6 19.2zM521.6 425.6l46.4 27.2c57.6 33.6 132.8 14.4 166.4-44.8 33.6-57.6 14.4-132.8-44.8-166.4l-9.6 17.6c48 28.8 65.6 89.6 36.8 139.2-28.8 48-89.6 65.6-139.2 36.8l-46.4-27.2 81.6-46.4-9.6-17.6-102.4 59.2v118.4h20.8v-96zM481.6 328v-54.4c0-67.2-54.4-121.6-121.6-121.6s-121.6 54.4-121.6 121.6h20.8c0-56 44.8-102.4 102.4-102.4s102.4 44.8 102.4 102.4v54.4l-81.6-46.4-9.6 17.6 102.4 59.2 102.4-59.2-9.6-17.6-86.4 46.4z" />
<glyph unicode="&#xe919;" glyph-name="cl-private-cloud" d="M100.8 588.8c0 140.8 113.6 256 256 256 112 0 208-72 241.6-174.4 25.6 12.8 54.4 19.2 84.8 19.2 105.6 0 190.4-84.8 190.4-190.4 0-19.2-3.2-38.4-8-56 89.6-19.2 156.8-99.2 156.8-195.2 0-110.4-89.6-198.4-198.4-198.4h-598.4c-123.2 0-222.4 99.2-222.4 222.4 0 88 51.2 164.8 124.8 200-17.6 36.8-27.2 75.2-27.2 116.8zM356.8 824c-129.6 0-235.2-104-235.2-235.2 0-38.4 9.6-75.2 25.6-107.2l9.6-17.6-19.2-9.6c-67.2-32-113.6-102.4-113.6-182.4 0-112 89.6-201.6 201.6-201.6h596.8c99.2 0 179.2 80 179.2 179.2 0 84.8-59.2 156.8-140.8 174.4l-20.8 4.8 6.4 20.8c4.8 16 8 32 8 49.6 0 94.4-76.8 169.6-169.6 169.6-27.2 0-52.8-6.4-75.2-17.6l-20.8-9.6-8 22.4c-33.6 92.8-121.6 160-224 160zM472 376h268.8l-20.8 41.6h-254.4l-30.4 60.8h-131.2l-56-112 56-112h129.6l30.4 60.8h54.4l9.6 20.8h48l9.6-20.8h35.2l9.6 20.8h46.4l9.6-20.8h32l20.8 40h-267.2v20.8zM292.8 499.2h155.2l30.4-60.8h254.4l35.2-72-35.2-72h-57.6l-9.6 20.8h-20.8l-9.6-20.8h-60.8l-9.6 20.8h-20.8l-9.6-20.8h-54.4l-30.4-60.8h-155.2l-65.6 132.8 64 132.8zM348.8 315.2v102.4h-14.4l-25.6-51.2 25.6-51.2h14.4zM369.6 296h-46.4l-35.2 72 35.2 72h46.4v-144z" />
<glyph unicode="&#xe91a;" glyph-name="cl-queues" d="M100.8 588.8c0 140.8 113.6 256 256 256 112 0 208-72 241.6-174.4 25.6 12.8 54.4 19.2 84.8 19.2 105.6 0 190.4-84.8 190.4-190.4 0-19.2-3.2-38.4-8-56 89.6-19.2 156.8-99.2 156.8-195.2 0-110.4-89.6-198.4-198.4-198.4h-598.4c-123.2 0-222.4 99.2-222.4 222.4 0 88 51.2 164.8 124.8 200-17.6 36.8-27.2 75.2-27.2 116.8zM356.8 824c-129.6 0-235.2-104-235.2-235.2 0-38.4 9.6-75.2 25.6-107.2l9.6-17.6-19.2-9.6c-67.2-32-113.6-102.4-113.6-182.4 0-112 89.6-201.6 201.6-201.6h596.8c99.2 0 179.2 80 179.2 179.2 0 84.8-59.2 156.8-140.8 174.4l-20.8 4.8 6.4 20.8c4.8 16 8 32 8 49.6 0 94.4-76.8 169.6-169.6 169.6-27.2 0-52.8-6.4-75.2-17.6l-20.8-9.6-8 22.4c-33.6 92.8-121.6 160-224 160zM288 540.8l20.8-11.2 163.2-86.4v-200l40 6.4v192l-163.2 86.4v22.4l182.4-97.6v-201.6l40 6.4v195.2l-163.2 86.4v22.4l185.6-97.6v-201.6l40 6.4v193.6l-163.2 86.4v22.4l182.4-97.6v-201.6l40 6.4v193.6l-163.2 86.4v22.4l182.4-97.6v-203.2l40 6.4v-102.4l-348.8-52.8-180.8 116.8v105.6l185.6-120 38.4 6.4v192l-142.4 75.2v-174.4l-16 14.4v193.6zM736 262.4l-328-49.6-160 104v-57.6l164.8-107.2 323.2 49.6v60.8z" />
<glyph unicode="&#xe91b;" glyph-name="cl-registry" d="M100.8 588.8c0 140.8 113.6 256 256 256 112 0 208-72 241.6-174.4 25.6 12.8 54.4 19.2 84.8 19.2 105.6 0 190.4-84.8 190.4-190.4 0-19.2-3.2-38.4-8-56 89.6-19.2 156.8-99.2 156.8-195.2 0-110.4-89.6-198.4-198.4-198.4h-598.4c-123.2 0-222.4 99.2-222.4 222.4 0 88 51.2 164.8 124.8 200-17.6 36.8-27.2 75.2-27.2 116.8zM356.8 824c-129.6 0-235.2-104-235.2-235.2 0-38.4 9.6-75.2 25.6-107.2l9.6-17.6-19.2-9.6c-67.2-32-113.6-102.4-113.6-182.4 0-112 89.6-201.6 201.6-201.6h596.8c99.2 0 179.2 80 179.2 179.2 0 84.8-59.2 156.8-140.8 174.4l-20.8 4.8 6.4 20.8c4.8 16 8 32 8 49.6 0 94.4-76.8 169.6-169.6 169.6-27.2 0-52.8-6.4-75.2-17.6l-20.8-9.6-8 22.4c-33.6 92.8-121.6 160-224 160zM715.2 499.2c0 22.4-17.6 40-40 40s-40-17.6-40-40c0-22.4 17.6-40 40-40 22.4-1.6 40 17.6 40 40zM409.6 315.2c0-44.8 36.8-81.6 81.6-81.6s81.6 36.8 81.6 81.6c0 44.8-36.8 81.6-81.6 81.6s-81.6-36.8-81.6-81.6zM409.6 580.8c0 22.4-17.6 40-40 40s-40-17.6-40-40c0-22.4 17.6-40 40-40 22.4-1.6 40 17.6 40 40zM267.2 275.2c0 22.4-17.6 40-40 40s-40-17.6-40-40c0-22.4 17.6-40 40-40 22.4-1.6 40 17.6 40 40zM857.6 254.4c0 22.4-17.6 40-40 40s-40-17.6-40-40c0-22.4 17.6-40 40-40s40 17.6 40 40zM756.8 256l-166.4 32c-12.8-41.6-51.2-73.6-97.6-73.6-48 0-88 32-99.2 76.8l-105.6-16c0-33.6-27.2-60.8-60.8-60.8s-60.8 27.2-60.8 60.8c0 33.6 27.2 60.8 60.8 60.8 27.2 0 49.6-17.6 57.6-41.6l105.6 16v4.8c0 36.8 20.8 70.4 49.6 88l-54.4 118.4c-4.8-1.6-11.2-1.6-16-1.6-33.6 0-60.8 27.2-60.8 60.8s27.2 60.8 60.8 60.8c33.6 0 60.8-27.2 60.8-60.8 0-20.8-11.2-40-27.2-49.6l54.4-118.4c11.2 3.2 20.8 4.8 33.6 4.8 24 0 46.4-8 64-22.4l68.8 68.8c-6.4 9.6-11.2 22.4-11.2 35.2 0 33.6 27.2 60.8 60.8 60.8s60.8-27.2 60.8-60.8c0-33.6-27.2-60.8-60.8-60.8-12.8 0-25.6 4.8-35.2 11.2l-68.8-68.8c14.4-17.6 22.4-40 22.4-64 0-3.2 0-6.4 0-8l166.4-32c8 24 30.4 40 57.6 40 33.6 0 60.8-27.2 60.8-60.8s-27.2-60.8-60.8-60.8c-32-1.6-59.2 25.6-59.2 60.8v0z" />
<glyph unicode="&#xe91c;" glyph-name="cl-scale-apps" d="M222.4 54.4c-123.2 0-222.4 99.2-222.4 222.4 0 88 51.2 164.8 126.4 201.6-19.2 35.2-28.8 75.2-28.8 118.4 0 142.4 115.2 256 256 256 113.6 0 209.6-73.6 243.2-176 25.6 12.8 54.4 19.2 84.8 19.2 105.6 0 190.4-84.8 190.4-190.4 0-19.2-3.2-38.4-8-56 91.2-19.2 158.4-99.2 158.4-195.2 0-110.4-89.6-200-200-200h-600zM833.6 430.4c11.2 22.4 17.6 48 17.6 75.2 0 92.8-75.2 168-168 168-36.8 0-70.4-11.2-99.2-32-20.8 107.2-115.2 188.8-228.8 188.8-129.6 0-233.6-104-233.6-233.6 0-48 14.4-92.8 38.4-129.6-80-27.2-137.6-100.8-137.6-190.4 0-110.4 89.6-200 200-200h601.6c97.6 0 177.6 80 177.6 177.6 0 94.4-75.2 171.2-168 176zM588.8 353.6l118.4-118.4-72-72-118.4 118.4 16 16 104-104 40 40-104 104 16 16zM409.6 555.2l14.4 14.4c25.6 25.6 68.8 25.6 96 0l8-9.6-73.6-73.6 41.6-41.6-16-16-41.6 41.6-40-38.4 41.6-41.6-16-16-41.6 41.6-73.6-73.6-8 8c-25.6 25.6-25.6 68.8 0 96l14.4 14.4c-11.2 11.2-17.6 27.2-17.6 44.8 0 36.8 30.4 67.2 67.2 67.2 17.6-1.6 33.6-8 44.8-17.6zM494.4 560c-17.6 9.6-40 8-54.4-6.4l-28.8-28.8-16 14.4c-8 6.4-19.2 11.2-30.4 11.2-25.6 0-44.8-20.8-44.8-44.8 0-11.2 4.8-22.4 11.2-30.4l14.4-16-28.8-28.8c-14.4-14.4-17.6-36.8-6.4-54.4l184 184zM657.6 576l60.8-60.8-313.6-313.6-107.2-46.4 46.4 107.2 313.6 313.6zM628.8 515.2l28.8-28.8 28.8 28.8-28.8 28.8-28.8-28.8zM595.2 481.6l28.8-28.8 17.6 17.6-28.8 28.8-17.6-17.6zM379.2 265.6l28.8-28.8 200 200-28.8 28.8-200-200zM392 220.8l-28.8 28.8-22.4-51.2 51.2 22.4z" />
<glyph unicode="&#xe91d;" glyph-name="cl-security" d="M100.8 588.8c0 140.8 113.6 256 256 256 112 0 208-72 241.6-174.4 25.6 12.8 54.4 19.2 84.8 19.2 105.6 0 190.4-84.8 190.4-190.4 0-19.2-3.2-38.4-8-56 89.6-19.2 156.8-99.2 156.8-195.2 0-110.4-89.6-198.4-198.4-198.4h-598.4c-123.2 0-222.4 99.2-222.4 222.4 0 88 51.2 164.8 124.8 200-17.6 36.8-27.2 75.2-27.2 116.8zM356.8 824c-129.6 0-235.2-104-235.2-235.2 0-38.4 9.6-75.2 25.6-107.2l9.6-17.6-19.2-9.6c-67.2-32-113.6-102.4-113.6-182.4 0-112 89.6-201.6 201.6-201.6h596.8c99.2 0 179.2 80 179.2 179.2 0 84.8-59.2 156.8-140.8 174.4l-20.8 4.8 6.4 20.8c4.8 16 8 32 8 49.6 0 94.4-76.8 169.6-169.6 169.6-27.2 0-52.8-6.4-75.2-17.6l-20.8-9.6-8 22.4c-33.6 92.8-121.6 160-224 160zM491.2 580.8c84.8 0 182.4-20.8 182.4-20.8v-208c0-120-92.8-196.8-182.4-219.2-91.2 22.4-182.4 99.2-182.4 219.2v208c0 0 97.6 20.8 182.4 20.8zM654.4 542.4c-30.4 6.4-100.8 17.6-163.2 17.6s-131.2-11.2-163.2-17.6v-190.4c0-105.6 80-176 163.2-198.4 83.2 22.4 163.2 92.8 163.2 198.4v190.4zM572.8 376h-163.2v-102.4h163.2v102.4zM451.2 396.8h81.6v60.8c0 22.4-17.6 40-40 40s-40-17.6-40-40v-60.8zM390.4 396.8h40v60.8c0 33.6 27.2 60.8 60.8 60.8s60.8-27.2 60.8-60.8v-60.8h40v-142.4h-201.6v142.4z" />
<glyph unicode="&#xe91e;" glyph-name="cl-server-lg" d="M956.8 654.4c3.2 11.2 4.8 22.4 4.8 35.2 0 68.8-56 124.8-124.8 124.8-51.2 0-96-32-115.2-75.2-16 14.4-38.4 24-62.4 24-51.2 0-94.4-41.6-94.4-96-6.4 1.6-14.4 1.6-20.8 1.6-57.6 0-104-46.4-104-104h-440v-438.4h1024v438.4c0 43.2-28.8 78.4-67.2 89.6zM982.4 168h-940.8v355.2h940.8v-355.2zM888 396.8c-17.6 0-32 14.4-32 32s14.4 32 32 32c17.6 0 32-14.4 32-32s-14.4-32-32-32zM648 440h166.4v-20.8h-166.4v20.8zM585.6 209.6h-480v272h480v-272zM355.2 230.4h209.6v62.4h-209.6v-62.4zM124.8 230.4h209.6v62.4h-209.6v-62.4zM334.4 460.8h-209.6v-62.4h209.6v62.4zM564.8 460.8h-209.6v-62.4h209.6v62.4zM355.2 376v-62.4h209.6v62.4h-209.6zM334.4 313.6v62.4h-209.6v-62.4h209.6z" />
<glyph unicode="&#xe91f;" glyph-name="cl-server-md" d="M956.8 612.8c3.2 11.2 4.8 22.4 4.8 35.2 0 68.8-56 124.8-124.8 124.8-51.2 0-96-32-115.2-75.2-16 14.4-38.4 24-62.4 24-51.2 0-94.4-41.6-94.4-96-6.4 1.6-14.4 1.6-20.8 1.6-57.6 0-104-46.4-104-104h-440v-355.2h1024v355.2c0 43.2-28.8 78.4-67.2 89.6zM982.4 209.6h-940.8v272h940.8v-272zM888 355.2c-17.6 0-32 14.4-32 32s14.4 32 32 32c17.6 0 32-14.4 32-32s-14.4-32-32-32zM648 396.8h166.4v-20.8h-166.4v20.8zM585.6 440v-188.8h-480v188.8h480zM355.2 272h209.6v62.4h-209.6v-62.4zM124.8 272h209.6v62.4h-209.6v-62.4zM334.4 417.6h-209.6v-62.4h209.6v62.4zM564.8 417.6h-209.6v-62.4h209.6v62.4z" />
<glyph unicode="&#xe920;" glyph-name="cl-server-sm" d="M956.8 582.4c3.2 11.2 4.8 22.4 4.8 35.2 0 68.8-56 124.8-124.8 124.8-51.2 0-96-32-115.2-75.2-16 14.4-38.4 24-62.4 24-51.2 0-94.4-41.6-94.4-96-6.4 1.6-14.4 1.6-20.8 1.6-57.6 0-104-46.4-104-104h-440v-272h1024v272c0 43.2-28.8 78.4-67.2 89.6zM982.4 262.4h-940.8v188.8h940.8v-188.8zM888 324.8c-17.6 0-32 14.4-32 32s14.4 32 32 32c17.6 0 32-14.4 32-32s-14.4-32-32-32zM648 366.4h166.4v-20.8h-166.4v20.8zM585.6 409.6v-105.6h-480v104h480zM355.2 324.8h209.6v62.4h-209.6v-62.4zM124.8 324.8h209.6v62.4h-209.6v-62.4z" />
<glyph unicode="&#xe921;" glyph-name="cl-servers" d="M100.8 588.8c0 140.8 113.6 256 256 256 112 0 208-72 241.6-174.4 25.6 12.8 54.4 19.2 84.8 19.2 105.6 0 190.4-84.8 190.4-190.4 0-19.2-3.2-38.4-8-56 89.6-19.2 156.8-99.2 156.8-195.2 0-110.4-89.6-198.4-198.4-198.4h-598.4c-123.2 0-222.4 99.2-222.4 222.4 0 88 51.2 164.8 124.8 200-17.6 36.8-27.2 75.2-27.2 116.8zM356.8 824c-129.6 0-235.2-104-235.2-235.2 0-38.4 9.6-75.2 25.6-107.2l9.6-17.6-19.2-9.6c-67.2-32-113.6-102.4-113.6-182.4 0-112 89.6-201.6 201.6-201.6h596.8c99.2 0 179.2 80 179.2 179.2 0 84.8-59.2 156.8-140.8 174.4l-20.8 4.8 6.4 20.8c4.8 16 8 32 8 49.6 0 94.4-76.8 169.6-169.6 169.6-27.2 0-52.8-6.4-75.2-17.6l-20.8-9.6-8 22.4c-33.6 92.8-121.6 160-224 160zM288 520h406.4v-142.4h-406.4v142.4zM675.2 499.2h-366.4v-102.4h366.4v102.4zM572.8 448c0 17.6 14.4 30.4 30.4 30.4 17.6 0 30.4-14.4 30.4-30.4 0-17.6-14.4-30.4-30.4-30.4s-30.4 12.8-30.4 30.4zM288 336h406.4v-142.4h-406.4v142.4zM675.2 315.2h-366.4v-102.4h366.4v102.4zM572.8 265.6c0 17.6 14.4 30.4 30.4 30.4 17.6 0 30.4-14.4 30.4-30.4 0-17.6-14.4-30.4-30.4-30.4-16-1.6-30.4 12.8-30.4 30.4z" />
<glyph unicode="&#xe922;" glyph-name="cl-sites" d="M100.8 588.8c0 140.8 113.6 256 256 256 112 0 208-72 241.6-174.4 25.6 12.8 54.4 19.2 84.8 19.2 105.6 0 190.4-84.8 190.4-190.4 0-19.2-3.2-38.4-8-56 89.6-19.2 156.8-99.2 156.8-195.2 0-110.4-89.6-198.4-198.4-198.4h-598.4c-123.2 0-222.4 99.2-222.4 222.4 0 88 51.2 164.8 124.8 200-17.6 36.8-27.2 75.2-27.2 116.8zM356.8 824c-129.6 0-235.2-104-235.2-235.2 0-38.4 9.6-75.2 25.6-107.2l9.6-17.6-19.2-9.6c-67.2-32-113.6-102.4-113.6-182.4 0-112 89.6-201.6 201.6-201.6h596.8c99.2 0 179.2 80 179.2 179.2 0 84.8-59.2 156.8-140.8 174.4l-20.8 4.8 6.4 20.8c4.8 16 8 32 8 49.6 0 94.4-76.8 169.6-169.6 169.6-27.2 0-52.8-6.4-75.2-17.6l-20.8-9.6-8 22.4c-33.6 92.8-121.6 160-224 160zM267.2 539.2h468.8v-366.4h-468.8v366.4zM715.2 520h-427.2v-326.4h427.2v326.4zM369.6 478.4l145.6-129.6-65.6-4.8 41.6-91.2-33.6-14.4-41.6 91.2-46.4-46.4v195.2z" />
<glyph unicode="&#xe923;" glyph-name="cl-tools" d="M100.8 588.8c0 140.8 113.6 256 256 256 112 0 208-72 241.6-174.4 25.6 12.8 54.4 19.2 84.8 19.2 105.6 0 190.4-84.8 190.4-190.4 0-19.2-3.2-38.4-8-56 89.6-19.2 156.8-99.2 156.8-195.2 0-110.4-89.6-198.4-198.4-198.4h-598.4c-123.2 0-222.4 99.2-222.4 222.4 0 88 51.2 164.8 124.8 200-17.6 36.8-27.2 75.2-27.2 116.8zM356.8 824c-129.6 0-235.2-104-235.2-235.2 0-38.4 9.6-75.2 25.6-107.2l9.6-17.6-19.2-9.6c-67.2-32-113.6-102.4-113.6-182.4 0-112 89.6-201.6 201.6-201.6h596.8c99.2 0 179.2 80 179.2 179.2 0 84.8-59.2 156.8-140.8 174.4l-20.8 4.8 6.4 20.8c4.8 16 8 32 8 49.6 0 94.4-76.8 169.6-169.6 169.6-27.2 0-52.8-6.4-75.2-17.6l-20.8-9.6-8 22.4c-33.6 92.8-121.6 160-224 160zM460.8 540.8c-22.4 6.4-48 1.6-65.6-16l-56-56c3.2-12.8 0-28.8-11.2-40s-25.6-14.4-40-11.2l-8-8 46.4-46.4 8 8c-3.2 12.8 0 28.8 11.2 40 16 16 41.6 16 57.6 0l204.8-225.6c16-17.6 36.8-17.6 51.2-3.2 12.8 12.8 12.8 35.2-3.2 51.2l-225.6 204.8c-24 24-24 62.4 0 86.4 9.6 8 19.2 14.4 30.4 16zM390.4 396.8c-19.2 19.2-48-9.6-28.8-28.8l-32-32-75.2 75.2 32 32c19.2-19.2 48 9.6 28.8 28.8l65.6 65.6c33.6 33.6 88 33.6 123.2 0l14.4-14.4-14.4-14.4c-16 16-41.6 16-57.6 0s-16-41.6 0-57.6l60.8-56 25.6 24c-12.8 33.6-4.8 73.6 22.4 100.8 33.6 33.6 83.2 36.8 120 12.8l-59.2-59.2c-8-8-8-20.8 0-28.8s20.8-8 28.8 0l59.2 59.2c24-36.8 19.2-88-12.8-120-27.2-27.2-65.6-35.2-100.8-22.4l-20.8-24 99.2-89.6c25.6-22.4 27.2-57.6 4.8-80s-57.6-20.8-80 4.8l-88 96-88-96c-22.4-25.6-57.6-27.2-80-4.8s-20.8 57.6 4.8 80l99.2 91.2-51.2 57.6zM521.6 384l33.6-30.4 32 35.2c28.8-16 65.6-11.2 91.2 12.8 19.2 19.2 25.6 46.4 20.8 70.4l-40-40c-16-16-41.6-16-57.6 0s-16 41.6 0 57.6l38.4 38.4c-24 4.8-51.2-1.6-70.4-20.8-25.6-25.6-28.8-62.4-12.8-92.8l-35.2-30.4zM492.8 284.8l-36.8 40-99.2-91.2c-17.6-16-17.6-36.8-3.2-51.2 12.8-12.8 35.2-12.8 51.2 3.2l88 99.2z" />
<glyph unicode="&#xe924;" glyph-name="cont-design" d="M616 422.4l132.8-132.8-80-80-132.8 132.8 17.6 17.6 115.2-115.2 44.8 44.8-115.2 115.2 17.6 17.6zM419.2 644.8l16 16c28.8 28.8 76.8 28.8 105.6 0l9.6-9.6-81.6-81.6 46.4-46.4-19.2-16-46.4 46.4-44.8-44.8 46.4-46.4-17.6-17.6-46.4 46.4-81.6-81.6-9.6 9.6c-28.8 28.8-28.8 76.8 0 105.6l16 16c-11.2 12.8-19.2 30.4-19.2 49.6 0 41.6 33.6 75.2 75.2 75.2 20.8-1.6 36.8-8 51.2-20.8zM512 651.2c-19.2 11.2-44.8 8-60.8-8l-32-32-17.6 16c-9.6 8-20.8 12.8-33.6 12.8-27.2 0-49.6-22.4-49.6-49.6 0-12.8 4.8-24 12.8-33.6l16-17.6-32-32c-16-16-19.2-41.6-8-60.8l204.8 204.8zM692.8 670.4l67.2-67.2-347.2-348.8-118.4-51.2 51.2 118.4 347.2 348.8zM660.8 601.6l32-32 32 32-32 32-32-32zM624 564.8l32-32 19.2 19.2-32 32-19.2-19.2zM384 324.8l32-32 222.4 222.4-32 32-222.4-222.4zM398.4 275.2l-32 32-24-56 56 24zM924.8 452.8l-57.6 57.6-17.6-17.6 88-88 88 88-17.6 17.6-57.6-57.6c-4.8 240-198.4 432-438.4 432-212.8 0-390.4-152-428.8-355.2l22.4-22.4c28.8 200 200 353.6 406.4 353.6 225.6 0 409.6-182.4 412.8-408zM156.8 385.6l17.6 17.6-88 88-86.4-88 17.6-17.6 57.6 57.6c3.2-238.4 196.8-432 436.8-432 212.8 0 390.4 152 428.8 355.2l-22.4 22.4c-28.8-200-200-353.6-406.4-353.6-225.6 0-409.6 182.4-412.8 406.4l57.6-56z" />
<glyph unicode="&#xe925;" glyph-name="cont-monitoring" d="M512 710.4c145.6 0 262.4-116.8 262.4-262.4s-116.8-262.4-262.4-262.4-262.4 116.8-262.4 262.4c0 145.6 116.8 262.4 262.4 262.4zM512 684.8c-131.2 0-236.8-105.6-236.8-236.8s105.6-236.8 236.8-236.8c131.2 0 236.8 105.6 236.8 236.8s-105.6 236.8-236.8 236.8zM712 448c0-110.4-89.6-200-200-200s-200 89.6-200 200c0 110.4 89.6 200 200 200s200-89.6 200-200zM339.2 422.4c12.8-84.8 84.8-150.4 172.8-150.4 96 0 174.4 78.4 174.4 174.4h-104l-65.6-145.6-25.6 200-35.2-78.4h-116.8zM684.8 473.6c-12.8 84.8-84.8 150.4-172.8 150.4-96 0-174.4-78.4-174.4-174.4h104l65.6 145.6 25.6-200 35.2 78.4h116.8zM924.8 452.8l-57.6 57.6-17.6-17.6 88-88 88 88-17.6 17.6-57.6-57.6c-4.8 240-198.4 432-438.4 432-212.8 0-390.4-152-428.8-355.2l22.4-22.4c28.8 200 200 353.6 406.4 353.6 225.6 0 409.6-182.4 412.8-408zM156.8 385.6l17.6 17.6-88 88-86.4-88 17.6-17.6 57.6 57.6c3.2-238.4 196.8-432 436.8-432 212.8 0 390.4 152 428.8 355.2l-22.4 22.4c-28.8-200-200-353.6-406.4-353.6-225.6 0-409.6 182.4-412.8 406.4l57.6-56z" />
<glyph unicode="&#xe926;" glyph-name="cont-support" d="M696 264c22.4 24 19.2 54.4 16 86.4l-1.6 11.2c-22.4-49.6-62.4-91.2-112-112l11.2-1.6c32-3.2 64-6.4 86.4 16zM468.8 240c28.8-6.4 57.6-6.4 84.8 0l-24 89.6c-6.4-1.6-12.8-1.6-19.2-1.6s-12.8 0-19.2 1.6l-22.4-89.6zM416 248l11.2 1.6c-49.6 22.4-91.2 62.4-112 112l-1.6-11.2c-3.2-33.6-8-64 16-86.4 22.4-22.4 52.8-19.2 86.4-16zM328 632c-22.4-24-19.2-54.4-16-86.4l1.6-11.2c22.4 49.6 62.4 91.2 112 112l-11.2 1.6c-32 3.2-64 6.4-86.4-16zM555.2 656c-28.8 6.4-57.6 6.4-84.8 0l24-89.6c6.4 1.6 12.8 1.6 19.2 1.6s12.8 0 19.2-1.6l22.4 89.6zM608 648l-11.2-1.6c49.6-22.4 91.2-62.4 112-112l1.6 11.2c3.2 33.6 8 64-16 86.4-22.4 22.4-52.8 19.2-86.4 16zM720 404.8c3.2 14.4 4.8 28.8 4.8 43.2s-1.6 28.8-4.8 43.2l-89.6-24c1.6-6.4 1.6-12.8 1.6-19.2s0-12.8-1.6-19.2l89.6-24zM624 404.8c-12.8-32-36.8-56-68.8-68.8l19.2-68.8c56 19.2 100.8 64 120 120l-70.4 17.6zM555.2 560c32-12.8 56-36.8 68.8-68.8l68.8 19.2c-19.2 56-64 100.8-120 120l-17.6-70.4zM417.6 448c0-52.8 43.2-94.4 94.4-94.4s94.4 43.2 94.4 94.4c0 52.8-43.2 94.4-94.4 94.4s-94.4-41.6-94.4-94.4zM400 404.8l-68.8-19.2c19.2-56 64-100.8 120-120l19.2 68.8c-32 14.4-57.6 40-70.4 70.4zM304 491.2c-3.2-14.4-4.8-28.8-4.8-43.2s1.6-28.8 4.8-43.2l89.6 24c-1.6 6.4-1.6 12.8-1.6 19.2s0 12.8 1.6 19.2l-89.6 24zM400 491.2c12.8 32 36.8 56 68.8 68.8l-19.2 68.8c-56-19.2-100.8-64-120-120l70.4-17.6zM740.8 387.2l-3.2-12.8-4.8 1.6c0-6.4 1.6-14.4 1.6-20.8 4.8-35.2 9.6-75.2-22.4-107.2-20.8-20.8-44.8-25.6-68.8-25.6-12.8 0-27.2 1.6-40 3.2-8 1.6-14.4 1.6-22.4 1.6l1.6-3.2-12.8-3.2c-19.2-4.8-40-8-60.8-8s-41.6 3.2-60.8 8l-12.8 3.2 1.6 4.8c-6.4 0-14.4-1.6-20.8-1.6-12.8-1.6-25.6-3.2-38.4-3.2-24 0-48 4.8-68.8 25.6-32 32-27.2 72-22.4 107.2 1.6 8 1.6 14.4 1.6 22.4l-3.2-1.6-3.2 12.8c-4.8 19.2-8 40-8 60.8s3.2 41.6 8 60.8l3.2 12.8 3.2-1.6c0 6.4-1.6 14.4-1.6 20.8-4.8 35.2-9.6 75.2 22.4 107.2s72 27.2 107.2 22.4c8-1.6 14.4-1.6 22.4-1.6l-1.6 3.2 12.8 3.2c40 11.2 83.2 11.2 123.2 0l12.8-3.2-1.6-4.8c6.4 0 14.4 1.6 20.8 1.6 35.2 4.8 75.2 9.6 107.2-22.4s27.2-72 22.4-107.2c-1.6-8-1.6-14.4-1.6-22.4l3.2 1.6 3.2-12.8c4.8-19.2 8-40 8-60.8 1.6-20.8 0-41.6-6.4-60.8zM512 860.8c-206.4 0-377.6-152-408-350.4l-22.4 22.4c40 200 217.6 352 430.4 352 240 0 433.6-193.6 436.8-432l57.6 57.6 17.6-17.6-88-88-88 88 17.6 17.6 57.6-57.6c-1.6 225.6-185.6 408-411.2 408zM99.2 443.2c3.2-225.6 187.2-408 412.8-408 206.4 0 377.6 152 408 350.4l22.4-22.4c-40-200-217.6-352-430.4-352-240 0-433.6 193.6-436.8 432l-57.6-57.6-17.6 17.6 88 88 88-88-17.6-17.6-59.2 57.6z" />
<glyph unicode="&#xe927;" glyph-name="ded-api-services" d="M601.6 358.4h30.4v-30.4h-30.4v30.4zM601.6 417.6h30.4v-30.4h-30.4v30.4zM601.6 478.4h30.4v-30.4h-30.4v30.4zM601.6 297.6h30.4v-30.4h-30.4v30.4zM494.4 598.4h17.6v89.6h-180.8v-30.4h102.4l60.8-59.2zM300.8 659.2v60.8h120v60.8h252.8l168-168v-374.4h-120v30.4h89.6v299.2h-107.2l17.6-17.6v-374.4h-120v30.4h89.6v302.4h-107.2l17.6-17.6v-374.4h-420.8v542.4h120zM451.2 718.4h102.4l60.8-60.8h17.6v89.6h-180.8v-28.8zM662.4 611.2l12.8-12.8h137.6l-150.4 150.4v-137.6zM555.2 537.6h137.6l-150.4 150.4v-137.6l12.8-12.8zM270.4 537.6h120v89.6h-179.2v-481.6h361.6v302.4h-302.4v30.4h120v30.4h-120v28.8zM422.4 628.8v-150.4h150.4l-150.4 150.4zM270.4 297.6h241.6v-30.4h-241.6v30.4zM270.4 358.4h241.6v-30.4h-241.6v30.4zM270.4 417.6h241.6v-30.4h-241.6v30.4zM270.4 236.8h241.6v-30.4h-241.6v30.4zM723.2 358.4h30.4v-30.4h-30.4v30.4zM723.2 537.6h30.4v-30.4h-30.4v30.4zM723.2 478.4h30.4v-30.4h-30.4v30.4zM723.2 417.6h30.4v-30.4h-30.4v30.4zM0 960h1024v-1024h-1024v1024zM998.4-38.4v972.8h-972.8v-971.2h972.8z" />
<glyph unicode="&#xe928;" glyph-name="ded-backup" d="M0 960h1024v-1024h-1024v1024zM998.4-38.4v972.8h-972.8v-971.2h972.8zM708.8 632c80 0 144-64 144-144v-52.8h-25.6v52.8c0 65.6-52.8 118.4-118.4 118.4s-118.4-52.8-118.4-118.4v-65.6h131.2l-275.2-211.2-275.2 211.2h131.2v65.6c0 80 64 144 144 144h262.4zM564.8 395.2v91.2c0 49.6 24 92.8 60.8 118.4h-179.2c-65.6 0-118.4-52.8-118.4-118.4v-91.2h-80l198.4-150.4 198.4 150.4h-80z" />
<glyph unicode="&#xe929;" glyph-name="ded-big-data" d="M0 960h1024v-1024h-1024v1024zM998.4-38.4v972.8h-972.8v-971.2h972.8zM774.4 500.8h-52.8v-315.2h52.8v315.2zM696 526.4h105.6v-368h-105.6v368zM302.4 473.6h-52.8v-289.6h52.8v289.6zM222.4 500.8h105.6v-340.8h-105.6v340.8zM459.2 657.6h-52.8v-472h52.8v472zM380.8 684.8h105.6v-524.8h-105.6v524.8zM617.6 395.2h-52.8v-209.6h52.8v209.6zM537.6 422.4h105.6v-262.4h-105.6v262.4z" />
<glyph unicode="&#xe92a;" glyph-name="ded-control-panel" d="M0 960h1024v-1024h-1024v1024zM998.4-38.4v972.8h-972.8v-971.2h972.8zM340.8 697.6v-105.6h78.4v-105.6h-78.4v-289.6h-25.6v291.2h-78.4v104h78.4v105.6h25.6zM262.4 566.4v-52.8h131.2v52.8h-131.2zM630.4 566.4v-52.8h131.2v52.8h-131.2zM708.8 697.6v-105.6h78.4v-105.6h-78.4v-289.6h-25.6v291.2h-78.4v104h78.4v105.6h25.6zM577.6 329.6v52.8h-131.2v-52.8h131.2zM499.2 198.4v105.6h-78.4v105.6h78.4v288h25.6v-289.6h78.4v-104h-78.4v-105.6h-25.6z" />
<glyph unicode="&#xe92b;" glyph-name="ded-data-replication" d="M963.2 899.2h-902.4v-904h904v904zM0 960h1024v-1024h-1024v1024zM366.4 331.2l-64 64v-113.6c0-41.6 33.6-75.2 75.2-75.2h75.2v-30.4h-75.2c-57.6 0-105.6 48-105.6 105.6v113.6l-64-64-20.8 20.8 100.8 100.8 100.8-100.8-22.4-20.8zM542.4 508.8h-361.6v270.4h150.4v-30.4h211.2v-240zM512 537.6v180.8h-211.2v30.4h-89.6v-211.2h300.8zM843.2 116.8h-361.6v270.4h150.4v-30.4h211.2v-240zM812.8 147.2v180.8h-211.2v30.4h-89.6v-211.2h300.8zM657.6 534.4l64-64v113.6c0 41.6-33.6 75.2-75.2 75.2h-75.2v30.4h75.2c57.6 0 105.6-46.4 105.6-105.6v-113.6l64 64 20.8-20.8-100.8-100.8-99.2 99.2 20.8 22.4z" />
<glyph unicode="&#xe92c;" glyph-name="ded-databases" d="M0 960h1024v-1024h-1024v1024zM998.4-38.4v972.8h-972.8v-971.2h972.8zM748.8 340.8c-60.8-36.8-209.6-41.6-236.8-41.6-25.6 0-174.4 3.2-236.8 41.6v-76.8c0-16 54.4-32 64-33.6 43.2-11.2 105.6-19.2 172.8-19.2 54.4 0 172.8 6.4 222.4 38.4 11.2 8 12.8 12.8 12.8 14.4v76.8zM275.2 377.6c0-16 54.4-32 64-33.6 43.2-11.2 105.6-19.2 172.8-19.2 54.4 0 172.8 6.4 222.4 38.4 11.2 8 12.8 12.8 12.8 14.4v76.8c-60.8-36.8-209.6-41.6-236.8-41.6-25.6 0-174.4 3.2-236.8 41.6v-76.8zM275.2 491.2c0-16 54.4-32 64-33.6 43.2-11.2 105.6-19.2 172.8-19.2 54.4 0 172.8 6.4 222.4 38.4 11.2 8 12.8 12.8 12.8 14.4v76.8c-60.8-36.8-209.6-41.6-236.8-41.6-25.6 0-174.4 3.2-236.8 41.6v-76.8zM289.6 619.2c-11.2-8-12.8-12.8-12.8-14.4 0-16 54.4-32 64-33.6 43.2-11.2 105.6-19.2 172.8-19.2 54.4 0 172.8 6.4 222.4 38.4 11.2 8 12.8 12.8 12.8 14.4 0 16-54.4 32-64 33.6-43.2 11.2-105.6 19.2-172.8 19.2-54.4 0-172.8-6.4-222.4-38.4zM275.2 641.6c56 35.2 176 41.6 236.8 41.6 33.6 0 262.4-6.4 262.4-78.4v-340.8c0-72-230.4-78.4-262.4-78.4s-262.4 6.4-262.4 78.4v340.8c0 17.6 12.8 28.8 25.6 36.8z" />
<glyph unicode="&#xe92d;" glyph-name="ded-email" d="M438.4 422.4l-211.2-169.6h569.6l-209.6 169.6-75.2-52.8-73.6 52.8zM211.2 276.8l201.6 163.2-201.6 144v-307.2zM211.2 620.8l300.8-214.4 300.8 214.4v22.4h-601.6v-22.4zM812.8 584l-201.6-144 201.6-163.2v307.2zM843.2 673.6v-451.2h-662.4v451.2h662.4zM0 960h1024v-1024h-1024v1024zM998.4-38.4v972.8h-972.8v-971.2h972.8z" />
<glyph unicode="&#xe92e;" glyph-name="ded-hosting" d="M232 540.8h558.4v-185.6h-558.4v185.6zM744 518.4h-464v-139.2h465.6v139.2zM627.2 448c0 20.8 17.6 38.4 38.4 38.4s38.4-17.6 38.4-38.4c0-20.8-17.6-38.4-38.4-38.4s-38.4 17.6-38.4 38.4zM232 774.4h558.4v-185.6h-558.4v185.6zM744 750.4h-464v-139.2h465.6v139.2zM627.2 678.4c0 20.8 17.6 38.4 38.4 38.4s38.4-17.6 38.4-38.4c0-20.8-17.6-38.4-38.4-38.4s-38.4 17.6-38.4 38.4zM744 284.8h-464v-139.2h465.6v139.2zM232 308.8h558.4v-185.6h-558.4v185.6zM627.2 217.6c0 20.8 17.6 38.4 38.4 38.4s38.4-17.6 38.4-38.4c0-20.8-17.6-38.4-38.4-38.4-20.8-1.6-38.4 16-38.4 38.4zM0 960h1024v-1024h-1024v1024zM998.4-38.4v972.8h-972.8v-971.2h972.8z" />
<glyph unicode="&#xe92f;" glyph-name="ded-load-balancers" d="M524.8 324.8v-68.8c22.4-6.4 40-25.6 40-51.2 0-28.8-24-52.8-52.8-52.8s-52.8 24-52.8 52.8c0 24 16 44.8 40 51.2v68.8c-44.8 6.4-78.4 44.8-78.4 91.2 0 12.8 1.6 24 6.4 33.6l-113.6 65.6c-11.2-22.4-19.2-46.4-22.4-70.4l-62.4 134.4 148.8 12.8c-19.2-14.4-36.8-33.6-49.6-54.4l113.6-65.6c14.4 17.6 35.2 30.4 59.2 33.6v131.2c-25.6-1.6-49.6-8-72-16l84.8 121.6 84.8-121.6c-22.4 9.6-46.4 14.4-72 16v-131.2c24-3.2 44.8-16 59.2-33.6l113.6 65.6c-14.4 20.8-30.4 40-49.6 54.4l148.8-12.8-62.4-134.4c-3.2 24-9.6 48-22.4 70.4l-113.6-65.6c4.8-11.2 6.4-22.4 6.4-33.6-3.2-46.4-36.8-84.8-81.6-91.2zM512 348.8c36.8 0 65.6 28.8 65.6 65.6s-28.8 65.6-65.6 65.6-65.6-28.8-65.6-65.6 28.8-65.6 65.6-65.6zM4.8 960h1024v-1024h-1024v1024zM1003.2-38.4v972.8h-971.2v-971.2h971.2z" />
<glyph unicode="&#xe930;" glyph-name="ded-log-management" d="M0 960h1024v-1024h-1024v1024zM700.8 558.4c8 0 16 6.4 16 16 0 8-6.4 16-16 16-8 0-16-6.4-16-16s6.4-16 16-16zM700.8 307.2c8 0 16 6.4 16 16 0 8-6.4 16-16 16-8 0-16-6.4-16-16s6.4-16 16-16zM449.6 464c-8 0-16-6.4-16-16 0-8 6.4-16 16-16s16 6.4 16 16c0 8-8 16-16 16zM323.2 588.8c-8 0-16-6.4-16-16 0-8 6.4-16 16-16s16 6.4 16 16c0 9.6-6.4 16-16 16zM323.2 337.6c-8 0-16-6.4-16-16 0-8 6.4-16 16-16s16 6.4 16 16c0 9.6-6.4 16-16 16zM25.6 683.2v-94.4h252.8c6.4 17.6 24 32 44.8 32 25.6 0 46.4-20.8 46.4-46.4s-20.8-46.4-46.4-46.4c-20.8 0-38.4 12.8-44.8 32h-252.8v-96h379.2c6.4 17.6 24 32 44.8 32 25.6 0 46.4-20.8 46.4-46.4s-20.8-46.4-46.4-46.4c-20.8 0-38.4 12.8-44.8 32h-379.2v-94.4h252.8c6.4 17.6 24 32 44.8 32 25.6 0 46.4-20.8 46.4-46.4s-20.8-46.4-46.4-46.4c-20.8 0-38.4 12.8-44.8 32h-252.8v-94.4h281.6v-118.4l339.2 348.8-337.6 353.6v-118.4h-283.2zM998.4 683.2h-283.2v118.4l-180.8-190.4 142.4-147.2h321.6v94.4h-254.4c-6.4-17.6-24-32-44.8-32-25.6 0-46.4 20.8-46.4 46.4s20.8 46.4 46.4 46.4c20.8 0 38.4-12.8 44.8-32h252.8v96zM512 633.6l198.4 206.4h36.8v-124.8h251.2v219.2h-972.8v-219.2h251.2v124.8h36.8l198.4-206.4zM998.4 182.4h-251.2v-124.8h-36.8l-198.4 204.8-198.4-206.4h-36.8v124.8h-251.2v-219.2h971.2v220.8zM715.2 94.4v118.4h281.6v94.4h-252.8c-6.4-17.6-24-32-44.8-32-25.6 0-46.4 20.8-46.4 46.4s20.8 46.4 46.4 46.4c20.8 0 38.4-12.8 44.8-32h252.8v96h-321.6l-142.4-147.2 182.4-190.4z" />
<glyph unicode="&#xe931;" glyph-name="ded-managed-virualization" d="M801.6 776h-579.2v-420.8h577.6v420.8zM196.8 803.2h630.4v-472h-630.4v472zM537.6 539.2h209.6v-131.2h-209.6v131.2zM721.6 513.6h-156.8v-78.4h156.8v78.4zM459.2 697.6h-156.8v-78.4h156.8v78.4zM275.2 723.2h209.6v-131.2h-209.6v131.2zM721.6 697.6h-156.8v-78.4h156.8v78.4zM537.6 723.2h209.6v-131.2h-209.6v131.2zM459.2 513.6h-156.8v-78.4h156.8v78.4zM275.2 539.2h209.6v-131.2h-209.6v131.2zM801.6 251.2h-579.2v-131.2h577.6v131.2zM196.8 276.8h630.4v-184h-630.4v184zM668.8 185.6c0 22.4 17.6 40 40 40s40-17.6 40-40-17.6-40-40-40c-22.4 0-40 17.6-40 40zM0 960h1024v-1024h-1024v1024zM998.4-38.4v972.8h-972.8v-971.2h972.8z" />
<glyph unicode="&#xe932;" glyph-name="ded-monitoring" d="M512 185.6c145.6 0 262.4 116.8 262.4 262.4s-116.8 262.4-262.4 262.4-262.4-116.8-262.4-262.4c0-145.6 116.8-262.4 262.4-262.4zM512 684.8c112 0 206.4-78.4 230.4-184h-116.8l-28.8-88-62.4 193.6h-27.2l-80-246.4-30.4 88h-121.6c0 131.2 105.6 236.8 236.8 236.8zM377.6 422.4l33.6-105.6h27.2l80 246.4 62.4-193.6h27.2l33.6 105.6h102.4c1.6-8 1.6-17.6 1.6-25.6 0-131.2-105.6-236.8-236.8-236.8-121.6 0-222.4 91.2-235.2 209.6h104zM0 960v-1024h1024v1024h-1024zM998.4-38.4h-972.8v972.8h971.2v-972.8z" />
<glyph unicode="&#xe933;" glyph-name="ded-security" d="M998.4-38.4v972.8h-972.8v-971.2h972.8zM0 960h1024v-1024h-1024v1024zM721.6 675.2c-40 8-129.6 22.4-209.6 22.4s-169.6-14.4-209.6-22.4v-246.4c0-137.6 102.4-225.6 209.6-256 107.2 30.4 209.6 118.4 209.6 256v246.4zM512 723.2c110.4 0 236.8-25.6 236.8-25.6v-268.8c0-155.2-118.4-252.8-236.8-283.2-116.8 30.4-236.8 128-236.8 283.2v268.8c0 0 126.4 25.6 236.8 25.6zM380.8 488h52.8v78.4c0 43.2 35.2 78.4 78.4 78.4s78.4-35.2 78.4-78.4v-78.4h52.8v-184h-262.4v184zM459.2 488h105.6v78.4c0 28.8-24 52.8-52.8 52.8s-52.8-24-52.8-52.8v-78.4zM617.6 460.8h-211.2v-131.2h209.6v131.2z" />
<glyph unicode="&#xe934;" glyph-name="ded-server-lg" d="M0 667.2h1024v-438.4h-1024v438.4zM982.4 270.4v355.2h-940.8v-355.2h940.8zM355.2 332.8h209.6v62.4h-209.6v-62.4zM124.8 332.8h209.6v62.4h-209.6v-62.4zM334.4 563.2h-209.6v-62.4h209.6v62.4zM564.8 563.2h-209.6v-62.4h209.6v62.4zM355.2 480v-64h209.6v64h-209.6zM334.4 416v64h-209.6v-64h209.6zM585.6 312h-480v272h480v-272zM888 500.8c-17.6 0-32 14.4-32 32s14.4 32 32 32c17.6 0 32-14.4 32-32s-14.4-32-32-32zM648 542.4h166.4v-20.8h-166.4v20.8z" />
<glyph unicode="&#xe935;" glyph-name="ded-server-md" d="M0 625.6h1024v-355.2h-1024v355.2zM982.4 312v272h-940.8v-272h940.8zM355.2 374.4h209.6v62.4h-209.6v-62.4zM124.8 374.4h209.6v62.4h-209.6v-62.4zM334.4 521.6h-209.6v-62.4h209.6v62.4zM564.8 521.6h-209.6v-62.4h209.6v62.4zM585.6 542.4v-188.8h-480v188.8h480zM888 459.2c-17.6 0-32 14.4-32 32s14.4 32 32 32c17.6 0 32-14.4 32-32s-14.4-32-32-32zM648 500.8h166.4v-20.8h-166.4v20.8z" />
<glyph unicode="&#xe936;" glyph-name="ded-server-sm" d="M0 584h1024v-272h-1024v272zM982.4 353.6v188.8h-940.8v-188.8h940.8zM355.2 416h209.6v64h-209.6v-64zM124.8 416h209.6v64h-209.6v-64zM585.6 500.8v-104h-480v104h480zM888 416c-17.6 0-32 14.4-32 32s14.4 32 32 32c17.6 0 32-14.4 32-32s-14.4-32-32-32zM648 459.2h166.4v-20.8h-166.4v20.8z" />
<glyph unicode="&#xe937;" glyph-name="ded-server-xl" d="M1.6 713.6h1019.2v-531.2h-1019.2v531.2zM980.8 225.6v446.4h-937.6v-446.4h937.6zM355.2 380.8h208v62.4h-208v-62.4zM126.4 380.8h208v62.4h-208v-62.4zM334.4 609.6h-208v-62.4h208v62.4zM564.8 609.6h-208v-62.4h208v62.4zM355.2 526.4v-62.4h208v62.4h-208zM334.4 464v62.4h-208v-62.4h208zM585.6 278.4h-480v352h478.4v-352zM886.4 547.2c-17.6 0-32 14.4-32 32s14.4 32 32 32c17.6 0 32-14.4 32-32s-14.4-32-32-32zM648 588.8h166.4v-20.8h-166.4v20.8zM355.2 297.6h208v62.4h-208v-62.4zM126.4 297.6h208v62.4h-208v-62.4z" />
<glyph unicode="&#xe938;" glyph-name="ded-storage" d="M0 960v-1024h1024v1024h-1024zM998.4-38.4h-972.8v972.8h971.2v-972.8zM512 211.2c134.4 0 262.4 44.8 262.4 118.4 0 14.4-4.8 27.2-14.4 40 9.6 12.8 14.4 25.6 14.4 40s-4.8 27.2-14.4 40c9.6 12.8 14.4 25.6 14.4 40s-4.8 27.2-14.4 40c9.6 12.8 14.4 25.6 14.4 40 0 72-128 118.4-262.4 118.4s-262.4-44.8-262.4-118.4c0-14.4 4.8-27.2 14.4-40-8-11.2-14.4-25.6-14.4-40s4.8-27.2 14.4-40c-8-11.2-14.4-25.6-14.4-40s4.8-27.2 14.4-40c-8-11.2-14.4-25.6-14.4-40 0-72 128-118.4 262.4-118.4zM512 657.6c142.4 0 236.8-48 236.8-91.2s-94.4-91.2-236.8-91.2-236.8 48-236.8 91.2c0 43.2 94.4 91.2 236.8 91.2zM281.6 507.2c46.4-36.8 137.6-59.2 230.4-59.2s184 22.4 230.4 59.2c4.8-6.4 6.4-14.4 6.4-20.8 0-43.2-94.4-91.2-236.8-91.2s-236.8 48-236.8 91.2c0 8 3.2 14.4 6.4 20.8zM281.6 428.8c46.4-38.4 137.6-59.2 230.4-59.2s184 22.4 230.4 59.2c4.8-6.4 6.4-14.4 6.4-20.8 0-43.2-94.4-91.2-236.8-91.2s-236.8 48-236.8 91.2c0 6.4 3.2 14.4 6.4 20.8zM281.6 350.4c46.4-38.4 137.6-59.2 230.4-59.2s184 22.4 230.4 59.2c4.8-6.4 6.4-14.4 6.4-20.8 0-43.2-94.4-91.2-236.8-91.2s-236.8 48-236.8 91.2c0 6.4 3.2 12.8 6.4 20.8zM512 523.2c22.4 0 80 8 80 40 0 16-14.4 27.2-27.2 32-14.4 6.4-32 9.6-52.8 9.6-22.4 0-80-8-80-40 0-33.6 57.6-41.6 80-41.6zM512 579.2c17.6 0 32-3.2 41.6-6.4 3.2-1.6 9.6-4.8 11.2-8-11.2-11.2-38.4-14.4-52.8-14.4-8 0-48 3.2-52.8 14.4 11.2 11.2 38.4 14.4 52.8 14.4z" />
<glyph unicode="&#xe939;" glyph-name="ded-support" d="M830.4 355.2l-1.6-6.4-6.4 1.6c0-9.6 1.6-20.8 3.2-33.6 6.4-51.2 12.8-105.6-30.4-148.8-24-24-54.4-35.2-94.4-35.2-17.6 0-36.8 1.6-54.4 4.8-11.2 1.6-22.4 3.2-35.2 3.2l1.6-6.4-6.4-1.6c-30.4-9.6-60.8-12.8-92.8-12.8s-62.4 4.8-92.8 12.8l-6.4 1.6 1.6 6.4c-11.2 0-20.8-1.6-33.6-3.2-17.6-1.6-36.8-4.8-54.4-4.8-40 0-70.4 11.2-94.4 35.2-43.2 43.2-36.8 97.6-30.4 148.8 1.6 11.2 3.2 22.4 3.2 33.6l-6.4-1.6-1.6 6.4c-9.6 30.4-12.8 60.8-12.8 92.8s4.8 62.4 12.8 92.8l1.6 6.4 6.4-1.6c0 9.6-1.6 20.8-3.2 33.6-6.4 51.2-12.8 105.6 30.4 148.8 24 24 54.4 35.2 94.4 35.2 17.6 0 36.8-1.6 56-4.8 11.2-1.6 22.4-3.2 33.6-3.2l-1.6 6.4 6.4 1.6c60.8 17.6 126.4 17.6 185.6 0l6.4-1.6-1.6-6.4c11.2 0 20.8 1.6 33.6 3.2 17.6 1.6 36.8 4.8 54.4 4.8 40 0 70.4-11.2 94.4-35.2 43.2-43.2 36.8-97.6 30.4-148.8-1.6-11.2-3.2-22.4-3.2-33.6l6.4 1.6 1.6-6.4c8-30.4 12.8-60.8 12.8-92.8s-4.8-62.4-12.8-92.8zM648 448c0 75.2-60.8 136-136 136s-136-60.8-136-136c0-75.2 60.8-136 136-136s136 60.8 136 136zM356.8 505.6c16 44.8 52.8 81.6 97.6 97.6l-27.2 102.4c-81.6-27.2-145.6-91.2-172.8-172.8l102.4-27.2zM769.6 532.8c-27.2 81.6-91.2 145.6-172.8 172.8l-27.2-102.4c44.8-16 81.6-52.8 97.6-97.6l102.4 27.2zM348.8 476.8l-131.2 35.2c-4.8-20.8-6.4-41.6-6.4-64 0-20.8 1.6-43.2 6.4-64l131.2 35.2c-1.6 9.6-3.2 19.2-3.2 28.8s1.6 19.2 3.2 28.8zM254.4 363.2c27.2-81.6 91.2-145.6 172.8-172.8l27.2 102.4c-44.8 16-81.6 52.8-97.6 97.6l-102.4-27.2zM667.2 390.4c-16-44.8-52.8-81.6-97.6-97.6l27.2-102.4c81.6 27.2 145.6 91.2 172.8 172.8l-102.4 27.2zM675.2 419.2l131.2-35.2c4.8 20.8 6.4 41.6 6.4 64 0 20.8-1.6 43.2-6.4 64l-131.2-35.2c1.6-9.6 1.6-19.2 1.6-28.8 1.6-9.6 0-19.2-1.6-28.8zM795.2 584c6.4 49.6 11.2 91.2-22.4 124.8-19.2 17.6-41.6 27.2-73.6 27.2-16 0-33.6-1.6-51.2-4.8l-25.6-3.2c76.8-30.4 139.2-91.2 169.6-169.6l3.2 25.6zM540.8 611.2l35.2 131.2c-41.6 9.6-84.8 9.6-126.4 0l35.2-131.2c9.6 1.6 19.2 3.2 28.8 3.2s17.6-1.6 27.2-3.2zM376 731.2c-17.6 1.6-35.2 4.8-51.2 4.8-32 0-54.4-8-72-27.2-33.6-33.6-28.8-75.2-22.4-124.8l3.2-25.6c30.4 76.8 91.2 139.2 169.6 169.6-9.6 1.6-19.2 1.6-27.2 3.2zM228.8 312c-6.4-49.6-11.2-91.2 22.4-124.8 19.2-17.6 41.6-27.2 73.6-27.2 16 0 33.6 1.6 51.2 4.8l25.6 3.2c-76.8 30.4-139.2 91.2-169.6 169.6-1.6-9.6-1.6-17.6-3.2-25.6zM483.2 284.8l-35.2-131.2c41.6-9.6 84.8-9.6 126.4 0l-35.2 131.2c-17.6-3.2-36.8-3.2-56 0zM792 337.6c-30.4-76.8-91.2-139.2-169.6-169.6 8 0 16-1.6 25.6-3.2 17.6-1.6 35.2-4.8 51.2-4.8 32 0 54.4 8 72 27.2 33.6 33.6 28.8 75.2 22.4 124.8l-1.6 25.6zM0 960h1024v-1024h-1024v1024zM998.4-38.4v972.8h-972.8v-971.2h972.8z" />
<glyph unicode="&#xe93a;" glyph-name="gen-antivirus" d="M648 680l96-96-22.4-22.4-36.8 36.8-62.4-62.4 76.8-76.8-22.4-22.4-36.8 36.8-192-192-40 40-105.6-105.6-22.4 22.4 105.6 105.6-40 40 192 192-36.8 36.8 22.4 22.4 76.8-76.8 62.4 62.4-36.8 36.8 22.4 22.4zM521.6 400l-57.6 57.6-25.6-25.6 36.8-36.8-22.4-22.4-36.8 36.8-25.6-25.6 57.6-57.6 73.6 73.6zM486.4 480l57.6-57.6 73.6 73.6-57.6 57.6-25.6-25.6 36.8-36.8-22.4-22.4-36.8 36.8-25.6-25.6z" />
<glyph unicode="&#xe93b;" glyph-name="gen-assistance" d="M350.4 496c-33.6 0-62.4-20.8-81.6-48l-20.8 16c24 33.6 60.8 59.2 104 59.2s78.4-25.6 104-59.2l-20.8-16c-20.8 27.2-49.6 48-84.8 48zM668.8 523.2c-43.2 0-78.4-25.6-104-59.2l20.8-16c19.2 27.2 48 48 81.6 48s62.4-20.8 81.6-48l20.8 16c-20.8 33.6-57.6 59.2-100.8 59.2zM600 260.8c-20.8-11.2-51.2-19.2-83.2-19.2-60.8 0-124.8 24-124.8 68.8h-27.2c0-62.4 76.8-96 152-96 36.8 0 72 8 96 22.4 30.4 17.6 48 43.2 48 73.6h-27.2c0-20.8-11.2-36.8-33.6-49.6zM920 395.2l-54.4-289.6c0-4.8-3.2-8-8-9.6l-200-97.6c4.8-6.4 6.4-14.4 6.4-22.4 0-22.4-17.6-40-40-40s-40 17.6-40 40 17.6 40 40 40c1.6 0 4.8 0 6.4 0l209.6 102.4 40 208c-59.2-144-201.6-246.4-368-246.4-190.4 0-348.8 134.4-387.2 312-44.8 1.6-81.6 36.8-81.6 83.2 0 32 19.2 60.8 46.4 73.6 3.2 60.8 24 198.4 120 297.6 73.6 75.2 176 113.6 302.4 113.6s228.8-38.4 302.4-113.6c97.6-100.8 116.8-236.8 120-299.2 27.2-14.4 44.8-41.6 44.8-73.6 1.6-36.8-24-68.8-59.2-78.4zM116.8 556.8c1.6 0 4.8 0 6.4 0 36.8 180.8 198.4 316.8 388.8 316.8 192 0 352-136 388.8-316.8 1.6 0 4.8 0 6.4 0-4.8 62.4-27.2 184-112 272-67.2 68.8-163.2 104-283.2 104s-216-35.2-283.2-105.6c-84.8-88-105.6-209.6-112-270.4zM860.8 476.8c0 56-14.4 110.4-38.4 156.8-96-72-262.4-44.8-262.4-44.8-96 17.6-148.8 51.2-177.6 84.8-3.2-60.8-33.6-123.2-144-123.2 0 0-38.4-1.6-59.2 22.4-9.6-30.4-14.4-62.4-14.4-96 0-192 155.2-347.2 347.2-347.2s348.8 155.2 348.8 347.2z" />
<glyph unicode="&#xe93c;" glyph-name="gen-bolt-fill" d="M563.2 560h96l-140.8-161.6h96l-294.4-222.4 104 160h-76.8l99.2 161.6h-72l142.4 222.4h187.2z" />
<glyph unicode="&#xe93d;" glyph-name="gen-bolt-gear" d="M512 112c-4.8 0-12.8 0-19.2 1.6l-6.4 1.6-4.8 6.4c-8 11.2-19.2 30.4-22.4 59.2 0 1.6 0 4.8-1.6 4.8-9.6 1.6-20.8 4.8-30.4 8 0 0-1.6-1.6-1.6-3.2-17.6-24-36.8-35.2-49.6-40l-8-4.8-6.4 3.2c-6.4 3.2-12.8 6.4-17.6 9.6-3.2 1.6-11.2 6.4-16 11.2l-6.4 4.8v6.4c-1.6 14.4-1.6 35.2 9.6 62.4 0 1.6 1.6 3.2 1.6 4.8-8 6.4-16 14.4-22.4 22.4 0 0-1.6 0-3.2-1.6-17.6-8-33.6-11.2-51.2-11.2-4.8 0-9.6 0-12.8 0h-6.4l-4.8 6.4c-3.2 4.8-8 11.2-11.2 16-1.6 3.2-6.4 11.2-9.6 17.6l-1.6 6.4 3.2 6.4c6.4 12.8 16 32 40 49.6 1.6 1.6 3.2 3.2 3.2 3.2-3.2 9.6-6.4 20.8-8 30.4 0 0-1.6 0-3.2 0-30.4 3.2-48 14.4-60.8 22.4l-6.4 4.8-1.6 6.4c0 8 0 16 0 20.8s0 12.8 1.6 19.2l1.6 6.4 6.4 4.8c11.2 8 30.4 19.2 59.2 22.4 1.6 0 3.2 0 4.8 1.6 1.6 9.6 4.8 20.8 8 30.4 0 0-1.6 1.6-3.2 3.2-24 17.6-35.2 36.8-40 49.6l-4.8 6.4 3.2 6.4c3.2 6.4 6.4 12.8 9.6 17.6 1.6 3.2 6.4 11.2 11.2 16l4.8 6.4h6.4c4.8 0 8 0 12.8 0 17.6 0 33.6-3.2 49.6-11.2 1.6 0 3.2-1.6 4.8-1.6 6.4 8 14.4 16 22.4 22.4 0 0 0 1.6-1.6 3.2-11.2 27.2-11.2 49.6-9.6 64v6.4l6.4 4.8c4.8 3.2 11.2 8 16 11.2 3.2 1.6 11.2 6.4 17.6 9.6l6.4 3.2 6.4-3.2c12.8-6.4 32-16 49.6-40 1.6-1.6 3.2-3.2 3.2-3.2 9.6 3.2 20.8 6.4 30.4 9.6 0 0 0 1.6 0 3.2 3.2 30.4 14.4 48 22.4 60.8l4.8 6.4 6.4 1.6c6.4-1.6 14.4-1.6 19.2-1.6s12.8 0 19.2-1.6l6.4-1.6 4.8-6.4c8-11.2 19.2-30.4 22.4-59.2 0-1.6 0-3.2 1.6-4.8 9.6-1.6 20.8-4.8 30.4-8 0 0 1.6 1.6 1.6 3.2 17.6 24 36.8 35.2 49.6 40l6.4 3.2 6.4-3.2c6.4-3.2 12.8-6.4 17.6-9.6 3.2-1.6 11.2-6.4 16-11.2l6.4-4.8v-6.4c1.6-14.4 1.6-35.2-9.6-62.4 0-1.6-1.6-3.2-1.6-4.8 8-6.4 16-14.4 22.4-22.4 0 0 1.6 0 3.2 1.6 17.6 8 33.6 11.2 51.2 11.2 4.8 0 9.6 0 12.8 0h6.4l4.8-6.4c3.2-4.8 8-11.2 11.2-16s6.4-11.2 9.6-17.6l3.2-6.4-3.2-6.4c-6.4-12.8-16-32-40-49.6-1.6-1.6-3.2-3.2-3.2-3.2 3.2-9.6 6.4-20.8 8-30.4 0 0 1.6 0 3.2 0 30.4-3.2 48-14.4 60.8-22.4l6.4-4.8 1.6-6.4c0-6.4 0-14.4 0-19.2s0-12.8-1.6-19.2l-1.6-6.4-6.4-4.8c-11.2-8-30.4-19.2-59.2-22.4-1.6 0-4.8 0-4.8-1.6-1.6-9.6-4.8-20.8-8-30.4 0 0 1.6-1.6 3.2-1.6 24-17.6 35.2-36.8 40-49.6l3.2-6.4-3.2-6.4c-3.2-6.4-6.4-12.8-9.6-17.6-1.6-3.2-6.4-11.2-11.2-16l-4.8-6.4h-6.4c-4.8 0-8 0-12.8 0-17.6 0-33.6 3.2-49.6 11.2-1.6 0-3.2 1.6-4.8 1.6-6.4-8-14.4-16-22.4-22.4 0 0 0-1.6 1.6-3.2 11.2-27.2 11.2-49.6 9.6-64v-6.4l-6.4-4.8c-4.8-4.8-12.8-8-16-11.2-4.8-3.2-11.2-6.4-17.6-9.6l-3.2-4.8-6.4 3.2c-12.8 6.4-32 16-49.6 40-1.6 1.6-3.2 3.2-3.2 3.2-9.6-3.2-20.8-6.4-30.4-9.6 0 0 0-1.6 0-3.2-3.2-30.4-14.4-48-22.4-60.8l-4.8-6.4-6.4-1.6c-8 1.6-16 1.6-20.8 1.6zM504 144c6.4 0 11.2 0 16 0 4.8 9.6 11.2 20.8 12.8 38.4s11.2 28.8 25.6 32c9.6 1.6 19.2 4.8 28.8 8 4.8 1.6 8 1.6 11.2 1.6 16 0 24-11.2 27.2-16 11.2-14.4 22.4-22.4 32-27.2l8 4.8 6.4 4.8c0 11.2-1.6 24-8 40s-4.8 30.4 6.4 40c8 6.4 14.4 12.8 20.8 20.8 6.4 6.4 14.4 11.2 24 11.2 6.4 0 12.8-3.2 16-3.2 14.4-6.4 27.2-8 41.6-8l4.8 6.4 4.8 8c-4.8 9.6-12.8 20.8-27.2 30.4-4.8 4.8-20.8 16-14.4 36.8 3.2 9.6 6.4 19.2 8 28.8 3.2 14.4 14.4 24 30.4 25.6 17.6 1.6 30.4 8 40 12.8v16c-9.6 4.8-20.8 11.2-38.4 12.8s-28.8 11.2-32 25.6c-1.6 9.6-4.8 19.2-8 28.8-6.4 22.4 9.6 33.6 14.4 36.8 14.4 11.2 22.4 22.4 27.2 32l-4.8 8-4.8 6.4c-12.8 0-27.2-1.6-40-8-3.2-1.6-9.6-4.8-17.6-4.8-9.6 0-17.6 3.2-24 11.2s-12.8 14.4-20.8 20.8c-11.2 11.2-14.4 24-6.4 40 6.4 16 8 30.4 8 41.6l-6.4 4.8-9.6 3.2c-9.6-4.8-20.8-12.8-30.4-27.2-3.2-4.8-12.8-16-27.2-16-3.2 0-6.4 0-9.6 1.6-9.6 3.2-19.2 6.4-28.8 8-14.4 3.2-24 14.4-25.6 30.4-1.6 17.6-8 30.4-12.8 40-6.4 0-11.2 0-16 0-4.8-9.6-11.2-20.8-12.8-38.4s-11.2-28.8-25.6-32c-9.6-1.6-19.2-4.8-28.8-8-6.4-1.6-9.6-1.6-12.8-1.6-16 0-24 11.2-27.2 16-11.2 14.4-22.4 22.4-32 27.2l-8-4.8-6.4-4.8c0-11.2 1.6-24 8-40s4.8-30.4-6.4-40c-8-6.4-14.4-12.8-20.8-20.8-6.4-6.4-14.4-11.2-24-11.2-8 0-12.8 3.2-16 3.2-14.4 6.4-27.2 8-41.6 8l-4.8-6.4-1.6-6.4c4.8-9.6 12.8-20.8 27.2-30.4 4.8-4.8 20.8-16 14.4-36.8-3.2-9.6-6.4-19.2-8-28.8-3.2-14.4-14.4-24-30.4-25.6-17.6-1.6-30.4-8-40-12.8v-16c9.6-4.8 20.8-11.2 38.4-12.8s28.8-11.2 32-25.6c1.6-9.6 4.8-19.2 8-27.2 4.8-14.4 0-27.2-14.4-38.4s-22.4-22.4-27.2-32l4.8-8 4.8-6.4c12.8 0 27.2 1.6 40 8 3.2 1.6 9.6 4.8 17.6 4.8 9.6 0 17.6-3.2 24-11.2s12.8-14.4 20.8-20.8c11.2-11.2 14.4-24 6.4-40-6.4-16-8-30.4-8-41.6l6.4-4.8 8-4.8c9.6 4.8 20.8 12.8 30.4 27.2 3.2 4.8 12.8 16 27.2 16 3.2 0 6.4 0 11.2-1.6 9.6-3.2 19.2-4.8 27.2-8 14.4-3.2 24-14.4 25.6-30.4 1.6-17.6 6.4-30.4 12.8-40zM512 592c-80 0-144-64-144-144 0-28.8 8-56 22.4-78.4l-22.4-22.4c-19.2 28.8-32 62.4-32 100.8 0 97.6 78.4 176 176 176 33.6 0 65.6-9.6 92.8-25.6l-32-19.2c-19.2 8-40 12.8-60.8 12.8zM451.2 316.8c17.6-8 38.4-12.8 60.8-12.8 80 0 144 64 144 144 0 28.8-8 56-22.4 78.4l24 22.4c19.2-28.8 32-62.4 32-100.8 0-97.6-78.4-176-176-176-33.6 0-65.6 9.6-92.8 25.6l30.4 19.2zM656 592l-99.2-94.4 43.2-4.8-89.6-72 43.2-4.8-185.6-112 99.2 94.4-43.2 4.8 89.6 72-43.2 4.8 185.6 112z" />
<glyph unicode="&#xe93e;" glyph-name="gen-bolt-outline" d="M638.4 569.6h-96l140.8 160h-142.4l-121.6-190.4h72l-99.2-160h76.8l-70.4-108.8 184 139.2h-83.2l139.2 160zM708.8 601.6l-140.8-160h108.8l-406.4-307.2 137.6 212.8h-76.8l99.2 160h-72l163.2 254.4h232l-140.8-160h96z" />
<glyph unicode="&#xe93f;" glyph-name="gen-building-lg" d="M534.4 769.6v30.4h-168v-30.4h168zM947.2 96v352h-168v-352h168zM244.8 585.6h-168v-489.6h168v489.6zM46.4 616h198.4v153.6h91.2v60.8h228.8v-60.8h214.4v-289.6h198.4v-384h46.4v-30.4h-1024v30.4h46.4v520zM550.4 96v137.6h-60.8v-137.6h60.8zM473.6 249.6h91.2v-153.6h184v641.6h-473.6v-641.6h198.4v153.6zM121.6 523.2h76.8v-91.2h-76.8v91.2zM184 507.2h-46.4v-60.8h46.4v60.8zM184 232h-46.4v-60.8h46.4v60.8zM121.6 248h76.8v-91.2h-76.8v91.2zM184 369.6h-46.4v-60.8h46.4v60.8zM121.6 385.6h76.8v-91.2h-76.8v91.2zM886.4 232h-46.4v-60.8h46.4v60.8zM825.6 248h76.8v-91.2h-76.8v91.2zM886.4 369.6h-46.4v-60.8h46.4v60.8zM825.6 385.6h76.8v-91.2h-76.8v91.2zM412.8 507.2h-60.8v-60.8h60.8v60.8zM336 523.2h91.2v-91.2h-91.2v91.2zM550.4 507.2h-60.8v-60.8h60.8v60.8zM473.6 523.2h91.2v-91.2h-91.2v91.2zM688 507.2h-60.8v-60.8h60.8v60.8zM611.2 523.2h91.2v-91.2h-91.2v91.2zM412.8 369.6h-60.8v-60.8h60.8v60.8zM336 385.6h91.2v-91.2h-91.2v91.2zM550.4 369.6h-60.8v-60.8h60.8v60.8zM473.6 385.6h91.2v-91.2h-91.2v91.2zM688 369.6h-60.8v-60.8h60.8v60.8zM611.2 385.6h91.2v-91.2h-91.2v91.2zM412.8 232h-60.8v-60.8h60.8v60.8zM336 248h91.2v-91.2h-91.2v91.2zM688 232h-60.8v-60.8h60.8v60.8zM611.2 248h91.2v-91.2h-91.2v91.2zM412.8 644.8h-60.8v-60.8h60.8v60.8zM336 660.8h91.2v-91.2h-91.2v91.2zM550.4 644.8h-60.8v-60.8h60.8v60.8zM473.6 660.8h91.2v-91.2h-91.2v91.2zM688 644.8h-60.8v-60.8h60.8v60.8zM611.2 660.8h91.2v-91.2h-91.2v91.2z" />
<glyph unicode="&#xe940;" glyph-name="gen-building-md" d="M748.8 164.8v137.6h-60.8v-137.6h60.8zM672 318.4h91.2v-153.6h184v505.6h-870.4v-504h595.2v152zM870.4 700.8v30.4h-305.6v-30.4h305.6zM902.4 761.6v-60.8h76.8v-534.4h44.8v-30.4h-1024v30.4h46.4v534.4h489.6v60.8h366.4zM809.6 592h91.2v-91.2h-91.2v91.2zM886.4 576h-60.8v-60.8h60.8v60.8zM198.4 438.4h-60.8v-60.8h60.8v60.8zM121.6 454.4h91.2v-91.2h-91.2v91.2zM198.4 300.8h-60.8v-60.8h60.8v60.8zM121.6 316.8h91.2v-92.8h-91.2v92.8zM336 438.4h-60.8v-60.8h60.8v60.8zM259.2 454.4h92.8v-91.2h-91.2v91.2zM336 300.8h-60.8v-60.8h60.8v60.8zM259.2 316.8h92.8v-92.8h-91.2v92.8zM473.6 438.4h-60.8v-60.8h60.8v60.8zM396.8 454.4h91.2v-91.2h-91.2v91.2zM473.6 300.8h-60.8v-60.8h60.8v60.8zM396.8 316.8h91.2v-92.8h-91.2v92.8zM611.2 438.4h-60.8v-60.8h60.8v60.8zM534.4 454.4h91.2v-91.2h-91.2v91.2zM611.2 300.8h-60.8v-60.8h60.8v60.8zM534.4 316.8h91.2v-92.8h-91.2v92.8zM748.8 438.4h-60.8v-60.8h60.8v60.8zM672 454.4h91.2v-91.2h-91.2v91.2zM886.4 438.4h-60.8v-60.8h60.8v60.8zM809.6 454.4h91.2v-91.2h-91.2v91.2zM886.4 300.8h-60.8v-60.8h60.8v60.8zM809.6 316.8h91.2v-92.8h-91.2v92.8zM198.4 576h-60.8v-60.8h60.8v60.8zM121.6 592h91.2v-91.2h-91.2v91.2zM336 576h-60.8v-60.8h60.8v60.8zM259.2 592h92.8v-91.2h-91.2v91.2zM473.6 576h-60.8v-60.8h60.8v60.8zM396.8 592h91.2v-91.2h-91.2v91.2zM611.2 576h-60.8v-60.8h60.8v60.8zM534.4 592h91.2v-91.2h-91.2v91.2zM748.8 576h-60.8v-60.8h60.8v60.8zM672 592h91.2v-91.2h-91.2v91.2z" />
<glyph unicode="&#xe941;" glyph-name="gen-building-sm" d="M544 152v144h-64v-144h64zM464 312h96v-160h208v528h-512v-528h208v160zM672 712v32h-176v-32h176zM704 776v-64h96v-560h48v-32h-672v32h48v560h240v64h240zM608 310.4h96v-96h-96v96zM688 294.4h-64v-64h64v64zM400 582.4h-64v-64h64v64zM320 598.4h96v-96h-96v96zM544 582.4h-64v-64h64v64zM464 598.4h96v-96h-96v96zM688 582.4h-64v-64h64v64zM608 598.4h96v-96h-96v96zM400 438.4h-64v-64h64v64zM320 454.4h96v-96h-96v96zM544 438.4h-64v-64h64v64zM464 454.4h96v-96h-96v96zM688 438.4h-64v-64h64v64zM608 454.4h96v-96h-96v96zM400 294.4h-64v-64h64v64zM320 310.4h96v-96h-96v96z" />
<glyph unicode="&#xe942;" glyph-name="gen-bummed" d="M931.2 545.6c56 86.4 11.2 179.2-52.8 208-6.4 81.6-102.4 131.2-176 108.8-22.4 81.6-139.2 124.8-208 75.2-72 44.8-161.6 20.8-196.8-46.4-81.6 12.8-158.4-51.2-150.4-136-64-28.8-108.8-121.6-52.8-208-16-40-12.8-73.6 1.6-102.4-14.4-24-16-60.8-3.2-104 20.8-68.8 48-104 86.4-110.4l6.4-60.8c8-105.6 188.8-233.6 326.4-233.6s318.4 128 328 230.4l6.4 60.8c38.4 8 65.6 43.2 86.4 110.4 12.8 44.8 11.2 81.6-3.2 104 12.8 32 17.6 64 1.6 104zM128 350.4c-6.4 22.4-8 40-6.4 52.8 14.4-19.2 30.4-36.8 44.8-56l8-78.4c-14.4 8-30.4 28.8-46.4 81.6zM512-25.6c-116.8 0-283.2 112-291.2 196.8l-14.4 147.2 11.2 144c-20.8 60.8-9.6 121.6 30.4 160 0 0 48-46.4 134.4-46.4v60.8c0 0 48-44.8 132.8-44.8v60.8c0 0 48-44.8 132.8-44.8v60.8c129.6 8 196.8-97.6 158.4-203.2l11.2-144-14.4-147.2c-8-88-174.4-200-291.2-200zM896 350.4c-16-52.8-32-72-46.4-80l8 78.4c14.4 19.2 30.4 36.8 44.8 54.4 1.6-14.4 0-32-6.4-52.8zM512 219.2c-14.4 0-28.8 3.2-41.6 9.6-4.8 1.6-6.4 8-4.8 12.8s8 6.4 12.8 4.8c19.2-9.6 44.8-9.6 64 0 4.8 1.6 9.6 0 12.8-4.8 1.6-4.8 0-9.6-4.8-12.8-9.6-6.4-24-9.6-38.4-9.6zM489.6 275.2c-4.8 0-9.6 4.8-9.6 9.6v78.4c0 4.8 4.8 9.6 9.6 9.6s9.6-4.8 9.6-9.6v-78.4c0-4.8-4.8-9.6-9.6-9.6zM614.4 348.8c0 19.2 16 33.6 33.6 33.6 19.2 0 33.6-14.4 33.6-33.6s-16-33.6-33.6-33.6c-17.6-1.6-33.6 14.4-33.6 33.6zM342.4 348.8c0 19.2 16 33.6 33.6 33.6 19.2 0 33.6-14.4 33.6-33.6s-16-33.6-33.6-33.6c-19.2-1.6-33.6 14.4-33.6 33.6zM481.6 46.4c-3.2 0-8 3.2-9.6 6.4-1.6 4.8 1.6 9.6 6.4 11.2 22.4 8 44.8 8 65.6 0 4.8-1.6 8-6.4 6.4-11.2s-6.4-8-11.2-6.4c-17.6 6.4-36.8 6.4-54.4 0-1.6 0-1.6 0-3.2 0zM409.6 116.8c-3.2 0-6.4 1.6-8 6.4s0 9.6 4.8 12.8c33.6 14.4 68.8 20.8 107.2 20.8 36.8 0 72-8 107.2-20.8 4.8-1.6 6.4-8 4.8-12.8s-8-6.4-12.8-4.8c-32 12.8-64 20.8-99.2 20.8-33.6 0-67.2-6.4-99.2-20.8-3.2-1.6-3.2-1.6-4.8-1.6zM283.2 396.8l-17.6 8c22.4 49.6 64 46.4 102.4 44.8 25.6-1.6 49.6-3.2 67.2 11.2l11.2-14.4c-22.4-17.6-52.8-17.6-80-16-35.2 1.6-67.2 3.2-83.2-33.6zM740.8 396.8c-16 36.8-48 35.2-83.2 33.6-28.8-1.6-57.6-3.2-80 16l11.2 14.4c17.6-14.4 41.6-12.8 67.2-11.2 36.8 1.6 80 3.2 102.4-44.8l-17.6-8z" />
<glyph unicode="&#xe943;" glyph-name="gen-calculator" d="M123.2 960h777.6v-1024h-777.6v1024zM193.6 6.4h635.2v883.2h-635.2v-883.2zM688 289.6h70.4v-211.2h-70.4v211.2zM265.6 819.2h494.4v-176h-494.4v176zM265.6 571.2h70.4v-70.4h-70.4v70.4zM406.4 571.2h70.4v-70.4h-70.4v70.4zM547.2 571.2h70.4v-70.4h-70.4v70.4zM688 571.2h70.4v-70.4h-70.4v70.4zM265.6 430.4h70.4v-70.4h-70.4v70.4zM406.4 430.4h70.4v-70.4h-70.4v70.4zM547.2 430.4h70.4v-70.4h-70.4v70.4zM688 430.4h70.4v-70.4h-70.4v70.4zM265.6 289.6h70.4v-70.4h-70.4v70.4zM406.4 289.6h70.4v-70.4h-70.4v70.4zM547.2 289.6h70.4v-70.4h-70.4v70.4zM265.6 147.2h211.2v-70.4h-211.2v70.4zM547.2 147.2h70.4v-70.4h-70.4v70.4z" />
<glyph unicode="&#xe944;" glyph-name="gen-chart" d="M729.6-46.4h-139.2v35.2h139.2v-35.2zM520-46.4h-139.2v35.2h139.2v-35.2zM312-46.4h-139.2v35.2h139.2v-35.2zM1024 22.4h-971.2v104h-52.8v35.2h52.8v52.8h-52.8v35.2h52.8v52.8h-52.8v35.2h52.8v52.8h-52.8v35.2h52.8v52.8h-52.8v35.2h52.8v52.8h-52.8v35.2h52.8v52.8h-52.8v35.2h52.8v52.8h-52.8v35.2h52.8v43.2h-52.8v35.2h52.8v51.2h-52.8v35.2h86.4v-884.8h937.6v-35.2zM937.6-46.4h-139.2v35.2h139.2v-35.2zM902.4 577.6h-68.8v-416h68.8v416zM798.4 612.8h139.2v-486.4h-139.2v486.4zM278.4 544h-70.4v-382.4h68.8v382.4zM172.8 577.6h139.2v-451.2h-139.2v451.2zM486.4 787.2h-70.4v-625.6h68.8v625.6zM382.4 820.8h139.2v-694.4h-139.2v694.4zM694.4 440h-68.8v-278.4h68.8v278.4zM590.4 473.6h139.2v-347.2h-139.2v347.2z" />
<glyph unicode="&#xe945;" glyph-name="gen-clock" d="M512-64c-283.2 0-512 228.8-512 512s228.8 512 512 512 512-228.8 512-512c0-283.2-228.8-512-512-512zM512-24c260.8 0 472 211.2 472 472s-211.2 472-472 472c-260.8 0-472-211.2-472-472s211.2-472 472-472zM905.6 448c0-217.6-176-393.6-393.6-393.6s-393.6 176-393.6 393.6 176 393.6 393.6 393.6c217.6 0 393.6-176 393.6-393.6zM867.2 448c0 195.2-158.4 355.2-355.2 355.2s-355.2-160-355.2-355.2c0-195.2 158.4-355.2 355.2-355.2s355.2 160 355.2 355.2zM787.2 428.8h-200c-8-33.6-40-59.2-76.8-59.2-43.2 0-78.4 35.2-78.4 78.4 0 36.8 25.6 67.2 59.2 76.8v120c0 11.2 9.6 19.2 19.2 19.2 11.2 0 19.2-9.6 19.2-19.2v-120c27.2-6.4 49.6-28.8 56-56h200c11.2 0 19.2-9.6 19.2-19.2 3.2-12.8-6.4-20.8-17.6-20.8zM552 448c0 22.4-17.6 40-40 40s-40-17.6-40-40c0-22.4 17.6-40 40-40 20.8 0 40 17.6 40 40zM492.8 723.2c0 11.2 9.6 19.2 19.2 19.2 11.2 0 19.2-9.6 19.2-19.2 0-11.2-9.6-19.2-19.2-19.2-11.2 0-19.2 9.6-19.2 19.2zM531.2 172.8c0-11.2-8-19.2-19.2-19.2s-19.2 9.6-19.2 19.2c0 11.2 9.6 19.2 19.2 19.2 11.2 0 19.2-9.6 19.2-19.2zM236.8 428.8c-11.2 0-19.2 8-19.2 19.2s9.6 19.2 19.2 19.2 19.2-8 19.2-19.2c0-11.2-9.6-19.2-19.2-19.2zM356.8 676.8c-4.8 9.6-1.6 20.8 8 27.2 9.6 4.8 20.8 1.6 27.2-6.4 4.8-9.6 1.6-20.8-6.4-27.2-11.2-6.4-22.4-3.2-28.8 6.4zM667.2 219.2c4.8-9.6 1.6-20.8-6.4-27.2-9.6-4.8-20.8-1.6-27.2 6.4-4.8 9.6-1.6 20.8 8 27.2 8 6.4 19.2 3.2 25.6-6.4zM740.8 603.2c9.6 4.8 20.8 1.6 27.2-6.4 4.8-9.6 1.6-20.8-8-27.2-9.6-4.8-20.8-1.6-27.2 8-4.8 8-1.6 19.2 8 25.6zM283.2 292.8c-9.6-4.8-20.8-1.6-27.2 8-4.8 9.6-1.6 20.8 6.4 27.2 9.6 4.8 20.8 1.6 27.2-6.4 6.4-11.2 3.2-22.4-6.4-28.8zM264 569.6c-9.6 4.8-12.8 17.6-8 27.2s17.6 12.8 27.2 8c9.6-4.8 12.8-17.6 6.4-27.2-4.8-11.2-16-14.4-25.6-8zM760 328c9.6-4.8 12.8-17.6 6.4-27.2-4.8-9.6-17.6-12.8-27.2-8s-12.8 17.6-8 27.2c8 9.6 19.2 12.8 28.8 8zM632 696c4.8 9.6 17.6 12.8 27.2 6.4 9.6-4.8 12.8-17.6 8-27.2s-17.6-12.8-27.2-8c-9.6 8-12.8 20.8-8 28.8zM390.4 200c-4.8-9.6-17.6-12.8-27.2-6.4-9.6 4.8-12.8 17.6-6.4 27.2 4.8 9.6 17.6 12.8 27.2 8 9.6-8 12.8-19.2 6.4-28.8z" />
<glyph unicode="&#xe946;" glyph-name="gen-cloud" d="M624 12.8v16c49.6 0 91.2 20.8 116.8 59.2 1.6 1.6 3.2 3.2 6.4 3.2s4.8-1.6 6.4-3.2c20.8-24 56-38.4 91.2-38.4 36.8 1.6 72 17.6 97.6 44.8 28.8 28.8 44.8 64 44.8 97.6s-14.4 68.8-38.4 91.2c-1.6 1.6-3.2 3.2-3.2 6.4s1.6 4.8 3.2 6.4c38.4 27.2 59.2 67.2 59.2 116.8h16c0-51.2-20.8-94.4-57.6-124.8 24-25.6 36.8-60.8 36.8-96 0-40-17.6-78.4-48-110.4-30.4-30.4-68.8-46.4-108.8-48v0c-36.8 0-72 14.4-97.6 36.8-28.8-36.8-73.6-57.6-124.8-57.6zM1024 483.2h-16c0 49.6-20.8 91.2-59.2 116.8-1.6 1.6-3.2 3.2-3.2 6.4s1.6 4.8 3.2 6.4c24 20.8 38.4 56 38.4 91.2-1.6 36.8-17.6 72-44.8 97.6-28.8 28.8-64 44.8-97.6 44.8s-68.8-14.4-91.2-38.4c-1.6-1.6-3.2-3.2-6.4-3.2s-4.8 1.6-6.4 3.2c-27.2 38.4-67.2 59.2-116.8 59.2v16c51.2 0 94.4-20.8 124.8-57.6 25.6 24 60.8 36.8 96 36.8 40 0 78.4-17.6 110.4-48 30.4-30.4 46.4-68.8 48-108.8 0-36.8-14.4-72-36.8-97.6 36.8-28.8 57.6-73.6 57.6-124.8zM16 483.2h-16c0 51.2 20.8 94.4 57.6 124.8-24 25.6-36.8 60.8-36.8 96 0 40 17.6 78.4 48 110.4 30.4 30.4 68.8 46.4 108.8 48 0 0 0 0 0 0 36.8 0 72-14.4 97.6-36.8 28.8 36.8 72 57.6 124.8 57.6v-16c-49.6 0-91.2-20.8-116.8-59.2-1.6-1.6-3.2-3.2-6.4-3.2s-4.8 1.6-6.4 3.2c-20.8 24-56 38.4-91.2 38.4-36.8-1.6-72-17.6-97.6-44.8-28.8-28.8-44.8-64-44.8-97.6s14.4-68.8 38.4-91.2c1.6-1.6 3.2-3.2 3.2-6.4 0-1.6-1.6-4.8-3.2-6.4-38.4-27.2-59.2-67.2-59.2-116.8zM400 12.8c-51.2 0-94.4 20.8-124.8 57.6-25.6-24-60.8-36.8-96-36.8-40 0-78.4 17.6-110.4 48-30.4 32-46.4 70.4-46.4 110.4 0 36.8 14.4 72 36.8 96-36.8 28.8-57.6 72-57.6 124.8h16c0-49.6 20.8-91.2 59.2-116.8 1.6-1.6 3.2-3.2 3.2-6.4s-1.6-4.8-3.2-6.4c-24-20.8-38.4-56-38.4-91.2s14.4-68.8 43.2-99.2c28.8-28.8 62.4-43.2 97.6-43.2 33.6 0 68.8 14.4 91.2 38.4 1.6 1.6 3.2 3.2 6.4 3.2 1.6 0 4.8-1.6 6.4-3.2 27.2-38.4 67.2-59.2 116.8-59.2v-16z" />
<glyph unicode="&#xe947;" glyph-name="gen-code" d="M270.4 780.8l9.6 32c1.6 6.4 1.6 12.8 1.6 19.2 0 41.6-33.6 76.8-76.8 76.8-41.6 0-76.8-35.2-76.8-76.8v-51.2h142.4zM307.2-12.8h512c43.2 0 76.8 35.2 76.8 76.8v51.2h-563.2v-51.2c0-28.8-9.6-56-25.6-76.8zM204.8 960h614.4c70.4 0 128-57.6 128-128 0-11.2-1.6-22.4-4.8-32l-174.4-633.6h179.2v-102.4c0-70.4-57.6-128-128-128h-614.4c-70.4 0-128 57.6-128 128 0 11.2 1.6 22.4 4.8 32l176 633.6h-180.8v102.4c0 70.4 57.6 128 128 128zM713.6 166.4l179.2 646.4c1.6 6.4 3.2 12.8 3.2 19.2 0 41.6-33.6 76.8-76.8 76.8h-512c16-20.8 25.6-48 25.6-76.8 0-11.2-1.6-22.4-4.8-32l-196.8-716.8c-1.6-6.4-3.2-12.8-3.2-19.2 0-43.2 35.2-76.8 76.8-76.8 43.2 0 76.8 33.6 76.8 76.8v102.4h432zM288 448l76.8 102.4h64l-76.8-102.4 76.8-102.4h-64l-76.8 102.4zM659.2 550.4l76.8-102.4-76.8-102.4h-64l76.8 102.4-76.8 102.4h64zM524.8 601.6h52.8l-76.8-307.2h-52.8l76.8 307.2z" />
<glyph unicode="&#xe948;" glyph-name="gen-data-replication" d="M512 908.8c-254.4 0-460.8-206.4-460.8-460.8s206.4-460.8 460.8-460.8 460.8 206.4 460.8 460.8-206.4 460.8-460.8 460.8zM0 448c0 283.2 228.8 512 512 512s512-228.8 512-512-228.8-512-512-512c-283.2 0-512 228.8-512 512zM636.8 521.6l54.4-54.4v97.6c0 35.2-28.8 64-64 64h-64v25.6h64c49.6 0 89.6-40 89.6-89.6v-97.6l54.4 54.4 17.6-17.6-84.8-86.4-86.4 86.4 19.2 17.6zM768 192v153.6h-179.2v25.6h-76.8v-179.2h256zM793.6 166.4h-307.2v230.4h128v-25.6h179.2v-204.8zM512 524.8v153.6h-179.2v25.6h-76.8v-179.2h256zM537.6 499.2h-307.2v230.4h128v-25.6h179.2v-204.8zM387.2 348.8l-54.4 54.4v-97.6c0-35.2 28.8-64 64-64h64v-25.6h-64c-49.6 0-89.6 40-89.6 89.6v97.6l-54.4-54.4-19.2 19.2 86.4 86.4 86.4-86.4-19.2-19.2z" />
<glyph unicode="&#xe949;" glyph-name="gen-desktop" d="M0-52.8v28.8l97.6 145.6h187.2c0 0 72 28.8 105.6 86.4h-390.4v740.8h1024v-740.8h-392c33.6-59.2 105.6-86.4 105.6-86.4h187.2l97.6-145.6v-28.8h-1022.4zM582.4 208h-140.8l-12.8-22.4c-16-27.2-38.4-49.6-59.2-65.6h283.2c-20.8 16-43.2 36.8-59.2 65.6l-11.2 22.4zM120 78.4l-57.6-86.4h899.2l-57.6 86.4h-784zM980.8 251.2v654.4h-937.6v-654.4h937.6zM827.2 22.4c0 6.4 4.8 11.2 11.2 11.2s11.2-4.8 11.2-11.2c0-6.4-4.8-11.2-11.2-11.2-6.4 1.6-11.2 6.4-11.2 11.2zM784 22.4c0 6.4 4.8 11.2 11.2 11.2s11.2-4.8 11.2-11.2c0-6.4-4.8-11.2-11.2-11.2-6.4 1.6-11.2 6.4-11.2 11.2zM740.8 22.4c0 6.4 4.8 11.2 11.2 11.2s11.2-4.8 11.2-11.2c0-6.4-4.8-11.2-11.2-11.2-6.4 1.6-11.2 6.4-11.2 11.2zM697.6 22.4c0 6.4 4.8 11.2 11.2 11.2s11.2-4.8 11.2-11.2c0-6.4-4.8-11.2-11.2-11.2-6.4 1.6-11.2 6.4-11.2 11.2zM654.4 22.4c0 6.4 4.8 11.2 11.2 11.2s11.2-4.8 11.2-11.2c0-6.4-4.8-11.2-11.2-11.2-6.4 1.6-11.2 6.4-11.2 11.2zM609.6 22.4c0 6.4 4.8 11.2 11.2 11.2s11.2-4.8 11.2-11.2c0-6.4-4.8-11.2-11.2-11.2-6.4 1.6-11.2 6.4-11.2 11.2zM566.4 22.4c0 6.4 4.8 11.2 11.2 11.2s11.2-4.8 11.2-11.2c0-6.4-4.8-11.2-11.2-11.2s-11.2 6.4-11.2 11.2zM131.2 22.4c0 6.4 4.8 11.2 11.2 11.2s11.2-4.8 11.2-11.2c0-6.4-4.8-11.2-11.2-11.2s-11.2 6.4-11.2 11.2zM174.4 22.4c0 6.4 4.8 11.2 11.2 11.2s11.2-4.8 11.2-11.2c0-6.4-4.8-11.2-11.2-11.2-6.4 1.6-11.2 6.4-11.2 11.2zM217.6 22.4c0 6.4 4.8 11.2 11.2 11.2s11.2-4.8 11.2-11.2c0-6.4-4.8-11.2-11.2-11.2s-11.2 6.4-11.2 11.2zM260.8 22.4c0 6.4 4.8 11.2 11.2 11.2s11.2-4.8 11.2-11.2c0-6.4-4.8-11.2-11.2-11.2s-11.2 6.4-11.2 11.2zM305.6 22.4c0 6.4 4.8 11.2 11.2 11.2s11.2-4.8 11.2-11.2c0-6.4-4.8-11.2-11.2-11.2-6.4 1.6-11.2 6.4-11.2 11.2zM348.8 22.4c0 6.4 4.8 11.2 11.2 11.2s11.2-4.8 11.2-11.2c0-6.4-4.8-11.2-11.2-11.2-6.4 1.6-11.2 6.4-11.2 11.2zM392 22.4c0 6.4 4.8 11.2 11.2 11.2s11.2-4.8 11.2-11.2c0-6.4-4.8-11.2-11.2-11.2-6.4 1.6-11.2 6.4-11.2 11.2zM435.2 22.4c0 6.4 4.8 11.2 11.2 11.2s11.2-4.8 11.2-11.2c0-6.4-4.8-11.2-11.2-11.2-6.4 1.6-11.2 6.4-11.2 11.2zM480 22.4c0 6.4 4.8 11.2 11.2 11.2s11.2-4.8 11.2-11.2c0-6.4-4.8-11.2-11.2-11.2s-11.2 6.4-11.2 11.2zM523.2 22.4c0 6.4 4.8 11.2 11.2 11.2s11.2-4.8 11.2-11.2c0-6.4-4.8-11.2-11.2-11.2s-11.2 6.4-11.2 11.2zM849.6 44.8c0 6.4 4.8 11.2 11.2 11.2s11.2-4.8 11.2-11.2c0-6.4-4.8-11.2-11.2-11.2s-11.2 4.8-11.2 11.2zM806.4 44.8c0 6.4 4.8 11.2 11.2 11.2s11.2-4.8 11.2-11.2c0-6.4-4.8-11.2-11.2-11.2s-11.2 4.8-11.2 11.2zM763.2 44.8c0 6.4 4.8 11.2 11.2 11.2s11.2-4.8 11.2-11.2c0-6.4-4.8-11.2-11.2-11.2s-11.2 4.8-11.2 11.2zM718.4 44.8c0 6.4 4.8 11.2 11.2 11.2s11.2-4.8 11.2-11.2c0-6.4-4.8-11.2-11.2-11.2s-11.2 4.8-11.2 11.2zM675.2 44.8c0 6.4 4.8 11.2 11.2 11.2s11.2-4.8 11.2-11.2c0-6.4-4.8-11.2-11.2-11.2s-11.2 4.8-11.2 11.2zM632 44.8c0 6.4 4.8 11.2 11.2 11.2s11.2-4.8 11.2-11.2c0-6.4-4.8-11.2-11.2-11.2s-11.2 4.8-11.2 11.2zM588.8 44.8c0 6.4 4.8 11.2 11.2 11.2s11.2-4.8 11.2-11.2c0-6.4-4.8-11.2-11.2-11.2s-11.2 4.8-11.2 11.2zM544 44.8c0 6.4 4.8 11.2 11.2 11.2s11.2-4.8 11.2-11.2c0-6.4-4.8-11.2-11.2-11.2s-11.2 4.8-11.2 11.2zM152 44.8c0 6.4 4.8 11.2 11.2 11.2s11.2-4.8 11.2-11.2c0-6.4-4.8-11.2-11.2-11.2s-11.2 4.8-11.2 11.2zM196.8 44.8c0 6.4 4.8 11.2 11.2 11.2s11.2-4.8 11.2-11.2c0-6.4-4.8-11.2-11.2-11.2s-11.2 4.8-11.2 11.2zM240 44.8c0 6.4 4.8 11.2 11.2 11.2s11.2-4.8 11.2-11.2c0-6.4-4.8-11.2-11.2-11.2s-11.2 4.8-11.2 11.2zM283.2 44.8c0 6.4 4.8 11.2 11.2 11.2s11.2-4.8 11.2-11.2c0-6.4-4.8-11.2-11.2-11.2s-11.2 4.8-11.2 11.2zM326.4 44.8c0 6.4 4.8 11.2 11.2 11.2s11.2-4.8 11.2-11.2c0-6.4-4.8-11.2-11.2-11.2s-11.2 4.8-11.2 11.2zM369.6 44.8c0 6.4 4.8 11.2 11.2 11.2s11.2-4.8 11.2-11.2c0-6.4-4.8-11.2-11.2-11.2-4.8 0-11.2 4.8-11.2 11.2zM414.4 44.8c0 6.4 4.8 11.2 11.2 11.2s11.2-4.8 11.2-11.2c0-6.4-4.8-11.2-11.2-11.2s-11.2 4.8-11.2 11.2zM457.6 44.8c0 6.4 4.8 11.2 11.2 11.2s11.2-4.8 11.2-11.2c0-6.4-4.8-11.2-11.2-11.2s-11.2 4.8-11.2 11.2zM500.8 44.8c0 6.4 4.8 11.2 11.2 11.2s11.2-4.8 11.2-11.2c0-6.4-4.8-11.2-11.2-11.2s-11.2 4.8-11.2 11.2zM872 22.4c0 6.4 4.8 11.2 11.2 11.2s11.2-4.8 11.2-11.2c0-6.4-4.8-11.2-11.2-11.2-6.4 1.6-11.2 6.4-11.2 11.2zM86.4 862.4h849.6v-500.8h-849.6v500.8zM915.2 840h-806.4v-457.6h806.4v457.6zM512 339.2c17.6 0 32-14.4 32-32s-14.4-32-32-32c-17.6 0-32 14.4-32 32s14.4 32 32 32z" />
<glyph unicode="&#xe94a;" glyph-name="gen-ecommerce" d="M228.8 363.2h-121.6v16h121.6v-16zM1024 838.4v-779.2h-1024v779.2h1024zM153.6 792c0-8 6.4-16 16-16 8 0 16 6.4 16 16s-6.4 16-16 16c-9.6-1.6-16-8-16-16zM91.2 792c0-8 6.4-16 16-16 8 0 16 6.4 16 16s-6.4 16-16 16c-8-1.6-16-8-16-16zM30.4 792c0-8 6.4-16 16-16 8 0 16 6.4 16 16s-6.4 16-16 16c-9.6-1.6-16-8-16-16zM993.6 593.6h-963.2v-504h963.2v504zM993.6 745.6h-963.2v-137.6h963.2v137.6zM198.4 211.2h-91.2v-16h91.2v16zM228.8 257.6h-121.6v-16h121.6v16zM198.4 332.8h-91.2v-16h91.2v16zM198.4 456h-91.2v-16h91.2v16zM228.8 500.8h-121.6v-16h121.6v16zM460.8 508.8h-92.8v16h105.6l9.6-38.4h358.4l-54.4-206.4h-259.2c-14.4 0-27.2-11.2-27.2-27.2s11.2-27.2 27.2-27.2h259.2v-16h-259.2c-24 0-41.6 19.2-41.6 41.6 0 19.2 14.4 36.8 32 41.6l-57.6 216zM779.2 318.4h-252.8l6.4-22.4h240l6.4 22.4zM790.4 356.8h-273.6l6.4-22.4h260.8l6.4 22.4zM800 395.2h-292.8l6.4-22.4h281.6l4.8 22.4zM811.2 432h-315.2l6.4-22.4h302.4l6.4 22.4zM486.4 470.4l6.4-22.4h321.6l6.4 22.4h-334.4zM534.4 195.2c-8 0-16-6.4-16-16 0-8 6.4-16 16-16 8 0 16 6.4 16 16s-6.4 16-16 16zM771.2 195.2c-8 0-16-6.4-16-16 0-8 6.4-16 16-16 8 0 16 6.4 16 16s-6.4 16-16 16z" />
<glyph unicode="&#xe94b;" glyph-name="gen-flame" d="M414.4 192c-56 28.8-76.8 92.8-68.8 144 11.2 72 84.8 112 40 182.4 25.6 3.2 46.4-1.6 64-9.6-36.8 65.6-28.8 139.2 64 195.2-28.8-107.2 38.4-145.6 104-225.6 91.2-107.2 76.8-236.8-27.2-286.4h-25.6c22.4 22.4 57.6 72 35.2 137.6-3.2-16-35.2-43.2-86.4-36.8 28.8 19.2 40 88-11.2 150.4 3.2-12.8 3.2-24 0-33.6-14.4-56-81.6-72-83.2-142.4-1.6-33.6 16-59.2 28.8-73.6h-33.6z" />
<glyph unicode="&#xe94c;" glyph-name="gen-flame-shield" d="M784 718.4c-92.8-1.6-188.8 16-272 62.4-83.2-46.4-179.2-64-272-62.4v-288c0-150.4 129.6-268.8 272-318.4 142.4 49.6 272 168 272 318.4v288zM512 817.6c89.6-56 200-72 304-65.6v-321.6c0-174.4-152-304-304-353.6-152 51.2-304 180.8-304 353.6v321.6c104-6.4 214.4 9.6 304 65.6zM433.6 249.6c-44.8 22.4-62.4 73.6-54.4 115.2 9.6 57.6 67.2 89.6 32 145.6 20.8 3.2 36.8 0 51.2-8-28.8 51.2-22.4 112 51.2 156.8-24-84.8 30.4-116.8 83.2-179.2 72-86.4 60.8-188.8-22.4-228.8h-20.8c17.6 17.6 44.8 57.6 28.8 108.8-3.2-12.8-27.2-35.2-68.8-30.4 24 16 32 70.4-9.6 120 1.6-9.6 3.2-19.2 0-27.2-11.2-44.8-65.6-57.6-65.6-113.6 0-27.2 12.8-46.4 24-59.2h-28.8z" />
<glyph unicode="&#xe94d;" glyph-name="gen-global" d="M512-64c-283.2 0-512 228.8-512 512s228.8 512 512 512 512-228.8 512-512c0-283.2-228.8-512-512-512zM747.2 619.2h-224v-160h241.6c-3.2 57.6-8 110.4-17.6 160zM952 619.2h-185.6c9.6-49.6 16-104 16-160h200c0 56-11.2 108.8-30.4 160zM678.4 800h-155.2v-160h220.8c-16 62.4-38.4 116.8-65.6 160zM827.2 800h-124.8c25.6-44.8 46.4-99.2 60.8-160h180.8c-27.2 60.8-67.2 115.2-116.8 160zM689.6 819.2h113.6c-62.4 49.6-137.6 83.2-219.2 94.4 38.4-17.6 75.2-49.6 105.6-94.4zM521.6 819.2h142.4c-40 54.4-89.6 86.4-142.4 89.6v-89.6zM766.4 276.8h185.6c19.2 49.6 30.4 104 32 160h-201.6c0-56-4.8-110.4-16-160zM521.6 276.8h224c9.6 48 16 102.4 16 160h-240v-160zM664 76.8h-142.4v-89.6c52.8 3.2 102.4 35.2 142.4 89.6zM803.2 76.8h-113.6c-30.4-44.8-65.6-76.8-105.6-94.4 81.6 11.2 156.8 44.8 219.2 94.4zM700.8 96h124.8c49.6 44.8 89.6 99.2 116.8 160h-179.2c-14.4-60.8-35.2-115.2-62.4-160zM521.6 96h155.2c27.2 43.2 49.6 97.6 64 160h-219.2v-160zM441.6-19.2c-40 17.6-75.2 51.2-105.6 94.4h-113.6c60.8-48 136-81.6 219.2-94.4zM257.6 619.2h-185.6c-19.2-49.6-30.4-104-32-160h200c1.6 56 6.4 110.4 17.6 160zM220.8 819.2h113.6c30.4 44.8 67.2 76.8 107.2 96-83.2-12.8-158.4-46.4-220.8-96zM323.2 800h-124.8c-49.6-44.8-89.6-99.2-116.8-160h180.8c12.8 60.8 33.6 115.2 60.8 160zM72 276.8h185.6c-9.6 49.6-16 104-16 160h-201.6c1.6-56 12.8-108.8 32-160zM260.8 257.6h-180.8c27.2-60.8 67.2-116.8 116.8-160h124.8c-25.6 43.2-46.4 97.6-60.8 160zM502.4 257.6h-220.8c14.4-64 36.8-118.4 64-160h155.2v-20.8h-142.4c40-54.4 89.6-86.4 142.4-89.6v921.6c-52.8-3.2-102.4-35.2-142.4-89.6h142.4v-19.2h-155.2c-27.2-43.2-49.6-97.6-64-160h220.8v-20.8h-224c-9.6-48-16-102.4-16-160h241.6v-20.8h-243.2c0-57.6 6.4-112 16-160h224v-20.8z" />
<glyph unicode="&#xe94e;" glyph-name="gen-global-traffic" d="M512 960c-283.2 0-512-228.8-512-512s228.8-512 512-512 512 228.8 512 512c0 283.2-228.8 512-512 512zM984 457.6h-171.2c-1.6 52.8-17.6 102.4-43.2 145.6-1.6 4.8-1.6 9.6-3.2 16h185.6c19.2-51.2 30.4-104 32-161.6zM944 638.4h-180.8c-14.4 62.4-35.2 116.8-60.8 160h124.8c49.6-43.2 89.6-97.6 116.8-160zM803.2 819.2h-113.6c-30.4 44.8-67.2 76.8-107.2 96 83.2-12.8 158.4-46.4 220.8-96zM521.6 908.8c52.8-3.2 102.4-35.2 142.4-89.6h-142.4v89.6zM521.6 800h155.2c27.2-41.6 48-94.4 62.4-156.8-52.8 62.4-131.2 102.4-219.2 105.6v51.2zM360 819.2c40 54.4 89.6 86.4 142.4 89.6v-89.6h-142.4zM502.4 800v-51.2c-88-3.2-166.4-43.2-219.2-105.6 14.4 60.8 36.8 113.6 62.4 156.8h156.8zM441.6 915.2c-40-19.2-76.8-51.2-107.2-96h-113.6c62.4 49.6 137.6 83.2 220.8 96zM196.8 800h124.8c-25.6-44.8-46.4-99.2-60.8-160h-180.8c27.2 60.8 67.2 115.2 116.8 160zM72 619.2h185.6c-1.6-4.8-1.6-9.6-3.2-16-25.6-43.2-41.6-92.8-43.2-145.6h-171.2c1.6 57.6 12.8 110.4 32 161.6zM40 438.4h171.2c1.6-52.8 17.6-102.4 43.2-145.6 1.6-4.8 1.6-9.6 3.2-16h-185.6c-19.2 51.2-30.4 104-32 161.6zM80 257.6h180.8c14.4-62.4 35.2-116.8 60.8-160h-124.8c-49.6 43.2-89.6 97.6-116.8 160zM220.8 76.8h113.6c30.4-44.8 65.6-76.8 105.6-94.4-81.6 11.2-156.8 44.8-219.2 94.4zM502.4-12.8c-52.8 3.2-102.4 35.2-142.4 89.6h142.4v-89.6zM502.4 96h-155.2c-27.2 41.6-48 94.4-62.4 156.8 52.8-62.4 131.2-102.4 219.2-105.6v-51.2zM230.4 448c0 155.2 126.4 281.6 281.6 281.6s281.6-126.4 281.6-281.6-126.4-281.6-281.6-281.6c-155.2 0-281.6 126.4-281.6 281.6zM740.8 252.8c-14.4-60.8-36.8-113.6-62.4-156.8h-155.2v51.2c86.4 3.2 164.8 43.2 217.6 105.6zM521.6 76.8h142.4c-40-54.4-89.6-86.4-142.4-89.6v89.6zM582.4-19.2c40 17.6 75.2 51.2 105.6 94.4h113.6c-60.8-48-136-81.6-219.2-94.4zM827.2 96h-124.8c25.6 44.8 46.4 99.2 60.8 160h180.8c-27.2-60.8-67.2-115.2-116.8-160zM952 276.8h-185.6c1.6 4.8 1.6 9.6 3.2 16 25.6 43.2 41.6 92.8 43.2 145.6h171.2c-1.6-57.6-12.8-110.4-32-161.6zM580.8 457.6h126.4l-51.2 52.8 14.4 14.4 76.8-76.8-76.8-76.8-14.4 14.4 52.8 52.8h-126.4c-4.8-30.4-28.8-54.4-59.2-59.2v-126.4l52.8 52.8 14.4-14.4-78.4-78.4-76.8 76.8 14.4 14.4 52.8-52.8v126.4c-30.4 4.8-54.4 28.8-59.2 59.2h-126.4l52.8-52.8-14.4-14.4-78.4 78.4 76.8 76.8 14.4-14.4-52.8-52.8h126.4c4.8 30.4 28.8 54.4 59.2 59.2v126.4l-51.2-51.2-14.4 14.4 76.8 76.8 76.8-76.8-14.4-14.4-52.8 52.8v-126.4c32-4.8 56-28.8 59.2-60.8zM512 497.6c-27.2 0-49.6-22.4-49.6-49.6s22.4-49.6 49.6-49.6c27.2 0 49.6 22.4 49.6 49.6s-22.4 49.6-49.6 49.6z" />
</font>
</defs>
</svg>
