<?xml version="1.0" encoding="utf-8"?>
<!-- Generator: Adobe Illustrator 19.1.0, SVG Export Plug-In . SVG Version: 6.00 Build 0)  -->
<svg version="1.1" id="Layer_1" xmlns="http://www.w3.org/2000/svg" xmlns:xlink="http://www.w3.org/1999/xlink" x="0px" y="0px"
	 viewBox="343 468 88 86" style="enable-background:new 343 468 88 86;" xml:space="preserve">
<style type="text/css">
	.st0{fill:#2A5699;}
	.st1{fill:#FFFFFF;}
	.st2{fill:#207245;}
	.st3{fill:#D24625;}
	.st4{fill:#0071C5;}
	.st5{fill:#733781;}
	.st6{fill:#077467;}
	.st7{fill:#094AB1;}
</style>
<g id="outlook">
	<path class="st4" d="M389,468h6c0,6.7,0,13.3,0,20c10.4,0,20.7,0,31.1,0c2-0.1,4.8,0.5,4.8,3.1c0.4,12.6,0,25.3,0.2,38
		c0,2.2,0,5.8-3.1,5.8c-11,0.4-22,0-33,0.2c0,6.3,0,12.7,0,19h-6.2c-15.2-2.8-30.5-5.3-45.8-8c0-23.3,0-46.7,0-70
		C358.4,473.3,373.7,470.7,389,468z"/>
	<path class="st1" d="M395,491c11.1,0,22.1,0,33.2,0c-0.2,1.3-0.6,2.6-1.7,3.4c-6.6,6.2-13.2,12.4-19.8,18.6c-4-3.6-7.8-7.3-11.7-11
		C395,498.4,395,494.7,395,491z"/>
	<path class="st1" d="M364.5,494.7c5.6-2.1,12.2,0.9,14.6,6.3c3.3,7.5,2.8,17.8-3.7,23.4c-6,5.1-16,2.2-18.7-5.1
		C353.1,511,354.9,498.1,364.5,494.7z"/>
	<path class="st1" d="M409.9,513.9c6-5.7,12.1-11.4,18.1-17.1c0,11.7,0,23.5,0,35.2c-11,0-22,0-33,0c0-8.7,0-17.4,0-26.1
		c3.7,3.3,7.1,7.1,11,10.1C407.7,516.2,408.8,514.8,409.9,513.9z"/>
	<path class="st4" d="M365.4,500.7c2.7-1.3,6,0,7.2,2.7c2,4,2,8.8,0.7,13c-0.9,3-4.2,5.4-7.3,4.2c-3.9-1.2-5.1-5.9-5.2-9.5
		C360.8,507.2,361.7,502.5,365.4,500.7z"/>
</g>
</svg>
