<?xml version="1.0" encoding="utf-8"?>
<!-- Generator: Adobe Illustrator 19.1.0, SVG Export Plug-In . SVG Version: 6.00 Build 0)  -->
<svg version="1.1"
	 id="svg2" xmlns:dc="http://purl.org/dc/elements/1.1/" xmlns:cc="http://creativecommons.org/ns#" xmlns:rdf="http://www.w3.org/1999/02/22-rdf-syntax-ns#" xmlns:svg="http://www.w3.org/2000/svg" xmlns:sodipodi="http://sodipodi.sourceforge.net/DTD/sodipodi-0.dtd" xmlns:inkscape="http://www.inkscape.org/namespaces/inkscape" sodipodi:docname="OneDrive logo.svg" inkscape:version="0.48.4 r9939"
	 xmlns="http://www.w3.org/2000/svg" xmlns:xlink="http://www.w3.org/1999/xlink" x="0px" y="0px" viewBox="90 452.3 252.3 149.7"
	 style="enable-background:new 90 452.3 252.3 149.7;" xml:space="preserve">
<style type="text/css">
	.st0{fill:#094AB1;}
</style>
<g id="layer1" transform="translate(296.64282,-173.95523)" inkscape:groupmode="layer" inkscape:label="Layer 1">
	<g id="g3986" transform="translate(222.85714,-11.428576)">
		<path id="path4256" inkscape:connector-curvature="0" class="st0" d="M-347,785.5c-15.2-3.8-23.7-15.9-23.7-33.8
			c0-5.7,0.4-8.5,1.8-12.2c3.5-9,12.8-15.9,25-18.4c6.1-1.2,8-2.6,8-5.7c0-1,0.7-3.9,1.6-6.4c4-11.7,11.5-21.4,19.4-25.4
			c8.3-4.2,12.5-5.1,22.6-5.1c14.3,0.1,21.4,3.2,31.4,13.7l5.5,5.8l4.9-1.7c23.8-8.2,47.5,5.8,49.4,29.2l0.5,6.4l4.7,1.7
			c13.4,4.8,19.7,14.9,18.5,29.7c-0.7,9.7-5.3,17.4-12.4,21.2l-3.4,1.8l-74.9,0.1C-325.6,786.5-343.9,786.3-347,785.5L-347,785.5z"
			/>
		<path id="path4248" inkscape:connector-curvature="0" class="st0" d="M-403.2,775.1c-8.9-2.1-18.3-10-22.7-18.9
			c-2.5-5.1-2.6-5.8-2.6-14.8c0-8.6,0.2-9.9,2.2-14.2c4.2-9,12.2-15.4,22.3-18c2.1-0.5,4.1-1.4,4.4-1.9c0.3-0.5,0.7-3.3,0.8-6.2
			c0.7-17.9,12.5-33.7,28.9-38.8c8.9-2.7,20-2.1,29.7,1.8c3.1,1.2,2.7,1.5,9.2-7c3.8-5,11.6-11.3,17.9-14.4c6.8-3.4,13.9-5,22.4-5
			c23.7,0.1,44.2,14.9,51.8,37.6c2.4,7.2,2.3,9.3-0.6,9.3c-1.2,0-4.8,0.7-7.9,1.5l-5.7,1.5l-5.2-5.2c-14.6-14.6-38.3-17.7-58.5-7.8
			c-8.1,4-14.6,9.7-19.5,17.1c-3.5,5.3-7.9,15.2-7.9,17.7c0,1.7-1.4,2.6-7.4,4.6c-18.7,6.1-29.6,20.3-29.6,38.4
			c0,6.6,1.7,14.6,4.1,19.3c0.9,1.7,1.4,3.4,1.1,3.7C-376.7,776.1-400,775.9-403.2,775.1L-403.2,775.1z"/>
	</g>
</g>
</svg>
