<!-- Generator: Adobe Illustrator 23.0.0, SVG Export Plug-In . SVG Version: 6.00 Build 0)  -->
<svg version="1.1" id="Layer_1" xmlns="http://www.w3.org/2000/svg" xmlns:xlink="http://www.w3.org/1999/xlink" x="0px" y="0px"
	 width="200px" height="200px" viewBox="0 0 200 200" style="enable-background:new 0 0 200 200;" xml:space="preserve">
<style type="text/css">
	.st0{fill:#EB0000;}
</style>
<g>
	<path class="st0" d="M141.34,94.4L86.01,61.84c-2.11-1.29-4.28-1.32-6.52-0.1c-2.16,1.29-3.25,3.19-3.25,5.69v65.11
		c0,2.51,1.09,4.41,3.25,5.7c1.09,0.54,2.17,0.81,3.26,0.81c1.15,0,2.23-0.3,3.26-0.91l55.33-32.56c2.17-1.22,3.26-3.08,3.26-5.59
		S143.51,95.61,141.34,94.4z M141.34,94.4L86.01,61.84c-2.11-1.29-4.28-1.32-6.52-0.1c-2.16,1.29-3.25,3.19-3.25,5.69v65.11
		c0,2.51,1.09,4.41,3.25,5.7c1.09,0.54,2.17,0.81,3.26,0.81c1.15,0,2.23-0.3,3.26-0.91l55.33-32.56c2.17-1.22,3.26-3.08,3.26-5.59
		S143.51,95.61,141.34,94.4z M186.59,49.8c-8.94-15.32-21.07-27.45-36.39-36.39C134.87,4.47,118.14,0,100,0S65.13,4.47,49.8,13.41
		C34.48,22.35,22.35,34.48,13.41,49.8C4.47,65.13,0,81.86,0,100s4.47,34.87,13.41,50.2c8.94,15.32,21.07,27.45,36.39,36.39
		C65.13,195.53,81.86,200,100,200s34.87-4.47,50.2-13.41c15.32-8.94,27.45-21.07,36.39-36.39C195.53,134.87,200,118.14,200,100
		S195.53,65.13,186.59,49.8z M100,184.38c-46.6,0-84.38-37.78-84.38-84.38c0-46.6,37.78-84.38,84.38-84.38S184.38,53.4,184.38,100
		C184.38,146.6,146.6,184.38,100,184.38z M141.34,94.4L86.01,61.84c-2.11-1.29-4.28-1.32-6.52-0.1c-2.16,1.29-3.25,3.19-3.25,5.69
		v65.11c0,2.51,1.09,4.41,3.25,5.7c1.09,0.54,2.17,0.81,3.26,0.81c1.15,0,2.23-0.3,3.26-0.91l55.33-32.56
		c2.17-1.22,3.26-3.08,3.26-5.59S143.51,95.61,141.34,94.4z"/>
</g>
</svg>
