<?xml version="1.0" encoding="utf-8"?>
<!-- Generator: Adobe Illustrator 24.1.3, SVG Export Plug-In . SVG Version: 6.00 Build 0)  -->
<svg version="1.1" id="Layer_1" xmlns="http://www.w3.org/2000/svg" xmlns:xlink="http://www.w3.org/1999/xlink" x="0px" y="0px"
	 width="297.5px" height="91.762px" viewBox="0 0 297.5 91.762" style="enable-background:new 0 0 297.5 91.762;"
	 xml:space="preserve">
<style type="text/css">
	.st0{fill:#FFFFFF;}
</style>
<path class="st0" d="M230.792,75.369c0,5.381-3.725,9.977-9.103,9.977c-3.384,0.177-6.271-2.424-6.448-5.808
	c-0.012-0.233-0.011-0.467,0.003-0.7c0-5.346,3.725-9.977,9.103-9.977C228.589,68.861,230.792,71.906,230.792,75.369z
	 M219.131,78.74c0,2.168,1.133,3.694,3.077,3.694c2.82,0,4.697-3.887,4.697-7.033c0-1.617-0.744-3.627-3.013-3.627
	C220.881,71.773,219.131,75.793,219.131,78.74L219.131,78.74z M256.462,75.369c0,5.381-3.725,9.977-9.103,9.977
	c-3.384,0.177-6.271-2.424-6.448-5.808c-0.012-0.233-0.011-0.467,0.003-0.7c0-5.346,3.726-9.977,9.103-9.977
	C254.259,68.861,256.462,71.906,256.462,75.369z M244.801,78.74c0,2.168,1.133,3.694,3.077,3.694c2.82,0,4.697-3.887,4.697-7.033
	c0-1.618-0.744-3.628-3.013-3.628C246.552,71.773,244.801,75.793,244.801,78.74z M236.436,64.053l-3.982,20.938h3.76l4.011-20.938
	H236.436z M175.63,68.893c-5.49-0.039-9.971,4.38-10.01,9.869c-0.001,0.09,0,0.18,0.002,0.269c0,3.757,2.428,6.283,6.381,6.283
	c1.603,0.035,3.193-0.295,4.651-0.963l0.622-3.273c-1.284,0.762-2.746,1.173-4.238,1.191c-2.105,0-3.466-1.329-3.466-3.691
	c0-3.305,2.301-6.641,5.929-6.641c1.017-0.018,2.02,0.236,2.906,0.735l0.596-3.137C177.933,69.099,176.786,68.881,175.63,68.893z
	 M154.081,80.75c-0.337-0.695-0.482-1.468-0.421-2.238c6.09,0.13,10.331-1.168,10.331-5.213c0-2.659-1.975-4.438-5.087-4.438
	c-5.441,0-8.939,5.182-8.939,9.942c0,3.855,2.105,6.543,6.479,6.543c2.081,0.02,4.132-0.489,5.962-1.479l0.646-3.396
	c-1.654,1.239-3.667,1.905-5.734,1.896C156.022,82.475,154.774,81.851,154.081,80.75z M158.421,71.678
	c1.2,0,2.007,0.614,2.007,1.621c0,1.909-2.494,2.428-6.381,2.393C154.502,73.783,156.056,71.678,158.421,71.678L158.421,71.678z
	 M268.606,68.861c-6.708,0-10.144,5.931-10.144,10.922c0,2.82,1.394,5.575,4.764,5.575c2.107-0.011,4.071-1.066,5.244-2.817
	l-0.302,1.38c-0.776,3.662-2.656,4.827-5.118,4.827c-1.437,0.018-2.858-0.304-4.147-0.94l-0.585,3.078
	c1.471,0.62,3.058,0.918,4.653,0.875c2.105,0.104,4.183-0.514,5.891-1.75c1.801-1.488,2.686-3.95,3.275-7.027l1.428-7.155
	c0.203-0.894,0.312-1.806,0.324-2.723C273.889,70.255,271.912,68.861,268.606,68.861L268.606,68.861z M269.805,75.635l-0.291,1.458
	c-0.648,3.176-2.658,5.186-4.603,5.186c-1.75,0-2.496-1.458-2.496-3.176c0-3.111,2.172-7.357,5.477-7.357
	c1.034-0.125,1.973,0.611,2.098,1.645c0.015,0.121,0.018,0.244,0.009,0.365C270.026,74.388,269.96,75.021,269.805,75.635
	L269.805,75.635z M212.642,73.197c0-2.979-1.75-4.337-4.017-4.337c-2.364,0.031-4.543,1.282-5.762,3.308l0.584-3.049h-3.401
	l-3.019,15.871h3.76l1.396-7.286c0.68-3.697,2.846-5.767,4.561-5.767c1.491,0,1.978,0.937,1.978,2.266
	c-0.006,0.631-0.068,1.26-0.186,1.88l-1.694,8.907h3.76l1.762-9.198C212.534,74.938,212.626,74.069,212.642,73.197L212.642,73.197z
	 M190.798,68.861c-2.059,0.011-3.996,0.975-5.247,2.61l1.421-7.417h-3.789l-3.982,20.938h3.76l1.396-7.286
	c0.68-3.697,2.846-5.767,4.561-5.767c1.491,0,1.978,0.937,1.978,2.266c-0.006,0.631-0.068,1.26-0.186,1.88l-1.694,8.907h3.76
	l1.762-9.198c0.168-0.855,0.261-1.724,0.276-2.595C194.815,70.219,193.065,68.861,190.798,68.861L190.798,68.861z M147.014,65.155
	h-3.668l-0.806,4.06h-2.105l-0.551,2.915h2.108l-1.361,7.03c-0.206,0.958-0.315,1.935-0.326,2.915c0,1.814,1.137,3.238,3.726,3.238
	c0.833,0.029,1.665-0.08,2.463-0.323l0.569-2.99c-0.497,0.099-1.002,0.146-1.509,0.142c-0.682,0.09-1.308-0.391-1.397-1.073
	c-0.015-0.118-0.014-0.237,0.004-0.355c0.021-0.753,0.119-1.502,0.291-2.235l1.231-6.35h3.533l0.582-2.915h-3.532L147.014,65.155z
	 M289.398,82.079l-0.083,0.436h-0.961l-0.471,2.476h-0.474l0.471-2.476h-0.966l0.083-0.436H289.398z M292.952,82.079l-0.554,2.912
	h-0.474l0.388-2.039l-1.182,1.382h-0.283l-0.656-1.386l-0.389,2.043h-0.474l0.554-2.912h0.428l0.79,1.668l1.424-1.668H292.952z
	 M273.74,90.887c2.89,1.337,5.738,0.745,7.803-2.949v-0.006l10.553-18.811h-4.017l-5.993,11.743L280.63,69.12h-3.953l2.811,15.447
	l-1.231,2.466c-1.106,1.889-3.035,1.273-3.933,0.775L273.74,90.887z M155.848,36.914c0.094,3.194-1.136,6.285-3.4,8.54
	c-2.999,2.977-7.865,4.601-13.715,4.556c-4.199-0.069-8.441-1.09-10.841-2.565l1.599-8.41c3.174,1.727,6.695,2.719,10.304,2.905
	c2.731,0,4.57-1.26,4.57-3.281c0-1.832-1.293-3.112-4.596-4.728c-5.224-2.612-7.838-5.924-7.838-9.827
	c0-7.68,6.541-12.869,16.355-12.869c5.193,0,8.574,1.224,10.448,2.427l-1.596,8.394c-2.81-1.762-6.063-2.69-9.38-2.674
	c-2.86,0-4.723,1.198-4.723,3.204c0,1.439,1.425,2.728,4.443,4.199C151.408,28.747,155.848,31.655,155.848,36.914L155.848,36.914z
	 M87.824,11.311c-13.825,0-24.242,10.095-24.242,23.483c0,9.246,6.144,15.216,15.673,15.216c3.63,0.088,7.238-0.589,10.589-1.988
	l1.747-9.224c-2.831,1.546-6.001,2.365-9.227,2.386c-3.485,0-7.224-2.005-7.224-7.603c0-6.596,4.678-13.441,12.53-13.441
	c2.122-0.064,4.223,0.437,6.088,1.449l1.709-8.968C93.022,11.72,90.431,11.276,87.824,11.311z M281.675,41.41
	c4.576,0.011,9.064-1.256,12.96-3.657l-1.767,9.285c-5.258,2.684-11.434,2.976-13.846,2.976c-10.264,0-16.131-5.708-16.131-15.674
	c0.014-5.782,2.063-11.375,5.788-15.798c3.946-4.671,9.763-7.348,15.878-7.306c7.765,0,12.944,4.511,12.944,11.2
	c0.104,2.83-0.979,5.574-2.989,7.569c-3.708,3.614-12.848,5.64-21.172,4.005C272.943,38.699,276.473,41.41,281.675,41.41
	L281.675,41.41z M274.545,26.853c6.474,0.053,10.116-0.602,11.705-2.175c1.72-1.71,1.182-5.372-3.06-5.372
	C278.419,19.305,275.38,23.217,274.545,26.853L274.545,26.853z M257.309,11.311c-13.825,0-24.242,10.095-24.242,23.483
	c0,9.246,6.143,15.216,15.673,15.216c3.63,0.088,7.238-0.589,10.589-1.988l1.746-9.224c-2.831,1.546-6.001,2.365-9.227,2.386
	c-3.485,0-7.223-2.005-7.223-7.603c0-6.596,4.678-13.441,12.53-13.441c2.122-0.064,4.223,0.437,6.088,1.449l1.709-8.968
	C262.507,11.72,259.916,11.276,257.309,11.311L257.309,11.311z M231.252,28.433l-3.978,20.819h-10.536l1.369-7.166
	c-1.421,4.909-6.012,8.212-11.118,8c-7.33,0-10.643-6.507-10.647-13.02c-0.047-7.292,2.739-14.318,7.77-19.597
	c4.02-4.057,9.514-6.307,15.225-6.236c4.476,0.018,7.788,1.314,9.863,3.828C232.271,18.784,232.019,24.371,231.252,28.433
	L231.252,28.433z M221.108,23.643c-0.129-2.625-1.495-4.04-3.945-4.04c-5.189,0-9.684,8.956-9.68,15.184
	c0.001,3.891,1.444,6.314,3.953,6.314c4.013,0,7.47-4.197,8.659-10.343C220.636,28.42,220.975,26.04,221.108,23.643L221.108,23.643z
	 M61.767,28.433l-3.978,20.819H47.253l1.369-7.166c-1.421,4.909-6.012,8.212-11.118,8c-7.33,0-10.643-6.507-10.647-13.02
	c-0.047-7.292,2.739-14.318,7.77-19.597c4.02-4.057,9.514-6.307,15.225-6.236c4.476,0.018,7.788,1.314,9.862,3.828
	C62.786,18.784,62.534,24.371,61.767,28.433z M51.623,23.643c-0.129-2.625-1.495-4.04-3.945-4.04c-5.189,0-9.684,8.956-9.68,15.184
	c0.002,3.891,1.444,6.314,3.953,6.314c4.013,0,7.47-4.197,8.659-10.343C51.151,28.42,51.49,26.04,51.623,23.643L51.623,23.643z
	 M195.606,25.392c0,9.045-4.343,18.319-12.17,22.492c-2.458,1.366-5.208,2.122-8.019,2.204c-3.919,0-6.115-1.465-7.368-3.723
	l-2.802,14.81h-11.031l9.364-49.254h9.716l-1.136,5.978c2.745-3.993,6.81-6.664,11.411-6.664
	C190.873,11.234,195.606,16.767,195.606,25.392L195.606,25.392z M184.134,26.227c0-1.753-0.414-6.011-4.454-6.011
	c-4.109,0-7.577,4.681-8.922,11.781c-0.46,2.428-1.748,9.716,3.327,9.716C179.879,41.713,184.134,33.488,184.134,26.227
	L184.134,26.227z M15.368,20.196l1.572-8.276H7.225L0,49.91h11.033l2.979-15.664c1.757-9.236,7.056-12.932,14.597-11.791
	l2.155-11.332C24.214,10.52,18.013,14.174,15.368,20.196z M103.856,49.253l3.8-19.989l7.822,19.989h11.863l-8.092-20.148
	l14.728-17.184h-12.043l-14.211,16.996L113.219,0h-10.956l-9.364,49.253L103.856,49.253z"/>
</svg>
