<?xml version="1.0" encoding="utf-8"?>
<!-- Generator: Adobe Illustrator 21.1.0, SVG Export Plug-In . SVG Version: 6.00 Build 0)  -->
<svg version="1.1" id="Layer_1" xmlns="http://www.w3.org/2000/svg" xmlns:xlink="http://www.w3.org/1999/xlink" x="0px" y="0px"
	 width="614.3px" height="339.8px" viewBox="0 0 614.3 339.8" style="enable-background:new 0 0 614.3 339.8;" xml:space="preserve"
	>
<style type="text/css">
	.st0{fill:#B3B3B3;}
</style>
<g>
	<path class="st0" d="M539.5,295.5l-0.8-0.1c-0.1,0-0.2,0-0.2,0l-2.1,0.7l-1.5-0.7c0,0-0.1,0-0.1,0l-0.8-0.2c-0.1,0-0.3,0-0.4,0.1
		c-0.1,0.1-0.2,0.2-0.2,0.4l0,0.7c0,0.1,0,0.2,0.1,0.2l0.9,1.9l0.2,1.4c0,0.1,0,0.1,0.1,0.2l1,1.8c0.1,0.1,0.2,0.2,0.4,0.3l0.8,0
		l0.2,0.1c0.1,0,0.1,0,0.2,0c0.2,0,0.3-0.1,0.4-0.2l0.9-1.2l0,0c0.1,0.1,0.3,0.2,0.5,0.1c0.2-0.1,0.3-0.2,0.3-0.4l0.1-1.3l0.5-0.7
		c0.1-0.1,0.1-0.2,0.1-0.3l-0.1-2.4C539.9,295.8,539.7,295.6,539.5,295.5z"/>
	<path class="st0" d="M548,268.1l0.1-1.2l0-1c0,0,0-0.1,0-0.1l-0.5-1.4c0-0.1-0.1-0.1-0.1-0.2l-1.3-1.5l-1.9-1.7l-0.2-1.5
		c0-0.2-0.1-0.3-0.3-0.4c-0.1-0.1-0.3-0.1-0.4,0l-0.4-0.5c-0.2-0.2-0.4-0.2-0.6-0.1l-0.2,0.1l-0.5-1.6c0-0.1-0.1-0.1-0.1-0.2
		l-0.8-0.9l0.1-0.1c0.1-0.2,0-0.5-0.2-0.6l-2.2-1.6l-1.7-0.9l-0.5-1l0.1-0.8c0-0.1,0-0.2,0-0.2l-0.4-1.4c0-0.1-0.1-0.2-0.3-0.3
		l-0.2-0.1l-0.6-2.2l0.1-0.6c0-0.2,0-0.4-0.2-0.5l-0.7-0.6l-0.4-0.6c-0.2-0.2-0.4-0.3-0.6-0.1l-0.6,0.4l-0.4-1l0-0.5
		c0,0,0-0.1,0-0.1l-0.1-0.9c0-0.1,0-0.2-0.1-0.2l-0.5-0.8l-0.1-0.5c0-0.2-0.1-0.3-0.3-0.4l-0.2-0.1l-0.1-0.9c0-0.1,0-0.1-0.1-0.2
		l-0.3-0.6c-0.1-0.1-0.2-0.2-0.4-0.2c-0.2,0-0.3,0-0.4,0.1l-0.4,0.4c-0.1,0.1-0.1,0.2-0.1,0.3l0,0.4l-0.3,0.9l-0.4,0.8
		c-0.1,0.1-0.1,0.3,0,0.4l0.1,0.3l-0.2,0.2c-0.1,0.1-0.1,0.2-0.1,0.3l-0.2,1.2c0,0.1,0,0.1,0,0.2l0.2,0.9l-0.1,0.4
		c0,0.1,0,0.2,0,0.2l0.2,0.7l-0.5,1.4l-0.2,0.8l-0.4,0.8l-0.3,0.8l-0.9,0.5l-1.4-0.5l-0.2-0.4c0-0.1-0.1-0.2-0.2-0.2l-0.8-0.4
		c-0.1,0-0.1-0.1-0.2-0.1h-0.3l-1.2-1l-0.8-0.6c0,0-0.1,0-0.1,0l-1.2-0.5l-1.2-0.9l-0.1-0.3l0.5-0.8l0.4-0.8c0.1-0.1,0.1-0.3,0-0.4
		l-0.1-0.3l0.2,0c0.1,0,0.2-0.1,0.3-0.2l0.6-0.6c0,0,0.1-0.1,0.1-0.1l0.4-0.8c0.1-0.2,0.1-0.4-0.1-0.5l-0.6-0.6
		c-0.2-0.2-0.5-0.2-0.7,0l-0.1,0.1l-0.4-0.1c-0.1,0-0.2,0-0.3,0l-0.8,0.4l-0.8-0.4c-0.1-0.1-0.3-0.1-0.4,0l-0.3,0.1l-1.3-0.4
		l-0.8-0.7c0,0-0.1-0.1-0.1-0.1l-1-0.4c-0.1,0-0.2,0-0.3,0l-0.3,0.1c-0.2,0.1-0.3,0.2-0.4,0.4c0,0.2,0.1,0.4,0.3,0.5l0.6,0.3l0,0.5
		l-1.1,0.3L511,241c-0.1,0-0.3,0-0.4,0.1l-0.9,0.5c-0.1,0-0.1,0.1-0.1,0.1l-0.6,0.8c-0.1,0.2-0.1,0.4,0,0.6l0,0.1l-0.5,0.3
		c-0.1,0-0.1,0.1-0.2,0.2l-0.7,1.3c-0.1,0.1-0.1,0.3,0,0.4l0.1,0.4l-0.7-0.1l-0.9,0l-0.8-0.9c0,0-0.1-0.1-0.1-0.1l-1.1-0.7
		c-0.1-0.1-0.3-0.1-0.4-0.1l-1.4,0.4c-0.2,0.1-0.3,0.2-0.3,0.4l-0.2,0c-0.1,0-0.3,0-0.4,0.1c-0.1,0.1-0.2,0.2-0.2,0.4l-0.6,0.2
		c-0.1,0-0.2,0.1-0.3,0.2L500,246l-0.9,0.8c-0.1,0.1-0.1,0.2-0.2,0.3l-0.1,0.9l-0.2-0.1c-0.2-0.1-0.5,0-0.6,0.2l-0.4,0.6
		c-0.1,0.2-0.1,0.4,0,0.5l0.3,0.4l-0.1,0.1l-0.4-0.9c-0.1-0.2-0.2-0.3-0.4-0.3c-0.2,0-0.3,0-0.4,0.2l-0.9,1.2
		c-0.1,0.1-0.1,0.2-0.1,0.3l0,0.9l-0.1,0.6l-0.9,0.8c0,0-0.1,0.1-0.1,0.2l-0.4,0.9l-0.8,0.7l-1.7,0.5l-0.8,0c-0.1,0-0.1,0-0.2,0
		l-0.3,0.1c-0.1,0-0.2,0.1-0.2,0.2l-0.1,0.2l-0.9,0.2c0,0-0.1,0-0.1,0l-1.2,0.6l-0.3-0.1c-0.1,0-0.2-0.1-0.3,0l-0.7,0.1
		c0,0-0.1,0-0.1,0l-1.2,0.6c0,0-0.1,0-0.1,0.1l-0.8,0.7l-1.3,0.6c-0.1,0-0.2,0.1-0.2,0.2l-0.2,0.4c-0.1-0.1-0.2-0.2-0.3-0.3
		c-0.2,0-0.4,0.1-0.5,0.3l-0.3,0.6c-0.1,0.1-0.1,0.2-0.1,0.3l0.2,0.9l-0.2,0.8l-0.3,0.4c0,0.1-0.1,0.1-0.1,0.2l-0.2,0.9
		c0,0.1,0,0.3,0.1,0.4l0.3,0.4l0.1,0.5c0,0,0,0.1,0,0.1l0.7,1.2l-0.3-0.2c-0.2-0.1-0.4-0.1-0.6,0c-0.2,0.1-0.2,0.3-0.2,0.5l0.2,0.7
		c0,0-0.1,0-0.1,0.1c-0.2,0.2-0.3,0.4-0.1,0.7l0.8,1.2l0.2,1.4c0,0.1,0.1,0.2,0.1,0.3l0.6,0.6l0,0.4c0,0.1,0,0.1,0.1,0.2l0.6,1.1
		l-0.1,1c0,0.1,0,0.1,0,0.2l0.3,1.2l0.9,1.9l0.2,1.1l-0.2,1.3c0,0,0,0.1,0,0.1l0.1,0.6l-0.2,0.3l-0.6,0.2c-0.2,0.1-0.3,0.2-0.3,0.5
		l0,0.9c0,0.2,0.1,0.4,0.3,0.5l0.7,0.3l1.7,1.3c0.1,0.1,0.2,0.1,0.3,0.1l1,0l1.2,0.1c0.1,0,0.2,0,0.3-0.1l0.7-0.6l0.8-0.5l0.3,0
		c0.2,0,0.3,0,0.4-0.1l0.9-0.9l1.1-0.1l1.1-0.2l1.4,0.3c0.1,0,0.1,0,0.2,0l1-0.2l1.4,0c0.1,0,0.3-0.1,0.4-0.2l0.5-0.7
		c0,0,0.1-0.1,0.1-0.2l0.3-0.9l1.3-0.4c0,0,0.1,0,0.1,0l1.7-1l1.5,0.1c0.1,0,0.1,0,0.2,0l4-1.3l2.9-0.2l1.5,0.9
		c0.1,0,0.1,0.1,0.2,0.1l1.1,0l1.8,1l0,0c-0.1,0.2-0.1,0.5,0.1,0.7l0.7,0.6l1,1.4l0,0.9c0,0.2,0.1,0.3,0.2,0.4l1,0.6
		c0.1,0.1,0.3,0.1,0.4,0.1c0.1,0,0.3-0.1,0.3-0.3l0.5-1.3l0.9-0.6c0,0,0.1-0.1,0.1-0.1l0.9-1.1l0.1,0.7l-0.6,0.9
		c0,0.1-0.1,0.1-0.1,0.2l-0.2,1.1l-0.5,0.6c-0.1,0.2-0.1,0.4,0,0.6c0.1,0.2,0.3,0.3,0.5,0.2l0.8-0.2c0.1,0,0.2-0.1,0.3-0.2l0.4-0.7
		l0.2,0.7l-0.4,0.6c-0.1,0.1-0.1,0.3,0,0.5c0.1,0.1,0.2,0.2,0.4,0.3l1.2,0.2l0.7,0.7l0.3,0.9l0.3,1.6c0,0.1,0.1,0.2,0.1,0.2l1,1.2
		c0.1,0.1,0.1,0.1,0.2,0.1l1.6,0.6c0,0,0.1,0,0.1,0l0.8,0.1l2.3,0.9c0.2,0.1,0.4,0,0.5-0.1l1.3-1.4l0.3-0.1l-0.1,0.4
		c-0.1,0.2,0.1,0.5,0.3,0.6l0.8,0.3l1.3,0.8c0.1,0.1,0.2,0.1,0.3,0.1c0.1,0,0.2,0,0.3-0.1l0.9-0.8l0.7-0.8l1.5-0.8l1.8-0.1
		c0.1,0,0.2,0,0.3-0.1l0.8-0.6c0.1-0.1,0.2-0.3,0.2-0.5l-0.1-0.5l0.2-1.4l0.4-1.5l0.6-1c0,0,0-0.1,0.1-0.1l0.5-1.7l0.6-1.1l0.6-1.5
		l1.1-0.9c0.1-0.1,0.1-0.1,0.2-0.2l0.7-1.8l0.3-1.3c0,0,0-0.1,0-0.1l0-1l0.4-1.7l0.3-0.9c0,0,0-0.1,0-0.1l0.1-1.6
		c0-0.1,0-0.2-0.1-0.2L548,268.1z"/>
	<path class="st0" d="M230.8,229.8c0-0.1-0.1-0.2-0.2-0.2l-0.5-0.4c-0.1-0.1-0.2-0.1-0.3-0.1l-1.3-0.1l-1.2-0.5l-2.1-1.8
		c0,0-0.1,0-0.1-0.1l-2.4-1.3c-0.1,0-0.2-0.1-0.3-0.1l-2.4,0.1l-3.2-0.9c-0.1,0-0.2,0-0.3,0l-1.4,0.4l0.1-0.3c0-0.2,0-0.3-0.1-0.5
		l-0.7-0.9c-0.1-0.1-0.1-0.1-0.2-0.1l-2.8-1l-2-0.6c-0.2,0-0.3,0-0.5,0.1l-0.7,0.6l0-0.9c0-0.2-0.2-0.5-0.4-0.5l-2.7-0.2l-0.2-0.2
		l1-1.1c0.1-0.1,0.1-0.2,0.1-0.4l0-0.9c0-0.2-0.1-0.4-0.3-0.5l-0.6-0.2l-0.9-2.8l-0.3-0.8c-0.1-0.2-0.3-0.3-0.5-0.3l-0.2,0l-0.2-0.4
		c0-0.1-0.1-0.1-0.2-0.2l-1.7-1.4c0,0-0.1-0.1-0.2-0.1l-1.6-0.5c-0.1,0-0.2,0-0.2,0c-0.1-0.1-0.1-0.1-0.2-0.1l-1.5-0.4
		c-0.1,0-0.1,0-0.2,0l-1.2,0.1c-0.2,0-0.3,0.1-0.4,0.2l0,0l-1.6-0.3c0,0-0.1,0-0.1,0c0,0,0,0,0,0l-1.4-1.3c-0.1-0.1-0.2-0.1-0.3-0.1
		l-0.3,0l0-0.5c0-0.1-0.1-0.2-0.1-0.3l-1-1c0,0-0.1-0.1-0.1-0.1l-1-0.5c-0.1,0-0.1,0-0.2,0c0-0.1-0.1-0.1-0.2-0.2l-0.4-0.2
		c-0.1-0.1-0.2-0.1-0.3-0.1l-0.6,0l-0.2-1c0-0.1-0.1-0.2-0.2-0.3l-0.9-0.6l0.5-0.1c0.2,0,0.4-0.2,0.4-0.5l0-0.9
		c0-0.2-0.2-0.5-0.4-0.5l-0.1,0c-0.1,0-0.1,0-0.2,0l-0.8,0.2c-0.1,0-0.1,0-0.2,0.1c-0.2-0.1-0.3,0-0.5,0.1l-0.6,0.2
		c-0.1-0.1-0.2-0.2-0.4-0.2c0,0,0,0,0,0l-2.7,0.1c-0.3,0-0.5,0.2-0.5,0.5l0,0.1l-0.7,0.4l-1.1-0.2l-0.8-0.7
		c-0.1-0.1-0.2-0.1-0.4-0.1l-1.7,0.2l-1.3,0l0-0.2c0-0.1-0.1-0.2-0.2-0.3l-1-0.9c-0.1-0.1-0.2-0.1-0.3-0.1l-0.9,0l-0.4-0.8
		c-0.1-0.1-0.2-0.2-0.4-0.3c-0.2,0-0.3,0-0.4,0.1l-0.3,0.3c-0.1,0.1-0.2,0.3-0.1,0.5l0.1,0.4l-1.7,0.6c-0.1,0-0.2,0.1-0.2,0.1
		c0,0,0,0,0,0l-0.4-0.6c0,0,0,0,0,0l0.8-0.2c0.1,0,0.2-0.1,0.3-0.2l0.2-0.4c0.1-0.2,0.1-0.4-0.1-0.6l-0.3-0.3
		c-0.1-0.1-0.2-0.1-0.3-0.1l-0.4-0.1c-0.2,0-0.3,0-0.4,0.1l-0.7,0.7l-1.9,1.2l-1.1-0.1c-0.2,0-0.4,0.1-0.5,0.3l-0.8,0
		c-0.1,0-0.2,0-0.3,0.1l-0.9,0.7c-0.1,0.1-0.1,0.2-0.2,0.3l-0.3,1.5l0,0.3l-0.4,0.1c-0.1,0-0.2,0.1-0.2,0.1l-1.1,1.1l-0.6,0
		c0,0,0,0,0,0c0,0,0-0.1-0.1-0.1l-0.4-0.3l-0.5-0.5c0,0-0.1-0.1-0.2-0.1l-0.7-0.3c0,0-0.1,0-0.1,0l-0.7,0c-0.1-0.1-0.2-0.2-0.3-0.2
		l-0.6-0.1c-0.1,0-0.3,0-0.4,0.1l-0.5,0.4l-1,0.3c0,0-0.1,0-0.1,0l-0.6,0.4l-0.6,0.1l-0.2-0.2c-0.1-0.1-0.4-0.1-0.6-0.1l-0.3,0
		c0-0.1,0-0.3-0.1-0.4l-0.5-0.5c-0.1-0.1-0.1-0.1-0.2-0.1c0-0.1-0.1-0.2-0.1-0.2l-1.1-1.1l-0.3-0.7c0-0.1-0.1-0.1-0.2-0.2
		c0-0.1,0-0.2-0.1-0.3l-0.1-0.1l0-0.2l0.2-0.3c0.1-0.1,0.1-0.3,0.1-0.4l-0.1-0.3l0.1-0.5l0.1,0c0.1-0.1,0.2-0.3,0.2-0.4l0-0.7
		l-0.1-0.3l0-0.7l0.1-0.6l0.3-0.5c0.1-0.1,0.1-0.3,0.1-0.4l-0.1-0.5l0.1-0.3c0-0.1,0-0.3-0.1-0.4c0,0,0,0-0.1-0.1
		c0-0.1,0-0.3-0.1-0.4l-0.1-0.1c0-0.1-0.1-0.1-0.2-0.1l-0.5-0.2l-0.5-0.4l-0.5-0.3c-0.1,0-0.1-0.1-0.2-0.1l-0.9-0.2
		c-0.1,0-0.2,0-0.3,0l-0.2,0.1l-0.4,0l-0.4-0.1l-0.4-0.1c-0.2,0-0.3,0-0.4,0.1l-0.5,0.2l-0.7,0.1l-0.7-0.1c-0.1,0-0.2,0-0.2,0
		l-0.1,0c-0.1-0.1-0.2-0.1-0.3-0.1l-0.3,0c-0.1,0-0.2,0-0.3,0.1l-0.2,0.2c0,0-0.1,0-0.1,0c-0.1-0.1-0.1-0.1-0.2-0.2
		c-0.2-0.1-0.4,0-0.5,0.1l-0.1,0l0.1-0.2l0.1,0c0.1,0,0.2-0.1,0.3-0.2l0.3-0.4c0-0.1,0.1-0.1,0.1-0.2l0.2-0.8c0-0.1,0-0.2-0.1-0.4
		l0.1-0.4c0-0.1,0-0.3,0-0.4l0-0.1l0.2-0.6c0,0,0-0.1,0-0.1l0-0.2c0.1,0,0.1,0,0.2,0c0.2,0,0.3-0.2,0.4-0.3l0.5-1.7
		c0.1-0.2,0-0.4-0.1-0.5l-0.1-0.1l0.3-0.9l0.8-1c0.1-0.1,0.1-0.2,0.1-0.3l0-0.7c0-0.1,0-0.3-0.2-0.4l-0.3-0.2
		c-0.1-0.1-0.3-0.1-0.4-0.1l-0.8,0.1l-1.5-0.1c0,0-0.1,0-0.1,0l-1.8,0.4l-1,0.4c-0.1,0-0.2,0.1-0.2,0.2l-0.2,0.4
		c0,0.1-0.1,0.1-0.1,0.2l-0.1,1.4l-0.4,1l-0.9,0.6l-2.3,0.6l-1.4,0.2l-1.3,0.4l-0.5-0.6c-0.1-0.1-0.1-0.1-0.2-0.1l-1.6-0.4l-0.6-0.7
		l-0.4-1c0-0.1,0-0.1-0.1-0.1l-1.1-1.2l-0.3-1.3c0,0,0-0.1-0.1-0.1l-0.5-0.8l-0.3-0.9l0.2-0.9l0.1-2.3l0.3-1.3l0.5-1.3
		c0-0.1,0-0.2,0-0.3c0,0,0,0,0,0c0.1-0.1,0.1-0.3,0-0.5l-0.2-0.3l-0.1-0.8l0-1.3l0.3-0.8l0.8-0.8l1.6-0.8c0,0,0.1,0,0.1-0.1l1.5-1.4
		l1.3-0.4l1-0.1l1.1,0.4c0.1,0,0.2,0,0.2,0l1.3-0.2l1.1,0.9c0.1,0.1,0.2,0.1,0.3,0.1l1.1,0.1c0.1,0,0.2,0,0.3-0.1l0.5-0.3l0.4,0.2
		c0.2,0.1,0.4,0,0.5-0.1c0.1-0.1,0.2-0.2,0.2-0.4c0-0.1,0-0.3-0.1-0.4l-0.1-0.1l0-0.6c0-0.1,0-0.2-0.1-0.3l-0.1-0.2l0.4-0.2l1.2-0.1
		l1.5,0.2c0,0,0.1,0,0.1,0l1.8-0.2l0.9,0.4l0.7,0.8c0.1,0.1,0.1,0.1,0.2,0.1l0.2,0.1c0.1,0,0.3,0,0.4,0l1.5-0.8l0.5,0.2l1.2,1.5
		l0.4,1l-0.3,1.1c0,0.1,0,0.2,0,0.3l0.3,0.8l1.6,3c0,0.1,0.1,0.1,0.2,0.2l0.5,0.3l0.2,0.6c0.1,0.2,0.2,0.3,0.3,0.3l0.7,0.2
		c0,0,0.1,0,0.1,0c0.1,0,0.1,0,0.2,0l0.4-0.2c0.1-0.1,0.2-0.2,0.3-0.3l0.4-1c0,0,0-0.1,0-0.1l0.1-1.9c0-0.1,0-0.1,0-0.2l-0.8-2.1
		l0-0.8c0-0.1,0-0.2-0.1-0.2l-0.7-1.2l-0.6-1.6l-0.3-1.3l0.2-1.3l0.7-1l0.9-0.9l1.8-1.3c0.1-0.1,0.1-0.1,0.2-0.2l0.2-0.5l0.7-0.6
		l0.7-0.1c0.1,0,0.2-0.1,0.3-0.2l1-1.1l1.6-0.6c0.1,0,0.2-0.1,0.2-0.2l1-1.4c0.1-0.1,0.1-0.2,0.1-0.3l-0.2-2.1l-0.1-0.6
		c0-0.2-0.2-0.3-0.3-0.4l-0.1,0c0.1-0.1,0.2-0.2,0.2-0.3l0.3-0.8c0.2,0,0.4-0.1,0.5-0.2l0.8-1.2c0.1-0.1,0.1-0.2,0.1-0.3l0-0.7
		c0-0.1-0.1-0.3-0.2-0.3l-0.3-0.3l0-0.2l0.1,0c0.1,0.2,0.2,0.3,0.4,0.3c0.2,0,0.4,0,0.5-0.2l0.9-1.3c0-0.1,0.1-0.1,0.1-0.2l0.3-1.3
		c0-0.1,0-0.3-0.1-0.4c0,0,0,0,0-0.1c0,0,0.1,0,0.1,0l0.8,0c0,0,0.1,0,0.1,0l2-0.6c0.2,0,0.3-0.2,0.3-0.4c0-0.2,0-0.4-0.2-0.5
		l-0.1-0.1l0.4-0.1l1.2-0.4l0.7,0c0.1,0,0.1,0,0.2,0l0.9-0.3c0.2-0.1,0.4-0.3,0.3-0.5c0-0.2-0.2-0.4-0.5-0.4l-0.5,0l-0.5-1l0-1.1
		l1.1-1.7l1.7-0.7l1.8-0.8l1.6-1c0.2-0.1,0.3-0.4,0.2-0.6l-0.1-0.3l1.5-0.2l1.7-0.1l-2,1.3c-0.1,0.1-0.2,0.3-0.2,0.4l0.1,1.7
		c0,0.2,0.2,0.4,0.4,0.5l1,0.1c0.1,0,0.3,0,0.4-0.1l1.8-1.6l1.6-0.9l3.7-1.4c0,0,0.1,0,0.1-0.1l1.9-1.4c0.1-0.1,0.2-0.2,0.2-0.4
		c0-0.2-0.1-0.3-0.2-0.4l-0.8-0.6l-0.1-1c0-0.2-0.2-0.4-0.4-0.4c-0.2,0-0.4,0-0.5,0.2l-1.3,2.1l-2.6,0.3l-2-1.1l-0.5-1.7l-0.5-2.6
		l1.3-1.4c0.1-0.1,0.1-0.2,0.1-0.4c0-0.1-0.1-0.3-0.2-0.3l-1.3-1.1c-0.1-0.1-0.2-0.1-0.4-0.1l-2.4,0.2c-0.1,0-0.1,0-0.2,0.1
		l-3.5,2.1c0,0-0.1,0.1-0.1,0.1l-2.6,3.2l-0.4,0.1l1.4-1.6l2.4-3.3l2-1.1c0.1,0,0.1-0.1,0.2-0.1l1.3-1.7l1.6-0.2l2.5,0l3.6,0.5
		c0,0,0.1,0,0.1,0l2.7-0.4c0.1,0,0.2-0.1,0.3-0.1l2-2.1l2.7-0.9c0.1,0,0.1,0,0.1-0.1l2.3-1.9c0.1-0.1,0.2-0.2,0.2-0.4l-0.1-3
		c0-0.1,0-0.2-0.1-0.2l-0.6-1c-0.1-0.1-0.2-0.2-0.3-0.2l-1.1-0.3l-0.6-2.2c0-0.1-0.1-0.2-0.2-0.2l-1-0.9c-0.1,0-0.1-0.1-0.2-0.1
		l-2.6-0.7l-1.5-1.7l-2-1.5l0.6-1.6c0-0.1,0-0.3,0-0.4l-1.8-3.7l-2.2-4.1l-1.2-2.7c-0.1-0.2-0.2-0.3-0.4-0.3c-0.2,0-0.3,0.1-0.5,0.2
		l-0.9,1.3c0,0,0,0.1,0,0.1l-1.6,3.5l-2.1,1.6l-1-1.6c-0.1-0.1-0.2-0.2-0.3-0.2l-1.3-0.4l-0.5-3.9l0-2.7c0-0.3-0.2-0.5-0.4-0.5
		l-2.6-0.2l-0.4-1.2c0-0.1-0.1-0.1-0.1-0.2l-2.1-2.1l-1.4-1.1c-0.2-0.1-0.4-0.1-0.6,0l-1.2,0.8l-1.5-0.3l-2.8-1
		c-0.1-0.1-0.3,0-0.4,0.1l-1,0.7c-0.1,0.1-0.2,0.3-0.2,0.4l0.6,5.5l0.7,2.9l-1.9,3.2c-0.1,0.2-0.1,0.4,0.1,0.6l1.9,2.2l1.1,2.6
		l0.1,2l-0.9,2l-1.8,2l-2.4,1.2c-0.1,0.1-0.2,0.2-0.3,0.3c0,0.1,0,0.3,0.1,0.4l1,1.3l0.8,4.3l-0.9,2.6l-1,0.7l-2.3-2.4l-1.2-3
		l-0.5-2.8l0.3-2.3c0-0.3-0.2-0.5-0.4-0.5l-1.7-0.3l-2.7-0.2l-1.7-1.2c0,0-0.1,0-0.1-0.1l-2-0.8l-1.1-1.4c0,0-0.1-0.1-0.1-0.1
		L140,104c0,0-0.1,0-0.1,0l-3-1.3c-0.1,0-0.2-0.1-0.3,0l-2,0.5l-0.7-2.1l-0.7-2.9c0-0.2-0.2-0.3-0.4-0.4l-2.1-0.5l0.1-3.6l0.6-2.6
		l1.8-3.9l2-2.9l1.7-0.4c0.2-0.1,0.4-0.2,0.4-0.5l0.1-2.2l1.2-1.4l2.2-0.2c0.1,0,0.3-0.1,0.3-0.2L143,77c0,0,0.1-0.1,0.1-0.2
		l0.5-1.6l1.6-3.5c0,0,0-0.1,0-0.1l0.4-1.6l1.3,1c0.1,0.1,0.3,0.1,0.4,0.1l2.2-0.6c0.1,0,0.1-0.1,0.2-0.1l3.2-2.9
		c0.1-0.1,0.1-0.2,0.2-0.3l0.2-2c0-0.1,0-0.2,0-0.3l-1.1-2.2l1.2-2.3c0-0.1,0.1-0.2,0.1-0.2l-0.1-2.2c0-0.1-0.1-0.2-0.1-0.3
		l-2.2-2.3c-0.1-0.1-0.1-0.1-0.2-0.1l-2.5-0.7l-2.1-0.3c-0.1,0-0.3,0-0.4,0.1c-0.1,0.1-0.2,0.2-0.2,0.4l-0.1,4.9l-1.2,3.9l-1.5,2.7
		l-1.3-2.4l0.5-3.2c0-0.1,0-0.2-0.1-0.3l-1.8-2.7c-0.1-0.1-0.2-0.2-0.4-0.2c-0.2,0-0.3,0.1-0.4,0.2l-1.6,2.5l0-3.6
		c0-0.2-0.1-0.4-0.3-0.5l-2.6-0.8l1.2-2c0.1-0.1,0.1-0.3,0-0.4l-2.3-5.7c0,0,0-0.1-0.1-0.1l-1.6-2.3c-0.1-0.1-0.1-0.1-0.2-0.2
		l-2-0.8c-0.2-0.1-0.5,0-0.6,0.2l-1.9,3.7c0,0.1-0.1,0.1-0.1,0.2l-0.1,5.5c0,0.1,0,0.3,0.1,0.4l1.9,1.9l1.7,2.8l-0.7,4.3l-0.9-0.1
		c-0.2,0-0.4,0.1-0.5,0.3l-0.4,1.5l0-2.1c0-0.2-0.1-0.3-0.2-0.4l-2.4-1.4c-0.1-0.1-0.3-0.1-0.5,0l-1.3,0.7c-0.2,0.1-0.3,0.3-0.3,0.5
		l0.2,2.4l-2.1-0.1c0,0-0.1,0-0.1,0l-2.5,0.7l-2.8-1.9c-0.1-0.1-0.2-0.1-0.4-0.1l-1.6,0.3l-1.6-2.3c0,0-0.1-0.1-0.1-0.1l-1.2-1
		c-0.1-0.1-0.3-0.1-0.5-0.1l-1.2,0.4l-1.9,0.2c-0.1,0-0.3,0.1-0.4,0.2l-0.9,1.4c-0.1,0.2-0.1,0.4,0,0.6l1.4,1.6l-1.4,1.7l-1.5-2.2
		c-0.1-0.2-0.4-0.3-0.6-0.2l-1.2,0.7l-4.4,0.5l-2.5-0.8l1.9-1.8c0.1-0.1,0.2-0.2,0.2-0.3c0-0.1,0-0.3-0.1-0.4L96,58.9
		c-0.1-0.1-0.3-0.2-0.4-0.1L94.1,59l-2.2-0.8L88,56.6l-2.5-2c-0.1-0.1-0.2-0.1-0.2-0.1l-1.8-0.3c-0.2,0-0.4,0.1-0.5,0.3l-0.5,1.2
		l-1.6,0.6l-0.2-2.7c0-0.2-0.2-0.4-0.4-0.4c-0.2-0.1-0.4,0-0.5,0.2l-1.7,2.5l-2.6-4c-0.1-0.1-0.1-0.1-0.2-0.2l-0.9-0.4
		c-0.1-0.1-0.3-0.1-0.4,0c-0.1,0.1-0.2,0.2-0.3,0.4l-0.3,2l-0.9,0.8l-0.9-1.6c-0.1-0.2-0.4-0.3-0.6-0.2l-2.6,1.1c0,0-0.1,0-0.1,0.1
		l-2.4,2l-2.3-0.5c-0.1,0-0.3,0-0.4,0.1l-1.9,1.4c0,0-0.1,0.1-0.1,0.1l-1.3,1.8l-1.5-0.4l-2.6-2.2c0,0-0.1-0.1-0.1-0.1L52.8,55
		c-0.1,0-0.2,0-0.3,0c0,0-0.1-0.1-0.1-0.1l-1.6-0.6l-2.5-1.4c-0.1-0.1-0.3-0.1-0.4,0l-2,0.7L44.6,53c0,0-0.1,0-0.1,0l-3.1-0.4
		L37.8,51c-0.1,0-0.2-0.1-0.3,0l-1.6,0.5l-2.3-0.8l0.1-0.7c0-0.3-0.2-0.5-0.4-0.5l-2.5-0.3c-0.2,0-0.3,0.1-0.4,0.2l-0.4,0.5l-1-1.9
		c-0.1-0.1-0.1-0.2-0.2-0.2l-2.4-1c-0.2-0.1-0.4,0-0.6,0.1l-2.4,2.5l-1.3-0.3c-0.1,0-0.3,0-0.4,0.1l-3,2.2l-1.6,0.5
		c-0.1,0-0.2,0.1-0.2,0.2l-1.7,2.3c0,0.1-0.1,0.1-0.1,0.2l-0.4,2.2l-2,2L10,58.9c-0.2,0-0.4,0.1-0.4,0.3l-0.8,2.1
		c-0.1,0.2,0,0.5,0.2,0.6l2.1,1.3l1.6,1.9l1.2,2.1c0,0.1,0.1,0.1,0.1,0.1l2,1.6l1.1,2.2l-2.8,0.1l0.2-1.5c0-0.1,0-0.3-0.1-0.4
		c-0.1-0.1-0.2-0.2-0.4-0.2h-1.1c-0.1,0-0.2,0-0.2,0.1l-3.8,2.1l-2.2,1.6c-0.1,0.1-0.2,0.2-0.2,0.3c0,0.1,0,0.3,0.1,0.4l2,2.1
		l0.7,1.5c0.1,0.1,0.2,0.2,0.3,0.3l2.3,0.9c0.1,0,0.2,0,0.3,0l2.2-0.4l1.1,0.7c0.1,0.1,0.3,0.1,0.4,0.1c0.1,0,0.2-0.1,0.3-0.2
		l0.4-0.6l1.7-0.8l0.3,0l-0.7,0.9c-0.1,0.1-0.1,0.2-0.1,0.4c0,0.1,0.1,0.3,0.2,0.3l0.7,0.5l0.3,1.5l-1.1,1l-0.9-0.2
		c-0.2-0.1-0.4,0-0.5,0.2L15.1,83l-0.9-0.5c-0.1-0.1-0.2-0.1-0.3,0l-1.2,0.2c-0.2,0-0.3,0.2-0.4,0.3l-0.5,1.7l-1.4,2
		c0,0,0,0.1-0.1,0.1l-0.6,1.9c-0.1,0.2,0,0.3,0.1,0.5l1.2,1.3l0,1.7c0,0.2,0.1,0.3,0.2,0.4l1,0.7l1.3,1.5c0.1,0.1,0.3,0.2,0.5,0.1
		l1.9-0.6l0.9,0.9l-0.3,1c0,0.1,0,0.1,0,0.2l0.1,1.7c0,0.3,0.2,0.5,0.5,0.5H18c0.1,0,0.2,0,0.3-0.1l1.3-1l0.3,0.8
		c0.1,0.2,0.3,0.3,0.5,0.3h0c0.2,0,0.4-0.1,0.5-0.3l0.1-0.2l0.6,0.9c0.1,0.1,0.2,0.2,0.4,0.2c0.2,0,0.3-0.1,0.4-0.2l0.5-0.7l0.2,0.2
		c0.2,0.2,0.4,0.2,0.6,0.1l1.1-0.5l-0.5,1.1c0,0,0,0.1,0,0.1l-0.3,2.3l-1.1,1c0,0-0.1,0.1-0.1,0.1l-0.3,0.5l-2.3,1.8
		c0,0-0.1,0.1-0.1,0.1l-0.7,1.1l-1.9,0.3c-0.1,0-0.2,0.1-0.3,0.1l-1.7,1.5l-1.7,0.9l-1.7,1.2c-0.2,0.1-0.3,0.4-0.1,0.6l0.1,0.2
		c0.1,0.2,0.3,0.3,0.4,0.3c0,0,0.1,0,0.1,0l2.7-0.8c0.1,0,0.1,0,0.1-0.1l1.3-0.9l1.7-1l1.5-0.8l1,0.2c0.1,0,0.3,0,0.4-0.1l1.8-1.2
		c0.1-0.1,0.2-0.1,0.2-0.2l0.5-1.3l2.5-1.5c0.1-0.1,0.2-0.2,0.2-0.3l0.4-1.2l1.6-0.9l1.8-1.3c0,0,0.1-0.1,0.1-0.1l1.5-2.2
		c0.1-0.2,0.1-0.4,0-0.6l-1-1.3l2.2-2.2c0,0,0.1-0.1,0.1-0.1l1.1-2.2l0.4-0.3c0,0.1-0.1,0.1-0.1,0.2l-0.7,3.2c0,0.1,0,0.1,0,0.2
		l0.2,1.7c0,0.1,0.1,0.3,0.2,0.4c0.1,0.1,0.3,0.1,0.4,0l1.6-0.6c0,0,0.1,0,0.1-0.1l1.4-1.1l1.9-0.7l0.8-0.2c0.2-0.1,0.4-0.3,0.4-0.6
		l-0.3-1.9l1.5-0.6l2,1.4l3.2,1.5c0.1,0,0.2,0.1,0.3,0l2.2-0.3l4.4,1.8l3.4,3.3c0,0,0.1,0.1,0.1,0.1l1.9,0.9c0.1,0,0.1,0,0.2,0
		l2.6,0.1l1.4,0.2l0.8,2.7c0,0.1,0.1,0.1,0.1,0.2l2.1,2.4l0.4,2.5c0,0.1,0.1,0.3,0.2,0.3l1.3,0.8l0.8,0.9c0,0,0.1,0.1,0.1,0.1l0,1.3
		c0,0.1,0.1,0.2,0.1,0.3l1.9,1.9l0.3,2.1c0,0.2,0.1,0.3,0.3,0.4l1.9,1L74,119c0,0.1,0,0.2,0,0.3l0.9,2.2c0.1,0.1,0.2,0.2,0.3,0.3
		l2,0.7l-0.6-0.1l-1.1-0.4l-1.5-0.5c-0.1,0-0.3,0-0.4,0c-0.1,0.1-0.2,0.2-0.2,0.3l-0.1,0.3c0,0.1,0,0.2,0,0.3l0.6,1.3
		c0.1,0.1,0.2,0.2,0.3,0.3l1.5,0.4l0.2,0.5c0,0.1,0.1,0.2,0.2,0.2l1.4,0.8l0.4,0.8c0.1,0.1,0.1,0.2,0.2,0.2l1.7,0.7
		c-0.1,0.1-0.1,0.1-0.2,0.2l-0.1,0.2c-0.1,0.1,0,0.3,0,0.4l0.4,1l0.5,2.1l0.3,3.2l-0.4,4.2l-0.7,2.1c0,0.1,0,0.2,0,0.3l0.5,1.6
		l0.1,1.9l-0.3,1.7c0,0.1,0,0.3,0.1,0.4l0.8,1.1l0.2,1.6c0,0.1,0,0.2,0.1,0.2l1.3,1.8l0.6,0.6l0,0.3c0,0.1,0,0.2,0,0.3l1.4,2.9
		c0,0,0,0.1,0.1,0.1l1.6,2l0.2,1c0,0.1,0.1,0.2,0.2,0.3l0.3,0.2c0.1,0.1,0.2,0.1,0.2,0.1l1.4,0.2l0.5,0.4c0.1,0.1,0.2,0.1,0.3,0.1
		l0.7,0.1l0.1,0.3c0,0.2,0.2,0.3,0.3,0.3l0.6,0.2l1,1l0.2,0.8c0,0.1,0.1,0.2,0.1,0.2c0,0.1,0,0.2,0,0.2L93,165l2,4
		c0,0.1,0.1,0.2,0.2,0.2l0.9,0.5l1.2,1.3l0,0.6l-0.5,0.5l-0.3,0c-0.2,0-0.4,0.1-0.5,0.3c-0.1,0.2-0.1,0.4,0.1,0.6l0.8,0.8
		c0,0.1,0.1,0.1,0.2,0.1l0.9,0.4l0.2,0.3c0.1,0.1,0.2,0.2,0.4,0.2c0.1,0,0.2,0,0.2-0.1l1.7,1.2l0.2,0.8l0,1.2c0,0.2,0.1,0.4,0.3,0.5
		l0.7,0.4l1.2,0.9l1.1,1l0.4,0.9c0.1,0.2,0.3,0.3,0.5,0.3c0.1,0,0.3,0,0.3-0.1l0.6-0.6c0.1-0.1,0.1-0.2,0.2-0.3l0-0.2
		c0-0.1,0-0.3-0.1-0.4l-1.2-1.5c-0.1-0.1-0.2-0.2-0.3-0.2l-0.5,0l-0.1-0.7c0-0.1,0-0.1-0.1-0.2l-0.5-0.9l-0.5-0.7l-0.5-1.7
		c0-0.1-0.1-0.2-0.1-0.2l-1-0.9l-0.3-0.6c0,0-0.1-0.1-0.1-0.1l-0.4-0.4l-0.3-1c-0.1-0.2-0.2-0.3-0.4-0.4l-0.1-0.4
		c0-0.1-0.1-0.2-0.2-0.3L99,170l-0.2-0.4c0,0,0-0.1-0.1-0.1l-1.2-1.2l-0.6-0.8l-0.2-1.5l-0.2-0.8l0.1-0.4l0.6,0.3
		c0.1,0.1,0.2,0.1,0.3,0.1l0.4-0.1l1,0.6l0,0.5c0,0.1,0,0.1,0,0.2l0.6,1.5l0.9,1.4l0.1,0.5c0,0.1,0.1,0.2,0.1,0.3l0.8,0.9l0.9,0.9
		c0.1,0.1,0.2,0.1,0.3,0.1l0.7,0.1l0.4,1.1c0,0.1,0.1,0.2,0.1,0.2l0.9,0.9c0,0,0.1,0.1,0.1,0.1l0.6,0.3l-0.2,0.8
		c0,0.1,0,0.3,0.1,0.4l0.2,0.3c0,0.1,0.1,0.1,0.2,0.2l1.3,0.7l0.8,1.1c0,0,0.1,0.1,0.1,0.1l1.6,1.3l1.5,1.8l0.6,0.9l0.1,0.6
		c0,0.1,0,0.1,0.1,0.2l0.5,0.7l0,0.4l-0.2,0.3c-0.1,0.1-0.1,0.3-0.1,0.5l0,0.1l-0.1,0c-0.1,0-0.2,0.1-0.3,0.3
		c-0.1,0.1-0.1,0.3,0,0.4l0.3,0.7c0,0,0,0.1,0.1,0.1l0.8,1.1c0,0.1,0.1,0.1,0.2,0.1l1.7,1l0.6,0.7c0.1,0.1,0.1,0.1,0.2,0.1l1.7,0.5
		c0,0,0.1,0,0.1,0l0.8,0.1l0.3,0.4c0,0,0.1,0.1,0.1,0.1l1.4,0.9l1.9,0.8c0,0,0.1,0,0.1,0l1.1,0.2l1.6,0.8c0,0,0.1,0,0.1,0l1.2,0.3
		l1.2,0.4c0.1,0,0.2,0,0.3,0l0.8-0.2c0,0,0.1,0,0.1,0l1.2-0.6l0.9-0.1l1.2,0.4l0.8,0.5l1.6,1.6c0.1,0.1,0.2,0.1,0.3,0.1
		c0,0.1,0.1,0.2,0.2,0.3l0.8,0.6c0,0,0.1,0,0.1,0.1l0.7,0.3c0.1,0,0.1,0,0.2,0l0.9,0l0.6,0.2c0,0,0.1,0,0.1,0c0,0,0,0,0,0
		c0,0,0,0.1,0.1,0.1l0.3,0.3c0.1,0.1,0.2,0.1,0.2,0.1l0.8,0.1l0.7,0.3c0,0,0.1,0,0.1,0l0.6,0.1c0,0,0.1,0,0.1,0l0.8,0c0,0,0,0,0,0
		c0.2,0,0.4-0.1,0.4-0.3l0-0.1l0.2,0l0.1,0.2c-0.1,0.1-0.2,0.1-0.2,0.3c0,0.2,0,0.4,0.1,0.5l0.5,0.5l0.7,0.5l0.3,0.5
		c0,0,0.1,0.1,0.1,0.1l1.1,1c-0.1,0.1-0.1,0.2-0.1,0.3c0,0.1,0.1,0.3,0.2,0.4l-0.1,0.3c0,0.1,0,0.1,0,0.2l0,0.4c0,0.1,0,0.2,0.1,0.3
		l0.2,0.2c0.1,0.1,0.2,0.2,0.3,0.2l0.4,0.1l0.2,0.2c0.1,0.1,0.2,0.2,0.4,0.2c0.1,0,0.3-0.1,0.4-0.2l0.1-0.1c0,0.2,0.2,0.3,0.3,0.3
		l1.1,0.5l0.4,0.3l0,0.2l0,0.1c-0.1,0.2-0.1,0.4,0.1,0.6l0.2,0.2c0,0,0.1,0.1,0.2,0.1l0.7,0.3c0.1,0,0.1,0,0.2,0
		c0.1,0,0.1,0,0.2-0.1c0,0,0,0,0,0c0.1,0,0.1,0,0.2,0h0.6l0.4,0.2c0,0,0.1,0,0.1,0l0.5,0.1l0.2,0.5c0.1,0.1,0.2,0.2,0.4,0.3l0.3,0.1
		c0.1,0,0.2,0,0.2,0l0.1,0.4c0.1,0.2,0.3,0.4,0.5,0.4c0,0,0,0,0.1,0l0.5-0.1c0.1,0,0.2-0.1,0.3-0.1l0.2-0.2l0.2-0.1
		c0.1-0.1,0.2-0.2,0.3-0.3c0-0.2,0-0.3-0.1-0.4l-0.5-0.6l0.2-0.1c0.1,0,0.1,0,0.2-0.1l0.6-0.4c0.1,0,0.1-0.1,0.2-0.2l0.2-0.4
		l0.5-0.1l0.7,0.4l0.2,0.4c0,0.1,0.1,0.1,0.2,0.2l0,0c-0.1,0.1-0.2,0.3-0.1,0.5l0.3,0.7c0,0.1,0.1,0.1,0.1,0.2l0.3,0.2
		c0.1,0,0.1,0.1,0.2,0.1c0,0.1,0,0.1,0.1,0.2l0.6,0.8l0.2,1.2l-0.2,0.3c-0.1,0.1-0.1,0.3-0.1,0.4l0.3,1.4l-0.2,0.7
		c-0.1,0.2,0,0.4,0.2,0.6l0.2,0.2l-1.1,1.6l-0.6,0.1c-0.1,0-0.3,0.1-0.3,0.2l-0.3,0.5c-0.1,0.1-0.1,0.2-0.1,0.3l0,0.5l-0.1,0
		c-0.1,0-0.3,0.1-0.3,0.3c-0.1,0.1-0.1,0.3,0,0.4l0,0.1l-0.9,0.5l-0.8,0.3c-0.2,0.1-0.3,0.3-0.3,0.5l0.1,0.4l-0.6,1c0,0,0,0.1,0,0.1
		l-0.3,0.9l-0.3,0.1c-0.2,0.1-0.3,0.3-0.3,0.5l0.2,1.2l-0.1,0.2c-0.1,0.1-0.1,0.2-0.1,0.4c0,0.1,0.1,0.2,0.2,0.3l0.7,0.5
		c0.2,0.2,0.5,0.1,0.7-0.1l0.2-0.3l0.1,0.2l-0.7,1c0,0,0,0.1-0.1,0.1c-0.1,0-0.1,0-0.2,0.1l-1.1,0.8c-0.1,0-0.1,0.1-0.1,0.2l-0.5,1
		c-0.1,0.1-0.1,0.3,0,0.4l0.7,1.4l-0.3,0.4c-0.1,0.1-0.1,0.3-0.1,0.4c0,0.1,0.1,0.3,0.2,0.3l0.9,0.5l1.3,1.1l0.5,1.1
		c0,0,0,0.1,0.1,0.1l0.6,0.7l1.6,3.4l1.7,3.2l1.3,2.1l-0.1,0.3c-0.1,0.1-0.1,0.3,0,0.5l0.6,1.3c0,0.1,0.1,0.1,0.1,0.2l1.3,1.1l3,1.9
		c0,0,0,0,0,0l3.2,1.7l0.1,0.5c0,0.1,0.1,0.3,0.2,0.3l1.5,0.9c0,0,0,0,0,0l0.3,2.3l0.1,2.9l-1.1,7.9l-0.3,3.6l-0.9,2.2
		c0,0.1,0,0.2,0,0.2l0.2,2.3l-0.5,1.5c0,0.1,0,0.1,0,0.2l0.4,2.9l-0.7,2.9l-1.2,3.3l-1,3.2l-0.3,0c-0.3,0-0.5,0.3-0.4,0.5l0.1,2.3
		l0.5,2l-0.7,1.4c0,0,0,0.1-0.1,0.2l-0.6,4.1l-0.5,3.1c0,0.2,0.1,0.5,0.3,0.5l0.7,0.2c0.1,0,0.3,0,0.4,0c0.1-0.1,0.2-0.2,0.2-0.3
		l0.4-2.2l0.6,0.3l-0.8,4.2L165,303c-0.1-0.1-0.3-0.1-0.4,0c-0.1,0.1-0.2,0.2-0.2,0.4l-0.5,3.6l-1.4,1.8c-0.1,0.1-0.1,0.3-0.1,0.5
		c0.1,0.2,0.2,0.3,0.3,0.3l1.8,0.5l-1.4,1.5c-0.1,0.1-0.1,0.1-0.1,0.2l-0.7,2.3c0,0.1,0,0.1,0,0.2l0.2,4.3c0,0.1,0,0.1,0,0.2
		l0.8,1.6l-0.4,1.4c0,0.1,0,0.2,0,0.3l0.5,1.6c0,0.1,0.1,0.2,0.2,0.2l2,1.5l0.2,0.2l-0.1,0c0,0-0.1-0.1-0.1-0.1l-0.7-0.3
		c-0.2-0.1-0.4,0-0.6,0.1s-0.1,0.4,0,0.6l1.9,2.6c0,0,0,0.1,0.1,0.1l1.7,1.5l2.1,1.6c0.1,0,0.1,0.1,0.2,0.1l1.7,0.4l1.1,0.8
		c0.1,0,0.1,0.1,0.2,0.1l1,0.2l0.7,0.1c0,0,0,0,0.1,0c0.1,0,0.2,0,0.3-0.1l1.3-0.8c0.1,0,0.1-0.1,0.2-0.2l0.3-0.7l0.5,0.6
		c0.1,0.1,0.2,0.2,0.4,0.2c0,0,0,0,0,0l1.4-0.1c0.2,0,0.3-0.1,0.4-0.3l0.6-1.1c0.1-0.1,0.1-0.3,0-0.4s-0.2-0.2-0.3-0.3l-2.1-0.6
		l-2.1-1.6l-0.8-2.1l-0.3-0.5c-0.1-0.1-0.2-0.2-0.4-0.3V325c0-0.2-0.1-0.4-0.4-0.5l-1-0.3c-0.1,0-0.3,0-0.4,0.1l-0.1,0.1l0.3-0.3
		c0.1,0,0.2-0.1,0.2-0.2l1.3,0.3c0,0,0.1,0,0.1,0c0.2,0,0.3-0.1,0.4-0.2c0.1-0.2,0.1-0.4,0-0.6l-0.8-1.1l-0.5-2.6l0.6-1.1l1.4-1
		c0.1-0.1,0.2-0.1,0.2-0.2l1-2.9l1.9-1.3c0.1-0.1,0.2-0.2,0.2-0.3l0.5-2c0.1-0.3-0.1-0.5-0.3-0.6l-1.4-0.4l-1.5-1.6l0.4-1.6l1.2-1.1
		l1.3,0c0.2,0,0.4-0.1,0.5-0.3l0.4-1.2l0.2-2.2l1.2-1.3l1.3-0.6c0.2-0.1,0.4-0.4,0.2-0.6l-0.3-0.8c-0.1-0.1-0.2-0.2-0.3-0.3
		c-0.1,0-0.3,0-0.4,0.1l-0.6,0.4l-0.8-0.5l-0.2-1.9l0.4-0.4l1.4,0.7c0.1,0,0.2,0.1,0.3,0l1.6-0.3c0.1,0,0.2,0,0.2-0.1l0.9-0.7
		c0.2-0.1,0.2-0.3,0.2-0.5l-0.3-0.9l0.3-1.5c0-0.1,0-0.2,0-0.2l-0.2-0.8l1.4,0.2c0,0,0.1,0,0.1,0l3.3-0.4c0,0,0.1,0,0.1,0l2.4-1.1
		c0.1,0,0.2-0.1,0.2-0.2l1.6-2.6c0-0.1,0.1-0.1,0.1-0.2l0.1-0.9c0-0.2,0-0.3-0.2-0.4l-0.9-0.7l0.2-1.1c0-0.2,0-0.3-0.2-0.5l-1.9-1.6
		l0-0.3l0.5,0.6c0.1,0.1,0.2,0.2,0.4,0.2l1-0.1l1.4,0.8c0.1,0.1,0.2,0.1,0.4,0l0.8-0.2l1.1,0.4c0.1,0,0.1,0,0.2,0
		c0.1,0,0.2,0,0.3-0.1l1.8-1.1c0.1,0,0.1-0.1,0.2-0.2l0.7-1.1c0,0,0-0.1,0-0.1c0.1,0,0.1-0.1,0.2-0.1l0.9-0.9c0,0,0.1-0.1,0.1-0.2
		l0.7-1.8l1.1-0.9l1.4-1.5c0,0,0.1-0.1,0.1-0.1l1.8-3.3l1.1-1c0.1,0,0.1-0.1,0.1-0.2l0.4-0.9c0,0,0-0.1,0-0.1l0.3-1.8
		c0-0.1,0-0.1,0-0.2l-0.3-0.9l0.2-1.3l1.3-1.7l1.9-1.4l1.8-0.5c0.1,0,0.1,0,0.1-0.1l1.1-0.8l2.6-0.7l1.7,0h0c0.2,0,0.4-0.1,0.5-0.3
		l0.3-0.9l1.2-0.7c0.1-0.1,0.2-0.2,0.2-0.3l0.3-1.7l1.6-2.2c0-0.1,0.1-0.1,0.1-0.2l0.3-2.2l0.4-0.6c0-0.1,0.1-0.1,0.1-0.2l0.6-3.8
		c0,0,0-0.1,0-0.1l-0.1-3.1l0.4-1l0.2,0c0.1,0,0.3-0.1,0.3-0.2l1.2-1.5l1-1.8l2.4-2.4l0.8-1.1c0-0.1,0.1-0.1,0.1-0.2l0.7-2.7
		c0-0.1,0-0.2,0-0.2L230.8,229.8z M187.6,206C187.6,206,187.6,206,187.6,206L187.6,206C187.6,206,187.6,206,187.6,206z M160.4,205.9
		C160.4,205.9,160.4,205.9,160.4,205.9L160.4,205.9L160.4,205.9z M139.8,128l0.8-0.3c0.1,0,0.2-0.1,0.2-0.2l0.3-0.5l0.3-0.2l1.4,0.5
		c0,0,0.1,0,0.1,0l1,0.1l0.3,0.2l0.5,1.3c0.1,0.2,0.2,0.3,0.4,0.3l1.4,0.3l-0.1,0.3c-0.1,0.2,0,0.4,0.1,0.5l0.5,0.5l-0.2,0.6
		c-0.1,0.2,0,0.5,0.3,0.6l0.3,0.1l-0.1,0.3c0,0,0,0,0,0.1l-0.2,0l-0.2-0.4c-0.1-0.2-0.3-0.3-0.5-0.3l-1.5,0.2c0,0-0.1,0-0.1,0
		l-1.3,0.5l-1-0.8c0,0-0.1-0.1-0.2-0.1l-0.6-0.2l0.2-0.5c0.1-0.2,0-0.4-0.1-0.6c-0.2-0.1-0.4-0.2-0.6-0.1l-2.3,1.3l-1.1,0.6
		l-0.8-0.7c-0.1-0.1-0.3-0.1-0.5-0.1l-0.9,0.3l1.9-1.7l1.2-0.6c0.1-0.1,0.2-0.2,0.2-0.3c0.2,0,0.4,0,0.5-0.2L139.8,128z
		 M153.7,134.1l0.5,0.6l1,1.7l-0.3,0.5l-1.1-0.2l-0.3-0.5c-0.1-0.2-0.4-0.3-0.6-0.2c-0.2,0.1-0.4,0.3-0.3,0.5l0.1,0.4l-0.7,1.2
		c-0.1,0.1-0.1,0.2-0.1,0.3l0.1,1l-0.1,0.5l-0.6,0.4l0-0.5l-0.3-1.2c0-0.2-0.2-0.3-0.3-0.4l-0.4-0.2c-0.2-0.1-0.4,0-0.5,0.1
		l-0.8,0.8l0-0.2l0.8-0.8c0.1-0.1,0.1-0.2,0.1-0.3l0.1-1c0,0,0-0.1,0-0.1l-0.1-1c0-0.1-0.1-0.3-0.2-0.3l-1.2-0.9
		c0,0-0.1-0.1-0.1-0.1l-0.8-0.3l0.8-0.1c0.2,0,0.3-0.1,0.4-0.3c0.1-0.2,0-0.4-0.1-0.5l0,0l1.1,0.3c0,0,0.1,0,0.1,0l1.2,0l1.3,0.2
		L153.7,134.1z M161,138.3c0,0,0,0.1,0,0.1l0.1,0.1l0.1,0.7l-1,0.6l-1.3-0.2l-1.3-0.1c-0.1,0-0.1,0-0.2,0l-0.6,0.2
		c-0.1,0-0.1,0.1-0.2,0.1c-0.1,0-0.1,0-0.2,0l-0.3,0.1l-0.2-0.1l0.3-0.4l0.4-0.2l1.2-0.3l1.3-0.3l0.5,0.3c0.2,0.1,0.5,0.1,0.6-0.1
		l0.3-0.3l0.4-0.2L161,138.3z M150,143.1c0,0,0.1,0,0.1,0l0.6,0.1c0,0,0.1,0,0.1,0c0.1,0,0.2,0,0.2-0.1l1.3-0.7l0.6-0.6l0.4-0.1
		l0.8,0.2c0.1,0,0.3,0,0.4-0.1l0.3-0.2l0.8-0.3l0.8-0.2l-1,0.9l-1.2,0.6l-0.9,0.3c0,0-0.1,0-0.1,0l-0.9,0.6l-1.2,0.3l-0.7-0.1
		l-0.7-0.3L150,143.1z M144.8,136.2l-0.4,0.8l-0.4,1.1c0,0,0,0.1,0,0.1l-0.1,0.9c0,0.1,0,0.2,0,0.2l0.5,1.3l0,1.4l-0.6,1l-0.3,0.3
		l-0.4,0.2l-0.4,0l0,0l-0.4-1.1l0-0.5l0-0.6c0,0,0-0.1,0-0.1l-0.2-1l0.7-2.8l0.5-1c0.1-0.2,0-0.5-0.2-0.6c-0.1-0.1-0.2-0.1-0.3-0.1
		l0.7-1.1l1.1-0.2l1.2-0.4l0.8,0.2c-0.1,0.1-0.1,0.2-0.2,0.3l-0.2,0.6l-0.2,0.1c-0.1,0.1-0.2,0.2-0.2,0.3l-0.1,0.3c0,0,0,0,0,0
		c-0.2-0.1-0.3,0-0.5,0.1l-0.4,0.3C144.8,136.1,144.8,136.1,144.8,136.2z M13.9,71.2C13.9,71.2,14,71.2,13.9,71.2
		C14,71.2,14,71.2,13.9,71.2L13.9,71.2z M36.1,90.2l0.2,0.3l-1.5,0.9L36.1,90.2z M81.7,127.8c0.1-0.1,0.2-0.2,0.3-0.3
		c0-0.1,0-0.3,0-0.4l-0.6-1.2c0-0.1-0.1-0.1-0.2-0.2l-1.6-1l-1.1-1.6l0.8,0.7l3.2,2.5c0.1,0,0.1,0.1,0.2,0.1c0,0,0,0.1,0,0.1
		l0.5,1.8l0.3,2l0,0.1l-0.7-1.7c-0.1-0.1-0.2-0.2-0.3-0.3l-1.1-0.4L81.7,127.8z M171.4,325.4c-0.1,0.1-0.2,0.2-0.2,0.3l-0.5,1.8
		l-0.1,0.1l0.2-1.8l0.9-0.6L171.4,325.4z"/>
	<path class="st0" d="M195.8,119c-0.1,0-0.2,0-0.3,0.1l-1.4,0.9c-0.1,0-0.1,0.1-0.1,0.1l-1,1.5c0,0,0,0.1,0,0.1l-1.7,4.1l-1.2,1.4
		c-0.2,0.2-0.2,0.5,0,0.7l0.3,0.3l-0.7,0.6c-0.2,0.1-0.2,0.3-0.1,0.5l0.2,0.5c0.1,0.2,0.2,0.3,0.5,0.3l3.2,0.1l1.7-0.1l1.1,0.4
		l-0.5,0.5c-0.1,0.1-0.2,0.3-0.1,0.5c0.1,0.2,0.2,0.3,0.4,0.3l0.5,0c0.2,0,0.3,0,0.4-0.2l1.7-1.9l0.1,0.1l-0.3,1.7
		c0,0.2,0.1,0.5,0.3,0.5l0.9,0.4c0.1,0,0.1,0,0.2,0c0,0,0,0,0.1,0l0.6-0.1c0.2,0,0.4-0.2,0.4-0.3l0.6-2c0-0.1,0-0.2,0-0.3l-0.5-1.5
		l-0.2-1.1c0-0.1-0.1-0.3-0.2-0.3c-0.1-0.1-0.3-0.1-0.4,0l-0.4,0.2l0.3-1.2c0.1-0.2,0-0.5-0.3-0.6l-1.4-0.7
		c-0.2-0.1-0.4-0.1-0.5,0.1l-0.5,0.4l-1-0.5l0.3-0.4c0.1-0.1,0.1-0.3,0.1-0.4c0-0.1-0.1-0.2-0.3-0.3l-0.8-0.4
		c-0.2-0.1-0.4-0.1-0.5,0.1l1.5-2.8l0.2-0.5c0.1-0.1,0.1-0.3,0-0.4c-0.1-0.1-0.2-0.2-0.4-0.2L195.8,119z"/>
	<path class="st0" d="M152.6,78.1c0-0.2-0.1-0.3-0.2-0.4l-1.8-1.2l-1.8-1.3l-0.9-0.9c-0.2-0.2-0.4-0.2-0.6-0.1l-0.3,0.2l-0.2-1.2
		c0-0.2-0.2-0.3-0.4-0.4l-0.9-0.2c-0.1,0-0.3,0-0.4,0.1c-0.1,0.1-0.2,0.2-0.2,0.3l-0.5,3.5l-0.2,3L143,81c-0.1,0.2-0.1,0.4,0,0.6
		c0.1,0.2,0.3,0.3,0.5,0.2l1.5-0.2l0.4,1.6c0,0.2,0.2,0.3,0.3,0.3c0.1,0,0.1,0,0.2,0c0.1,0,0.2,0,0.3-0.1l2.2-1.7c0,0,0,0,0.1-0.1
		l1.4-1.7l0.7,1.3c0.1,0.1,0.2,0.2,0.3,0.2l2.4,0.8c0.2,0.1,0.3,0,0.5-0.1l1.2-1c0.1-0.1,0.2-0.2,0.2-0.4c0-0.1,0-0.3-0.1-0.4l-1-1
		c-0.1-0.1-0.3-0.2-0.5-0.1l-0.8,0.2L152.6,78.1z"/>
	<path class="st0" d="M280.1,106.1l0.1,2.2c0,0.2,0.2,0.4,0.4,0.5c0.2,0.1,0.4,0,0.5-0.2l0.3-0.5l0.2,0.3l-0.5,1.1
		c-0.1,0.1-0.1,0.3,0,0.4l0.3,0.6c0.1,0.1,0.2,0.2,0.3,0.3l1.8,0.5l1,1.6l-0.2,1.3l-2-0.2c-0.3,0-0.5,0.2-0.5,0.4l-0.3,1.6
		c0,0.1,0,0.2,0.1,0.3l0.7,1.2L281,118c-0.2,0.1-0.3,0.4-0.2,0.6l0.4,0.8c0.1,0.2,0.2,0.3,0.4,0.3l1.5,0.3l-0.5,0.2
		c-0.1,0-0.1,0.1-0.2,0.1l-2.3,2.6c-0.1,0.1-0.1,0.3-0.1,0.4c0,0.1,0.1,0.3,0.2,0.3l0.6,0.3c0.1,0,0.2,0.1,0.2,0.1
		c0.1,0,0.2,0,0.3-0.1l1-0.8l1.3,0.3c0.2,0,0.3,0,0.5-0.2l0.9-1l0.5,0.3c0.1,0.1,0.3,0.1,0.4,0.1l2.7-0.7c0,0,0,0,0,0l2.1,0
		c0.1,0,0.2,0,0.3-0.1l1.3-1.2c0.2-0.1,0.2-0.4,0.1-0.6l-0.5-1.1l0.6-0.6c0.1-0.1,0.1-0.2,0.2-0.3l0.2-1.5c0-0.2-0.1-0.5-0.4-0.5
		l-1.7-0.4l-0.4-0.9l-1-3.2c0-0.1-0.1-0.3-0.3-0.3l-1-0.4l-1.5-3.6c-0.1-0.2-0.2-0.3-0.4-0.3l-1.2-0.1l1.3-2.3c0,0,0-0.1,0.1-0.2
		l0.4-2.3c0-0.1,0-0.3-0.1-0.4c-0.1-0.1-0.2-0.2-0.4-0.2l-1.6,0c0,0-0.1,0-0.1,0l-1.1,0.3l1.3-2.5c0.1-0.2,0.1-0.4,0-0.5
		c-0.1-0.1-0.3-0.2-0.5-0.2l-1.6,0.2l-1.2-0.2c-0.2,0-0.4,0.1-0.5,0.3l-1.2,2.4c0,0,0,0.1,0,0.1l-0.6,3.1c0,0.1,0,0.2,0.1,0.3
		L280.1,106.1z"/>
	<path class="st0" d="M490.5,222.9l-0.2,1.2l-0.6,1c-0.1,0.1-0.1,0.3,0,0.5l0.4,0.9c0.1,0.2,0.2,0.3,0.4,0.3l0.3,0l0.2,1.3l-0.4,1.3
		c-0.1,0.2,0,0.4,0.2,0.6l0.5,0.4c0.1,0.1,0.2,0.1,0.3,0.1c0,0,0.1,0,0.1,0l0.8-0.2c0.2-0.1,0.4-0.3,0.4-0.5l-0.1-2.3l-0.1-1.7
		l0.5-0.2l-0.1,1c0,0.2,0.1,0.3,0.2,0.4l1,0.8l-0.1,0.3c-0.1,0.2,0,0.4,0.1,0.5l0.2,0.3c0.1,0.2,0.4,0.2,0.5,0.1l0.7-0.3l-0.3,0.5
		c-0.1,0.2-0.1,0.5,0.1,0.6l0.4,0.4c0.1,0.1,0.2,0.1,0.3,0.1c0.1,0,0.2,0,0.2-0.1l0.7-0.4c0.2-0.1,0.3-0.2,0.3-0.4l0-0.9
		c0-0.1,0-0.2-0.1-0.3l-0.4-0.5c0,0-0.1,0-0.1-0.1c0,0,0-0.1,0-0.1l-0.9-1.1l0.2-0.3c0.1-0.2,0.1-0.4,0-0.5l-1.3-1.8l1.1-0.5
		c0.1,0,0.1-0.1,0.2-0.2l0.6-0.8l0.3,0.1c0,0,0.1,0,0.2,0c0.1,0,0.2,0,0.3-0.1c0.1-0.1,0.2-0.2,0.2-0.3l0-0.3c0-0.2,0-0.3-0.1-0.4
		c-0.1-0.1-0.3-0.2-0.4-0.1l-0.5,0.1c-0.1,0-0.1,0-0.2,0.1c0,0-0.1,0-0.1,0l-2,0.4c-0.1,0-0.2,0.1-0.2,0.1l-0.7,0.6l-1.2-1.2
		l0.2-0.9l1.2-0.2l2.8-0.1l1.6,0.3c0.1,0,0.1,0,0.2,0l1.2-0.3c0.1,0,0.2-0.1,0.3-0.2l1.2-1.5c0.1-0.2,0.1-0.4,0-0.6l-0.1-0.1
		c-0.2-0.2-0.5-0.2-0.7-0.1l-1.4,1l-1.8,0.1l-2.1-0.2l-1.2-0.4c-0.2-0.1-0.4,0-0.5,0.1l-1.3,1.1c0,0-0.1,0.1-0.1,0.1l-0.4,0.7
		L490.5,222.9z"/>
	<path class="st0" d="M468.1,224.6c-0.1-0.1-0.2-0.2-0.3-0.2l-1-0.1l-0.5-0.7l-0.3-1c-0.1-0.2-0.2-0.4-0.4-0.4l-0.4,0l-0.7-0.4
		l0.5-1c0.1-0.2,0-0.5-0.2-0.6l-1.1-0.6l-0.9-1.3c0,0-0.1-0.1-0.1-0.1l-1.3-1.1c-0.1-0.1-0.2-0.1-0.3-0.1l-1.5,0l-1.5-1.7
		c0,0,0,0-0.1-0.1l-0.9-0.6l-1.3-1.1l-1.5-1.6c-0.1-0.1-0.2-0.1-0.3-0.2l-2.6-0.3l-0.8,0c-0.2,0-0.3,0.1-0.4,0.2
		c-0.1,0.1-0.1,0.3-0.1,0.4l0.1,0.5c0,0.1,0.1,0.2,0.1,0.3l1.8,1.9l1.2,0.9l0.8,1.4c0,0.1,0.1,0.1,0.1,0.1l1.4,1l0.6,1.2l0.5,1.4
		c0,0.1,0.1,0.1,0.1,0.2l1.4,1.3l1.3,2.4l0.9,1.3l1.2,1.3l0.7,1c0,0.1,0.1,0.1,0.1,0.1l2.1,1.3l1.4,1.3c0.1,0.1,0.2,0.1,0.3,0.1
		c0,0,0,0,0,0l1.6,0c0.3,0,0.5-0.2,0.5-0.5l0.1-2.3l0.4-2c0-0.1,0-0.3-0.1-0.4L468.1,224.6z"/>
	<path class="st0" d="M481.2,226.7c0.1,0,0.1,0.1,0.2,0.1l1,0.1l0.5,0.8c0.1,0.1,0.3,0.2,0.4,0.2c0.1,0,0.1,0,0.2,0l1.6-0.6
		c0.1,0.1,0.2,0.1,0.3,0.1c0.2,0,0.4-0.2,0.4-0.4l0.5-2c0,0,0-0.1,0-0.1l0-1.5l1.4-1c0.1-0.1,0.2-0.3,0.2-0.4l-0.1-1.3l0.5-0.9
		l1.4-0.1c0.2,0,0.4-0.2,0.4-0.3s0-0.4-0.2-0.5l-1.3-1.1l0.2-0.5c0.1-0.2,0-0.3-0.1-0.5l-1-1.3l0.7-1.1c0-0.1,0-0.1,0.1-0.2
		c0,0,0,0,0,0l1-0.5c0.2-0.1,0.3-0.4,0.3-0.6l-0.1-0.3l0.6,0c0.2,0,0.4-0.2,0.4-0.4l0.1-0.3c0-0.2-0.1-0.5-0.3-0.5l-1.2-0.4l-1-0.4
		l-0.1-0.5c0-0.1-0.1-0.2-0.1-0.3l-0.8-0.7c-0.1-0.1-0.2-0.1-0.3-0.1l-0.5,0c-0.2,0-0.3,0.1-0.4,0.2l-0.7,1.2l-1.2,1.1
		c-0.1,0-0.1,0.1-0.1,0.2c-0.1,0-0.2,0-0.3,0.1l-1.2,0.8l-0.5,0.5c-0.1,0.1-0.1,0.1-0.1,0.2c-0.1,0-0.1,0.1-0.2,0.1l-0.7,0.8
		l-1.2,1.3l-1.9,0.3c0,0-0.1,0-0.1,0l-0.6,0.3c-0.1,0.1-0.2,0.2-0.3,0.3l-0.3,1.1l-1,0.2l-0.8-0.4c-0.2-0.1-0.3,0-0.5,0c0,0,0,0,0,0
		c-0.2,0-0.4,0-0.5,0.1l-0.7,0.8c-0.1,0.1-0.1,0.2-0.1,0.3l-0.2,1.5c0,0,0,0.1,0,0.1l0.2,1.4c0,0.1,0,0.1,0.1,0.2l0.8,1.3
		c0,0.1,0.1,0.1,0.2,0.2l0.7,0.4l0.2,1.9c0,0.2,0.2,0.4,0.4,0.4l1.2,0.2c0,0,0.1,0,0.1,0l0.9-0.1l0.4,0.6c0.1,0.2,0.3,0.2,0.5,0.2
		l1.7-0.5L481.2,226.7z"/>
	<path class="st0" d="M273.2,119.1l2.1,0.4c0,0,0.1,0,0.1,0c0.1,0,0.2,0,0.2-0.1l2.9-1.5c0.1,0,0.2-0.1,0.2-0.2l1.2-2.4
		c0-0.1,0.1-0.2,0-0.3l-0.3-1.8c0,0,0,0,0,0c0,0,0-0.1,0.1-0.1l0.8-1.7c0.1-0.2,0-0.4-0.1-0.6l-1.6-1.6c-0.1-0.1-0.2-0.2-0.4-0.1
		l-1.1,0.1c-0.1,0-0.3,0.1-0.4,0.2c0,0,0,0,0,0c-0.1,0-0.2,0-0.3,0.1l-1,1.1l-2.2,2.2c-0.1,0.1-0.2,0.3-0.1,0.5l0.8,2.6l-1.2,2.5
		c-0.1,0.1-0.1,0.3,0,0.4C273,119,273.1,119.1,273.2,119.1z"/>
	<path class="st0" d="M265,78.5l2.1-2.9c0.1-0.2,0.1-0.4,0-0.6l-1.8-2.6l0.3-2.4c0-0.1,0-0.3-0.1-0.4c-0.1-0.1-0.2-0.2-0.3-0.2
		l-2.5-0.3c-0.1,0-0.3,0-0.4,0.1l-2.5,2.1l-1.8-1c-0.2-0.1-0.4-0.1-0.6,0.1l-2.2,2l-2.4-2.5c-0.1-0.1-0.3-0.2-0.5-0.1l-2.3,0.6
		c-0.2,0-0.3,0.1-0.3,0.3l-1,2.4c-0.1,0.1-0.1,0.3,0,0.4c0.1,0.1,0.2,0.2,0.3,0.3l3.1,0.8l0,0.7l-2.2,0.6c-0.2,0.1-0.3,0.2-0.4,0.4
		c0,0.2,0.1,0.4,0.3,0.5l2.9,1.5l-1.1,1.2c-0.1,0.1-0.2,0.3-0.1,0.5c0,0.2,0.2,0.3,0.4,0.3l6.5,1.7c0,0,0.1,0,0.1,0
		c0.1,0,0.1,0,0.2,0l1.4-0.7l4.8-2.6C264.9,78.6,264.9,78.6,265,78.5z"/>
	<path class="st0" d="M534.6,137.5c-0.2-0.1-0.4,0-0.5,0.1l-0.8,0.6l-1-0.4l-1.3-0.8l-1.7-2.1c-0.1-0.1-0.3-0.2-0.5-0.2
		c-0.2,0-0.3,0.2-0.4,0.4l-0.4,1.5l-0.5,3l-1.5,0.1c-0.2,0-0.3,0.1-0.4,0.3l-0.8,1.6c0,0.1-0.1,0.2,0,0.3l0.2,2
		c0,0.3,0.2,0.4,0.5,0.4c0,0,0,0,0,0l1.6,0c0.2,0,0.4-0.1,0.5-0.3l0.8-2l2.2,1.3c0.2,0.1,0.5,0.1,0.7-0.2l1.3-2l2.2-0.6
		c0.2-0.1,0.4-0.3,0.4-0.5l-0.3-2.1C534.9,137.7,534.8,137.5,534.6,137.5z"/>
	<path class="st0" d="M521.3,153.9l-0.7-0.7c-0.1-0.1-0.3-0.1-0.4-0.1c-0.2,0-0.3,0.1-0.3,0.3l-1.5,3.3l-1.5-0.4c-0.1,0-0.1,0-0.2,0
		l-3.2,0.6c-0.1,0-0.2,0.1-0.3,0.2l-1.1,1.3l-1.7,1c-0.1,0-0.1,0.1-0.1,0.1l-0.8,1.2l-1.3,0.5c-0.1,0-0.2,0.2-0.3,0.3
		c0,0.1,0,0.3,0,0.4l0.6,1.1c0,0.1,0.1,0.2,0.2,0.2l0.8,0.4l-0.3,1.5c0,0.2,0,0.4,0.1,0.5l0.6,0.6c0.1,0.1,0.2,0.1,0.3,0.1
		c0.1,0,0.2,0,0.3-0.1l0.9-0.7c0.1-0.1,0.1-0.1,0.2-0.2l1.1-3.2c0.1-0.2,0-0.4-0.1-0.5l-1-0.9l1.2,0c0.1,0,0.1,0,0.2,0l0.5-0.3
		l-0.5,0.7c-0.1,0.1-0.1,0.2-0.1,0.3l0,0.8c0,0.2,0.1,0.4,0.3,0.4l0.8,0.4c0.1,0,0.1,0.1,0.2,0.1c0.1,0,0.1,0,0.2,0
		c0.1,0,0.2-0.2,0.3-0.3l0.3-0.9l0.6-0.3l0.4,0.4c0.1,0.1,0.2,0.1,0.4,0.1c0.1,0,0.3-0.1,0.3-0.2l0.7-1c0.1-0.1,0.1-0.3,0.1-0.4
		l-0.2-0.5c0-0.1-0.2-0.3-0.3-0.3l-0.4-0.1l0.9-0.1l0,1.1c0,0.2,0.1,0.3,0.2,0.4l0.9,0.6c0.2,0.1,0.4,0.1,0.6-0.1l2.2-2.1l2.8-0.1
		c0.1,0,0.1,0,0.2,0l2.1-0.9c0.1,0,0.2-0.1,0.2-0.2l0.8-1.3c0.1-0.1,0.1-0.3,0.1-0.4l-0.2-0.9l0.6-1.5c0-0.1,0-0.1,0-0.2l0-2l1.5-2
		c0.1-0.1,0.1-0.2,0.1-0.3l0-1.7c0-0.1,0-0.1,0-0.2l-0.9-2.9c-0.1-0.2-0.3-0.4-0.6-0.3l-1.5,0.3c-0.1,0-0.3,0.1-0.3,0.3l-0.6,1.3
		c0,0.1-0.1,0.2,0,0.3l0.3,2.3l-1,2.5L521.3,153.9z"/>
	<path class="st0" d="M427,206.1l-0.8-1.1c0,0-0.1-0.1-0.1-0.1l-0.9-0.7c-0.1-0.1-0.3-0.1-0.5-0.1c-0.2,0.1-0.3,0.2-0.3,0.3
		l-0.7,2.4c0,0.1,0,0.1,0,0.2l0.3,2.3c0,0.1,0,0.1,0.1,0.2l0.7,1.2c0.1,0.1,0.3,0.2,0.4,0.2c0,0,0.1,0,0.1,0l1.3-0.3
		c0.1,0,0.1,0,0.2-0.1l0.6-0.4c0.1-0.1,0.2-0.2,0.2-0.3l0.2-1.6c0-0.1,0-0.2,0-0.3L427,206.1z"/>
	<path class="st0" d="M374.7,245.6l-0.3-2c0,0,0-0.1,0-0.1l-0.4-1.2l-0.5-0.7l-0.4-0.5c-0.1-0.1-0.3-0.2-0.4-0.2
		c-0.2,0-0.3,0.1-0.4,0.2l-0.4,0.5c-0.1,0.1-0.1,0.2-0.1,0.3l0,0.9l-0.8,1l-0.2,0c-0.2-0.1-0.4,0-0.5,0.1c-0.1,0.1-0.2,0.3-0.1,0.5
		l0.1,0.3l-0.4,0.7l-1.4,1.1l-0.9,0.9l-0.6,0c-0.1,0-0.1,0-0.2,0.1l-0.5,0.3l-0.9,0.4l-0.7,0c-0.2,0-0.4,0.2-0.4,0.4l-0.2,0.9
		l-0.5,0.9c-0.1,0.1-0.1,0.2-0.1,0.3l0.1,1.6c0,0,0,0.1,0,0.1l0.3,1.1l0.3,0.7l-0.1,1l-0.7,1.3c0,0.1-0.1,0.2-0.1,0.2l0,0.3
		l-0.5,0.2c-0.1,0.1-0.3,0.2-0.3,0.3l-0.3,1.2c0,0.1,0,0.1,0,0.2l0.1,1.2c0,0,0,0.1,0,0.1l0.6,1.3l0.1,1.6c0,0.1,0,0.1,0,0.2
		l0.4,0.9c0,0.1,0.1,0.2,0.2,0.2l2.2,1.1c0.1,0,0.1,0.1,0.2,0.1c0.1,0,0.2,0,0.2-0.1l1.3-0.7l1.3-0.4c0.1,0,0.3-0.2,0.3-0.3l0.7-2.1
		l0.6-2.5l2.5-7.9c0,0,0-0.1,0-0.1l0.1-1.3l0.3-0.3c0.1-0.1,0.1-0.2,0.2-0.3l0.1-0.6c0-0.1,0-0.1,0-0.2l-0.3-1.1l0.1,0.3
		c0.1,0.2,0.3,0.2,0.4,0.2h0c0.2,0,0.3-0.1,0.4-0.2l0.1-0.2c0,0,0-0.1,0.1-0.1l0.1-0.7c0-0.1,0-0.2,0-0.3L374.7,245.6z"/>
	<path class="st0" d="M539.1,231.9c0.1-0.1,0.1-0.3,0-0.4l-0.3-0.6c-0.1-0.1-0.2-0.2-0.3-0.3l-2.6-1l-0.2-0.8c0-0.1-0.1-0.2-0.1-0.2
		l-0.9-0.8l-1.1-0.8c0,0-0.1-0.1-0.1-0.1l-3-0.9l-2.7-1c-0.1,0-0.2,0-0.3,0c-0.1-0.1-0.2-0.1-0.3-0.1l-1.6-0.3l-1.3-0.6l-1.4-0.6
		c-0.1,0-0.1,0-0.2,0h-1.4c-0.1,0-0.2,0-0.2,0.1l-1.9,1c-0.1,0-0.1,0.1-0.2,0.1l-1.2,1.5l-1.4-0.8l-0.4-2.6c0,0,0-0.1,0-0.1
		l-0.2-0.5c-0.1-0.1-0.2-0.2-0.3-0.3l-2.5-0.6c-0.1,0-0.3,0-0.4,0.1l-0.7,0.5l-1.9,0.3c-0.2,0-0.3,0.2-0.4,0.3
		c-0.1,0.2,0,0.4,0.1,0.5l0.4,0.5c0.1,0.1,0.2,0.1,0.3,0.2l1.3,0.3l0.5,0.8c0.1,0.1,0.2,0.2,0.4,0.2l0.8,0l-1,0.3
		c-0.2,0.1-0.3,0.2-0.3,0.4s0.1,0.4,0.2,0.5l0.8,0.5l0,0.5c0,0.1,0,0.2,0.1,0.3l0.3,0.4c0.1,0.2,0.3,0.3,0.5,0.2l0.4-0.1
		c0.1,0,0.2-0.1,0.3-0.2l0.3-0.5l2.2,1.4c0.1,0,0.1,0.1,0.2,0.1l1.3,0.1l3.2,1.4l0.7,1.3l0.4,1.6l-0.8,0.3c-0.1,0-0.2,0.1-0.2,0.2
		l-0.5,1c-0.1,0.2-0.1,0.3,0,0.5c0.1,0.1,0.3,0.2,0.4,0.2l1.7,0c0.1,0,0.3-0.1,0.4-0.2l0.2-0.3l1.5,0.3l1.1,1
		c0.1,0.1,0.2,0.1,0.3,0.1c0.1,0.2,0.2,0.3,0.4,0.3l1.5,0.1l0.9,0.3c0.1,0,0.2,0,0.3,0l1.1-0.5c0.2-0.1,0.3-0.3,0.3-0.5l-0.2-0.9
		l0.8-0.4l1.4-0.5l2,0.7l0.8,1.4c0,0,0,0.1,0.1,0.1l1,0.9l1.3,1c0.1,0.1,0.2,0.1,0.2,0.1l3,0.4l0.3,0.3c0.1,0.1,0.2,0.2,0.4,0.2
		c0,0,0,0,0.1,0l0.9-0.1c0.2,0,0.3-0.1,0.4-0.3l0.1-0.2c0.1-0.3,0-0.5-0.3-0.6l-1.3-0.5c0-0.1,0-0.1,0-0.2c0-0.2-0.2-0.4-0.4-0.4
		l-0.6-0.1l0-0.3c0-0.1,0-0.3-0.1-0.4c-0.1-0.1-0.2-0.2-0.4-0.1l-0.6,0l-1-1.6c0-0.1-0.1-0.1-0.1-0.1l-1.4-1l-0.2-0.7l0.9-0.1
		C538.9,232.1,539,232,539.1,231.9z"/>
	<path class="st0" d="M495,202.4l0,0.5c0,0.2,0.1,0.3,0.2,0.4c0.1,0,0.2,0.1,0.2,0.1c0.1,0,0.1,0,0.2,0l0.8-0.4c0,0,0,0,0,0
		l-0.1,0.4l-0.6,0.8c-0.1,0.2-0.1,0.4,0,0.6l0.8,0.9c0.1,0.1,0.2,0.2,0.3,0.2c0,0,0,0,0,0c0.1,0,0.2,0,0.3-0.1l0.4-0.3
		c0,0,0.1-0.1,0.1-0.1l0.5-1l0.5-0.5c0.1-0.1,0.1-0.2,0.2-0.3l0.1-0.8c0-0.2-0.1-0.4-0.3-0.5c-0.2-0.1-0.4,0-0.6,0.2l-0.1,0.2
		c0-0.1-0.1-0.1-0.1-0.1c-0.1-0.1-0.3-0.2-0.4-0.2l-0.1,0c0-0.1,0.1-0.1,0.1-0.2l0-0.4c0-0.1,0-0.3-0.1-0.4
		c-0.1-0.1-0.2-0.2-0.4-0.2h-0.8l-0.5-0.3c-0.2-0.1-0.4-0.1-0.5,0.1c-0.2,0.1-0.2,0.3-0.2,0.5l0.1,0.3l-0.1,0.8
		C495,202.3,495,202.4,495,202.4z"/>
	<path class="st0" d="M491.5,193.4l0,1.2c0,0,0,0.1,0,0.1l0.2,0.7c0,0.1,0,0.1,0.1,0.2l0.6,0.7c0.1,0.1,0.1,0.1,0.2,0.1
		c0,0.1,0.1,0.1,0.1,0.2c0,0,0,0,0,0l-0.1,0.5c0,0.2,0.1,0.4,0.3,0.5l0.2,0.1l-0.3,0c-0.2,0-0.4,0.1-0.4,0.2c-0.1,0.2-0.1,0.4,0,0.5
		l0.7,1l0.5,0.5c0.1,0.1,0.2,0.2,0.4,0.2c0,0,0.1,0,0.1,0c0.2,0,0.3-0.2,0.4-0.3l0.3-1c0.1-0.2,0-0.4-0.1-0.5l-0.4-0.5l1.1-0.2
		l0.8,0.8c0.1,0.1,0.3,0.2,0.4,0.1c0.1,0,0.3-0.1,0.4-0.2l0.1-0.1l0.4,0.5c0,0.1,0.1,0.1,0.1,0.1l1,0.7c0.1,0.1,0.2,0.1,0.3,0.1
		c0.1,0,0.1,0,0.2,0c0.1-0.1,0.3-0.2,0.3-0.3l0.1-0.4c0-0.2,0-0.4-0.2-0.5l-0.3-0.2l0.1-0.6c0-0.2-0.1-0.4-0.3-0.5l-1.9-0.9
		c-0.1,0-0.2-0.1-0.3,0l-0.6,0.2l-0.7-0.1l-0.3-1.1l0.2-1.2l0.8-0.5c0.1-0.1,0.2-0.2,0.2-0.3l0.4-1.3c0-0.1,0-0.2,0-0.3l-0.5-1.1
		l0.2-0.6c0-0.1,0-0.3,0-0.4c-0.1-0.2-0.2-0.3-0.3-0.3c-0.2,0-0.3,0-0.5,0.1l-0.1,0.1l-0.8-0.4c-0.1,0-0.1,0-0.2,0l-0.8,0
		c-0.2,0-0.4,0.1-0.5,0.3l-0.5,1.4c0,0,0,0.1,0,0.1l-0.1,2.2c-0.1-0.1-0.3-0.1-0.4,0C491.6,193,491.5,193.2,491.5,193.4z"/>
	<path class="st0" d="M501.9,209.7c0.1,0.2,0.3,0.3,0.5,0.3c0.2,0,0.4-0.1,0.5-0.3l0.4-1c0-0.1,0-0.1,0-0.2l-0.1-0.9l-0.4-2.5
		c0-0.1-0.1-0.3-0.2-0.3l-0.9-0.6c-0.2-0.1-0.4-0.1-0.5,0c-0.2,0.1-0.2,0.3-0.2,0.5l0,0.6l-0.8,0c-0.2,0-0.4,0.1-0.4,0.3l-0.2,0.5
		l-1,0.3l-0.3-0.4c-0.2-0.2-0.5-0.2-0.7-0.1l-0.7,0.5l-1,0.5c-0.1,0-0.2,0.1-0.2,0.2l-0.6,1.3c-0.1,0.1-0.1,0.3,0,0.4l0.1,0.2
		c0.1,0.1,0.2,0.2,0.3,0.2c0.1,0,0.3,0,0.4-0.1l1-0.7l0.6,0c0.2,0,0.3-0.1,0.4-0.2l0.3-0.4l0.6,0.5l-0.3,0.5c-0.1,0.1-0.1,0.3,0,0.4
		l0.4,1.1c0,0.1,0.1,0.2,0.2,0.3l1.7,0.9c0.1,0,0.1,0.1,0.2,0.1c0.2,0,0.3-0.1,0.4-0.2l0.3-0.5c0.1-0.1,0.1-0.3,0-0.5l-0.4-1
		l0.3-0.4L501.9,209.7z"/>
	<path class="st0" d="M501.4,200l-0.4-0.5c-0.1-0.1-0.2-0.2-0.4-0.2l-1.1,0c-0.2,0-0.4,0.1-0.5,0.3c-0.1,0.2-0.1,0.4,0.1,0.5
		l0.7,0.9l0,0.2l-0.4,0c-0.2,0-0.3,0-0.4,0.2c-0.1,0.1-0.1,0.3-0.1,0.4l0.2,0.6c0,0.2,0.2,0.3,0.4,0.4l0.2,0l0,0.7
		c0,0.2,0.1,0.3,0.2,0.4c0.1,0,0.2,0.1,0.3,0.1c0.1,0,0.1,0,0.2,0l0.4-0.2c0.2-0.1,0.3-0.4,0.2-0.6l-0.3-0.8l0-0.1l0.5,0.2
		c0.1,0,0.1,0,0.2,0c0.1,0,0.2,0,0.3-0.1c0.1-0.1,0.2-0.3,0.1-0.5l-0.4-1.5C501.5,200.1,501.5,200,501.4,200z"/>
	<path class="st0" d="M610.1,71.6l-3.2-3.7c-0.1-0.1-0.2-0.2-0.3-0.2l-4.2-0.6c-0.1,0-0.3,0-0.4,0.1c-0.1,0.1-0.2,0.3-0.1,0.4l0.3,2
		l-0.5-0.4l0.1-2.4c0-0.1,0-0.3-0.1-0.4l-4.4-4.4l-4.1-3.5l-2.3-2.1c0,0-0.1-0.1-0.1-0.1l-4.8-2.3c-0.1,0-0.2-0.1-0.3,0l-3.4,0.3
		l-5.2-1.3c-0.3-0.1-0.5,0.1-0.6,0.3l-0.7,1.9c0,0.1,0,0.2,0,0.4l1.2,2.8l-1.7,1.2l-2.7-3.9c-0.1-0.2-0.3-0.2-0.5-0.2l-3,0.5
		l-3.1-0.9c-0.1,0-0.1,0-0.2,0l-2.9,0.1c-0.1,0-0.1,0-0.2,0l-2.1,0.9l-1.8-1.2l0.2-3.4c0-0.1,0-0.2-0.1-0.3l-1.3-2
		c-0.1-0.1-0.2-0.2-0.3-0.2l-3.2-0.8c-0.1,0-0.1,0-0.2,0l-6.6,0.9l-4.3-3.9l-1.4-3.1c-0.1-0.1-0.2-0.2-0.3-0.3l-15-3.6
		c-0.2,0-0.4,0-0.5,0.1l-2.1,2.3c-0.1,0.1-0.2,0.3-0.1,0.4l1.1,4.5l-2.2-0.6c-0.2,0-0.4,0-0.5,0.2l-1,1.2l-3-1.5
		c-0.1-0.1-0.3-0.1-0.4,0l-2.6,1.3l-2.3-2.1c-0.1-0.1-0.3-0.2-0.5-0.1c-0.2,0-0.3,0.2-0.3,0.3l-1.4,4.8l-2.3-1.8l-2-4l0.9-2.1
		c0-0.1,0.1-0.2,0-0.3l-0.8-3.5c0-0.1-0.1-0.2-0.1-0.2l-2.6-3c-0.1-0.1-0.2-0.1-0.4-0.2l-2.6,0l-3.3-1c-0.1,0-0.3,0-0.4,0.1
		c-0.1,0.1-0.2,0.2-0.2,0.4l-0.1,3.9l-6.5-0.8l-0.4-2.4c0-0.2-0.2-0.4-0.4-0.4l-5.2-1c-0.1,0-0.2,0-0.3,0l-2.6,0.9
		c-0.1,0-0.2,0.1-0.3,0.3l-0.3,0.7l-0.6-2.7c0-0.2-0.2-0.3-0.3-0.4c-0.2-0.1-0.3,0-0.5,0.1l-1.1,0.8l-2.4-1.5l-1.7-0.7l1-1.5
		l4.5-3.6l1.8-1.9c0.1-0.1,0.1-0.2,0.1-0.3l0.4-3.4c0-0.1,0-0.2-0.1-0.3l-1.3-2.5c0-0.1-0.1-0.1-0.1-0.1l-3.7-3.4
		c-0.1-0.1-0.2-0.1-0.3-0.1l-4.8-0.1c-0.1,0-0.3,0.1-0.4,0.2l-1.1,1.2l-0.4-2.9c0-0.2-0.2-0.4-0.3-0.4l-3.2-1l1.7-1.4
		c0.1-0.1,0.2-0.2,0.2-0.4c0-0.1-0.1-0.3-0.2-0.4l-2.6-2.3c-0.2-0.2-0.4-0.2-0.6,0l-3.8,3.1c-0.1,0-0.1,0.1-0.1,0.2l-1.6,3.1
		c0,0,0,0.1,0,0.1l-0.4,2.9l-2.7-0.1c-0.1,0-0.3,0-0.4,0.1l-3.5,3.5l-1.1-1.3c-0.1-0.1-0.3-0.2-0.4-0.2l-4.2,0.6
		c-0.2,0-0.3,0.2-0.4,0.3l-0.5,1.6l-4.2,0.9c-0.1,0-0.2,0.1-0.3,0.1l-3.2,3.2l-1.7,0.2c-0.2,0-0.3,0.1-0.4,0.3l-1.9,4
		c-0.1,0.1-0.1,0.3,0,0.4l1.2,2.8l-3.2,0.7l-4-0.3c-0.1,0-0.2,0-0.2,0l-2.8,1.1c-0.2,0.1-0.3,0.3-0.3,0.5l0.2,6c0,0,0,0.1,0,0.1
		l1.1,3.4l-2.2-2.2c-0.1-0.1-0.2-0.2-0.4-0.1l-3.3,0.3c-0.1,0-0.2,0-0.3,0.1l-2.7,2c-0.1,0.1-0.2,0.3-0.2,0.5l0.6,3.1l-1.1-0.6
		l0.6-5c0-0.1,0-0.1,0-0.2l-0.8-2.9c-0.1-0.2-0.3-0.4-0.5-0.4l-0.5,0.1c-0.3,0-0.4,0.3-0.4,0.5l0.4,3.7l-2.9,3.4
		c-0.1,0.2-0.1,0.4-0.1,0.5l2.1,4l-1.3,4.8c0,0.1,0,0.1,0,0.2l0.4,2.5c0,0.2,0.2,0.4,0.4,0.4l1.4,0.3l-0.7,2.7c0,0.1,0,0.2,0,0.3
		l0.9,2.4l-1.3,1.9c0,0.1-0.1,0.1-0.1,0.2l-0.4,2l-1.7,1c-0.1,0.1-0.2,0.1-0.2,0.2l-0.5,1.2l-1.3-0.4l3.1-5.8c0,0,0-0.1,0-0.1
		l0.7-2.9c0-0.1,0-0.3-0.1-0.4l-1.8-2.7l0.4-6.6c0,0,0-0.1,0-0.1l-0.5-3.5c0-0.1,0-0.1-0.1-0.2l-0.9-1.5l1.5-4.2c0-0.1,0-0.1,0-0.2
		l-0.3-2.9c0-0.2-0.2-0.3-0.3-0.4l-4.2-1.4c-0.2-0.1-0.4,0-0.5,0.1l-1.1,1c-0.1,0.1-0.1,0.2-0.2,0.3l-1.1,4.9l-3,4.7
		c-0.1,0.1-0.1,0.2-0.1,0.3l0.1,1.7l0.9,3.8l-0.5,2c0,0.1,0,0.3,0.1,0.4c0.1,0.1,0.2,0.2,0.3,0.2l1.6,0.4l0,0.7c0,0.1,0,0.2,0.1,0.3
		l1.6,2.3l-0.9,1.9l-5.9-5.1l-2.3-1.5c0,0-0.1,0-0.1-0.1l-4.8-1.4c-0.2-0.1-0.5,0-0.6,0.2l-0.7,1.4c-0.1,0.2-0.1,0.4,0,0.5l1.6,2.5
		l-1.6,2.5l-1.6-2.2c-0.1-0.1-0.2-0.2-0.3-0.2c-0.1,0-0.3,0-0.4,0.1l-2.3,1.7l-3,0.1c-0.1,0-0.3,0.1-0.4,0.2l-1,1.3l-1.5-0.3
		l1.3-2.2c0.1-0.1,0.1-0.3,0-0.5c-0.1-0.1-0.2-0.3-0.4-0.3l-0.9-0.2c-0.1,0-0.3,0-0.4,0.1l-5.8,3.9l-3.4,2.1
		c-0.1,0.1-0.2,0.2-0.2,0.3l-0.4,2.5l-2.3,0.8l-1.1-1.2l0-2.1l1.7-0.4c0.1,0,0.3-0.1,0.3-0.3c0.1-0.1,0.1-0.3,0-0.4l-0.8-2.2
		c-0.1-0.1-0.2-0.2-0.3-0.3l-4.2-1.3c-0.2-0.1-0.4,0-0.5,0.1c-0.1,0.1-0.2,0.3-0.1,0.5l1,2.3l-0.8,2.5c0,0.1,0,0.3,0,0.4l1.3,2.4
		l-0.8,2.3l-1.2-1.1c-0.1-0.1-0.2-0.1-0.3-0.1l-1.4-0.2c-0.2,0-0.3,0-0.4,0.1l-3.8,3.9c-0.1,0.1-0.2,0.3-0.1,0.5l1,2.6l-1.1,0.7
		l-3.8-2.3c-0.2-0.1-0.5-0.1-0.7,0.1l-0.9,1.2c-0.1,0.2-0.1,0.4,0,0.5l0.9,1.5l-0.1,1.3l-1-0.7l-2-1.1l-0.1-3.9l-0.1-1.8
		c0-0.1-0.1-0.2-0.1-0.3l-2.4-2.7L347,69l7.3,3.1c0.1,0.1,0.3,0.1,0.4,0l2.6-1.1c0.1,0,0.1-0.1,0.2-0.1l1.8-2.1
		c0.1-0.1,0.1-0.2,0.1-0.3l-0.1-2.8c0-0.1,0-0.2-0.1-0.2l-1.2-2c0,0-0.1-0.1-0.1-0.1l-6.3-5.1c-0.1,0-0.1-0.1-0.2-0.1l-4.5-1.1
		l-2.6-2.7c-0.1-0.1-0.2-0.2-0.3-0.2c-0.1,0-0.3,0-0.4,0.1l-1.3,1.3l-1.5-2.5l1.7-1c0.1-0.1,0.2-0.2,0.2-0.4c0-0.2-0.1-0.3-0.2-0.4
		l-4.9-3.5c-0.1-0.1-0.3-0.1-0.4-0.1l-2.9,1l-2.9-0.2c-0.2,0-0.4,0.1-0.5,0.2l-2.4,3.9l-2.5-0.2c-0.1,0-0.2,0-0.3,0.1l-3.6,2.1
		c-0.1,0-0.1,0.1-0.1,0.1l-4.6,5.9l-2.8,3.4c0,0,0,0.1-0.1,0.1l-4,8.2l-3,5.5l-3.3,3.9l-4.4,3.1c-0.1,0-0.1,0.1-0.1,0.1l-1.5,2.2
		c-0.1,0.1-0.1,0.2-0.1,0.3l0.5,7.9l0.6,3.4c0,0.1,0.1,0.2,0.2,0.3l2.2,1.5c0.1,0.1,0.2,0.1,0.3,0.1c0.1,0,0.1,0,0.2,0l2.1-0.7
		c0.1,0,0.2-0.1,0.2-0.1l3-3.4l0.7,1.3c0,0.1,0.1,0.2,0.2,0.2c0,0.1,0,0.1,0,0.2l1.3,4.5l1.4,3.4l0.1,0.5c0,0-0.1-0.1-0.1-0.1
		c-0.1-0.1-0.3-0.1-0.4,0l-2.1,0.9c-0.2,0.1-0.3,0.3-0.3,0.5l0.2,1c0,0.1,0.1,0.2,0.1,0.3l1.5,1.4c0.1,0.1,0.2,0.1,0.3,0.1
		c0,0,0.1,0,0.1,0c0.2,0,0.3-0.1,0.4-0.3l0.7-1.7l0,0.1c0,0.2,0.2,0.4,0.5,0.4c0,0,0,0,0,0l1.6-0.1c0.2,0,0.4-0.1,0.4-0.3l0.8-2
		l1.7,0.2c0.2,0,0.5-0.1,0.5-0.3l0.9-2.7c0,0,0-0.1,0-0.1l0.6-5.1l1.5-0.7c0.1-0.1,0.2-0.1,0.3-0.3l1.5-3.6c0.1-0.2,0-0.4-0.1-0.5
		l-1.5-1.7l-1.2-2.3l1.2-4.9l3.2-3.2l2.6-3c0.1-0.1,0.1-0.2,0.1-0.4l-0.2-2.2l1.5-2.6l2.6-1.1c0,0,0,0,0,0l2.1,1.8l0.2,1.4l-1.1,0.8
		l-3.9,4.3l-1.5,2.3c0,0,0,0.1,0,0.1l-0.8,2.1c0,0.1,0,0.2,0,0.3l0.8,3.1l-0.4,3.3c0,0.2,0.1,0.4,0.2,0.5l1.5,1l0.9,1.6
		c0.1,0.2,0.3,0.3,0.4,0.3c0,0,0.1,0,0.1,0l2.7-0.7l2.9-1.2l2.9-0.3c0,0,0,0,0,0l1.4,1.3l-1.6,1.5c0,0,0,0,0,0c0,0,0,0,0,0l-1.5,0.1
		l-1.7-0.5c-0.1,0-0.2,0-0.3,0l-2.2,0.5l-2,0.8c-0.2,0.1-0.3,0.3-0.3,0.5l0.1,1.7c0,0.1,0.1,0.2,0.1,0.3l0.9,1
		c0.2,0.2,0.4,0.2,0.6,0.1l-0.1,0.9c0,0.1,0,0.2,0,0.2c0,0.1-0.1,0.1-0.1,0.2l-0.3,2l-0.9,0l-1.1-2c-0.1-0.1-0.2-0.2-0.3-0.2
		c-0.1,0-0.3,0-0.4,0.1l-1.4,0.9c-0.1,0.1-0.1,0.1-0.2,0.2l-0.8,1.9c0,0.1,0,0.1,0,0.2l-0.1,1.9c0,0.1,0,0.2,0.1,0.3
		c0,0.1-0.1,0.2,0,0.3l0.3,2.1l-2,0.8c-0.1,0.1-0.2,0.2-0.3,0.3l-0.3,1c0,0,0,0,0,0l-1.2,0l-0.1-0.4c0-0.2-0.2-0.3-0.3-0.4l-1.5-0.4
		c-0.1,0-0.2,0-0.3,0l-2.1,1l-2.7,1.4l-0.9,0.7l-0.6-0.7c0,0-0.1-0.1-0.1-0.1l-1.8-1c-0.2-0.1-0.4-0.1-0.6,0l-0.8,0.7l-1.3,0.4
		l0-0.5c0-0.2-0.1-0.4-0.3-0.5l-1.4-0.6l0-0.6c0-0.1,0-0.2-0.1-0.3c0-0.1,0-0.2,0-0.3l-0.4-1.1l1-1.8l0,0c0.1,0.1,0.3,0.1,0.4,0.1
		c0.1,0,0.3-0.2,0.3-0.3l0.3-0.7c0.1-0.2,0-0.5-0.2-0.6l-0.6-0.3l-0.1-0.6l0.4-0.9c0-0.1,0-0.1,0.1-0.2l0-1.2c0-0.2-0.1-0.4-0.2-0.4
		c-0.2-0.1-0.4-0.1-0.5,0l-1,0.6c-0.1,0-0.1,0.1-0.1,0.1l-0.5,0.7l-1.3,0.2c-0.2,0-0.3,0.1-0.4,0.3l-0.5,0.9l-0.3,0.8
		c0,0.1,0,0.1,0,0.2l0,3c0,0.1,0,0.1,0,0.2l0.6,1.5c0,0,0,0.1,0.1,0.1c0,0.1,0,0.1,0,0.2l0.1,1.3c0,0,0,0.1,0,0.1l0.3,0.9l-0.8,0.9
		l0-0.1c-0.1-0.2-0.3-0.3-0.5-0.3l-1.2,0.1c-0.2,0-0.3,0.1-0.4,0.3l-0.2,0.3l-1.2-0.1c-0.1,0-0.2,0-0.3,0.1l-2.2,1.1
		c-0.1,0.1-0.2,0.2-0.2,0.3l-1.4,3.9l-0.5,0.4c-0.1,0.1-0.1,0.1-0.1,0.2c0,0-0.1,0-0.1,0l-1.1,0.4c-0.1,0-0.1,0.1-0.2,0.1
		c-0.1,0-0.1,0-0.2,0l-1.2,0.4c-0.2,0.1-0.3,0.2-0.3,0.4l-0.4,1.9l-3.6,1.9l-1-0.7c-0.2-0.1-0.4-0.1-0.5,0c-0.2,0.1-0.3,0.3-0.2,0.5
		l0.4,2l-2.4-0.5c-0.1,0-0.2,0-0.2,0l-2,0.5c-0.2,0.1-0.4,0.3-0.4,0.5l0.1,1.5c0,0.2,0.1,0.3,0.3,0.4l2.4,0.9l1.1,1.1l1.7,2.5
		l-0.3,4.6l-0.7,1.2l-2.6-0.1l-1.3,0.1l-1.8-0.4c0,0-0.1,0-0.1,0l-2.2,0l-2-0.4c-0.1,0-0.3,0-0.4,0.1l-2.1,1.5
		c-0.2,0.2-0.3,0.5-0.1,0.7l0.5,0.8l-0.1,1c0,0.1,0,0.2,0.1,0.3c-0.1,0.1-0.1,0.2-0.1,0.3l0.1,0.6c0,0,0,0.1,0,0.1l0.3,0.7l0,0.8
		l-0.4,1.4l-0.1,0.8l-0.6,0.7c-0.1,0.1-0.1,0.2-0.1,0.3l-0.1,1.3c0,0.1,0,0.2,0,0.3l0.3,0.7c0.1,0.1,0.2,0.2,0.3,0.3l0.5,0.1l0.1,1
		l-0.2,1.3c0,0.2,0,0.3,0.2,0.4c0.1,0.1,0.3,0.2,0.5,0.1l0.5-0.1l0.7,0.2c0.1,0,0.1,0,0.2,0c0.1,0,0.2,0,0.3-0.1l0.5-0.4l1.3,0.3
		l0.4,1c0,0.1,0.1,0.1,0.1,0.1l0.6,0.6c0.1,0.1,0.2,0.1,0.2,0.1c-0.2,0-0.3,0.1-0.4,0.3l-0.5,1.1l-1.1,2.1l-1.2,0.8l-1.7,0.9
		c-0.1,0-0.1,0.1-0.1,0.1l-1,1.3c0,0.1-0.1,0.1-0.1,0.2l-0.2,0.9l-0.6,1.7c0,0.1,0,0.2,0,0.3l0.4,2.2l-1.2,1.4l-0.8,0.5
		c0,0-0.1,0-0.1,0.1l-1.2,1.2l-1.4,0.2c-0.1,0-0.2,0.1-0.3,0.1l-0.3,0.3c-0.1,0.1-0.1,0.2-0.2,0.3c-0.1,0-0.2,0-0.3,0.1
		c0,0-0.1,0.1-0.1,0.1l-1,1.8l-1,0.6c-0.1,0-0.1,0.1-0.2,0.2l-0.6,1.1c0,0.1-0.1,0.1-0.1,0.2l0,0.9l-0.4,0.9l-0.4,0.2
		c-0.1,0-0.1,0.1-0.2,0.1l-0.9,1.1c0,0,0,0.1-0.1,0.1l-0.5,1.2c0,0.1-0.1,0.2,0,0.3l0.1,0.4l-0.5,0.8l-0.5,0.4
		c-0.1,0.1-0.2,0.2-0.2,0.3l-0.1,0.7c0,0.1,0,0.3,0.1,0.4l-0.1,0.2c-0.1,0.2-0.1,0.5,0.1,0.6l0.7,0.6l0.4,0.7l-0.1,0.7
		c0,0.1,0,0.1,0,0.2l0.2,0.8l0.2,1.7l-0.2,1.6l-0.4,0.8c-0.1,0.1-0.1,0.2-0.1,0.3l0.1,0.5c0,0.1,0.1,0.2,0.1,0.2c0,0,0,0,0,0
		l-0.3,0.8l-0.8,1.2l-0.3,0.2c-0.2,0.1-0.3,0.2-0.3,0.4c0,0.2,0.1,0.3,0.2,0.5l0.5,0.4l0.6,1.2c0,0,0,0,0,0c0,0,0,0,0,0l-0.1,0.4
		c0,0.1,0,0.2,0,0.3c-0.1,0.1-0.1,0.2-0.1,0.3l0.2,0.8c0,0.1,0.1,0.1,0.1,0.2c0,0.1,0,0.2,0,0.2l0,0.1c0,0.1,0.1,0.2,0.2,0.3
		l0.3,0.2l0,0c0,0.1,0,0.2,0.1,0.3l0.3,0.4c0.1,0.1,0.2,0.2,0.3,0.2l0.6,0.1l0.7,0.5c0.1,0.1,0.1,0.1,0.2,0.1c0,0.1,0.1,0.1,0.2,0.2
		l0.2,0.1l0.2,0.2l0.2,0.7c0,0.1,0.1,0.2,0.2,0.3l0.4,0.3c0,0,0.1,0,0.1,0.1l0.3,0.2l0.6,0.6l0.6,0.9c0,0,0.1,0.1,0.1,0.1
		c0,0,0,0,0,0.1l0.2,1.1c0,0,0,0.1,0,0.1l0.3,0.6c0,0,0.1,0.1,0.1,0.1l0.8,0.9c0,0,0.1,0.1,0.1,0.1l1.2,0.7c0,0,0.1,0,0.1,0l0.3,0.1
		c0,0,0.1,0,0.1,0c0,0,0,0.1,0.1,0.1l1.1,1l1.4,0.9l1.5,1.3c0,0,0.1,0.1,0.1,0.1l1.7,0.8c0.1,0,0.1,0,0.2,0c0,0,0,0,0,0l0.2,0
		c0.1,0,0.1,0,0.2-0.1c0.1,0,0.1,0.1,0.2,0.1c0,0,0,0,0.1,0c0.1,0,0.1,0,0.2,0l1.6-0.6l1.1-0.5l1.9-0.3l1,0l1.1,0.3c0,0,0.1,0,0.1,0
		l0.6,0c0,0,0.1,0,0.1,0c0,0,0.1,0,0.1,0.1l1.3,0.4c0,0,0.1,0,0.1,0c0.1,0,0.1,0,0.1,0l1.5-0.5c0,0,0.1,0,0.1-0.1l0.8-0.5l2.4-0.9
		c0.1,0,0.1-0.1,0.2-0.1c0,0,0,0,0.1,0c0,0,0.1,0,0.1,0l1-0.3c0.1,0,0.1-0.1,0.2-0.1c0,0,0.1,0,0.1,0c0,0,0,0,0.1,0l1.1-0.2
		c0.1,0,0.1,0,0.2-0.1c0.1,0,0.1,0,0.2,0c0,0,0,0,0,0l2.4,0l1.1,1l0.5,1.1c0,0,0,0.1,0.1,0.1l0.8,1c0.1,0.1,0.2,0.2,0.4,0.2l1.2,0
		c0,0,0,0,0,0c0.1,0,0.2,0,0.2-0.1l0.5-0.3l0.5,0.1c0.1,0,0.2,0,0.2,0l1.3-0.5c0,0.2,0.1,0.3,0.2,0.4l0.2,0.1l0.3,0.6
		c0.1,0.1,0.2,0.2,0.3,0.3l0.6,0.2l0.6,0.9l-0.2,1c0,0.1,0,0.1,0,0.2c0,0.1-0.1,0.1-0.1,0.2l-0.5,1.6c-0.1,0.2,0,0.4,0.2,0.5l0.1,0
		l-0.3,1l-0.4,1.2l-0.3,0.5c0,0.1-0.1,0.1-0.1,0.2l0,0.4c0,0.1,0,0.2,0.1,0.3l1,1.7l1.1,1.4l1.6,1.6c0,0,0.1,0.1,0.1,0.1
		c0,0.1,0,0.1,0.1,0.2l1.1,1.4c0,0,0.1,0.1,0.1,0.1c0,0,0,0.1,0,0.1l0.3,0.9c0,0.1,0.1,0.1,0.1,0.2c0,0.1,0,0.2,0,0.2l0.1,0.2
		c0,0,0,0,0,0l-0.1,0.1c-0.1,0.2-0.1,0.4,0.1,0.5l0.7,0.9l0.8,2.6l-0.4,0.5c0,0.1-0.1,0.1-0.1,0.2l-0.1,0.3c0,0.1,0,0.2,0,0.3l0.8,2
		c0,0,0,0.1,0.1,0.1l0.4,0.5l0.1,0.8l-0.2,1.2l-0.5,0.7l-1,1.2l-0.4,0.8l-0.5,1.5c0,0,0,0.1,0,0.1l-0.1,0.6l-0.6,1.7l-0.2,1.5
		c0,0,0,0.1,0,0.1l0.1,0.8c0,0.1,0,0.2,0.1,0.2c0,0.1,0,0.1,0,0.2l0.1,1.1c0,0.1,0,0.2,0.1,0.3l1.3,1.6l0.4,1.1l0.9,2.2l0.9,1.5
		l0.6,0.7l0.2,0.8l0,2.3l0.6,2.8l0.4,1.3l0.4,1.8c0,0,0,0.1,0,0.1l0.6,1.3c0,0,0,0.1,0.1,0.1l1.1,1.2c0,0.1,0.1,0.1,0.2,0.1
		c0,0,0,0.1,0,0.1l1.2,2.4l0.9,1.7l1.1,1.8l0,1.3l-0.3,0.2c-0.2,0.1-0.3,0.4-0.2,0.6l0.5,1.1l0,1.1c0,0.1,0,0.1,0,0.2l0,0.1
		c0.1,0.2,0.2,0.3,0.4,0.3l0.6,0.7c0.1,0.1,0.2,0.2,0.4,0.2l0.4,0l0.6,0.6c0.1,0.1,0.2,0.1,0.4,0.1c0,0,0,0,0,0l0.6,0
		c0.1,0,0.2,0,0.3-0.1l0.9-0.7l1.4-0.3c0,0,0.1,0,0.1,0l1.6-0.7l0.6,0.1c0.1,0,0.1,0,0.2,0l0.9-0.2l1.7,0.4c0.1,0,0.2,0,0.3,0
		l0.7-0.3l0.7,0.2c0.2,0.1,0.5-0.1,0.6-0.3l0.1-0.2l0.7-0.1c0,0,0.1,0,0.1,0l1.7-0.8c0,0,0.1,0,0.1,0l1.3-0.9l1.2-1.2l1.9-2.1l1-1.4
		l0.4-0.9l0.7-1l1.4-1.2c0,0,0.1-0.1,0.1-0.1l0.4-0.8c0-0.1,0-0.1,0-0.2l0.2-1.5l0.3-1.1c0-0.1,0-0.2,0-0.2c0.1-0.1,0.1-0.1,0.1-0.2
		l0.1-0.6c0-0.2-0.1-0.5-0.3-0.5l-0.1,0l-0.1-0.5l0.6-0.5l2-1l1.4-0.6c0,0,0.1-0.1,0.1-0.1l0.6-0.6c0.1-0.1,0.1-0.1,0.1-0.2l0.2-0.6
		c0.1-0.2,0-0.4-0.2-0.5l-0.1-0.1l0.2-0.6c0,0,0-0.1,0-0.1l0-1.5c0-0.2-0.1-0.3-0.2-0.4c0,0-0.1,0-0.1-0.1l0-0.3c0,0,0-0.1,0-0.1
		l-0.3-1c0,0,0-0.1,0-0.1l-0.7-1.2l0.1-1l0.5-0.3c0,0,0.1-0.1,0.1-0.1l1.1-1.2l0.6-0.3c0,0,0.1-0.1,0.1-0.1l1.8-1.8l3.4-1.5
		c0.1,0,0.1-0.1,0.2-0.1l1-1c0,0,0.1-0.1,0.1-0.1l0.7-1.2l0.5-1.2c0-0.1,0-0.2,0-0.3l-0.3-0.7l-0.1-2.7l-0.2-1.4l0.1-1.7
		c0-0.1,0-0.1,0-0.2l-0.2-0.5c0-0.1-0.1-0.2-0.3-0.3c0-0.1-0.1-0.2-0.2-0.3l-0.3-0.2l-0.7-1.6l-0.5-1l0.1-0.7c0-0.1,0-0.1,0-0.2
		l-0.1-0.4l0.4-0.9c0-0.1,0.1-0.2,0-0.3l0-0.3c0-0.2-0.1-0.3-0.2-0.4l-0.9-0.5l-0.1-0.7l0.7-1.9c0,0,0-0.1,0-0.1c0,0,0,0,0.1,0
		l0.5-0.4c0.1-0.1,0.1-0.1,0.2-0.2l0.3-1l0.5-0.6c0-0.1,0.1-0.1,0.1-0.2l0.2-0.9l0.4-0.1c0.1,0,0.3-0.1,0.3-0.2l0.3-0.6l0.9-0.5
		c0.1,0,0.1-0.1,0.2-0.2c0.1,0,0.2-0.1,0.2-0.1l0.2-0.2c0,0,0.1-0.1,0.1-0.1l0.3-0.8l1.8-2l1.5-1.3l2.6-1.7l1.7-1.4l2-2.3l1.5-1.9
		l1.5-2.5l1-2.2l0.8-2l0.4-1.7l0.3-0.6c0-0.1,0.1-0.2,0.1-0.3l0-0.8l0.2-1c0,0,0-0.1,0-0.1l0-0.3c0-0.3-0.2-0.4-0.5-0.4c0,0,0,0,0,0
		l-0.4,0c-0.1,0-0.2,0-0.3,0.1l-0.7,0.5l-0.9,0.2l-0.7,0.2l-1.4,0.1c-0.1,0-0.1,0-0.2,0.1l-0.5,0.3l-0.8,0.1c0,0-0.1,0-0.1,0
		l-1.4,0.5l-1.9,0.2l-1.5,0.4l-0.7,0l-0.6-0.6l-0.3-0.6c0-0.1-0.1-0.2-0.2-0.2l-0.3-0.2c-0.1,0-0.1-0.1-0.2-0.1
		c0-0.1-0.1-0.1-0.1-0.1l-0.1-0.1l0.3-0.1c0.2-0.1,0.3-0.2,0.3-0.4l0-0.5c0-0.1,0-0.2-0.1-0.3c0.1,0,0.1,0.1,0.2,0.1l1,0.1
		c0,0,0,0,0,0c0.1,0,0.1,0,0.2,0l0.4-0.2l0.6,0c0.2,0,0.4-0.1,0.4-0.2l0.1-0.2l0.3-0.1c0.1,0,0.2-0.1,0.2-0.2l0.3-0.3l1.7-0.2
		c0,0,0.1,0,0.1,0l1-0.3c0.1,0,0.1,0,0.1-0.1l0.9-0.6l0.3,0.1c0.1,0,0.1,0,0.2,0l0.6-0.1c0.1,0,0.2,0,0.2-0.1l1.4-1.1l2.7-0.8
		l1.5-0.7c0.2-0.1,0.3-0.2,0.3-0.4l0-0.4l0.3-0.7l0.9-0.4c0.1,0,0.1-0.1,0.1-0.1c0,0,0,0,0.1,0c0,0,0,0,0.1,0l0.6-0.1
		c0.1,0,0.1,0,0.2-0.1l1-0.5l0.8,0.1c0.1,0,0.2,0,0.3-0.1l0.7-0.4c0.1-0.1,0.2-0.3,0.2-0.4l0-0.4l0.5-0.3l0.9,0c0.1,0,0.3,0,0.3-0.1
		l0.3-0.3c0.1-0.1,0.1-0.2,0.1-0.3l0.1-0.7l0.9-0.5l0.6,0c0,0,0,0,0,0c0.2,0,0.4-0.1,0.4-0.3c0.1-0.1,0.1-0.2,0.1-0.4l-0.2-1
		l0.2-0.8l0.2-0.3l0.5,0.1c0.2,0,0.4-0.1,0.5-0.3l0.5-1l0.6-0.5c0,0,0.1-0.1,0.1-0.1l0.8-1.5c0-0.1,0.1-0.2,0.1-0.2l0-0.2
		c0-0.2-0.1-0.4-0.3-0.5l-0.4-0.1l-1.1-1.5c-0.1-0.1-0.1-0.1-0.2-0.2l-1-0.3l-1.2-0.2l-0.8-0.6l-0.7-1.1c0,0,0,0-0.1-0.1
		c0-0.1,0-0.1,0-0.2l-0.2-1.2c0.1,0,0.1-0.1,0.2-0.2l0,0c0,0,0-0.1,0.1-0.1l0.1-0.5c0-0.2-0.1-0.5-0.3-0.5c-0.2-0.1-0.5,0-0.6,0.1
		l-0.2,0.3c0,0.1-0.1,0.1-0.1,0.2c-0.1,0-0.1,0.1-0.2,0.1l-0.8,0.9l-1.3,1.2l-1.1,1.1l-2.3-0.1c0,0-0.1,0-0.1,0L377,179c0,0,0,0,0,0
		l0-0.1c0,0,0-0.1,0-0.1l-0.2-0.5c0,0,0,0,0,0c0,0,0,0,0,0l0.3-1c0-0.1,0-0.1,0-0.2l0-1c0-0.1,0-0.2-0.1-0.3l-0.4-0.4
		c-0.1-0.2-0.4-0.2-0.6-0.1l-0.3,0.1c-0.1,0-0.2,0.1-0.2,0.2l-0.4,0.9c0,0,0,0.1,0,0.1l-0.3-0.4l-0.2-0.5l0.1-0.5c0-0.1,0-0.1,0-0.2
		l-0.1-0.6c0-0.1-0.1-0.3-0.2-0.3l-1-0.7l-0.2-0.5c0-0.1-0.1-0.2-0.2-0.2l-0.7-0.3l-0.6-1.4c0-0.1-0.1-0.1-0.1-0.1
		c0-0.1,0-0.2,0-0.2l-0.4-1.1l0.1-0.3c0-0.1,0-0.2,0-0.3l-0.1-0.3c0.1,0,0.2,0,0.3-0.1c0.1,0,0.1,0.1,0.2,0.1c0.1,0,0.3-0.1,0.4-0.2
		l0.3-0.4l0.8,0.5c0.1,0.1,0.3,0.1,0.4,0l0.6-0.2l1.2,2.4l1.1,1.7c0.1,0.1,0.2,0.2,0.3,0.2l1.5,0.5l1.6,1.4c0.1,0,0.1,0.1,0.2,0.1
		l1.9,0.6c0.1,0,0.3,0,0.4,0l1.6-0.8l1.2-0.3l0.6,0.2l0.6,2c0.1,0.2,0.2,0.3,0.4,0.3l1.7,0.2l1.9,0.4l3,0.5c0,0,0.1,0,0.1,0
		c0.1,0,0.1,0,0.2-0.1c0.1,0,0.2,0.1,0.3,0.1l2-0.2l2.8,0l2.9-0.3l1.2,1.3l0.5,1.2c0.1,0.1,0.2,0.2,0.3,0.3l1,0.4c0,0,0.1,0,0.1,0
		c0,0,0.1,0.1,0.1,0.1l1.7,1.4l0.3,0.5l-0.4,0.3c-0.1,0.1-0.2,0.2-0.2,0.4c0,0.1,0,0.3,0.1,0.4l2,2c0.1,0.1,0.2,0.1,0.3,0.1l1.1,0.2
		c0.1,0,0.2,0,0.3,0l2.1-0.9l0.2,1.2l0,2.2c0,0,0,0.1,0,0.1l1.2,5.6c0,0.1,0,0.1,0.1,0.2l1.5,2.3l0.3,1l0.4,2.1c0,0,0,0.1,0.1,0.1
		l0.9,1.7l0.5,0.7l0.6,1.7l0.8,2.3c0,0.1,0.1,0.1,0.1,0.2l1.4,1.4c0.1,0.1,0.2,0.1,0.3,0.1c0.1,0,0.2,0,0.3-0.1l0.5-0.4
		c0.1,0,0.1-0.1,0.2-0.2l0.5-1l1.1-0.3c0.2-0.1,0.3-0.2,0.3-0.3c0-0.2,0-0.3-0.1-0.5l-0.2-0.2l0.6-1l0.5-0.1c0.3,0,0.4-0.2,0.4-0.5
		l0-2.7l0.7-1.5c0-0.1,0-0.1,0-0.2l-0.1-1.4l-0.3-2.2l0.4-1.1l0.6-0.1c0,0,0.1,0,0.1,0l1.5-0.6l0.7-0.4c0.2-0.1,0.3-0.3,0.3-0.4
		v-0.5l1.6-1.1l1.3-1.1l1.8-2l2.3-1.2c0.1,0,0.1-0.1,0.2-0.1l0.8-1c0.1-0.1,0.1-0.2,0.1-0.4l-0.1-1l1.7-0.3l1,0
		c0.2,0,0.4-0.1,0.5-0.3l0.1-0.3l0.3,0.1l0.4,0.1c0.2,0.1,0.4,0,0.6-0.2l0,0l0.3,0.2c0.2,0.1,0.5,0,0.7-0.2l0.4-0.8
		c0.1-0.1,0.1-0.2,0-0.3l-0.1-0.3l1,0l0.6,0.9l0.3,0.8l0.1,0.9c0,0.1,0,0.1,0.1,0.2c0.1,0.1,0.2,0.2,0.4,0.2l0,0.5
		c0,0.1,0,0.2,0.1,0.3l1.1,1.4c0.1,0.1,0.2,0.1,0.3,0.2l0.6,0.1l-0.1,0.3c0,0.1,0,0.3,0.1,0.4l1.2,1.9l0.3,1.5l-0.5,1.9
		c-0.1,0.2,0.1,0.5,0.3,0.6l0.9,0.3c0,0,0.1,0,0.1,0l0.8,0.1c0.1,0,0.2,0,0.3-0.1l1.9-1.2l0.8-0.6l0.5,1l0.3,2.3l0.5,2
		c0,0.1,0,0.1,0.1,0.2l0.6,0.8l-0.1,1.7c0,0.1,0,0.2,0.1,0.3l0.5,0.8l-0.4,1.1c0,0.1,0,0.2,0,0.2l0.1,0.5c0,0.1,0.1,0.2,0.2,0.3
		l-0.1,0.3l-0.5,1.7l-0.2,1c0,0.1,0,0.2,0,0.2l0.1,0.3c0.1,0.2,0.3,0.3,0.5,0.3c0.2,0,0.3-0.1,0.4-0.3l1.3,1.4l0.3,0.7
		c0,0.1,0.1,0.1,0.1,0.2l0.5,0.5c0,0,0.1,0.1,0.1,0.1c0,0,0,0.1,0,0.1l0.3,0.5l-0.2,1.1c0,0.1,0,0.2,0.1,0.3l0.5,0.8l0.2,1.3
		c0,0.1,0.1,0.2,0.1,0.2l0.9,1l0.2,0.7c0,0.1,0.1,0.2,0.2,0.3l1.9,1.3l1.5,1.2c0.1,0.1,0.2,0.1,0.3,0.1c0,0,0,0,0,0l0.9-0.1
		c0.2,0,0.4-0.2,0.4-0.5l0-0.3c0-0.1,0-0.2,0-0.2l-0.6-1.4c0-0.1-0.1-0.1-0.1-0.2l-0.5-0.4l-0.1-0.9l-0.1-0.5l0.2-0.7
		c0,0,0-0.1,0-0.2l-0.1-1c0-0.1,0-0.2-0.1-0.2l-0.7-1.1c0,0,0-0.1-0.1-0.1l-0.9-1c0,0-0.1-0.1-0.2-0.1l-0.2-0.1c0,0-0.1,0-0.1,0
		c0,0,0-0.1-0.1-0.1l-0.7-0.7c-0.1-0.1-0.2-0.1-0.3-0.1l-0.9-0.2l-0.8-0.8l-0.3-1.4c0,0,0-0.1,0-0.1l-0.6-1.4
		c-0.1-0.2-0.2-0.3-0.4-0.3l-0.7,0l-0.1-0.9l1.4-3.9c0,0,0-0.1,0-0.1l0.1-1.6l0.9,0l-0.1,0.8c0,0.1,0,0.3,0.1,0.4
		c0.1,0.1,0.2,0.2,0.4,0.2l1.1,0l1.1,0.6c0.1,0,0.2,0.1,0.2,0c0,0,0,0,0,0l0.8,1.7c0,0,0,0.1,0.1,0.1l0.6,0.8
		c0.1,0.1,0.2,0.2,0.3,0.2l1.3,0.2c0,0,0.1,0,0.1,0c0,0.1,0.1,0.1,0.1,0.1l0.8,0.6l-0.4,0.9c-0.1,0.1,0,0.3,0,0.4l0.5,0.8
		c0.1,0.1,0.2,0.2,0.3,0.2c0,0,0.1,0,0.1,0c0.1,0,0.2,0,0.3-0.1l2-1.5l1.3-1.3l2-1.1l1.3-1.1c0.1-0.1,0.2-0.2,0.2-0.3l0.2-2.9
		c0-0.1,0-0.1,0-0.2l-0.8-3.1c0-0.1,0-0.1-0.1-0.2l-1-1.3c0,0-0.1-0.1-0.1-0.1l-1.5-1l-2.8-4l0.3-1l1.3-1.6l1.9-1.3
		c0.1-0.1,0.1-0.1,0.2-0.2c0.1,0,0.1,0,0.2,0l0.7-0.2l1.8,0.5l-0.2,0.3c-0.1,0.1-0.1,0.3,0,0.4l0.4,1.1c0,0.1,0.1,0.2,0.3,0.3
		l-1.2,0.3c-0.1,0-0.2,0.1-0.2,0.1l-0.7,0.7c-0.1,0.1-0.2,0.2-0.1,0.4l0,1.3c0,0.2,0.1,0.4,0.3,0.4l1.2,0.5c0.1,0,0.1,0,0.2,0
		c0.1,0,0.2,0,0.2-0.1l1.3-0.8c0.1-0.1,0.2-0.1,0.2-0.2l0.3-0.9l0.6-0.6c0.1-0.2,0.2-0.4,0.1-0.6l-0.3-0.5c-0.1-0.1-0.2-0.2-0.4-0.3
		l-0.3,0c0.1-0.1,0.1-0.1,0.1-0.2l0.5-1.6l1.6-0.2c0,0,0.1,0,0.1,0l2.3-0.9c0.1,0,0.1-0.1,0.2-0.1l0.7-0.7l0.3,0.3
		c0.2,0.2,0.5,0.2,0.7,0l0.8-0.6l1.8-0.2c0.1,0,0.2,0,0.2-0.1l2.3-1.5l2.3-1.7c0,0,0.1-0.1,0.1-0.1l1.6-2.2l1.3-2.4l1.2-1.9l0.7-0.1
		c0.2,0,0.3-0.2,0.4-0.4l0.4-1.4l0.2-1.4c0-0.2-0.1-0.4-0.2-0.5l-0.8-0.5l-0.3-0.7l0.7-0.4c0.2-0.1,0.3-0.2,0.3-0.4l0-1.3
		c0-0.1,0-0.2-0.1-0.3l-1.1-1.4l-1-1.8l-0.7-2c0-0.1-0.1-0.2-0.2-0.3l-1.5-0.9l0.7-1.1l1.5-1c0.1,0,0.1-0.1,0.1-0.1l0.7-1l2.1-0.5
		c0.1,0,0.2-0.1,0.3-0.2c0.1-0.1,0.1-0.2,0.1-0.4l-0.2-0.8c-0.1-0.2-0.2-0.4-0.5-0.4l-0.9,0l-1.3-0.7c-0.2-0.1-0.4-0.1-0.5,0
		l-1.6,1.3l-1-0.5l0-0.6c0-0.2-0.2-0.4-0.4-0.4l-1.1-0.3l-0.7-1.2l0.6-0.8l1.4-0.1c0.1,0,0.3-0.1,0.4-0.2l1-1.3l1.8-1.5l1.3-0.7
		l0.6,0.8l-1.1,1.2c-0.1,0.1-0.2,0.3-0.1,0.5l0.2,0.6l-0.3,0.3c-0.1,0.2-0.2,0.4,0,0.6c0.1,0.2,0.4,0.3,0.6,0.2l1.1-0.3
		c0.1,0,0.1,0,0.2-0.1l1.2-1l2.2-0.6c0,0,0,0,0.1,0.1l0.6,0.4c0.1,0,0.1,0.1,0.2,0.1l0.8,0.2l0,0.1l-0.4,1c0,0.1,0,0.2,0,0.3l0,0.1
		l-0.1,0.1c-0.1,0-0.1,0.1-0.2,0.2l-0.4,0.7c-0.1,0.2,0,0.5,0.1,0.6l0.3,0.2c0,0,0.1,0,0.1,0.1l0.2,0.1c0,0.1,0.1,0.3,0.2,0.3
		c0.1,0,0.2,0.1,0.3,0.1c0.1,0,0.1,0,0.2,0l0.2-0.1c0.1,0,0.2-0.1,0.3-0.2l0-0.1l0.4,0.2c0,0,0.1,0,0.1,0c0,0,0,0.1,0,0.1l0.9,1.3
		l-0.7,0.2c-0.1,0-0.2,0.1-0.3,0.2c-0.1,0.1-0.1,0.3,0,0.4l0.7,1.9l-0.3,1.4c0,0.1,0,0.1,0,0.2l0.1,0.9c0,0.2,0.2,0.4,0.5,0.4
		c0,0,0,0,0.1,0l1.3-0.1c0.1,0,0.1,0,0.2-0.1l1.2-0.8l1.4-0.4c0.1,0,0.2-0.1,0.3-0.2l0.6-1c0-0.1,0.1-0.2,0.1-0.2l0-2.3
		c0,0,0-0.1,0-0.1l-0.4-1.3c0,0,0-0.1,0-0.1l-1.2-2.1c0-0.1-0.1-0.1-0.2-0.2c0-0.1,0-0.2-0.1-0.3l-0.8-0.8c0,0-0.1-0.1-0.1-0.1
		l-0.3-0.2c0-0.1,0-0.1,0.1-0.2l0-0.7l0.6-0.5l1-0.3c0.1,0,0.1-0.1,0.2-0.1l0.6-0.7l0.2-0.3l0.7-0.4c0.2-0.1,0.3-0.3,0.3-0.4
		l-0.1-1.4l0.4-0.6l0.6-0.7l0,0c0.2,0,0.4,0,0.5-0.2c0,0,0,0,0,0c0.2,0,0.4-0.1,0.4-0.3l0.1-0.2l2-1.5l0.8,0.9
		c0.1,0.1,0.3,0.2,0.4,0.2l0.9,0c0.1,0,0.2,0,0.2-0.1l2.2-1.3c0,0,0.1-0.1,0.1-0.1l5.6-6.8c0,0,0.1-0.1,0.1-0.2l0.5-1.6l2.5-3.6
		c0-0.1,0.1-0.1,0.1-0.2l0.8-4.1l0.1-3.1l1.1-2.3l0,0.3c0,0.1,0,0.1,0,0.2l1,2.6l-0.1,3.4l-0.4,2c0,0,0,0.1,0,0.1l0.2,2.6l-0.2,2.4
		c0,0,0,0.1,0,0.1l0.2,1.4c0,0.2,0.2,0.4,0.4,0.4c0,0,0.1,0,0.1,0c0.2,0,0.3-0.1,0.4-0.2l0.6-1l0.7,0.8c0.1,0.2,0.3,0.2,0.5,0.1
		c0.2-0.1,0.3-0.2,0.3-0.4l0-1.1c0-0.1,0-0.2-0.1-0.3l-1.5-2.4l0.9-3.3l1.8,0.6c0.2,0.1,0.4,0,0.5-0.1c0.1-0.1,0.2-0.3,0.1-0.5
		l-1.5-4.2l-0.7-2.7l0-2.7c0,0,0-0.1,0-0.1l-1-4.3c0-0.2-0.1-0.3-0.3-0.3s-0.3-0.1-0.4,0l-0.3,0.2c-0.2,0.1-0.3,0.4-0.2,0.7l0.5,0.9
		l-1.3,1.1c-0.1,0.1-0.2,0.2-0.2,0.4l0,0.4c0,0,0-0.1-0.1-0.1l-2.3-3c-0.1-0.1-0.2-0.2-0.3-0.2l-1.7-0.2c-0.2,0-0.3,0.1-0.4,0.2
		l-0.9,1.2l-1.3-0.5l-0.7-1.6c-0.1-0.2-0.2-0.3-0.4-0.3l-2-0.3l6.1-6.7l5.4-6.1l5.4-1l5.1,0.6c0.1,0,0.3,0,0.4-0.1l1.9-1.5l2.2,0.4
		l-0.1,1.9c0,0.1,0,0.3,0.2,0.4c0.1,0.1,0.3,0.1,0.4,0.1l2.4-0.3l3.5-0.8c0.2,0,0.3-0.1,0.3-0.3c0.1-0.2,0-0.3-0.1-0.5L550,95l4-5.5
		l4-1.1l1.2,3.7c0.1,0.2,0.2,0.3,0.3,0.3c0.2,0,0.3,0,0.5-0.1l4-3.6c0.1-0.1,0.1-0.1,0.1-0.2l0.9-2.7l1.4-0.2l-1.2,4.5l-3,2.7
		l-2.9,3.4l-2.9,4l-2.4,0.6c-0.2,0.1-0.3,0.2-0.4,0.4l-0.1,1.2l-1.3,1.7c0,0.1-0.1,0.1-0.1,0.2l-0.8,4.1c0,0.1,0,0.1,0,0.2l0.9,6.4
		l0.7,4.1l0.5,1.5c0.1,0.2,0.2,0.3,0.4,0.3c0.2,0,0.3,0,0.5-0.1l2.2-2.2c0.1-0.1,0.1-0.2,0.1-0.3l0.5-2.6l2.2-0.6
		c0.2,0,0.3-0.2,0.4-0.4l0.5-3l2.6-1.3c0.1-0.1,0.2-0.2,0.2-0.3c0-0.1,0-0.3,0-0.4l-0.5-1l0.6-2.2l1.2-0.1c0.2,0,0.4-0.2,0.5-0.5
		l0.2-4.2c0-0.2-0.1-0.4-0.3-0.5l-1.6-0.6l0-1l2-3c0,0,0-0.1,0.1-0.1l0.5-1.9l1.9,0.4c0.2,0,0.3,0,0.4-0.1l1.3-1.1l0.5,0.8
		c0.1,0.2,0.4,0.3,0.7,0.2l4-2.4l2,2c0.1,0.1,0.3,0.2,0.4,0.1c0.2,0,0.3-0.1,0.4-0.3l0.5-1.2l2.4-2.1l2.5-2.4l1.4-0.4
		c0,0,0.1,0,0.1,0l4.6-2.6l2.9,0.7c0.2,0.1,0.5-0.1,0.6-0.3l0.3-0.8c0-0.1,0.1-0.2,0-0.3l-0.2-1.4c0-0.1,0-0.2-0.1-0.2l-0.7-0.9
		l-1-3c0-0.1,0-0.1-0.1-0.1l-1.1-1.5l1.4,0.2c0.1,0,0.3,0,0.4-0.1l2.1-1.7c0,0,0.1-0.1,0.1-0.1l0.9-1.6c0.1-0.1,0.1-0.3,0-0.4
		l-0.6-1.6l1.2-0.6l-0.2,0.9c0,0.1,0,0.3,0.1,0.4l0.8,1.2c0.1,0.2,0.3,0.3,0.5,0.2l1.7-0.5l1.5,0.6l0.3,1.5c0,0.1,0.1,0.3,0.3,0.3
		l2.1,1.1l1.2,1.3c0.1,0.1,0.2,0.1,0.3,0.2l1.4,0.1c0.2,0,0.3-0.1,0.4-0.2l0.6-0.7c0.1-0.1,0.1-0.2,0.1-0.3l0-3.6l2.5-0.4
		c0.1,0,0.2-0.1,0.3-0.1l1.5-1.6C610.3,72.1,610.3,71.8,610.1,71.6z M372.5,151.2c0,0,0-0.1-0.1-0.1c0,0,0-0.1,0-0.1l0-0.8l0.5-0.4
		c0.1-0.1,0.1-0.1,0.1-0.2l0.3-0.8l0.2-1.4l0.8-0.1c0.2,0,0.3-0.1,0.4-0.3c0.1-0.2,0-0.4-0.1-0.5l-0.2-0.3c-0.1-0.1-0.2-0.1-0.3-0.2
		l-0.6-0.1l-0.8-1.5l-0.7-1c0-0.1-0.1-0.1-0.2-0.1c0-0.1,0-0.1-0.1-0.2l-1.7-2.4l0.1-1.4c0-0.1,0-0.2-0.1-0.3l-1.4-2l1.5-2.2
		l1.4-0.3c0.1,0,0.3-0.1,0.3-0.2l0.6-1.2c0,0,0,0,0-0.1c0,0,0,0,0,0l1.6-0.5l1.8-1l1.3,0.5c0.1,0,0.1,0,0.2,0l1.4-0.1l0.2,1.2
		l-0.3,2l-1.1-0.3c-0.1,0-0.2,0-0.2,0l-1.2,0.3c-0.2,0.1-0.4,0.2-0.4,0.5l0,1.3l-1.1-0.1c-0.1,0-0.3,0-0.4,0.1
		c-0.1,0.1-0.2,0.2-0.2,0.4l0,0.4c0,0.2,0.1,0.3,0.2,0.4l0.8,0.5l0.7,1.9c0,0.1,0.1,0.2,0.3,0.3l1.8,0.7l0.2,0.6l-0.3,0.8
		c0,0.1-0.1,0.2,0,0.3l0,0.1c0,0.1,0.1,0.2,0.1,0.2c0,0.1,0,0.2,0,0.3l0.2,0.5c0.1,0.2,0.3,0.3,0.5,0.3c0,0,0,0,0.1,0
		c0.2,0,0.4-0.2,0.4-0.4l0.1-0.6l0.6-0.3c0.1-0.1,0.2-0.2,0.3-0.3l0.4,1.1c0,0.1,0.1,0.1,0.1,0.2l0.9,1l-1,0.5l-1.3-0.4
		c-0.1,0-0.3,0-0.4,0c-0.1,0.1-0.2,0.2-0.2,0.3l-0.3,1.4c0,0.1,0,0.3,0.1,0.4c0.1,0.1,0.2,0.2,0.3,0.2l0.6,0.1l-0.3,1
		c-0.1,0.2,0,0.5,0.2,0.6l1,0.6l-0.2,2c0,0.1,0,0.1,0,0.2l0.3,1.3c0,0,0,0.1,0,0.1c0,0,0,0,0,0.1l-0.1,0.2l-2.4,0.5l-2.3-0.3l-1.1-1
		c-0.1-0.1-0.1-0.1-0.2-0.1l-1.4-0.4L372.5,151.2z M337.4,143.7l-0.1-0.6c0-0.1-0.1-0.2-0.2-0.3c0-0.1,0-0.2,0-0.3l-0.3-0.8l0.6-1.5
		l0.6-0.7c0.1-0.1,0.1-0.2,0.1-0.3c0,0,0,0,0,0c0.1-0.1,0.2-0.2,0.2-0.3l0.4-2.3l0.1,0c0.1,0.1,0.3,0,0.5,0l0.6-0.4
		c0.2-0.1,0.2-0.3,0.2-0.4l0-0.4c0,0,0,0,0,0c0,0,0,0,0,0l1.2-1.6c0,0,0-0.1,0-0.1l0.5-1.2l1.1-0.2l0.1,0.5c0,0.2,0.2,0.4,0.4,0.4
		l2.4,0.6l0.1,0.1c0,0,0.1,0,0.1,0l-1.3,0.7c-0.1,0-0.1,0.1-0.2,0.2l-0.1,0.2c-0.1,0.1-0.1,0.3-0.1,0.4c0,0.1,0.2,0.3,0.3,0.3
		l1.3,0.5l-0.2,0.7c-0.1,0.2,0,0.5,0.2,0.6l0.7,0.3c0.1,0,0.1,0.1,0.2,0.1c0.1,0,0.2,0,0.3-0.1l2.1-1.3l1.7-0.4
		c0.2,0,0.3-0.1,0.4-0.3l0.2-0.5c0.1-0.2,0-0.3-0.1-0.5s-0.3-0.2-0.4-0.2l-1.3,0.1l-0.7-0.5l-0.7-0.7l0.5-0.4l1.4-0.9l1.4-0.1
		c0.1,0,0.2,0,0.2-0.1l1-0.7l1.1-0.2c0.1,0,0.2-0.1,0.2-0.1c0.1,0,0.2,0,0.2,0l0.8-0.2l-1.9,0.8c-0.2,0.1-0.3,0.2-0.3,0.4
		c0,0.2,0,0.3,0.1,0.4l0.6,0.6l-1.2,1.7l-0.8,0.3c-0.2,0.1-0.3,0.2-0.3,0.4s0,0.3,0.1,0.5l1.2,1.1c0,0,0.1,0.1,0.1,0.1l1.8,0.8
		l2,1.8c0.1,0.1,0.1,0.1,0.2,0.1c0,0.1,0,0.1,0.1,0.2l0.5,0.5c0.1,0.1,0.1,0.1,0.2,0.1l0.8,0.2l0.9,0.7l0.4,1.4l-0.2,0.6
		c0,0,0,0.1,0,0.1l-1.8,1.1l-1.3-0.2c0,0-0.1,0-0.2,0l-1.9,0.3l-2.3-0.8l-2.9-1.6c-0.1,0-0.2,0-0.2-0.1l-2.7,0c0,0-0.1,0-0.1,0
		l-1.9,0.6c0,0-0.1,0-0.1,0.1l-1.9,1.4l-3-0.3c-0.2,0-0.3,0.1-0.4,0.2c0,0,0-0.1,0-0.1c0-0.1-0.1-0.2-0.3-0.3L337.4,143.7z
		 M335.8,146.2C335.8,146.2,335.8,146.2,335.8,146.2l0.7-0.6l1.8-0.1c0.1,0,0.2,0,0.3-0.1l-0.4,0.8L335.8,146.2
		c0,0.1-0.1,0.1-0.1,0.1L335.8,146.2z M281.6,155.6l1-0.7l1.5,0l2,0c0.2,0,0.3-0.1,0.4-0.2l1.1-1.5l1.1-0.4c0.2-0.1,0.3-0.2,0.3-0.3
		l0.3-1.2l0.8-0.8c0.2-0.2,0.2-0.4,0.1-0.6l-0.5-1l0.6-1.6l1-1.1c0.1-0.1,0.1-0.1,0.1-0.2l0.1-0.5l1.9-0.4c0.1,0,0.2-0.1,0.2-0.1
		l1.5-1.4c0.1-0.1,0.2-0.2,0.2-0.4l-0.1-1c0-0.1,0-0.1-0.1-0.2c0,0,0.1-0.1,0.1-0.1l0.1-1l2.2-0.7l3.2,0.6c0.1,0,0.3,0,0.4-0.1
		l1.4-1.2c0,0,0,0,0,0c0.1,0,0.1,0,0.2,0l0.3-0.1c0.1,0,0.2-0.1,0.3-0.1l0.9-1l0.6-0.2l1.2,0.7c0,0,0.1,0,0.1,0l0.6,0.2l0.5,2.1
		c0,0.1,0.1,0.2,0.1,0.2l1.1,1.3l1.6,1.5l1.3,1c0.1,0.1,0.2,0.1,0.2,0.1l1.1,0.1l0.6,0.8c0.1,0.1,0.1,0.1,0.2,0.2l0.9,0.3l0.4,0.8
		c0.1,0.1,0.1,0.2,0.3,0.2l0.5,0.2l1,2.1l-0.2,0.3c0,0-0.1,0.1-0.1,0.2l-0.3,1c-0.1-0.1-0.3-0.2-0.4-0.1l-2.6,0.4l-1.8-0.2
		c-0.3,0-0.5,0.1-0.5,0.4l-0.2,0.8c0,0.2,0.1,0.5,0.3,0.6l2.3,1l0.7,0.2l1.1,0.7c0.1,0,0.2,0.1,0.3,0.1c0.1,0,0.1,0,0.2,0
		c0.1-0.1,0.3-0.2,0.3-0.3l0.3-0.8c0-0.1,0-0.2,0-0.3l-0.2-0.5l0.4-1c0,0.1,0.1,0.1,0.1,0.1c0.1,0.1,0.2,0.1,0.3,0.1
		c0,0,0.1,0,0.1,0l0.4-0.1c0.1,0,0.3-0.1,0.3-0.3l0.8-1.6l0.4-0.1c0.2,0,0.4-0.2,0.4-0.4l0.2-0.9c0-0.2-0.1-0.4-0.2-0.5l-0.9-0.6
		l0.5-1l1.2,0.3l0.7,0.7c0.1,0.1,0.3,0.2,0.5,0.2c0.2,0,0.3-0.1,0.4-0.3l0.2-0.4c0-0.1,0-0.3,0-0.4l-0.1-0.3c0-0.1-0.1-0.1-0.1-0.2
		l-1.5-1.2l-2.4-1.3l0,0c0.2-0.2,0.2-0.5,0-0.7L317,143c-0.1-0.1-0.2-0.2-0.4-0.2c0,0,0,0,0,0l-1.1,0l-1.8-1.7l-0.8-1.8
		c0-0.1-0.1-0.1-0.2-0.2l-1.5-1.1l-0.5-1l0.2-0.5c0-0.1,0-0.1,0-0.2l-0.1-1l1.1-0.7l0.7,0.2c-0.1,0.1-0.1,0.2-0.1,0.3l0,0.6
		c0,0.1,0,0.2,0.1,0.3l0.3,0.4c0.1,0.2,0.3,0.3,0.4,0.2c0.2,0,0.3-0.1,0.4-0.3l0.2-0.5l0.7,0.2l0,0.5c0,0.1,0,0.2,0.1,0.3l0.5,0.7
		c0,0.1-0.1,0.1-0.1,0.2c0,0.1,0,0.3,0.1,0.4l1.2,1.5c0,0.1,0.1,0.1,0.2,0.1l1.4,0.6l1,0.8c0,0,0.1,0,0.1,0.1l1.4,0.7
		c0.1,0,0.1,0,0.2,0c0,0.1,0.1,0.1,0.1,0.1l0.5,0.3l0.3,0.5c0.1,0.1,0.3,0.2,0.4,0.2c0,0,0,0,0,0c0,0.1,0,0.1,0.1,0.2l0.2,0.2
		l-0.2,0.5c0,0,0,0.1,0,0.1l-0.1,1.5c0,0,0,0.1,0,0.1l0.1,0.9c0,0.1,0.1,0.2,0.2,0.3l0.8,0.6l0,0.2c0,0.2,0.1,0.3,0.3,0.4
		c0,0,0,0,0,0l0.1,0.4c0,0.1,0.1,0.2,0.2,0.3l0.6,0.5l0,0.1c0,0.1,0,0.4,0.1,0.5l0.6,0.9c0.1,0.1,0.2,0.2,0.4,0.2l0.1,0l-0.3,0.2
		c-0.2,0.1-0.2,0.4-0.1,0.6l0.2,0.3c0.1,0.1,0.2,0.2,0.3,0.3l0.2,0.2l0.1,0.2l-0.1,0.1c-0.1,0.1-0.2,0.3-0.1,0.5l0.2,0.4
		c0,0.1,0.1,0.1,0.1,0.2l0.1,0.1c0.2,0.1,0.4,0.2,0.6,0.1c0.1-0.1,0.2-0.2,0.2-0.3l0.1,0.2c0.1,0.2,0.2,0.2,0.4,0.2c0,0,0.1,0,0.1,0
		c0.1,0,0.2-0.1,0.3-0.2l0.1,0c0.2,0.1,0.3,0.1,0.5,0c0.2-0.1,0.3-0.3,0.2-0.6l-0.2-0.7c0.1,0,0.2,0,0.2,0l0.2,0
		c0.1,0,0.3-0.1,0.3-0.3c0.1-0.1,0.1-0.3,0-0.4l-0.2-0.5l0.2,0l0.4,0.3c0.1,0.1,0.4,0.2,0.5,0.1c0.2-0.1,0.3-0.3,0.3-0.5l0-0.7
		c0-0.2-0.1-0.3-0.2-0.4l-0.7-0.5l-0.7-0.8l0.2-0.2c0.1-0.1,0.2-0.2,0.2-0.3c0-0.1,0-0.3-0.1-0.4l-0.7-0.8l-0.3-1.1l0,0l0.6,0.7
		c0.1,0.1,0.2,0.2,0.4,0.2h0.8c0.1,0,0.1,0,0.2,0l0.5-0.2c0.1-0.1,0.3-0.2,0.3-0.4c0-0.2,0-0.3-0.1-0.4l-0.6-0.7l1.5-0.4l0.9,0.2
		l0.7,0l0,0.1c0,0.1,0,0.2,0.1,0.3l0.4,0.8c0.1,0.1,0.2,0.2,0.3,0.3c0,0,0.1,0,0.1,0c0.1,0,0.2,0,0.3-0.1l0.8-0.7l-1.6,1.8
		c-0.2,0.2-0.2,0.5,0,0.7l0.8,0.8l-0.7,1.3c-0.1,0.2-0.1,0.4,0.1,0.6l1.1,1l0.9,1.9c0.1,0.2,0.3,0.3,0.5,0.3l1.6,0l1.5,1
		c0.1,0.1,0.2,0.1,0.4,0.1l1-0.2c0.2,0,0.3-0.1,0.3-0.3l0.3-0.6l1.5,0.1l1.2,1c0.1,0.1,0.2,0.1,0.4,0.1l2.4-0.2
		c0.1,0,0.2-0.1,0.3-0.1l1-1l1.2,0.4c0.1,0,0.2,0,0.2,0l0.2,0l-0.1,0.1c-0.1,0.2-0.1,0.4,0,0.6l0.4,0.6c0,0,0,0,0.1,0.1l-0.3,0.7
		c0,0.1-0.1,0.2,0,0.3l0.1,1.4c0,0,0,0,0,0.1c0,0,0,0,0,0l-0.8,1.5l-0.5,1.3c0,0.1,0,0.1,0,0.2c-0.1,0-0.1,0.1-0.2,0.2l-0.2,0.4
		c0,0,0,0.1,0,0.1l-0.3,1.4l-0.4,0.8c-0.1,0.1-0.1,0.2,0,0.3l-0.3,0.4c0,0,0,0.1,0,0.1c-0.1,0-0.1,0-0.2,0.1l-0.5,0.3l-1.2-0.1
		l-1.2-0.4c-0.2-0.1-0.5,0-0.6,0.2l0,0l-0.2-0.4c-0.1-0.1-0.2-0.2-0.3-0.3l-1.1-0.2c0,0-0.1,0-0.2,0l-1.4,0.2c-0.1,0-0.2,0-0.3,0.1
		l-0.6,0.5l-1.2,0.6l-2.4-0.8l-1.6-0.5c-0.1,0-0.1,0-0.2,0l-2,0l-0.3-0.4c-0.1-0.1-0.2-0.2-0.3-0.2l-1.5-0.2l-0.4-0.3
		c-0.1,0-0.2-0.1-0.3-0.1l-0.4,0l-0.4-0.7c-0.1-0.1-0.2-0.2-0.3-0.2l-2.1-0.4c-0.1,0-0.1,0-0.2,0l-1.1,0.3c-0.1,0-0.1,0-0.2,0.1
		l-1.1,0.9c-0.1,0-0.1,0.1-0.1,0.2l-0.5,0.9c-0.1,0.1-0.1,0.2,0,0.4l0.3,1.3l-0.6,0.7l-0.7,0.4l-1.7-0.9l-2.4-0.8l-1.4-0.3l-0.7-1.6
		c-0.1-0.1-0.1-0.2-0.3-0.3l-2.2-0.9l-1.3-0.3c-0.1,0-0.2,0-0.2,0l-0.6,0.1l-1.6-0.6c-0.1,0-0.1,0-0.2,0c0,0-0.1-0.1-0.1-0.1
		l-0.4-0.2l-0.3-0.7c-0.1-0.2-0.2-0.3-0.4-0.3l-0.5,0l-0.2-0.7l0.9-0.9c0.1-0.1,0.1-0.2,0.2-0.3l0.2-1.6c0-0.2,0-0.3-0.2-0.4
		L308,156l0-0.7l0.7-0.9c0.1-0.1,0.1-0.4,0.1-0.5c0-0.1-0.1-0.3-0.3-0.3c-0.1-0.1-0.3,0-0.4,0l-0.8,0.4l0-0.4c0-0.2-0.2-0.5-0.4-0.5
		l-0.9-0.2c-0.1,0-0.2,0-0.3,0l-1.7,0.8c0,0-0.1,0-0.1,0.1c-0.1,0-0.1,0-0.2,0l-0.7,0.1l-0.5-0.4c-0.1-0.1-0.2-0.1-0.3-0.1l-1.7,0
		c-0.1,0-0.2,0-0.2,0.1l-1.4,0.7l-0.7-0.3c-0.1,0-0.1,0-0.2,0l-2.8,0.2l-2.8,0.4c0,0-0.1,0-0.1,0l-1.5,0.6c0,0-0.1,0-0.1,0.1l-1,0.8
		l-1.7,0.3c-0.1,0-0.1,0-0.2,0.1l-1.4,1c0,0,0,0-0.1,0.1c0,0,0,0,0,0l-0.6,0l-1.7-0.4c-0.1,0-0.1,0-0.2,0l-1.4,0.1l-0.9-0.7
		c-0.1-0.1-0.2-0.1-0.3-0.1c0,0,0,0,0,0L281.6,155.6z M362.5,199.1c0-0.1-0.1-0.2-0.2-0.2l-0.6-0.3l-1.4-1.6l-1-1l-2.2-1.6l-0.9-0.8
		l-0.5-1.6l-0.8-1.7c0-0.1-0.1-0.2-0.2-0.2c0-0.1-0.1-0.2-0.2-0.3l-1.3-0.9l-0.6-1.9l-0.2-1.7l0.2-0.1c0.1-0.1,0.2-0.3,0.1-0.5
		l-0.5-1.5c0-0.1-0.2-0.2-0.3-0.3c0-0.1,0-0.2-0.1-0.3c0,0,0,0-0.1-0.1l-1.8-1.5l0-0.9l0.1-0.1c0.2-0.2,0.2-0.5,0.1-0.6l-1.4-1.8
		l-0.6-1.1l-0.6-0.9l-1.3-3l-0.1-0.3l0.5,0.6c0.2,0.2,0.5,0.2,0.7,0l0.2-0.2c0.1,0,0.1-0.1,0.1-0.2l0.3-0.7c0,0.1,0,0.2,0.1,0.2
		c0.1,0.1,0.2,0.2,0.4,0.2c0,0,0,0,0,0l0.4,0l1.8,2.6l0.7,1.4c0,0.1,0.1,0.1,0.1,0.2l0.4,0.3l0.4,0.8l-0.1,0.2c0,0.1,0,0.2,0,0.3
		l0.5,0.9c0.1,0.1,0.1,0.2,0.2,0.2l0.8,0.3l0.7,0.6l0.9,1.9l-0.1,1c0,0,0,0.1,0,0.1l0.2,1.2c0,0.1,0,0.1,0.1,0.2l1.1,1.6
		c0.1,0.1,0.1,0.2,0.2,0.2l0.6,0.2l1.1,1.1l0.5,1.4c0,0,0,0.1,0,0.1l0.9,1.4c0,0.1,0.1,0.1,0.1,0.1l0.7,0.5l0.1,0.5
		c0,0.1,0.1,0.2,0.1,0.3l0.4,0.4l0.1,0.4c0,0.1,0.1,0.1,0.1,0.2c0,0.1,0,0.1,0,0.2l0.1,0.5l-0.1,0.2c-0.1,0.1-0.1,0.2-0.1,0.4
		l0.1,0.5c-0.1,0.1-0.1,0.1-0.1,0.2c-0.1,0.2,0,0.3,0.1,0.5l0.3,0.4l0.3,1.2c0,0,0,0.1,0,0.1l0.2,0.4l0,0.8c0,0.1,0,0.2,0,0.2
		l0.3,0.7C362.6,199.1,362.6,199.1,362.5,199.1z M329.1,103.5C329.1,103.5,329.1,103.5,329.1,103.5L329.1,103.5
		C329,103.5,329.1,103.5,329.1,103.5z"/>
	<path class="st0" d="M492.1,181.6l0.7,1.2c0.1,0.2,0.3,0.2,0.4,0.2c0,0,0,0,0,0c0.2,0,0.3-0.1,0.4-0.3l0.6-1.2l1-2.9l0.3-1
		c0.1-0.2,0-0.4-0.2-0.5l-0.5-0.4c-0.2-0.1-0.5-0.1-0.6,0.1l-1.2,1.2c0,0-0.1,0.1-0.1,0.1l-0.9,1.7c-0.1,0.1-0.1,0.2-0.1,0.3
		l0.2,1.2C492,181.5,492.1,181.6,492.1,181.6z"/>
	<path class="st0" d="M5.6,82.1l-0.9-0.3c-0.1,0-0.3,0-0.4,0.1C4.1,82,4,82.2,4,82.3v0.9c0,0.2,0.1,0.3,0.3,0.4
		c0.1,0,0.2,0.1,0.2,0.1c0.1,0,0.2,0,0.3-0.1l0.9-0.5c0.1-0.1,0.2-0.2,0.2-0.3l0-0.1c0-0.1,0-0.3,0-0.4C5.8,82.2,5.7,82.2,5.6,82.1z
		"/>
	<path class="st0" d="M33.1,100.9c-0.1-0.1-0.2-0.2-0.3-0.2l-1-0.2c-0.1,0-0.2,0-0.3,0l-0.9,0.5l-1.4,1c-0.2,0.1-0.2,0.3-0.2,0.5
		l0.2,1.3c0,0.1,0.1,0.2,0.2,0.3l0.7,0.6c0.1,0.1,0.2,0.1,0.3,0.1c0.1,0,0.2,0,0.3-0.1l1.6-1.1l1.3-1.3c0.2-0.2,0.2-0.4,0-0.6
		L33.1,100.9z"/>
	<path class="st0" d="M10.7,92.8l-1.1-0.3c-0.1,0-0.2,0-0.3,0L8,93c-0.2,0.1-0.3,0.2-0.3,0.4c0,0.2,0,0.3,0.2,0.5l0.8,0.7
		c0,0,0.1,0,0.1,0.1l1,0.5c0.1,0,0.2,0.1,0.2,0.1c0.1,0,0.2,0,0.2-0.1l0.8-0.4c0.2-0.1,0.3-0.3,0.3-0.5l-0.1-1
		C11,93.1,10.9,92.9,10.7,92.8z"/>
	<path class="st0" d="M67.7,115.5l0.4-2.8c0-0.2,0-0.3-0.1-0.4c-0.1-0.1-0.3-0.2-0.4-0.1l-1.3,0.2l-0.5-0.2c-0.1-0.1-0.3-0.1-0.4,0
		c-0.1,0.1-0.2,0.2-0.2,0.4l-0.1,0.6c0,0.1,0,0.1,0,0.2l0.3,1.2c0,0.1,0.1,0.2,0.1,0.2l0.8,0.8l0.6,1.3c0,0,0,0.1,0.1,0.1l0.9,1.1
		c0.1,0.1,0.2,0.2,0.4,0.2l0.2,0c0,0,0,0,0,0c0.2,0,0.3-0.1,0.4-0.3c0.1-0.2,0.1-0.4,0-0.5L67.7,115.5z"/>
</g>
</svg>
