<svg xmlns="http://www.w3.org/2000/svg" viewBox="0 0 1573.1 314.9"><path d="M802.3,190c0,17.7-5.9,32.4-17.5,44c-15.4,15.3-40.5,23.7-70.6,23.5c-21.6-0.4-43.5-5.6-55.8-13.2l8.2-43.3c13.1,7.4,36,15,53,15c14.1,0,23.5-6.5,23.5-16.9c0-9.4-6.7-16-23.7-24.3c-26.9-13.4-40.3-30.5-40.3-50.6c0-39.5,33.7-66.2,84.2-66.2c26.7,0,44.1,6.3,53.8,12.5l-8.2,43.2c-7.6-5.7-27.1-13.8-48.3-13.8c-14.7,0-24.3,6.2-24.3,16.5c0,7.4,7.3,14,22.9,21.6C779.4,148,802.3,163,802.3,190L802.3,190zM1573,230.2c1.2-13.2-8.5-23.9-21.7-23.9s-24.8,10.7-26,23.9c-1.3,12.1,7.6,23.8,21.7,23.8C1560.2,254.1,1571.8,243.4,1573,230.2zM1569.6,229.9c-1,11.4-11.2,20.7-22.6,20.7c-11.2,0-19.3-9-18.3-20.1c1-11.3,11.1-20.7,22.6-20.7C1562.4,209.8,1570.6,218.8,1569.6,229.9zM1553.1,233.1l3.8,11.1h-3.7l-3.7-10.8h-5.3l-2,10.8h-3.5l5.3-28.1h9.2c4.2,0,7.4,3.1,7.5,7.1C1560.8,226.9,1558.2,231.7,1553.1,233.1L1553.1,233.1zM1553.2,219.5h-6.4l-2,10.5h5.8c3.1,0,5.8-2.4,6.6-5.6C1557.8,221.9,1555.8,219.5,1553.2,219.5zM1450,213.2c23.8,0,44.3-5.8,66.7-18.8l-9.1,47.8c-27.1,13.8-58.9,15.3-71.3,15.3c-52.8,0-83-29.4-83-80.7c0-29.6,10.9-59.2,29.8-81.3c20.3-24,50.3-37.8,81.7-37.6c40,0,66.6,23.2,66.6,57.7c0,15.9-5.2,29-15.4,39c-19.1,18.6-66.1,29-109,20.6C1405.1,199.2,1423.3,213.2,1450,213.2L1450,213.2zM1413.3,138.2c33.3,0.3,52.1-3.1,60.3-11.2c8.9-8.8,6.1-27.7-15.8-27.7C1433.3,99.4,1417.6,119.5,1413.3,138.2zM1190.5,146.4L1170,253.5h-54.2l7-36.9c-7.6,23-26.1,41.2-57.2,41.2c-37.7,0-54.8-33.5-54.8-67c0-38.1,14.9-75.8,40-100.9c21-21,48.1-32.1,78.4-32.1C1182.6,58,1200.3,94.1,1190.5,146.4L1190.5,146.4zM1138.2,121.7c-0.7-13.5-7.7-20.8-20.3-20.8c-26.7,0-49.9,46.1-49.8,78.2c0,20,7.4,32.5,20.3,32.5c20.7,0,38.5-21.6,44.6-53.2C1135.1,147.6,1138.6,130.1,1138.2,121.7L1138.2,121.7zM318,146.4l-20.5,107.2h-54.2l7-36.9c-7.6,23-26.1,41.2-57.2,41.2c-37.7,0-54.8-33.5-54.8-67c0-38.1,14.9-75.8,40-100.9c21-21,48.1-32.1,78.4-32.1C310.1,58,327.8,94.1,318,146.4L318,146.4zM265.8,121.7c-0.7-13.5-7.7-20.8-20.3-20.8c-26.7,0-49.9,46.1-49.8,78.2c0,20,7.4,32.5,20.4,32.5c20.7,0,38.5-21.6,44.6-53.2C262.6,147.6,266.1,130.1,265.8,121.7zM1007,130.7c0,46.6-22.4,94.3-62.7,115.8c-14.8,7.9-29,11.2-41.3,11.3c-20.2,0-31.5-7.5-37.9-19.2l-14.4,76.2h-56.8l48.2-253.6h50L886.3,92c14.1-20.6,35.1-34.3,58.7-34.3C982.6,57.8,1007,86.3,1007,130.7zM947.9,135c0-9-2.1-30.9-22.9-30.9c-21.2,0-39,24.1-45.9,60.6c-2.4,12.5-9,50,17.1,50C926,214.7,947.9,172.4,947.9,135L947.9,135zM79.1,104l8.1-42.6h-50L0,256.9h56.8l15.3-80.6c9-47.5,36.3-66.6,75.1-60.7l11.1-58.3C124.7,54.2,92.7,73,79.1,104L79.1,104zM534.6,253.5l19.6-102.9l40.3,102.9h61.1l-41.7-103.7l75.8-88.5h-62l-73.2,87.5L582.8,0h-56.4l-48.2,253.5L534.6,253.5L534.6,253.5zM1324.6,58.2c-71.2,0-124.8,52-124.8,120.9c0,47.6,31.6,78.3,80.7,78.3c21,0,41.4-3.8,54.5-10.2l9-47.5c-17.6,8.7-31.3,12.3-47.5,12.3c-17.9,0-37.2-10.3-37.2-39.1c0-34,24.1-69.2,64.5-69.2c12.2,0,22.5,2.4,31.3,7.5l8.8-46.2C1353.8,60.7,1339.1,58.2,1324.6,58.2zM452.1,58.2c-71.2,0-124.8,52-124.8,120.9c0,47.6,31.6,78.3,80.7,78.3c21,0,41.4-3.8,54.5-10.2l9-47.5c-17.6,8.7-31.3,12.3-47.5,12.3c-17.9,0-37.2-10.3-37.2-39.1c0-34,24.1-69.2,64.5-69.2c12.2,0,22.5,2.4,31.3,7.5l8.8-46.2C481.2,60.7,466.5,58.2,452.1,58.2z" fill="#fff"/></svg>
