<svg xmlns="http://www.w3.org/2000/svg" viewBox="0 0 180.21908 37"><path d="M42.45475,16.97947a3.15223,3.15223,0,0,1-.92626,2.32632,5.18854,5.18854,0,0,1-3.73623,1.24106,6.35919,6.35919,0,0,1-2.95314-.69866l.43553-2.29109a6.57921,6.57921,0,0,0,2.80683.79126c.74383,0,1.24489-.3432,1.24489-.89373,0-.499-.35222-.84778-1.25192-1.288-1.42312-.71161-2.13515-1.61373-2.13515-2.67695,0-2.092,1.78185-3.50573,4.45526-3.50573a5.30824,5.30824,0,0,1,2.84616.661L42.806,12.93159a4.76793,4.76793,0,0,0-2.55536-.72846c-.7792,0-1.28662.32634-1.28662.87269,0,.39191.38829.74307,1.21025,1.14374,1.07091.53506,2.2805,1.32721,2.2805,2.75991ZM23.92423,10.005a6.35924,6.35924,0,0,0-6.60367,6.397,3.94218,3.94218,0,0,0,4.26955,4.1449,7.04213,7.04213,0,0,0,2.88458-.54168l.47578-2.51265a5.31556,5.31556,0,0,1-2.51357.64989,1.87646,1.87646,0,0,1-1.96775-2.07108,3.51607,3.51607,0,0,1,3.41336-3.66155,3.27076,3.27076,0,0,1,1.65854.39481l.46563-2.443A5.798,5.798,0,0,0,23.92423,10.005Zm52.80711,8.19909a6.69884,6.69884,0,0,0,3.53046-.99631L79.78053,19.737a8.81531,8.81531,0,0,1-3.77194.81063c-2.79594,0-4.39428-1.5549-4.39428-4.26963a6.70591,6.70591,0,0,1,1.57662-4.30352,5.61112,5.61112,0,0,1,4.32524-1.99016c2.11519,0,3.5261,1.22887,3.5261,3.0509a2.76219,2.76219,0,0,1-.81419,2.06194c-1.01019.98452-3.5,1.53628-5.76751,1.091-.108,1.27765.85378,2.01593,2.27076,2.01593Zm-1.94215-3.96551c1.76359.01448,2.75562-.16391,3.18853-.59259.4687-.46571.322-1.46348-.83346-1.46348A2.51441,2.51441,0,0,0,74.78919,14.23855ZM70.09385,10.005a6.35922,6.35922,0,0,0-6.60364,6.397,3.94219,3.94219,0,0,0,4.26955,4.1449,7.04217,7.04217,0,0,0,2.88459-.54168l.47577-2.51265a5.31549,5.31549,0,0,1-2.51356.64989,1.87645,1.87645,0,0,1-1.96775-2.07108,3.51607,3.51607,0,0,1,3.41337-3.66155,3.271,3.271,0,0,1,1.65852.3948l.46563-2.44294A5.79771,5.79771,0,0,0,70.09385,10.005Zm-7.09819,4.66424L61.912,20.34058H59.04178l.373-1.952a3.02213,3.02213,0,0,1-3.02861,2.17933c-1.99685,0-2.89928-1.77267-2.90034-3.54671a7.66531,7.66531,0,0,1,2.11658-5.33837A5.73821,5.73821,0,0,1,59.74978,9.984a3.317,3.317,0,0,1,2.68668,1.04286A4.51715,4.51715,0,0,1,62.99566,14.66921Zm-2.76332-1.30482a1.00648,1.00648,0,0,0-1.07478-1.10069c-1.41346,0-2.638,2.43966-2.63691,4.1362.00038,1.06.39326,1.72011,1.07681,1.72011,1.0933,0,2.035-1.14335,2.35887-2.81766a11.40714,11.40714,0,0,0,.276-1.938ZM16.82611,14.66921l-1.08366,5.67138H12.87222l.373-1.952a3.02216,3.02216,0,0,1-3.02861,2.17932c-1.99687,0-2.89928-1.77267-2.90034-3.54671A7.66525,7.66525,0,0,1,9.4328,11.68278,5.73823,5.73823,0,0,1,13.58021,9.984a3.317,3.317,0,0,1,2.68666,1.04286A4.51708,4.51708,0,0,1,16.82611,14.66921Zm-2.76332-1.30482A1.00648,1.00648,0,0,0,12.988,12.2637c-1.41347,0-2.638,2.43966-2.63694,4.1362.00041,1.06.39326,1.72011,1.07685,1.72011,1.0933,0,2.035-1.14335,2.35887-2.81766A11.40713,11.40713,0,0,0,14.06279,13.36439Zm39.2224.47623a6.92138,6.92138,0,0,1-3.31532,6.127,4.78377,4.78377,0,0,1-2.18441.6003,2.06267,2.06267,0,0,1-2.00708-1.01431L45.015,23.58793h-3.005l2.551-13.41725H47.2078l-.30945,1.6287A3.839,3.839,0,0,1,50.007,9.984c1.98878,0,3.27821,1.50722,3.27821,3.85662Zm-3.12514.22761c0-.47761-.11277-1.63749-1.21346-1.63749-1.1192,0-2.06405,1.27509-2.43035,3.20916-.12535.66126-.47623,2.64683.90631,2.64683,1.57838,0,2.7375-2.24052,2.7375-4.21849Zm-45.97369-1.643.42836-2.25456H1.96827L0,20.51956H3.00548l.81156-4.267c.47851-2.51612,1.92207-3.523,3.97643-3.21194l.58694-3.08684A4.16344,4.16344,0,0,0,4.18636,12.42524Zm24.10506,7.91535,1.03514-5.44531,2.13067,5.44531H34.6889L32.4844,14.852l4.01195-4.68135H33.2157l-3.87114,4.63,1.49739-7.877H27.85752L25.30664,20.34059ZM62.87027,27.455a2.56715,2.56715,0,0,1-2.47986,2.71785A1.67162,1.67162,0,0,1,58.63485,28.4a2.57277,2.57277,0,0,1,2.47986-2.71785A1.67418,1.67418,0,0,1,62.87027,27.455Zm-3.17656.9183c0,.59066.30869,1.00627.83812,1.00627.76827,0,1.27959-1.05886,1.27959-1.91594,0-.44062-.20263-.98816-.82087-.98816C60.17053,26.47543,59.69371,27.5705,59.69371,28.37326Zm10.1695-.9183a2.56715,2.56715,0,0,1-2.47986,2.71785A1.67162,1.67162,0,0,1,65.62779,28.4a2.57277,2.57277,0,0,1,2.47986-2.71785A1.67418,1.67418,0,0,1,69.86321,27.455Zm-3.17657.9183c0,.59066.30869,1.00627.83812,1.00627.76828,0,1.2796-1.05886,1.2796-1.91594,0-.44062-.20264-.98816-.82088-.98816-.82,0-1.29684,1.09507-1.29684,1.89783Zm-2.27878-4.00079L63.323,30.07622h1.02432l1.09274-5.70375ZM47.84365,25.69078a2.7078,2.7078,0,0,0-2.72694,2.68851q-.00025.03666.00048.07331a1.61416,1.61416,0,0,0,1.73831,1.71159,2.891,2.891,0,0,0,1.267-.26225l.16954-.89172a2.31773,2.31773,0,0,1-1.1546.32447.89887.89887,0,0,1-.94417-1.00539,1.71716,1.71716,0,0,1,1.615-1.809,1.55541,1.55541,0,0,1,.79173.20035l.16249-.85465a2.36676,2.36676,0,0,0-.91887-.1752Zm-5.87027,3.23a1.18194,1.18194,0,0,1-.11468-.60962c1.659.03535,2.81441-.31817,2.81441-1.42015a1.22572,1.22572,0,0,0-1.38565-1.20888,2.61443,2.61443,0,0,0-2.435,2.70835,1.61932,1.61932,0,0,0,1.765,1.78229A3.34665,3.34665,0,0,0,44.24162,29.77l.17589-.92515a2.58765,2.58765,0,0,1-1.562.5166.94947.94947,0,0,1-.88207-.44062Zm1.18215-2.47124c.3268,0,.54668.16728.54668.44147,0,.52-.67946.66136-1.73832.65187A1.32426,1.32426,0,0,1,43.15553,26.44957Zm14.77054.41387a1.04517,1.04517,0,0,0-1.09421-1.1813,1.85981,1.85981,0,0,0-1.56954.90121l.1591-.83051h-.92656l-.82231,4.32338h1.02433l.38027-1.98491c.18539-1.00712.77519-1.571,1.24253-1.571.40613,0,.53892.25525.53892.61739a2.87082,2.87082,0,0,1-.05067.51218l-.46151,2.42639h1.02433l.48-2.50573A4.02755,4.02755,0,0,0,57.92607,26.86344Zm-5.95046-1.1813a1.81165,1.81165,0,0,0-1.42937.7109l.38711-2.02057h-1.0322l-1.08487,5.70375h1.02433l.38027-1.98491c.18539-1.00712.77519-1.571,1.24254-1.571.40613,0,.53892.25525.53892.61738a2.87093,2.87093,0,0,1-.05067.51219l-.46151,2.42639h1.02431l.48-2.50573a4.02746,4.02746,0,0,0,.07528-.707,1.04517,1.04517,0,0,0-1.09421-1.18129ZM40.04836,24.67268h-.99925l-.21953,1.106h-.57343l-.15.79413h.57429L38.30958,28.488a4.00479,4.00479,0,0,0-.0888.79413c0,.49409.30959.88212,1.0149.88212a2.05043,2.05043,0,0,0,.67086-.088l0-.00011.15495-.81463a2.02882,2.02882,0,0,1-.41108.03871.33931.33931,0,0,1-.37938-.38889,3.04241,3.04241,0,0,1,.0793-.60876l.33545-1.72969h.96228l.15865-.79413h-.96229Zm34.52132,7.00956a1.51265,1.51265,0,0,0,2.1256-.80335v-.00168l2.87479-5.12437H78.47586l-1.63263,3.199-.39645-3.199h-1.077l.76588,4.208-.33523.67172a.74465.74465,0,0,1-1.07132.21107Zm-1.39855-6.0001a2.84837,2.84837,0,0,0-2.76332,2.97536c0,.7681.37964,1.51855,1.29787,1.51855a1.73059,1.73059,0,0,0,1.42846-.76728l-.08229.376c-.21125.99765-.72344,1.31495-1.39427,1.31495a2.48409,2.48409,0,0,1-1.12957-.25609l-.15942.8386a3.05246,3.05246,0,0,0,1.26761.23837,2.52489,2.52489,0,0,0,1.60473-.47683,3.15054,3.15054,0,0,0,.89209-1.91423l.38908-1.949a3.54893,3.54893,0,0,0,.08821-.74164c0-.77689-.53859-1.15672-1.43917-1.15672Zm.32671,1.84527-.07939.39728c-.17659.8653-.724,1.41269-1.25375,1.41269-.47667,0-.67989-.39727-.67989-.86529,0-.84749.59168-2.004,1.49209-2.004a.51345.51345,0,0,1,.57386.5474A2.193,2.193,0,0,1,73.49784,27.52741Zm6.39863.91441-.04661.24489h-.53923l-.26441,1.38952H78.78l.2644-1.38952h-.54188l.04661-.24489Zm1.99453,0-.311,1.63441h-.26621l.21773-1.14422-.66358.77537h-.159l-.368-.77766-.21817,1.14653h-.26619l.311-1.63443h.24034l.44322.93623.79914-.93623Z"/><rect x="91.42325" width="0.42383" height="37" fill="gray"/><path d="M146.81355,15.08117a5.874,5.874,0,0,0-6.05638,5.81125v.03985a6.04169,6.04169,0,0,0,12.07293-.03985v-.04134A5.83415,5.83415,0,0,0,146.81355,15.08117Zm-2.79761,5.76991a2.7089,2.7089,0,0,1,2.75619-2.901,2.811,2.811,0,0,1,2.80067,2.94234v.03985a2.71016,2.71016,0,0,1-2.75925,2.90178,2.80883,2.80883,0,0,1-2.79761-2.94163Zm25.76352-5.56454-.049.12409L165.38231,26.5398h-2.95386L158.0313,15.28654h3.49936l2.39614,7.16408,2.41464-7.16408Zm-12.52177,8.1169c0,.45963.16714.68926.564.68926a1.322,1.322,0,0,0,.54279-.10428l.87344,2.23533a5.13485,5.13485,0,0,1-2.23078.47993,2.83808,2.83808,0,0,1-3.04955-3.17479V12.11619l3.3001-.35506Zm17.5178-8.32227a5.54768,5.54768,0,0,0-5.5232,5.81125v.03985a5.89589,5.89589,0,0,0,10.39376,3.68622l.05357-.06739-1.91206-1.69147-.05969.05671a3.49637,3.49637,0,0,1-2.60307,1.10315,2.44639,2.44639,0,0,1-2.57083-1.97034h7.61608l.00761-.08425c.023-.3217.04142-.58676.04142-.82578C180.21908,18.343,178.79415,15.08117,174.77549,15.08117Zm0,2.68426a2.23939,2.23939,0,0,1,2.21235,2.15257H172.508A2.31466,2.31466,0,0,1,174.77549,17.76543Zm-34.749,4.35729v.04136c0,2.80065-2.05453,4.53958-5.36077,4.53958a9.2097,9.2097,0,0,1-6.14987-2.31808l-.06739-.0597,1.7991-2.528.25235.213a6.4744,6.4744,0,0,0,4.22551,1.722c1.241,0,1.97952-.47191,1.97952-1.26245v-.03986c0-.71548-.39072-1.11381-2.8206-1.73587-2.73485-.69863-4.82457-1.47083-4.82457-4.47677v-.03986c0-2.6015,2.102-4.417,5.11412-4.417a8.38466,8.38466,0,0,1,5.38687,1.84311l.101.08266L137.8861,16.182l-.07506-.05288a6.56893,6.56893,0,0,0-3.67854-1.398c-1.06637,0-1.75431.45584-1.75431,1.159v.04142c0,.85032.51019,1.1521,3.02594,1.79714C138.17878,18.45181,140.02644,19.47526,140.02644,22.12272Z"/><path d="M121.99373,28.38732H102.21908V26.92254h18.30986V13.73944h-13.1831v5.85915h7.32394v1.46479h-8.78873V12.27465h16.11268Zm-3.662-12.4507H109.543v1.46479H116.867v5.85915h-13.1831V10.07746h18.30986V8.61268H102.21908V24.72535h16.11268Z" fill="#eb0000"/></svg>