<svg viewBox="0 0 297.5 91.7619" xmlns="http://www.w3.org/2000/svg"><path d="m155.85166 36.915a11.57185 11.57185 0 0 1 -3.40033 8.53992c-2.99938 2.97746-7.86513 4.60094-13.71571 4.55594-4.19874-.06946-8.44092-1.09-10.841-2.56477l1.59884-8.41062a24.1523 24.1523 0 0 0 10.30388 2.90474c2.7306 0 4.57-1.2599 4.57-3.2809 0-1.832-1.293-3.11221-4.59581-4.72814-5.22428-2.61234-7.83817-5.924-7.83817-9.82709 0-7.6798 6.54121-12.86958 16.35532-12.86958 5.193 0 8.57371 1.22376 10.44825 2.4267l-1.59589 8.394a17.503 17.503 0 0 0 -9.38075-2.67418c-2.86044 0-4.72317 1.198-4.72317 3.20366 0 1.43869 1.42541 2.7278 4.44281 4.19866 3.93133 1.96423 8.37173 4.87222 8.37173 10.13166zm-68.02566-25.60346c-13.82511 0-24.24212 10.09555-24.24212 23.48342 0 9.24578 6.14359 15.21594 15.67354 15.21594a25.85142 25.85142 0 0 0 10.58935-1.98852l1.74656-9.22394a19.51353 19.51353 0 0 1 -9.22733 2.38574c-3.48511 0-7.22361-2.00538-7.22361-7.60295 0-6.59615 4.6781-13.44157 12.53048-13.44157a12.00748 12.00748 0 0 1 6.08847 1.44934l1.70934-8.96814a21.28471 21.28471 0 0 0 -7.64468-1.30932zm193.85526 30.09892a24.59153 24.59153 0 0 0 12.96033-3.65746l-1.76675 9.28487c-5.2577 2.68436-11.43446 2.97583-13.8468 2.97583-10.26393 0-16.13145-5.70806-16.13145-15.67385a24.61722 24.61722 0 0 1 5.78779-15.79825 20.59848 20.59848 0 0 1 15.878-7.3059c7.7649 0 12.94434 4.51119 12.94434 11.19988a10.13987 10.13987 0 0 1 -2.98889 7.56939c-3.70843 3.61418-12.84845 5.63969-21.17258 4.005-.39654 4.69025 3.13425 7.40049 8.33601 7.40049zm-7.12967-14.5574c6.47415.05315 10.11591-.60174 11.70511-2.1754 1.7206-1.70965 1.18188-5.37246-3.0596-5.37246-4.7722 0-7.81043 3.9124-8.64551 7.54786zm-17.23659-15.54152c-13.82511 0-24.242 10.09555-24.242 23.48342 0 9.24578 6.14359 15.21594 15.67353 15.21594a25.85144 25.85144 0 0 0 10.58936-1.98852l1.74656-9.22394a19.51294 19.51294 0 0 1 -9.22729 2.38574c-3.4851 0-7.2236-2.00531-7.2236-7.60295 0-6.59615 4.6781-13.44157 12.53048-13.44157a12.00751 12.00751 0 0 1 6.08843 1.44934l1.70934-8.96807a21.28478 21.28478 0 0 0 -7.64481-1.30939zm-26.05749 17.12246-3.97814 20.81965h-10.5366l1.36922-7.166a11.09427 11.09427 0 0 1 -11.11806 8.00033c-7.33045 0-10.64328-6.50748-10.64717-13.02a28.13945 28.13945 0 0 1 7.77-19.5972 21.065 21.065 0 0 1 15.2251-6.23623c4.47646.01788 7.78782 1.31359 9.86283 3.82833 3.07131 3.72178 2.81931 9.3087 2.05282 13.37112zm-10.1442-4.79c-.12868-2.62524-1.49518-4.04062-3.9455-4.04062-5.18885 0-9.68411 8.956-9.68015 15.184.0014 3.89126 1.44367 6.31454 3.953 6.31454 4.01349 0 7.47031-4.19726 8.65942-10.34366a41.87433 41.87433 0 0 0 1.01323-7.11426zm-159.34453 4.79-3.97814 20.81968h-10.53664l1.36922-7.166a11.09433 11.09433 0 0 1 -11.11805 8.00033c-7.33053 0-10.64329-6.50748-10.64718-13.02a28.13939 28.13939 0 0 1 7.76987-19.5972 21.06521 21.06521 0 0 1 15.22519-6.23623c4.47637.01788 7.78781 1.31359 9.86274 3.82833 3.07146 3.72175 2.81946 9.30867 2.05299 13.37109zm-10.1442-4.79c-.12867-2.62524-1.49518-4.04062-3.9455-4.04062-5.18885 0-9.6841 8.956-9.68022 15.184.00148 3.89126 1.44366 6.31454 3.95312 6.31454 4.01349 0 7.47031-4.19726 8.65942-10.34366a41.87433 41.87433 0 0 0 1.01318-7.11426zm143.9857 1.74826c0 9.04523-4.3428 18.31952-12.17056 22.49239a17.561 17.561 0 0 1 -8.01906 2.20369c-3.91862-.00024-6.11547-1.465-7.368-3.72351l-2.80217 14.80986h-11.03124l9.36475-49.2548h9.71612l-1.13595 5.97894c2.745-3.99314 6.8103-6.66422 11.41178-6.66422 7.30083 0 12.03433 5.533 12.03433 14.15769zm-11.47239.83555c0-1.75331-.414-6.01126-4.45462-6.01126-4.1086 0-7.57716 4.68089-8.92183 11.78087-.46016 2.42748-1.74826 9.71651 3.32706 9.71651 5.79424.00007 10.04939-8.22493 10.04939-15.48608zm-168.76973-6.03143 1.5725-8.27649h-9.71511l-7.22555 37.99078h11.03313l2.97925-15.66406c1.75662-9.23669 7.05592-12.93284 14.59749-11.79106l2.15466-11.33182a15.284 15.284 0 0 0 -15.39637 9.07265zm88.48984 29.0573 3.8-19.98977 7.8217 19.98977h11.86347l-8.09273-20.14852 14.72788-17.18527h-12.04326l-14.211 16.99676 5.49694-28.91665h-10.95588l-9.36427 49.25368zm126.93919 26.11689c0 5.38112-3.72564 9.97723-9.1036 9.97723a6.13646 6.13646 0 0 1 -6.44468-6.508c0-5.34631 3.72563-9.97724 9.10359-9.97724 4.24159.00001 6.44469 3.0451 6.44469 6.50801zm-11.66119 3.37111c0 2.16828 1.1332 3.694 3.07673 3.694 2.82034 0 4.69741-3.88707 4.69741-7.03344 0-1.6175-.74386-3.62751-3.01343-3.62751-3.01028-.00002-4.76071 4.02-4.76071 6.96695zm37.33232-3.37111c0 5.38112-3.72563 9.97723-9.10359 9.97723a6.13646 6.13646 0 0 1 -6.44469-6.508c0-5.34631 3.72564-9.97724 9.1036-9.97724 4.24157.00001 6.44466 3.0451 6.44466 6.50801zm-11.66121 3.37111c0 2.16828 1.1332 3.694 3.07674 3.694 2.82034 0 4.6974-3.88707 4.6974-7.03344 0-1.6175-.74386-3.62751-3.01343-3.62751-3.01028-.00002-4.76073 4.02-4.76073 6.96695zm-8.36544-14.68695-3.98257 20.93852h3.76032l4.01144-20.93852zm-60.80731 4.83952a9.94033 9.94033 0 0 0 -10.00887 10.13867c0 3.75727 2.42782 6.28323 6.38136 6.28323a10.61256 10.61256 0 0 0 4.65124-.9627l.62238-3.27354a8.50812 8.50812 0 0 1 -4.23854 1.19115c-2.105 0-3.46608-1.32945-3.46608-3.6908 0-3.30465 2.30124-6.64092 5.92874-6.64092a5.70978 5.70978 0 0 1 2.90644.73551l.59651-3.13742a8.68839 8.68839 0 0 0 -3.3732-.64318zm-21.5498 11.85745a4.33917 4.33917 0 0 1 -.421-2.2379c6.09013.12976 10.33173-1.168 10.33173-5.21338 0-2.6589-1.97516-4.43783-5.08672-4.43783-5.44128 0-8.939 5.18172-8.939 9.9424 0 3.8554 2.105 6.54279 6.4795 6.54279a12.28586 12.28586 0 0 0 5.96223-1.47877l.64567-3.39624a9.4992 9.4992 0 0 1 -5.73429 1.89643 3.48554 3.48554 0 0 1 -3.23812-1.6175zm4.33969-9.07192c1.19968 0 2.00687.61409 2.00687 1.62064 0 1.90873-2.49433 2.42786-6.3814 2.393.45583-1.90868 2.01-4.01364 4.37453-4.01364zm54.22275 1.51932c0-2.97861-1.75044-4.33655-4.01684-4.33655a6.82737 6.82737 0 0 0 -5.76183 3.30834l.58409-3.04882h-3.40142l-3.01873 15.87118h3.76032l1.396-7.28664c.68055-3.69715 2.84571-5.76731 4.56134-5.76731 1.49089 0 1.97836.93695 1.97836 2.26641a10.53819 10.53819 0 0 1 -.186 1.88022l-1.69421 8.90732h3.76032l1.76227-9.19855a14.78557 14.78557 0 0 0 .27633-2.5956zm-21.84421-4.33655a6.65046 6.65046 0 0 0 -5.24723 2.60972l1.42108-7.41755h-3.78922l-3.98254 20.93853h3.76032l1.396-7.28664c.68056-3.69715 2.84572-5.76731 4.56136-5.76731 1.49092 0 1.97838.93695 1.97838 2.26639a10.53667 10.53667 0 0 1 -.186 1.88024l-1.69421 8.90732h3.76027l1.76226-9.19855a14.78557 14.78557 0 0 0 .27635-2.5956c0-2.97861-1.75043-4.33655-4.01683-4.33655zm-43.785-3.70576h-3.66826l-.80588 4.06032h-2.10508l-.5508 2.91525h2.10826l-1.36127 7.03032a14.70127 14.70127 0 0 0 -.326 2.91525c0 1.81381 1.13651 3.23826 3.72572 3.23826a7.52575 7.52575 0 0 0 2.4627-.32294l.00008-.0004.56881-2.99052a7.44773 7.44773 0 0 1 -1.50905.14211 1.24552 1.24552 0 0 1 -1.3927-1.42763 11.16694 11.16694 0 0 1 .29111-2.23476l1.23143-6.34969h3.53255l.58238-2.91525h-3.53255zm126.728 25.73214c2.88992 1.33687 5.738.74516 7.80309-2.94909v-.00616l10.55336-18.81161h-4.01685l-5.99347 11.7434-1.45537-11.7434h-3.95355l2.81156 15.44761-1.23065 2.46589c-1.10576 1.88929-3.0353 1.27275-3.93284.77487zm-5.13409-22.02638c-6.70858 0-10.14414 5.93144-10.14414 10.92256 0 2.81968 1.39365 5.57461 4.76445 5.57461a6.35306 6.35306 0 0 0 5.2439-2.81671l-.3021 1.38036c-.77552 3.66235-2.65576 4.82719-5.11839 4.82719a9.11932 9.11932 0 0 1 -4.14663-.94012l-.58528 3.07849a11.20584 11.20584 0 0 0 4.65342.87505 9.26874 9.26874 0 0 0 5.891-1.75044c1.80055-1.4877 2.68643-3.95037 3.27488-7.02712l1.4283-7.155a13.029 13.029 0 0 0 .32381-2.72255c-.00001-2.85203-1.97716-4.24632-5.2832-4.24632zm1.19937 6.774-.29143 1.45842c-.64825 3.17651-2.65778 5.186-4.60255 5.186-1.74984 0-2.49587-1.45841-2.49587-3.17651 0-3.11112 2.17206-7.35684 5.47747-7.35684a1.885 1.885 0 0 1 2.10667 2.00953 8.05126 8.05126 0 0 1 -.19427 1.8794zm21.61906 4.37731-.142.74611h-1.64282l-.80553 4.23331h-.811l.80553-4.23331h-1.65092l.142-.74611zm6.07655 0-.94751 4.97942h-.811l.66334-3.486-2.02165 2.36226h-.48427l-1.12131-2.36922-.66467 3.493h-.811l.94751-4.97942h.7322l1.3503 2.85234 2.43465-2.85234z"/></svg>