<?xml version="1.0" encoding="utf-8"?>
<!-- Generator: Adobe Illustrator 21.0.0, SVG Export Plug-In . SVG Version: 6.00 Build 0)  -->
<svg version="1.1" id="Layer_1" xmlns="http://www.w3.org/2000/svg" xmlns:xlink="http://www.w3.org/1999/xlink" x="0px" y="0px"
	 width="297.5px" height="65px" viewBox="0 0 297.5 65" style="enable-background:new 0 0 297.5 65;" xml:space="preserve">
<style type="text/css">
	.st0{fill-rule:evenodd;clip-rule:evenodd;fill:#FFFFFF;}
	.st1{fill:#FFFFFF;}
</style>
<g>
	<g>
		<path class="st0" d="M31.4,16.8c-1.2,2.5-0.7,4.5,1.1,4.6c1.8,0,4.2-2,5.3-4.5c1.2-2.5,0.7-4.5-1.1-4.6
			C34.9,12.4,32.5,14.3,31.4,16.8z M45.8,7.8C45.8,7.8,45.8,7.9,45.8,7.8C45.8,7.9,45.8,7.9,45.8,7.8c-1,3-2.8,6.4-4.5,9
			c-3.7,5.4-8.9,8.9-11.7,7.6c-2.8-1.2-2.1-6.6,1.5-12c0.8-1.2,1.7-2.3,2.7-3.3c0,0,0,0,0,0c0,0,0,0,0,0c0,0,0,0,0,0
			c-1.1,0.2-2.3,0.4-3.5,0.7c0,0,0,0,0,0C17.8,24.9,12.5,44.6,13.3,62.2l0,0c0,0,0,0,0,0c0,0,0,0,0,0c-7.3-2.9-12.6-10-13.2-18.9
			l0-0.1C-0.9,27.4,11.8,11.1,28.3,7C34.7,5.4,40.7,5.8,45.8,7.8z"/>
		<path class="st1" d="M41.1,50.6c-1.2,0.8-2.5,1.6-3.7,2.3c0,0,0,0,0,0c0,0,0,0,0,0c-0.2-3.8-1.1-7.5-2.5-10.6
			c-3.8-8.2-10.4-8.8-14.7-1.4c-2.7,4.5-3.9,11-3.6,17.3c0,0,0,0,0,0c4.6,1.5,10,1.6,15.7,0.2c16.5-4.2,29.1-20.4,28.2-36.2
			C59.5,8.2,48.6-0.8,34.7,0.1c0,0,0,0,0,0c-1.3,1.4-2.6,2.7-3.8,4.1c0,0,0,0,0,0c0,0,0,0,0,0c0,0,0,0,0,0c8.1-1,14.6,0.6,18.8,4
			c0,0,0,0,0,0c0,0,0,0,0,0C35.2,28.9,37,40.6,41.1,50.6C41.1,50.5,41.1,50.5,41.1,50.6C41.1,50.5,41.1,50.6,41.1,50.6z"/>
	</g>
	<g>
		<path class="st1" d="M177.3,27c3.4,0,6,0.8,7.2,1.4c0,0,0,0,0,0l-1.2,6.2c0,0,0,0,0,0c0,0,0,0,0,0c-1.4-0.8-3.8-1.6-6.4-1.6
			c-2.2,0-3.6,0.9-3.6,2.4c0,1.1,1.1,2.1,3.4,3.2c3,1.5,6.4,3.7,6.4,7.7c0,2.6-0.9,4.8-2.6,6.5c-2.3,2.3-6,3.5-10.4,3.5
			c-3.4-0.1-6.9-0.9-8.6-2.2c0,0,0,0,0,0l1.2-6.3c0,0,0,0,0,0c0,0,0,0,0,0c1.9,1.2,5.5,2.4,8.2,2.4c2.1,0,3.5-1,3.5-2.5
			c0-1.4-1-2.4-3.5-3.6c-4-2-6-4.5-6-7.5C164.8,31,169.8,27,177.3,27z"/>
		<path class="st1" d="M130.8,27.1c2.1,0,4.3,0.4,5.8,1c0,0,0,0,0,0l-1.3,6.7c0,0,0,0,0,0c0,0,0,0,0,0c-1.3-0.7-2.8-1.1-4.6-1.1
			c-6,0-9.5,5.2-9.5,10.2c0,4.3,2.8,5.8,5.5,5.8c2.4,0,4.4-0.5,6.9-1.8c0,0,0,0,0,0c0,0,0,0,0,0l-1.3,6.9c0,0,0,0,0,0
			c-1.9,0.9-4.9,1.5-8,1.5c-7.2,0-11.9-4.5-11.9-11.6C112.3,34.7,120.3,27.1,130.8,27.1z"/>
		<path class="st1" d="M96.8,35.1c-2.3,2.3-3.9,6.5-3.9,9.8c0,3,1.1,4.8,3,4.8c3,0,5.7-3.2,6.6-7.9c0.2-1,0.4-2.1,0.6-3
			c0.1-0.9,0.2-1.8,0.2-2.4c-0.1-2-1.1-3.1-3-3.1C99.1,33.4,97.9,34,96.8,35.1z M100,55.9C99.9,55.9,99.9,55.9,100,55.9l0.2-1.3
			c0.2-1.1,1.1-2.7,1.5-3.2l0.1-0.1c0.1-0.3-0.1-0.6-0.3-0.7c-0.3-0.1-0.6,0-0.7,0.2l0,0.1c-0.1,0.6-0.5,2-1.8,3.2
			c-1.6,1.5-3.9,2.4-6.4,2.4c-5.6,0-8.1-4.9-8.1-9.9c0-5.6,2.2-11.2,5.9-14.9c3.1-3.1,7.1-4.7,11.6-4.7c3.4,0,5.9,1,7.5,2.9
			c2.3,2.8,2.1,7.1,1.6,10.2l-3,15.8c0,0,0,0,0,0L100,55.9C100,55.9,100,55.9,100,55.9z"/>
		<path class="st1" d="M196.9,50.2c4.4,0,7.6-6.2,7.6-11.8c0-1.3-0.3-4.6-3.4-4.6c-3.1,0-5.8,3.6-6.8,8.9
			C194,44.6,193,50.2,196.9,50.2z M204.1,27c5.5,0,9.1,4.2,9.1,10.8c0,6.9-3.3,13.9-9.2,17.1c-4.6,2.5-8.8,1.9-10.9,0.3
			c-0.5-0.4-0.6-1.4-0.7-1.8l0-0.1c-0.1-0.3-0.4-0.4-0.7-0.3c-0.2,0.1-0.4,0.4-0.3,0.6l0,0.1c0.4,0.7,0.7,1.2,0.6,1.8l-1.8,9.5
			c0,0,0,0,0,0h-8.3c0,0,0,0,0,0c0,0,0,0,0,0l7.1-37.5c0,0,0,0,0,0l7.3,0c0,0,0,0,0,0c0,0,0,0,0,0l-0.2,1.3l0,0
			c-0.4,2-1,2.8-1.4,3.3l-0.1,0.1c-0.1,0.3,0,0.5,0.2,0.7c0.2,0.1,0.6,0.1,0.7-0.1l0-0.1c0.2-0.6,0.7-2,1.8-3l0,0
			C199.3,27.9,201.7,27,204.1,27z"/>
		<path class="st1" d="M141.9,17.7h8.2c0,0,0,0,0,0c0,0,0,0,0,0l-4.3,22.6c0,0,0,0,0,0c0,0,0,0,0,0L157,27.6c0,0,0,0,0,0h9
			c0,0,0,0,0,0c0,0,0,0,0,0c0,0,0,0,0,0l-11.5,12.9l7,15.2c0,0,0,0,0,0c0,0,0,0,0,0c0,0,0,0,0,0h-8.9c0,0,0,0,0,0l-6.8-15
			c0,0,0,0,0,0c0,0,0,0,0,0l-2.9,15c0,0,0,0,0,0h-8.2c0,0,0,0,0,0c0,0,0,0,0,0L141.9,17.7C141.9,17.7,141.9,17.7,141.9,17.7z"/>
		<path class="st1" d="M85.8,27c0.5,0,1.1,0.1,1.6,0.1c0,0,0,0,0,0c0,0,0,0,0,0l-1.6,8.1c0,0,0,0,0,0c0,0,0,0,0,0
			c-0.3-0.1-0.8-0.1-1.3-0.1c-5.7,0-7.9,5.6-8.8,10.2l-2,10.8c0,0,0,0,0,0h-8.3c0,0,0,0,0,0c0,0,0,0,0,0l5.4-28.5c0,0,0,0,0,0H78
			c0,0,0,0,0,0c0,0,0,0,0,0l-0.4,1.9l0,0c-0.3,1.8-0.9,2.9-1.3,3.4l-0.1,0.1c-0.1,0.3,0.1,0.6,0.3,0.7c0.2,0.1,0.6,0.1,0.7-0.2
			l0-0.1c0.2-0.6,0.5-1.9,1.6-3.2C81,28.1,83.3,27,85.8,27z"/>
		<path class="st1" d="M282.8,35.5c0-1.5-1.2-2.4-3-2.4c-2.8,0-4.8,1.8-5.9,3.8c-0.8,1.5-1,1.6-1.8,2.1l-0.1,0.1
			c-0.2,0.2-0.2,0.5,0,0.7c0.2,0.2,0.5,0.3,0.7,0.1l0.1-0.1c0.6-0.7,0.7-0.9,2.9-1c3.4-0.1,5.4-0.6,6.4-1.6
			C282.5,36.8,282.8,36.2,282.8,35.5z M271.2,44.3c0.8,0.7,1.3,1.7,1.4,2c0.1,0.5,0.4,1.1,0.7,1.5c1.1,1.4,3,2.1,5.4,2.1
			c3.5,0,6.5-0.8,9.8-2.7c0,0,0,0,0,0c0,0,0,0,0,0l-1.3,6.9c0,0,0,0,0,0c-4,2-8.7,2.3-10.5,2.3c-7.8,0-12.3-4.3-12.3-11.9
			c0-4.4,1.6-8.7,4.4-12c3.1-3.6,7.3-5.6,12.1-5.6c5.9,0,9.8,3.4,9.8,8.5c0,2.3-0.8,4.3-2.3,5.8c-2.5,2.5-7.1,3.7-14,3.8
			c-1.6,0-2-0.8-2.3-1.4l-0.1-0.1c-0.2-0.2-0.5-0.2-0.7,0C271.1,43.7,270.9,44,271.2,44.3L271.2,44.3z"/>
		<path class="st1" d="M290.7,53c-0.2,1.7,1.1,3.1,2.8,3.1c1.8,0,3.3-1.4,3.5-3.2c0.2-1.7-1.1-3.1-2.8-3.1
			C292.4,49.8,290.8,51.2,290.7,53z M290.2,52.9c0.2-2,2-3.7,4-3.7s3.5,1.6,3.3,3.7c-0.2,2-2,3.7-4,3.7S290,54.9,290.2,52.9z
			 M293,50.8C293,50.7,293,50.7,293,50.8l0.9,0l0,0c0.2,0,0.4,0,0.5,0c0.2,0,0.3,0,0.4,0.1c0.5,0.2,0.7,0.5,0.7,1c0,0.1,0,0.2,0,0.2
			c-0.1,0.6-0.5,1-1.1,1.2L295,55c0,0,0,0,0,0s0,0,0,0c0,0,0,0,0,0h-0.6c0,0,0,0,0,0l-0.6-1.6l-0.4,0h0H293l-0.3,1.6c0,0,0,0,0,0
			h-0.5c0,0,0,0,0,0c0,0,0,0,0,0l0.3-1.7l0,0l0.2-1.3L293,50.8z M293.9,51.3h-0.4l-0.2,0.8l-0.2,0.8h0.4h0c0.2,0,0.3,0,0.4,0
			c0.1,0,0.2,0,0.3-0.1c0.4-0.1,0.6-0.4,0.7-0.7c0.1-0.4-0.1-0.6-0.4-0.7c-0.1,0-0.2,0-0.3-0.1C294.2,51.3,294.1,51.3,293.9,51.3
			L293.9,51.3z"/>
		<path class="st1" d="M260.1,27.1c2.1,0,4.3,0.4,5.8,1c0,0,0,0,0,0l-1.3,6.7c0,0,0,0,0,0c0,0,0,0,0,0c-1.3-0.7-2.8-1.1-4.6-1.1
			c-6,0-9.5,5.2-9.5,10.2c0,4.3,2.8,5.8,5.5,5.8c2.4,0,4.4-0.5,6.9-1.8c0,0,0,0,0,0c0,0,0,0,0,0l-1.3,6.9c0,0,0,0,0,0
			c-1.9,0.9-4.9,1.5-8,1.5c-7.2,0-11.9-4.5-11.9-11.6C241.7,34.7,249.6,27.1,260.1,27.1z"/>
		<path class="st1" d="M226.2,35.1c-2.3,2.3-3.9,6.5-3.9,9.8c0,3,1.1,4.8,3,4.8c3,0,5.7-3.2,6.6-7.9c0.2-1,0.4-2.1,0.6-3
			c0.1-0.9,0.2-1.8,0.2-2.4c-0.1-2-1.1-3.1-3-3.1C228.5,33.4,227.3,34,226.2,35.1z M229.3,55.9C229.3,55.9,229.3,55.9,229.3,55.9
			l0.2-1.3c0.2-1.1,1.1-2.7,1.5-3.2l0.1-0.1c0.1-0.3-0.1-0.6-0.3-0.7c-0.3-0.1-0.6,0-0.7,0.2l0,0.1c-0.2,0.6-0.5,2-1.8,3.2
			c-1.7,1.5-3.9,2.4-6.4,2.4c-5.6,0-8.1-4.9-8.1-9.9c0-5.6,2.2-11.2,5.9-14.9c3.1-3.1,7.1-4.7,11.6-4.7c3.4,0,5.9,1,7.5,2.9
			c2.3,2.8,2.1,7.1,1.6,10.2l-3,15.8c0,0,0,0,0,0L229.3,55.9C229.3,55.9,229.3,55.9,229.3,55.9z"/>
	</g>
</g>
</svg>
