<?xml version="1.0" encoding="utf-8"?>
<!-- Generator: Adobe Illustrator 23.0.0, SVG Export Plug-In . SVG Version: 6.00 Build 0)  -->
<svg version="1.1" id="Layer_1" xmlns="http://www.w3.org/2000/svg" xmlns:xlink="http://www.w3.org/1999/xlink" x="0px" y="0px"
	 width="297.5px" height="65px" viewBox="0 0 297.5 65" style="enable-background:new 0 0 297.5 65;" xml:space="preserve">
<style type="text/css">
	.st0{fill:#FFFFFF;}
</style>
<g>
	<path class="st0" d="M151.7,38.6c0,3.3-1.1,6.1-3.3,8.3c-2.9,2.9-7.6,4.5-13.3,4.4c-4.1-0.1-8.2-1.1-10.5-2.5l1.5-8.2
		c2.5,1.4,6.8,2.8,10,2.8c2.7,0,4.4-1.2,4.4-3.2c0-1.8-1.3-3-4.5-4.6c-5.1-2.5-7.6-5.7-7.6-9.5c0-7.4,6.4-12.5,15.9-12.5
		c5,0,8.3,1.2,10.1,2.4l-1.5,8.1c-1.4-1.1-5.1-2.6-9.1-2.6c-2.8,0-4.6,1.2-4.6,3.1c0,1.4,1.4,2.6,4.3,4.1
		C147.4,30.7,151.7,33.6,151.7,38.6L151.7,38.6z M297,46.2c0.2-2.5-1.6-4.5-4.1-4.5s-4.7,2-4.9,4.5c-0.2,2.3,1.4,4.5,4.1,4.5
		C294.6,50.7,296.8,48.7,297,46.2z M296.4,46.2c-0.2,2.1-2.1,3.9-4.3,3.9c-2.1,0-3.6-1.7-3.4-3.8c0.2-2.1,2.1-3.9,4.3-3.9
		C295,42.4,296.5,44.1,296.4,46.2z M293.3,46.8l0.7,2.1h-0.7l-0.7-2h-1l-0.4,2h-0.7l1-5.3h1.7c0.8,0,1.4,0.6,1.4,1.3
		C294.7,45.6,294.2,46.5,293.3,46.8L293.3,46.8z M293.3,44.2h-1.2l-0.4,2h1.1c0.6,0,1.1-0.5,1.2-1.1
		C294.1,44.7,293.8,44.2,293.3,44.2z M273.8,43c4.5,0,8.4-1.1,12.6-3.5l-1.7,9c-5.1,2.6-11.1,2.9-13.4,2.9c-10,0-15.6-5.5-15.6-15.2
		c0-5.6,2.1-11.2,5.6-15.3c3.8-4.5,9.5-7.1,15.4-7.1c7.5,0,12.6,4.4,12.6,10.9c0,3-1,5.5-2.9,7.4c-3.6,3.5-12.5,5.5-20.5,3.9
		C265.4,40.4,268.8,43,273.8,43L273.8,43z M266.9,28.9c6.3,0.1,9.8-0.6,11.4-2.1c1.7-1.7,1.1-5.2-3-5.2
		C270.7,21.6,267.7,25.4,266.9,28.9z M224.9,30.4L221,50.6h-10.2l1.3-7c-1.4,4.3-4.9,7.8-10.8,7.8c-7.1,0-10.3-6.3-10.3-12.6
		c0-7.2,2.8-14.3,7.5-19c4-4,9.1-6.1,14.8-6.1C223.4,13.8,226.7,20.6,224.9,30.4L224.9,30.4z M215,25.8c-0.1-2.5-1.5-3.9-3.8-3.9
		c-5,0-9.4,8.7-9.4,14.7c0,3.8,1.4,6.1,3.8,6.1c3.9,0,7.3-4.1,8.4-10C214.5,30.7,215.1,27.4,215,25.8L215,25.8z M60.4,30.4
		l-3.9,20.2H46.3l1.3-7c-1.4,4.3-4.9,7.8-10.8,7.8c-7.1,0-10.3-6.3-10.3-12.6c0-7.2,2.8-14.3,7.5-19c4-4,9.1-6.1,14.8-6.1
		C58.9,13.8,62.3,20.6,60.4,30.4L60.4,30.4z M50.6,25.8c-0.1-2.5-1.5-3.9-3.8-3.9c-5,0-9.4,8.7-9.4,14.7c0,3.8,1.4,6.1,3.8,6.1
		c3.9,0,7.3-4.1,8.4-10C50,30.7,50.6,27.4,50.6,25.8z M190.3,27.5c0,8.8-4.2,17.8-11.8,21.8c-2.8,1.5-5.5,2.1-7.8,2.1
		c-3.8,0-5.9-1.4-7.1-3.6l-2.7,14.4h-10.7l9.1-47.8h9.4l-1.1,5.8c2.7-3.9,6.6-6.5,11.1-6.5C185.7,13.7,190.3,19.1,190.3,27.5z
		 M179.2,28.3c0-1.7-0.4-5.8-4.3-5.8c-4,0-7.4,4.5-8.7,11.4c-0.5,2.4-1.7,9.4,3.2,9.4C175,43.3,179.2,35.3,179.2,28.3L179.2,28.3z
		 M15.4,22.4l1.5-8H7.5l-7,36.9h10.7l2.9-15.2c1.7-9,6.8-12.6,14.2-11.4l2.1-11C24,13,18,16.6,15.4,22.4L15.4,22.4z M101.3,50.6
		l3.7-19.4l7.6,19.4h11.5l-7.9-19.5l14.3-16.7h-11.7L105,30.9l5.3-28H99.7l-9.1,47.8H101.3L101.3,50.6z M250.2,13.8
		c-13.4,0-23.5,9.8-23.5,22.8c0,9,6,14.8,15.2,14.8c4,0,7.8-0.7,10.3-1.9l1.7-9c-3.3,1.6-5.9,2.3-9,2.3c-3.4,0-7-1.9-7-7.4
		c0-6.4,4.5-13,12.2-13c2.3,0,4.2,0.5,5.9,1.4l1.7-8.7C255.7,14.3,252.9,13.8,250.2,13.8z M85.7,13.8c-13.4,0-23.5,9.8-23.5,22.8
		c0,9,6,14.8,15.2,14.8c4,0,7.8-0.7,10.3-1.9l1.7-9c-3.3,1.6-5.9,2.3-9,2.3c-3.4,0-7-1.9-7-7.4c0-6.4,4.5-13,12.2-13
		c2.3,0,4.2,0.5,5.9,1.4l1.7-8.7C91.2,14.3,88.4,13.8,85.7,13.8z"/>
</g>
</svg>
