<?xml version="1.0" encoding="utf-8"?>
<!-- Generator: Adobe Illustrator 21.1.0, SVG Export Plug-In . SVG Version: 6.00 Build 0)  -->
<svg version="1.1" id="Layer_1" xmlns="http://www.w3.org/2000/svg" xmlns:xlink="http://www.w3.org/1999/xlink" x="0px" y="0px"
	 width="614.3px" height="275.3px" viewBox="0 0 614.3 275.3" style="enable-background:new 0 0 614.3 275.3;" xml:space="preserve"
	>
<style type="text/css">
	.st0{fill:#B3B3B3;}
</style>
<g>
	<g>
		<path class="st0" d="M551,208.6l0.1-1.2v-1v-0.1l-0.5-1.5c0-0.1-0.1-0.1-0.1-0.2l-1.4-1.5l-1.9-1.8l-0.2-1.5
			c0-0.2-0.1-0.3-0.3-0.4c-0.1-0.1-0.3-0.1-0.4,0l-0.4-0.5c-0.2-0.2-0.4-0.2-0.6-0.1L545,199l-0.5-1.6c0-0.1-0.1-0.1-0.1-0.2l-0.8-1
			l0.1-0.1c0.1-0.2,0-0.5-0.2-0.6l-2.3-1.6l-1.7-0.9l-0.5-1l0.1-0.8c0-0.1,0-0.2,0-0.2l-0.4-1.4c0-0.1-0.1-0.2-0.3-0.3l-0.2-0.1
			l-0.6-2.2l0.1-0.6c0-0.2,0-0.4-0.2-0.5l-0.7-0.6l-0.5-0.6c-0.2-0.2-0.4-0.3-0.7-0.1l-0.7,0.4l-0.5-1v-0.5v-0.1l-0.1-0.9
			c0-0.1,0-0.2-0.1-0.2l-0.6-0.8l-0.1-0.5c0-0.2-0.1-0.3-0.3-0.4l-0.2-0.1l-0.1-0.9c0-0.1,0-0.1-0.1-0.2l-0.3-0.6
			c-0.1-0.1-0.2-0.2-0.4-0.2s-0.3,0-0.4,0.1l-0.4,0.4c-0.1,0.1-0.1,0.2-0.1,0.3v0.4l-0.3,0.9l-0.4,0.9c-0.1,0.1-0.1,0.3,0,0.4
			l0.1,0.3l-0.2,0.2c-0.1,0.1-0.1,0.2-0.1,0.3l-0.2,1.2c0,0.1,0,0.1,0,0.2l0.2,0.9l-0.1,0.4c0,0.1,0,0.2,0,0.3l0.2,0.7l-0.5,1.4
			l-0.2,0.9l-0.4,0.9l-0.3,0.8l-0.9,0.5l-1.4-0.5l-0.2-0.4c0-0.1-0.1-0.2-0.2-0.2l-0.8-0.4c-0.1,0-0.1-0.1-0.2-0.1H525l-1.2-1
			l-0.9-0.6h-0.1L522,187l-1.3-0.9l-0.1-0.3l0.6-0.8l0.4-0.8c0.1-0.1,0.1-0.3,0-0.4l-0.1-0.3h0.2c0.1,0,0.2-0.1,0.3-0.2l0.6-0.6
			l0.1-0.1l0.4-0.8c0.1-0.2,0.1-0.4-0.1-0.6l-0.6-0.6c-0.2-0.2-0.5-0.2-0.7,0l-0.1,0.1l-0.4-0.1c-0.1,0-0.2,0-0.3,0l-0.8,0.4
			l-0.9-0.4c-0.1-0.1-0.3-0.1-0.4,0l-0.3,0.1l-1.3-0.4l-0.8-0.7l-0.1-0.1l-1-0.4c-0.1,0-0.2,0-0.3,0l-0.3,0.1
			c-0.2,0.1-0.3,0.2-0.4,0.4c0,0.2,0.1,0.4,0.3,0.5l0.6,0.3v0.5l-1.1,0.3l-0.7-0.2c-0.1,0-0.3,0-0.4,0.1l-0.9,0.6
			c-0.1,0-0.1,0.1-0.1,0.1l-0.6,0.9c-0.1,0.2-0.1,0.4,0,0.6v0.1l-0.5,0.3c-0.1,0-0.1,0.1-0.2,0.2l-0.7,1.3c-0.1,0.1-0.1,0.3,0,0.4
			l0.2,0.4l-0.7-0.1h-0.9l-0.8-0.9l-0.1-0.1l-1.2-0.7c-0.1-0.1-0.3-0.1-0.4-0.1l-1.4,0.4c-0.2,0.1-0.3,0.2-0.3,0.4h-0.2
			c-0.1,0-0.3,0-0.4,0.1s-0.2,0.2-0.2,0.4l-0.6,0.2c-0.1,0-0.2,0.1-0.3,0.2l-0.3,0.6l-0.9,0.8c-0.1,0.1-0.1,0.2-0.2,0.3l-0.1,0.9
			l-0.2-0.1c-0.2-0.1-0.5,0-0.7,0.2l-0.4,0.6c-0.1,0.2-0.1,0.4,0,0.6l0.3,0.4l-0.1,0.1l-0.5-1c-0.1-0.2-0.2-0.3-0.4-0.3
			c-0.2,0-0.3,0.1-0.4,0.2l-1,1.2c-0.1,0.1-0.1,0.2-0.1,0.3v0.9l-0.1,0.6l-0.9,0.8c-0.1,0-0.1,0.1-0.1,0.2l-0.4,0.9l-0.8,0.7
			l-1.7,0.5h-0.9c-0.1,0-0.1,0-0.2,0l-0.3,0.1c-0.1,0-0.2,0.1-0.2,0.2l-0.2,0.2l-0.9,0.2h-0.1l-1.2,0.6l-0.3-0.1
			c-0.1,0-0.2-0.1-0.3,0l-0.7,0.1h-0.1l-1.3,0.6c0,0-0.1,0-0.1,0.1l-0.8,0.7l-1.3,0.6c-0.1,0-0.2,0.1-0.2,0.2l-0.3,0.4
			c-0.1-0.1-0.2-0.2-0.4-0.3c-0.2,0-0.4,0.1-0.5,0.3l-0.4,0.7c-0.1,0.1-0.1,0.2-0.1,0.3l0.2,1l-0.2,0.8l-0.3,0.4
			c0,0.1-0.1,0.1-0.1,0.2l-0.2,0.9c0,0.1,0,0.3,0.1,0.4l0.3,0.5l0.2,0.5v0.1l0.7,1.3l-0.3-0.2c-0.2-0.1-0.4-0.1-0.6,0
			s-0.2,0.4-0.2,0.6l0.2,0.7c0,0-0.1,0-0.1,0.1c-0.2,0.2-0.3,0.4-0.1,0.7l0.8,1.3l0.2,1.4c0,0.1,0.1,0.2,0.1,0.3l0.6,0.6v0.4
			c0,0.1,0,0.1,0.1,0.2l0.6,1.2l-0.1,1c0,0.1,0,0.1,0,0.2l0.3,1.2l0.9,1.9l0.2,1.1l-0.2,1.4v0.1l0.1,0.6l-0.2,0.3l-0.6,0.2
			c-0.2,0.1-0.3,0.2-0.3,0.5v0.9c0,0.2,0.1,0.4,0.3,0.5l0.7,0.3l1.8,1.3c0.1,0.1,0.2,0.1,0.3,0.1h1.1l1.2,0.1c0.1,0,0.2,0,0.3-0.1
			l0.7-0.6l0.8-0.5h0.3c0.2,0,0.3,0,0.5-0.2l0.9-0.9l1.1-0.1l1.2-0.2l1.4,0.3c0.1,0,0.1,0,0.2,0l1-0.2h1.4c0.1,0,0.3-0.1,0.4-0.2
			l0.6-0.7c0,0,0.1-0.1,0.1-0.2l0.3-0.9l1.3-0.4h0.1l1.7-1l1.5,0.1c0.1,0,0.1,0,0.2,0l4.1-1.4l3-0.2l1.5,0.9c0.1,0,0.2,0.1,0.2,0.1
			l1.1,0.1l1.9,1l0,0c-0.1,0.2-0.1,0.5,0.1,0.7l0.7,0.6l1,1.4v0.9c0,0.2,0.1,0.3,0.2,0.4l1,0.7c0.1,0.1,0.3,0.1,0.4,0.1
			c0.1,0,0.3-0.2,0.3-0.3l0.5-1.3l1-0.6l0.1-0.1l0.9-1.1l0.1,0.7l-0.6,0.9c0,0.1-0.1,0.1-0.1,0.2l-0.2,1.1l-0.5,0.6
			c-0.1,0.2-0.1,0.4,0,0.6c0.1,0.2,0.3,0.3,0.5,0.2l0.9-0.2c0.1,0,0.2-0.1,0.3-0.2l0.4-0.8l0.2,0.7l-0.4,0.7c-0.1,0.1-0.1,0.3,0,0.5
			c0.1,0.1,0.2,0.2,0.4,0.3l1.3,0.2l0.7,0.7l0.4,0.9l0.3,1.6c0,0.1,0.1,0.2,0.1,0.2l1,1.2c0.1,0.1,0.1,0.1,0.2,0.1l1.6,0.6h0.1
			l0.8,0.1l2.3,0.9c0.2,0.1,0.4,0,0.5-0.1l1.4-1.4l0.3-0.1l-0.1,0.4c-0.1,0.2,0.1,0.5,0.3,0.6l0.8,0.3l1.3,0.9
			c0.1,0.1,0.2,0.1,0.3,0.1s0.2,0,0.3-0.1l0.9-0.9l0.7-0.8l1.5-0.9l1.8-0.1c0.1,0,0.2,0,0.3-0.1l0.8-0.6c0.1-0.1,0.2-0.3,0.2-0.5
			l-0.1-0.5l0.2-1.4l0.4-1.5l0.6-1c0,0,0-0.1,0.1-0.1l0.5-1.7l0.6-1.1l0.6-1.5l1.2-0.9c0.1-0.1,0.1-0.1,0.2-0.2l0.8-1.9l0.3-1.4
			v-0.1v-1l0.5-1.7l0.3-0.9v-0.1l0.1-1.6c0-0.1,0-0.2-0.1-0.3L551,208.6z"/>
		<path class="st0" d="M229,172.8l-0.8-3.1c0-0.1-0.1-0.2-0.2-0.2l-0.5-0.5c-0.1-0.1-0.2-0.1-0.3-0.1h-1.3l-1.3-0.5l-2.2-1.9
			c0,0-0.1,0-0.1-0.1l-2.4-1.4c-0.1,0-0.2-0.1-0.3-0.1l-2.4,0.1l-3.3-0.9c-0.1,0-0.2,0-0.3,0l-1.4,0.4l0.1-0.3c0-0.2,0-0.3-0.1-0.5
			l-0.7-0.9c-0.1-0.1-0.1-0.1-0.2-0.2l-2.8-1l-2-0.6c-0.2,0-0.3,0-0.5,0.1l-0.8,0.7v-0.9c0-0.2-0.2-0.5-0.5-0.5l-2.8-0.2l-0.2-0.2
			l1-1.1c0.1-0.1,0.1-0.2,0.1-0.4v-0.9c0-0.2-0.2-0.4-0.3-0.5l-0.6-0.2L201,154l-0.4-0.8c-0.1-0.2-0.3-0.3-0.5-0.3h-0.2l-0.2-0.4
			c0-0.1-0.1-0.2-0.2-0.2l-1.7-1.4c0,0-0.1-0.1-0.2-0.1l-1.7-0.5c-0.1,0-0.2,0-0.2,0c-0.1-0.1-0.1-0.1-0.2-0.1l-1.5-0.4
			c0,0-0.1,0-0.2,0l-1.2,0.1c-0.2,0-0.3,0.1-0.4,0.2l0,0l-1.6-0.3h-0.1l0,0l-1.5-1.3c-0.1-0.1-0.2-0.1-0.3-0.1h-0.3v-0.6
			c0-0.1,0-0.2-0.1-0.3l-1-1l-0.1-0.1l-1-0.6c-0.1,0-0.1,0-0.2,0c0-0.1-0.1-0.1-0.2-0.2l-0.4-0.2c-0.1-0.1-0.2-0.1-0.3-0.1h-0.6
			l-0.2-1c0-0.1-0.1-0.2-0.2-0.3l-0.9-0.6l0.5-0.1c0.2,0,0.4-0.2,0.4-0.5v-0.9c0-0.3-0.2-0.5-0.4-0.5h-0.1c-0.1,0-0.1,0-0.2,0
			l-0.8,0.2c0,0-0.1,0-0.1,0.1c-0.2-0.1-0.3,0-0.5,0.1l-0.6,0.2c-0.1-0.2-0.2-0.2-0.4-0.2l0,0l-2.8,0.1c-0.3,0-0.5,0.2-0.5,0.5v0.1
			l-0.7,0.4l-1.1-0.2L175,142c-0.1-0.1-0.2-0.1-0.4-0.1L173,142h-1.3v-0.2c0-0.1-0.1-0.2-0.2-0.3l-1-0.9c-0.1-0.1-0.2-0.1-0.3-0.1
			h-0.9l-0.4-0.8c-0.1-0.1-0.2-0.2-0.3-0.3c-0.2,0-0.3,0-0.4,0.1l-0.3,0.3c-0.1,0.1-0.2,0.3-0.2,0.5l0.1,0.4l-1.7,0.6
			c-0.1,0-0.1,0.1-0.2,0.1l0,0l-0.5-0.6l0,0l0.8-0.2c0.1,0,0.2-0.1,0.3-0.2l0.2-0.4c0.1-0.2,0.1-0.4-0.1-0.6l-0.3-0.3
			c-0.1-0.1-0.2-0.1-0.3-0.1l-0.4-0.1c-0.2,0-0.3,0-0.4,0.1l-0.7,0.7l-1.9,1.2l-1.1-0.1c-0.2,0-0.4,0.1-0.5,0.3h-0.8
			c-0.1,0-0.2,0-0.3,0.1l-0.9,0.7c-0.1,0.1-0.1,0.2-0.2,0.3l-0.3,1.5v0.3l-0.4,0.1c-0.1,0-0.1,0.1-0.2,0.1l-1.2,1.1h-0.6
			c0,0,0,0-0.1,0c0,0,0-0.1-0.1-0.1l-0.4-0.3l-0.5-0.5c0,0-0.1-0.1-0.2-0.1l-0.7-0.3c0,0-0.1,0-0.2,0h-0.7c-0.1-0.1-0.2-0.2-0.4-0.2
			l-0.6-0.1c-0.1,0-0.3,0-0.4,0.1l-0.5,0.4l-1,0.3c0,0-0.1,0-0.1,0.1l-0.6,0.4l-0.7,0.1l-0.2-0.2c-0.2-0.1-0.4-0.1-0.6-0.1h-0.3
			c0-0.1,0-0.3-0.1-0.4l-0.5-0.5c-0.1-0.1-0.1-0.1-0.2-0.1c0-0.1-0.1-0.2-0.2-0.2l-1.1-1.1l-0.3-0.7c0-0.1-0.1-0.1-0.2-0.2
			c0-0.1,0-0.2-0.1-0.3l-0.1-0.1V141l0.2-0.3c0.1-0.1,0.1-0.3,0.1-0.4l-0.1-0.3l0.1-0.6h0.1c0.2-0.1,0.2-0.3,0.2-0.5v-0.8l-0.1-0.3
			v-0.7l0.2-0.6l0.3-0.5c0.1-0.1,0.1-0.3,0.1-0.4l-0.1-0.5l0.1-0.3c0-0.1,0-0.3-0.1-0.4c0,0,0,0-0.1,0c0-0.2,0-0.3-0.1-0.4l-0.1-0.1
			c-0.1,0-0.1-0.1-0.2-0.1l-0.5-0.2l-0.5-0.4l-0.5-0.3c-0.1,0-0.1-0.1-0.2-0.1l-0.9-0.2c-0.1,0-0.2,0-0.4,0l-0.2,0.1h-0.4l-0.4-0.1
			l-0.4-0.1c-0.1,0-0.3,0-0.4,0.1l-0.5,0.2l-0.7,0.1l-0.7-0.2c-0.1,0-0.2,0-0.2,0h-0.1c-0.1-0.1-0.2-0.1-0.3-0.1h-0.3
			c-0.1,0-0.2,0-0.3,0.1l-0.2,0.2h-0.1c-0.1-0.1-0.1-0.1-0.2-0.2c-0.2-0.1-0.4,0-0.5,0.1h-0.1l0.1-0.2h0.1c0.1,0,0.2-0.1,0.3-0.2
			l0.3-0.4c0-0.1,0.1-0.1,0.1-0.2l0.2-0.8c0-0.1,0-0.2,0-0.4l0.1-0.4c0-0.1,0-0.3,0-0.4v-0.1l0.2-0.6V129v-0.2c0.1,0,0.1,0,0.2,0
			c0.2,0,0.3-0.2,0.4-0.3l0.5-1.7c0.1-0.2,0-0.4-0.1-0.5l-0.1-0.1l0.3-0.9l0.8-1c0.1-0.1,0.1-0.2,0.1-0.3v-0.7c0-0.2,0-0.3-0.2-0.4
			l-0.3-0.2c-0.1-0.1-0.3-0.1-0.4-0.1l-0.9,0.1l-1.5-0.1h-0.1l-1.9,0.4l-1.1,0.4c-0.1,0-0.2,0.1-0.2,0.2l-0.2,0.4
			c0,0.1-0.1,0.1-0.1,0.2l-0.1,1.4l-0.4,1l-0.9,0.6l-2.3,0.6L128,128l-1.3,0.4l-0.5-0.6c-0.1-0.1-0.1-0.1-0.2-0.1l-1.7-0.5l-0.6-0.7
			l-0.4-1c0,0,0-0.1-0.1-0.1l-1.1-1.3l-0.3-1.3c0-0.1,0-0.1-0.1-0.1l-0.5-0.8l-0.3-0.9l0.2-0.9l0.1-2.4l0.3-1.3l0.5-1.3
			c0-0.1,0-0.2,0-0.3l0,0c0.1-0.1,0.1-0.3,0-0.5l-0.2-0.3l-0.1-0.8v-1.3l0.4-0.8l0.8-0.8l1.7-0.8c0,0,0.1,0,0.1-0.1l1.5-1.4l1.3-0.4
			l1-0.1l1.1,0.4c0.1,0,0.2,0,0.2,0l1.3-0.2l1.1,0.9c0.1,0.1,0.2,0.1,0.3,0.1l1.1,0.1c0.1,0,0.2,0,0.3-0.1l0.5-0.3l0.4,0.2
			c0.2,0.1,0.4,0,0.6-0.1c0.1-0.1,0.2-0.2,0.2-0.4c0-0.1,0-0.3-0.1-0.4l-0.1-0.1V107c0-0.1,0-0.2-0.1-0.3l-0.1-0.2l0.4-0.2l1.2-0.1
			l1.5,0.2h0.1l1.8-0.2l1,0.4l0.8,0.8c0.1,0.1,0.1,0.1,0.2,0.1l0.2,0.1c0.1,0,0.3,0,0.4,0l1.5-0.8l0.5,0.2l1.2,1.5l0.4,1l-0.3,1.1
			c0,0.1,0,0.2,0,0.3l0.3,0.8l1.7,3c0,0.1,0.1,0.1,0.2,0.2l0.5,0.3l0.2,0.6c0,0.2,0.2,0.3,0.3,0.3l0.7,0.2h0.1c0.1,0,0.1,0,0.2,0
			l0.4-0.2c0.1-0.1,0.2-0.2,0.2-0.3l0.4-1v-0.1l0.1-2c0-0.1,0-0.1,0-0.2l-0.8-2.1v-0.8c0-0.1,0-0.2-0.1-0.2l-0.7-1.2l-0.6-1.7
			l-0.3-1.3l0.2-1.3l0.7-1.1l0.9-0.9l1.9-1.3c0.1-0.1,0.2-0.1,0.2-0.2l0.2-0.6l0.8-0.6l0.7-0.1c0.1,0,0.2-0.1,0.3-0.2l1-1.1l1.6-0.6
			c0.1,0,0.2-0.1,0.2-0.2l1-1.4c0.1-0.1,0.1-0.2,0.1-0.3l-0.2-2.1l-0.1-0.6c0-0.2-0.2-0.3-0.3-0.4l0,0c0.1-0.1,0.2-0.2,0.2-0.3
			l0.3-0.9c0.2,0,0.4,0,0.5-0.2l0.8-1.3c0.1-0.1,0.1-0.2,0.1-0.3v-0.7c0-0.1-0.1-0.3-0.2-0.4l-0.3-0.3v-0.2h0.1
			c0.1,0.2,0.2,0.3,0.4,0.3s0.4,0,0.5-0.2l1-1.3c0-0.1,0.1-0.1,0.1-0.2l0.3-1.4c0-0.1,0-0.3-0.1-0.4c0,0,0,0,0-0.1h0.1h0.8h0.1
			l2-0.6c0.2,0,0.3-0.2,0.3-0.4c0-0.2,0-0.4-0.2-0.5l-0.1-0.1l0.4-0.1l1.2-0.4h0.7c0.1,0,0.1,0,0.2,0l0.9-0.3
			c0.2-0.1,0.4-0.3,0.3-0.5c0-0.2-0.2-0.4-0.5-0.4h-0.5l-0.5-1v-1.1l1.1-1.8l1.8-0.7l1.8-0.8l1.7-1.1c0.2-0.1,0.3-0.4,0.2-0.6
			l-0.1-0.3l1.5-0.2l1.8-0.1l-2,1.4c-0.1,0.1-0.2,0.3-0.2,0.4l0.1,1.7c0,0.2,0.2,0.4,0.4,0.5l1,0.1c0.1,0,0.3,0,0.4-0.1l1.8-1.6
			l1.6-0.9l3.8-1.4c0,0,0.1,0,0.1-0.1l1.9-1.4c0.1-0.1,0.2-0.2,0.2-0.4c0-0.2-0.1-0.3-0.2-0.4L185,71l-0.1-1.1
			c0-0.2-0.2-0.4-0.4-0.4c-0.2-0.1-0.4,0-0.5,0.2l-1.3,2.2l-2.6,0.3l-2-1.1l-0.5-1.7l-0.5-2.6l1.4-1.5c0.1-0.1,0.1-0.2,0.1-0.4
			c0-0.1-0.1-0.3-0.2-0.4l-1.3-1.1c-0.1-0.1-0.2-0.1-0.4-0.1l-2.4,0.2c-0.1,0-0.1,0-0.2,0.1l-3.5,2.1l-0.1,0.1l-2.7,3.2l-0.4,0.1
			l1.4-1.6l2.4-3.3l2.1-1.1c0.1,0,0.1-0.1,0.2-0.1l1.3-1.8l1.6-0.2h2.5l3.7,0.6h0.2l2.8-0.4c0.1,0,0.2-0.1,0.3-0.2l2.1-2.1l2.7-0.9
			c0,0,0.1,0,0.1-0.1l2.4-1.9c0.1-0.1,0.2-0.2,0.2-0.4l-0.1-3c0-0.1,0-0.2-0.1-0.2l-0.6-1c-0.1-0.1-0.2-0.2-0.3-0.2l-1.1-0.3
			l-0.6-2.2c0-0.1-0.1-0.2-0.2-0.2l-1-0.9c0,0-0.1-0.1-0.2-0.1l-2.6-0.7l-1.5-1.7l-2.1-1.6l0.6-1.7c0-0.1,0-0.3,0-0.4l-1.9-3.8
			l-2.2-4.2l-1.2-2.7c-0.1-0.2-0.2-0.3-0.4-0.3s-0.3,0.1-0.5,0.2l-0.9,1.3V32l-1.6,3.6l-2.2,1.6l-1-1.6c-0.1-0.1-0.2-0.2-0.3-0.2
			l-1.3-0.4l-0.5-4v-2.8c0-0.3-0.2-0.5-0.5-0.5l-2.7-0.2l-0.4-1.2c0-0.1-0.1-0.1-0.1-0.2l-2.1-2.1l-1.5-1.1c-0.2-0.1-0.4-0.1-0.6,0
			l-1.2,0.8l-1.6-0.3l-2.9-1c-0.2,0-0.3,0-0.5,0.1l-1,0.7c-0.2,0.1-0.2,0.3-0.2,0.5l0.6,5.6l0.7,3l-1.9,3.3c-0.1,0.2-0.1,0.4,0,0.6
			l1.9,2.3l1.1,2.6l0.1,2l-0.9,2l-1.9,2l-2.5,1.3c-0.1,0.1-0.2,0.2-0.3,0.3c0,0.1,0,0.3,0.1,0.4l1,1.3l0.9,4.4l-0.9,2.7l-1,0.7
			l-2.3-2.4l-1.2-3l-0.5-2.9l0.3-2.4c0-0.3-0.2-0.5-0.4-0.5l-1.7-0.3l-2.7-0.2l-1.8-1.2c0,0-0.1,0-0.1-0.1l-2-0.8l-1.2-1.4l-0.1-0.1
			l-1.7-1.2h-0.1l-3.1-1.3c-0.1,0-0.2-0.1-0.3,0l-2.1,0.5l-0.7-2.1l-0.8-2.9c0-0.2-0.2-0.3-0.4-0.4l-2.2-0.5l0.1-3.6l0.6-2.6l1.8-4
			l2-2.9l1.7-0.4c0.2-0.1,0.4-0.2,0.4-0.5l0.1-2.2l1.2-1.5l2.2-0.2c0.1,0,0.3-0.1,0.4-0.2l1.9-2.6c0,0,0.1-0.1,0.1-0.2l0.5-1.7
			l1.7-3.5V8.8l0.4-1.7l1.3,1c0.1,0.1,0.3,0.1,0.4,0.1l2.2-0.6c0.1,0,0.2-0.1,0.2-0.1l3.3-2.9c0.1-0.1,0.1-0.2,0.2-0.3l0.2-2
			c0-0.1,0-0.2-0.1-0.3l-0.8-1.7H140l-0.1,0.2l-1.5,2.8l-1.3-2.5l0.1-0.5h-13.1l-0.3,1.2V0.1h-4.6l0.1,0.7l-2.1-0.1c0,0-0.1,0-0.2,0
			l-2.5,0.7l-1.9-1.3h-9.9l0.5,0.5l-1.5,1.8l-1.5-2.2c0,0,0-0.1-0.1-0.1C100,0,99.8,0,99.6,0.1l-0.1,0.1l-1.1,0.6l-4.5,0.5l-2.6-0.8
			l0.3-0.3h-87h0.1l1.6,1.9l1.2,2.2c0,0.1,0.1,0.1,0.1,0.2l2,1.6l1.1,2.2H7.9l0.2-1.6c0-0.1,0-0.3-0.1-0.4c-0.1,0-0.2-0.1-0.4-0.1
			H6.5c-0.1,0-0.2,0-0.2,0.1L2.4,8.4L0.2,10C0.1,10.1,0,10.2,0,10.3s0,0.3,0.1,0.4l2,2.2l0.7,1.5c0.1,0.1,0.2,0.2,0.3,0.3l2.4,0.9
			c0.1,0,0.2,0,0.3,0L8,15.2l1,0.7C9.1,16,9.2,16,9.4,16c0.1,0,0.2-0.1,0.3-0.2l0.4-0.6l1.7-0.8h0.3l-0.7,0.9
			c-0.1,0.1-0.1,0.2-0.1,0.4c0,0.1,0.1,0.3,0.2,0.3l0.7,0.5l0.3,1.5l-1.1,1l-1-0.3c-0.2,0-0.4,0-0.5,0.2l-1.2,1.5l-0.9-0.5
			c-0.1,0-0.2-0.1-0.3,0L6.3,20c-0.2,0-0.3,0.2-0.4,0.3L5.4,22L4,24l-0.1,0.1L3.3,26c0,0.2,0,0.4,0.1,0.5l1.2,1.3v1.8
			c0,0.2,0.1,0.3,0.2,0.4l1,0.7l1.4,1.5c0.1,0.1,0.3,0.2,0.5,0.1l2-0.3l0.9,1l-0.3,1c0,0,0,0.1,0,0.2l0.1,1.8c0,0.3,0.2,0.5,0.5,0.5
			h0.8c0.1,0,0.2,0,0.3-0.1l1.3-1l0.3,0.8c0.1,0.2,0.3,0.3,0.5,0.3s0.4-0.1,0.5-0.3l0.1-0.2l0.6,1c0.1,0.1,0.2,0.2,0.4,0.2
			s0.3-0.1,0.4-0.2l0.5-0.7l0.2,0.2c0.2,0.2,0.4,0.2,0.6,0.1l1.1-0.6L18,37.1v0.1l-0.3,2.3l-1.2,1l-0.1,0.1l-0.3,0.6L13.8,43
			l-0.1,0.1L13,44.3l-2,0.3c-0.1,0-0.2,0-0.2,0.1L9,46.3l-1.7,1l-1.7,1.3c-0.2,0.2-0.3,0.4-0.1,0.6l0.1,0.2c0.1,0.2,0.3,0.3,0.4,0.3
			s0.1,0,0.1,0l2.7-0.8c0,0,0.1,0,0.2-0.1l1.4-1l1.7-1l1.5-0.8l1,0.2c0.1,0,0.3,0,0.4-0.1l1.9-1.2c0.1-0.1,0.2-0.2,0.2-0.2l0.5-1.3
			l2.5-1.5c0.1-0.1,0.2-0.2,0.2-0.3l0.4-1.2l1.7-0.9l1.8-1.3l0.1-0.1l1.5-2.2c0.1-0.2,0.1-0.4,0-0.6l-1-1.3l2.3-2.2l0.1-0.1l1.1-2.2
			l0.4-0.3c0,0-0.1,0.1-0.1,0.2l-0.8,3.3c0,0,0,0.1,0,0.2l0.2,1.7c0,0.2,0.1,0.3,0.2,0.4c0.1,0.1,0.3,0.1,0.4,0l1.6-0.6
			c0,0,0.1,0,0.1-0.1l1.4-1.1l1.9-0.7l0.8-0.2c0.2-0.1,0.4-0.3,0.4-0.6l-0.3-2l1.5-0.6l2,1.4l3.3,1.5c0.1,0,0.2,0,0.3,0l2.2-0.3
			l4.5,1.8l3.5,3.4l0.1,0.1l1.9,0.9c0.1,0,0.1,0,0.2,0l2.6,0.1l1.5,0.2l0.8,2.8c0,0.1,0.1,0.1,0.1,0.2l2.1,2.4l0.5,2.5
			c0,0.1,0.1,0.3,0.2,0.3l1.4,0.9l0.8,0.9c0,0,0.1,0.1,0.2,0.1v1.3c0,0.1,0.1,0.2,0.1,0.3l1.9,2l0.3,2.1c0,0.2,0.1,0.3,0.3,0.4
			l1.9,1l-0.2,1.5c0,0.1,0,0.2,0,0.3l0.9,2.3c0,0.1,0.2,0.2,0.3,0.3l2,0.7L71,60.4L69.9,60l-1.6-0.5c-0.1,0-0.3,0-0.4,0
			s0.1,0.1,0.1,0.2L67.9,60c0,0.1,0,0.2,0,0.3l0.6,1.3c0.1,0.1,0.2,0.2,0.3,0.3l1.5,0.4l0.2,0.6c0,0.1,0.1,0.2,0.2,0.2l1.4,0.8
			l0.4,0.8c0,0.1,0.1,0.2,0.2,0.2l1.8,0.7c-0.1,0.1-0.2,0.1-0.2,0.2L74.2,66c-0.1,0.1-0.1,0.3,0,0.4l0.4,1l0.5,2.1l0.3,3.2L75,77
			l-0.7,2.2c0,0.1,0,0.2,0,0.3l0.5,1.6l0.1,1.9l-0.3,1.8c0,0.1,0,0.3,0.1,0.4l0.8,1.1l0.2,1.7c0,0.1,0,0.2,0.1,0.2l1.3,1.9l0.6,0.6
			V91c0,0.1,0,0.2,0,0.3l1.4,2.9c0,0,0,0.1,0.1,0.1l1.6,2l0.2,1c0,0.1,0.1,0.2,0.2,0.3l0.3,0.2c0.1,0.1,0.1,0.1,0.2,0.1l1.4,0.2
			l0.5,0.5c0.1,0.1,0.2,0.1,0.3,0.1l0.7,0.1l0.1,0.3c0,0.2,0.2,0.3,0.3,0.3l0.6,0.2l1,1.1l0.2,0.8c0,0.1,0.1,0.2,0.1,0.2
			c0,0.1,0,0.2,0,0.2l0.6,1.6l2,4c0,0.1,0.1,0.2,0.2,0.2l0.9,0.5l1.2,1.3v0.6l-0.5,0.5H91c-0.2,0-0.4,0.1-0.5,0.2
			c-0.1,0.2-0.1,0.4,0.1,0.6l0.8,0.8c0.1,0.1,0.1,0.1,0.2,0.1l1,0.4l0.2,0.3c0.1,0.1,0.2,0.2,0.4,0.2c0.1,0,0.2,0,0.2-0.1l1.7,1.2
			l0.2,0.8v1.2c0,0.2,0.1,0.4,0.3,0.5l0.7,0.4l1.2,0.9l1.1,1l0.4,1c0.1,0.2,0.3,0.3,0.5,0.3c0.1,0,0.3,0,0.4-0.1l0.6-0.6
			c0.1-0.1,0.1-0.2,0.2-0.3v-0.2c0-0.1,0-0.3-0.1-0.4l-1.2-1.6c-0.1-0.1-0.2-0.2-0.3-0.2h-0.5l-0.1-0.7c0-0.1,0-0.1,0-0.2l-0.5-0.9
			l-0.5-0.8l-0.5-1.7c0-0.1-0.1-0.2-0.1-0.2l-1-0.9l-0.3-0.6l-0.1-0.1l-0.4-0.4l-0.3-1c0-0.2-0.2-0.3-0.4-0.4l-0.1-0.4
			c0-0.1-0.1-0.2-0.2-0.3l-0.1-0.1l-0.2-0.4c0,0,0-0.1-0.1-0.1l-1.2-1.3l-0.6-0.8l-0.2-1.5l-0.2-0.8l0.1-0.4l0.6,0.3
			c0.1,0,0.2,0.1,0.3,0h0.4l1,0.6v0.5c0,0.1,0,0.1,0,0.2l0.6,1.6l0.9,1.4v0.5c0,0.1,0.1,0.2,0.1,0.3l0.8,0.9l0.9,1
			c0.1,0.1,0.2,0.1,0.3,0.1l0.7,0.1l0.4,1.1c0,0.1,0.1,0.2,0.1,0.2l1,0.9c0,0,0.1,0,0.1,0.1l0.6,0.3l-0.2,0.9c0,0.1,0,0.3,0.1,0.4
			l0.2,0.3c0,0.1,0.1,0.1,0.2,0.2l1.4,0.7l0.8,1.1l0.1,0.1l1.6,1.4l1.5,1.8l0.6,0.9l0.1,0.6c0,0.1,0,0.1,0.1,0.2l0.5,0.7v0.4
			l-0.2,0.3c-0.1,0.1-0.2,0.3-0.1,0.5v0.1l0,0c-0.1,0-0.2,0.1-0.3,0.3s-0.1,0.3,0,0.4l0.3,0.7c0,0,0,0.1,0.1,0.1l0.8,1.1
			c0,0.1,0.1,0.1,0.2,0.1l1.8,1l0.6,0.7c0.1,0.1,0.1,0.1,0.2,0.2l1.7,0.5h0.1l0.8,0.1l0.3,0.4l0.1,0.1l1.5,0.9l1.9,0.8h0.1l1.2,0.2
			l1.6,0.8h0.1l1.2,0.3l1.2,0.4c0.1,0,0.2,0,0.3,0l0.8-0.2h0.1l1.2-0.6l0.9-0.1l1.3,0.4l0.8,0.5l1.7,1.6c0.1,0.1,0.2,0.1,0.3,0.1
			c0,0.1,0.1,0.2,0.2,0.3l0.8,0.7c0,0,0.1,0,0.1,0.1l0.7,0.3c0.1,0,0.1,0,0.2,0h0.9l0.7,0.2h0.1l0,0c0,0,0,0.1,0.1,0.1l0.3,0.3
			c0.1,0,0.2,0.1,0.2,0.1l0.8,0.1l0.7,0.3h0.1l0.6,0.2h0.1h0.8l0,0c0.2,0,0.4-0.1,0.5-0.3v-0.1h0.2l0.1,0.2
			c-0.1,0.1-0.2,0.1-0.2,0.3s0,0.4,0.1,0.5l0.5,0.5l0.7,0.5l0.3,0.5c0,0,0,0.1,0.1,0.1l1.1,1c-0.1,0.1-0.1,0.2-0.1,0.3
			c0,0.2,0.1,0.3,0.2,0.4l-0.1,0.3c0,0.1,0,0.1,0,0.2v0.4c0,0.1,0,0.2,0.1,0.3l0.2,0.2c0.1,0.1,0.2,0.2,0.3,0.2l0.4,0.1l0.2,0.2
			c0.1,0.1,0.2,0.2,0.4,0.2c0.1,0,0.3-0.1,0.4-0.2l0.1-0.1c0,0.2,0.2,0.3,0.3,0.3l1.1,0.5l0.4,0.4v0.2v0.1c-0.1,0.2-0.1,0.5,0.1,0.6
			l0.2,0.2c0,0,0.1,0.1,0.2,0.1l0.7,0.3c0.1,0,0.1,0,0.2,0c0.1,0,0.1,0,0.2,0l0,0c0.1,0,0.1,0.1,0.2,0.1h0.6l0.4,0.2h0.1l0.5,0.1
			l0.2,0.5c0.1,0.1,0.2,0.2,0.4,0.3l0.3,0.1c0.1,0,0.2,0,0.2,0l0.1,0.4c0.1,0.2,0.3,0.4,0.5,0.4l0,0l0.5-0.1c0.1,0,0.2-0.1,0.3-0.1
			l0.2-0.2l0.2-0.1c0.1-0.1,0.2-0.2,0.3-0.4c0-0.1,0-0.3-0.1-0.4l-0.5-0.6l0.2-0.1c0.1,0,0.1,0,0.2-0.1l0.6-0.4
			c0.1,0,0.1-0.1,0.2-0.2l0.2-0.4l0.5-0.1l0.7,0.4l0.2,0.4c0,0.1,0.1,0.2,0.2,0.2l0,0c-0.1,0.1-0.2,0.3-0.1,0.5l0.3,0.8
			c0,0.1,0.1,0.1,0.1,0.2l0.3,0.2c0.1,0,0.1,0.1,0.2,0.1c0,0,0,0.1,0.1,0.2l0.6,0.8l0.2,1.2l-0.2,0.3c-0.1,0.1-0.1,0.3-0.1,0.4
			l0.3,1.4l-0.2,0.8c-0.1,0.2,0,0.5,0.2,0.6l0.2,0.1l-1.1,1.6l-0.6,0.1c-0.1,0-0.3,0.1-0.3,0.2l-0.3,0.5c-0.1,0.1-0.1,0.2-0.1,0.3
			v0.5h-0.1c-0.1,0-0.3,0.1-0.3,0.3c-0.1,0.1-0.1,0.3,0,0.4l0,0l-0.9,0.5l-0.8,0.3c-0.2,0.1-0.4,0.3-0.3,0.5l0.1,0.4l-0.6,1v0.1
			l-0.3,0.9l-0.3,0.1c-0.2,0.1-0.3,0.3-0.3,0.5l0.2,1.3l-0.1,0.2c-0.1,0.1-0.1,0.2-0.1,0.4s0.1,0.2,0.2,0.3l0.7,0.5
			c0.2,0.2,0.5,0.1,0.7-0.1l0.2-0.3l0.1,0.2l-0.8,1v0.1c-0.1,0-0.1,0-0.2,0.1l-1.1,0.9c-0.1,0.1-0.1,0.1-0.2,0.2l-0.5,1.1
			c-0.1,0.1-0.1,0.3,0,0.4l0.7,1.4l-0.3,0.4c-0.1,0.1-0.1,0.3-0.1,0.4c0,0.1,0.1,0.3,0.2,0.3l0.9,0.5l1.3,1.1l0.5,1.2
			c0,0,0,0.1,0.1,0.1l0.6,0.7l1.6,3.5l1.7,3.2l1.3,2.1l-0.1,0.3c-0.1,0.1-0.1,0.3,0,0.5l0.6,1.3c0,0.1,0.1,0.1,0.1,0.2l1.3,1.1
			l3.1,1.9l0,0l3.3,1.7l0.1,0.5c0,0.1,0.1,0.2,0.2,0.3l1.5,0.9l0.3,2.3l0.1,2.9l-1.1,8.1l-0.3,3.6l-1,2.3c0,0.1,0,0.2,0,0.2l0.2,2.3
			l-0.5,1.5c0,0.1,0,0.1,0,0.2l0.4,2.9l-0.7,2.9l-1.2,3.4l-1,3.2H162c-0.3,0-0.5,0.3-0.5,0.5l0.1,2.3l0.5,2l-0.7,1.4
			c0,0.1-0.1,0.1-0.1,0.2l-0.6,4.1l-0.5,3.1c0,0.2,0.1,0.5,0.3,0.6l0.7,0.2c0.1,0,0.3,0,0.4-0.1c0.1-0.1,0.2-0.2,0.2-0.3l0.4-2.3
			l0.6,0.3l-0.8,4.3l-1.3-0.6c-0.1-0.1-0.3,0-0.4,0c-0.1,0.1-0.2,0.2-0.3,0.4l-0.5,3.7l-1.4,1.9c-0.1,0.1-0.1,0.3-0.1,0.5
			c0.1,0.1,0.2,0.3,0.3,0.3l1.9,0.5l-1.5,1.6c0,0.1-0.1,0.1-0.1,0.2l-0.7,2.4c0,0,0,0.1,0,0.2l0.2,4.4c0,0.1,0,0.1,0,0.2l0.8,1.6
			l-0.4,1.4c0,0.1,0,0.2,0,0.3l0.5,1.6c0,0.1,0.1,0.2,0.2,0.2l2,1.5l0.2,0.2h-0.1c0,0-0.1,0-0.1-0.1l-0.7-0.3
			c-0.2-0.1-0.5,0-0.6,0.2s-0.1,0.4,0,0.6l1.9,2.6c0,0,0,0,0.1,0.1l1.8,1.6l2.1,1.6c0,0,0.1,0.1,0.2,0.1l1.7,0.4l1.2,0.8
			c0,0,0.1,0.1,0.2,0.1l1,0.2l0.8,0.1l0,0c0.1,0,0.2,0,0.3-0.1l1.4-0.9c0.1,0,0.1-0.1,0.2-0.2l0.4-0.7l0.5,0.6
			c0.1,0.1,0.2,0.2,0.4,0.2l0,0l1.4-0.1c0.2,0,0.3-0.1,0.4-0.3l0.6-1.2c0.1-0.1,0.1-0.3,0-0.4s-0.2-0.2-0.3-0.3l-2.1-0.7L172,268
			l-0.8-2.1l-0.3-0.5c-0.1-0.1-0.2-0.2-0.4-0.3v-0.2c0-0.2-0.2-0.4-0.4-0.5l-1-0.3c-0.1,0-0.3,0-0.4,0.1l0.2-0.2
			c0.1,0,0.2-0.1,0.2-0.2l1.3,0.3h0.1c0.2,0,0.3-0.1,0.4-0.2c0.1-0.2,0.1-0.4,0-0.6l-0.8-1.1l-0.5-2.7l0.6-1.1l1.5-1
			c0.1-0.1,0.1-0.2,0.2-0.2l1.1-2.9l1.9-1.4c0.1-0.1,0.2-0.2,0.2-0.3l0.5-2c0.1-0.3-0.1-0.5-0.3-0.6l-1.4-0.4l-1.5-1.6l0.4-1.6
			l1.2-1.1h1.3c0.2,0,0.4-0.1,0.5-0.3l0.4-1.2l0.2-2.2l1.3-1.3l1.3-0.6c0.2-0.1,0.4-0.4,0.2-0.7l-0.3-0.8c-0.1-0.1-0.2-0.2-0.3-0.3
			c-0.2,0-0.3,0-0.4,0.1l-0.6,0.4l-0.9-0.5l-0.2-2l0.4-0.4l1.4,0.7c0.1,0,0.2,0.1,0.3,0l1.6-0.3c0.1,0,0.2,0,0.2-0.1l0.9-0.7
			c0.2-0.1,0.2-0.3,0.2-0.5l-0.3-0.9l0.3-1.5c0-0.1,0-0.2,0-0.2l-0.2-0.8l1.5,0.2h0.1l3.4-0.5h0.1l2.5-1.1c0.1,0,0.2-0.1,0.2-0.2
			l1.6-2.7c0-0.1,0.1-0.1,0.1-0.2l0.1-0.9c0-0.2-0.1-0.3-0.2-0.4l-0.9-0.7l0.2-1.2c0-0.2,0-0.4-0.2-0.5l-2-1.6v-0.3l0.5,0.6
			c0.1,0.1,0.2,0.2,0.4,0.2l1-0.1l1.4,0.8c0.1,0.1,0.2,0.1,0.4,0l0.8-0.2l1.1,0.4c0,0,0.1,0,0.2,0c0.1,0,0.2,0,0.2-0.1l1.8-1.1
			c0.1,0,0.1-0.1,0.2-0.2l0.7-1.2v-0.1c0.1,0,0.1-0.1,0.2-0.1l0.9-0.9c0,0,0.1-0.1,0.1-0.2l0.7-1.8l1.2-0.9l1.5-1.5l0.1-0.1l1.8-3.4
			l1.2-1c0.1,0,0.1-0.1,0.1-0.2l0.4-0.9V209l0.3-1.9c0-0.1,0-0.1,0-0.2l-0.3-1l0.2-1.3l1.3-1.8l2-1.5l1.8-0.5c0.1,0,0.1,0,0.2-0.1
			l1.1-0.8l2.6-0.7h1.7c0.2,0,0.4-0.1,0.5-0.3l0.3-0.9l1.2-0.7c0.1-0.1,0.2-0.2,0.2-0.3l0.3-1.7l1.7-2.3c0-0.1,0.1-0.1,0.1-0.2
			l0.3-2.3l0.5-0.6c0-0.1,0.1-0.1,0.1-0.2l0.7-3.9v-0.1l-0.1-3.2l0.4-1.1h0.2c0.1,0,0.2-0.1,0.3-0.2l1.3-1.5l1-1.9l2.5-2.5l0.8-1.1
			c0.1,0,0.1-0.1,0.1-0.2l0.7-2.8C229.1,173,229.1,172.9,229,172.8z M142.4,72.5l-0.2,0.6l-0.2,0.1c-0.1,0.1-0.2,0.2-0.2,0.3
			l-0.1,0.3l0,0c-0.2-0.1-0.3,0-0.5,0.1l-0.4,0.3c0,0-0.1,0.1-0.1,0.2l-0.4,0.8l-0.4,1.1v0.1l-0.1,0.9c0,0.1,0,0.2,0,0.2l0.5,1.4
			l-0.1,1.4l-0.6,1l-0.3,0.3l-0.4,0.2h-0.4l0,0l-0.4-1.1v-0.5v-0.6v-0.1l-0.2-1l0.7-2.9l0.5-1c0.1-0.2,0-0.5-0.2-0.6
			c-0.1-0.1-0.2-0.1-0.3-0.1l0.7-1.1l1.1-0.2l1.2-0.5l0.8,0.2C142.5,72.4,142.4,72.4,142.4,72.5z M152.4,77.8l0.4-0.2l1.2-0.3
			l1.3-0.3l0.5,0.3c0.2,0.1,0.5,0.1,0.6-0.1l0.3-0.3l0.4-0.2l0.1,0.1v0.1l0.1,0.1l0.1,0.7l-1,0.6L155,78l-1.3-0.1
			c-0.1,0-0.1,0-0.2,0l-0.6,0.2c-0.1,0-0.1,0-0.2,0.1c-0.1,0-0.1,0-0.2,0l-0.3,0.1l-0.2-0.1L152.4,77.8z M151.6,79.7l0.8-0.2l-1,1
			l-1.2,0.6l-0.9,0.3c0,0-0.1,0-0.1,0.1l-0.9,0.6l-1.2,0.3l-0.7-0.1l-0.7-0.3l0.3-0.5h0.1l0.6,0.1c0,0,0,0,0.1,0s0.2,0,0.2-0.1
			l1.3-0.8l0.7-0.6l0.4-0.1l0.8,0.2c0.2,0,0.3,0,0.4-0.1l0.3-0.2L151.6,79.7z M144.3,72.2c0.2,0,0.3-0.1,0.4-0.3
			c0.1-0.2,0-0.4-0.1-0.5l0,0l1.1,0.3h0.1h1.2l1.4,0.2l1.5,0.4l0.5,0.7l1,1.7l-0.3,0.5l-1.1-0.3l-0.3-0.5c-0.1-0.2-0.4-0.3-0.6-0.2
			c-0.2,0.1-0.4,0.3-0.3,0.5l0.1,0.4l-0.7,1.2c-0.1,0.1-0.1,0.2-0.1,0.3l0.1,1l-0.1,0.5l-0.7,0.5v-0.5l-0.3-1.2
			c0-0.2-0.2-0.3-0.3-0.4l-0.4-0.1c-0.2-0.1-0.4,0-0.5,0.1l-0.8,0.8v-0.2l0.8-0.8c0.1-0.1,0.1-0.2,0.1-0.3l0.1-1v-0.1l-0.1-1
			c0-0.1-0.1-0.2-0.2-0.3l-1.2-0.9c0,0-0.1,0-0.1-0.1l-0.8-0.3L144.3,72.2z M133.1,68l1.3-0.6c0.1-0.1,0.2-0.2,0.2-0.3
			c0.2,0,0.4,0,0.5-0.2l0.6-0.8l0.8-0.3c0.1,0,0.2-0.1,0.2-0.2L137,65l0.3-0.2l1.4,0.5h0.1h1l0.3,0.2l0.5,1.3
			c0.1,0.2,0.2,0.3,0.4,0.3l1.5,0.3l-0.1,0.3c-0.1,0.2,0,0.4,0.1,0.5l0.5,0.5l-0.2,0.6c-0.1,0.2,0,0.5,0.3,0.6l0.3,0.1l-0.2,0.3
			c0,0,0,0,0,0.1H143l-0.2-0.4c-0.1-0.2-0.3-0.3-0.5-0.3l-1.5,0.2h-0.1l-1.3,0.5l-1-0.8c0,0-0.1-0.1-0.2-0.1l-0.6-0.2l0.2-0.5
			c0.1-0.2,0-0.4-0.1-0.6c-0.2-0.1-0.4-0.2-0.6-0.1l-2.3,1.4l-1.2,0.6l-0.8-0.7c-0.1-0.1-0.3-0.1-0.5-0.1l-1,0.3L133.1,68z
			 M28.8,28.8l1.3-1.2l0.2,0.3L28.8,28.8z M78.3,68.5l-0.7-1.8c0-0.1-0.2-0.2-0.3-0.3L76.1,66l0.4-0.2c0.1,0,0.2-0.2,0.3-0.3
			c0-0.1,0-0.3,0-0.4L76.2,64c0-0.1-0.1-0.1-0.2-0.2l-1.6-1l-1.1-1.6l0.8,0.7l3.2,2.5c0,0,0.1,0.1,0.2,0.1v0.1l0.5,1.8L78.3,68.5
			L78.3,68.5z M167.7,266.9c-0.1,0.1-0.1,0.2-0.2,0.3L167,269l-0.1,0.1l0.2-1.8l0.9-0.6L167.7,266.9z"/>
		<path class="st0" d="M192.7,57c-0.1,0-0.2,0-0.3,0.1L191,58c-0.1,0-0.1,0.1-0.1,0.1l-1,1.5v0.1l-1.7,4.1l-1.3,1.4
			c-0.2,0.2-0.2,0.5,0,0.7l0.4,0.3l-0.7,0.6c-0.2,0.1-0.2,0.4-0.2,0.5l0.2,0.5c0.1,0.2,0.3,0.3,0.5,0.3l3.2,0.1l1.8-0.1l1.1,0.4
			l-0.6,0.5c-0.1,0.1-0.2,0.3-0.1,0.5c0.1,0.2,0.2,0.3,0.4,0.3h0.5c0.2,0,0.3,0,0.4-0.2l1.7-1.9l0.1,0.1l-0.3,1.7
			c0,0.2,0.1,0.5,0.3,0.5l0.9,0.4c0.1,0,0.1,0,0.2,0c0,0,0,0,0.1,0l0.6-0.1c0.2,0,0.4-0.2,0.4-0.3l0.7-2c0-0.1,0-0.2,0-0.3l-0.5-1.5
			l-0.2-1.1c0-0.1-0.1-0.3-0.2-0.4c-0.1-0.1-0.3-0.1-0.4,0l-0.4,0.2l0.3-1.2c0.1-0.2,0-0.5-0.3-0.6l-1.4-0.7
			c-0.2-0.1-0.4-0.1-0.5,0.1l-0.5,0.4l-1.1-0.5l0.3-0.4c0.1-0.1,0.1-0.3,0.1-0.4c0-0.1-0.1-0.3-0.3-0.3l-0.8-0.4
			c-0.2-0.1-0.4-0.1-0.5,0.1l1.5-2.9l0.2-0.5c0.1-0.1,0.1-0.3,0-0.4c-0.1-0.1-0.2-0.2-0.4-0.3L192.7,57z"/>
		<path class="st0" d="M278.3,43.8l0.1,2.2c0,0.2,0.2,0.4,0.4,0.5c0.2,0.1,0.4,0,0.6-0.2l0.3-0.5l0.2,0.3l-0.5,1.1
			c-0.1,0.1-0.1,0.3,0,0.4l0.3,0.6c0.1,0.1,0.2,0.2,0.3,0.3l1.9,0.5l1.1,1.7l-0.2,1.3l-2.1-0.2c-0.3,0-0.5,0.2-0.5,0.4l-0.3,1.6
			c0,0.1,0,0.2,0.1,0.3l0.7,1.2l-1.3,0.6c-0.2,0.1-0.3,0.4-0.2,0.7l0.4,0.8c0.1,0.2,0.2,0.3,0.4,0.3l1.5,0.3l-0.5,0.2
			c-0.1,0-0.1,0.1-0.2,0.1l-2.3,2.6c-0.1,0.1-0.1,0.3-0.1,0.4c0,0.1,0.1,0.3,0.2,0.4l0.6,0.3c0.1,0,0.2,0.1,0.3,0.1
			c0.1,0,0.2,0,0.3-0.1l1-0.8l1.3,0.3c0.2,0,0.3,0,0.5-0.2l0.9-1l0.5,0.3c0.1,0.1,0.3,0.1,0.4,0.1l2.8-0.7l0,0h2.2
			c0.1,0,0.3,0,0.3-0.1l1.4-1.3c0.2-0.1,0.2-0.4,0.1-0.6l-0.5-1.1l0.7-0.6c0.1-0.1,0.1-0.2,0.2-0.3l0.2-1.5c0-0.2-0.1-0.5-0.4-0.5
			l-1.8-0.5l-0.4-0.9l-1-3.2c0-0.1-0.2-0.3-0.3-0.3l-1-0.4l-1.6-3.6c-0.1-0.2-0.2-0.3-0.4-0.3l-1.2-0.1l1.3-2.4c0,0,0-0.1,0.1-0.2
			l0.4-2.3c0-0.1,0-0.3-0.1-0.4c-0.1-0.1-0.2-0.2-0.4-0.2h-1.6h-0.1l-1.1,0.3l1.3-2.6c0.1-0.2,0.1-0.4,0-0.5
			c-0.1-0.2-0.3-0.2-0.5-0.2l-1.6,0.2l-1.2-0.2c-0.2,0-0.4,0.1-0.5,0.3l-1.2,2.5v0.1l-0.6,3.2c0,0.1,0,0.2,0.1,0.3L278.3,43.8z"/>
		<path class="st0" d="M492.5,162.7l-0.2,1.3l-0.6,1c-0.1,0.1-0.1,0.3,0,0.5l0.4,0.9c0.1,0.2,0.3,0.3,0.4,0.3h0.3l0.2,1.3l-0.4,1.4
			c-0.1,0.2,0,0.4,0.2,0.6l0.5,0.4c0.1,0.1,0.2,0.1,0.3,0.1h0.1l0.8-0.2c0.2-0.1,0.4-0.3,0.4-0.5l-0.1-2.3l-0.1-1.8l0.5-0.2
			l-0.1,1.1c0,0.2,0.1,0.3,0.2,0.4l1,0.8l-0.1,0.4c-0.1,0.2,0,0.4,0.1,0.5l0.3,0.3c0.1,0.2,0.4,0.2,0.6,0.1l0.8-0.3l-0.3,0.5
			c-0.1,0.2-0.1,0.5,0.1,0.6l0.4,0.4c0.1,0.1,0.2,0.1,0.3,0.1c0.1,0,0.2,0,0.2-0.1l0.7-0.4c0.2-0.1,0.3-0.3,0.3-0.4v-0.9
			c0-0.1,0-0.2-0.1-0.3l-0.4-0.5c0,0-0.1,0-0.1-0.1v-0.1l-0.9-1.1l0.2-0.3c0.1-0.2,0.1-0.4,0-0.5l-1.3-1.8l1.1-0.5
			c0.1,0,0.1-0.1,0.2-0.2l0.6-0.8l0.3,0.1c0.1,0,0.1,0,0.2,0s0.2,0,0.3-0.1c0.1-0.1,0.2-0.2,0.2-0.3v-0.3c0-0.2,0-0.3-0.1-0.4
			s-0.3-0.2-0.4-0.1l-0.5,0.1c-0.1,0-0.1,0-0.2,0.1h-0.1l-2.1,0.4c-0.1,0-0.2,0.1-0.2,0.1l-0.7,0.6l-1.2-1.2l0.2-0.9l1.2-0.2
			l2.8-0.1l1.6,0.3c0.1,0,0.1,0,0.2,0l1.2-0.3c0.1,0,0.2-0.1,0.3-0.2l1.2-1.5c0.1-0.2,0.1-0.4,0-0.6l-0.1-0.1
			c-0.2-0.2-0.5-0.2-0.7-0.1l-1.5,1.1l-1.8,0.1l-2.1-0.2l-1.2-0.4c-0.2-0.1-0.4,0-0.5,0.1l-1.3,1.2l-0.1,0.1l-0.4,0.7L492.5,162.7z"
			/>
		<path class="st0" d="M469.6,164.4c-0.1-0.1-0.2-0.2-0.3-0.2l-1-0.1l-0.5-0.7l-0.3-1c-0.1-0.2-0.2-0.4-0.5-0.4h-0.4l-0.7-0.4l0.5-1
			c0.1-0.2,0-0.5-0.2-0.7l-1.1-0.6l-0.9-1.3l-0.1-0.1l-1.4-1.1c-0.1-0.1-0.2-0.1-0.3-0.1h-1.5l-1.5-1.7c0,0,0,0-0.1-0.1l-0.9-0.7
			l-1.3-1.1l-1.5-1.6c-0.1-0.1-0.2-0.1-0.3-0.2l-2.6-0.3h-0.8c-0.2,0-0.3,0.1-0.4,0.2c-0.1,0.1-0.1,0.3-0.1,0.4l0.1,0.6
			c0,0.1,0.1,0.2,0.1,0.3l1.8,1.9l1.2,0.9l0.8,1.4c0,0.1,0.1,0.1,0.1,0.1l1.4,1l0.6,1.2l0.5,1.4c0,0.1,0.1,0.1,0.1,0.2l1.4,1.3
			l1.3,2.4l0.9,1.3l1.2,1.3l0.7,1c0,0.1,0.1,0.1,0.1,0.1l2.1,1.3l1.4,1.4c0.1,0.1,0.2,0.1,0.4,0.1l0,0h1.6c0.3,0,0.5-0.2,0.5-0.5
			l0.1-2.4l0.4-2.1c0-0.1,0-0.3-0.1-0.4L469.6,164.4z"/>
		<path class="st0" d="M483,166.5c0.1,0,0.1,0.1,0.2,0.1l1,0.1l0.5,0.8c0.1,0.1,0.3,0.2,0.4,0.2s0.1,0,0.2,0l1.6-0.6
			c0.1,0.1,0.2,0.1,0.3,0.1c0.2,0,0.4-0.2,0.4-0.4l0.5-2v-0.1v-1.5l1.4-1c0.1-0.1,0.2-0.3,0.2-0.4l-0.1-1.4l0.5-0.9l1.4-0.1
			c0.2,0,0.4-0.2,0.4-0.4s0-0.4-0.2-0.5l-1.4-1.1l0.2-0.5c0.1-0.2,0-0.3-0.1-0.5l-1.1-1.4l0.7-1.1c0-0.1,0-0.1,0.1-0.2l0,0l1-0.5
			c0.2-0.1,0.3-0.4,0.3-0.6l-0.1-0.3h0.6c0.2,0,0.4-0.2,0.5-0.4l0.1-0.3c0-0.2-0.1-0.5-0.3-0.6l-1.2-0.4l-1-0.4l-0.1-0.5
			c0-0.1-0.1-0.2-0.1-0.3l-0.8-0.8c-0.1-0.1-0.2-0.1-0.4-0.1h-0.5c-0.2,0-0.3,0.1-0.4,0.2l-0.8,1.2l-1.3,1.1c-0.1,0-0.1,0.1-0.1,0.2
			c-0.1,0-0.2,0-0.3,0.1l-1.2,0.8l-0.5,0.5c-0.1,0.1-0.1,0.1-0.1,0.2c-0.1,0-0.1,0.1-0.2,0.1l-0.7,0.9l-1.2,1.3l-2,0.3h-0.1
			l-0.6,0.3c-0.1,0.1-0.2,0.2-0.3,0.3l-0.3,1.2l-1.1,0.3l-0.8-0.4c-0.2-0.1-0.3,0-0.5,0l0,0c-0.2,0-0.4,0-0.5,0.2l-0.7,0.8
			c-0.1,0.1-0.1,0.2-0.1,0.3l-0.2,1.5v0.1l0.2,1.4c0,0.1,0,0.1,0.1,0.2l0.8,1.4c0,0.1,0.1,0.1,0.2,0.2l0.7,0.4l0.2,2
			c0,0.2,0.2,0.4,0.4,0.4l1.3,0.2h0.1l0.9-0.1l0.4,0.6c0.1,0.2,0.3,0.2,0.5,0.2l1.8-0.5L483,166.5z"/>
		<path class="st0" d="M271.4,57.1l2.1,0.4h0.1c0.1,0,0.2,0,0.2-0.1l2.9-1.6c0.1,0,0.2-0.1,0.2-0.2l1.2-2.4c0-0.1,0.1-0.2,0.1-0.3
			L278,51l0,0c0,0,0-0.1,0.1-0.1l0.8-1.7c0.1-0.2,0-0.4-0.1-0.6l-1.7-1.7c-0.1-0.1-0.3-0.2-0.4-0.1l-1.1,0.1c-0.1,0-0.3,0.1-0.4,0.2
			l0,0c-0.1,0-0.2,0.1-0.3,0.1l-1,1.1l-2.2,2.2c-0.1,0.1-0.2,0.3-0.1,0.5l0.8,2.7l-1.2,2.6c-0.1,0.1-0.1,0.3,0,0.4
			S271.2,57,271.4,57.1z"/>
		<path class="st0" d="M263,15.8l2.1-2.9c0.1-0.2,0.1-0.4,0-0.6l-1.8-2.6l0.3-2.4c0-0.1,0-0.3-0.1-0.4s-0.2-0.2-0.3-0.2l-2.5-0.3
			c-0.1,0-0.3,0-0.4,0.1l-2.6,2.1l-1.9-1c-0.2-0.1-0.4-0.1-0.6,0.1l-2.3,2l-2.4-2.6C250.4,7,250.2,6.9,250,7l-2.4,0.6
			c-0.2,0-0.3,0.1-0.3,0.3l-1,2.4c-0.1,0.1-0.1,0.3,0,0.4s0.2,0.2,0.3,0.3l3.2,0.8v0.8l-2.3,0.6c-0.2,0.1-0.3,0.2-0.4,0.4
			c0,0.2,0.1,0.4,0.3,0.5l2.9,1.5l-1.2,1.2c-0.1,0.1-0.2,0.3-0.1,0.5c0,0.2,0.2,0.3,0.4,0.3l6.6,1.7h0.1c0.1,0,0.1,0,0.2,0l1.4-0.7
			l4.9-2.7C262.9,15.9,262.9,15.8,263,15.8z"/>
		<path class="st0" d="M537.4,75.7c-0.2-0.1-0.4,0-0.5,0.1l-0.8,0.7l-1-0.4l-1.3-0.8l-1.7-2.2c-0.1-0.1-0.3-0.2-0.5-0.2
			s-0.3,0.2-0.4,0.4l-0.4,1.6l-0.5,3l-1.5,0.1c-0.2,0-0.3,0.1-0.4,0.3l-0.8,1.6c0,0.1-0.1,0.2,0,0.3l0.2,2c0,0.3,0.2,0.4,0.5,0.4
			l0,0h1.6c0.2,0,0.4-0.1,0.5-0.3l0.8-2.1l2.2,1.3c0.2,0.1,0.5,0.1,0.7-0.2l1.3-2l2.3-0.6c0.2-0.1,0.4-0.3,0.4-0.6l-0.3-2.1
			C537.6,75.9,537.5,75.8,537.4,75.7z"/>
		<path class="st0" d="M523.7,92.4l-0.7-0.7c-0.1-0.1-0.3-0.1-0.4-0.1c-0.2,0-0.3,0.1-0.4,0.3l-1.6,3.3l-1.6-0.4c-0.1,0-0.1,0-0.2,0
			l-3.3,0.6c-0.1,0-0.2,0.1-0.3,0.2l-1.1,1.3l-1.7,1c-0.1,0-0.1,0.1-0.1,0.1l-0.8,1.2l-1.3,0.5c-0.1,0.1-0.2,0.2-0.3,0.3
			c-0.1,0.1,0,0.3,0,0.4l0.6,1.1c0,0.1,0.1,0.2,0.2,0.2l0.8,0.4l-0.3,1.5c0,0.2,0,0.4,0.1,0.5l0.6,0.6c0.1,0.1,0.2,0.1,0.3,0.1
			c0.1,0,0.2,0,0.3-0.1l0.9-0.7c0.1-0.1,0.1-0.1,0.2-0.2l1.1-3.2c0.1-0.2,0-0.4-0.1-0.5l-1.1-0.9h1.2c0.1,0,0.1,0,0.2,0l0.5-0.3
			l-0.5,0.7c-0.1,0.1-0.1,0.2-0.1,0.3v0.8c0,0.2,0.1,0.4,0.3,0.5l0.8,0.4c0.1,0,0.2,0.1,0.2,0.1c0.1,0,0.1,0,0.2,0
			c0.1-0.1,0.2-0.2,0.3-0.3l0.3-0.9l0.6-0.3l0.4,0.4c0.1,0.1,0.2,0.1,0.4,0.1c0.1,0,0.3-0.1,0.4-0.2l0.8-1c0.1-0.1,0.1-0.3,0.1-0.5
			l-0.2-0.5c0-0.2-0.2-0.3-0.3-0.3l-0.4-0.1l0.9-0.1v1.1c0,0.2,0.1,0.3,0.2,0.4l0.9,0.6c0.2,0.1,0.5,0.1,0.6-0.1l2.2-2.2l2.9-0.1
			c0.1,0,0.1,0,0.2,0l2.1-0.9c0.1,0,0.2-0.1,0.2-0.2l0.8-1.3c0.1-0.1,0.1-0.3,0.1-0.4l-0.2-0.9l0.6-1.6c0-0.1,0-0.1,0-0.2v-2.1
			l1.5-2.1c0.1-0.1,0.1-0.2,0.1-0.3V86c0-0.1,0-0.1,0-0.2l-0.9-2.9c-0.1-0.3-0.3-0.4-0.6-0.3l-1.5,0.4c-0.1,0-0.3,0.1-0.3,0.3
			l-0.6,1.3c0,0.1-0.1,0.2-0.1,0.3l0.3,2.4l-1,2.5L523.7,92.4z"/>
		<path class="st0" d="M541.9,171.8c0.1-0.1,0.1-0.3,0-0.5l-0.3-0.6c-0.1-0.1-0.2-0.2-0.3-0.3l-2.6-1l-0.2-0.8
			c0-0.1-0.1-0.2-0.1-0.2l-0.9-0.9l-1.1-0.8c0,0-0.1-0.1-0.2-0.1l-3.1-1l-2.7-1.1c-0.1,0-0.2,0-0.3,0c-0.1-0.1-0.2-0.1-0.3-0.1
			l-1.6-0.3l-1.3-0.6l-1.4-0.6c-0.1,0-0.1,0-0.2,0h-1.4c-0.1,0-0.2,0-0.2,0.1l-1.9,1c-0.1,0-0.1,0.1-0.2,0.1l-1.2,1.6l-1.4-0.8
			l-0.5-2.6v-0.1l-0.2-0.5c-0.1-0.1-0.2-0.2-0.3-0.3l-2.6-0.7c-0.1,0-0.3,0-0.4,0.1l-0.8,0.5l-1.9,0.3c-0.2,0-0.3,0.2-0.4,0.3
			c-0.1,0.2,0,0.4,0.1,0.5l0.4,0.5c0.1,0.1,0.2,0.1,0.3,0.2l1.3,0.3l0.5,0.8c0.1,0.1,0.2,0.2,0.4,0.2h0.8l-1,0.3
			c-0.2,0.1-0.3,0.2-0.3,0.4s0.1,0.4,0.2,0.5l0.8,0.5v0.5c0,0.1,0,0.2,0.1,0.3l0.3,0.5c0.1,0.2,0.3,0.3,0.5,0.2l0.4-0.1
			c0.1,0,0.2-0.1,0.3-0.2l0.3-0.5l2.3,1.4c0.1,0,0.1,0.1,0.2,0.1l1.3,0.1l3.2,1.4l0.7,1.3l0.4,1.6l-0.8,0.3c-0.1,0-0.2,0.1-0.2,0.2
			l-0.5,1c-0.1,0.2-0.1,0.3,0,0.5c0.1,0.1,0.3,0.2,0.4,0.2h1.7c0.1,0,0.3-0.1,0.4-0.2l0.2-0.3l1.5,0.3l1.1,1
			c0.1,0.1,0.2,0.1,0.3,0.1c0.1,0.2,0.2,0.3,0.4,0.3l1.5,0.1l0.9,0.3c0.1,0,0.2,0,0.3,0l1.1-0.5c0.2-0.1,0.3-0.3,0.3-0.5l-0.2-0.9
			l0.8-0.4l1.4-0.5l2,0.7l0.8,1.4c0,0,0,0.1,0.1,0.1l1,1l1.3,1.1c0.1,0.1,0.2,0.1,0.2,0.1l3,0.4l0.3,0.3c0.1,0.1,0.2,0.2,0.4,0.2
			c0,0,0,0,0.1,0l0.9-0.1c0.2,0,0.3-0.1,0.4-0.3l0.1-0.2c0.1-0.3,0-0.5-0.3-0.6l-1.3-0.5c0-0.1,0-0.1,0-0.2c0-0.2-0.2-0.4-0.4-0.4
			l-0.6-0.1v-0.3c0-0.1,0-0.3-0.1-0.4c-0.1-0.1-0.2-0.2-0.4-0.2h-0.6l-1-1.6c0-0.1-0.1-0.1-0.1-0.1l-1.4-1l-0.2-0.7l0.9-0.1
			C541.6,172,541.8,171.9,541.9,171.8z"/>
		<path class="st0" d="M497,141.8v0.5c0,0.2,0.1,0.3,0.2,0.4c0.1,0,0.2,0.1,0.2,0.1c0.1,0,0.1,0,0.2,0l0.8-0.4l0,0l-0.1,0.5
			l-0.6,0.8c-0.1,0.2-0.1,0.5,0,0.6l0.8,0.9c0.1,0.1,0.2,0.2,0.4,0.2l0,0c0.1,0,0.3,0,0.3-0.1l0.4-0.3l0.1-0.1l0.5-1l0.5-0.5
			c0.1-0.1,0.1-0.2,0.2-0.3l0.1-0.8c0-0.2-0.1-0.4-0.3-0.5c-0.2-0.1-0.4,0-0.6,0.2l-0.1,0.2c0-0.1-0.1-0.1-0.1-0.2
			c-0.1-0.1-0.3-0.2-0.4-0.2h-0.1c0-0.1,0.1-0.1,0.1-0.2v-0.4c0-0.1,0-0.3-0.1-0.4c-0.1-0.1-0.2-0.2-0.4-0.2h-0.8l-0.5-0.3
			c-0.2-0.1-0.4-0.1-0.6,0.1c-0.2,0.1-0.2,0.3-0.2,0.5l0.1,0.3l-0.1,0.8C497,141.7,497,141.7,497,141.8z"/>
		<path class="st0" d="M493.5,132.6v1.2v0.1l0.2,0.7c0,0.1,0.1,0.1,0.1,0.2l0.6,0.7c0.1,0.1,0.1,0.1,0.2,0.1c0,0.1,0.1,0.1,0.1,0.2
			l0,0l-0.1,0.5c0,0.2,0.1,0.4,0.3,0.5l0.2,0.1h-0.3c-0.2,0-0.4,0.1-0.5,0.3s-0.1,0.4,0,0.5l0.7,1l0.5,0.6c0.1,0.1,0.2,0.2,0.4,0.2
			h0.1c0.2,0,0.3-0.2,0.4-0.3l0.3-1c0.1-0.2,0-0.4-0.1-0.5l-0.4-0.5l1.1-0.2l0.8,0.8c0.1,0.1,0.3,0.2,0.4,0.1c0.1,0,0.3-0.1,0.4-0.2
			l0.1-0.1l0.4,0.5c0,0.1,0.1,0.1,0.1,0.1l1,0.7c0.1,0.1,0.2,0.1,0.3,0.1c0.1,0,0.1,0,0.2,0c0.2-0.1,0.3-0.2,0.3-0.4l0.1-0.4
			c0-0.2,0-0.4-0.2-0.5l-0.3-0.2l0.1-0.6c0-0.2-0.1-0.4-0.3-0.5l-1.9-0.9c-0.1,0-0.2-0.1-0.3,0l-0.6,0.2l-0.7-0.1l-0.3-1.2l0.2-1.2
			l0.8-0.5c0.1-0.1,0.2-0.2,0.2-0.3l0.4-1.3c0-0.1,0-0.2,0-0.4l-0.5-1.1l0.2-0.6c0-0.1,0-0.3,0-0.4c-0.1-0.2-0.2-0.3-0.3-0.3
			c-0.2,0-0.3,0-0.5,0.1l-0.1,0.1l-0.8-0.4c-0.1,0-0.1,0-0.2-0.1h-0.8c-0.2,0-0.4,0.1-0.5,0.3l-0.5,1.5v0.1l-0.1,2.2
			c-0.1-0.1-0.3-0.1-0.4,0C493.6,132.3,493.4,132.4,493.5,132.6z"/>
		<path class="st0" d="M504.1,149.3c0.1,0.2,0.3,0.3,0.5,0.3s0.4-0.1,0.5-0.3l0.4-1c0-0.1,0-0.2,0-0.2l-0.1-0.9l-0.4-2.5
			c0-0.1-0.1-0.3-0.2-0.3l-1-0.6c-0.2-0.1-0.4-0.1-0.5,0c-0.2,0.1-0.2,0.3-0.2,0.5v0.6h-0.8c-0.2,0-0.4,0.1-0.4,0.3l-0.2,0.5l-1,0.4
			l-0.4-0.5c-0.2-0.2-0.5-0.3-0.7-0.1l-0.7,0.5l-1,0.5c-0.1,0-0.2,0.1-0.2,0.2l-0.6,1.3c-0.1,0.1-0.1,0.3,0,0.5l0.1,0.2
			c0.1,0.1,0.2,0.2,0.3,0.2c0.1,0,0.3,0,0.4-0.1l1-0.8h0.6c0.2,0,0.3-0.1,0.4-0.2l0.3-0.4l0.6,0.5l-0.3,0.5c-0.1,0.1-0.1,0.3,0,0.5
			l0.4,1.1c0,0.1,0.1,0.2,0.2,0.3l1.8,0.9c0.1,0,0.1,0.1,0.2,0.1c0.2,0,0.3-0.1,0.4-0.2l0.3-0.5c0.1-0.1,0.1-0.3,0-0.5l-0.4-1
			l0.3-0.4L504.1,149.3z"/>
		<path class="st0" d="M503.6,139.3l-0.4-0.5c-0.1-0.1-0.2-0.2-0.4-0.2h-1.1c-0.2,0-0.4,0.1-0.5,0.3s-0.1,0.4,0.1,0.5l0.7,0.9v0.2
			h-0.4c-0.2,0-0.3,0-0.4,0.2c-0.1,0.1-0.2,0.3-0.1,0.5l0.2,0.6c0,0.2,0.2,0.3,0.4,0.4h0.2v0.7c0,0.2,0.1,0.3,0.2,0.4
			c0.1,0,0.2,0.1,0.3,0.1c0.1,0,0.1,0,0.2,0l0.4-0.2c0.2-0.1,0.3-0.4,0.3-0.6l-0.3-0.8v-0.1l0.5,0.2c0.1,0,0.1,0,0.2,0
			s0.2,0,0.3-0.1c0.1-0.1,0.2-0.3,0.1-0.5l-0.4-1.5C503.6,139.4,503.6,139.4,503.6,139.3z"/>
		<path class="st0" d="M614.2,8.7L611,4.9c-0.1-0.1-0.2-0.2-0.3-0.2l-4.3-0.6c-0.1,0-0.3,0-0.4,0.1c-0.1,0.1-0.2,0.3-0.1,0.4
			l0.3,2.1l-0.5-0.4l0.1-2.5c0-0.1,0-0.3-0.1-0.4l-3.4-3.3H416.1l0.4,1.1l-1.4,2c0,0-0.1,0.1-0.1,0.2l-0.4,2l-1.7,1
			c-0.1,0-0.2,0.1-0.2,0.2l-0.6,1.2l-1.4-0.4l3.2-5.9V1.4l0.3-1.3h-40.5l-3,1.9c-0.1,0.1-0.2,0.2-0.2,0.4l-0.4,2.5l-2.3,0.8
			l-1.1-1.3V2.3l1.7-0.4c0.1,0,0.3-0.1,0.3-0.3c0.1-0.1,0.1-0.3,0-0.4l-0.4-1.1h-4.7l0.1,0.3l-0.8,2.5c0,0.1,0,0.3,0,0.4l1.3,2.4
			l-0.8,2.4L362.2,7c-0.1-0.1-0.2-0.1-0.3-0.1l-1.4-0.2c-0.2,0-0.3,0-0.4,0.1l-3.8,4c-0.1,0.1-0.2,0.3-0.1,0.5l1,2.6l-1.1,0.7
			l-3.8-2.3c-0.2-0.1-0.5-0.1-0.7,0.1l-0.9,1.3c-0.1,0.2-0.1,0.4,0,0.5l0.9,1.5l-0.2,1.3l-1-0.8l-2-1.1l-0.1-4l-0.1-1.9
			c0-0.1,0-0.2-0.1-0.3l-2.5-2.8l0.8-0.3l7.5,3.2c0.1,0,0.3,0,0.4,0l2.7-1.1c0.1,0,0.2-0.1,0.2-0.1l1.8-2.1c0.1-0.1,0.1-0.2,0.1-0.4
			L359,2.5c0-0.1,0-0.2-0.1-0.2l-1.3-2.1l-0.1-0.1L357.4,0H314l-0.6,0.7c0,0,0,0.1-0.1,0.1l-4.1,8.3l-3.1,5.6l-3.3,4l-4.5,3.2
			l-0.1,0.1l-1.5,2.3c-0.1,0.1-0.1,0.2-0.1,0.3l0.5,8.1l0.6,3.5c0,0.1,0.1,0.2,0.2,0.3l2.2,1.5c0.1,0.1,0.2,0.1,0.3,0.1
			c0,0,0.1,0,0.2,0l2.1-0.7c0.1,0,0.2-0.1,0.2-0.1L306,34l0.7,1.3c0,0.1,0.1,0.1,0.2,0.2c0,0.1,0,0.1,0,0.2l1.3,4.6l1.4,3.4l0.1,0.5
			c0,0-0.1-0.1-0.2-0.1s-0.3-0.1-0.4,0l-2.2,0.9c-0.2,0.1-0.3,0.3-0.3,0.5l0.2,1c0,0.1,0.1,0.2,0.1,0.3l1.5,1.4
			c0.1,0.1,0.2,0.1,0.3,0.1h0.1c0.2,0,0.3-0.1,0.4-0.3l0.7-1.7v0.1c0,0.2,0.3,0.4,0.5,0.4l0,0l1.7-0.1c0.2,0,0.3-0.1,0.4-0.3
			l0.8-2.1l1.7,0.2c0.2,0,0.5-0.1,0.6-0.3l0.9-2.7v-0.1l0.6-5.2l1.5-0.7c0.1,0,0.2-0.1,0.3-0.3l1.5-3.6c0.1-0.2,0-0.4-0.1-0.5
			l-1.5-1.8l-1.2-2.4l1.2-5l3.3-3.2l2.7-3c0.1-0.1,0.1-0.2,0.1-0.4l-0.2-2.3l1.6-2.7l2.7-1.1l0,0l2.2,1.8l0.2,1.4l-1.1,0.8l-3.9,4.3
			l-1.5,2.4V20l-0.8,2.1c0,0.1,0,0.2,0,0.3l0.8,3.2l-0.4,3.3c0,0.2,0.1,0.4,0.2,0.5l1.5,1l0.9,1.7c0.1,0.2,0.3,0.3,0.4,0.3h0.1
			l2.7-0.7l2.9-1.2l3-0.3l0,0l1.4,1.3L336,33l0,0l0,0l-1.6,0.1l-1.8-0.5c-0.1,0-0.2,0-0.3,0l-2.2,0.5l-2,0.9
			c-0.2,0.1-0.3,0.3-0.3,0.5l0.1,1.7c0,0.1,0,0.2,0.1,0.3l0.9,1c0.2,0.2,0.4,0.2,0.6,0.1l-0.1,1c0,0.1,0,0.2,0,0.2
			c0,0.1-0.1,0.1-0.1,0.2l-0.3,2.1h-0.9l-1.2-2c-0.1-0.1-0.2-0.2-0.3-0.2c-0.1,0-0.3,0-0.4,0.1l-1.4,0.9c-0.1,0.1-0.1,0.1-0.2,0.2
			l-0.8,1.9c0,0.1,0,0.1,0,0.2v2c0,0.1,0,0.2,0.1,0.3c0,0.1-0.1,0.2,0,0.3l0.3,2.2l-2.1,0.8c-0.1,0-0.2,0.2-0.3,0.3l-0.3,1l0,0h-1.2
			l-0.1-0.4c0-0.2-0.2-0.3-0.3-0.4l-1.5-0.4c-0.1,0-0.2,0-0.4,0l-2.1,1l-2.7,1.4l-0.9,0.7l-0.6-0.7l-0.1-0.1L310,49
			c-0.2-0.1-0.4-0.1-0.6,0l-0.8,0.7l-1.3,0.4v-0.5c0-0.2-0.1-0.4-0.3-0.5l-1.4-0.6v-0.7c0-0.1,0-0.2-0.1-0.3c0-0.1,0-0.2,0-0.3
			l-0.4-1.2l1-1.8l0,0c0.1,0.1,0.3,0.1,0.4,0.1s0.3-0.2,0.3-0.3l0.3-0.7c0.1-0.2,0-0.5-0.2-0.6l-0.6-0.3l-0.2-0.6l0.4-0.9
			c0-0.1,0-0.1,0.1-0.2v-1.2c0-0.2-0.1-0.4-0.2-0.5c-0.2-0.1-0.4-0.1-0.5,0l-1,0.7c-0.1,0-0.1,0.1-0.1,0.1l-0.5,0.7l-1.3,0.2
			c-0.2,0-0.3,0.1-0.4,0.3l-0.5,0.9l-0.3,0.8c0,0.1,0,0.1,0,0.2l0.1,3c0,0.1,0,0.1,0,0.2l0.6,1.5c0,0,0,0.1,0.1,0.1
			c0,0.1,0,0.1,0,0.2l0.1,1.4c0,0,0,0.1,0,0.2l0.3,0.9l-0.8,0.9v-0.1c-0.1-0.2-0.3-0.3-0.5-0.3l-1.2,0.1c-0.2,0-0.3,0.1-0.4,0.2
			l-0.2,0.4l-1.2-0.1c-0.1,0-0.2,0-0.3,0.1l-2.2,1.1c-0.1,0-0.2,0.2-0.2,0.3l-1.4,4l-0.5,0.4c-0.1,0.1-0.1,0.1-0.1,0.2
			c0,0-0.1,0-0.2,0l-1.1,0.4c-0.1,0-0.1,0.1-0.2,0.1s-0.1,0-0.2,0l-1.2,0.4c-0.2,0.1-0.3,0.2-0.3,0.4l-0.5,2l-3.7,1.9l-1.1-0.7
			c-0.2-0.1-0.4-0.1-0.5,0c-0.2,0.1-0.3,0.3-0.2,0.5l0.4,2l-2.4-0.6c-0.1,0-0.2,0-0.2,0l-2,0.5c-0.2,0.1-0.4,0.3-0.4,0.5l0.1,1.6
			c0,0.2,0.1,0.4,0.3,0.4l2.4,0.9l1.2,1.2l1.7,2.5l-0.3,4.6l-0.8,1.2l-2.6-0.1l-1.3,0.1l-1.8-0.4H279h-2.2l-2-0.4
			c-0.1,0-0.3,0-0.4,0.1l-2.2,1.5c-0.2,0.1-0.3,0.5-0.1,0.7l0.5,0.8l-0.1,1c0,0.1,0,0.2,0.1,0.3c-0.1,0.1-0.1,0.2-0.1,0.3l0.1,0.6
			c0,0,0,0.1,0,0.2l0.3,0.7v0.8l-0.4,1.4l-0.1,0.8l-0.6,0.7c-0.1,0.1-0.1,0.2-0.1,0.3l-0.1,1.3c0,0.1,0,0.2,0.1,0.3l0.3,0.7
			c0.1,0.1,0.2,0.2,0.3,0.3l0.5,0.1l0.1,1l-0.2,1.4c0,0.2,0,0.3,0.2,0.4c0.1,0.1,0.3,0.2,0.5,0.1l0.5-0.1l0.7,0.2c0,0,0.1,0,0.2,0
			s0.2,0,0.3-0.1l0.5-0.4l1.3,0.3l0.4,1c0,0,0,0.1,0.1,0.2l0.6,0.6c0.1,0.1,0.2,0.1,0.3,0.1c-0.2,0-0.4,0.1-0.4,0.3l-0.5,1.1
			l-1.1,2.1l-1.2,0.8l-1.7,0.9c-0.1,0-0.1,0.1-0.2,0.1l-1,1.3c0,0.1-0.1,0.1-0.1,0.2l-0.2,0.9l-0.6,1.7c0,0.1,0,0.2,0,0.3l0.4,2.3
			l-1.3,1.5l-0.9,0.5c0,0-0.1,0-0.1,0.1l-1.2,1.2l-1.4,0.2c-0.1,0-0.2,0-0.3,0.1l-0.3,0.3c-0.1,0.1-0.1,0.2-0.2,0.3
			c-0.1,0-0.2,0-0.3,0.1c0,0-0.1,0.1-0.1,0.2l-1,1.9l-1,0.6c-0.1,0-0.1,0.1-0.2,0.2l-0.6,1.1c0,0.1,0,0.1-0.1,0.2v0.9l-0.4,0.9
			l-0.4,0.2c-0.1,0-0.1,0.1-0.2,0.1l-0.9,1.1c0,0,0,0.1-0.1,0.1l-0.5,1.2c0,0.1-0.1,0.2,0,0.3l0.1,0.5l-0.5,0.8l-0.5,0.4
			c-0.1,0.1-0.2,0.2-0.2,0.3l-0.1,0.7c0,0.2,0,0.3,0.1,0.4l-0.1,0.2c-0.1,0.2-0.1,0.5,0.1,0.6l0.7,0.6l0.4,0.7l-0.1,0.8
			c0,0.1,0,0.1,0,0.2l0.2,0.8l0.2,1.7l-0.2,1.6l-0.4,0.8c0,0.1-0.1,0.2,0,0.3l0.1,0.5c0,0.1,0,0.2,0.1,0.2l0,0l-0.3,0.8l-0.8,1.2
			l-0.4,0.2c-0.2,0.1-0.3,0.2-0.3,0.4s0.1,0.3,0.2,0.5l0.5,0.4l0.6,1.2l0,0l0,0l-0.1,0.4c0,0.1,0,0.2,0,0.3
			c-0.1,0.1-0.1,0.2-0.1,0.3l0.2,0.9c0,0.1,0,0.1,0.1,0.2c0,0.1,0,0.2,0,0.2v0.1c0,0.1,0.1,0.2,0.2,0.3l0.3,0.2l0,0
			c0,0.1,0,0.2,0.1,0.3l0.3,0.4c0.1,0.1,0.2,0.2,0.3,0.2l0.6,0.1l0.7,0.6c0.1,0.1,0.2,0.1,0.2,0.1c0,0.1,0.1,0.1,0.2,0.2l0.2,0.1
			l0.2,0.2l0.2,0.7c0,0.1,0.1,0.2,0.2,0.3l0.4,0.3c0,0,0.1,0,0.1,0.1l0.3,0.2l0.6,0.6l0.6,0.9l0.1,0.1c0,0,0,0,0,0.1l0.2,1.1
			c0,0.1,0,0.1,0,0.1l0.3,0.6c0,0,0,0.1,0.1,0.1l0.8,0.9l0.1,0.1l1.2,0.7h0.1l0.3,0.1h0.1c0,0,0,0,0,0.1l1.1,1l1.4,0.9l1.5,1.3
			c0,0,0.1,0,0.1,0.1l1.7,0.8c0.1,0,0.1,0.1,0.2,0.1l0,0h0.2c0.1,0,0.1,0,0.2,0s0.1,0.1,0.2,0.1h0.1c0.1,0,0.1,0,0.2,0l1.7-0.6
			l1.1-0.5l2-0.3h1l1.2,0.3c0,0,0.1,0,0.2,0h0.6h0.1c0,0,0.1,0,0.1,0.1l1.3,0.4h0.1c0.1,0,0.1,0,0.2,0l1.5-0.5c0,0,0.1,0,0.1-0.1
			l0.8-0.5l2.5-0.9c0.1,0,0.1-0.1,0.2-0.1l0,0h0.1l1-0.3c0.1,0,0.1-0.1,0.2-0.1h0.1c0,0,0,0,0.1,0l1.1-0.2c0.1,0,0.1,0,0.2-0.1
			c0.1,0,0.1,0,0.2,0l0,0h2.5l1.1,1l0.5,1.2c0,0,0,0.1,0.1,0.1l0.8,1c0.1,0.1,0.2,0.2,0.4,0.2h1.2l0,0c0.1,0,0.2,0,0.2-0.1l0.5-0.3
			l0.5,0.1c0.1,0,0.2,0,0.2,0l1.3-0.5c0,0.2,0.1,0.3,0.2,0.4l0.2,0.1l0.3,0.6c0,0.1,0.2,0.2,0.3,0.3l0.6,0.2l0.6,0.9l-0.2,1
			c0,0.1,0,0.1,0,0.2c0,0.1-0.1,0.1-0.1,0.2l-0.5,1.6c-0.1,0.2,0,0.4,0.2,0.5h0.1l-0.3,1.1l-0.4,1.2l-0.3,0.5c0,0.1-0.1,0.1-0.1,0.2
			v0.4c0,0.1,0,0.2,0.1,0.3l1,1.8l1.2,1.4l1.6,1.6l0.1,0.1c0,0.1,0,0.1,0.1,0.2l1.1,1.4c0,0.1,0.1,0.1,0.1,0.1v0.1l0.3,1
			c0,0.1,0.1,0.1,0.1,0.2c0,0.1,0,0.2,0,0.2l0.1,0.2l0,0l-0.1,0.1c-0.1,0.2-0.1,0.4,0.1,0.5l0.7,0.9l0.8,2.6l-0.4,0.5
			c0,0-0.1,0.1-0.1,0.2l-0.1,0.2c0,0.1,0,0.2,0,0.3l0.8,2c0,0,0,0.1,0.1,0.1l0.4,0.5l0.1,0.8l-0.2,1.2l-0.5,0.7l-1.1,1.2l-0.4,0.8
			l-0.5,1.5v0.1l-0.1,0.7l-0.6,1.7l-0.2,1.5v0.1l0.1,0.8c0,0.1,0,0.2,0.1,0.2c0,0.1,0,0.1,0,0.2l0.1,1.2c0,0.1,0,0.2,0.1,0.3
			l1.3,1.7l0.4,1.1l0.9,2.2l0.9,1.6l0.6,0.7l0.2,0.8v2.4l0.6,2.9l0.4,1.3l0.4,1.9v0.1l0.6,1.3c0,0,0,0.1,0.1,0.1l1.1,1.2
			c0,0.1,0.1,0.1,0.2,0.1v0.1l1.2,2.4l0.9,1.7l1.1,1.8v1.3l-0.3,0.2c-0.2,0.1-0.3,0.4-0.2,0.6l0.5,1.2v1.1c0,0.1,0,0.1,0,0.2
			l0.1,0.1c0.1,0.2,0.2,0.3,0.4,0.3l0.6,0.7c0.1,0.1,0.2,0.2,0.4,0.2h0.4l0.6,0.6c0.1,0.1,0.2,0.2,0.3,0.2l0,0h0.6
			c0.1,0,0.2,0,0.3-0.1l1-0.7l1.4-0.3h0.1l1.6-0.8l0.6,0.1c0.1,0,0.1,0,0.2,0l0.9-0.2l1.7,0.4c0.1,0,0.2,0,0.3,0l0.7-0.3l0.8,0.2
			c0.2,0.1,0.5-0.1,0.6-0.3l0.1-0.2l0.7-0.1c0,0,0.1,0,0.2,0l1.8-0.8h0.1l1.3-1l1.2-1.2l2-2.1l1-1.5l0.4-0.9l0.7-1l1.5-1.2
			c0,0,0.1-0.1,0.1-0.2l0.4-0.8c0,0,0-0.1,0-0.2l0.2-1.5l0.3-1.2c0-0.1,0-0.2,0-0.2c0.1-0.1,0.1-0.1,0.1-0.2l0.1-0.6
			c0-0.2-0.1-0.5-0.4-0.5h-0.1l-0.1-0.5l0.6-0.5l2-1l1.4-0.6c0,0,0.1,0,0.1-0.1l0.7-0.6c0.1-0.1,0.1-0.1,0.1-0.2l0.2-0.6
			c0.1-0.2,0-0.4-0.2-0.5L349,201l0.2-0.6v-0.1v-1.5c0-0.2-0.1-0.3-0.2-0.4c0,0,0,0-0.1,0v-0.3V198l-0.3-1c0,0,0-0.1-0.1-0.1
			l-0.7-1.2l0.1-1.1l0.5-0.3c0,0,0.1,0,0.1-0.1l1.1-1.2l0.6-0.3l0.1-0.1l1.9-1.9l3.4-1.5c0.1,0,0.1-0.1,0.2-0.1l1-1.1l0.1-0.1
			l0.7-1.2l0.5-1.2c0-0.1,0-0.2,0-0.3l-0.3-0.7l-0.1-2.8l-0.2-1.4l0.1-1.7c0-0.1,0-0.1,0-0.2l-0.2-0.5c0-0.1-0.1-0.2-0.3-0.3
			c0-0.1-0.1-0.2-0.2-0.3l-0.3-0.2l-0.7-1.7l-0.5-1l0.1-0.7c0-0.1,0-0.1,0-0.2l-0.1-0.4l0.4-0.9c0-0.1,0.1-0.2,0.1-0.3v-0.3
			c0-0.2-0.1-0.3-0.3-0.4l-0.9-0.5l-0.1-0.8l0.7-1.9v-0.1c0,0,0,0,0.1,0l0.5-0.4c0.1-0.1,0.1-0.2,0.2-0.2l0.3-1l0.5-0.6
			c0-0.1,0.1-0.1,0.1-0.2l0.2-1l0.4-0.1c0.1,0,0.3-0.1,0.3-0.2l0.3-0.6l0.9-0.5c0.1,0,0.2-0.1,0.2-0.2c0.1,0,0.2-0.1,0.2-0.1
			l0.2-0.2c0-0.1,0.1-0.1,0.1-0.1l0.3-0.8l1.8-2l1.6-1.3l2.6-1.7l1.8-1.4l2-2.3l1.5-2l1.5-2.5l1.1-2.2l0.9-2l0.4-1.8l0.3-0.6
			c0-0.1,0.1-0.2,0.1-0.3v-0.8l0.2-1v-0.1v-0.3c0-0.3-0.2-0.5-0.5-0.5H375c-0.1,0-0.2,0-0.3,0.1l-0.7,0.5l-0.9,0.2l-0.7,0.2
			l-1.5,0.1c-0.1,0-0.1,0-0.2,0l-0.5,0.3l-0.8,0.1h-0.1l-1.4,0.5l-1.9,0.2l-1.5,0.4h-0.7l-0.6-0.6l-0.3-0.6c0-0.1-0.1-0.2-0.2-0.2
			l-0.3-0.2c-0.1,0-0.1-0.1-0.2-0.1c0-0.1-0.1-0.1-0.1-0.1l-0.1-0.1l0.4-0.2c0.2-0.1,0.3-0.2,0.3-0.4v-0.5c0-0.1,0-0.2-0.1-0.3
			c0.1,0,0.1,0.1,0.2,0.1l1,0.1l0,0c0.1,0,0.1,0,0.2,0l0.4-0.2h0.7c0.2,0,0.3-0.1,0.5-0.2l0.1-0.2l0.3-0.1c0.1,0,0.2-0.1,0.3-0.2
			l0.3-0.3l1.7-0.2h0.1l1-0.3c0,0,0.1,0,0.1-0.1l0.9-0.6l0.3,0.1c0,0,0.1,0,0.2,0l0.7-0.1c0.1,0,0.2,0,0.2-0.1l1.5-1.2l2.7-0.8
			l1.6-0.7c0.2-0.1,0.3-0.2,0.3-0.4v-0.4l0.3-0.7l0.9-0.4l0.1-0.1c0,0,0,0,0.1,0h0.1l0.6-0.1c0.1,0,0.1,0,0.2,0l1-0.5l0.8,0.1
			c0.1,0,0.2,0,0.3-0.1l0.7-0.4c0.2-0.1,0.2-0.2,0.2-0.4v0.2l0.5-0.3h0.9c0.1,0,0.3,0,0.3-0.1l0.3-0.3c0.1-0.1,0.1-0.2,0.1-0.3
			l0.1-0.7l0.9-0.6h0.6l0,0c0.2,0,0.4-0.1,0.5-0.3c0.1-0.1,0.1-0.2,0.1-0.4l-0.2-1l0.2-0.8l0.2-0.3l0.5,0.1c0.2,0,0.4-0.1,0.5-0.3
			l0.5-1.1l0.6-0.5c0.1,0,0.1-0.1,0.1-0.1l0.8-1.5c0-0.1,0.1-0.2,0.1-0.2v-0.2c0-0.2-0.1-0.4-0.3-0.5l-0.4-0.2l-1.2-1.5
			c-0.1-0.1-0.1-0.2-0.2-0.2l-1-0.3l-1.2-0.2l-0.9-0.6l-0.7-1.1l-0.1-0.1c0-0.1,0-0.1,0-0.2l0.2-1.2c0.1,0,0.1-0.1,0.2-0.2l0,0
			c0,0,0.1-0.1,0.1-0.2l0.1-0.5c0-0.2-0.1-0.5-0.3-0.5c-0.2-0.1-0.5,0-0.6,0.1l-0.2,0.3c0,0.1-0.1,0.1-0.1,0.2
			c-0.1,0-0.1,0.1-0.2,0.1l-0.9,0.9l-1.3,1.2l-1.1,1.2l-2.3-0.1h-0.1l-1.3,0.3l0,0v-0.2v-0.1l-0.2-0.5l0,0l0,0l0.3-1
			c0,0,0-0.1,0-0.2v-1c0-0.1,0-0.2-0.1-0.3l-0.4-0.4c-0.1-0.2-0.4-0.2-0.6-0.1l-0.2,0.1c-0.1,0-0.2,0.1-0.2,0.2l-0.4,0.9v0.1
			l-0.3-0.4l-0.2-0.5l0.1-0.5c0-0.1,0-0.1,0-0.2l-0.1-0.7c0-0.1-0.1-0.3-0.2-0.3l-1-0.7l-0.2-0.5c0-0.1-0.1-0.2-0.2-0.2l-0.7-0.3
			l-0.6-1.4c0-0.1-0.1-0.1-0.1-0.1c0-0.1,0-0.2,0-0.2l-0.4-1.1l0.1-0.3c0-0.1,0-0.2,0-0.3l-0.1-0.4c0.1,0,0.2,0,0.3-0.1
			c0.1,0,0.2,0.1,0.2,0.1c0.1,0,0.3-0.1,0.4-0.2l0.3-0.4l0.8,0.5c0.1,0.1,0.3,0.1,0.4,0l0.6-0.2l1.2,2.4l1.1,1.8
			c0.1,0.1,0.2,0.2,0.3,0.2l1.5,0.5l1.6,1.4c0,0,0.1,0.1,0.2,0.1l2,0.6c0.1,0,0.3,0,0.4,0l1.6-0.9l1.2-0.3l0.6,0.2l0.7,2.1
			c0,0.2,0.2,0.3,0.4,0.3l1.8,0.2l1.9,0.4l3,0.5h0.1c0.1,0,0.1,0,0.2-0.1c0.1,0,0.2,0.1,0.3,0.1l2.1-0.2h2.8l3-0.3l1.2,1.3l0.5,1.2
			c0,0.1,0.2,0.2,0.3,0.3l1,0.4h0.1l0.1,0.1l1.8,1.4l0.3,0.5l-0.4,0.3c-0.1,0.1-0.2,0.2-0.2,0.4c0,0.2,0,0.3,0.2,0.4l2,2
			c0.1,0.1,0.2,0.1,0.3,0.1l1.1,0.2c0.1,0,0.2,0,0.3,0l2.1-0.9l0.2,1.2v2.2v0.1l1.2,5.7c0,0.1,0,0.1,0.1,0.2l1.5,2.3l0.3,1.1
			l0.4,2.2c0,0,0,0.1,0.1,0.1l0.9,1.7l0.5,0.7l0.7,1.7l0.8,2.4c0,0.1,0.1,0.1,0.1,0.2l1.5,1.5c0.1,0.1,0.2,0.2,0.3,0.2
			c0.1,0,0.2,0,0.3-0.1l0.5-0.4c0.1,0,0.1-0.1,0.2-0.2l0.5-1l1.1-0.4c0.2,0,0.3-0.2,0.3-0.3c0.1-0.2,0-0.3-0.1-0.5l-0.1-0.2l0.6-1
			l0.5-0.1c0.2,0,0.5-0.2,0.5-0.5v-2.7l0.7-1.6c0-0.1,0-0.1,0-0.2l-0.1-1.4l-0.4-2.2l0.4-1.1l0.6-0.1h0.1l1.6-0.6l0.7-0.4
			c0.2-0.1,0.3-0.3,0.3-0.5v-0.5l1.6-1.1l1.3-1.2l1.9-2l2.4-1.2c0.1,0,0.1-0.1,0.2-0.1l0.8-1c0.1-0.1,0.1-0.2,0.1-0.4l-0.1-1
			l1.8-0.3h1.1c0.2,0,0.4-0.1,0.5-0.3l0.1-0.3l0.3,0.1l0.4,0.2c0.2,0.1,0.5,0,0.6-0.2l0,0l0.3,0.2c0.2,0.1,0.5,0,0.7-0.2l0.4-0.8
			c0.1-0.1,0.1-0.2,0-0.3l-0.1-0.3h1l0.6,0.9l0.3,0.8l0.1,0.9c0,0.1,0,0.1,0.1,0.2s0.2,0.2,0.4,0.2v0.5c0,0.1,0,0.2,0.1,0.3l1.1,1.4
			c0.1,0.1,0.2,0.1,0.3,0.2l0.6,0.2l-0.1,0.3c-0.1,0.1,0,0.3,0,0.4l1.3,1.9l0.3,1.6l-0.5,2c-0.1,0.2,0.1,0.5,0.3,0.6l0.9,0.3h0.1
			l0.8,0.1c0.1,0,0.2,0,0.3-0.1l1.9-1.2l0.8-0.7l0.5,1.1l0.3,2.3l0.5,2c0,0.1,0,0.1,0.1,0.2l0.6,0.8l-0.1,1.7c0,0.1,0,0.2,0.1,0.3
			l0.5,0.8l-0.5,1.2c0,0.1,0,0.2,0,0.2l0.1,0.5c0,0.1,0.1,0.2,0.2,0.3l-0.1,0.3l-0.5,1.7l-0.2,1c0,0.1,0,0.2,0,0.2l0.1,0.3
			c0.1,0.2,0.3,0.3,0.5,0.3s0.4-0.1,0.4-0.3l1.3,1.4l0.3,0.7c0,0.1,0.1,0.1,0.1,0.2l0.5,0.5l0.1,0.1v0.1l0.3,0.5l-0.2,1.1
			c0,0.1,0,0.2,0.1,0.4l0.5,0.8l0.2,1.3c0,0.1,0,0.2,0.1,0.2l0.9,1l0.2,0.7c0,0.1,0.1,0.2,0.2,0.3l1.9,1.3l1.6,1.2
			c0.1,0.1,0.2,0.1,0.3,0.1l0,0l1-0.1c0.2,0,0.4-0.2,0.5-0.5v-0.4c0-0.1,0-0.1,0-0.2l-0.6-1.4c0-0.1-0.1-0.1-0.1-0.2l-0.5-0.4
			l-0.1-1l-0.1-0.5l0.2-0.7c0,0,0-0.1,0-0.2l-0.1-1.1c0-0.1,0-0.2-0.1-0.2l-0.7-1.1c0,0,0-0.1-0.1-0.1l-1-1c0-0.1-0.1-0.1-0.2-0.1
			l-0.2-0.1h-0.1c0,0,0-0.1-0.1-0.1l-0.7-0.7c-0.1-0.1-0.2-0.1-0.3-0.1l-0.9-0.2l-0.8-0.8l-0.3-1.4v-0.1l-0.6-1.4
			c-0.1-0.2-0.2-0.3-0.4-0.3h-0.7l-0.1-0.9l1.4-4v-0.1l0.1-1.6h0.9l-0.1,0.8c0,0.2,0,0.3,0.1,0.4c0.1,0.1,0.2,0.2,0.4,0.2h1.1
			l1.1,0.6c0.1,0,0.2,0,0.2,0l0,0l0.8,1.8c0,0,0,0.1,0.1,0.1l0.6,0.8c0.1,0.1,0.2,0.2,0.3,0.2l1.3,0.2h0.1c0,0.1,0.1,0.1,0.1,0.2
			l0.8,0.6l-0.4,0.9c-0.1,0.1,0,0.3,0,0.4l0.5,0.8c0.1,0.1,0.2,0.2,0.3,0.2h0.1c0.1,0,0.2,0,0.3-0.1l2-1.5l1.3-1.4l2-1.2l1.3-1.1
			c0.1-0.1,0.2-0.2,0.2-0.3l0.2-3c0,0,0-0.1,0-0.2l-0.8-3.2c0-0.1,0-0.1-0.1-0.2l-1-1.4l-0.1-0.1l-1.5-1l-2.8-4.1l0.3-1.1l1.3-1.6
			l1.9-1.3c0.1-0.1,0.2-0.1,0.2-0.2c0.1,0,0.1,0,0.2,0l0.7-0.2l1.8,0.5l-0.2,0.3c-0.1,0.1-0.1,0.3,0,0.4l0.4,1.1
			c0,0.1,0.1,0.2,0.3,0.3l-1.3,0.3c-0.1,0-0.2,0.1-0.2,0.1l-0.7,0.7c-0.1,0.1-0.1,0.2-0.1,0.4v1.3c0,0.2,0.1,0.4,0.3,0.5l1.2,0.5
			c0.1,0,0.1,0,0.2,0s0.2,0,0.2-0.1l1.3-0.8c0.1-0.1,0.2-0.2,0.2-0.2l0.3-0.9l0.6-0.6c0.2-0.2,0.2-0.4,0.1-0.6l-0.3-0.5
			c-0.1-0.2-0.2-0.2-0.4-0.3h-0.3c0.1-0.1,0.1-0.1,0.2-0.2l0.5-1.6l1.6-0.2h0.1l2.3-0.9c0.1,0,0.1-0.1,0.2-0.1l0.7-0.7l0.3,0.3
			c0.2,0.2,0.5,0.2,0.7,0l0.8-0.6l1.8-0.2c0.1,0,0.2,0,0.2-0.1l2.4-1.5l2.3-1.7l0.1-0.1l1.6-2.3l1.4-2.5l1.2-2l0.7-0.1
			c0.2,0,0.3-0.2,0.4-0.4l0.4-1.5l0.2-1.4c0-0.2-0.1-0.4-0.2-0.5l-0.8-0.5l-0.3-0.7l0.7-0.4c0.2-0.1,0.3-0.2,0.3-0.4v-1.3
			c0-0.1,0-0.2-0.1-0.3l-1.1-1.4l-1-1.8l-0.7-2c0-0.1-0.1-0.2-0.2-0.3l-1.5-1l0.7-1.1l1.6-1c0.1,0,0.1-0.1,0.1-0.1l0.7-1l2.1-0.5
			c0.1,0,0.2-0.1,0.3-0.2c0.1-0.1,0.1-0.2,0.1-0.4l-0.2-0.8c-0.1-0.2-0.2-0.4-0.5-0.4h-0.9l-1.3-0.7c-0.2-0.1-0.4-0.1-0.6,0
			l-1.7,1.3l-1-0.5v-0.6c0-0.2-0.2-0.4-0.4-0.5l-1.1-0.3l-0.7-1.2l0.7-0.8l1.5-0.1c0.1,0,0.3-0.1,0.4-0.2l1-1.3l1.8-1.5l1.3-0.7
			l0.6,0.8l-1.1,1.2c-0.1,0.1-0.2,0.4-0.1,0.5l0.2,0.6l-0.3,0.3c-0.2,0.2-0.2,0.4,0,0.6s0.4,0.3,0.6,0.2l1.1-0.3
			c0.1,0,0.1-0.1,0.2-0.1l1.2-1l2.2-0.6c0,0,0,0,0.1,0.1l0.6,0.4c0.1,0,0.1,0.1,0.2,0.1l0.8,0.2V87l-0.4,1c0,0.1,0,0.2,0,0.3v0.1
			l-0.2,0.1c-0.1,0-0.1,0.1-0.2,0.2l-0.4,0.8c-0.1,0.2,0,0.5,0.1,0.6l0.3,0.2c0,0,0.1,0,0.1,0.1l0.2,0.1c0,0.1,0.1,0.3,0.2,0.3
			c0.1,0.1,0.2,0.1,0.3,0.1c0.1,0,0.1,0,0.2,0l0.2-0.1c0.1,0,0.2-0.1,0.3-0.2v-0.1l0.4,0.2h0.1v0.1l0.9,1.4l-0.7,0.2
			c-0.1,0-0.2,0.1-0.3,0.2c-0.1,0.1-0.1,0.3,0,0.4l0.7,1.9l-0.3,1.5c0,0.1,0,0.1,0,0.2l0.1,0.9c0,0.2,0.2,0.4,0.5,0.4h0.1l1.3-0.2
			c0.1,0,0.1,0,0.2-0.1l1.2-0.8l1.5-0.4c0.1,0,0.2-0.1,0.3-0.2l0.6-1c0-0.1,0.1-0.2,0.1-0.2v-2.3v-0.1l-0.4-1.4v-0.1l-1.3-2.2
			c0-0.1-0.1-0.1-0.2-0.2c0-0.1,0-0.2-0.1-0.3l-0.8-0.8l-0.1-0.1l-0.4-0.2c0-0.1,0.1-0.1,0.1-0.2v-0.8l0.6-0.5l1.1-0.3
			c0.1,0,0.1-0.1,0.2-0.1l0.7-0.7l0.3-0.3l0.7-0.4c0.2-0.1,0.3-0.3,0.2-0.5v-1.4l0.4-0.6l0.7-0.7l0,0c0.2,0,0.4,0,0.5-0.2l0,0
			c0.2,0,0.4-0.1,0.4-0.3l0.1-0.2l2-1.5l0.8,0.9c0.1,0.1,0.3,0.2,0.4,0.2h0.9c0.1,0,0.2,0,0.2-0.1l2.2-1.3c0.1,0,0.1-0.1,0.1-0.1
			l5.7-7c0,0,0.1-0.1,0.1-0.2l0.5-1.6l2.6-3.6c0-0.1,0.1-0.1,0.1-0.2l0.8-4.2l0.1-3.1l1.1-2.3v0.3c0,0.1,0,0.1,0,0.2l1,2.6l-0.1,3.4
			l-0.4,2v0.1l0.2,2.7l-0.2,2.5v0.1l0.2,1.5c0,0.2,0.2,0.4,0.4,0.4h0.1c0.2,0,0.3-0.1,0.4-0.2l0.6-1.1l0.7,0.8
			c0.1,0.2,0.3,0.2,0.5,0.1s0.3-0.2,0.3-0.5v-1.2c0-0.1,0-0.2-0.1-0.3l-1.6-2.4l0.9-3.3l1.8,0.6c0.2,0.1,0.4,0,0.5-0.1
			s0.2-0.3,0.1-0.5l-1.6-4.2l-0.7-2.7l0.1-2.8v-0.1l-1-4.4c0-0.2-0.1-0.3-0.3-0.3c-0.1-0.1-0.3-0.1-0.4,0l-0.4,0.2
			c-0.2,0.1-0.3,0.4-0.2,0.7l0.5,1l-1.3,1.1c-0.1,0.1-0.2,0.2-0.2,0.4V53c0,0,0-0.1-0.1-0.2l-2.4-3c-0.1-0.1-0.2-0.2-0.4-0.2
			l-1.7-0.2c-0.2,0-0.3,0-0.5,0.2l-0.9,1.2l-1.3-0.5l-0.8-1.6c-0.1-0.2-0.2-0.3-0.4-0.3l-2-0.3l6.2-6.8l5.5-6.2l5.5-1l5.2,0.6
			c0.1,0,0.3,0,0.4-0.1l2-1.5l2.3,0.4l-0.1,1.9c0,0.2,0,0.3,0.2,0.4c0.1,0.1,0.3,0.2,0.4,0.1l2.5-0.3l3.5-0.8c0.2,0,0.3-0.2,0.3-0.3
			c0.1-0.2,0-0.3,0-0.5l-1.1-1.7l4.1-5.6l4-1.1l1.2,3.8c0,0.2,0.2,0.3,0.3,0.3c0.2,0,0.3,0,0.5-0.1l4.1-3.6c0.1,0,0.1-0.1,0.1-0.2
			l0.9-2.8l1.5-0.2l-1.2,4.6l-3.1,2.8l-3,3.5l-3,4l-2.4,0.7c-0.2,0.1-0.4,0.2-0.4,0.5l-0.1,1.3l-1.4,1.8c0,0.1-0.1,0.1-0.1,0.2
			l-0.8,4.2c0,0,0,0.1,0,0.2l1,6.5l0.8,4.1l0.5,1.5c0.1,0.2,0.2,0.3,0.4,0.3s0.3,0,0.5-0.1l2.2-2.3c0.1-0.1,0.1-0.2,0.1-0.3l0.5-2.6
			l2.2-0.6c0.2-0.1,0.3-0.2,0.4-0.4l0.5-3l2.7-1.3c0.1-0.1,0.2-0.2,0.2-0.3s0-0.3,0-0.4l-0.5-1l0.6-2.2l1.2-0.1
			c0.3,0,0.5-0.2,0.5-0.5l0.2-4.2c0-0.2-0.1-0.4-0.3-0.5l-1.6-0.6v-1l2-3.1c0,0,0.1-0.1,0.1-0.2l0.5-1.9l1.9,0.4
			c0.2,0,0.3,0,0.4-0.1l1.3-1.2l0.5,0.8c0.1,0.2,0.5,0.3,0.7,0.2l4.1-2.5l2.1,2c0.1,0.1,0.3,0.2,0.5,0.1c0.2,0,0.3-0.1,0.4-0.3
			l0.5-1.2l2.5-2.1L586,26l1.4-0.4h0.1l4.7-2.7l2.9,0.7c0.2,0.1,0.5-0.1,0.6-0.3l0.3-0.8c0-0.1,0-0.2,0-0.3V21c0-0.1,0-0.2-0.1-0.2
			l-0.7-0.9l-1-3.1c0,0,0-0.1-0.1-0.1L593,15l1.4,0.2c0.1,0,0.3,0,0.4-0.1l2.1-1.7l0.1-0.1l0.9-1.6c0.1-0.1,0.1-0.3,0-0.4l-0.6-1.6
			l1.2-0.6l-0.2,0.9c0,0.1,0,0.3,0.1,0.4l0.8,1.2c0.1,0.2,0.3,0.3,0.5,0.2l1.7-0.5l1.5,0.6l0.3,1.5c0,0.2,0.1,0.3,0.3,0.3l2.1,1.1
			l1.2,1.3c0.1,0.1,0.2,0.1,0.3,0.2l1.4,0.1c0.2,0,0.3-0.1,0.4-0.2l0.6-0.7c0.1-0.1,0.1-0.2,0.1-0.3v-3.6l2.5-0.4
			c0.1,0,0.2-0.1,0.3-0.2l1.5-1.6C614.3,9.2,614.3,8.9,614.2,8.7z M336.6,78.5l0.6-0.7c0.1-0.1,0.1-0.2,0.1-0.3l0,0
			c0.1-0.1,0.2-0.2,0.2-0.3l0.4-2.3h0.1c0.1,0.1,0.3,0.1,0.5,0l0.6-0.4c0.2-0.1,0.2-0.3,0.2-0.5v-0.4l0,0l0,0l1.2-1.7v-0.1l0.5-1.2
			l1.1-0.2l0.1,0.5c0,0.2,0.2,0.4,0.4,0.4l2.5,0.6l0.1,0.1h0.1l-1.4,0.7c-0.1,0-0.2,0.1-0.2,0.2l-0.1,0.2c-0.1,0.1-0.1,0.3-0.1,0.4
			s0.2,0.3,0.3,0.3l1.4,0.5L345,75c-0.1,0.2,0,0.5,0.2,0.6l0.7,0.3c0.1,0,0.2,0.1,0.2,0.1c0.1,0,0.2,0,0.3-0.1l2.1-1.3l1.8-0.4
			c0.2,0,0.3-0.1,0.4-0.3l0.2-0.5c0.1-0.2,0-0.3-0.1-0.5c-0.1-0.1-0.3-0.2-0.4-0.2l-1.3,0.1l-0.7-0.5l-0.7-0.7l0.5-0.4l1.4-0.9
			l1.5-0.1c0.1,0,0.2,0,0.2-0.1l1-0.7l1.1-0.2c0.1,0,0.2-0.1,0.2-0.1c0.1,0,0.1,0,0.2,0l0.8-0.2l-1.9,0.8c-0.2,0.1-0.3,0.2-0.3,0.4
			c0,0.2,0,0.3,0.1,0.4l0.6,0.6l-1.2,1.8l-0.8,0.3c-0.2,0-0.3,0.2-0.3,0.4c0,0.2,0,0.3,0.2,0.5l1.2,1.2l0.1,0.1l1.8,0.8l2,1.8
			c0.1,0,0.1,0.1,0.2,0.1c0,0.1,0,0.1,0.1,0.2l0.5,0.5c0.1,0.1,0.2,0.1,0.2,0.2l0.8,0.2l0.9,0.8l0.4,1.4L359,82v0.1l-1.9,1.1
			l-1.3-0.2c0,0-0.1,0-0.2,0l-1.9,0.3l-2.3-0.8l-3-1.6c-0.1,0-0.1,0-0.2-0.1h-2.8h-0.1l-1.9,0.6c0,0-0.1,0-0.1,0.1l-1.9,1.4l-3-0.3
			c-0.1,0-0.3,0.1-0.4,0.2v-0.1c0-0.1-0.1-0.2-0.2-0.3l-1.2-0.6l-0.1-0.6c0-0.1-0.1-0.2-0.2-0.3c0-0.1,0-0.2,0-0.3L336,80
			L336.6,78.5z M335.1,84.6L335.1,84.6l0.7-0.6l1.8-0.1c0.1,0,0.2-0.1,0.3-0.1l-0.4,0.9L335.1,84.6c0,0.1-0.1,0.1-0.2,0.1
			L335.1,84.6z M344.9,104.5l-1.2-0.4c-0.2-0.1-0.5,0-0.6,0.2l0,0l-0.2-0.4c-0.1-0.1-0.2-0.2-0.4-0.3l-1.1-0.2c-0.1,0-0.1,0-0.2,0
			l-1.4,0.2c-0.1,0-0.2,0-0.3,0.1l-0.6,0.5l-1.2,0.6l-2.4-0.9l-1.6-0.5c-0.1,0-0.1,0-0.2,0h-2.1l-0.3-0.4c-0.1-0.1-0.2-0.2-0.4-0.2
			l-1.5-0.2l-0.5-0.3c-0.1-0.1-0.2-0.1-0.3-0.1H328l-0.5-0.7c-0.1-0.1-0.2-0.2-0.3-0.2l-2.2-0.4c-0.1,0-0.1,0-0.2,0l-1.1,0.2
			c-0.1,0-0.1,0-0.2,0.1l-1.2,0.9c-0.1,0-0.1,0.1-0.1,0.1l-0.5,0.9c-0.1,0.1-0.1,0.2,0,0.4l0.3,1.3l-0.7,0.7l-0.7,0.4l-1.8-0.9
			l-2.4-0.8l-1.4-0.3l-0.7-1.6c-0.1-0.1-0.2-0.2-0.3-0.3l-2.3-0.9l-1.3-0.3c-0.1,0-0.2,0-0.2,0l-0.6,0.1l-1.7-0.6
			c-0.1,0-0.2,0-0.2,0l-0.1-0.1l-0.4-0.2l-0.3-0.8c-0.1-0.2-0.2-0.3-0.4-0.3h-0.6l-0.2-0.7l1-0.9c0.1-0.1,0.1-0.2,0.1-0.3l0.2-1.6
			c0-0.2,0-0.3-0.2-0.4l-0.4-0.3V94l0.7-0.9c0.1-0.1,0.1-0.4,0.1-0.5s-0.1-0.3-0.3-0.3c-0.1-0.1-0.3-0.1-0.4,0l-0.8,0.4v-0.4
			c0-0.2-0.2-0.5-0.4-0.5l-1-0.2c-0.1,0-0.2,0-0.3,0l-1.7,0.8c0,0-0.1,0-0.1,0.1c-0.1,0-0.1,0-0.2,0l-0.7,0.1l-0.5-0.4
			c-0.1-0.1-0.2-0.1-0.3-0.1h-1.7c-0.1,0-0.2,0-0.2,0.1l-1.5,0.8l-0.7-0.3c-0.1,0-0.1,0-0.2,0l-2.8,0.2l-2.9,0.4h-0.1l-1.6,0.6
			c0,0-0.1,0-0.1,0.1l-1,0.8l-1.7,0.3c-0.1,0-0.1,0-0.2,0.1l-1.5,1c0,0,0,0-0.1,0.1l0,0h-0.6l-1.7-0.4c-0.1,0-0.1,0-0.2,0l-1.5,0.1
			l-0.9-0.8c-0.1-0.1-0.2-0.1-0.3-0.1l0,0l0.5-0.7l1-0.7h1.6h2.1c0.2,0,0.3-0.1,0.4-0.2l1.1-1.5l1.1-0.4c0.2,0,0.3-0.2,0.3-0.4
			l0.3-1.2l0.8-0.8c0.2-0.2,0.2-0.4,0.1-0.6l-0.5-1l0.6-1.6l1-1.2c0-0.1,0.1-0.1,0.1-0.2l0.1-0.5l2-0.4c0.1,0,0.2-0.1,0.2-0.1
			l1.5-1.4c0.1-0.1,0.2-0.2,0.2-0.4l-0.1-1c0-0.1,0-0.1-0.1-0.2v-0.1l0.1-1.1l2.2-0.7l3.2,0.6c0.2,0,0.3,0,0.4-0.1l1.4-1.2
			c0,0,0,0,0-0.1c0.1,0,0.1,0,0.2,0l0.3-0.1c0.1,0,0.2-0.1,0.2-0.2l0.9-1l0.6-0.2l1.3,0.7h0.1l0.7,0.2l0.5,2.1
			c0,0.1,0.1,0.1,0.1,0.2l1.2,1.3l1.6,1.5l1.3,1c0.1,0.1,0.2,0.1,0.2,0.1l1.1,0.1l0.6,0.8c0.1,0.1,0.1,0.1,0.2,0.2l0.9,0.3l0.4,0.8
			c0,0.1,0.2,0.2,0.3,0.2l0.5,0.2l1.1,2.1l-0.2,0.3c0,0.1-0.1,0.1-0.1,0.2l-0.3,1.1c-0.1-0.1-0.2-0.2-0.4-0.2l-2.7,0.4l-1.8-0.2
			c-0.2,0-0.5,0.2-0.5,0.4l-0.2,0.8c-0.1,0.2,0.1,0.5,0.3,0.6l2.3,1.1l0.8,0.2l1.1,0.7c0.1,0,0.2,0.1,0.3,0.1c0.1,0,0.1,0,0.2,0
			c0.1-0.1,0.3-0.2,0.3-0.3l0.2-0.8c0-0.1,0-0.2,0-0.3l-0.2-0.5l0.4-1l0.1,0.1c0.1,0.1,0.2,0.1,0.3,0.1h0.1l0.4-0.1
			c0.1,0,0.3-0.1,0.3-0.3l0.8-1.7l0.4-0.1c0.2,0,0.4-0.2,0.4-0.4l0.1-0.9c0-0.2,0-0.4-0.2-0.5l-0.9-0.6l0.5-1l1.2,0.3l0.7,0.7
			c0.1,0.1,0.3,0.2,0.5,0.2s0.3-0.1,0.4-0.3l0.2-0.4c0-0.1,0-0.3,0-0.4l-0.1-0.3c0-0.1-0.1-0.1-0.1-0.2l-1.5-1.2l-2.4-1.3l0,0
			c0.2-0.2,0.2-0.5,0-0.7l-0.2-0.3c-0.1-0.1-0.2-0.2-0.4-0.2h-1.1l-1.8-1.7l-0.8-1.8c0-0.1-0.1-0.2-0.2-0.2l-1.5-1.1l-0.5-1l0.2-0.5
			c0-0.1,0-0.1,0-0.2l-0.1-1l1.1-0.7l0.7,0.2c-0.1,0.1-0.1,0.2-0.1,0.3v0.6c0,0.1,0,0.2,0.1,0.3l0.3,0.4c0.1,0.2,0.3,0.3,0.5,0.2
			c0.2,0,0.3-0.1,0.4-0.3l0.2-0.5l0.7,0.2v0.6c0,0.1,0,0.2,0.1,0.3l0.6,0.7c-0.1,0.1-0.1,0.1-0.1,0.2c0,0.2,0,0.3,0.1,0.4l1.2,1.5
			c0.1,0.1,0.1,0.1,0.2,0.1l1.4,0.6l1,0.8c0,0,0.1,0,0.1,0.1l1.4,0.7c0,0,0.1,0,0.2,0c0,0.1,0.1,0.1,0.2,0.1l0.5,0.3l0.3,0.5
			c0.1,0.2,0.2,0.2,0.4,0.2l0,0c0,0.1,0,0.1,0.1,0.2L321,82l-0.2,0.6v0.1l-0.1,1.5v0.1l0.1,0.9c0,0.1,0.1,0.2,0.2,0.3l0.8,0.6v0.2
			c0,0.2,0.1,0.4,0.3,0.4l0,0l0.1,0.5c0,0.1,0.1,0.2,0.2,0.3l0.7,0.5v0.1c0,0.1,0,0.4,0.1,0.5l0.6,0.9c0.1,0.1,0.2,0.2,0.4,0.2h0.1
			l-0.3,0.2c-0.2,0.2-0.2,0.4-0.1,0.6l0.2,0.3c0.1,0.1,0.2,0.2,0.3,0.3l0.2,0.2l0.1,0.2l-0.1,0.1c-0.1,0.1-0.2,0.3-0.1,0.5l0.2,0.5
			c0,0.1,0.1,0.1,0.1,0.2l0.1,0.1c0.2,0.1,0.4,0.2,0.6,0.1c0.1-0.1,0.2-0.2,0.2-0.3l0.1,0.2c0.1,0.2,0.2,0.2,0.4,0.2h0.1
			c0.1,0,0.2-0.1,0.3-0.2h0.1c0.2,0.1,0.4,0.1,0.5,0c0.2-0.1,0.3-0.3,0.2-0.6l-0.2-0.7c0.1,0,0.2,0,0.2,0l0.2-0.1
			c0.1,0,0.3-0.1,0.3-0.3c0.1-0.1,0.1-0.3,0-0.4l-0.2-0.5h0.2l0.4,0.3c0.2,0.1,0.4,0.2,0.5,0.1c0.2-0.1,0.3-0.3,0.3-0.5v-0.7
			c0-0.2-0.1-0.3-0.2-0.4l-0.7-0.5l-0.8-0.8l0.2-0.1c0.1-0.1,0.2-0.2,0.2-0.3c0-0.1,0-0.3-0.1-0.4l-0.7-0.8l-0.3-1.1l0,0l0.6,0.8
			c0.1,0.1,0.2,0.2,0.4,0.2h0.8c0.1,0,0.1,0,0.2,0l0.6-0.2c0.2-0.1,0.3-0.2,0.3-0.4c0-0.2,0-0.3-0.1-0.4l-0.6-0.7l1.5-0.4l0.9,0.2
			h0.7v0.1c0,0.1,0,0.2,0.1,0.2l0.4,0.8c0.1,0.1,0.2,0.2,0.3,0.3h0.1c0.1,0,0.2,0,0.3-0.1l0.8-0.7l-1.6,1.8c-0.2,0.2-0.2,0.5,0,0.7
			l0.8,0.8l-0.7,1.4c-0.1,0.2,0,0.4,0.1,0.6l1.1,1.1l0.9,2c0.1,0.2,0.3,0.3,0.5,0.3h1.6l1.5,1c0.1,0.1,0.2,0.1,0.4,0.1l1-0.2
			c0.2,0,0.3-0.1,0.3-0.3l0.3-0.6l1.5,0.1l1.2,1c0.1,0.1,0.2,0.1,0.4,0.1l2.4-0.2c0.1,0,0.2-0.1,0.3-0.1l1-1l1.2,0.4
			c0.1,0,0.2,0,0.2,0h0.2l-0.1,0.1c-0.1,0.2-0.1,0.4,0,0.6l0.4,0.6c0,0,0,0,0.1,0l-0.3,0.7c0,0.1,0,0.2,0,0.3l0.1,1.4c0,0,0,0,0,0.1
			l0,0l-0.9,1.5l-0.5,1.4c0,0.1,0,0.1,0,0.2c-0.1,0.1-0.1,0.1-0.2,0.2l-0.2,0.4v0.1l-0.3,1.4l-0.4,0.8c0,0.1-0.1,0.2,0,0.3l-0.3,0.4
			v0.1c0,0-0.1,0-0.2,0l-0.5,0.3L344.9,104.5z M362.2,138.4c0-0.1-0.1-0.2-0.2-0.2l-0.6-0.4l-1.5-1.6l-1-1.1l-2.3-1.6l-0.9-0.8
			l-0.5-1.6l-0.8-1.8c0-0.1-0.1-0.2-0.2-0.2c0-0.1-0.1-0.2-0.2-0.3l-1.3-0.9l-0.6-2l-0.2-1.8l0.1-0.1c0.2-0.1,0.2-0.3,0.2-0.5
			l-0.5-1.5c0-0.1-0.1-0.2-0.3-0.3c0-0.1,0-0.2-0.1-0.3c0,0,0,0-0.1-0.1l-1.9-1.5v-0.9l0.1-0.1c0.2-0.2,0.2-0.5,0.1-0.7l-1.4-1.9
			l-0.6-1.1l-0.6-1l-1.3-3l-0.2-0.3l0.5,0.6c0.2,0.2,0.5,0.2,0.7,0l0.2-0.2c0.1-0.1,0.1-0.1,0.1-0.2l0.3-0.7c0,0.1,0,0.2,0.1,0.2
			c0.1,0.1,0.2,0.2,0.4,0.2l0,0h0.4l1.8,2.7l0.7,1.4c0,0.1,0.1,0.1,0.1,0.2l0.4,0.4l0.4,0.8v0.2c0,0.1,0,0.2,0,0.3l0.5,0.9
			c0.1,0.1,0.1,0.2,0.2,0.2l0.8,0.3l0.7,0.7l0.9,1.9l-0.1,1v0.1l0.2,1.2c0,0.1,0,0.1,0.1,0.2l1.1,1.7c0,0.1,0.1,0.2,0.2,0.2l0.6,0.2
			l1.1,1.2l0.5,1.4v0.1l0.9,1.4c0,0.1,0.1,0.1,0.1,0.1l0.8,0.5l0.1,0.5c0,0.1,0.1,0.2,0.1,0.2l0.4,0.4l0.1,0.4
			c0,0.1,0.1,0.1,0.1,0.2c0,0.1,0,0.1,0,0.2v0.6l-0.1,0.2c-0.1,0.1-0.1,0.2-0.1,0.4l0.1,0.5c-0.1,0-0.1,0.1-0.1,0.2
			c-0.1,0.2,0,0.3,0.1,0.5l0.3,0.4l0.3,1.2v0.1l0.2,0.4v0.8c0,0.1,0,0.2,0,0.2l0.3,0.7C362.3,138.5,362.3,138.4,362.2,138.4z
			 M380.6,84.2l-1.3-0.4c-0.1,0-0.3,0-0.4,0c-0.1,0.1-0.2,0.2-0.2,0.3l-0.3,1.4c0,0.1,0,0.3,0.1,0.4s0.2,0.2,0.3,0.2l0.6,0.1l-0.3,1
			c-0.1,0.2,0,0.5,0.2,0.6l1,0.6l-0.2,2c0,0,0,0.1,0,0.2l0.3,1.3c0,0,0,0.1,0.1,0.1l0,0l-0.1,0.2l-2.5,0.5l-2.3-0.3l-1.1-1
			c0-0.1-0.1-0.1-0.2-0.1l-1.4-0.4l-0.4-1.3c0,0,0-0.1-0.1-0.1c0,0,0-0.1,0-0.2v-0.8l0.5-0.4c0.1,0,0.1-0.1,0.2-0.2l0.3-0.8l0.3-1.5
			l0.8-0.1c0.2,0,0.3-0.1,0.4-0.3c0.1-0.2,0-0.4-0.1-0.5l-0.2-0.3c-0.1-0.1-0.2-0.2-0.3-0.2l-0.6-0.1l-0.8-1.5l-0.7-1
			c0-0.1-0.1-0.1-0.2-0.1c0-0.1,0-0.1-0.1-0.2L370,79l0.2-1.4c0-0.1,0-0.2-0.1-0.3l-1.4-2l1.5-2.2l1.5-0.3c0.1,0,0.2-0.1,0.3-0.2
			l0.6-1.2c0,0,0,0,0-0.1l0,0l1.6-0.5l1.8-1l1.3,0.5c0.1,0,0.2,0,0.2,0l1.4-0.1l0.2,1.2l-0.3,2l-1.1-0.3c-0.1,0-0.2,0-0.2,0
			l-1.3,0.3c-0.2,0.1-0.4,0.2-0.4,0.5v1.3l-1.1-0.2c-0.1,0-0.3,0-0.4,0.1s-0.2,0.2-0.2,0.4v0.4c0,0.2,0.1,0.3,0.2,0.4l0.8,0.5
			l0.7,1.9c0,0.1,0.1,0.2,0.3,0.3l1.8,0.7l0.2,0.6l-0.4,0.8c0,0.1,0,0.2,0,0.3v0.1c0,0.1,0.1,0.2,0.1,0.2c0,0.1,0,0.2,0,0.3l0.2,0.5
			c0.1,0.2,0.3,0.3,0.5,0.3c0,0,0,0,0.1,0c0.2,0,0.4-0.2,0.4-0.4l0.1-0.6l0.6-0.3c0.1-0.1,0.2-0.2,0.3-0.3l0.4,1.1
			c0,0.1,0.1,0.1,0.1,0.2l1,1L380.6,84.2z"/>
		<path class="st0" d="M494.1,120.7l0.7,1.2c0.1,0.2,0.3,0.2,0.4,0.2l0,0c0.2,0,0.4-0.1,0.4-0.3l0.6-1.2l1-3l0.3-1
			c0.1-0.2,0-0.4-0.2-0.5l-0.5-0.4c-0.2-0.1-0.5-0.1-0.6,0.1l-1.2,1.3l-0.1,0.1l-1,1.8c-0.1,0.1-0.1,0.2-0.1,0.3l0.2,1.3
			C494,120.5,494,120.6,494.1,120.7z"/>
		<path class="st0" d="M27.1,38.5c-0.1-0.1-0.2-0.2-0.3-0.2l-1-0.2c-0.1,0-0.2,0-0.3,0l-0.9,0.5l-1.4,1C23,39.7,23,39.9,23,40.1
			l0.2,1.3c0,0.1,0.1,0.2,0.2,0.3l0.7,0.6c0.1,0.1,0.2,0.1,0.3,0.1c0.1,0,0.2,0,0.3-0.1l1.6-1.2l1.3-1.4c0.2-0.2,0.2-0.4,0-0.6
			L27.1,38.5z"/>
		<path class="st0" d="M62.3,53.4l0.4-2.9c0-0.2,0-0.3-0.1-0.4c-0.1-0.1-0.3-0.2-0.4-0.1l-1.3,0.2L60.4,50c-0.1-0.1-0.3-0.1-0.5,0
			c-0.1,0.1-0.2,0.2-0.3,0.4L59.5,51c0,0.1,0,0.1,0,0.2l0.3,1.2c0,0.1,0.1,0.2,0.1,0.2l0.8,0.8l0.6,1.3c0,0,0,0.1,0.1,0.1l0.9,1.2
			c0.1,0.1,0.2,0.2,0.4,0.2h0.2l0,0c0.2,0,0.4-0.1,0.4-0.3c0.1-0.2,0.1-0.4,0-0.5L62.3,53.4z"/>
	</g>
	<path class="st0" d="M100.2,0.1h-0.7L99.6,0C99.8,0,100,0,100.2,0.1z"/>
</g>
</svg>
