<?xml version="1.0" encoding="utf-8"?>
<!-- Generator: Adobe Illustrator 19.1.0, SVG Export Plug-In . SVG Version: 6.00 Build 0)  -->
<svg version="1.1" id="Layer_1" xmlns="http://www.w3.org/2000/svg" xmlns:xlink="http://www.w3.org/1999/xlink" x="0px" y="0px"
	 viewBox="0 0 64 64" style="enable-background:new 0 0 64 64;" xml:space="preserve">
<style type="text/css">
	.st0{fill:#010101;}
	.st1{fill-rule:evenodd;clip-rule:evenodd;fill:none;}
	.st2{fill-rule:evenodd;clip-rule:evenodd;fill:none;stroke:#000000;stroke-linejoin:round;stroke-miterlimit:3.8637;}
</style>
<path class="st0" d="M18.3,13c0-6.7,5.5-12.2,12.2-12.2h21.3C58.5,0.8,64,6.2,64,13V19h-3V13c0-5-4.1-9.1-9.1-9.1s-9.1,4.1-9.1,9.1
	v3h13.7L30.5,34.3L4.6,16h13.7V13z M43.7,3.8H30.5c-5,0-9.1,4.1-9.1,9.1V19h-7.2l16.3,11.5L46.8,19h-7.2V13
	C39.6,9.3,41.2,6,43.7,3.8z M4.3,48.4C3.5,49.3,3,50.2,3,51c0,4.3,10.4,9.1,27.4,9.1s27.4-4.8,27.4-9.1c0-0.9-0.4-1.7-1.2-2.6
	c-5.5,3.7-15.8,5.6-26.2,5.6S9.8,52.1,4.3,48.4z M61,51c0,7.9-15,12.2-30.5,12.2S0,59,0,51c0-1.7,0.7-3.2,1.9-4.6
	C0.7,45.1,0,43.6,0,41.9c0-6,8.7-10,19.7-11.5l3.7,2.6C10.6,34.2,3,38.2,3,41.9C3,46.2,13.4,51,30.5,51s27.4-4.8,27.4-9.1
	c0-3.7-7.6-7.7-20.4-8.9l3.7-2.6c11,1.5,19.7,5.4,19.7,11.5c0,1.7-0.7,3.2-1.9,4.6C60.3,47.8,61,49.4,61,51z M24.6,41.5
	c0.7,0.5,2.8,1.1,5.9,1.1s5.1-0.7,5.9-1.1c-0.7-0.5-2.8-1.1-5.9-1.1S25.3,41,24.6,41.5z M30.5,45.6c-4.6,0-9.1-1.3-9.1-4.1
	c0-2.8,4.6-4.1,9.1-4.1s9.1,1.3,9.1,4.1C39.6,44.4,35,45.6,30.5,45.6z"/>
</svg>
