<?xml version="1.0" encoding="utf-8"?>
<!-- Generator: Adobe Illustrator 19.1.0, SVG Export Plug-In . SVG Version: 6.00 Build 0)  -->
<svg version="1.1" id="Layer_1" xmlns="http://www.w3.org/2000/svg" xmlns:xlink="http://www.w3.org/1999/xlink" x="0px" y="0px"
	 viewBox="0 0 64 64" style="enable-background:new 0 0 64 64;" xml:space="preserve">
<style type="text/css">
	.st0{fill-rule:evenodd;clip-rule:evenodd;fill:none;}
	.st1{fill:none;}
	.st2{fill:#010101;}
	.st3{fill:#020202;}
</style>
<rect x="-0.1" y="0.8" class="st0" width="67.9" height="67.9"/>
<g>
	<path d="M14.2,44.4h35.6V19.6H14.2V44.4z M16,42.7L16,42.7l12.1-9.5l3.9,3.1l3.9-3.1L48,42.7v0H16z M16,40.4V23.6L26.6,32L16,40.4z
		 M37.4,32L48,23.6v16.8L37.4,32z M48,21.3L48,21.3L32,34L16,21.3v0H48z"/>
	<polygon points="64,32 53.3,20.4 53.3,26.7 50.7,26.7 50.7,28.4 55.1,28.4 55.1,25 61.6,32 55.1,39 55.1,35.6 50.7,35.6 50.7,37.3 
		53.3,37.3 53.3,43.6 	"/>
	<polygon points="10.7,20.4 0,32 10.7,43.6 10.7,37.3 13.3,37.3 13.3,35.6 8.9,35.6 8.9,39 2.4,32 8.9,25 8.9,28.4 13.3,28.4 
		13.3,26.7 10.7,26.7 	"/>
	<polygon points="26.7,18.7 28.4,18.7 28.4,14.2 25,14.2 32,7.8 39,14.2 35.6,14.2 35.6,18.7 37.3,18.7 37.3,16 43.6,16 32,5.3 
		20.4,16 26.7,16 	"/>
	<polygon points="37.3,45.3 35.6,45.3 35.6,49.8 39,49.8 32,56.2 25,49.8 28.4,49.8 28.4,45.3 26.7,45.3 26.7,48 20.4,48 32,58.7 
		43.6,48 37.3,48 	"/>
</g>
</svg>
