<?xml version="1.0" encoding="utf-8"?>
<!-- Generator: Adobe Illustrator 19.1.0, SVG Export Plug-In . SVG Version: 6.00 Build 0)  -->
<svg version="1.1" id="Layer_1" xmlns="http://www.w3.org/2000/svg" xmlns:xlink="http://www.w3.org/1999/xlink" x="0px" y="0px"
	 viewBox="0 0 64 64" style="enable-background:new 0 0 64 64;" xml:space="preserve">
<style type="text/css">
	.st0{fill:#010101;}
	.st1{fill-rule:evenodd;clip-rule:evenodd;fill:none;}
	.st2{fill-rule:evenodd;clip-rule:evenodd;fill:none;stroke:#000000;stroke-linejoin:round;stroke-miterlimit:3.8637;}
</style>
<path d="M33.4,11.9V10H22.9v1.9H33.4z M59.2,54V32H48.7v22H59.2z M15.3,23.4H4.8V54h10.5V23.4z M2.9,21.5h12.4v-9.6H21V8.1h14.3v3.8
	h13.4v18.1h12.4V54H64v1.9H0V54h2.9V21.5z M34.4,54v-8.6h-3.8V54H34.4z M29.6,44.4h5.7V54h11.5V13.9H17.2V54h12.4V44.4z M7.6,27.3
	h4.8v5.7H7.6V27.3z M11.5,28.3H8.6v3.8h2.9V28.3z M11.5,45.5H8.6v3.8h2.9V45.5z M7.6,44.5h4.8v5.7H7.6V44.5z M11.5,36.9H8.6v3.8h2.9
	V36.9z M7.6,35.9h4.8v5.7H7.6V35.9z M55.4,45.5h-2.9v3.8h2.9V45.5z M51.6,44.5h4.8v5.7h-4.8V44.5z M55.4,36.9h-2.9v3.8h2.9V36.9z
	 M51.6,35.9h4.8v5.7h-4.8V35.9z M25.8,28.3H22v3.8h3.8V28.3z M21,27.3h5.7v5.7H21V27.3z M34.4,28.3h-3.8v3.8h3.8V28.3z M29.6,27.3
	h5.7v5.7h-5.7V27.3z M43,28.3h-3.8v3.8H43V28.3z M38.2,27.3h5.7v5.7h-5.7V27.3z M25.8,36.9H22v3.8h3.8V36.9z M21,35.9h5.7v5.7H21
	V35.9z M34.4,36.9h-3.8v3.8h3.8V36.9z M29.6,35.9h5.7v5.7h-5.7V35.9z M43,36.9h-3.8v3.8H43V36.9z M38.2,35.9h5.7v5.7h-5.7V35.9z
	 M25.8,45.5H22v3.8h3.8V45.5z M21,44.5h5.7v5.7H21V44.5z M43,45.5h-3.8v3.8H43V45.5z M38.2,44.5h5.7v5.7h-5.7V44.5z M25.8,19.7H22
	v3.8h3.8V19.7z M21,18.7h5.7v5.7H21V18.7z M34.4,19.7h-3.8v3.8h3.8V19.7z M29.6,18.7h5.7v5.7h-5.7V18.7z M43,19.7h-3.8v3.8H43V19.7z
	 M38.2,18.7h5.7v5.7h-5.7V18.7z"/>
</svg>
