<?xml version="1.0" encoding="utf-8"?>
<!-- Generator: Adobe Illustrator 19.1.0, SVG Export Plug-In . SVG Version: 6.00 Build 0)  -->
<svg version="1.1" id="Layer_1" xmlns="http://www.w3.org/2000/svg" xmlns:xlink="http://www.w3.org/1999/xlink" x="0px" y="0px"
	 viewBox="0 0 64 64" style="enable-background:new 0 0 64 64;" xml:space="preserve">
<style type="text/css">
	.st0{fill:#010101;}
	.st1{fill-rule:evenodd;clip-rule:evenodd;fill:none;}
	.st2{fill-rule:evenodd;clip-rule:evenodd;fill:none;stroke:#000000;stroke-linejoin:round;stroke-miterlimit:3.8637;}
</style>
<path class="st0" d="M58.7,60.4V48H5.3v12.4H58.7z M62.2,64H1.8V44.4h60.4V64z M48,54.2c0-1.5,1.2-2.7,2.7-2.7
	c1.5,0,2.7,1.2,2.7,2.7c0,1.5-1.2,2.7-2.7,2.7C49.2,56.9,48,55.7,48,54.2z M62.2,40.9H1.8V0h60.4V40.9z M33.8,3.6v8.9h24.9V3.6H33.8
	z M30.2,12.4V3.6H5.3v8.9H30.2z M30.2,28.4H5.3v8.9h24.9V28.4z M58.7,28.4H33.8v8.9h24.9V28.4z M33.8,24.9h24.9V16H33.8V24.9z
	 M5.3,24.9h24.9V16H5.3V24.9z"/>
</svg>
