<?xml version="1.0" encoding="utf-8"?>
<!-- Generator: Adobe Illustrator 19.1.0, SVG Export Plug-In . SVG Version: 6.00 Build 0)  -->
<svg version="1.1" id="Layer_1" xmlns="http://www.w3.org/2000/svg" xmlns:xlink="http://www.w3.org/1999/xlink" x="0px" y="0px"
	 viewBox="0 0 64 64" style="enable-background:new 0 0 64 64;" xml:space="preserve">
<style type="text/css">
	.st0{fill:#010101;}
	.st1{fill-rule:evenodd;clip-rule:evenodd;fill:none;}
	.st2{fill-rule:evenodd;clip-rule:evenodd;fill:none;stroke:#000000;stroke-linejoin:round;stroke-miterlimit:3.8637;}
</style>
<path d="M21.6,52.2h20.9v6.5H21.6V52.2z M41.1,53.6H22.9v3.9h18.3V53.6z M47.7,0v64h-2.6V2.6H18.9V64h-2.6V0H47.7z M41.1,7.8H22.9
	v3.9h18.3V7.8z M21.6,6.5h20.9v6.5H21.6V6.5z M41.1,17H22.9v3.9h18.3V17z M21.6,15.7h20.9v6.5H21.6V15.7z M41.1,26.1H22.9V30h18.3
	V26.1z M21.6,24.8h20.9v6.5H21.6V24.8z M41.1,35.3H22.9v3.9h18.3V35.3z M21.6,34h20.9v6.5H21.6V34z M41.1,44.4H22.9v3.9h18.3V44.4z
	 M21.6,43.1h20.9v6.5H21.6V43.1z"/>
</svg>
