<?xml version="1.0" encoding="utf-8"?>
<!-- Generator: Adobe Illustrator 19.1.0, SVG Export Plug-In . SVG Version: 6.00 Build 0)  -->
<svg version="1.1" id="Layer_1" xmlns="http://www.w3.org/2000/svg" xmlns:xlink="http://www.w3.org/1999/xlink" x="0px" y="0px"
	 viewBox="0 0 64 64" style="enable-background:new 0 0 64 64;" xml:space="preserve">
<style type="text/css">
	.st0{fill:#010101;}
	.st1{fill-rule:evenodd;clip-rule:evenodd;fill:none;}
	.st2{fill-rule:evenodd;clip-rule:evenodd;fill:none;stroke:#000000;stroke-linejoin:round;stroke-miterlimit:3.8637;}
</style>
<path d="M45.7,52.6c0-1.3,1-2.3,2.3-2.3c1.3,0,2.3,1,2.3,2.3c0,1.3-1,2.3-2.3,2.3C46.7,54.9,45.7,53.8,45.7,52.6z M54.9,57.9V47.2
	H42l3.6-3h12.3V61H6.1V44.2h12.3l3.6,3H9.1v10.7H54.9z M32,6.1c-17.1,0-29,4.8-29,9.1s11.9,9.1,29,9.1c17.1,0,29-4.8,29-9.1
	S49.1,6.1,32,6.1z M24.4,27.1v9.5l-5.5,0L32,47.8l13.1-11.2l-5.5,0v-9.5c-2.5,0.2-5.1,0.3-7.6,0.3C29.5,27.4,26.9,27.3,24.4,27.1z
	 M42.7,26.8v6.8h10.7L32,51.8L10.7,33.5h10.7v-6.8C9.8,25.3,0,21.3,0,15.2C0,7.3,16.5,3,32,3c15.5,0,32,4.3,32,12.2
	C64,21.3,54.2,25.3,42.7,26.8z M32,19c-4.5,0-9.1-1.3-9.1-4.1c0-2.8,4.6-4.1,9.1-4.1c4.6,0,9.1,1.3,9.1,4.1C41.1,17.7,36.6,19,32,19
	z M26.1,14.9c0.7,0.5,2.8,1.1,5.9,1.1c3.1,0,5.1-0.7,5.9-1.1c-0.7-0.5-2.8-1.1-5.9-1.1C28.9,13.7,26.9,14.4,26.1,14.9z"/>
</svg>
