<?xml version="1.0" encoding="utf-8"?>
<!-- Generator: Adobe Illustrator 19.1.0, SVG Export Plug-In . SVG Version: 6.00 Build 0)  -->
<svg version="1.1" id="Layer_1" xmlns="http://www.w3.org/2000/svg" xmlns:xlink="http://www.w3.org/1999/xlink" x="0px" y="0px"
	 viewBox="0 0 64 64" style="enable-background:new 0 0 64 64;" xml:space="preserve">
<style type="text/css">
	.st0{fill:#010101;}
	.st1{fill-rule:evenodd;clip-rule:evenodd;fill:none;}
	.st2{fill-rule:evenodd;clip-rule:evenodd;fill:none;stroke:#000000;stroke-linejoin:round;stroke-miterlimit:3.8637;}
</style>
<path d="M32,3.2C16.1,3.2,3.2,16.1,3.2,32S16.1,60.8,32,60.8S60.8,47.9,60.8,32S47.9,3.2,32,3.2z M0,32C0,14.3,14.3,0,32,0
	c17.7,0,32,14.3,32,32S49.7,64,32,64C14.3,64,0,49.7,0,32z M39.8,27.4l3.4,3.4v-6.1c0-2.2-1.8-4-4-4h-4v-1.6h4
	c3.1,0,5.6,2.5,5.6,5.6v6.1l3.4-3.4l1.1,1.1L44,33.9l-5.4-5.4L39.8,27.4z M48,48v-9.6H36.8v-1.6H32V48H48z M49.6,49.6H30.4V35.2h8
	v1.6h11.2V49.6z M32,27.2v-9.6H20.8V16H16v11.2H32z M33.6,28.8H14.4V14.4h8V16h11.2V28.8z M24.2,38.2l-3.4-3.4v6.1c0,2.2,1.8,4,4,4
	h4v1.6h-4c-3.1,0-5.6-2.5-5.6-5.6v-6.1l-3.4,3.4L14.6,37l5.4-5.4l5.4,5.4L24.2,38.2z"/>
</svg>
