<?xml version="1.0" encoding="utf-8"?>
<!-- Generator: Adobe Illustrator 19.1.0, SVG Export Plug-In . SVG Version: 6.00 Build 0)  -->
<svg version="1.1" id="Layer_1" xmlns="http://www.w3.org/2000/svg" xmlns:xlink="http://www.w3.org/1999/xlink" x="0px" y="0px"
	 viewBox="0 0 64 64" style="enable-background:new 0 0 64 64;" xml:space="preserve">
<style type="text/css">
	.st0{fill-rule:evenodd;clip-rule:evenodd;fill:none;}
	.st1{fill:#010101;}
</style>
<g>
	<path d="M35.4,1.8v19.8h-6.9V1.8H35.4z M33.7,3.5h-3.4v16.4h3.4V3.5z M22.8,8.1c0.2-0.2,0.5-0.3,0.7-0.5c0.2-0.1,0.5-0.3,0.8-0.4
		l2.8,6.3c-0.3,0.2-0.5,0.3-0.7,0.5c-0.2,0.2-0.5,0.4-0.7,0.6c-2,1.7-3.2,4.3-3.2,7.1c0,5.2,4.2,9.5,9.5,9.5s9.5-4.2,9.5-9.5
		c0-2.8-1.2-5.4-3.2-7.1c-0.2-0.2-0.5-0.4-0.7-0.6c-0.2-0.2-0.5-0.3-0.7-0.5l2.8-6.3c0.3,0.1,0.5,0.3,0.8,0.4
		c0.2,0.2,0.5,0.3,0.7,0.5c4.3,2.9,7.2,7.9,7.2,13.6C48.4,30.7,41.1,38,32,38s-16.4-7.3-16.4-16.4C15.6,16,18.5,11,22.8,8.1z
		 M25,12.9l-1.4-3.2c-3.7,2.7-6.2,7-6.2,12c0,8.1,6.6,14.7,14.7,14.7s14.7-6.6,14.7-14.7c0-4.9-2.4-9.3-6.2-12L39,12.9
		c2.5,2.1,4.2,5.2,4.2,8.7c0,6.2-5,11.2-11.2,11.2c-6.2,0-11.2-5-11.2-11.2C20.8,18.1,22.4,15,25,12.9z M14.8,62.2v-7.4l-8.6-8.6
		V28.6h6v12.6l2.6-2.6l10.3,10.3v13.3h-1.7V49.6L14.8,41L13,42.8l5.9,5.9l-1.2,1.2l-7.2-7.2V30.3H7.9v15.2l8.6,8.6v8.1H14.8z
		 M38.9,62.2V48.9l10.3-10.3l2.6,2.6V28.6h6v17.6l-8.6,8.6v7.4h-1.7v-8.1l8.6-8.6V30.3h-2.6v12.4l-7.2,7.2l-1.2-1.2l5.9-5.9L49.2,41
		l-8.6,8.6v12.6H38.9z"/>
	<rect x="-1.6" y="-1.6" class="st0" width="67.3" height="67.3"/>
</g>
</svg>
