<?xml version="1.0" encoding="utf-8"?>
<!-- Generator: Adobe Illustrator 19.1.0, SVG Export Plug-In . SVG Version: 6.00 Build 0)  -->
<svg version="1.1" id="Layer_1" xmlns="http://www.w3.org/2000/svg" xmlns:xlink="http://www.w3.org/1999/xlink" x="0px" y="0px"
	 viewBox="0 0 64 64" style="enable-background:new 0 0 64 64;" xml:space="preserve">
<style type="text/css">
	.st0{fill:#010101;}
	.st1{fill-rule:evenodd;clip-rule:evenodd;fill:none;}
	.st2{fill-rule:evenodd;clip-rule:evenodd;fill:none;stroke:#000000;stroke-linejoin:round;stroke-miterlimit:3.8637;}
</style>
<path class="st0" d="M23.9,22.8h8.7v29.3h-8.7V22.8z M30.4,24.9H26v24.9h4.3V24.9z M43.4,14.1h-4.3v35.8h4.3V14.1z M36.9,11.9h8.7
	v40.1h-8.7V11.9z M45.6,62.9h-8.7v-2.2h8.7V62.9z M32.5,62.9h-8.7v-2.2h8.7V62.9z M19.5,62.9h-8.7v-2.2h8.7V62.9z M64,58.6H3.3v-6.5
	H0v-2.2h3.3v-3.3H0v-2.2h3.3v-3.3H0v-2.2h3.3v-3.3H0v-2.2h3.3v-3.3H0v-2.2h3.3v-3.3H0v-2.2h3.3v-3.3H0v-2.2h3.3v-3.3H0v-2.2h3.3V8.7
	H0V6.5h3.3V3.3H0V1.1h5.4v55.3H64V58.6z M58.6,62.9h-8.7v-2.2h8.7V62.9z M56.4,3.3h-4.3v46.6h4.3V3.3z M49.9,1.1h8.7v51h-8.7V1.1z
	 M17.4,35.8H13v14.1h4.3V35.8z M10.8,33.6h8.7v18.4h-8.7V33.6z"/>
</svg>
