<?xml version="1.0" encoding="utf-8"?>
<!-- Generator: Adobe Illustrator 19.1.0, SVG Export Plug-In . SVG Version: 6.00 Build 0)  -->
<svg version="1.1" id="Layer_1" xmlns="http://www.w3.org/2000/svg" xmlns:xlink="http://www.w3.org/1999/xlink" x="0px" y="0px"
	 viewBox="0 0 64 64" style="enable-background:new 0 0 64 64;" xml:space="preserve">
<style type="text/css">
	.st0{fill:#010101;}
</style>
<g>
	<path d="M14.5,26.2h34.9v11.6H14.5V26.2z M46.5,27.6H17.5v8.7h29.1V27.6z M39.2,32c0-1.3,1.1-2.4,2.4-2.4c1.3,0,2.4,1.1,2.4,2.4
		c0,1.3-1.1,2.4-2.4,2.4C40.3,34.4,39.2,33.3,39.2,32z M14.5,11.6h34.9v11.6H14.5V11.6z M46.5,13.1H17.5v8.7h29.1V13.1z M39.2,17.6
		c0-1.3,1.1-2.4,2.4-2.4c1.3,0,2.4,1.1,2.4,2.4c0,1.3-1.1,2.4-2.4,2.4C40.3,20,39.2,18.9,39.2,17.6z M46.5,42.2H17.5v8.7h29.1V42.2z
		 M14.5,40.7h34.9v11.6H14.5V40.7z M39.2,46.4c0-1.3,1.1-2.4,2.4-2.4c1.3,0,2.4,1.1,2.4,2.4c0,1.3-1.1,2.4-2.4,2.4
		C40.3,48.9,39.2,47.8,39.2,46.4z"/>
	<path d="M0,0h64v64H0V0z M62.4,62.4V1.6H1.6v60.7H62.4z"/>
</g>
</svg>
