<?xml version="1.0" encoding="utf-8"?>
<!-- Generator: Adobe Illustrator 19.1.0, SVG Export Plug-In . SVG Version: 6.00 Build 0)  -->
<svg version="1.1" id="Layer_1" xmlns="http://www.w3.org/2000/svg" xmlns:xlink="http://www.w3.org/1999/xlink" x="0px" y="0px"
	 viewBox="0 0 64 64" style="enable-background:new 0 0 64 64;" xml:space="preserve">
<style type="text/css">
	.st0{fill-rule:evenodd;clip-rule:evenodd;fill:none;}
	.st1{fill:#010101;}
</style>
<g>
	<rect x="-1.2" y="-1.2" class="st0" width="66.4" height="66.4"/>
	<path d="M38.7,21.3l9,9l-5.5,5.5l-9-9l1.2-1.2l7.8,7.8l3.1-3.1l-7.8-7.8L38.7,21.3z M25.2,6.1l1-1c2-2,5.2-2,7.2,0l0.6,0.6
		l-5.5,5.5l3.1,3.1l-1.2,1.2l-3.1-3.1l-3.1,3.1l3.1,3.1l-1.2,1.2l-3.1-3.1l-5.5,5.5l-0.6-0.6c-2-2-2-5.2,0-7.2l1-1
		c-0.8-0.9-1.3-2.1-1.3-3.4c0-2.8,2.3-5.1,5.1-5.1C23.1,4.8,24.3,5.2,25.2,6.1z M31.6,5.7c-1.3-0.8-3-0.6-4.1,0.5l-2.2,2.2L24,7.3
		c-0.6-0.5-1.4-0.9-2.3-0.9c-1.9,0-3.4,1.5-3.4,3.4c0,0.9,0.3,1.7,0.9,2.3l1.1,1.2l-2.2,2.2c-1.1,1.1-1.3,2.8-0.5,4.1L31.6,5.7z
		 M43.9,4.4L48.5,9L24.8,32.7l-8.1,3.5l3.5-8.1L43.9,4.4z M41.7,9l2.2,2.2L46.1,9l-2.2-2.2L41.7,9z M39.2,11.6l2.2,2.2l1.4-1.4
		l-2.2-2.2L39.2,11.6z M22.8,27.9l2.2,2.2L40.2,15L38,12.8L22.8,27.9z M23.8,31.3l-2.2-2.2L20,32.9L23.8,31.3z M15,61.8v-7.3L6.5,46
		V28.6h6V41l2.6-2.6l10.2,10.2v13.1h-1.7V49.4L15,40.9l-1.8,1.8l5.8,5.8l-1.2,1.2l-7.1-7.1V30.3H8.2v15l8.5,8.5v8H15z M38.8,61.8
		V48.7L49,38.5l2.6,2.6V28.6h6V46L49,54.5v7.3h-1.7v-8l8.5-8.5v-15h-2.6v12.3l-7.1,7.1L45,48.4l5.8-5.8L49,40.9l-8.5,8.5v12.4H38.8z
		"/>
</g>
</svg>
