<?xml version="1.0" encoding="utf-8"?>
<!-- Generator: Adobe Illustrator 19.1.0, SVG Export Plug-In . SVG Version: 6.00 Build 0)  -->
<svg version="1.1" id="Layer_1" xmlns="http://www.w3.org/2000/svg" xmlns:xlink="http://www.w3.org/1999/xlink" x="0px" y="0px"
	 viewBox="0 0 64 64" style="enable-background:new 0 0 64 64;" xml:space="preserve">
<style type="text/css">
	.st0{fill:#010101;}
	.st1{fill-rule:evenodd;clip-rule:evenodd;fill:none;}
	.st2{fill-rule:evenodd;clip-rule:evenodd;fill:none;stroke:#000000;stroke-linejoin:round;stroke-miterlimit:3.8637;}
</style>
<path d="M32,0c17.7,0,32,14.3,32,32c0,17.7-14.3,32-32,32C14.3,64,0,49.7,0,32C0,14.3,14.3,0,32,0z M32,3C16,3,3,16,3,32
	c0,16,13,29,29,29c16,0,29-13,29-29C61,16,48,3,32,3z M56.4,32c0,13.5-10.9,24.4-24.4,24.4C18.5,56.4,7.6,45.5,7.6,32
	C7.6,18.5,18.5,7.6,32,7.6C45.5,7.6,56.4,18.5,56.4,32z M53.3,32c0-11.8-9.6-21.3-21.3-21.3c-11.8,0-21.3,9.6-21.3,21.3
	c0,11.8,9.6,21.3,21.3,21.3C43.8,53.3,53.3,43.8,53.3,32z M35,32c0-1.7-1.4-3-3-3c-1.7,0-3,1.4-3,3c0,1.7,1.4,3,3,3
	C33.7,35,35,33.7,35,32z M48.8,33.5l-10.9,0c-0.7,2.6-3.1,4.6-5.9,4.6c-3.4,0-6.1-2.7-6.1-6.1c0-3.4,2.7-6.1,6.1-6.1
	c2.8,0,5.2,1.9,5.9,4.6l10.9,0c0.8,0,1.5,0.7,1.5,1.5C50.3,32.8,49.6,33.5,48.8,33.5z M16.6,38.5c-0.8-2-1.3-4.2-1.3-6.5
	c0-9.3,7.5-16.8,16.8-16.8c7.7,0,14.1,5.2,16.1,12.2l-9.5,0c-1.8-4-5.8-6.9-10.5-6.9c-6.3,0-11.4,5.1-11.4,11.4
	c0,2.1,0.4,4.1,1.2,5.9L16.6,38.5z"/>
</svg>
