<?xml version="1.0" encoding="utf-8"?>
<!-- Generator: Adobe Illustrator 19.1.0, SVG Export Plug-In . SVG Version: 6.00 Build 0)  -->
<svg version="1.1" id="Layer_1" xmlns="http://www.w3.org/2000/svg" xmlns:xlink="http://www.w3.org/1999/xlink" x="0px" y="0px"
	 viewBox="0 0 64 64" style="enable-background:new 0 0 64 64;" xml:space="preserve">
<style type="text/css">
	.st0{fill:#010101;}
</style>
<path d="M0,0h64v64H0V0z M62.4,62.4V1.6H1.6v60.7H62.4z M44.3,20.5c5,0,9,4,9,9v3.3h-1.6v-3.3c0-4.1-3.3-7.4-7.4-7.4
	s-7.4,3.3-7.4,7.4v4.1h8.2L27.9,46.8L10.7,33.6h8.2v-4.1c0-5,4-9,9-9H44.3z M35.3,35.3v-5.7c0-3.1,1.5-5.8,3.8-7.4H27.9
	c-4.1,0-7.4,3.3-7.4,7.4v5.7h-5l12.4,9.4l12.4-9.4H35.3z"/>
</svg>
