<?xml version="1.0" encoding="utf-8"?>
<!-- Generator: Adobe Illustrator 19.1.0, SVG Export Plug-In . SVG Version: 6.00 Build 0)  -->
<svg version="1.1" id="Layer_1" xmlns="http://www.w3.org/2000/svg" xmlns:xlink="http://www.w3.org/1999/xlink" x="0px" y="0px"
	 viewBox="0 0 64 64" style="enable-background:new 0 0 64 64;" xml:space="preserve">
<style type="text/css">
	.st0{fill:#010101;}
	.st1{fill-rule:evenodd;clip-rule:evenodd;fill:none;}
	.st2{fill-rule:evenodd;clip-rule:evenodd;fill:none;stroke:#000000;stroke-linejoin:round;stroke-miterlimit:3.8637;}
</style>
<path d="M1.9,10.5c0,0.5,0.4,1,1,1c0.5,0,1-0.4,1-1s-0.4-1-1-1C2.3,9.6,1.9,10,1.9,10.5z M5.7,10.5c0,0.5,0.4,1,1,1c0.5,0,1-0.4,1-1
	s-0.4-1-1-1C6.2,9.6,5.7,10,5.7,10.5z M9.6,10.5c0,0.5,0.4,1,1,1c0.5,0,1-0.4,1-1s-0.4-1-1-1C10,9.6,9.6,10,9.6,10.5z M64,7.6v48.7
	H0V7.6H64z M62.1,26.7H1.9v27.7h60.2V26.7z M1.9,25.8h60.2V13.4H1.9V25.8z M21.3,22.8c-0.2,0-0.4-0.2-0.4-0.4v-5.6
	c0-0.2,0.2-0.4,0.4-0.4h3.9c0.2,0,0.3,0.1,0.3,0.3c0,0.2-0.1,0.3-0.3,0.3h-3.6v2.2h3.2c0.2,0,0.3,0.2,0.3,0.3c0,0.2-0.1,0.3-0.3,0.3
	h-3.2v2.2h3.6c0.2,0,0.3,0.1,0.3,0.3c0,0.2-0.1,0.3-0.3,0.3H21.3z M8.3,22.8c-0.9,0-1.7-0.3-2.4-0.9c-0.1-0.1-0.1-0.2-0.1-0.3
	c0-0.2,0.2-0.4,0.3-0.4c0.1,0,0.2,0,0.2,0.1c0.6,0.5,1.2,0.8,2,0.8c0.9,0,1.4-0.5,1.4-1.1c0-0.6-0.3-0.9-1.7-1.2
	c-1.5-0.3-2.1-0.8-2.1-1.8c0-1,0.9-1.8,2.1-1.8c0.8,0,1.4,0.2,2,0.6c0.1,0.1,0.2,0.2,0.2,0.3c0,0.2-0.2,0.3-0.3,0.3
	c-0.1,0-0.1,0-0.2-0.1C9.1,17.1,8.6,17,8,17c-0.8,0-1.4,0.5-1.4,1c0,0.6,0.3,1,1.7,1.3c1.4,0.3,2.1,0.8,2.1,1.8
	C10.4,22.1,9.5,22.8,8.3,22.8z M12.1,22.4v-5.7c0-0.2,0.2-0.4,0.4-0.4c0.2,0,0.4,0.2,0.4,0.4v5.7c0,0.2-0.2,0.4-0.4,0.4
	C12.3,22.8,12.1,22.6,12.1,22.4z M16.6,22.4v-5.4h-1.8c-0.2,0-0.3-0.1-0.3-0.3c0-0.2,0.2-0.3,0.3-0.3h4.4c0.2,0,0.3,0.2,0.3,0.3
	c0,0.2-0.2,0.3-0.3,0.3h-1.8v5.4c0,0.2-0.2,0.4-0.4,0.4S16.6,22.6,16.6,22.4z M42,46.8h12.4v1H42V46.8z M6.7,45.9h7.6v1H6.7V45.9z
	 M6.7,48.7h5.7v1H6.7V48.7z M6.7,38.2h7.6v1H6.7V38.2z M6.7,41.1h5.7v1H6.7V41.1z M6.7,30.6h7.6v1H6.7V30.6z M6.7,33.4h5.7v1H6.7
	V33.4z M19.1,30.6v19.1h-1V30.6H19.1z M22.9,30.6h12.4v1.9H22.9V30.6z M37.3,30.6h3.8v1.9h-3.8V30.6z M43,30.6h7.6v1.9H43V30.6z
	 M22.9,35.3h15.3v1H22.9V35.3z M42,35.3h15.3v1H42V35.3z M22.9,38.2h15.3v1H22.9V38.2z M42,38.2h15.3v1H42V38.2z M22.9,41.1h15.3v1
	H22.9V41.1z M42,41.1h15.3v1H42V41.1z M22.9,43.9h15.3v1H22.9V43.9z M42,43.9h15.3v1H42V43.9z M22.9,46.8h10.5v1H22.9V46.8z"/>
</svg>
