<?xml version="1.0" encoding="utf-8"?>
<!-- Generator: Adobe Illustrator 19.1.0, SVG Export Plug-In . SVG Version: 6.00 Build 0)  -->
<svg version="1.1" id="Layer_1" xmlns="http://www.w3.org/2000/svg" xmlns:xlink="http://www.w3.org/1999/xlink" x="0px" y="0px"
	 viewBox="0 0 64 64" style="enable-background:new 0 0 64 64;" xml:space="preserve">
<style type="text/css">
	.st0{fill-rule:evenodd;clip-rule:evenodd;fill:none;}
	.st1{fill:#010101;}
</style>
<g>
	<rect x="-1.2" y="-1.2" class="st0" width="66.4" height="66.4"/>
	<path class="st1" d="M44.8,34.6v-6H19.2v6H44.8z M46.5,36.3H17.5v-9.4h28.9V36.3z M39.7,31.6c0-0.7,0.6-1.3,1.3-1.3
		s1.3,0.6,1.3,1.3c0,0.7-0.6,1.3-1.3,1.3S39.7,32.3,39.7,31.6z M46.5,25.2H17.5V5.6h28.9V25.2z M32.9,7.3v4.3h11.9V7.3H32.9z
		 M31.1,11.6V7.3H19.2v4.3H31.1z M31.1,19.2H19.2v4.3h11.9V19.2z M44.8,19.2H32.9v4.3h11.9V19.2z M32.9,17.5h11.9v-4.3H32.9V17.5z
		 M19.2,17.5h11.9v-4.3H19.2V17.5z M15,61.8v-7.3L6.5,46V28.6h6V41l2.6-2.6l10.2,10.2v13.1h-1.7V49.4L15,40.9l-1.8,1.8l5.8,5.8
		l-1.2,1.2l-7.1-7.1V30.3H8.2v15l8.5,8.5v8H15z M38.8,61.8V48.7L49,38.5l2.6,2.6V28.6h6V46L49,54.5v7.3h-1.7v-8l8.5-8.5v-15h-2.6
		v12.3l-7.1,7.1L45,48.4l5.8-5.8L49,40.9l-8.5,8.5v12.4H38.8z"/>
</g>
</svg>
