<?xml version="1.0" encoding="utf-8"?>
<!-- Generator: Adobe Illustrator 19.1.0, SVG Export Plug-In . SVG Version: 6.00 Build 0)  -->
<svg version="1.1" id="Layer_1" xmlns="http://www.w3.org/2000/svg" xmlns:xlink="http://www.w3.org/1999/xlink" x="0px" y="0px"
	 viewBox="0 0 64 64" style="enable-background:new 0 0 64 64;" xml:space="preserve">
<style type="text/css">
	.st0{fill:#010101;}
</style>
<path d="M18.3,6.9l0,5.2L30,13V7.7L18.3,6.9z M15.4,21.1c-0.5,0-0.7,0-1,0C7.9,21,2.6,26.3,2.6,32.8v23.5h23.5V32.8
	C26.1,26.6,21.4,21.6,15.4,21.1z M28.7,56.3h32.7V35.4c0-6.2-4.8-11.3-10.9-11.7l-27-2c3.2,2.6,5.3,6.6,5.3,11.1V56.3z M15.3,18.4
	l0.2,0l0.1-14.4l17,1.3v10.5l-14.3-1.1l0,4l32.3,2.4C58.1,21.6,64,27.8,64,35.4v23.5H28.7h-1.3H0V32.8c0-7.9,6.4-14.4,14.4-14.4
	C14.7,18.4,15,18.4,15.3,18.4L15.3,18.4z M6.5,39.3h15.7v1.3H6.5V39.3z M6.5,43.2h15.7v1.3H6.5V43.2z M44.4,35.4
	c-2.5,0-4.4,2-4.4,4.4c0,2.5,2,4.4,4.4,4.4c2.5,0,4.4-2,4.4-4.4C48.9,37.4,46.9,35.4,44.4,35.4z M37.5,39.8c0-3.8,3.1-6.9,6.9-6.9
	s6.9,3.1,6.9,6.9c0,0.3,0,0.5,0,0.7c-0.1,0.7,0.4,1.2,1.1,1.2c1.1,0,1.3-1.5,1.3-1.9c0-5.1-4.2-9.3-9.3-9.3c-5.1,0-9.3,4.2-9.3,9.3
	c0,5.1,4.1,9.3,9.3,9.3c2.7,0,5.2-1.2,6.9-3l1.9,1.6c-2.2,2.4-5.3,3.9-8.8,3.9c-6.5,0-11.8-5.3-11.8-11.8c0-6.5,5.3-11.8,11.8-11.8
	s11.8,5.3,11.8,11.8c0,2.6-1.2,4.7-3.7,4.7c-1.1,0-1.8-0.5-2.1-1.1c-1.2,2-3.4,3.3-5.9,3.3C40.6,46.7,37.5,43.6,37.5,39.8z
	 M44.4,37.8c1.1,0,2,0.9,2,2c0,1.1-0.9,2-2,2c-1.1,0-2-0.9-2-2C42.4,38.7,43.3,37.8,44.4,37.8z"/>
</svg>
