<?xml version="1.0" encoding="utf-8"?>
<!-- Generator: Adobe Illustrator 19.1.0, SVG Export Plug-In . SVG Version: 6.00 Build 0)  -->
<svg version="1.1" id="Layer_1" xmlns="http://www.w3.org/2000/svg" xmlns:xlink="http://www.w3.org/1999/xlink" x="0px" y="0px"
	 viewBox="0 0 64 64" style="enable-background:new 0 0 64 64;" xml:space="preserve">
<style type="text/css">
	.st0{fill:none;}
	.st1{fill:#010101;}
</style>
<path d="M32,18.1c-7.7,0-14,6.3-14,14s6.3,14,14,14s14-6.3,14-14S39.7,18.1,32,18.1z M48,32.1c0,8.8-7.2,16-16,16s-16-7.2-16-16
	c0-8.8,7.2-16,16-16S48,23.3,48,32.1z M24,32.6c0-0.2,0-0.3,0-0.5c0-4.4,3.6-8,8-8c2.7,0,5,1.3,6.5,3.3l-0.7,0.7
	c-1.3-1.8-3.4-3-5.7-3c-3.9,0-7,3.1-7,7c0,0.2,0,0.4,0,0.6l2.6-2.6l0.7,0.7l-3.7,3.7l-3.7-3.7l0.7-0.7L24,32.6z M32,39.1
	c3.9,0,7-3.1,7-7c0-0.2,0-0.4,0-0.6l-2.6,2.6l-0.7-0.7l3.7-3.7l3.7,3.7l-0.7,0.7L40,31.6c0,0.2,0,0.3,0,0.5c0,4.4-3.6,8-8,8
	c-2.7,0-5-1.3-6.5-3.3l0.7-0.7C27.5,38,29.6,39.1,32,39.1z"/>
</svg>
