<?xml version="1.0" encoding="utf-8"?>
<!-- Generator: Adobe Illustrator 19.1.0, SVG Export Plug-In . SVG Version: 6.00 Build 0)  -->
<svg version="1.1" id="Layer_1" xmlns="http://www.w3.org/2000/svg" xmlns:xlink="http://www.w3.org/1999/xlink" x="0px" y="0px"
	 viewBox="0 0 64 64" style="enable-background:new 0 0 64 64;" xml:space="preserve">
<style type="text/css">
	.st0{fill:#010101;}
	.st1{fill-rule:evenodd;clip-rule:evenodd;fill:none;}
	.st2{fill-rule:evenodd;clip-rule:evenodd;fill:none;stroke:#000000;stroke-linejoin:round;stroke-miterlimit:3.8637;}
</style>
<path d="M60.7,13.1H3.3v37.7h57.4V13.1z M64,9.8v44.3H0V9.8H64z M8.2,18.1v-1.6H6.6v1.6H8.2z M8.2,47.6v-1.6H6.6v1.6H8.2z
	 M57.4,45.9h-1.6v1.6h1.6V45.9z M57.4,19.7h-1.6v-1.6h-1.6v-1.6h-1.6v1.6h-1.6v-1.6h-1.6v1.6h-1.6v-1.6h-1.6v1.6h-1.6v-1.6h-1.6v1.6
	H41v-1.6h-1.6v1.6h-1.6v-1.6h-1.6v1.6h-1.6v-1.6h-1.6v1.6h-1.6v-1.6h-1.6v1.6h-1.6v-1.6h-1.6v1.6h-1.6v-1.6H23v1.6h-1.6v-1.6h-1.6
	v1.6h-1.6v-1.6h-1.6v1.6h-1.6v-1.6h-1.6v1.6h-1.6v-1.6H9.8v1.6H8.2v1.6H6.6v1.6h1.6V23H6.6v1.6h1.6v1.6H6.6v1.6h1.6v1.6H6.6v1.6h1.6
	v1.6H6.6v1.6h1.6v1.6H6.6v1.6h1.6v1.6H6.6V41h1.6v1.6H6.6v1.6h1.6v1.6h1.6v1.6h1.6v-1.6h1.6v1.6h1.6v-1.6h1.6v1.6h1.6v-1.6h1.6v1.6
	h1.6v-1.6H23v1.6h1.6v-1.6h1.6v1.6h1.6v-1.6h1.6v1.6h1.6v-1.6h1.6v1.6h1.6v-1.6h1.6v1.6h1.6v-1.6h1.6v1.6H41v-1.6h1.6v1.6h1.6v-1.6
	h1.6v1.6h1.6v-1.6h1.6v1.6h1.6v-1.6h1.6v1.6h1.6v-1.6h1.6v-1.6h1.6v-1.6h-1.6V41h1.6v-1.6h-1.6v-1.6h1.6v-1.6h-1.6v-1.6h1.6v-1.6
	h-1.6v-1.6h1.6v-1.6h-1.6v-1.6h1.6v-1.6h-1.6v-1.6h1.6V23h-1.6v-1.6h1.6V19.7z M57.4,18.1v1.6h1.6v1.6h-1.6V23h1.6v1.6h-1.6v1.6h1.6
	v1.6h-1.6v1.6h1.6v1.6h-1.6v1.6h1.6v1.6h-1.6v1.6h1.6v1.6h-1.6v1.6h1.6V41h-1.6v1.6h1.6v1.6h-1.6v1.6h1.6v1.6h-1.6v1.6h-1.6v-1.6
	h-1.6v1.6h-1.6v-1.6h-1.6v1.6h-1.6v-1.6h-1.6v1.6h-1.6v-1.6h-1.6v1.6h-1.6v-1.6H41v1.6h-1.6v-1.6h-1.6v1.6h-1.6v-1.6h-1.6v1.6h-1.6
	v-1.6h-1.6v1.6h-1.6v-1.6h-1.6v1.6h-1.6v-1.6h-1.6v1.6H23v-1.6h-1.6v1.6h-1.6v-1.6h-1.6v1.6h-1.6v-1.6h-1.6v1.6h-1.6v-1.6h-1.6v1.6
	H9.8v-1.6H8.2v1.6H6.6v-1.6H4.9v-1.6h1.6v-1.6H4.9v-1.6h1.6V41H4.9v-1.6h1.6v-1.6H4.9v-1.6h1.6v-1.6H4.9v-1.6h1.6v-1.6H4.9v-1.6h1.6
	v-1.6H4.9v-1.6h1.6v-1.6H4.9V23h1.6v-1.6H4.9v-1.6h1.6v-1.6H4.9v-1.6h1.6v-1.6h1.6v1.6h1.6v-1.6h1.6v1.6h1.6v-1.6h1.6v1.6h1.6v-1.6
	h1.6v1.6h1.6v-1.6h1.6v1.6H23v-1.6h1.6v1.6h1.6v-1.6h1.6v1.6h1.6v-1.6h1.6v1.6h1.6v-1.6h1.6v1.6h1.6v-1.6h1.6v1.6h1.6v-1.6H41v1.6
	h1.6v-1.6h1.6v1.6h1.6v-1.6h1.6v1.6h1.6v-1.6h1.6v1.6h1.6v-1.6h1.6v1.6h1.6v-1.6h1.6v1.6h1.6v1.6H57.4z M55.8,18.1h1.6v-1.6h-1.6
	V18.1z M11.5,21.3H23V23H11.5V21.3z M34.5,31.2v-4.1c0-1.4-1.1-2.5-2.5-2.5c-1.4,0-2.5,1.1-2.5,2.5v4.1H34.5z M26.3,27.1
	c0-3.2,2.6-5.7,5.7-5.7c3.2,0,5.7,2.6,5.7,5.7v4.1H41v11.5H23V31.2h3.3V27.1z M11.5,41h8.2v1.6h-8.2V41z M11.5,37.7h8.2v1.6h-8.2
	V37.7z M44.3,41h8.2v1.6h-8.2V41z M44.3,37.7h8.2v1.6h-8.2V37.7z M41,24.6h11.5v1.6H41V24.6z M41,21.3h11.5V23H41V21.3z M11.5,24.6
	H23v1.6H11.5V24.6z"/>
</svg>
