<?xml version="1.0" encoding="utf-8"?>
<!-- Generator: Adobe Illustrator 19.1.0, SVG Export Plug-In . SVG Version: 6.00 Build 0)  -->
<svg version="1.1" id="Layer_1" xmlns="http://www.w3.org/2000/svg" xmlns:xlink="http://www.w3.org/1999/xlink" x="0px" y="0px"
	 viewBox="0 0 64 64" style="enable-background:new 0 0 64 64;" xml:space="preserve">
<style type="text/css">
	.st0{fill:#010101;}
	.st1{fill-rule:evenodd;clip-rule:evenodd;fill:none;}
	.st2{fill-rule:evenodd;clip-rule:evenodd;fill:none;stroke:#000000;stroke-linejoin:round;stroke-miterlimit:3.8637;}
</style>
<path class="st0" d="M61.6,56.8V7.2H2.4v49.5H61.6z M61.6,4.8h1.2H64v54.3h-1.2h-1.2H2.4H1.2H0V4.8h1.2h1.2H61.6z M39.9,39.7
	l3.1,6.9l-5.5-0.5l-3.2,4.5L32,45.9l-2.2,4.8l-3.2-4.5L21,46.6l3.3-7.2c-0.3-0.5,0-1.2,0.2-1.9c0.1-0.2,0.1-0.4,0.2-0.6
	c-0.2,0-0.4,0-0.6,0c-0.8,0-1.7,0-2-0.7c-0.3-0.7,0.3-1.3,0.9-1.9c0.1-0.1,0.3-0.3,0.4-0.5c-0.2-0.1-0.4-0.2-0.6-0.3
	c-0.7-0.3-1.6-0.7-1.6-1.5c0-0.8,0.8-1.2,1.6-1.5c0.2-0.1,0.4-0.2,0.6-0.3c-0.1-0.1-0.3-0.3-0.4-0.5c-0.6-0.6-1.1-1.3-0.9-1.9
	c0.3-0.7,1.2-0.7,2-0.7c0.2,0,0.4,0,0.6,0c-0.1-0.2-0.1-0.4-0.2-0.6c-0.3-0.8-0.6-1.6-0.1-2.1c0.1-0.1,0.4-0.3,0.8-0.3
	c0.4,0,0.9,0.2,1.4,0.4c0.2,0.1,0.4,0.2,0.6,0.2c0-0.2,0-0.4,0-0.6c0-0.8,0-1.7,0.7-2c0.6-0.3,1.3,0.3,1.9,0.9
	c0.1,0.1,0.3,0.3,0.5,0.4c0.1-0.2,0.2-0.4,0.3-0.6c0.3-0.7,0.7-1.6,1.5-1.6c0.8,0,1.2,0.8,1.5,1.6c0.1,0.2,0.2,0.4,0.3,0.6
	c0.1-0.1,0.3-0.3,0.5-0.4c0.6-0.6,1.3-1.1,1.9-0.9c0.7,0.3,0.7,1.2,0.7,2c0,0.2,0,0.4,0,0.6c0.2-0.1,0.4-0.1,0.6-0.2
	c0.5-0.2,1-0.4,1.4-0.4c0.4,0,0.6,0.2,0.8,0.3c0.5,0.5,0.2,1.3-0.1,2.1c-0.1,0.2-0.1,0.4-0.2,0.6c0.2,0,0.4,0,0.6,0
	c0.8,0,1.7,0,2,0.7c0.3,0.7-0.3,1.3-0.9,1.9c-0.1,0.1-0.3,0.3-0.4,0.5c0.2,0.1,0.4,0.2,0.6,0.3c0.7,0.3,1.6,0.7,1.6,1.5
	c0,0.8-0.8,1.2-1.6,1.5c-0.2,0.1-0.4,0.2-0.6,0.3c0.1,0.1,0.3,0.3,0.4,0.5c0.6,0.6,1.1,1.3,0.9,1.9C41.9,37,41,37,40.2,37
	c-0.2,0-0.4,0-0.6,0c0.1,0.2,0.1,0.4,0.2,0.6C40.1,38.4,40.4,39.2,39.9,39.7z M29.5,48.3l2.5-5.4c-0.7-0.1-1.1-0.9-1.4-1.6
	c-0.1-0.2-0.2-0.4-0.3-0.6c-0.1,0.1-0.3,0.3-0.5,0.4c-0.6,0.6-1.3,1.1-1.9,0.9c-0.7-0.3-0.7-1.2-0.7-2c0-0.2,0-0.4,0-0.6
	c-0.2,0.1-0.4,0.1-0.6,0.2c-0.4,0.2-0.8,0.3-1.2,0.3L23,45.3l4.2-0.3L29.5,48.3z M32.2,41.6c0.1-0.2,0.3-0.6,0.4-0.8
	c0.3-0.7,0.6-1.2,1.1-1.3c0.7,0,1.1,0.4,1.6,0.8c0.2,0.1,0.4,0.4,0.6,0.5c0-0.2,0-0.6,0.1-0.8c0-0.7,0-1.4,0.5-1.7
	c0.4-0.3,1-0.1,1.7,0.2c0.2,0.1,0.5,0.2,0.7,0.2c-0.1-0.2-0.2-0.5-0.2-0.7c-0.3-0.7-0.5-1.3-0.2-1.7c0.3-0.5,0.9-0.5,1.7-0.5
	c0.2,0,0.6,0,0.8-0.1c-0.1-0.2-0.4-0.5-0.5-0.6c-0.5-0.5-0.9-1-0.8-1.6c0.1-0.5,0.7-0.8,1.3-1.1c0.2-0.1,0.6-0.3,0.8-0.4
	c-0.2-0.1-0.6-0.3-0.8-0.4c-0.7-0.3-1.2-0.6-1.3-1.1c-0.1-0.5,0.3-1,0.8-1.6c0.1-0.2,0.4-0.4,0.5-0.6c-0.2,0-0.6,0-0.8-0.1
	c-0.7,0-1.4,0-1.7-0.5c-0.3-0.5-0.1-1.1,0.2-1.7c0.1-0.2,0.2-0.5,0.2-0.7c-0.2,0.1-0.5,0.2-0.7,0.3c-0.7,0.3-1.3,0.4-1.7,0.2
	C36,25.4,36,24.8,36,24.1c0-0.2,0-0.6-0.1-0.8c-0.2,0.1-0.5,0.4-0.6,0.5c-0.5,0.4-0.9,0.8-1.4,0.8c-0.7-0.1-1-0.7-1.3-1.3
	c-0.1-0.2-0.3-0.6-0.4-0.8c-0.1,0.2-0.3,0.6-0.4,0.8c-0.3,0.7-0.6,1.2-1.1,1.3c-0.7,0-1.1-0.4-1.6-0.8c-0.2-0.1-0.4-0.4-0.6-0.5
	c0,0.2,0,0.6-0.1,0.8c0,0.7,0,1.4-0.5,1.7c-0.4,0.3-1,0.1-1.7-0.2c-0.2-0.1-0.5-0.2-0.7-0.3c0.1,0.2,0.2,0.5,0.3,0.7
	c0.3,0.7,0.5,1.3,0.2,1.7c-0.3,0.5-0.9,0.5-1.7,0.5c-0.2,0-0.6,0-0.8,0.1c0.1,0.2,0.4,0.5,0.5,0.6c0.5,0.5,0.9,1,0.8,1.6
	c-0.1,0.5-0.7,0.8-1.3,1.1c-0.2,0.1-0.6,0.3-0.8,0.4c0.2,0.1,0.6,0.3,0.8,0.4c0.7,0.3,1.2,0.6,1.3,1.1c0.1,0.5-0.3,1-0.8,1.6
	c-0.1,0.2-0.4,0.4-0.5,0.6c0.2,0,0.6,0,0.8,0.1c0.7,0,1.4,0,1.7,0.5c0.3,0.5,0.1,1.1-0.2,1.7c-0.1,0.2-0.2,0.5-0.3,0.7
	c0.2,0,0.5-0.2,0.7-0.2c0.7-0.3,1.3-0.4,1.7-0.2c0.5,0.3,0.5,0.9,0.5,1.7c0,0.2,0,0.6,0.1,0.8c0.2-0.1,0.5-0.4,0.6-0.5
	c0.5-0.4,0.9-0.8,1.4-0.8c0.7,0.1,1,0.7,1.3,1.3C31.9,41,32.1,41.4,32.2,41.6z M41,45.3l-2.5-5.4c-0.2-0.1-0.5-0.2-0.8-0.3
	c-0.2-0.1-0.4-0.1-0.6-0.2c0,0.2,0,0.4,0,0.6c0,0.8,0,1.7-0.7,2c-0.6,0.3-1.3-0.3-1.9-0.9l-1.8,3.3l1.8,3.8l2.4-3.4L41,45.3z
	 M37.6,32c0,3-2.4,5.4-5.4,5.4c-3,0-5.4-2.4-5.4-5.4c0-3,2.4-5.4,5.4-5.4C35.2,26.6,37.6,29,37.6,32z M32.2,36.3
	c2.3,0,4.2-1.9,4.2-4.2c0-2.3-1.9-4.2-4.2-4.2c-2.3,0-4.2,1.9-4.2,4.2C28,34.4,29.9,36.3,32.2,36.3z M9.7,16.9v-1.2h44.7v1.2H9.7z
	 M9.7,19.3v-1.2h44.7v1.2H9.7z M9.7,42.3v-1.2h9.7v1.2H9.7z M44.7,42.3v-1.2h9.7v1.2H44.7z M9.7,39.8v-1.2h9.7v1.2H9.7z M44.7,39.8
	v-1.2h9.7v1.2H44.7z M58,12.1h1.2v1.2H58v1.2h1.2v1.2H58v1.2h1.2v1.2H58v1.2h1.2v1.2H58v1.2h1.2v1.2H58v1.2h1.2v1.2H58v1.2h1.2v1.2
	H58V29h1.2v1.2H58v1.2h1.2v1.2H58v1.2h1.2V35H58v1.2h1.2v1.2H58v1.2h1.2v1.2H58v1.2h1.2v1.2H58v1.2h1.2v1.2H58v1.2h1.2v1.2H58v1.2
	h1.2v1.2H58v1.2h1.2v1.2H58v-1.2h-1.2v-1.2H58v-1.2h-1.2v-1.2H58v-1.2h-1.2v-1.2H58v-1.2h-1.2v-1.2H58v-1.2h-1.2v-1.2H58v-1.2h-1.2
	v-1.2H58v-1.2h-1.2V35H58v-1.2h-1.2v-1.2H58v-1.2h-1.2v-1.2H58V29h-1.2v-1.2H58v-1.2h-1.2v-1.2H58v-1.2h-1.2v-1.2H58v-1.2h-1.2v-1.2
	H58v-1.2h-1.2v-1.2H58v-1.2h-1.2v-1.2H58v-1.2h-1.2v-1.2H58V12.1h-1.2v-1.2h-1.2v1.2h-1.2v-1.2h-1.2v1.2h-1.2v-1.2h-1.2v1.2h-1.2
	v-1.2h-1.2v1.2h-1.2v-1.2h-1.2v1.2h-1.2v-1.2h-1.2v1.2h-1.2v-1.2h-1.2v1.2h-1.2v-1.2h-1.2v1.2h-1.2v-1.2h-1.2v1.2H35v-1.2h-1.2v1.2
	h-1.2v-1.2h-1.2v1.2h-1.2v-1.2H29v1.2h-1.2v-1.2h-1.2v1.2h-1.2v-1.2h-1.2v1.2h-1.2v-1.2h-1.2v1.2h-1.2v-1.2h-1.2v1.2h-1.2v-1.2h-1.2
	v1.2h-1.2v-1.2h-1.2v1.2h-1.2v-1.2h-1.2v1.2h-1.2v-1.2H9.7v1.2H8.5v-1.2H7.2v1.2H6v-1.2H4.8V9.7H6v1.2h1.2V9.7h1.2v1.2h1.2V9.7h1.2
	v1.2h1.2V9.7h1.2v1.2h1.2V9.7h1.2v1.2h1.2V9.7h1.2v1.2h1.2V9.7h1.2v1.2h1.2V9.7h1.2v1.2h1.2V9.7h1.2v1.2h1.2V9.7h1.2v1.2H29V9.7h1.2
	v1.2h1.2V9.7h1.2v1.2h1.2V9.7H35v1.2h1.2V9.7h1.2v1.2h1.2V9.7h1.2v1.2h1.2V9.7h1.2v1.2h1.2V9.7h1.2v1.2h1.2V9.7h1.2v1.2h1.2V9.7h1.2
	v1.2h1.2V9.7h1.2v1.2h1.2V9.7h1.2v1.2h1.2V9.7h1.2v1.2H58V9.7h1.2v1.2H58V12.1z M9.7,37.4v-1.2h9.7v1.2H9.7z M44.7,37.4v-1.2h9.7
	v1.2H44.7z M6,51.9H4.8v-1.2H6v-1.2H4.8v-1.2H6v-1.2H4.8v-1.2H6v-1.2H4.8v-1.2H6v-1.2H4.8v-1.2H6v-1.2H4.8v-1.2H6v-1.2H4.8v-1.2H6
	V35H4.8v-1.2H6v-1.2H4.8v-1.2H6v-1.2H4.8V29H6v-1.2H4.8v-1.2H6v-1.2H4.8v-1.2H6v-1.2H4.8v-1.2H6v-1.2H4.8v-1.2H6v-1.2H4.8v-1.2H6
	v-1.2H4.8v-1.2H6v-1.2H4.8v-1.2H6v1.2h1.2v1.2H6v1.2h1.2v1.2H6v1.2h1.2v1.2H6v1.2h1.2v1.2H6v1.2h1.2v1.2H6v1.2h1.2v1.2H6v1.2h1.2V29
	H6v1.2h1.2v1.2H6v1.2h1.2v1.2H6V35h1.2v1.2H6v1.2h1.2v1.2H6v1.2h1.2v1.2H6v1.2h1.2v1.2H6v1.2h1.2v1.2H6v1.2h1.2v1.2H6v1.2h1.2v1.2H6
	V51.9h1.2v1.2h1.2v-1.2h1.2v1.2h1.2v-1.2h1.2v1.2h1.2v-1.2h1.2v1.2h1.2v-1.2h1.2v1.2h1.2v-1.2h1.2v1.2h1.2v-1.2h1.2v1.2h1.2v-1.2
	h1.2v1.2h1.2v-1.2h1.2v1.2h1.2v-1.2H29v1.2h1.2v-1.2h1.2v1.2h1.2v-1.2h1.2v1.2H35v-1.2h1.2v1.2h1.2v-1.2h1.2v1.2h1.2v-1.2h1.2v1.2
	h1.2v-1.2h1.2v1.2h1.2v-1.2h1.2v1.2h1.2v-1.2h1.2v1.2h1.2v-1.2h1.2v1.2h1.2v-1.2h1.2v1.2h1.2v-1.2h1.2v1.2h1.2v-1.2H58v1.2h1.2v1.2
	H58v-1.2h-1.2v1.2h-1.2v-1.2h-1.2v1.2h-1.2v-1.2h-1.2v1.2h-1.2v-1.2h-1.2v1.2h-1.2v-1.2h-1.2v1.2h-1.2v-1.2h-1.2v1.2h-1.2v-1.2h-1.2
	v1.2h-1.2v-1.2h-1.2v1.2h-1.2v-1.2h-1.2v1.2h-1.2v-1.2H35v1.2h-1.2v-1.2h-1.2v1.2h-1.2v-1.2h-1.2v1.2H29v-1.2h-1.2v1.2h-1.2v-1.2
	h-1.2v1.2h-1.2v-1.2h-1.2v1.2h-1.2v-1.2h-1.2v1.2h-1.2v-1.2h-1.2v1.2h-1.2v-1.2h-1.2v1.2h-1.2v-1.2h-1.2v1.2h-1.2v-1.2h-1.2v1.2H9.7
	v-1.2H8.5v1.2H7.2v-1.2H6v1.2H4.8v-1.2H6V51.9z"/>
</svg>
