<?xml version="1.0" encoding="utf-8"?>
<!-- Generator: Adobe Illustrator 19.1.0, SVG Export Plug-In . SVG Version: 6.00 Build 0)  -->
<svg version="1.1" id="Layer_1" xmlns="http://www.w3.org/2000/svg" xmlns:xlink="http://www.w3.org/1999/xlink" x="0px" y="0px"
	 viewBox="0 0 64 64" style="enable-background:new 0 0 64 64;" xml:space="preserve">
<style type="text/css">
	.st0{fill-rule:evenodd;clip-rule:evenodd;fill:none;}
	.st1{fill:none;}
	.st2{fill:#010101;}
	.st3{fill:#020202;}
</style>
<rect x="1.5" y="-3.4" class="st0" width="67.9" height="67.9"/>
<path d="M36.8,44.6l15.3,15.3l6.9-6.9l-2.7-2.7l-3.4,3.4l-1.5-1.5l3.4-3.4l-2.7-2.7l-3.4,3.4l-1.5-1.5l3.4-3.4L47.9,42l-3.4,3.4
	L43,44l3.4-3.4l-2.8-2.8l1.5-1.5l16.8,16.8l-9.8,9.8L35.3,46.1L36.8,44.6z M17.6,25.4l6.5,6.5l-1.5,1.5l-6.5-6.5L3.7,39.3l-1.1-1.1
	C0.9,36.5,0,34.3,0,31.9s0.9-4.6,2.6-6.3l4.9-4.9c-2.4-3.5-2-8.3,1-11.3c1.7-1.7,3.9-2.6,6.3-2.6c1.8,0,3.6,0.6,5.1,1.6l4.9-4.9
	C26.4,1.9,28.6,1,31,1c2.4,0,4.6,0.9,6.3,2.6l1.1,1.1L25.9,17.1l6.5,6.5L30.9,25l-1.7-1.7l-3.4,3.4l-1.5-1.5l3.4-3.4l-3.3-3.3
	L17.6,25.4z M14.8,8.9c-1.8,0-3.5,0.7-4.8,2c-2.5,2.5-2.7,6.6-0.3,9.2l0.6,0.7l-6.2,6.2c-1.3,1.3-2,3-2,4.8c0,1.6,0.6,3.2,1.6,4.4
	L35.4,4.7C34.1,3.6,32.6,3,31,3c-1.8,0-3.5,0.7-4.8,2l-6.2,6.2l-0.7-0.6C18,9.5,16.4,8.9,14.8,8.9z M54.2,4.7l9.8,9.8L20.4,58.1
	L5.6,63l4.9-14.7L54.2,4.7z M49.4,12.4l6.9,6.9l4.8-4.8l-6.9-6.9L49.4,12.4z M45.2,16.6l6.9,6.9l2.7-2.7l-6.9-6.9L45.2,16.6z
	 M17.1,53.1l2.7,2.7l30.8-30.8l-2.7-2.7L17.1,53.1z M12.9,48.9l2.7,2.7l30.8-30.8l-2.7-2.7L12.9,48.9z M17.9,56.8l-6-6l-3,8.9
	L17.9,56.8z"/>
</svg>
