<?xml version="1.0" encoding="utf-8"?>
<!-- Generator: Adobe Illustrator 19.1.0, SVG Export Plug-In . SVG Version: 6.00 Build 0)  -->
<svg version="1.1" id="Layer_1" xmlns="http://www.w3.org/2000/svg" xmlns:xlink="http://www.w3.org/1999/xlink" x="0px" y="0px"
	 viewBox="0 0 64 64" style="enable-background:new 0 0 64 64;" xml:space="preserve">
<style type="text/css">
	.st0{fill:#010101;}
	.st1{fill-rule:evenodd;clip-rule:evenodd;fill:none;}
	.st2{fill-rule:evenodd;clip-rule:evenodd;fill:none;stroke:#000000;stroke-linejoin:round;stroke-miterlimit:3.8637;}
</style>
<path class="st0" d="M16.9,11.2l0.6-2c0.1-0.4,0.1-0.8,0.1-1.2c0-2.6-2.1-4.8-4.8-4.8C10.2,3.2,8,5.4,8,8v3.2H16.9z M19.2,60.8h32
	c2.7,0,4.8-2.2,4.8-4.8l0-3.2H20.8V56C20.8,57.8,20.2,59.5,19.2,60.8z M12.8,0h38.4c4.4,0,8,3.6,8,8c0,0.7-0.1,1.4-0.3,2L48,49.6
	h11.2l0,6.4c0,4.4-3.6,8-8,8H12.8c-4.4,0-8-3.6-8-8c0-0.7,0.1-1.4,0.3-2l11-39.6H4.8V8C4.8,3.6,8.4,0,12.8,0z M44.6,49.6L55.8,9.2
	C55.9,8.8,56,8.4,56,8c0-2.6-2.1-4.8-4.8-4.8h-32c1,1.3,1.6,3,1.6,4.8c0,0.7-0.1,1.4-0.3,2L8.2,54.8C8.1,55.2,8,55.6,8,56
	c0,2.7,2.2,4.8,4.8,4.8c2.7,0,4.8-2.1,4.8-4.8v-6.4H44.6z M18,32l4.8-6.4h4L22,32l4.8,6.4h-4L18,32z M41.2,25.6L46,32l-4.8,6.4h-4
	L42,32l-4.8-6.4H41.2z M32.8,22.4h3.3l-4.8,19.2H28L32.8,22.4z"/>
</svg>
