<?xml version="1.0" encoding="utf-8"?>
<!-- Generator: Adobe Illustrator 19.1.0, SVG Export Plug-In . SVG Version: 6.00 Build 0)  -->
<svg version="1.1" id="Layer_1" xmlns="http://www.w3.org/2000/svg" xmlns:xlink="http://www.w3.org/1999/xlink" x="0px" y="0px"
	 viewBox="0 0 64 64" style="enable-background:new 0 0 64 64;" xml:space="preserve">
<style type="text/css">
	.st0{fill-rule:evenodd;clip-rule:evenodd;fill:none;}
	.st1{fill:#010101;}
</style>
<g>
	<g>
		<rect x="-1.6" y="-1.6" class="st0" width="67.3" height="67.3"/>
	</g>
	<path class="st1" d="M46.7,6.1c-5,0.1-10.2-0.8-14.7-3.3c-4.5,2.5-9.7,3.4-14.7,3.3v15.5c0,8.1,7,14.5,14.7,17.2
		c7.6-2.7,14.7-9.1,14.7-17.2V6.1z M32,0.8c4.9,3,10.8,3.9,16.4,3.5v17.3c0,9.4-8.2,16.4-16.4,19c-8.2-2.7-16.4-9.6-16.4-19V4.3
		C21.2,4.7,27.1,3.8,32,0.8z M27.8,31.4c-2.4-1.2-3.3-4-3-6.2c0.5-3.1,3.7-4.8,1.7-7.8c1.1-0.1,2,0,2.8,0.4c-1.6-2.8-1.2-6,2.8-8.4
		c-1.3,4.6,1.6,6.3,4.5,9.7c3.9,4.6,3.3,10.2-1.2,12.4h-1.1c1-1,2.5-3.1,1.5-5.9c-0.2,0.7-1.5,1.9-3.7,1.6c1.3-0.8,1.7-3.8-0.5-6.5
		c0.1,0.5,0.1,1,0,1.5c-0.6,2.4-3.5,3.1-3.6,6.1c0,1.5,0.7,2.5,1.3,3.2H27.8z M14.8,62.2v-7.4l-8.6-8.6V28.6h6v12.6l2.6-2.6
		l10.3,10.3v13.3h-1.7V49.6L14.8,41L13,42.8l5.9,5.9l-1.2,1.2l-7.2-7.2V30.3H7.9v15.2l8.6,8.6v8.1H14.8z M38.9,62.2V48.9l10.3-10.3
		l2.6,2.6V28.6h6v17.6l-8.6,8.6v7.4h-1.7v-8.1l8.6-8.6V30.3h-2.6v12.4l-7.2,7.2l-1.2-1.2l5.9-5.9L49.2,41l-8.6,8.6v12.6H38.9z"/>
</g>
</svg>
