<?xml version="1.0" encoding="utf-8"?>
<!-- Generator: Adobe Illustrator 19.1.0, SVG Export Plug-In . SVG Version: 6.00 Build 0)  -->
<svg version="1.1" id="Layer_1" xmlns="http://www.w3.org/2000/svg" xmlns:xlink="http://www.w3.org/1999/xlink" x="0px" y="0px"
	 viewBox="0 0 64 64" style="enable-background:new 0 0 64 64;" xml:space="preserve">
<style type="text/css">
	.st0{fill:#010101;}
	.st1{fill-rule:evenodd;clip-rule:evenodd;fill:none;}
	.st2{fill-rule:evenodd;clip-rule:evenodd;fill:none;stroke:#000000;stroke-linejoin:round;stroke-miterlimit:3.8637;}
</style>
<path d="M32,9c5.6,3.5,12.5,4.5,19,4.1v19.8c0,10.9-9.5,19-19,22.1c-9.5-3.1-19-11.2-19-22.1V13.1C19.5,13.5,26.4,12.5,32,9z
	 M49,15.2c-5.8,0.1-11.8-1-17-3.9c-5.2,2.9-11.2,4-17,3.9v17.8c0,9.4,8.1,16.8,17,19.9c8.9-3.1,17-10.5,17-19.9V15.2z M38.4,32.4
	l-4.9,5l3.6,3.6c1.4,1.4,3.6,1.4,4.9,0c1.4-1.4,1.4-3.6,0-4.9L38.4,32.4z M25.6,29.5l5-4.9L27,21c-1.4-1.4-3.6-1.4-5,0
	c-1.4,1.4-1.4,3.6,0,5L25.6,29.5z M20.6,34.6l3.6-3.6l-3.6-3.6c-2.2-2.2-2.2-5.6,0-7.8c2.1-2.1,5.6-2.1,7.8,0l3.6,3.6l3.6-3.6
	c2.2-2.2,5.6-2.2,7.8,0c2.1,2.1,2.1,5.6,0,7.8l-3.6,3.6l3.6,3.6c2.1,2.1,2.1,5.6,0,7.8c-2.1,2.1-5.6,2.1-7.8,0L32,38.7l-3.6,3.6
	c-2.1,2.1-5.6,2.1-7.8,0C18.5,40.2,18.5,36.7,20.6,34.6z M38.4,29.5l3.6-3.6c1.4-1.4,1.4-3.6,0-4.9c-1.4-1.4-3.6-1.4-5,0l-3.6,3.6
	L38.4,29.5z M32,35.9l4.9-4.9L32,26l-5,4.9L32,35.9z M22,36c-1.4,1.4-1.4,3.6,0,4.9c1.4,1.4,3.6,1.4,4.9,0l3.6-3.6l-5-5L22,36z
	 M38,35.9c0-0.6,0.4-1,1-1c0.6,0,1,0.4,1,1c0,0.6-0.4,1-1,1C38.4,36.9,38,36.5,38,35.9z M39,38.9c0-0.6,0.4-1,1-1c0.6,0,1,0.4,1,1
	c0,0.6-0.4,1-1,1C39.4,39.9,39,39.5,39,38.9z M36,37.9c0-0.6,0.4-1,1-1c0.6,0,1,0.4,1,1c0,0.6-0.4,1-1,1C36.4,38.9,36,38.5,36,37.9z
	 M25,22.9c0,0.6-0.4,1-1,1c-0.6,0-1-0.4-1-1c0-0.6,0.4-1,1-1C24.6,21.9,25,22.4,25,22.9z M28,23.9c0,0.6-0.4,1-1,1c-0.6,0-1-0.4-1-1
	c0-0.6,0.4-1,1-1C27.6,22.9,28,23.4,28,23.9z M26,25.9c0,0.6-0.4,1-1,1c-0.6,0-1-0.4-1-1c0-0.6,0.4-1,1-1C25.6,24.9,26,25.4,26,25.9
	z M40,23.9c-0.6,0-1-0.4-1-1c0-0.6,0.4-1,1-1c0.6,0,1,0.4,1,1C41,23.5,40.6,23.9,40,23.9z M39,26.9c-0.6,0-1-0.4-1-1
	c0-0.6,0.4-1,1-1c0.6,0,1,0.4,1,1C40,26.5,39.6,26.9,39,26.9z M37,24.9c-0.6,0-1-0.4-1-1c0-0.6,0.4-1,1-1c0.6,0,1,0.4,1,1
	C38,24.5,37.6,24.9,37,24.9z M24,37.9c0.6,0,1,0.4,1,1c0,0.6-0.4,1-1,1c-0.6,0-1-0.4-1-1C23,38.4,23.4,37.9,24,37.9z M25,34.9
	c0.6,0,1,0.4,1,1c0,0.6-0.4,1-1,1c-0.6,0-1-0.4-1-1C24,35.4,24.4,34.9,25,34.9z M27,36.9c0.6,0,1,0.4,1,1c0,0.6-0.4,1-1,1
	c-0.6,0-1-0.4-1-1C26,37.4,26.4,36.9,27,36.9z"/>
</svg>
