<?xml version="1.0" encoding="utf-8"?>
<!-- Generator: Adobe Illustrator 19.1.0, SVG Export Plug-In . SVG Version: 6.00 Build 0)  -->
<svg version="1.1" id="Layer_1" xmlns="http://www.w3.org/2000/svg" xmlns:xlink="http://www.w3.org/1999/xlink" x="0px" y="0px"
	 viewBox="0 0 64 64" style="enable-background:new 0 0 64 64;" xml:space="preserve">
<style type="text/css">
	.st0{fill:none;}
	.st1{fill:#010101;}
</style>
<g>
	<polygon class="st0" points="4.2,3.1 63.8,3.1 63.8,62.6 4.2,62.6 4.2,3.1 	"/>
</g>
<g>
	<g>
		<polygon class="st0" points="1.6,1.6 62.4,1.6 62.4,62.4 1.6,62.4 1.6,1.6 		"/>
	</g>
	<path class="st1" d="M32,48.4c-0.2,0-0.6,0-0.9,0l-0.3,0L30.5,48c-0.4-0.6-0.9-1.5-1.1-2.9c0-0.1,0-0.2,0-0.2
		c-0.5-0.1-1-0.2-1.5-0.4c0,0-0.1,0.1-0.1,0.1c-0.9,1.2-1.8,1.7-2.4,2L25,46.8l-0.3-0.1c-0.3-0.1-0.7-0.3-0.8-0.4
		c-0.2-0.1-0.5-0.3-0.8-0.5l-0.3-0.2l0-0.3c-0.1-0.7-0.1-1.8,0.5-3.1c0-0.1,0.1-0.2,0.1-0.2c-0.4-0.3-0.8-0.7-1.1-1.1
		c0,0-0.1,0-0.2,0.1c-0.8,0.4-1.6,0.5-2.5,0.5c-0.2,0-0.4,0-0.6,0l-0.3,0L18.3,41c-0.2-0.2-0.4-0.6-0.5-0.8
		c-0.1-0.2-0.3-0.5-0.4-0.8L17.2,39l0.1-0.3c0.3-0.6,0.8-1.6,2-2.4c0.1-0.1,0.2-0.1,0.2-0.2c-0.2-0.5-0.3-1-0.4-1.5c0,0-0.1,0-0.2,0
		c-1.5-0.2-2.4-0.7-2.9-1.1l-0.3-0.2l0-0.3c0-0.3,0-0.7,0-0.9s0-0.6,0-0.9l0-0.3l0.3-0.2c0.6-0.4,1.5-0.9,2.9-1.1c0.1,0,0.2,0,0.2,0
		c0.1-0.5,0.2-1,0.4-1.5c0,0-0.1-0.1-0.1-0.1c-1.2-0.9-1.7-1.8-2-2.4L17.2,25l0.1-0.3c0.1-0.3,0.3-0.7,0.4-0.8
		c0.1-0.2,0.3-0.5,0.5-0.8l0.2-0.3l0.3,0c0.2,0,0.4,0,0.6,0c0.8,0,1.6,0.2,2.4,0.5c0.1,0,0.2,0.1,0.2,0.1c0.3-0.4,0.7-0.8,1.1-1.1
		c0,0,0-0.1-0.1-0.2c-0.6-1.3-0.6-2.4-0.5-3.1l0-0.3l0.3-0.2c0.2-0.2,0.6-0.4,0.8-0.5c0.2-0.1,0.5-0.3,0.8-0.4l0.3-0.1l0.3,0.1
		c0.6,0.3,1.6,0.8,2.4,2c0.1,0.1,0.1,0.2,0.2,0.2c0.4-0.2,1-0.3,1.5-0.4c0,0,0-0.1,0-0.2c0.2-1.5,0.7-2.4,1.1-2.9l0.2-0.3l0.3,0
		c0.3,0,0.7,0,0.9,0c0.2,0,0.6,0,1,0l0.3,0l0.2,0.3c0.4,0.6,0.9,1.5,1.1,2.9c0,0.1,0,0.2,0,0.2c0.5,0.1,1,0.2,1.5,0.4
		c0,0,0.1-0.1,0.1-0.1c0.9-1.2,1.8-1.7,2.4-2l0.3-0.1l0.3,0.1c0.3,0.1,0.7,0.3,0.8,0.4c0.2,0.1,0.5,0.3,0.8,0.5l0.3,0.2l0,0.3
		c0.1,0.7,0.1,1.8-0.5,3.1c0,0.1-0.1,0.2-0.1,0.2c0.4,0.3,0.8,0.7,1.1,1.1c0,0,0.1,0,0.2-0.1c0.8-0.4,1.6-0.5,2.5-0.5
		c0.2,0,0.4,0,0.6,0l0.3,0l0.2,0.3c0.2,0.2,0.4,0.6,0.5,0.8c0.1,0.2,0.3,0.6,0.4,0.8l0.1,0.3l-0.1,0.3c-0.3,0.6-0.8,1.6-2,2.4
		c-0.1,0.1-0.2,0.1-0.2,0.2c0.2,0.4,0.3,1,0.4,1.5c0,0,0.1,0,0.2,0c1.5,0.2,2.4,0.7,2.9,1.1l0.3,0.2l0,0.3c0,0.3,0,0.7,0,0.9
		s0,0.6,0,0.9l0,0.3L48,33.5c-0.6,0.4-1.5,0.9-2.9,1.1c-0.1,0-0.2,0-0.2,0c-0.1,0.5-0.2,1-0.4,1.5c0,0,0.1,0.1,0.1,0.1
		c1.2,0.9,1.7,1.8,2,2.4l0.1,0.3l-0.1,0.3c-0.1,0.3-0.3,0.7-0.4,0.8c-0.1,0.2-0.3,0.5-0.5,0.8l-0.2,0.3l-0.3,0c-0.2,0-0.4,0-0.6,0
		c-0.8,0-1.6-0.2-2.4-0.5c-0.1,0-0.2-0.1-0.2-0.1c-0.3,0.4-0.7,0.8-1.1,1.1c0,0,0,0.1,0.1,0.2c0.6,1.3,0.6,2.4,0.5,3.1l0,0.3
		L41,45.7c-0.3,0.2-0.6,0.4-0.8,0.5c-0.2,0.1-0.6,0.3-0.8,0.4L39,46.8l-0.3-0.1c-0.6-0.3-1.6-0.8-2.4-2c-0.1-0.1-0.1-0.2-0.2-0.2
		c-0.4,0.2-1,0.3-1.5,0.4c0,0,0,0.1,0,0.2c-0.2,1.5-0.7,2.4-1.1,2.9l-0.2,0.3l-0.3,0C32.6,48.4,32.2,48.4,32,48.4z M31.6,46.8
		c0.3,0,0.5,0,0.8,0c0.3-0.4,0.5-1,0.7-1.9c0.1-0.9,0.5-1.4,1.3-1.5c0.5-0.1,0.9-0.2,1.4-0.4c0.2-0.1,0.3-0.1,0.5-0.1
		c0.8,0,1.2,0.5,1.3,0.8c0.5,0.7,1.1,1.1,1.5,1.3l0.4-0.2l0.3-0.2c0-0.5-0.1-1.2-0.4-2c-0.3-0.8-0.2-1.5,0.3-2c0.4-0.3,0.7-0.6,1-1
		c0.3-0.4,0.7-0.5,1.1-0.5c0.4,0,0.6,0.1,0.8,0.2c0.7,0.3,1.3,0.4,2,0.4l0.2-0.3l0.2-0.4c-0.2-0.5-0.6-1-1.3-1.5
		c-0.3-0.2-1-0.8-0.7-1.8c0.2-0.5,0.3-0.9,0.4-1.4c0.2-0.7,0.7-1.2,1.5-1.3c0.9-0.1,1.5-0.4,1.9-0.7l0-0.4l0-0.4
		c-0.4-0.3-1-0.5-1.9-0.7c-0.9-0.1-1.4-0.5-1.5-1.3c-0.1-0.5-0.2-0.9-0.4-1.4c-0.3-1.1,0.4-1.6,0.7-1.8c0.7-0.5,1.1-1.1,1.3-1.5
		l-0.2-0.4l-0.2-0.3c-0.6,0-1.3,0.1-2,0.4c-0.2,0.1-0.5,0.2-0.8,0.2c-0.4,0-0.8-0.2-1.1-0.5c-0.3-0.4-0.6-0.7-1-1
		c-0.6-0.5-0.7-1.2-0.3-1.9c0.3-0.8,0.4-1.5,0.4-2l-0.3-0.2L39.1,19c-0.5,0.2-1,0.6-1.5,1.3c-0.2,0.2-0.6,0.8-1.4,0.8
		c-0.2,0-0.3,0-0.5-0.1c-0.5-0.2-0.9-0.3-1.4-0.4c-0.7-0.2-1.2-0.7-1.3-1.5c-0.1-0.9-0.4-1.5-0.7-1.9c-0.3,0-0.5,0-0.8,0
		c-0.3,0.4-0.5,1-0.7,1.9c-0.1,0.9-0.5,1.4-1.3,1.5c-0.5,0.1-0.9,0.2-1.4,0.4c-0.2,0.1-0.3,0.1-0.5,0.1c-0.8,0-1.2-0.5-1.3-0.8
		c-0.5-0.7-1.1-1.1-1.5-1.3l-0.4,0.2l-0.3,0.2c0,0.5,0,1.2,0.4,2c0.3,0.8,0.2,1.5-0.3,2c-0.4,0.3-0.7,0.6-1,1
		c-0.3,0.3-0.7,0.5-1.1,0.5c-0.4,0-0.6-0.1-0.8-0.2c-0.7-0.3-1.3-0.4-2-0.4l-0.2,0.3L19,24.9c0.2,0.5,0.6,1,1.3,1.5
		c0.3,0.2,1,0.8,0.7,1.8c-0.2,0.5-0.3,0.9-0.4,1.4c-0.2,0.7-0.7,1.2-1.5,1.3c-0.9,0.1-1.5,0.4-1.9,0.7l0,0.4l0,0.4
		c0.4,0.3,1,0.5,1.9,0.7c0.9,0.1,1.4,0.5,1.5,1.3c0.1,0.5,0.2,0.9,0.4,1.4c0.2,0.7,0,1.3-0.7,1.9c-0.7,0.5-1.1,1.1-1.3,1.5l0.2,0.4
		l0.2,0.3c0.6,0,1.3-0.1,2-0.4c0.2-0.1,0.5-0.2,0.8-0.2c0.4,0,0.8,0.2,1.1,0.5c0.3,0.4,0.6,0.7,1,1c0.6,0.5,0.7,1.2,0.3,1.9
		c-0.3,0.8-0.4,1.5-0.4,2l0.3,0.2l0.4,0.2c0.5-0.2,1-0.6,1.5-1.3c0.2-0.2,0.6-0.8,1.3-0.8c0.2,0,0.3,0,0.5,0.1
		c0.5,0.1,0.9,0.3,1.4,0.4c0.7,0.2,1.2,0.7,1.3,1.5C31,45.8,31.3,46.4,31.6,46.8z M32,36.7c-2.6,0-4.7-2.1-4.7-4.7s2.1-4.7,4.7-4.7
		c2.6,0,4.7,2.1,4.7,4.7S34.6,36.7,32,36.7z M32,28.9c-1.7,0-3.1,1.4-3.1,3.1c0,1.7,1.4,3.1,3.1,3.1c1.7,0,3.1-1.4,3.1-3.1
		C35.1,30.3,33.7,28.9,32,28.9z M57.8,31.7l-3.6-3.6l-1.1,1.1l5.5,5.5l5.5-5.5l-1.1-1.1l-3.6,3.6C59.1,16.7,47,4.7,32,4.7
		c-13.3,0-24.4,9.5-26.8,22.2l1.4,1.4C8.4,15.8,19.1,6.2,32,6.2C46.1,6.2,57.6,17.6,57.8,31.7z M9.8,35.9l1.1-1.1l-5.5-5.5L0,34.8
		l1.1,1.1l3.6-3.6c0.2,14.9,12.3,27,27.3,27c13.3,0,24.4-9.5,26.8-22.2l-1.4-1.4C55.6,48.2,44.9,57.8,32,57.8
		c-14.1,0-25.6-11.4-25.8-25.4L9.8,35.9z"/>
</g>
</svg>
