<?xml version="1.0" encoding="utf-8"?>
<!-- Generator: Adobe Illustrator 19.1.0, SVG Export Plug-In . SVG Version: 6.00 Build 0)  -->
<svg version="1.1" id="Layer_1" xmlns="http://www.w3.org/2000/svg" xmlns:xlink="http://www.w3.org/1999/xlink" x="0px" y="0px"
	 viewBox="0 0 64 64" style="enable-background:new 0 0 64 64;" xml:space="preserve">
<style type="text/css">
	.st0{fill-rule:evenodd;clip-rule:evenodd;fill:none;}
	.st1{fill:none;}
	.st2{fill:#010101;}
	.st3{fill:#020202;}
</style>
<rect x="-2.9" y="-1.5" class="st0" width="67.9" height="67.9"/>
<path d="M61.9,5.2H2.1v53.7h59.9V5.2z M0,3.1h64v57.8H0V3.1z M48.6,41.3h9.2v2.1h-6.9L48.6,41.3z M8.3,23.7h47.5V11.4H8.3V23.7z
	 M57.8,25.8H6.2V9.3h51.6V25.8z M6.2,28.9h12.4V31H6.2V28.9z M6.2,33h12.4v2.1H6.2V33z M6.2,37.2h12.4v2.1H6.2V37.2z M6.2,41.3h12.4
	v2.1H6.2V41.3z M6.2,45.4h12.4v2.1H6.2V45.4z M6.2,49.5h12.4v2.1H6.2V49.5z M6.2,53.7h12.4v2.1H6.2V53.7z M22.7,28.9h35.1V31H22.7
	V28.9z M22.7,33h35.1v2.1H22.7V33z M22.7,49.5h14.5v2.1H22.7V49.5z M44.4,40.3l9.3,8.3l-4.2,0.3l2.6,5.9l-2.1,1l-2.6-5.9l-3,3
	L44.4,40.3z M22.7,41.3h19.6l0,2.1H22.7V41.3z M53.2,45.4h4.6v2.1h-2.3L53.2,45.4z M22.7,45.4h19.6l0,2.1H22.7V45.4z M44,37.2h13.8
	v2.1H46.3L44,37.2z M22.7,37.2h19.6l0,2.1H22.7V37.2z"/>
</svg>
