<?xml version="1.0" encoding="utf-8"?>
<!-- Generator: Adobe Illustrator 19.1.0, SVG Export Plug-In . SVG Version: 6.00 Build 0)  -->
<svg version="1.1" id="Layer_1" xmlns="http://www.w3.org/2000/svg" xmlns:xlink="http://www.w3.org/1999/xlink" x="0px" y="0px"
	 viewBox="0 0 64 64" style="enable-background:new 0 0 64 64;" xml:space="preserve">
<style type="text/css">
	.st0{fill-rule:evenodd;clip-rule:evenodd;fill:none;}
	.st1{fill:#010101;}
</style>
<g>
	<rect x="-1.2" y="-1.2" class="st0" width="66.4" height="66.4"/>
	<path d="M38.8,61.8V48.7L49,38.5l2.6,2.6V28.6h6V46L49,54.5v7.3h-1.7v-8l8.5-8.5v-15h-2.6v12.3l-7.1,7.1L45,48.4l5.8-5.8L49,40.9
		l-8.5,8.5v12.4H38.8z M15,61.8v-7.3L6.5,46V28.6h6V41l2.6-2.6l10.2,10.2v13.1h-1.7V49.4L15,40.9l-1.8,1.8l5.8,5.8l-1.2,1.2
		l-7.1-7.1V30.3H8.2v15l8.5,8.5v8H15z M24.7,19.7c0,4,3.3,7.3,7.3,7.3c4,0,7.3-3.3,7.3-7.3c0-4-3.3-7.3-7.3-7.3
		C28,12.4,24.7,15.6,24.7,19.7z M28.9,11.2l-1-3.9c-3.8,1.3-6.8,4.3-8.1,8.1l3.9,1C24.5,14.1,26.4,12.1,28.9,11.2z M44.5,32.2
		c1.6-1.6,1.3-3.7,1.1-5.9l-0.1-0.7c-1.5,3.4-4.2,6.2-7.7,7.7l0.8,0.1C40.9,33.5,43,33.8,44.5,32.2z M29.1,33.8
		c1.9,0.4,3.9,0.4,5.8,0l-1.4-5.3c-0.5,0.1-1,0.1-1.5,0.1c-0.5,0-1,0-1.5-0.1L29.1,33.8z M25.4,33.2l0.7-0.1
		c-3.4-1.5-6.2-4.2-7.7-7.7l-0.1,0.8c-0.3,2.2-0.5,4.4,1.1,5.9C21,33.7,23.2,33.5,25.4,33.2z M19.5,7.1c-1.6,1.6-1.3,3.7-1.1,5.9
		l0.1,0.7c1.5-3.4,4.2-6.2,7.7-7.7l-0.8-0.1C23.1,5.8,21,5.5,19.5,7.1z M34.9,5.5c-1.9-0.4-3.9-0.4-5.8,0l1.4,5.3
		c0.5-0.1,1-0.1,1.5-0.1c0.5,0,1,0,1.5,0.1L34.9,5.5z M38.6,6.1l-0.7,0.1c3.4,1.5,6.2,4.2,7.7,7.7l0.1-0.8c0.3-2.2,0.5-4.4-1.1-5.9
		C43,5.6,40.8,5.8,38.6,6.1z M46.2,22.6c0.2-1,0.3-1.9,0.3-2.9c0-1-0.1-2-0.3-2.9l-5.3,1.4c0.1,0.5,0.1,1,0.1,1.5c0,0.5,0,1-0.1,1.5
		L46.2,22.6z M35.1,28.1l1,3.9c3.8-1.3,6.8-4.3,8.1-8.1l-3.9-1C39.5,25.2,37.6,27.2,35.1,28.1z M40.4,16.5l3.9-1
		C43,11.6,40,8.6,36.2,7.3l-1,3.9C37.6,12.1,39.5,14.1,40.4,16.5z M23.6,22.8l-3.9,1c1.3,3.8,4.3,6.8,8.1,8.1l1-3.9
		C26.4,27.2,24.5,25.2,23.6,22.8z M17.8,16.7c-0.2,1-0.3,1.9-0.3,2.9c0,1,0.1,2,0.3,2.9l5.3-1.4c-0.1-0.5-0.1-1-0.1-1.5
		c0-0.5,0-1,0.1-1.5L17.8,16.7z M47.6,23.8l-0.2,0.8l-0.3-0.1c0,0.5,0.1,1,0.1,1.5c0.3,2.4,0.6,5.2-1.5,7.3c-1.4,1.4-3,1.8-4.7,1.8
		c-0.9,0-1.8-0.1-2.7-0.2c-0.5-0.1-1-0.1-1.5-0.1l0.1,0.3l-0.8,0.2c-1.4,0.4-2.8,0.6-4.2,0.6c-1.4,0-2.8-0.2-4.2-0.6L27,35.1
		l0.1-0.3c-0.5,0-1,0.1-1.5,0.1c-0.9,0.1-1.8,0.2-2.6,0.2c-1.6,0-3.3-0.4-4.7-1.7c-2.2-2.1-1.8-4.9-1.5-7.3c0.1-0.5,0.1-1,0.1-1.5
		l-0.3,0.1l-0.2-0.8c-0.4-1.4-0.6-2.8-0.6-4.2c0-1.4,0.2-2.8,0.6-4.2l0.2-0.8l0.3,0.1c0-0.5-0.1-1-0.1-1.5c-0.3-2.4-0.6-5.2,1.5-7.3
		c2.1-2.2,4.9-1.8,7.3-1.5c0.5,0.1,1,0.1,1.5,0.2L27,4.2L27.8,4c2.7-0.7,5.7-0.7,8.4,0L37,4.2l-0.1,0.3c0.5,0,1-0.1,1.5-0.1
		c2.4-0.3,5.2-0.6,7.3,1.5c2.2,2.1,1.8,4.9,1.5,7.3c-0.1,0.5-0.1,1-0.1,1.5l0.3-0.1l0.2,0.8c0.4,1.4,0.6,2.8,0.6,4.2
		C48.2,21.1,48,22.5,47.6,23.8z M32.9,18.8h4.7v1.7h-6.4v-6.4h1.7V18.8z"/>
</g>
</svg>
