<?xml version="1.0" encoding="utf-8"?>
<!-- Generator: Adobe Illustrator 19.1.0, SVG Export Plug-In . SVG Version: 6.00 Build 0)  -->
<svg version="1.1" id="Layer_1" xmlns="http://www.w3.org/2000/svg" xmlns:xlink="http://www.w3.org/1999/xlink" x="0px" y="0px"
	 viewBox="0 0 64 64" style="enable-background:new 0 0 64 64;" xml:space="preserve">
<style type="text/css">
	.st0{fill-rule:evenodd;clip-rule:evenodd;fill:none;}
	.st1{fill:#010101;}
</style>
<g>
	<rect x="-1.2" y="-1.2" class="st0" width="66.4" height="66.4"/>
	<path class="st1" d="M25.2,10.7c0-3.8,3-6.8,6.8-6.8h11.9c3.8,0,6.8,3,6.8,6.8v3.4H49v-3.4c0-2.8-2.3-5.1-5.1-5.1
		c-2.8,0-5.1,2.3-5.1,5.1v1.7h7.7L32,22.6L17.5,12.4h7.7V10.7z M39.4,5.6H32c-2.8,0-5.1,2.3-5.1,5.1v3.4h-4l9.1,6.4l9.1-6.4h-4v-3.4
		C37.1,8.7,38,6.9,39.4,5.6z M17.3,30.5c-0.4,0.5-0.7,1-0.7,1.5c0,2.4,5.8,5.1,15.3,5.1s15.3-2.7,15.3-5.1c0-0.5-0.2-1-0.7-1.5
		c-3.1,2.1-8.8,3.2-14.7,3.2S20.4,32.6,17.3,30.5z M49,32c0,4.4-8.4,6.8-17,6.8S15,36.4,15,32c0-0.9,0.4-1.8,1.1-2.6
		c-0.7-0.8-1.1-1.6-1.1-2.6c0-3.4,4.9-5.6,11-6.4l2.1,1.5c-7.2,0.6-11.4,2.9-11.4,4.9c0,2.4,5.8,5.1,15.3,5.1s15.3-2.7,15.3-5.1
		c0-2.1-4.2-4.3-11.4-4.9l2.1-1.5c6.2,0.8,11,3,11,6.4c0,0.9-0.4,1.8-1.1,2.6C48.6,30.2,49,31.1,49,32z M28.7,26.7
		c0.4,0.3,1.6,0.6,3.3,0.6c1.7,0,2.9-0.4,3.3-0.6C34.9,26.4,33.7,26,32,26C30.3,26,29.1,26.4,28.7,26.7z M32,29
		c-2.5,0-5.1-0.7-5.1-2.3c0-1.6,2.6-2.3,5.1-2.3s5.1,0.7,5.1,2.3C37.1,28.3,34.5,29,32,29z M15,61.8v-7.3L6.5,46V28.6h6V41l2.6-2.6
		l10.2,10.2v13.1h-1.7V49.4L15,40.9l-1.8,1.8l5.8,5.8l-1.2,1.2l-7.1-7.1V30.3H8.2v15l8.5,8.5v8H15z M38.8,61.8V48.7L49,38.5l2.6,2.6
		V28.6h6V46L49,54.5v7.3h-1.7v-8l8.5-8.5v-15h-2.6v12.3l-7.1,7.1L45,48.4l5.8-5.8L49,40.9l-8.5,8.5v12.4H38.8z"/>
</g>
</svg>
