<?xml version="1.0" encoding="utf-8"?>
<!-- Generator: Adobe Illustrator 19.1.0, SVG Export Plug-In . SVG Version: 6.00 Build 0)  -->
<svg version="1.1" id="Layer_1" xmlns="http://www.w3.org/2000/svg" xmlns:xlink="http://www.w3.org/1999/xlink" x="0px" y="0px"
	 viewBox="0 0 64 64" style="enable-background:new 0 0 64 64;" xml:space="preserve">
<style type="text/css">
	.st0{fill:#010101;}
</style>
<path class="st0" d="M13.6,8.7c-1.6,0-2.9,1.3-2.9,2.9s1.3,2.9,2.9,2.9s2.9-1.3,2.9-2.9S15.2,8.7,13.6,8.7z M13.6,6.8
	c2.7,0,4.8,2.2,4.8,4.8c0,2.7-2.2,4.8-4.8,4.8c-2.7,0-4.8-2.2-4.8-4.8C8.7,9,10.9,6.8,13.6,6.8z M12.6,60.1H6.8V27.3
	c-0.6,1.1-1,2.4-1,3.8v7.8H0V31c0-7.5,6.1-13.6,13.6-13.6h4.8c3.7,0,6.8-3,6.8-6.8V3.9H31v6.8c0,6.3-4.6,11.5-10.7,12.5v37h-5.8
	V38.8h-1.9V60.1z M10.7,36.8h5.8v21.3h1.9V21.2h1.4c5.2-0.7,9.3-5.2,9.3-10.6V5.8h-1.9v4.8c0,4.8-3.9,8.7-8.7,8.7h-4.8
	C7.1,19.4,1.9,24.6,1.9,31v5.8h1.9V31c0-2.8,1.2-5.4,3.2-7.2c0.3-0.3,0.7-0.3,1-0.2c0.3,0.2,0.6,0.5,0.6,0.9v33.7h1.9V36.8z
	 M53.3,36.8v21.3h1.9V24.5c0-0.4,0.2-0.7,0.6-0.9c0.3-0.2,0.8-0.1,1,0.2c2.1,1.8,3.2,4.5,3.2,7.2v5.8h1.9V31
	c0-6.4-5.2-11.6-11.6-11.6h-4.8c-4.8,0-8.7-3.9-8.7-8.7V5.8h-1.9v4.8c0,5.4,4.1,9.9,9.3,10.6h1.4v36.9h1.9V36.8H53.3z M51.4,60.1
	V38.8h-1.9v21.3h-5.8v-37C37.6,22.2,33,17,33,10.7V3.9h5.8v6.8c0,3.7,3,6.8,6.8,6.8h4.8C57.9,17.5,64,23.5,64,31v7.8h-5.8V31
	c0-1.3-0.3-2.6-1-3.8v32.8H51.4z M50.4,6.8c2.7,0,4.8,2.2,4.8,4.8c0,2.7-2.2,4.8-4.8,4.8c-2.7,0-4.8-2.2-4.8-4.8
	C45.6,9,47.7,6.8,50.4,6.8z M50.4,8.7c-1.6,0-2.9,1.3-2.9,2.9s1.3,2.9,2.9,2.9c1.6,0,2.9-1.3,2.9-2.9S52,8.7,50.4,8.7z"/>
</svg>
