<?xml version="1.0" encoding="utf-8"?>
<!-- Generator: Adobe Illustrator 19.1.0, SVG Export Plug-In . SVG Version: 6.00 Build 0)  -->
<svg version="1.1" id="Layer_1" xmlns="http://www.w3.org/2000/svg" xmlns:xlink="http://www.w3.org/1999/xlink" x="0px" y="0px"
	 viewBox="0 0 64 64" style="enable-background:new 0 0 64 64;" xml:space="preserve">
<style type="text/css">
	.st0{fill-rule:evenodd;clip-rule:evenodd;fill:none;}
	.st1{fill:none;}
	.st2{fill:#010101;}
	.st3{fill:#020202;}
</style>
<rect x="-1.1" y="-0.6" class="st0" width="67.9" height="67.9"/>
<path d="M56.3,32c0-4.7-1.3-9.1-3.7-12.8c-0.2-0.3-0.4-0.6-0.6-0.9c-0.2-0.3-0.4-0.6-0.7-0.9l6.6-6.6c1.5,1.8,2.7,3.7,3.8,5.8V2.2
	H47.6c2.1,1.1,4,2.4,5.8,3.8l-6.6,6.6c-0.3-0.2-0.6-0.4-0.9-0.7c-0.3-0.2-0.6-0.4-0.9-0.6C41.1,9.1,36.7,7.7,32,7.7
	s-9.1,1.3-12.8,3.7c-0.3,0.2-0.6,0.4-0.9,0.6c-0.3,0.2-0.6,0.4-0.9,0.7L10.7,6c1.8-1.5,3.7-2.7,5.8-3.8H2.2v14.2
	c1.1-2.1,2.4-4,3.8-5.8l6.6,6.6c-0.2,0.3-0.4,0.6-0.7,0.9c-0.2,0.3-0.4,0.6-0.6,0.9C9.1,22.9,7.7,27.3,7.7,32
	c0,4.7,1.3,9.1,3.7,12.8c0.2,0.3,0.4,0.6,0.6,0.9c0.2,0.3,0.4,0.6,0.7,0.9L6,53.3c-1.5-1.8-2.7-3.7-3.8-5.8v14.2h14.2
	c-2.1-1.1-4-2.4-5.8-3.8l6.6-6.6c0.3,0.2,0.6,0.4,0.9,0.7c0.3,0.2,0.6,0.4,0.9,0.6c3.7,2.3,8.1,3.7,12.8,3.7s9.1-1.3,12.8-3.7
	c0.3-0.2,0.6-0.4,0.9-0.6c0.3-0.2,0.6-0.4,0.9-0.7l6.6,6.6c-1.8,1.5-3.7,2.7-5.8,3.8h14.2V47.5c-1.1,2.1-2.4,4-3.8,5.8l-6.6-6.6
	c0.2-0.3,0.4-0.6,0.7-0.9c0.2-0.3,0.4-0.6,0.6-0.9C54.9,41.1,56.3,36.7,56.3,32z M14,6.2l3.5,3.5c4.1-2.7,9.1-4.3,14.4-4.3
	s10.3,1.6,14.4,4.3L50,6.2c-2.4-1.7-5.1-3.1-8-4V0h0.3H64v21.7v0.3h-2.2c-1-2.9-2.3-5.6-4-8l-3.5,3.5c2.7,4.1,4.3,9.1,4.3,14.4
	s-1.6,10.3-4.3,14.4l3.5,3.5c1.7-2.4,3.1-5.1,4-8H64v0.3V64H42.3h-0.3v-2.2c2.9-1,5.6-2.3,8-4l-3.5-3.5c-4.1,2.7-9.1,4.3-14.4,4.3
	s-10.3-1.6-14.4-4.3L14,57.8c2.4,1.7,5.1,3.1,8,4V64h-0.3H0V42.3v-0.3h2.2c1,2.9,2.3,5.6,4,8l3.5-3.5C7.1,42.3,5.5,37.3,5.5,32
	s1.6-10.3,4.3-14.4L6.2,14c-1.7,2.4-3.1,5.1-4,8H0v-0.3V0h21.7h0.3v2.2C19.2,3.2,16.5,4.5,14,6.2z M36.4,17.3l1-1.4
	c0.7-1,1.9-0.8,2.5-0.7c0.6,0.2,1.2,0.5,1.5,0.6c0.2,0.1,0.8,0.5,1.3,1c0.4,0.4,1.1,1.3,0.6,2.5l-0.7,1.6c0.2,0.2,0.5,0.4,0.7,0.7
	l1.6-0.7c1.1-0.5,2.1,0.2,2.5,0.6c0.5,0.5,0.8,1,1,1.3c0.1,0.2,0.5,0.8,0.6,1.5c0.1,0.5,0.3,1.7-0.7,2.5l-1.4,1
	c0.1,0.3,0.2,0.6,0.2,0.9l1.7,0.2c1.2,0.1,1.7,1.2,1.8,1.8c0.2,0.6,0.2,1.3,0.2,1.6c0,0.3,0,0.9-0.2,1.6c-0.1,0.5-0.6,1.7-1.8,1.8
	L47,35.5c-0.1,0.3-0.2,0.6-0.2,0.9l1.4,1c1,0.7,0.8,1.9,0.7,2.5c-0.2,0.6-0.5,1.2-0.6,1.5c-0.1,0.2-0.5,0.8-1,1.3
	c-0.4,0.4-1.3,1.1-2.5,0.6l-1.6-0.7c-0.2,0.2-0.4,0.5-0.7,0.7l0.7,1.6c0.5,1.1-0.2,2.1-0.6,2.5c-0.5,0.5-1,0.8-1.3,1
	c-0.2,0.1-0.8,0.5-1.5,0.6c-0.5,0.1-1.7,0.3-2.5-0.7l-1-1.4c-0.3,0.1-0.6,0.2-0.9,0.2l-0.2,1.7c-0.1,1.2-1.2,1.7-1.8,1.8
	c-0.6,0.2-1.3,0.2-1.6,0.2c-0.3,0-0.9,0-1.6-0.2c-0.5-0.1-1.7-0.6-1.8-1.8L28.5,47c-0.3-0.1-0.6-0.2-0.9-0.2l-1,1.4
	c-0.7,1-1.9,0.8-2.5,0.7c-0.6-0.2-1.2-0.5-1.5-0.6c-0.2-0.1-0.8-0.5-1.3-1c-0.4-0.4-1.1-1.3-0.6-2.5l0.7-1.6
	c-0.2-0.2-0.5-0.4-0.7-0.7l-1.6,0.7c-1.1,0.5-2.1-0.2-2.5-0.6c-0.5-0.5-0.8-1-1-1.3c-0.1-0.2-0.5-0.8-0.6-1.5
	c-0.1-0.5-0.3-1.7,0.7-2.5l1.4-1c-0.1-0.3-0.2-0.6-0.2-0.9l-1.7-0.2c-1.2-0.1-1.7-1.2-1.8-1.8c-0.2-0.6-0.2-1.3-0.2-1.6
	c0-0.3,0-0.9,0.2-1.6c0.2-0.5,0.6-1.7,1.8-1.8l1.7-0.2c0.1-0.3,0.2-0.6,0.2-0.9l-1.4-1c-1-0.7-0.8-1.9-0.7-2.5
	c0.2-0.6,0.5-1.2,0.6-1.5c0.1-0.2,0.5-0.8,1-1.3c0.4-0.4,1.3-1.1,2.5-0.6l1.6,0.7c0.2-0.2,0.4-0.5,0.7-0.7l-0.7-1.6
	c-0.5-1.1,0.2-2.1,0.6-2.5c0.5-0.5,1-0.8,1.3-1c0.2-0.1,0.8-0.5,1.5-0.6c0.5-0.1,1.7-0.3,2.5,0.7l1,1.4c0.3-0.1,0.6-0.2,0.9-0.2
	l0.2-1.7c0.1-1.2,1.2-1.7,1.8-1.8c0.6-0.2,1.3-0.2,1.6-0.2c0.3,0,0.9,0,1.6,0.2c0.5,0.1,1.7,0.6,1.8,1.8l0.2,1.7
	C35.8,17.1,36.1,17.2,36.4,17.3z M48.4,33.2c0.1-0.2,0.2-0.6,0.2-1.2c0-0.6-0.1-1-0.2-1.2l-2.4-0.2c-0.4,0-0.8-0.2-1-0.9
	c-0.1-0.8-0.3-1.6-0.6-2.3c-0.1-0.4-0.1-0.8,0.4-1.2l2-1.4c0-0.2-0.1-0.6-0.4-1.1c-0.3-0.5-0.6-0.8-0.7-0.9l-2.2,1
	c-0.5,0.2-0.9,0.1-1.3-0.3c-0.5-0.6-1.1-1.2-1.7-1.7C40,21.5,40,21,40.2,20.6l1-2.2c-0.1-0.1-0.4-0.4-0.9-0.7
	c-0.5-0.3-0.9-0.4-1.1-0.4l-1.4,2c-0.3,0.4-0.7,0.6-1.2,0.4c-0.8-0.3-1.6-0.5-2.3-0.6c-0.7-0.1-0.8-0.6-0.9-1l-0.2-2.4
	c-0.2-0.1-0.6-0.2-1.2-0.2c-0.6,0-1,0.1-1.2,0.2l-0.1,1.6l-0.1,0.9c0,0.4-0.2,0.8-0.9,1c-0.8,0.1-1.6,0.3-2.3,0.6
	c-0.6,0.2-0.9,0-1.2-0.4L26,18.9l-1.2-1.7c-0.2,0-0.6,0.2-1.1,0.4c-0.5,0.3-0.8,0.6-0.9,0.7l1,2.2c0.2,0.5,0.1,0.9-0.3,1.3
	c-0.6,0.5-1.2,1.1-1.7,1.7c-0.3,0.4-0.8,0.5-1.3,0.3l-2.2-1c-0.1,0.1-0.4,0.4-0.7,0.9c-0.3,0.5-0.4,0.9-0.4,1.1l2,1.4
	c0.4,0.3,0.6,0.7,0.4,1.2c-0.3,0.8-0.5,1.5-0.6,2.3c-0.1,0.7-0.6,0.8-1,0.9l-2.4,0.2c-0.1,0.2-0.2,0.6-0.2,1.2c0,0.6,0.1,1,0.2,1.2
	l1.8,0.2l0.7,0.1c0.4,0,0.8,0.2,1,0.9c0.1,0.8,0.3,1.6,0.6,2.3c0.1,0.3,0.1,0.8-0.4,1.2l-2,1.4c0,0.2,0.1,0.6,0.4,1.1
	c0.3,0.5,0.6,0.8,0.7,0.9l2.2-1c0.5-0.2,0.9-0.1,1.3,0.3c0.5,0.6,1.1,1.2,1.7,1.7c0.5,0.4,0.4,0.9,0.3,1.3l-1,2.2
	c0.1,0.1,0.4,0.4,0.9,0.7c0.5,0.3,0.9,0.4,1.1,0.4l1.4-2c0.3-0.4,0.7-0.6,1.2-0.4c0.8,0.3,1.5,0.5,2.3,0.6c0.7,0.1,0.8,0.6,0.9,1
	l0.1,0.9l0.1,1.6c0.2,0.1,0.6,0.2,1.2,0.2c0.6,0,1-0.1,1.2-0.2l0.2-2.4c0-0.4,0.2-0.8,0.9-1c0.8-0.1,1.6-0.3,2.3-0.6
	c0.6-0.2,0.9,0,1.2,0.4l1.4,2c0.2,0,0.6-0.2,1.1-0.4c0.5-0.3,0.8-0.6,0.9-0.7l-1-2.2c-0.2-0.5-0.1-0.9,0.3-1.3
	c0.6-0.5,1.2-1.1,1.7-1.7c0.3-0.4,0.8-0.5,1.3-0.3l2.2,1c0.1-0.1,0.4-0.4,0.7-0.9c0.3-0.5,0.4-0.9,0.4-1.1l-2-1.4
	c-0.4-0.3-0.6-0.7-0.4-1.2c0.3-0.8,0.5-1.6,0.6-2.3c0.1-0.7,0.6-0.8,1-0.9l0.4,0L48.4,33.2z M25.4,32c0,3.7,3,6.6,6.6,6.6
	c3.7,0,6.6-3,6.6-6.6c0-3.7-3-6.6-6.6-6.6S25.4,28.3,25.4,32z M32,23.1c4.9,0,8.9,4,8.9,8.9c0,4.9-4,8.9-8.9,8.9
	c-4.9,0-8.9-4-8.9-8.9C23.1,27.1,27.1,23.1,32,23.1z"/>
</svg>
