<?xml version="1.0" encoding="utf-8"?>
<!-- Generator: Adobe Illustrator 19.1.0, SVG Export Plug-In . SVG Version: 6.00 Build 0)  -->
<svg version="1.1" id="Layer_1" xmlns="http://www.w3.org/2000/svg" xmlns:xlink="http://www.w3.org/1999/xlink" x="0px" y="0px"
	 viewBox="0 0 64 64" style="enable-background:new 0 0 64 64;" xml:space="preserve">
<style type="text/css">
	.st0{fill:#010101;}
	.st1{fill-rule:evenodd;clip-rule:evenodd;fill:none;}
	.st2{fill-rule:evenodd;clip-rule:evenodd;fill:none;stroke:#000000;stroke-linejoin:round;stroke-miterlimit:3.8637;}
</style>
<path d="M47,32c0,0.6,0.4,1,1,1h1v11H15V20h34v11h-1C47.4,31,47,31.4,47,32z M45,32c0-1.3,0.8-2.4,2-2.8V22H23v20h24v-7.2
	C45.8,34.4,45,33.3,45,32z M17,37h3v2h-3v3h5V22h-5v3h3v2h-3v2h3v2h-3v2h3v2h-3V37z M29,32l6-7h8l-6,5h3l-6,4h3l-10,6l4-4h-3l4-4H29
	z"/>
</svg>
