<?xml version="1.0" encoding="utf-8"?>
<!-- Generator: Adobe Illustrator 19.1.0, SVG Export Plug-In . SVG Version: 6.00 Build 0)  -->
<svg version="1.1" id="Layer_1" xmlns="http://www.w3.org/2000/svg" xmlns:xlink="http://www.w3.org/1999/xlink" x="0px" y="0px"
	 viewBox="0 0 64 64" style="enable-background:new 0 0 64 64;" xml:space="preserve">
<style type="text/css">
	.st0{fill:#010101;}
	.st1{fill-rule:evenodd;clip-rule:evenodd;fill:none;}
	.st2{fill-rule:evenodd;clip-rule:evenodd;fill:none;stroke:#000000;stroke-linejoin:round;stroke-miterlimit:3.8637;}
</style>
<path d="M19.7,32c0,6.8,5.5,12.3,12.3,12.3c6.8,0,12.3-5.5,12.3-12.3S38.8,19.7,32,19.7C25.2,19.7,19.7,25.2,19.7,32z M13.9,39
	l3.9-2.2C17.3,35.3,17,33.7,17,32c0-8.3,6.7-15,15-15c5.1,0,9.7,2.6,12.4,6.6l8.3-4.8l-0.3,4.9L64,17L49.8,29.9l0.3-4.9l-3.9,2.2
	c0.5,1.5,0.8,3.1,0.8,4.8c0,8.3-6.7,15-15,15c-5.2,0-9.7-2.6-12.4-6.6l-8.3,4.8l0.3-4.9L0,47l14.2-12.9L13.9,39z M34.7,30.6v-2.7
	c0-1.5-1.2-2.7-2.7-2.7c-1.5,0-2.7,1.2-2.7,2.7v2.7H34.7z M32,23.8c2.3,0,4.1,1.8,4.1,4.1v2.7h1.4v8.2H26.6v-8.2h1.4v-2.7
	C27.9,25.7,29.7,23.8,32,23.8z"/>
</svg>
