<?xml version="1.0" encoding="utf-8"?>
<!-- Generator: Adobe Illustrator 19.1.0, SVG Export Plug-In . SVG Version: 6.00 Build 0)  -->
<svg version="1.1" id="Layer_1" xmlns="http://www.w3.org/2000/svg" xmlns:xlink="http://www.w3.org/1999/xlink" x="0px" y="0px"
	 viewBox="0 0 64 64" style="enable-background:new 0 0 64 64;" xml:space="preserve">
<style type="text/css">
	.st0{fill:#010101;}
	.st1{fill-rule:evenodd;clip-rule:evenodd;fill:none;}
</style>
<path d="M59.8,23.6c0.2-0.7,0.3-1.4,0.3-2.2c0-4.3-3.5-7.8-7.8-7.8c-3.2,0-6,2-7.2,4.7c-1-0.9-2.4-1.5-3.9-1.5c-3.2,0-5.9,2.6-5.9,6
	c-0.4-0.1-0.9-0.1-1.3-0.1c-3.6,0-6.5,2.9-6.5,6.5H0v17h64v-17C64,26.5,62.2,24.3,59.8,23.6z M61.4,43.6H2.6V31.8h58.8V43.6z
	 M55.5,39.7c-1.1,0-2-0.9-2-2s0.9-2,2-2c1.1,0,2,0.9,2,2S56.6,39.7,55.5,39.7z M40.5,37.1h10.4v1.3H40.5V37.1z M36.6,34.4V41h-30
	v-6.5H36.6z M22.2,39.7h13.1v-3.9H22.2V39.7z M7.8,39.7h13.1v-3.9H7.8V39.7z"/>
</svg>
