<?xml version="1.0" encoding="utf-8"?>
<!-- Generator: Adobe Illustrator 19.1.0, SVG Export Plug-In . SVG Version: 6.00 Build 0)  -->
<svg version="1.1" id="Layer_1" xmlns="http://www.w3.org/2000/svg" xmlns:xlink="http://www.w3.org/1999/xlink" x="0px" y="0px"
	 viewBox="0 0 64 64" style="enable-background:new 0 0 64 64;" xml:space="preserve">
<style type="text/css">
	.st0{fill:#010101;}
	.st1{fill-rule:evenodd;clip-rule:evenodd;fill:none;}
	.st2{fill-rule:evenodd;clip-rule:evenodd;fill:none;stroke:#000000;stroke-linejoin:round;stroke-miterlimit:3.8637;}
</style>
<path class="st0" d="M58.2,25.9c3.5-5.4,0.7-11.2-3.3-13c-0.4-5.1-6.4-8.2-11-6.8C42.5,1,35.2-1.7,30.9,1.4
	c-4.5-2.8-10.1-1.3-12.3,2.9c-5.1-0.8-9.9,3.2-9.4,8.5c-4,1.8-6.8,7.6-3.3,13c-1,2.5-0.8,4.6,0.1,6.4c-0.9,1.5-1,3.8-0.2,6.5
	c1.3,4.3,3,6.5,5.4,6.9l0.4,3.8C12.1,56,23.4,64,32,64c8.6,0,19.9-8,20.5-14.4l0.4-3.8c2.4-0.5,4.1-2.7,5.4-6.9
	c0.8-2.8,0.7-5.1-0.2-6.5C58.9,30.4,59.2,28.4,58.2,25.9z M8,38.1c-0.4-1.4-0.5-2.5-0.4-3.3c0.9,1.2,1.9,2.3,2.8,3.5l0.5,4.9
	C10,42.7,9,41.4,8,38.1z M32,61.6c-7.3,0-17.7-7-18.2-12.3l-0.9-9.2l0.7-9c-1.3-3.8-0.6-7.6,1.9-10c0,0,3,2.9,8.4,2.9l0-3.8
	c0,0,3,2.8,8.3,2.8l0-3.8c0,0,3,2.8,8.3,2.8l0-3.8c8.1-0.5,12.3,6.1,9.9,12.7l0.7,9l-0.9,9.2C49.7,54.6,39.3,61.6,32,61.6z M56,38.1
	c-1,3.3-2,4.5-2.9,5l0.5-4.9c0.9-1.2,1.9-2.3,2.8-3.4C56.5,35.7,56.4,36.8,56,38.1z M32,46.3c-0.9,0-1.8-0.2-2.6-0.6
	c-0.3-0.1-0.4-0.5-0.3-0.8c0.1-0.3,0.5-0.4,0.8-0.3c1.2,0.6,2.8,0.6,4,0c0.3-0.1,0.6,0,0.8,0.3c0.1,0.3,0,0.6-0.3,0.8
	C33.8,46.1,32.9,46.3,32,46.3z M30.6,42.8c-0.3,0-0.6-0.3-0.6-0.6v-4.9c0-0.3,0.3-0.6,0.6-0.6c0.3,0,0.6,0.3,0.6,0.6v4.9
	C31.2,42.5,30.9,42.8,30.6,42.8z M38.4,38.2c0-1.2,1-2.1,2.1-2.1c1.2,0,2.1,0.9,2.1,2.1c0,1.2-1,2.1-2.1,2.1
	C39.4,40.4,38.4,39.4,38.4,38.2z M21.4,38.2c0-1.2,1-2.1,2.1-2.1c1.2,0,2.1,0.9,2.1,2.1c0,1.2-1,2.1-2.1,2.1
	C22.3,40.4,21.4,39.4,21.4,38.2z M30.1,57.1c-0.2,0-0.5-0.2-0.6-0.4c-0.1-0.3,0.1-0.6,0.4-0.7c1.4-0.5,2.8-0.5,4.1,0
	c0.3,0.1,0.5,0.4,0.4,0.7s-0.4,0.5-0.7,0.4c-1.1-0.4-2.3-0.4-3.4,0C30.2,57.1,30.2,57.1,30.1,57.1z M25.6,52.7
	c-0.2,0-0.4-0.1-0.5-0.4c-0.1-0.3,0-0.6,0.3-0.8c2.1-0.9,4.3-1.3,6.7-1.3c2.3,0,4.5,0.5,6.7,1.3c0.3,0.1,0.4,0.5,0.3,0.8
	c-0.1,0.3-0.5,0.4-0.8,0.3c-2-0.8-4-1.3-6.2-1.3c-2.1,0-4.2,0.4-6.2,1.3C25.7,52.7,25.7,52.7,25.6,52.7z M17.7,35.2l-1.1-0.5
	c1.4-3.1,4-2.9,6.4-2.8c1.6,0.1,3.1,0.2,4.2-0.7l0.7,0.9c-1.4,1.1-3.3,1.1-5,1C20.7,33,18.7,32.9,17.7,35.2z M46.3,35.2
	c-1-2.3-3-2.2-5.2-2.1c-1.8,0.1-3.6,0.2-5-1l0.7-0.9c1.1,0.9,2.6,0.8,4.2,0.7c2.3-0.1,5-0.2,6.4,2.8L46.3,35.2z"/>
</svg>
