<?xml version="1.0" encoding="utf-8"?>
<!-- Generator: Adobe Illustrator 19.1.0, SVG Export Plug-In . SVG Version: 6.00 Build 0)  -->
<svg version="1.1" id="Layer_1" xmlns="http://www.w3.org/2000/svg" xmlns:xlink="http://www.w3.org/1999/xlink" x="0px" y="0px"
	 viewBox="0 0 64 64" style="enable-background:new 0 0 64 64;" xml:space="preserve">
<style type="text/css">
	.st0{fill-rule:evenodd;clip-rule:evenodd;fill:none;}
	.st1{fill:#010101;}
</style>
<g>
	<path d="M15,61.8v-7.3L6.5,46V28.6h6V41l2.6-2.6l10.2,10.2v13.1h-1.7V49.4L15,40.9l-1.8,1.8l5.8,5.8l-1.2,1.2l-7.1-7.1V30.3H8.2v15
		l8.5,8.5v8H15z M38.8,61.8V48.7L49,38.5l2.6,2.6V28.6h6V46L49,54.5v7.3h-1.7v-8l8.5-8.5v-15h-2.6v12.3l-7.1,7.1L45,48.4l5.8-5.8
		L49,40.9l-8.5,8.5v12.4H38.8z M46.5,6.5c-4.9,0.1-10-0.8-14.5-3.3c-4.4,2.5-9.6,3.4-14.5,3.3v15.3c0,8,6.9,14.3,14.5,17
		c7.5-2.6,14.5-9,14.5-17V6.5z M32,1.2c4.8,3,10.6,3.9,16.2,3.5v17.1c0,9.3-8.1,16.1-16.2,18.8c-8.1-2.6-16.2-9.5-16.2-18.8V4.7
		C21.4,5.1,27.2,4.2,32,1.2z M28.6,17.5h6.8v-4.3c0-1.9-1.5-3.4-3.4-3.4s-3.4,1.5-3.4,3.4V17.5z M36.3,19.2H26v9.4H38v-6.1l1.7-1.9
		v9.7H24.3V17.5h2.6v-4.3c0-2.8,2.3-5.1,5.1-5.1c2.8,0,5.1,2.3,5.1,5.1v4.3h0.8l2.9-3.1l1.3,1.2L32,26.4l-4.2-4.4l1.2-1.2l3,3.1
		L36.3,19.2z"/>
	<rect x="-1.2" y="-1.2" class="st0" width="66.4" height="66.4"/>
</g>
</svg>
