<?xml version="1.0" encoding="utf-8"?>
<!-- Generator: Adobe Illustrator 19.1.0, SVG Export Plug-In . SVG Version: 6.00 Build 0)  -->
<svg version="1.1" id="Layer_1" xmlns="http://www.w3.org/2000/svg" xmlns:xlink="http://www.w3.org/1999/xlink" x="0px" y="0px"
	 viewBox="0 0 64 64" style="enable-background:new 0 0 64 64;" xml:space="preserve">
<style type="text/css">
	.st0{fill:#010101;}
</style>
<path d="M0,0h64v64H0V0z M43.8,25.1c0.5,0,1-0.4,1-1c0-0.5-0.4-1-1-1c-0.5,0-1,0.4-1,1C42.8,24.7,43.2,25.1,43.8,25.1z M43.8,40.8
	c0.5,0,1-0.4,1-1c0-0.5-0.4-1-1-1c-0.5,0-1,0.4-1,1C42.8,40.4,43.2,40.8,43.8,40.8z M28.1,31c-0.5,0-1,0.4-1,1c0,0.5,0.4,1,1,1
	s1-0.4,1-1C29.1,31.5,28.6,31,28.1,31z M20.2,23.2c-0.5,0-1,0.4-1,1c0,0.5,0.4,1,1,1s1-0.4,1-1C21.2,23.6,20.8,23.2,20.2,23.2z
	 M20.2,38.9c-0.5,0-1,0.4-1,1c0,0.5,0.4,1,1,1s1-0.4,1-1C21.2,39.3,20.8,38.9,20.2,38.9z M1.6,17.3v5.9h15.8c0.4-1.1,1.5-2,2.8-2
	c1.6,0,2.9,1.3,2.9,2.9c0,1.6-1.3,2.9-2.9,2.9c-1.3,0-2.4-0.8-2.8-2H1.6V31h23.7c0.4-1.1,1.5-2,2.8-2c1.6,0,2.9,1.3,2.9,2.9
	c0,1.6-1.3,2.9-2.9,2.9c-1.3,0-2.4-0.8-2.8-2H1.6v5.9h15.8c0.4-1.1,1.5-2,2.8-2c1.6,0,2.9,1.3,2.9,2.9c0,1.6-1.3,2.9-2.9,2.9
	c-1.3,0-2.4-0.8-2.8-2H1.6v5.9h17.6v7.4L40.4,32L19.3,9.9v7.4H1.6z M62.4,17.3H44.7V9.9L33.4,21.8l8.9,9.2h20.1v-5.9H46.5
	c-0.4,1.1-1.5,2-2.8,2c-1.6,0-2.9-1.3-2.9-2.9c0-1.6,1.3-2.9,2.9-2.9c1.3,0,2.4,0.8,2.8,2h15.8V17.3z M32,20.4L44.4,7.5h2.3v7.8
	h15.7V1.6H1.6v13.7h15.7V7.5h2.3L32,20.4z M62.4,48.6H46.7v7.8h-2.3L32,43.6L19.6,56.5h-2.3v-7.8H1.6v13.7h60.7V48.6z M44.7,54.1
	v-7.4h17.6v-5.9H46.5c-0.4,1.1-1.5,2-2.8,2c-1.6,0-2.9-1.3-2.9-2.9c0-1.6,1.3-2.9,2.9-2.9c1.3,0,2.4,0.8,2.8,2h15.8V33H42.2
	l-8.9,9.2L44.7,54.1z"/>
</svg>
