<?xml version="1.0" encoding="utf-8"?>
<!-- Generator: Adobe Illustrator 19.1.0, SVG Export Plug-In . SVG Version: 6.00 Build 0)  -->
<svg version="1.1" id="Layer_1" xmlns="http://www.w3.org/2000/svg" xmlns:xlink="http://www.w3.org/1999/xlink" x="0px" y="0px"
	 viewBox="0 0 64 64" style="enable-background:new 0 0 64 64;" xml:space="preserve">
<style type="text/css">
	.st0{fill:#010101;}
	.st1{fill-rule:evenodd;clip-rule:evenodd;fill:none;}
</style>
<path d="M6.3,20.7c0-8.8,7.1-16,16-16c7,0,13,4.5,15.1,10.9c1.6-0.8,3.4-1.2,5.3-1.2c6.6,0,11.9,5.3,11.9,11.9
	c0,1.2-0.2,2.4-0.5,3.5c5.6,1.2,9.8,6.2,9.8,12.2c0,6.9-5.6,12.4-12.4,12.4H14.1c-7.7,0-13.9-6.2-13.9-13.9C0.2,35,3.4,30.2,8,28
	C6.9,25.8,6.3,23.4,6.3,20.7z M22.3,6.1c-8.1,0-14.7,6.6-14.7,14.7c0,2.4,0.6,4.7,1.6,6.7l0.6,1.2l-1.2,0.6c-4.2,2-7.1,6.4-7.1,11.4
	c0,7,5.6,12.6,12.6,12.6h37.3c6.2,0,11.2-5,11.2-11.2c0-5.3-3.7-9.8-8.8-10.9l-1.3-0.3l0.4-1.3c0.3-1,0.5-2,0.5-3.1
	c0-5.9-4.8-10.6-10.6-10.6c-1.7,0-3.3,0.4-4.7,1.1l-1.3,0.6L36.2,16C34.2,10.2,28.7,6.1,22.3,6.1z M18,35.3c0-7,5.7-12.7,12.7-12.7
	c7,0,12.7,5.7,12.7,12.7c0,7-5.7,12.7-12.7,12.7C23.7,48,18,42.3,18,35.3z M42.1,34h-5l-1.7,5.1h-1.3l-3.1-9.4l-3.9,11.9h-1.3
	l-1.7-5.1h-4.9c0.6,5.7,5.5,10.2,11.4,10.2c6.3,0,11.4-5.1,11.4-11.4C42.2,34.9,42.2,34.4,42.1,34z M31.8,27.7l3.1,9.4l1.4-4.3
	l5.7,0c-1.2-5.1-5.7-8.9-11.2-8.9c-6.3,0-11.4,5.1-11.4,11.4l5.9,0l1.4,4.3l3.9-11.9H31.8z"/>
</svg>
