<?xml version="1.0" encoding="utf-8"?>
<!-- Generator: Adobe Illustrator 19.1.0, SVG Export Plug-In . SVG Version: 6.00 Build 0)  -->
<svg version="1.1" id="Layer_1" xmlns="http://www.w3.org/2000/svg" xmlns:xlink="http://www.w3.org/1999/xlink" x="0px" y="0px"
	 viewBox="0 0 64 64" style="enable-background:new 0 0 64 64;" xml:space="preserve">
<style type="text/css">
	.st0{fill-rule:evenodd;clip-rule:evenodd;fill:none;}
	.st1{fill:#010101;}
</style>
<g>
	<rect x="-1.2" y="-1.2" class="st0" width="66.4" height="66.4"/>
	<path d="M32,1.2c4.8,3,10.6,3.9,16.2,3.5v17.1c0,9.3-8.1,16.1-16.2,18.8c-8.1-2.6-16.2-9.5-16.2-18.8V4.7C21.4,5.1,27.2,4.2,32,1.2
		z M46.5,6.5c-4.9,0.1-10-0.8-14.5-3.3c-4.4,2.5-9.6,3.4-14.5,3.3v15.3c0,8,6.9,14.3,14.5,17c7.5-2.6,14.5-9,14.5-17V6.5z
		 M37.4,21.3l-4.2,4.2l3.1,3.1c1.2,1.2,3.1,1.2,4.2,0c1.2-1.2,1.2-3,0-4.2L37.4,21.3z M26.6,18.9l4.2-4.2l-3.1-3.1
		c-1.2-1.2-3.1-1.2-4.2,0c-1.2,1.2-1.2,3,0,4.2L26.6,18.9z M22.3,23.2l3.1-3.1L22.3,17c-1.8-1.8-1.8-4.8,0-6.6
		c1.8-1.8,4.8-1.8,6.6,0l3.1,3.1l3.1-3.1c1.8-1.8,4.8-1.8,6.6,0c1.8,1.8,1.8,4.8,0,6.6l-3.1,3.1l3.1,3.1c1.8,1.8,1.8,4.8,0,6.6
		c-1.8,1.8-4.8,1.8-6.6,0L32,26.7l-3.1,3.1c-1.8,1.8-4.8,1.8-6.6,0C20.5,27.9,20.5,25,22.3,23.2z M37.4,18.9l3.1-3.1
		c1.2-1.2,1.2-3.1,0-4.2c-1.2-1.2-3-1.2-4.2,0l-3.1,3.1L37.4,18.9z M32,24.3l4.2-4.2L32,15.9l-4.2,4.2L32,24.3z M23.5,24.4
		c-1.2,1.2-1.2,3,0,4.2c1.2,1.2,3.1,1.2,4.2,0l3.1-3.1l-4.2-4.2L23.5,24.4z M37.1,24.3c0-0.5,0.4-0.9,0.9-0.9c0.5,0,0.9,0.4,0.9,0.9
		c0,0.5-0.4,0.9-0.9,0.9C37.5,25.2,37.1,24.8,37.1,24.3z M38,26.9c0-0.5,0.4-0.9,0.9-0.9c0.5,0,0.9,0.4,0.9,0.9
		c0,0.5-0.4,0.9-0.9,0.9C38.3,27.7,38,27.4,38,26.9z M35.4,26c0-0.5,0.4-0.9,0.9-0.9s0.9,0.4,0.9,0.9c0,0.5-0.4,0.9-0.9,0.9
		S35.4,26.5,35.4,26z M26,13.3c0,0.5-0.4,0.9-0.9,0.9s-0.9-0.4-0.9-0.9s0.4-0.9,0.9-0.9S26,12.8,26,13.3z M28.6,14.1
		c0,0.5-0.4,0.9-0.9,0.9c-0.5,0-0.9-0.4-0.9-0.9c0-0.5,0.4-0.9,0.9-0.9C28.2,13.3,28.6,13.6,28.6,14.1z M26.9,15.8
		c0,0.5-0.4,0.9-0.9,0.9c-0.5,0-0.9-0.4-0.9-0.9c0-0.5,0.4-0.9,0.9-0.9C26.5,15,26.9,15.4,26.9,15.8z M38.8,14.1
		c-0.5,0-0.9-0.4-0.9-0.9s0.4-0.9,0.9-0.9c0.5,0,0.9,0.4,0.9,0.9S39.3,14.1,38.8,14.1z M38,16.7c-0.5,0-0.9-0.4-0.9-0.9
		c0-0.5,0.4-0.9,0.9-0.9c0.5,0,0.9,0.4,0.9,0.9C38.8,16.3,38.4,16.7,38,16.7z M36.3,15c-0.5,0-0.9-0.4-0.9-0.9
		c0-0.5,0.4-0.9,0.9-0.9s0.9,0.4,0.9,0.9C37.1,14.6,36.7,15,36.3,15z M25.2,26c0.5,0,0.9,0.4,0.9,0.9c0,0.5-0.4,0.9-0.9,0.9
		s-0.9-0.4-0.9-0.9C24.3,26.4,24.7,26,25.2,26z M26,23.5c0.5,0,0.9,0.4,0.9,0.9c0,0.5-0.4,0.9-0.9,0.9c-0.5,0-0.9-0.4-0.9-0.9
		C25.2,23.9,25.6,23.5,26,23.5z M27.7,25.2c0.5,0,0.9,0.4,0.9,0.9c0,0.5-0.4,0.9-0.9,0.9c-0.5,0-0.9-0.4-0.9-0.9
		C26.9,25.6,27.3,25.2,27.7,25.2z M38.8,61.8V48.7L49,38.5l2.6,2.6V28.6h6V46L49,54.5v7.3h-1.7v-8l8.5-8.5v-15h-2.6v12.3l-7.1,7.1
		L45,48.4l5.8-5.8L49,40.9l-8.5,8.5v12.4H38.8z M15,61.8v-7.3L6.5,46V28.6h6V41l2.6-2.6l10.2,10.2v13.1h-1.7V49.4L15,40.9l-1.8,1.8
		l5.8,5.8l-1.2,1.2l-7.1-7.1V30.3H8.2v15l8.5,8.5v8H15z"/>
</g>
</svg>
