<?xml version="1.0" encoding="utf-8"?>
<!-- Generator: Adobe Illustrator 19.1.0, SVG Export Plug-In . SVG Version: 6.00 Build 0)  -->
<svg version="1.1" id="Layer_1" xmlns="http://www.w3.org/2000/svg" xmlns:xlink="http://www.w3.org/1999/xlink" x="0px" y="0px"
	 viewBox="0 0 64 64" style="enable-background:new 0 0 64 64;" xml:space="preserve">
<style type="text/css">
	.st0{fill:#010101;}
	.st1{fill-rule:evenodd;clip-rule:evenodd;fill:none;}
	.st2{fill-rule:evenodd;clip-rule:evenodd;fill:none;stroke:#000000;stroke-linejoin:round;stroke-miterlimit:3.8637;}
</style>
<rect x="-0.4" y="-0.4" class="st1" width="64.8" height="64.8"/>
<path class="st0" d="M32,62.1c12.1,0,21.9-9.8,21.9-21.9S44.1,18.3,32,18.3c-12.1,0-21.9,9.8-21.9,21.9S19.9,62.1,32,62.1z M42,18.7
	v-5h6.3L32,2.1L15.7,13.8H22v5c3-1.4,6.4-2.2,10-2.2S39,17.3,42,18.7z M20.2,19.7v-4.1H10L32-0.1l22,15.7H43.8v4.1
	c7.1,4.1,11.8,11.8,11.8,20.5c0,13.1-10.6,23.7-23.7,23.7S8.3,53.3,8.3,40.2C8.3,31.4,13.1,23.8,20.2,19.7z M50.2,40.2
	c0,10.1-8.2,18.2-18.2,18.2c-10.1,0-18.2-8.2-18.2-18.2S21.9,22,32,22C42.1,22,50.2,30.1,50.2,40.2z M48.4,40.2
	c0-9.1-7.3-16.4-16.4-16.4s-16.4,7.3-16.4,16.4S22.9,56.6,32,56.6S48.4,49.3,48.4,40.2z M44.7,41.1l-9.2,0c-0.4,1.6-1.8,2.7-3.5,2.7
	c-2,0-3.6-1.6-3.6-3.6c0-1.7,1.2-3.1,2.7-3.5l0-5.6c0-0.5,0.4-0.9,0.9-0.9c0.5,0,0.9,0.4,0.9,0.9l0,5.6c1.3,0.3,2.3,1.3,2.6,2.6
	l9.2,0c0.5,0,0.9,0.4,0.9,0.9C45.7,40.7,45.3,41.1,44.7,41.1z M33.8,40.2c0-1-0.8-1.8-1.8-1.8c-1,0-1.8,0.8-1.8,1.8
	c0,1,0.8,1.8,1.8,1.8C33,42,33.8,41.2,33.8,40.2z M31.1,27.5c0-0.5,0.4-0.9,0.9-0.9c0.5,0,0.9,0.4,0.9,0.9c0,0.5-0.4,0.9-0.9,0.9
	C31.5,28.4,31.1,28,31.1,27.5z M32.9,53c0,0.5-0.4,0.9-0.9,0.9c-0.5,0-0.9-0.4-0.9-0.9c0-0.5,0.4-0.9,0.9-0.9
	C32.5,52.1,32.9,52.5,32.9,53z M19.2,41.1c-0.5,0-0.9-0.4-0.9-0.9c0-0.5,0.4-0.9,0.9-0.9c0.5,0,0.9,0.4,0.9,0.9
	C20.2,40.7,19.7,41.1,19.2,41.1z M24.8,29.6c-0.3-0.4-0.1-1,0.3-1.2c0.4-0.3,1-0.1,1.2,0.3c0.3,0.4,0.1,1-0.3,1.2
	C25.6,30.2,25.1,30.1,24.8,29.6z M39.2,50.8c0.3,0.4,0.1,1-0.3,1.2c-0.4,0.3-1,0.1-1.2-0.3c-0.3-0.4-0.1-1,0.3-1.2
	C38.4,50.2,38.9,50.4,39.2,50.8z M42.6,33c0.4-0.3,1-0.1,1.2,0.3c0.3,0.4,0.1,1-0.3,1.2c-0.4,0.3-1,0.1-1.2-0.3
	C42,33.8,42.2,33.3,42.6,33z M21.4,47.4c-0.4,0.3-1,0.1-1.2-0.3c-0.3-0.4-0.1-1,0.3-1.2c0.4-0.3,1-0.1,1.2,0.3
	C22,46.6,21.8,47.1,21.4,47.4z M20.5,34.6c-0.4-0.3-0.6-0.8-0.3-1.2c0.3-0.4,0.8-0.6,1.2-0.3c0.4,0.3,0.6,0.8,0.3,1.2
	C21.5,34.7,20.9,34.9,20.5,34.6z M43.5,45.8c0.4,0.3,0.6,0.8,0.3,1.2c-0.3,0.4-0.8,0.6-1.2,0.3c-0.4-0.3-0.6-0.8-0.3-1.2
	C42.5,45.7,43.1,45.5,43.5,45.8z M37.6,28.7c0.3-0.4,0.8-0.6,1.2-0.3c0.4,0.3,0.6,0.8,0.3,1.2c-0.3,0.4-0.8,0.6-1.2,0.3
	C37.5,29.7,37.3,29.1,37.6,28.7z M26.4,51.7c-0.3,0.4-0.8,0.6-1.2,0.3c-0.4-0.3-0.6-0.8-0.3-1.2c0.3-0.4,0.8-0.6,1.2-0.3
	C26.5,50.7,26.7,51.3,26.4,51.7z"/>
</svg>
