<?xml version="1.0" encoding="utf-8"?>
<!-- Generator: Adobe Illustrator 19.1.0, SVG Export Plug-In . SVG Version: 6.00 Build 0)  -->
<svg version="1.1" id="Layer_1" xmlns="http://www.w3.org/2000/svg" xmlns:xlink="http://www.w3.org/1999/xlink" x="0px" y="0px"
	 viewBox="0 0 64 64" style="enable-background:new 0 0 64 64;" xml:space="preserve">
<style type="text/css">
	.st0{fill:#010101;}
	.st1{fill-rule:evenodd;clip-rule:evenodd;fill:none;}
	.st2{fill-rule:evenodd;clip-rule:evenodd;fill:none;stroke:#000000;stroke-linejoin:round;stroke-miterlimit:3.8637;}
</style>
<path d="M44.9,33.1C45,32.9,45,32.5,45,32s0-0.9-0.1-1.1l-0.1-0.2l-3-0.6l-0.2-0.6c-0.2-0.9-0.6-1.9-1.1-2.7l-0.3-0.6l1.8-2.4
	l-0.1-0.2c-0.1-0.2-0.3-0.5-0.7-0.8c-0.4-0.4-0.7-0.6-0.8-0.7L40.1,22l-2.5,1.7l-0.5-0.3c-0.8-0.5-1.8-0.9-2.7-1.1l-0.6-0.2
	l-0.5-2.9l-0.2-0.1C32.9,19.1,32.6,19,32,19c-0.6,0-0.9,0.1-1.1,0.1l-0.2,0.1l-0.6,3l-0.6,0.2c-0.9,0.2-1.9,0.6-2.7,1.1l-0.6,0.3
	L23.8,22l-0.2,0.1c-0.1,0.1-0.4,0.3-0.8,0.7c-0.4,0.4-0.6,0.7-0.7,0.8L22,23.9l1.7,2.5l-0.3,0.5c-0.5,0.8-0.9,1.8-1.1,2.7l-0.2,0.7
	l-2.9,0.5l-0.1,0.2C19.1,31.1,19,31.4,19,32c0,0.6,0.1,0.9,0.1,1.1l0.1,0.2l3,0.6l0.2,0.6c0.2,0.9,0.6,1.9,1.1,2.7l0.3,0.6L22,40.2
	l0.1,0.2c0.1,0.1,0.2,0.4,0.7,0.8c0.4,0.4,0.7,0.6,0.8,0.7l0.2,0.1l2.5-1.7l0.5,0.3c0.8,0.5,1.8,0.9,2.7,1.1l0.6,0.2l0.5,2.9
	l0.2,0.1c0.2,0.1,0.5,0.1,1.1,0.1c0.5,0,0.8,0,1.1-0.1l0.2-0.1l0.6-3l0.6-0.2c0.9-0.2,1.9-0.6,2.7-1.1l0.6-0.3l2.4,1.8l0.2-0.1
	c0.1-0.1,0.4-0.3,0.8-0.7c0.4-0.4,0.6-0.7,0.7-0.8l0.1-0.2l-1.7-2.5l0.3-0.5c0.5-0.8,0.9-1.8,1.1-2.7l0.2-0.6l2.9-0.5L44.9,33.1z
	 M46.8,30.3c0.2,0.5,0.2,1,0.2,1.7c0,0.7-0.1,1.3-0.2,1.7l-0.5,1.3l-2.8,0.4c-0.2,0.7-0.5,1.4-0.8,2l1.6,2.4l-0.6,1.2
	c-0.2,0.4-0.5,0.9-1.1,1.4c-0.5,0.5-0.9,0.8-1.4,1L40,44.3l-2.3-1.7c-0.7,0.3-1.3,0.6-2,0.9L35,46.3l-1.3,0.4
	c-0.4,0.2-1,0.2-1.7,0.2c-0.7,0-1.3-0.1-1.7-0.2l-1.3-0.5l-0.4-2.8c-0.7-0.2-1.4-0.5-2-0.8L24,44.3l-1.2-0.6
	c-0.4-0.2-0.9-0.5-1.4-1.1c-0.5-0.5-0.9-1-1.1-1.4L19.7,40l1.7-2.3c-0.3-0.7-0.6-1.3-0.9-2L17.7,35l-0.5-1.3c-0.2-0.4-0.2-1-0.2-1.7
	c0-0.7,0.1-1.3,0.2-1.7l0.5-1.3l2.8-0.4c0.2-0.7,0.5-1.4,0.8-2L19.7,24l0.6-1.2c0.2-0.4,0.5-0.9,1.1-1.4c0.5-0.5,0.9-0.8,1.4-1
	l1.3-0.6l2.3,1.7c0.7-0.3,1.3-0.6,2-0.9l0.6-2.9l1.3-0.5c0.5-0.2,1-0.2,1.7-0.2c0.7,0,1.3,0.1,1.7,0.2l1.3,0.5l0.4,2.8
	c0.7,0.2,1.4,0.5,2,0.8l2.4-1.6l1.2,0.6c0.4,0.2,0.9,0.5,1.4,1.1c0.5,0.5,0.9,1,1.1,1.4l0.6,1.3l-1.7,2.3c0.3,0.7,0.6,1.3,0.9,2
	l2.9,0.6L46.8,30.3z M28,26c1.9,0,3.5,1.6,3.5,3.5v5c0,1.9-1.6,3.5-3.5,3.5c-1.9,0-3.5-1.6-3.5-3.5v-5C24.5,27.6,26.1,26,28,26z
	 M29.5,34.5v-5c0-0.8-0.7-1.5-1.5-1.5c-0.8,0-1.5,0.7-1.5,1.5v5c0,0.8,0.7,1.5,1.5,1.5C28.8,36,29.5,35.3,29.5,34.5z M36,28
	c-0.8,0-1.5,0.7-1.5,1.5c0,1.1,1.3,1.4,1.7,1.5c2,0.4,3.3,1.7,3.3,3.5c0,1.9-1.6,3.5-3.5,3.5c-1.9,0-3.5-1.6-3.5-3.5h2
	c0,0.8,0.7,1.5,1.5,1.5c0.8,0,1.5-0.7,1.5-1.5c0-1.1-1.3-1.4-1.7-1.5c-2-0.4-3.3-1.7-3.3-3.5c0-1.9,1.6-3.5,3.5-3.5
	c1.9,0,3.5,1.6,3.5,3.5h-2C37.5,28.7,36.8,28,36,28z"/>
</svg>
