<?xml version="1.0" encoding="utf-8"?>
<!-- Generator: Adobe Illustrator 19.1.0, SVG Export Plug-In . SVG Version: 6.00 Build 0)  -->
<svg version="1.1" id="Layer_1" xmlns="http://www.w3.org/2000/svg" xmlns:xlink="http://www.w3.org/1999/xlink" x="0px" y="0px"
	 viewBox="0 0 64 64" style="enable-background:new 0 0 64 64;" xml:space="preserve">
<style type="text/css">
	.st0{fill:#010101;}
</style>
<g>
	<path d="M0,0v64h64V0H0z M62.4,62.4H1.6V1.6h60.7V62.4z"/>
	<path d="M32,46.8c8.4,0,16.4-2.8,16.4-7.4c0-0.9-0.3-1.7-0.9-2.5c0.6-0.8,0.9-1.6,0.9-2.5c0-0.9-0.3-1.7-0.9-2.5
		c0.6-0.8,0.9-1.6,0.9-2.5c0-0.9-0.3-1.7-0.9-2.5c0.6-0.8,0.9-1.6,0.9-2.5c0-4.5-8-7.4-16.4-7.4s-16.4,2.8-16.4,7.4
		c0,0.9,0.3,1.7,0.9,2.5c-0.5,0.7-0.9,1.6-0.9,2.5c0,0.9,0.3,1.7,0.9,2.5c-0.5,0.7-0.9,1.6-0.9,2.5c0,0.9,0.3,1.7,0.9,2.5
		c-0.5,0.7-0.9,1.6-0.9,2.5C15.6,43.9,23.6,46.8,32,46.8z M32,18.9c8.9,0,14.8,3,14.8,5.7c0,2.7-5.9,5.7-14.8,5.7s-14.8-3-14.8-5.7
		C17.2,21.9,23.1,18.9,32,18.9z M17.6,28.3C20.5,30.6,26.2,32,32,32s11.5-1.4,14.4-3.7c0.3,0.4,0.4,0.9,0.4,1.3
		c0,2.7-5.9,5.7-14.8,5.7c-8.9,0-14.8-3-14.8-5.7C17.2,29.1,17.4,28.7,17.6,28.3z M17.6,33.2c2.9,2.4,8.6,3.7,14.4,3.7
		c5.8,0,11.5-1.4,14.4-3.7c0.3,0.4,0.4,0.9,0.4,1.3c0,2.7-5.9,5.7-14.8,5.7c-8.9,0-14.8-3-14.8-5.7C17.2,34.1,17.4,33.6,17.6,33.2z
		 M17.6,38.1c2.9,2.4,8.6,3.7,14.4,3.7c5.8,0,11.5-1.4,14.4-3.7c0.3,0.4,0.4,0.9,0.4,1.3c0,2.7-5.9,5.7-14.8,5.7
		c-8.9,0-14.8-3-14.8-5.7C17.2,39,17.4,38.6,17.6,38.1z"/>
	<path d="M32,27.3c1.4,0,5-0.5,5-2.5c0-1-0.9-1.7-1.7-2c-0.9-0.4-2-0.6-3.3-0.6c-1.4,0-5,0.5-5,2.5C27,26.8,30.6,27.3,32,27.3z
		 M32,23.8c1.1,0,2,0.2,2.6,0.4c0.2,0.1,0.6,0.3,0.7,0.5c-0.7,0.7-2.4,0.9-3.3,0.9c-0.5,0-3-0.2-3.3-0.9C29.4,24,31.1,23.8,32,23.8z
		"/>
</g>
</svg>
