<?xml version="1.0" encoding="utf-8"?>
<!-- Generator: Adobe Illustrator 19.1.0, SVG Export Plug-In . SVG Version: 6.00 Build 0)  -->
<svg version="1.1" id="Layer_1" xmlns="http://www.w3.org/2000/svg" xmlns:xlink="http://www.w3.org/1999/xlink" x="0px" y="0px"
	 viewBox="-477 419 64 64" style="enable-background:new -477 419 64 64;" xml:space="preserve">
<g>
	<g>
		<path d="M-438,478.2v-1c3.1,0,5.7-1.3,7.3-3.7c0.1-0.1,0.2-0.2,0.4-0.2c0.2,0,0.3,0.1,0.4,0.2c1.3,1.5,3.5,2.4,5.7,2.4
			c2.3-0.1,4.5-1.1,6.1-2.8c1.8-1.8,2.8-4,2.8-6.1c0-2.1-0.9-4.3-2.4-5.7c-0.1-0.1-0.2-0.2-0.2-0.4c0-0.2,0.1-0.3,0.2-0.4
			c2.4-1.7,3.7-4.2,3.7-7.3h1c0,3.2-1.3,5.9-3.6,7.8c1.5,1.6,2.3,3.8,2.3,6c0,2.5-1.1,4.9-3,6.9c-1.9,1.9-4.3,2.9-6.8,3h0
			c-2.3,0-4.5-0.9-6.1-2.3C-432,476.9-434.8,478.2-438,478.2z"/>
	</g>
	<g>
		<path d="M-413,448.8h-1c0-3.1-1.3-5.7-3.7-7.3c-0.1-0.1-0.2-0.2-0.2-0.4c0-0.2,0.1-0.3,0.2-0.4c1.5-1.3,2.4-3.5,2.4-5.7
			c-0.1-2.3-1.1-4.5-2.8-6.1c-1.8-1.8-4-2.8-6.1-2.8c-2.1,0-4.3,0.9-5.7,2.4c-0.1,0.1-0.2,0.2-0.4,0.2c-0.2,0-0.3-0.1-0.4-0.2
			c-1.7-2.4-4.2-3.7-7.3-3.7v-1c3.2,0,5.9,1.3,7.8,3.6c1.6-1.5,3.8-2.3,6-2.3c2.5,0,4.9,1.1,6.9,3c1.9,1.9,2.9,4.3,3,6.8
			c0,2.3-0.9,4.5-2.3,6.1C-414.3,442.8-413,445.6-413,448.8z"/>
	</g>
	<g>
		<path d="M-476,448.8h-1c0-3.2,1.3-5.9,3.6-7.8c-1.5-1.6-2.3-3.8-2.3-6c0-2.5,1.1-4.9,3-6.9c1.9-1.9,4.3-2.9,6.8-3c0,0,0,0,0,0
			c2.3,0,4.5,0.9,6.1,2.3c1.8-2.3,4.5-3.6,7.8-3.6v1c-3.1,0-5.7,1.3-7.3,3.7c-0.1,0.1-0.2,0.2-0.4,0.2c-0.2,0-0.3-0.1-0.4-0.2
			c-1.3-1.5-3.5-2.4-5.7-2.4c-2.3,0.1-4.5,1.1-6.1,2.8c-1.8,1.8-2.8,4-2.8,6.1c0,2.1,0.9,4.3,2.4,5.7c0.1,0.1,0.2,0.2,0.2,0.4
			c0,0.1-0.1,0.3-0.2,0.4C-474.7,443.2-476,445.7-476,448.8z"/>
	</g>
	<g>
		<path d="M-452,478.2c-3.2,0-5.9-1.3-7.8-3.6c-1.6,1.5-3.8,2.3-6,2.3c-2.5,0-4.9-1.1-6.9-3c-1.9-2-2.9-4.4-2.9-6.9
			c0-2.3,0.9-4.5,2.3-6c-2.3-1.8-3.6-4.5-3.6-7.8h1c0,3.1,1.3,5.7,3.7,7.3c0.1,0.1,0.2,0.2,0.2,0.4s-0.1,0.3-0.2,0.4
			c-1.5,1.3-2.4,3.5-2.4,5.7c0,2.2,0.9,4.3,2.7,6.2c1.8,1.8,3.9,2.7,6.1,2.7c2.1,0,4.3-0.9,5.7-2.4c0.1-0.1,0.2-0.2,0.4-0.2
			c0.1,0,0.3,0.1,0.4,0.2c1.7,2.4,4.2,3.7,7.3,3.7V478.2z"/>
	</g>
</g>
</svg>
