<?xml version="1.0" encoding="utf-8"?>
<!-- Generator: Adobe Illustrator 19.1.0, SVG Export Plug-In . SVG Version: 6.00 Build 0)  -->
<svg version="1.1" id="Layer_1" xmlns="http://www.w3.org/2000/svg" xmlns:xlink="http://www.w3.org/1999/xlink" x="0px" y="0px"
	 viewBox="0 0 64 64" style="enable-background:new 0 0 64 64;" xml:space="preserve">
<style type="text/css">
	.st0{fill:#010101;}
	.st1{fill-rule:evenodd;clip-rule:evenodd;fill:none;}
	.st2{fill-rule:evenodd;clip-rule:evenodd;fill:none;stroke:#000000;stroke-linejoin:round;stroke-miterlimit:3.8637;}
</style>
<path class="st0" d="M4,21h56V11H4V21z M20,53V23H4v30H20z M22,23v30h38V23H22z M64,7v50H0V7H64z M28,43h26v2H28V43z M28,47h26v2H28
	V47z M28,29h18v2H28V29z M28,35h26v2H28V35z M28,39h26v2H28V39z M8,15h18v2H8V15z M8,41h8v2H8V41z M8,29h8v2H8V29z M8,35h8v2H8V35z"
	/>
</svg>
