<?xml version="1.0" encoding="utf-8"?>
<!-- Generator: Adobe Illustrator 19.1.0, SVG Export Plug-In . SVG Version: 6.00 Build 0)  -->
<svg version="1.1" id="Layer_1" xmlns="http://www.w3.org/2000/svg" xmlns:xlink="http://www.w3.org/1999/xlink" x="0px" y="0px"
	 viewBox="0 0 64 64" style="enable-background:new 0 0 64 64;" xml:space="preserve">
<style type="text/css">
	.st0{fill:#010101;}
	.st1{fill-rule:evenodd;clip-rule:evenodd;fill:none;}
</style>
<path d="M6.7,23.3c0-8.7,7-15.7,15.7-15.7c6.9,0,12.8,4.5,14.9,10.7c1.6-0.8,3.3-1.2,5.2-1.2c6.5,0,11.7,5.2,11.7,11.7
	c0,1.2-0.2,2.3-0.5,3.4c5.5,1.2,9.6,6.1,9.6,12c0,6.8-5.5,12.2-12.2,12.2H14.4c-7.5,0-13.7-6.1-13.7-13.7c0-5.4,3.2-10.1,7.7-12.3
	C7.3,28.3,6.7,25.9,6.7,23.3z M22.4,8.9C14.5,8.9,8,15.3,8,23.3c0,2.4,0.6,4.6,1.6,6.6l0.6,1.1L9,31.6c-4.2,2-7,6.3-7,11.2
	c0,6.9,5.6,12.4,12.4,12.4H51c6.1,0,11-4.9,11-11c0-5.3-3.7-9.6-8.6-10.7l-1.3-0.3l0.4-1.3c0.3-1,0.5-2,0.5-3.1
	c0-5.8-4.7-10.4-10.4-10.4c-1.7,0-3.2,0.4-4.6,1.1L36.6,20l-0.5-1.4C34.2,13,28.8,8.9,22.4,8.9z M30.6,47.6l1.5,1.3h-6.4
	c-1.5,0-2.9-1-3.3-2.4L19.6,37h-5.6l12.3-10.9L38,37h-5.3v6.3h-3.3l6.4,5.4l6.4-5.4h-3.5l3.2-10.7C42,32.3,42,32,42,31.7
	c0-1.6-1.3-2.8-2.8-2.8h-8.1l-1.3-1.3h9.4c2.2,0,4.1,1.8,4.1,4.1c0,0.4-0.1,0.8-0.2,1.2L40.3,42h5.2l-9.8,8.3L25.9,42h5.5v-6.3h3.4
	l-8.4-7.9l-9,7.9h3.2l3.1,10.4c0.3,0.9,1.1,1.5,2.1,1.5H30.6z"/>
</svg>
