<?xml version="1.0" encoding="utf-8"?>
<!-- Generator: Adobe Illustrator 19.1.0, SVG Export Plug-In . SVG Version: 6.00 Build 0)  -->
<svg version="1.1" id="Layer_1" xmlns="http://www.w3.org/2000/svg" xmlns:xlink="http://www.w3.org/1999/xlink" x="0px" y="0px"
	 viewBox="0 0 64 64" style="enable-background:new 0 0 64 64;" xml:space="preserve">
<style type="text/css">
	.st0{fill:none;}
	.st1{fill:#010101;}
</style>
<g>
	<polygon class="st0" points="1.6,1.6 62.4,1.6 62.4,62.4 1.6,62.4 1.6,1.6 	"/>
	<path d="M32,14c4.4,2.7,9.7,3.5,14.8,3.2v15.7c0,8.5-7.4,14.8-14.8,17.2c-7.4-2.4-14.8-8.7-14.8-17.2V17.2
		C22.3,17.5,27.6,16.7,32,14z M45.3,18.8c-4.5,0.1-9.2-0.7-13.3-3c-4.1,2.3-8.8,3.1-13.3,3v14c0,7.3,6.4,13.1,13.3,15.6
		c6.9-2.4,13.3-8.2,13.3-15.6V18.8z M37,32.4l-3.9,3.9l2.8,2.8c1.1,1.1,2.8,1.1,3.9,0c1.1-1.1,1.1-2.8,0-3.9L37,32.4z M27,30.2
		l3.9-3.9l-2.8-2.8c-1.1-1.1-2.8-1.1-3.9,0c-1.1,1.1-1.1,2.8,0,3.9L27,30.2z M23.1,34.1l2.8-2.8l-2.8-2.8c-1.7-1.7-1.7-4.4,0-6.1
		c1.7-1.7,4.4-1.7,6.1,0l2.8,2.8l2.8-2.8c1.7-1.7,4.4-1.7,6.1,0c1.7,1.7,1.7,4.4,0,6.1l-2.8,2.8l2.8,2.8c1.7,1.7,1.7,4.4,0,6.1
		c-1.7,1.7-4.4,1.7-6.1,0L32,37.3l-2.8,2.8c-1.7,1.7-4.4,1.7-6.1,0C21.4,38.5,21.4,35.8,23.1,34.1z M37,30.2l2.8-2.8
		c1.1-1.1,1.1-2.8,0-3.9c-1.1-1.1-2.8-1.1-3.9,0l-2.8,2.8L37,30.2z M32,35.1l3.9-3.9L32,27.4l-3.9,3.9L32,35.1z M24.2,35.2
		c-1.1,1.1-1.1,2.8,0,3.9c1.1,1.1,2.8,1.1,3.9,0l2.8-2.8L27,32.4L24.2,35.2z M36.7,35.2c0-0.4,0.3-0.8,0.8-0.8
		c0.4,0,0.8,0.3,0.8,0.8c0,0.4-0.3,0.8-0.8,0.8C37,36,36.7,35.6,36.7,35.2z M37.5,37.5c0-0.4,0.3-0.8,0.8-0.8c0.4,0,0.8,0.3,0.8,0.8
		c0,0.4-0.3,0.8-0.8,0.8C37.8,38.3,37.5,37.9,37.5,37.5z M35.1,36.7c0-0.4,0.3-0.8,0.8-0.8s0.8,0.3,0.8,0.8c0,0.4-0.3,0.8-0.8,0.8
		S35.1,37.2,35.1,36.7z M26.5,25c0,0.4-0.3,0.8-0.8,0.8S25,25.5,25,25s0.3-0.8,0.8-0.8S26.5,24.6,26.5,25z M28.9,25.8
		c0,0.4-0.3,0.8-0.8,0.8s-0.8-0.3-0.8-0.8s0.3-0.8,0.8-0.8S28.9,25.4,28.9,25.8z M27.3,27.4c0,0.4-0.3,0.8-0.8,0.8s-0.8-0.3-0.8-0.8
		s0.3-0.8,0.8-0.8S27.3,26.9,27.3,27.4z M38.2,25.8c-0.4,0-0.8-0.3-0.8-0.8s0.3-0.8,0.8-0.8c0.4,0,0.8,0.3,0.8,0.8
		S38.7,25.8,38.2,25.8z M37.5,28.1c-0.4,0-0.8-0.3-0.8-0.8s0.3-0.8,0.8-0.8c0.4,0,0.8,0.3,0.8,0.8S37.9,28.1,37.5,28.1z M35.9,26.6
		c-0.4,0-0.8-0.3-0.8-0.8s0.3-0.8,0.8-0.8s0.8,0.3,0.8,0.8S36.3,26.6,35.9,26.6z M25.8,36.7c0.4,0,0.8,0.3,0.8,0.8
		c0,0.4-0.3,0.8-0.8,0.8S25,37.9,25,37.5C25,37.1,25.3,36.7,25.8,36.7z M26.5,34.4c0.4,0,0.8,0.3,0.8,0.8c0,0.4-0.3,0.8-0.8,0.8
		s-0.8-0.3-0.8-0.8C25.8,34.7,26.1,34.4,26.5,34.4z M28.1,36c0.4,0,0.8,0.3,0.8,0.8c0,0.4-0.3,0.8-0.8,0.8s-0.8-0.3-0.8-0.8
		C27.3,36.3,27.7,36,28.1,36z M57.8,31.7l-3.6-3.6l-1.1,1.1l5.5,5.5l5.5-5.5l-1.1-1.1l-3.6,3.6C59.1,16.7,47,4.7,32,4.7
		c-13.3,0-24.4,9.5-26.8,22.2l1.4,1.4C8.4,15.8,19.1,6.2,32,6.2C46.1,6.2,57.6,17.6,57.8,31.7z M9.8,35.9l1.1-1.1l-5.5-5.5L0,34.8
		l1.1,1.1l3.6-3.6c0.2,14.9,12.3,27,27.3,27c13.3,0,24.4-9.5,26.8-22.2l-1.4-1.4C55.6,48.2,44.9,57.8,32,57.8
		c-14.1,0-25.6-11.4-25.8-25.4L9.8,35.9z"/>
</g>
</svg>
