<?xml version="1.0" encoding="utf-8"?>
<!-- Generator: Adobe Illustrator 19.1.0, SVG Export Plug-In . SVG Version: 6.00 Build 0)  -->
<svg version="1.1" id="Layer_1" xmlns="http://www.w3.org/2000/svg" xmlns:xlink="http://www.w3.org/1999/xlink" x="0px" y="0px"
	 viewBox="0 0 64 64" style="enable-background:new 0 0 64 64;" xml:space="preserve">
<style type="text/css">
	.st0{fill-rule:evenodd;clip-rule:evenodd;fill:none;}
	.st1{fill:#010101;}
</style>
<g>
	<rect x="-1.6" y="-1.6" class="st0" width="67.3" height="67.3"/>
	<path d="M14.8,62.2v-7.4l-8.6-8.6V28.6h6v12.6l2.6-2.6l10.3,10.3v13.3h-1.7V49.6L14.8,41L13,42.8l5.9,5.9l-1.2,1.2l-7.2-7.2V30.3
		H7.9v15.2l8.6,8.6v8.1H14.8z M38.9,62.2V48.9l10.3-10.3l2.6,2.6V28.6h6v17.6l-8.6,8.6v7.4h-1.7v-8.1l8.6-8.6V30.3h-2.6v12.4
		l-7.2,7.2l-1.2-1.2l5.9-5.9L49.2,41l-8.6,8.6v12.6H38.9z M23.9,8.7l0.3-1.1c0.1-0.2,0.1-0.4,0.1-0.6c0-1.4-1.2-2.6-2.6-2.6
		c-1.4,0-2.6,1.2-2.6,2.6v1.7H23.9z M25.1,35.4h17.2c1.4,0,2.6-1.2,2.6-2.6l0-1.7H26v1.7C26,33.8,25.6,34.7,25.1,35.4z M21.7,2.7
		h20.7c2.4,0,4.3,1.9,4.3,4.3c0,0.4,0,0.7-0.1,1.1l-5.9,21.3h6l0,3.4c0,2.4-1.9,4.3-4.3,4.3H21.7c-2.4,0-4.3-1.9-4.3-4.3
		c0-0.4,0-0.7,0.1-1.1l5.9-21.3h-6V7C17.3,4.6,19.3,2.7,21.7,2.7z M38.8,29.4l6-21.8c0.1-0.2,0.1-0.4,0.1-0.6c0-1.4-1.2-2.6-2.6-2.6
		H25.1C25.6,5.1,26,6,26,7c0,0.4,0,0.7-0.1,1.1l-6.7,24.1c-0.1,0.2-0.1,0.4-0.1,0.6c0,1.4,1.2,2.6,2.6,2.6c1.4,0,2.6-1.2,2.6-2.6
		v-3.4H38.8z M24.5,19.9l2.6-3.4h2.2l-2.6,3.4l2.6,3.4H27L24.5,19.9z M37,16.5l2.6,3.4L37,23.4h-2.2l2.6-3.4l-2.6-3.4H37z
		 M32.4,14.8h1.8l-2.6,10.3h-1.8L32.4,14.8z"/>
</g>
</svg>
