<?xml version="1.0" encoding="utf-8"?>
<!-- Generator: Adobe Illustrator 19.1.0, SVG Export Plug-In . SVG Version: 6.00 Build 0)  -->
<svg version="1.1" id="Layer_1" xmlns="http://www.w3.org/2000/svg" xmlns:xlink="http://www.w3.org/1999/xlink" x="0px" y="0px"
	 viewBox="0 0 64 64" style="enable-background:new 0 0 64 64;" xml:space="preserve">
<style type="text/css">
	.st0{fill:#010101;}
	.st1{fill-rule:evenodd;clip-rule:evenodd;fill:none;}
	.st2{fill:none;}
	.st3{fill:#020202;}
</style>
<rect x="3.2" y="-4.6" class="st1" width="67.9" height="67.9"/>
<path d="M17.4,27.2v2.7h-1.8v-2.7c0-8.8,7.2-16,16-16c7.6,0,13.9,5.3,15.6,12.3h-4.7l7.9,6.7l7.9-6.7h-3.6
	C52.8,13.4,44,5.7,33.4,5.7c-11.9,0-21.5,9.6-21.5,21.5v2.7h-1.8v-2.7c0-12.9,10.4-23.3,23.3-23.3c11,0,20.2,7.6,22.7,17.8h7
	l-12.8,11l-12.8-11h7.1c-2.1-5.1-7.2-8.7-13.1-8.7C23.7,13,17.4,19.4,17.4,27.2z M64,48.2H36.6V38.2H64V48.2z M62.2,46.4V40H38.4
	v6.4H62.2z M56.7,43.2c0-0.8,0.6-1.4,1.4-1.4c0.8,0,1.4,0.6,1.4,1.4c0,0.8-0.6,1.4-1.4,1.4C57.3,44.6,56.7,44,56.7,43.2z M32.9,15.3
	v44.8h-1.8V15.3H32.9z M64,60.1H36.6V50.1H64V60.1z M62.2,58.3v-6.4H38.4v6.4H62.2z M56.7,55.1c0-0.8,0.6-1.4,1.4-1.4
	c0.8,0,1.4,0.6,1.4,1.4c0,0.8-0.6,1.4-1.4,1.4C57.3,56.5,56.7,55.8,56.7,55.1z M27.4,48.2H0V38.2h27.4V48.2z M25.6,46.4V40H1.8v6.4
	H25.6z M20.1,43.2c0-0.8,0.6-1.4,1.4-1.4s1.4,0.6,1.4,1.4c0,0.8-0.6,1.4-1.4,1.4S20.1,44,20.1,43.2z M27.4,60.1H0V50.1h27.4V60.1z
	 M25.6,58.3v-6.4H1.8v6.4H25.6z M20.1,55.1c0-0.8,0.6-1.4,1.4-1.4s1.4,0.6,1.4,1.4c0,0.8-0.6,1.4-1.4,1.4S20.1,55.8,20.1,55.1z
	 M25.6,34.5v-6.4h-6.4v-0.9c0-0.3,0-0.6,0-0.9h8.2v10.1H0V26.3h8.2c0,0.3,0,0.6,0,0.9v0.9H1.8v6.4H25.6z M20.1,31.3
	c0-0.8,0.6-1.4,1.4-1.4s1.4,0.6,1.4,1.4c0,0.8-0.6,1.4-1.4,1.4S20.1,32.1,20.1,31.3z M62.2,34.5v-6.4h-3.7l2.1-1.8H64v10.1H36.6
	V26.3H40l2.1,1.8h-3.7v6.4H62.2z M56.7,31.3c0-0.8,0.6-1.4,1.4-1.4c0.8,0,1.4,0.6,1.4,1.4c0,0.8-0.6,1.4-1.4,1.4
	C57.3,32.7,56.7,32.1,56.7,31.3z"/>
</svg>
