<?xml version="1.0" encoding="utf-8"?>
<!-- Generator: Adobe Illustrator 19.1.0, SVG Export Plug-In . SVG Version: 6.00 Build 0)  -->
<svg version="1.1" id="Layer_1" xmlns="http://www.w3.org/2000/svg" xmlns:xlink="http://www.w3.org/1999/xlink" x="0px" y="0px"
	 viewBox="0 0 64 64" style="enable-background:new 0 0 64 64;" xml:space="preserve">
<style type="text/css">
	.st0{fill:#010101;}
</style>
<path d="M50.1,11.5H13.9v26.3h36.1V11.5z M12.3,9.8h39.4v29.5H12.3V9.8z M33.6,26.3h13.1v8.2H33.6V26.3z M45.1,27.9h-9.8v4.9h9.8
	V27.9z M28.7,16.4h-9.8v4.9h9.8V16.4z M17.2,14.8h13.1V23H17.2V14.8z M45.1,16.4h-9.8v4.9h9.8V16.4z M33.6,14.8h13.1V23H33.6V14.8z
	 M28.7,27.9h-9.8v4.9h9.8V27.9z M17.2,26.3h13.1v8.2H17.2V26.3z M50.1,44.3H13.9v8.2h36.1V44.3z M12.3,42.7h39.4v11.5H12.3V42.7z
	 M41.8,48.4c0-1.4,1.1-2.5,2.5-2.5c1.4,0,2.5,1.1,2.5,2.5s-1.1,2.5-2.5,2.5C42.9,50.9,41.8,49.8,41.8,48.4z"/>
<path d="M0,0h64v64H0V0z M62.4,62.4V1.6H1.6v60.7H62.4z"/>
</svg>
