<?xml version="1.0" encoding="utf-8"?>
<!-- Generator: Adobe Illustrator 19.1.0, SVG Export Plug-In . SVG Version: 6.00 Build 0)  -->
<svg version="1.1" id="Layer_1" xmlns="http://www.w3.org/2000/svg" xmlns:xlink="http://www.w3.org/1999/xlink" x="0px" y="0px"
	 viewBox="0 0 64 64" style="enable-background:new 0 0 64 64;" xml:space="preserve">
<style type="text/css">
	.st0{fill:#010101;}
</style>
<path class="st0" d="M30,6C14.5,6,2,18.5,2,34c0,15.5,12.5,28,28,28c15.5,0,28-12.5,28-28c0-4.9-1.3-9.6-3.5-13.6l1.5-1.5
	C58.5,23.3,60,28.5,60,34c0,16.6-13.4,30-30,30C13.4,64,0,50.6,0,34C0,17.4,13.4,4,30,4c5.5,0,10.7,1.5,15.1,4.1l-1.5,1.5
	C39.6,7.3,34.9,6,30,6z M30,54c11,0,20-9,20-20c0-4.5-1.5-8.7-4-12.1l1.4-1.4C50.3,24.2,52,28.9,52,34c0,12.2-9.8,22-22,22
	S8,46.2,8,34s9.8-22,22-22c5.1,0,9.8,1.7,13.5,4.6L42.1,18c-3.4-2.5-7.5-4-12.1-4c-11,0-20,9-20,20S19,54,30,54z M30,22
	c-6.6,0-12,5.4-12,12c0,6.6,5.4,12,12,12c6.6,0,12-5.4,12-12c0-2.3-0.7-4.5-1.8-6.3l1.4-1.4c1.5,2.2,2.3,4.9,2.3,7.8
	c0,7.7-6.3,14-14,14c-7.7,0-14-6.3-14-14s6.3-14,14-14c2.9,0,5.5,0.9,7.8,2.3l-1.4,1.4C34.5,22.7,32.3,22,30,22z M30,38
	c2.2,0,4-1.8,4-4l1.7-1.8c0.2,0.6,0.3,1.2,0.3,1.8c0,3.3-2.7,6-6,6c-3.3,0-6-2.7-6-6c0-3.3,2.7-6,6-6c0.6,0,1.3,0.1,1.8,0.3L30.1,30
	c-2.3,0-4.1,1.8-4.1,4S27.8,38,30,38z M48.4,17h3.8l7-7h-3.8L48.4,17z M54,4.8l-7,7v3.8l7-7V4.8z M56,0v6.6l2.3-2.3l1.4,1.4L57.4,8
	H64L53,19h-6.6L30.7,34.7c-0.4,0.4-1,0.4-1.4,0c-0.4-0.4-0.4-1,0-1.4L45,17.6V11L56,0z"/>
</svg>
