<?xml version="1.0" encoding="utf-8"?>
<!-- Generator: Adobe Illustrator 19.1.0, SVG Export Plug-In . SVG Version: 6.00 Build 0)  -->
<svg version="1.1" id="Layer_1" xmlns="http://www.w3.org/2000/svg" xmlns:xlink="http://www.w3.org/1999/xlink" x="0px" y="0px"
	 viewBox="0 0 64 64" style="enable-background:new 0 0 64 64;" xml:space="preserve">
<style type="text/css">
	.st0{fill-rule:evenodd;clip-rule:evenodd;fill:none;}
	.st1{fill:none;}
	.st2{fill:#010101;}
	.st3{fill:#020202;}
</style>
<path d="M42.4,31.3l-25,27.5c-3.6,4-9.2,4.3-12.8,0.7C1,55.8,1.3,50.2,5.3,46.6l27.5-25c-2.1-5.7-0.8-12.3,3.8-16.9
	c5.2-5.2,13.2-6.1,19.3-2.6l-9.5,9.5c-1.7,1.7-1.7,4.4,0,6.1c1.7,1.7,4.4,1.7,6.1,0l9.5-9.5c3.5,6.1,2.6,14.1-2.6,19.3
	C54.7,32.1,48.1,33.3,42.4,31.3z M15.8,57.3l26-28.6c5.2,2.5,11.6,1.6,16-2.7c3.8-3.8,5-9.3,3.4-14.1L54,19.2
	c-2.5,2.5-6.6,2.5-9.1,0c-2.5-2.5-2.5-6.6,0-9.1l7.3-7.3C47.3,1.3,41.8,2.4,38,6.2c-4.3,4.3-5.2,10.7-2.7,16l-28.6,26
	c-3.2,2.9-3.3,7.1-0.6,9.7C8.7,60.6,12.9,60.5,15.8,57.3z M10.7,54.5c0.6,0,1.1-0.5,1.1-1.1c0-0.6-0.5-1.1-1.1-1.1
	c-0.6,0-1.1,0.5-1.1,1.1C9.5,54,10,54.5,10.7,54.5z M13.9,53.3c0,1.8-1.5,3.3-3.3,3.3c-1.8,0-3.3-1.5-3.3-3.3c0-1.8,1.5-3.3,3.3-3.3
	C12.5,50.1,13.9,51.5,13.9,53.3z M50.1,10.8c1.1,0.9,2.1,2,3.1,3.1l-1.5,1.5c-0.9-1.1-2-2.1-3.1-3.1L50.1,10.8z M6.2,42.8l-4.1,0.6
	c-0.9-2.1-1.4-4.1-1.7-6.4l3.9-1.4c-0.1-0.8-0.2-1.5-0.2-2.3L0,32.6c-0.1-2.3,0.1-4.4,0.6-6.6l4.1,0c0.2-0.8,0.4-1.5,0.6-2.2
	l-3.5-2.1c0.7-2.2,1.6-4.1,2.8-6L8.5,17c0.4-0.7,0.9-1.3,1.3-1.9l-2.6-3.2c1.4-1.8,2.9-3.3,4.7-4.7L15,9.9c0.6-0.5,1.2-0.9,1.9-1.3
	l-1.4-3.9c2-1.2,3.8-2.1,6-2.8l2.1,3.5c0.7-0.2,1.5-0.4,2.2-0.6l0-4.1c2.3-0.5,4.3-0.7,6.6-0.6l0.7,4l0.8,0
	c-0.6,0.7-1.1,1.4-1.6,2.1c-0.3,0-0.7,0-1,0l-0.7-4.1c-0.9,0-1.8,0.1-2.7,0.2l0,4.1c-1.8,0.3-3.6,0.8-5.3,1.4l-2.1-3.6
	c-0.8,0.3-1.7,0.7-2.5,1.1l1.4,3.9c-1.6,1-3.1,2-4.5,3.2L11.8,10c-0.7,0.6-1.3,1.2-1.9,1.9l2.6,3.2c-1.2,1.4-2.2,2.9-3.2,4.5
	l-3.9-1.4C5,19,4.6,19.8,4.3,20.7l3.6,2.1c-0.6,1.8-1.1,3.5-1.4,5.3l-4.1,0c-0.2,0.9-0.2,1.8-0.2,2.7l4.1,0.7c0,1.9,0.2,3.6,0.5,5.5
	l-3.9,1.4c0.2,0.9,0.4,1.8,0.7,2.6l4.1-0.7l0.4,0.9L6.2,42.8z M62.2,42.5c-0.7,2.2-1.6,4.1-2.8,6l-3.9-1.4c-0.4,0.6-0.9,1.3-1.3,1.9
	l2.6,3.2c-1.4,1.8-2.9,3.3-4.7,4.7l-3.2-2.6c-0.6,0.5-1.2,0.9-1.9,1.3l1.4,3.9c-2,1.2-3.8,2.1-6,2.8l-2.1-3.5
	c-0.7,0.2-1.5,0.4-2.2,0.6l0,4.1c-2.3,0.5-4.3,0.7-6.6,0.6l-0.7-4.1c-0.8,0-1.5-0.1-2.3-0.2l-1.4,3.9c-2.3-0.3-4.3-0.8-6.4-1.7
	l0.7-4.1l1.5-1.7l0.9,0.4l-0.7,4.1c0.9,0.3,1.7,0.5,2.6,0.7l1.4-3.9c1.8,0.3,3.6,0.5,5.5,0.5l0.7,4.1c0.9,0,1.8-0.1,2.7-0.2l0-4.1
	c1.8-0.3,3.6-0.8,5.3-1.4l2.1,3.6c0.8-0.3,1.7-0.7,2.5-1.1l-1.4-3.9c1.6-1,3.1-2,4.5-3.2l3.2,2.6c0.7-0.6,1.3-1.2,1.9-1.9L51.4,49
	c1.2-1.4,2.2-2.9,3.2-4.5l3.9,1.4c0.4-0.8,0.8-1.6,1.1-2.5L56,41.3c0.6-1.8,1.1-3.5,1.4-5.3l4.1,0c0.2-0.9,0.2-1.8,0.2-2.7l-4.1-0.7
	c0-0.3,0-0.7,0-1c0.7-0.5,1.4-1,2.1-1.5l0,0.8l4.1,0.7c0.1,2.3-0.1,4.4-0.6,6.6l-4.1,0c-0.2,0.8-0.4,1.5-0.6,2.2L62.2,42.5z
	 M14.2,35.6c-0.2-1.2-0.4-2.4-0.4-3.6c0-9.3,7-16.9,15.9-18c-0.1,0.7-0.1,1.4-0.1,2.2C21.9,17.3,15.9,24,15.9,32
	c0,0.6,0,1.3,0.1,1.9L14.2,35.6z M50,34.2c-1.1,9-8.7,15.9-18,15.9c-1.2,0-2.4-0.1-3.6-0.4l1.7-1.9c0.6,0.1,1.2,0.1,1.9,0.1
	c8.1,0,14.7-5.9,15.9-13.7C48.5,34.4,49.3,34.3,50,34.2z"/>
</svg>
