<?xml version="1.0" encoding="utf-8"?>
<!-- Generator: Adobe Illustrator 19.1.0, SVG Export Plug-In . SVG Version: 6.00 Build 0)  -->
<svg version="1.1" id="Layer_1" xmlns="http://www.w3.org/2000/svg" xmlns:xlink="http://www.w3.org/1999/xlink" x="0px" y="0px"
	 viewBox="0 0 64 64" style="enable-background:new 0 0 64 64;" xml:space="preserve">
<style type="text/css">
	.st0{fill:#010101;}
	.st1{fill-rule:evenodd;clip-rule:evenodd;fill:none;}
	.st2{fill-rule:evenodd;clip-rule:evenodd;fill:none;stroke:#000000;stroke-linejoin:round;stroke-miterlimit:3.8637;}
</style>
<path d="M40.5,17.5l6,6l-1.4,1.4l-2.3-2.3l-3.9,3.9l4.8,4.8l-1.4,1.4L40,30.4l-12,12l-2.5-2.5l-6.6,6.6l-1.4-1.4l6.6-6.6L21.6,36
	l12-12l-2.3-2.3l1.4-1.4l4.8,4.8l3.9-3.9l-2.3-2.3L40.5,17.5z M32.6,35L29,31.4L27.4,33l2.3,2.3l-1.4,1.4L26,34.4L24.4,36l3.6,3.6
	L32.6,35z M30.4,30l3.6,3.6l4.6-4.6L35,25.4L33.4,27l2.3,2.3l-1.4,1.4L32,28.4L30.4,30z"/>
</svg>
