<?xml version="1.0" encoding="utf-8"?>
<!-- Generator: Adobe Illustrator 19.1.0, SVG Export Plug-In . SVG Version: 6.00 Build 0)  -->
<svg version="1.1" id="Layer_1" xmlns="http://www.w3.org/2000/svg" xmlns:xlink="http://www.w3.org/1999/xlink" x="0px" y="0px"
	 viewBox="0 0 64 64" style="enable-background:new 0 0 64 64;" xml:space="preserve">
<style type="text/css">
	.st0{fill:#010101;}
	.st1{fill-rule:evenodd;clip-rule:evenodd;fill:none;}
	.st2{fill-rule:evenodd;clip-rule:evenodd;fill:none;stroke:#000000;stroke-linejoin:round;stroke-miterlimit:3.8637;}
</style>
<path d="M32,6.8c0.5,0,0.9,0,1.4,0V2.7h-2.7v4.1C31.1,6.8,31.5,6.8,32,6.8z M32,9.5C17.7,9.5,6.1,21.1,6.1,35.4
	c0,14.3,11.6,25.9,25.9,25.9c14.3,0,25.9-11.6,25.9-25.9C57.9,21.1,46.3,9.5,32,9.5z M58,15.2l-1.9-1.9l-2.9,2.9
	c4.6,5.1,7.4,11.8,7.4,19.2C60.6,51.2,47.8,64,32,64C16.2,64,3.4,51.2,3.4,35.4C3.4,21,14.1,9.1,27.9,7.1V2.7h-2.7V0h13.6v2.7h-2.7
	v4.4c5.8,0.8,11,3.4,15.1,7.2l2.9-2.9l-1.9-1.9l1.9-1.9l5.8,5.8L58,15.2z M53.8,35.4c0,12-9.8,21.8-21.8,21.8s-21.8-9.8-21.8-21.8
	c0-12,9.8-21.8,21.8-21.8S53.8,23.4,53.8,35.4z M51.1,35.4c0-10.5-8.5-19.1-19.1-19.1c-10.5,0-19.1,8.5-19.1,19.1S21.5,54.5,32,54.5
	C42.5,54.5,51.1,45.9,51.1,35.4z M19.7,26.7c0.7,0.4,0.9,1.2,0.5,1.9c-0.4,0.7-1.2,0.9-1.9,0.5c-0.6-0.4-0.9-1.2-0.5-1.9
	C18.2,26.6,19.1,26.4,19.7,26.7z M34.7,35.4c0-1.5-1.2-2.7-2.7-2.7c-1.5,0-2.7,1.2-2.7,2.7c0,1.5,1.2,2.7,2.7,2.7
	C33.5,38.1,34.7,36.9,34.7,35.4z M47,36.8l-9.7,0c-0.6,2.4-2.7,4.1-5.3,4.1c-3,0-5.4-2.4-5.4-5.4c0-3,2.4-5.4,5.4-5.4
	c2.5,0,4.7,1.7,5.3,4.1H47c0.8,0,1.4,0.6,1.4,1.4C48.3,36.2,47.7,36.8,47,36.8z M30.6,20.4c0-0.8,0.6-1.4,1.4-1.4
	c0.8,0,1.4,0.6,1.4,1.4s-0.6,1.4-1.4,1.4C31.2,21.8,30.6,21.2,30.6,20.4z M30.6,50.4c0-0.8,0.6-1.4,1.4-1.4c0.8,0,1.4,0.6,1.4,1.4
	s-0.6,1.4-1.4,1.4C31.2,51.7,30.6,51.1,30.6,50.4z M17,34c0.8,0,1.4,0.6,1.4,1.4s-0.6,1.4-1.4,1.4c-0.8,0-1.4-0.6-1.4-1.4
	S16.3,34,17,34z M23.3,23.1c-0.4-0.6-0.2-1.5,0.5-1.9c0.7-0.4,1.5-0.2,1.9,0.5c0.4,0.7,0.2,1.5-0.5,1.9C24.5,24,23.7,23.8,23.3,23.1
	z M38.3,49.1c-0.4-0.7-0.2-1.5,0.5-1.9c0.7-0.4,1.5-0.2,1.9,0.5c0.4,0.7,0.2,1.5-0.5,1.9C39.5,49.9,38.7,49.7,38.3,49.1z M44.3,26.7
	c0.7-0.4,1.5-0.2,1.9,0.5c0.4,0.7,0.2,1.5-0.5,1.9c-0.7,0.4-1.5,0.2-1.9-0.5C43.4,27.9,43.6,27.1,44.3,26.7z M18.3,41.7
	c0.7-0.4,1.5-0.2,1.9,0.5c0.4,0.7,0.2,1.5-0.5,1.9c-0.6,0.4-1.5,0.2-1.9-0.5C17.5,42.9,17.7,42.1,18.3,41.7z M38.3,21.8
	c0.4-0.6,1.2-0.9,1.9-0.5c0.7,0.4,0.9,1.2,0.5,1.9c-0.4,0.7-1.2,0.9-1.9,0.5C38.2,23.2,37.9,22.4,38.3,21.8z M23.3,47.7
	c0.4-0.7,1.2-0.9,1.9-0.5c0.7,0.4,0.9,1.2,0.5,1.9c-0.4,0.7-1.2,0.9-1.9,0.5C23.2,49.2,23,48.3,23.3,47.7z M45.7,41.7
	c0.7,0.4,0.9,1.2,0.5,1.9c-0.4,0.7-1.2,0.9-1.9,0.5c-0.7-0.4-0.9-1.2-0.5-1.9C44.2,41.6,45,41.3,45.7,41.7z"/>
</svg>
