<?xml version="1.0" encoding="utf-8"?>
<!-- Generator: Adobe Illustrator 19.1.0, SVG Export Plug-In . SVG Version: 6.00 Build 0)  -->
<svg version="1.1" id="Layer_1" xmlns="http://www.w3.org/2000/svg" xmlns:xlink="http://www.w3.org/1999/xlink" x="0px" y="0px"
	 viewBox="0 0 64 64" style="enable-background:new 0 0 64 64;" xml:space="preserve">
<style type="text/css">
	.st0{fill:#010101;}
</style>
<path class="st0" d="M13.2,14.8C14.7,8,20.7,3,27.9,3c6,0,11.1,3.5,13.5,8.5c1-0.3,2.1-0.5,3.1-0.5c4.4,0,8.1,2.6,9.9,6.2
	c4.3,0.7,7.6,4.4,7.6,8.9V28H2v-1.8C2,20,7,14.9,13.2,14.8z M4,26h56c-0.2-4-3.3-6.5-7-6.8c-1.5-3.6-4.4-6.1-8.5-6.1
	c-1.6,0-2.8,0.4-4.2,1C38.1,8.7,33.9,5,27.9,5C20.7,5,16,10.2,14.9,16.8l-1.5,0C8.3,16.8,4.1,20.9,4,26z M32,23c-2.8,0-5-2.2-5-5
	c0-2.8,2.2-5,5-5c2.8,0,5,2.2,5,5C37,20.8,34.8,23,32,23z M32,21c1.7,0,3-1.3,3-3s-1.3-3-3-3s-3,1.3-3,3S30.3,21,32,21z M0,59h64v2
	H0V59z M3,55h58v2H3V55z M12,51V32h-2v19H12z M14,32v19h2v2H6v-2h2V32H6v-2h10v2H14z M26,51V32h-2v19H26z M28,32v19h2v2H20v-2h2V32
	h-2v-2h10v2H28z M40,51V32h-2v19H40z M42,32v19h2v2H34v-2h2V32h-2v-2h10v2H42z M54,51V32h-2v19H54z M56,32v19h2v2H48v-2h2V32h-2v-2
	h10v2H56z"/>
</svg>
