<?xml version="1.0" encoding="utf-8"?>
<!-- Generator: Adobe Illustrator 19.1.0, SVG Export Plug-In . SVG Version: 6.00 Build 0)  -->
<svg version="1.1" id="Layer_1" xmlns="http://www.w3.org/2000/svg" xmlns:xlink="http://www.w3.org/1999/xlink" x="0px" y="0px"
	 viewBox="0 0 64 64" style="enable-background:new 0 0 64 64;" xml:space="preserve">
<style type="text/css">
	.st0{fill:#010101;}
	.st1{fill-rule:evenodd;clip-rule:evenodd;fill:none;}
	.st2{fill-rule:evenodd;clip-rule:evenodd;fill:none;stroke:#000000;stroke-linejoin:round;stroke-miterlimit:3.8637;}
</style>
<path d="M49,15.2c-5.8,0.1-11.8-1-17-3.9c-5.2,2.9-11.2,4-17,3.9v17.8c0,9.4,8.1,16.8,17,19.9c8.9-3.1,17-10.5,17-19.9V15.2z M32,9
	c5.6,3.5,12.5,4.5,19,4.1v19.8c0,10.9-9.5,19-19,22.1c-9.5-3.1-19-11.2-19-22.1V13.1C19.5,13.5,26.4,12.5,32,9z M23,28h3v-5
	c0-3.3,2.7-6,6-6c3.3,0,6,2.7,6,6v5h3v15H23V28z M28,28h8v-5c0-2.2-1.8-4-4-4s-4,1.8-4,4V28z M39,30H25v11h14V30z"/>
</svg>
