<?xml version="1.0" encoding="utf-8"?>
<!-- Generator: Adobe Illustrator 19.1.0, SVG Export Plug-In . SVG Version: 6.00 Build 0)  -->
<svg version="1.1" id="Layer_1" xmlns="http://www.w3.org/2000/svg" xmlns:xlink="http://www.w3.org/1999/xlink" x="0px" y="0px"
	 viewBox="0 0 64 64" style="enable-background:new 0 0 64 64;" xml:space="preserve">
<style type="text/css">
	.st0{fill:#010101;}
</style>
<path class="st0" d="M42.9,0l19.9,7.5V64H1.2V7.5L21.1,0H42.9z M14.5,39l-11-4.9V46L14.5,39z M60.4,59.5L32,46.8L3.6,59.5v2.1h56.9
	V59.5z M60.4,48.8l-13.6-8.6l-12,5.3l25.5,11.4V48.8z M49.5,39l11,7V34.1L49.5,39z M43.7,2.9C42.9,8.6,38,13,32,13
	c-6,0-10.9-4.4-11.7-10.2L3.6,9.1v22.4l13.4,6l12.9-8.2L14,19.2l1.3-2L32,27.9l16.8-10.7l1.3,2L3.6,48.8v8.1l56.9-25.4V9.1L43.7,2.9
	z M22.6,2.4c0.6,4.7,4.6,8.3,9.4,8.3c4.8,0,8.8-3.6,9.4-8.3H22.6z"/>
</svg>
