<?xml version="1.0" encoding="utf-8"?>
<!-- Generator: Adobe Illustrator 19.1.0, SVG Export Plug-In . SVG Version: 6.00 Build 0)  -->
<svg version="1.1" id="Layer_1" xmlns="http://www.w3.org/2000/svg" xmlns:xlink="http://www.w3.org/1999/xlink" x="0px" y="0px"
	 viewBox="0 0 64 64" style="enable-background:new 0 0 64 64;" xml:space="preserve">
<style type="text/css">
	.st0{fill:#010101;}
	.st1{fill-rule:evenodd;clip-rule:evenodd;fill:none;}
	.st2{fill-rule:evenodd;clip-rule:evenodd;fill:none;stroke:#000000;stroke-linejoin:round;stroke-miterlimit:3.8637;}
</style>
<path d="M32,42c-0.6,0-1,0.4-1,1v1H20V20h24v24H33v-1C33,42.4,32.6,42,32,42z M22,27h2v-3h3v-2h-5V27z M40,30h2v-2h-2V30z M22,30h2
	v-2h-2V30z M40,33h2v-2h-2V33z M22,33h2v-2h-2V33z M40,36h2v-2h-2V36z M24,37h-2v5h7.2c0.4-1.2,1.5-2,2.8-2c1.3,0,2.4,0.8,2.8,2H42
	v-5h-2v3h-4c-0.9-1.2-2.3-2-3.9-2l5.9,0V26H26v12l5.9,0c-1.6,0-3,0.8-3.9,2h-4V37z M22,36h2v-2h-2V36z M37,22v2h3v3h2v-5H37z M34,22
	v2h2v-2H34z M30,24v-2h-2v2H30z M31,22v2h2v-2H31z M36,36h-8v-8h8V36z"/>
</svg>
