<?xml version="1.0" encoding="utf-8"?>
<!-- Generator: Adobe Illustrator 19.1.0, SVG Export Plug-In . SVG Version: 6.00 Build 0)  -->
<svg version="1.1" id="Layer_1" xmlns="http://www.w3.org/2000/svg" xmlns:xlink="http://www.w3.org/1999/xlink" x="0px" y="0px"
	 viewBox="0 0 64 64" style="enable-background:new 0 0 64 64;" xml:space="preserve">
<style type="text/css">
	.st0{fill:#010101;}
</style>
<path d="M32.8,39.7V44c1.4,0.4,2.5,1.6,2.5,3.2c0,1.8-1.5,3.3-3.3,3.3c-1.8,0-3.3-1.5-3.3-3.3c0-1.5,1-2.8,2.5-3.2v-4.3
	c-2.8-0.4-4.9-2.8-4.9-5.7c0-0.8,0.1-1.5,0.4-2.1l-7.1-4.1c-0.7,1.4-1.2,2.9-1.4,4.4l-3.9-8.4l9.3-0.8c-1.2,0.9-2.3,2.1-3.1,3.4
	l7.1,4.1c0.9-1.1,2.2-1.9,3.7-2.1v-8.2c-1.6,0.1-3.1,0.5-4.5,1l5.3-7.6l5.3,7.6c-1.4-0.6-2.9-0.9-4.5-1v8.2c1.5,0.2,2.8,1,3.7,2.1
	l7.1-4.1c-0.9-1.3-1.9-2.5-3.1-3.4l9.3,0.8l-3.9,8.4c-0.2-1.5-0.6-3-1.4-4.4l-7.1,4.1c0.3,0.7,0.4,1.4,0.4,2.1
	C37.7,36.9,35.6,39.3,32.8,39.7z M32,38.2c2.3,0,4.1-1.8,4.1-4.1s-1.8-4.1-4.1-4.1s-4.1,1.8-4.1,4.1S29.7,38.2,32,38.2z"/>
<path d="M0.3,0h64v64h-64V0z M62.7,62.4V1.6H2v60.7H62.7z"/>
</svg>
