<?xml version="1.0" encoding="utf-8"?>
<!-- Generator: Adobe Illustrator 19.1.0, SVG Export Plug-In . SVG Version: 6.00 Build 0)  -->
<svg version="1.1" id="Layer_1" xmlns="http://www.w3.org/2000/svg" xmlns:xlink="http://www.w3.org/1999/xlink" x="0px" y="0px"
	 viewBox="0 0 64 64" style="enable-background:new 0 0 64 64;" xml:space="preserve">
<style type="text/css">
	.st0{fill:#010101;}
	.st1{fill-rule:evenodd;clip-rule:evenodd;fill:none;}
	.st2{fill-rule:evenodd;clip-rule:evenodd;fill:none;stroke:#000000;stroke-linejoin:round;stroke-miterlimit:3.8637;}
</style>
<g>
	<rect y="0" class="st1" width="64" height="64"/>
	<path class="st0" d="M26.3,32h9.8v0.8h-9.8V32z M18.9,21.3v16.4h24.6V21.3H32.9l-1.2,0.8h11v14.8h-23V22.2h11l-1.2-0.8H18.9z
		 M36.4,18.9h9.6v40.2H16.4V18.9H26l-2.3-1.6h-8.9v43.5h32.8V17.2h-8.9L36.4,18.9z M27.9,25.4h6.6v4.9h-6.6V25.4z M28.7,29.5h4.9
		v-3.3h-4.9V29.5z M26.3,51.7h9.8v-0.8h-9.8V51.7z M18.9,40.2h24.6v16.4H18.9V40.2z M19.7,55.8h23V41h-23V55.8z M41.8,23.8
		c0-0.5-0.4-0.8-0.8-0.8c-0.5,0-0.8,0.4-0.8,0.8c0,0.5,0.4,0.8,0.8,0.8C41.5,24.6,41.8,24.2,41.8,23.8z M34.5,49.2h-6.6v-4.9h6.6
		V49.2z M33.6,45.1h-4.9v3.3h4.9V45.1z M24.6,9c0-3.6,2.9-6.6,6.6-6.6h11.5c3.6,0,6.6,2.9,6.6,6.6v3.3h-1.6V9c0-2.7-2.2-4.9-4.9-4.9
		c-2.7,0-4.9,2.2-4.9,4.9v1.6h7.4l-13.9,9.8l-13.9-9.8h7.4V9z M38.3,4.1h-7.1c-2.7,0-4.9,2.2-4.9,4.9v3.3h-3.9l8.8,6.2l8.8-6.2h-3.9
		V9C36.1,7.1,37,5.3,38.3,4.1z"/>
</g>
</svg>
