<?xml version="1.0" encoding="utf-8"?>
<!-- Generator: Adobe Illustrator 19.1.0, SVG Export Plug-In . SVG Version: 6.00 Build 0)  -->
<svg version="1.1" id="Layer_1" xmlns="http://www.w3.org/2000/svg" xmlns:xlink="http://www.w3.org/1999/xlink" x="0px" y="0px"
	 viewBox="0 0 64 64" style="enable-background:new 0 0 64 64;" xml:space="preserve">
<style type="text/css">
	.st0{fill-rule:evenodd;clip-rule:evenodd;fill:none;}
	.st1{fill:#010101;}
	.st2{font-family:'OpenSans';}
	.st3{font-size:5px;}
	.st4{fill-rule:evenodd;clip-rule:evenodd;fill:none;stroke:#000000;stroke-linejoin:round;stroke-miterlimit:3.8637;}
</style>
<rect x="-22.1" y="-9" class="st0" width="112" height="9"/>
<text transform="matrix(1 0 0 1 20.2708 -5.1975)" class="st1 st2 st3">BOLT GEAR</text>
<rect x="-102.9" y="-9" class="st0" width="112" height="9"/>
<text transform="matrix(1 0 0 1 -55.8476 -5.1994)" class="st2 st3">POWER</text>
<rect x="58.8" y="-9" class="st0" width="112" height="9"/>
<text transform="matrix(1 0 0 1 106.1805 -5.1975)" class="st2 st3">BOLT 3</text>
<path d="M55.8,42.2v-30H8.2v30H55.8z M7.5,43.6L3.9,49h56.2l-3.6-5.4H7.5z M61.3,50.4H2.7v1.4h58.6V50.4z M58.6,41.8L64,50v4.5H0V50
	l5.4-8.2V9.5h53.1V41.8z M51.7,47c0-0.4,0.3-0.7,0.7-0.7c0.4,0,0.7,0.3,0.7,0.7c0,0.4-0.3,0.7-0.7,0.7C52,47.7,51.7,47.4,51.7,47z
	 M54.5,47c0-0.4,0.3-0.7,0.7-0.7c0.4,0,0.7,0.3,0.7,0.7c0,0.4-0.3,0.7-0.7,0.7C54.8,47.7,54.5,47.4,54.5,47z M31.3,45.6
	c0-0.4,0.3-0.7,0.7-0.7c0.4,0,0.7,0.3,0.7,0.7c0,0.4-0.3,0.7-0.7,0.7C31.6,46.3,31.3,46,31.3,45.6z M28.6,45.6
	c0-0.4,0.3-0.7,0.7-0.7c0.4,0,0.7,0.3,0.7,0.7c0,0.4-0.3,0.7-0.7,0.7C28.9,46.3,28.6,46,28.6,45.6z M25.9,45.6
	c0-0.4,0.3-0.7,0.7-0.7c0.4,0,0.7,0.3,0.7,0.7c0,0.4-0.3,0.7-0.7,0.7C26.2,46.3,25.9,46,25.9,45.6z M23.1,45.6
	c0-0.4,0.3-0.7,0.7-0.7c0.4,0,0.7,0.3,0.7,0.7c0,0.4-0.3,0.7-0.7,0.7C23.5,46.3,23.1,46,23.1,45.6z M20.4,45.6
	c0-0.4,0.3-0.7,0.7-0.7c0.4,0,0.7,0.3,0.7,0.7c0,0.4-0.3,0.7-0.7,0.7C20.7,46.3,20.4,46,20.4,45.6z M17.7,45.6
	c0-0.4,0.3-0.7,0.7-0.7c0.4,0,0.7,0.3,0.7,0.7c0,0.4-0.3,0.7-0.7,0.7C18,46.3,17.7,46,17.7,45.6z M15,45.6c0-0.4,0.3-0.7,0.7-0.7
	c0.4,0,0.7,0.3,0.7,0.7c0,0.4-0.3,0.7-0.7,0.7C15.3,46.3,15,46,15,45.6z M12.3,45.6c0-0.4,0.3-0.7,0.7-0.7c0.4,0,0.7,0.3,0.7,0.7
	c0,0.4-0.3,0.7-0.7,0.7C12.6,46.3,12.3,46,12.3,45.6z M9.5,45.6c0-0.4,0.3-0.7,0.7-0.7c0.4,0,0.7,0.3,0.7,0.7c0,0.4-0.3,0.7-0.7,0.7
	C9.8,46.3,9.5,46,9.5,45.6z M34,45.6c0-0.4,0.3-0.7,0.7-0.7c0.4,0,0.7,0.3,0.7,0.7c0,0.4-0.3,0.7-0.7,0.7C34.3,46.3,34,46,34,45.6z
	 M36.8,45.6c0-0.4,0.3-0.7,0.7-0.7c0.4,0,0.7,0.3,0.7,0.7c0,0.4-0.3,0.7-0.7,0.7C37.1,46.3,36.8,46,36.8,45.6z M39.5,45.6
	c0-0.4,0.3-0.7,0.7-0.7c0.4,0,0.7,0.3,0.7,0.7c0,0.4-0.3,0.7-0.7,0.7C39.8,46.3,39.5,46,39.5,45.6z M42.2,45.6
	c0-0.4,0.3-0.7,0.7-0.7c0.4,0,0.7,0.3,0.7,0.7c0,0.4-0.3,0.7-0.7,0.7C42.5,46.3,42.2,46,42.2,45.6z M44.9,45.6
	c0-0.4,0.3-0.7,0.7-0.7c0.4,0,0.7,0.3,0.7,0.7c0,0.4-0.3,0.7-0.7,0.7C45.2,46.3,44.9,46,44.9,45.6z M47.7,45.6
	c0-0.4,0.3-0.7,0.7-0.7c0.4,0,0.7,0.3,0.7,0.7c0,0.4-0.3,0.7-0.7,0.7C48,46.3,47.7,46,47.7,45.6z M50.4,45.6c0-0.4,0.3-0.7,0.7-0.7
	c0.4,0,0.7,0.3,0.7,0.7c0,0.4-0.3,0.7-0.7,0.7C50.7,46.3,50.4,46,50.4,45.6z M53.1,45.6c0-0.4,0.3-0.7,0.7-0.7
	c0.4,0,0.7,0.3,0.7,0.7c0,0.4-0.3,0.7-0.7,0.7C53.4,46.3,53.1,46,53.1,45.6z M32.7,47c0-0.4,0.3-0.7,0.7-0.7c0.4,0,0.7,0.3,0.7,0.7
	c0,0.4-0.3,0.7-0.7,0.7C33,47.7,32.7,47.4,32.7,47z M30,47c0-0.4,0.3-0.7,0.7-0.7c0.4,0,0.7,0.3,0.7,0.7c0,0.4-0.3,0.7-0.7,0.7
	C30.3,47.7,30,47.4,30,47z M27.2,47c0-0.4,0.3-0.7,0.7-0.7c0.4,0,0.7,0.3,0.7,0.7c0,0.4-0.3,0.7-0.7,0.7
	C27.5,47.7,27.2,47.4,27.2,47z M24.5,47c0-0.4,0.3-0.7,0.7-0.7c0.4,0,0.7,0.3,0.7,0.7c0,0.4-0.3,0.7-0.7,0.7
	C24.8,47.7,24.5,47.4,24.5,47z M21.8,47c0-0.4,0.3-0.7,0.7-0.7c0.4,0,0.7,0.3,0.7,0.7c0,0.4-0.3,0.7-0.7,0.7
	C22.1,47.7,21.8,47.4,21.8,47z M19.1,47c0-0.4,0.3-0.7,0.7-0.7c0.4,0,0.7,0.3,0.7,0.7c0,0.4-0.3,0.7-0.7,0.7
	C19.4,47.7,19.1,47.4,19.1,47z M16.3,47c0-0.4,0.3-0.7,0.7-0.7c0.4,0,0.7,0.3,0.7,0.7c0,0.4-0.3,0.7-0.7,0.7
	C16.6,47.7,16.3,47.4,16.3,47z M13.6,47c0-0.4,0.3-0.7,0.7-0.7c0.4,0,0.7,0.3,0.7,0.7c0,0.4-0.3,0.7-0.7,0.7
	C13.9,47.7,13.6,47.4,13.6,47z M10.9,47c0-0.4,0.3-0.7,0.7-0.7c0.4,0,0.7,0.3,0.7,0.7c0,0.4-0.3,0.7-0.7,0.7
	C11.2,47.7,10.9,47.4,10.9,47z M8.2,47c0-0.4,0.3-0.7,0.7-0.7c0.4,0,0.7,0.3,0.7,0.7c0,0.4-0.3,0.7-0.7,0.7
	C8.5,47.7,8.2,47.4,8.2,47z M35.4,47c0-0.4,0.3-0.7,0.7-0.7c0.4,0,0.7,0.3,0.7,0.7c0,0.4-0.3,0.7-0.7,0.7
	C35.7,47.7,35.4,47.4,35.4,47z M38.1,47c0-0.4,0.3-0.7,0.7-0.7c0.4,0,0.7,0.3,0.7,0.7c0,0.4-0.3,0.7-0.7,0.7
	C38.4,47.7,38.1,47.4,38.1,47z M40.9,47c0-0.4,0.3-0.7,0.7-0.7c0.4,0,0.7,0.3,0.7,0.7c0,0.4-0.3,0.7-0.7,0.7
	C41.2,47.7,40.9,47.4,40.9,47z M43.6,47c0-0.4,0.3-0.7,0.7-0.7c0.4,0,0.7,0.3,0.7,0.7c0,0.4-0.3,0.7-0.7,0.7
	C43.9,47.7,43.6,47.4,43.6,47z M46.3,47c0-0.4,0.3-0.7,0.7-0.7c0.4,0,0.7,0.3,0.7,0.7c0,0.4-0.3,0.7-0.7,0.7
	C46.6,47.7,46.3,47.4,46.3,47z M49,47c0-0.4,0.3-0.7,0.7-0.7c0.4,0,0.7,0.3,0.7,0.7c0,0.4-0.3,0.7-0.7,0.7C49.3,47.7,49,47.4,49,47z
	"/>
</svg>
