<?xml version="1.0" encoding="utf-8"?>
<!-- Generator: Adobe Illustrator 19.1.0, SVG Export Plug-In . SVG Version: 6.00 Build 0)  -->
<svg version="1.1" id="Layer_1" xmlns="http://www.w3.org/2000/svg" xmlns:xlink="http://www.w3.org/1999/xlink" x="0px" y="0px"
	 viewBox="0 0 64 64" style="enable-background:new 0 0 64 64;" xml:space="preserve">
<style type="text/css">
	.st0{fill:#010101;}
	.st1{fill-rule:evenodd;clip-rule:evenodd;fill:none;}
	.st2{fill-rule:evenodd;clip-rule:evenodd;fill:none;stroke:#000000;stroke-linejoin:round;stroke-miterlimit:3.8637;}
</style>
<path d="M32.1,55.1c0,1.2-1,2.1-2.1,2.1h-1.1v-4.3H30C31.2,52.9,32.1,53.9,32.1,55.1z M62,13.7v47.7H-2v-64h47.7L62,13.7z
	 M44.9,14.5h14.9L44.9-0.3V14.5z M26.8,54c0-1.2-1-2.1-2.1-2.1h-3.2v6.4h1.1v-2.1h2.1C25.8,56.1,26.8,55.2,26.8,54z M33.2,55.1
	c0-1.8-1.4-3.2-3.2-3.2h-2.1v6.4H30C31.8,58.3,33.2,56.8,33.2,55.1z M38.5,51.9h-4.3v6.4h1.1v-2.1h3.2v-1.1h-3.2v-2.1h3.2V51.9z
	 M59.9,16.7H42.8V-0.4H0.1v49.1h59.7V16.7z M24.7,52.9h-2.1v2.1h2.1c0.6,0,1.1-0.5,1.1-1.1S25.3,52.9,24.7,52.9z M21,41.4
	c1.7-1.5,3.4-4,5-7.3c3.6-1.4,7-2,9.4-2.3c2.5,2.1,4.9,3.4,6.9,3.7c0.5,0.1,1,0.1,1.4,0.1c2.3,0,3.3-1.2,3.4-2.2
	c0.1-1.1-0.7-2.6-3.4-3.2c-1.9-0.4-4.7-0.5-7.8-0.2c-2.3-2-4.5-4.5-6-7c0.7-3.2,1-6.1,0.9-8.4c-0.2-4.3-3.1-5-4.5-3.5
	c-0.8,0.9-1.1,2.4-0.9,4.3c0.3,2.5,1.2,5.1,2.8,7.8c-0.8,3.2-1.9,6.5-3.3,9.5c-2.9,1.2-5.3,2.6-7.3,4.2c-2,1.6-2.8,3.3-2.3,4.7
	c0.3,0.9,1.1,1.4,2.2,1.4h0C18.5,43.1,19.8,42.5,21,41.4z M19.9,40.2c-1.3,1.1-2.2,1.3-2.5,1.3h0c-0.2,0-0.6,0-0.7-0.3
	c-0.1-0.4,0.1-1.4,1.8-2.9c1.4-1.2,3.1-2.3,5.1-3.2C22.4,37.4,21.1,39.1,19.9,40.2z M43.3,31.8c1.7,0.4,2.2,1.1,2.2,1.5
	c0,0.4-0.7,0.8-1.8,0.8c-0.3,0-0.7,0-1.1-0.1c-1.3-0.2-3-1.1-4.8-2.4C39.9,31.4,41.9,31.5,43.3,31.8z M26.9,32
	c0.9-2.1,1.7-4.5,2.4-6.7l0,0l0-0.1c1.3,1.8,2.8,3.6,4.4,5.1l-0.1,0l0,0C31.8,30.7,29.5,31.2,26.9,32L26.9,32L26.9,32z M29.1,14.8
	c0.1,1.8-0.1,3.9-0.5,6.2c-1-1.9-1.6-3.8-1.8-5.6c-0.2-2.1,0.4-2.9,0.5-3.1c0.1-0.1,0.3-0.2,0.4-0.2C28.3,12,29,12.9,29.1,14.8z"/>
</svg>
