<?xml version="1.0" encoding="utf-8"?>
<!-- Generator: Adobe Illustrator 19.1.0, SVG Export Plug-In . SVG Version: 6.00 Build 0)  -->
<svg version="1.1" id="Layer_1" xmlns="http://www.w3.org/2000/svg" xmlns:xlink="http://www.w3.org/1999/xlink" x="0px" y="0px"
	 viewBox="0 0 64 64" style="enable-background:new 0 0 64 64;" xml:space="preserve">
<style type="text/css">
	.st0{fill-rule:evenodd;clip-rule:evenodd;fill:none;}
	.st1{fill:#010101;}
</style>
<g>
	<path d="M24.2,16.1l-4.5,1.3L32,20.8l12.3-3.4l-4.5-1.3L32,18.2L24.2,16.1z M17.3,18.5v3.4L32,25.9l14.7-4.1v-3.4L32,22.5
		L17.3,18.5z M43,15.2l5.4,1.5v6.5L43,24.7l5.4,1.5v6.5L32,37.2l-16.4-4.6v-6.5l5.4-1.5l-5.4-1.5v-6.5l5.4-1.5l-5.4-1.5V7.2L32,2.6
		l16.4,4.6v6.5L43,15.2z M39.8,25.6L32,27.7l-7.8-2.2l-4.5,1.3L32,30.2l12.3-3.4L39.8,25.6z M46.7,28L32,32L17.3,28v3.4L32,35.4
		l14.7-4.1V28z M19.7,7.9L32,11.3l12.3-3.4L32,4.4L19.7,7.9z M46.7,9L32,13.1L17.3,9v3.4L32,16.4l14.7-4.1V9z M14.8,62.2v-7.4
		l-8.6-8.6V28.6h6v12.6l2.6-2.6l10.3,10.3v13.3h-1.7V49.6L14.8,41L13,42.8l5.9,5.9l-1.2,1.2l-7.2-7.2V30.3H7.9v15.2l8.6,8.6v8.1
		H14.8z M38.9,62.2V48.9l10.3-10.3l2.6,2.6V28.6h6v17.6l-8.6,8.6v7.4h-1.7v-8.1l8.6-8.6V30.3h-2.6v12.4l-7.2,7.2l-1.2-1.2l5.9-5.9
		L49.2,41l-8.6,8.6v12.6H38.9z"/>
	<rect x="-1.6" y="-1.6" class="st0" width="67.3" height="67.3"/>
</g>
</svg>
