<?xml version="1.0" encoding="utf-8"?>
<!-- Generator: Adobe Illustrator 19.1.0, SVG Export Plug-In . SVG Version: 6.00 Build 0)  -->
<svg version="1.1" id="Layer_1" xmlns="http://www.w3.org/2000/svg" xmlns:xlink="http://www.w3.org/1999/xlink" x="0px" y="0px"
	 viewBox="0 0 64 64" style="enable-background:new 0 0 64 64;" xml:space="preserve">
<style type="text/css">
	.st0{fill-rule:evenodd;clip-rule:evenodd;fill:none;}
	.st1{fill:#010101;}
</style>
<g>
	<rect x="-1.6" y="-1.6" class="st0" width="67.3" height="67.3"/>
	<path d="M42.1,24.1c0.8-0.9,1.2-2.1,1.2-3.4c0-3-2.4-5.4-5.4-5.4c-0.9,0-1.7,0.2-2.4,0.6c-0.7-3.6-3.9-6.3-7.7-6.3
		c-4.3,0-7.8,3.5-7.8,7.8c0,1.9,0.7,3.7,1.9,5.1c-3.1,0.5-5.5,3.2-5.5,6.5c0,3.6,2.9,6.6,6.6,6.6h18.8c3.1,0,5.7-2.5,5.7-5.7
		C47.5,26.7,45.1,24.2,42.1,24.1z M23,37.2c-4.6,0-8.3-3.7-8.3-8.3c0-3.2,1.9-6,4.6-7.4c-0.6-1.2-0.9-2.6-0.9-4.1
		c0-5.3,4.3-9.5,9.5-9.5c4,0,7.4,2.4,8.8,5.9c0.4-0.1,0.8-0.1,1.2-0.1c3.9,0,7.1,3.2,7.1,7.1c0,0.8-0.1,1.5-0.4,2.2
		c2.7,1.1,4.6,3.8,4.6,6.8c0,4.1-3.3,7.4-7.4,7.4H23z M37.9,21.7H25.8v2.6h12.1V21.7z M24.9,20.8h13.8v4.3H24.9V20.8z M35.7,22.1
		c0.5,0,0.9,0.4,0.9,0.9c0,0.5-0.4,0.9-0.9,0.9c-0.5,0-0.9-0.4-0.9-0.9C34.8,22.5,35.2,22.1,35.7,22.1z M37.9,27.7H25.8v2.6h12.1
		V27.7z M24.9,26.8h13.8v4.3H24.9V26.8z M35.7,28.1c0.5,0,0.9,0.4,0.9,0.9c0,0.5-0.4,0.9-0.9,0.9c-0.5,0-0.9-0.4-0.9-0.9
		C34.8,28.5,35.2,28.1,35.7,28.1z M38.9,62.2V48.9l10.3-10.3l2.6,2.6V28.6h6v17.6l-8.6,8.6v7.4h-1.7v-8.1l8.6-8.6V30.3h-2.6v12.4
		l-7.2,7.2l-1.2-1.2l5.9-5.9L49.2,41l-8.6,8.6v12.6H38.9z M14.8,62.2v-7.4l-8.6-8.6V28.6h6v12.6l2.6-2.6l10.3,10.3v13.3h-1.7V49.6
		L14.8,41L13,42.8l5.9,5.9l-1.2,1.2l-7.2-7.2V30.3H7.9v15.2l8.6,8.6v8.1H14.8z"/>
</g>
</svg>
