<?xml version="1.0" encoding="utf-8"?>
<!-- Generator: Adobe Illustrator 19.1.0, SVG Export Plug-In . SVG Version: 6.00 Build 0)  -->
<svg version="1.1" id="Layer_1" xmlns="http://www.w3.org/2000/svg" xmlns:xlink="http://www.w3.org/1999/xlink" x="0px" y="0px"
	 viewBox="0 0 64 64" style="enable-background:new 0 0 64 64;" xml:space="preserve">
<style type="text/css">
	.st0{fill:#010101;}
	.st1{fill-rule:evenodd;clip-rule:evenodd;fill:none;}
	.st2{fill-rule:evenodd;clip-rule:evenodd;fill:none;stroke:#000000;stroke-linejoin:round;stroke-miterlimit:3.8637;}
	.st3{font-family:'OpenSans';}
	.st4{font-size:5px;}
</style>
<path d="M0,63.3v-1.8l6.1-9.1h11.7c0,0,4.5-1.8,6.6-5.4H0V0.7h64V47H39.5c2.1,3.7,6.6,5.4,6.6,5.4h11.7l6.1,9.1v1.8H0z M36.4,47
	h-8.8l-0.8,1.4c-1,1.7-2.4,3.1-3.7,4.1h17.7c-1.3-1-2.7-2.3-3.7-4.1L36.4,47z M7.5,55.1l-3.6,5.4h56.2l-3.6-5.4H7.5z M61.3,44.3V3.4
	H2.7v40.9H61.3z M51.7,58.6c0-0.4,0.3-0.7,0.7-0.7c0.4,0,0.7,0.3,0.7,0.7c0,0.4-0.3,0.7-0.7,0.7C52,59.2,51.7,58.9,51.7,58.6z
	 M49,58.6c0-0.4,0.3-0.7,0.7-0.7c0.4,0,0.7,0.3,0.7,0.7c0,0.4-0.3,0.7-0.7,0.7C49.3,59.2,49,58.9,49,58.6z M46.3,58.6
	c0-0.4,0.3-0.7,0.7-0.7c0.4,0,0.7,0.3,0.7,0.7c0,0.4-0.3,0.7-0.7,0.7C46.6,59.2,46.3,58.9,46.3,58.6z M43.6,58.6
	c0-0.4,0.3-0.7,0.7-0.7c0.4,0,0.7,0.3,0.7,0.7c0,0.4-0.3,0.7-0.7,0.7C43.9,59.2,43.6,58.9,43.6,58.6z M40.9,58.6
	c0-0.4,0.3-0.7,0.7-0.7c0.4,0,0.7,0.3,0.7,0.7c0,0.4-0.3,0.7-0.7,0.7C41.2,59.2,40.9,58.9,40.9,58.6z M38.1,58.6
	c0-0.4,0.3-0.7,0.7-0.7c0.4,0,0.7,0.3,0.7,0.7c0,0.4-0.3,0.7-0.7,0.7C38.4,59.2,38.1,58.9,38.1,58.6z M35.4,58.6
	c0-0.4,0.3-0.7,0.7-0.7s0.7,0.3,0.7,0.7c0,0.4-0.3,0.7-0.7,0.7S35.4,58.9,35.4,58.6z M8.2,58.6c0-0.4,0.3-0.7,0.7-0.7
	s0.7,0.3,0.7,0.7c0,0.4-0.3,0.7-0.7,0.7S8.2,58.9,8.2,58.6z M10.9,58.6c0-0.4,0.3-0.7,0.7-0.7c0.4,0,0.7,0.3,0.7,0.7
	c0,0.4-0.3,0.7-0.7,0.7C11.2,59.2,10.9,58.9,10.9,58.6z M13.6,58.6c0-0.4,0.3-0.7,0.7-0.7s0.7,0.3,0.7,0.7c0,0.4-0.3,0.7-0.7,0.7
	S13.6,58.9,13.6,58.6z M16.3,58.6c0-0.4,0.3-0.7,0.7-0.7s0.7,0.3,0.7,0.7c0,0.4-0.3,0.7-0.7,0.7S16.3,58.9,16.3,58.6z M19.1,58.6
	c0-0.4,0.3-0.7,0.7-0.7c0.4,0,0.7,0.3,0.7,0.7c0,0.4-0.3,0.7-0.7,0.7C19.4,59.2,19.1,58.9,19.1,58.6z M21.8,58.6
	c0-0.4,0.3-0.7,0.7-0.7c0.4,0,0.7,0.3,0.7,0.7c0,0.4-0.3,0.7-0.7,0.7C22.1,59.2,21.8,58.9,21.8,58.6z M24.5,58.6
	c0-0.4,0.3-0.7,0.7-0.7c0.4,0,0.7,0.3,0.7,0.7c0,0.4-0.3,0.7-0.7,0.7C24.8,59.2,24.5,58.9,24.5,58.6z M27.2,58.6
	c0-0.4,0.3-0.7,0.7-0.7c0.4,0,0.7,0.3,0.7,0.7c0,0.4-0.3,0.7-0.7,0.7C27.5,59.2,27.2,58.9,27.2,58.6z M30,58.6
	c0-0.4,0.3-0.7,0.7-0.7s0.7,0.3,0.7,0.7c0,0.4-0.3,0.7-0.7,0.7S30,58.9,30,58.6z M32.7,58.6c0-0.4,0.3-0.7,0.7-0.7s0.7,0.3,0.7,0.7
	c0,0.4-0.3,0.7-0.7,0.7S32.7,58.9,32.7,58.6z M53.1,57.2c0-0.4,0.3-0.7,0.7-0.7c0.4,0,0.7,0.3,0.7,0.7c0,0.4-0.3,0.7-0.7,0.7
	C53.4,57.9,53.1,57.6,53.1,57.2z M50.4,57.2c0-0.4,0.3-0.7,0.7-0.7c0.4,0,0.7,0.3,0.7,0.7c0,0.4-0.3,0.7-0.7,0.7
	C50.7,57.9,50.4,57.6,50.4,57.2z M47.7,57.2c0-0.4,0.3-0.7,0.7-0.7c0.4,0,0.7,0.3,0.7,0.7c0,0.4-0.3,0.7-0.7,0.7
	C48,57.9,47.7,57.6,47.7,57.2z M44.9,57.2c0-0.4,0.3-0.7,0.7-0.7c0.4,0,0.7,0.3,0.7,0.7c0,0.4-0.3,0.7-0.7,0.7
	C45.2,57.9,44.9,57.6,44.9,57.2z M42.2,57.2c0-0.4,0.3-0.7,0.7-0.7c0.4,0,0.7,0.3,0.7,0.7c0,0.4-0.3,0.7-0.7,0.7
	C42.5,57.9,42.2,57.6,42.2,57.2z M39.5,57.2c0-0.4,0.3-0.7,0.7-0.7c0.4,0,0.7,0.3,0.7,0.7c0,0.4-0.3,0.7-0.7,0.7
	C39.8,57.9,39.5,57.6,39.5,57.2z M36.8,57.2c0-0.4,0.3-0.7,0.7-0.7s0.7,0.3,0.7,0.7c0,0.4-0.3,0.7-0.7,0.7S36.8,57.6,36.8,57.2z
	 M34,57.2c0-0.4,0.3-0.7,0.7-0.7s0.7,0.3,0.7,0.7c0,0.4-0.3,0.7-0.7,0.7S34,57.6,34,57.2z M9.5,57.2c0-0.4,0.3-0.7,0.7-0.7
	c0.4,0,0.7,0.3,0.7,0.7c0,0.4-0.3,0.7-0.7,0.7C9.8,57.9,9.5,57.6,9.5,57.2z M12.3,57.2c0-0.4,0.3-0.7,0.7-0.7c0.4,0,0.7,0.3,0.7,0.7
	c0,0.4-0.3,0.7-0.7,0.7C12.6,57.9,12.3,57.6,12.3,57.2z M15,57.2c0-0.4,0.3-0.7,0.7-0.7c0.4,0,0.7,0.3,0.7,0.7
	c0,0.4-0.3,0.7-0.7,0.7C15.3,57.9,15,57.6,15,57.2z M17.7,57.2c0-0.4,0.3-0.7,0.7-0.7c0.4,0,0.7,0.3,0.7,0.7c0,0.4-0.3,0.7-0.7,0.7
	C18,57.9,17.7,57.6,17.7,57.2z M20.4,57.2c0-0.4,0.3-0.7,0.7-0.7c0.4,0,0.7,0.3,0.7,0.7c0,0.4-0.3,0.7-0.7,0.7
	C20.7,57.9,20.4,57.6,20.4,57.2z M23.1,57.2c0-0.4,0.3-0.7,0.7-0.7c0.4,0,0.7,0.3,0.7,0.7c0,0.4-0.3,0.7-0.7,0.7
	C23.5,57.9,23.1,57.6,23.1,57.2z M25.9,57.2c0-0.4,0.3-0.7,0.7-0.7c0.4,0,0.7,0.3,0.7,0.7c0,0.4-0.3,0.7-0.7,0.7
	C26.2,57.9,25.9,57.6,25.9,57.2z M28.6,57.2c0-0.4,0.3-0.7,0.7-0.7c0.4,0,0.7,0.3,0.7,0.7c0,0.4-0.3,0.7-0.7,0.7
	C28.9,57.9,28.6,57.6,28.6,57.2z M31.3,57.2c0-0.4,0.3-0.7,0.7-0.7c0.4,0,0.7,0.3,0.7,0.7c0,0.4-0.3,0.7-0.7,0.7
	C31.6,57.9,31.3,57.6,31.3,57.2z M54.5,58.6c0-0.4,0.3-0.7,0.7-0.7c0.4,0,0.7,0.3,0.7,0.7c0,0.4-0.3,0.7-0.7,0.7
	C54.8,59.2,54.5,58.9,54.5,58.6z M5.4,6.1h53.1v31.3H5.4V6.1z M57.2,7.5H6.8v28.6h50.4V7.5z M32,38.8c1.1,0,2,0.9,2,2
	c0,1.1-0.9,2-2,2c-1.1,0-2-0.9-2-2C30,39.7,30.9,38.8,32,38.8z"/>
</svg>
