<?xml version="1.0" encoding="utf-8"?>
<!-- Generator: Adobe Illustrator 19.1.0, SVG Export Plug-In . SVG Version: 6.00 Build 0)  -->
<svg version="1.1" id="Layer_1" xmlns="http://www.w3.org/2000/svg" xmlns:xlink="http://www.w3.org/1999/xlink" x="0px" y="0px"
	 viewBox="0 0 64 64" style="enable-background:new 0 0 64 64;" xml:space="preserve">
<style type="text/css">
	.st0{fill-rule:evenodd;clip-rule:evenodd;fill:none;}
	.st1{fill:#010101;}
</style>
<g>
	<rect x="-1.2" y="-1.2" class="st0" width="66.4" height="66.4"/>
	<path d="M38.8,61.8V48.7L49,38.5l2.6,2.6V28.6h6V46L49,54.5v7.3h-1.7v-8l8.5-8.5v-15h-2.6v12.3l-7.1,7.1L45,48.4l5.8-5.8L49,40.9
		l-8.5,8.5v12.4H38.8z M15,61.8v-7.3L6.5,46V28.6h6V41l2.6-2.6l10.2,10.2v13.1h-1.7V49.4L15,40.9l-1.8,1.8l5.8,5.8l-1.2,1.2
		l-7.1-7.1V30.3H8.2v15l8.5,8.5v8H15z M39.7,32.4c0-0.7,0.6-1.3,1.3-1.3c0.7,0,1.3,0.6,1.3,1.3s-0.6,1.3-1.3,1.3
		C40.2,33.7,39.7,33.1,39.7,32.4z M44.8,35.4v-6h-7.2l2-1.7h6.9v9.4H17.5v-9.4h6.9l2,1.7h-7.2v6H44.8z M32,6.5
		c-9.5,0-16.2,2.7-16.2,5.1s6.6,5.1,16.2,5.1c9.5,0,16.2-2.7,16.2-5.1S41.5,6.5,32,6.5z M27.7,18.2v5.3l-3.1,0l7.3,6.3l7.3-6.3
		l-3.1,0v-5.3c-1.4,0.1-2.8,0.2-4.3,0.2C30.6,18.4,29.1,18.3,27.7,18.2z M38,18v3.8h6L32,32L20.1,21.8h6V18
		c-6.5-0.8-11.9-3-11.9-6.4c0-4.4,9.2-6.8,17.9-6.8c8.7,0,17.9,2.4,17.9,6.8C49.9,15,44.4,17.2,38,18z M32,13.6
		c-2.5,0-5.1-0.7-5.1-2.3c0-1.6,2.6-2.3,5.1-2.3c2.5,0,5.1,0.7,5.1,2.3C37.1,12.9,34.5,13.6,32,13.6z M28.7,11.4
		c0.4,0.3,1.6,0.6,3.3,0.6c1.7,0,2.9-0.4,3.3-0.6c-0.4-0.3-1.6-0.6-3.3-0.6C30.3,10.7,29.1,11.1,28.7,11.4z"/>
</g>
</svg>
