<?xml version="1.0" encoding="utf-8"?>
<!-- Generator: Adobe Illustrator 19.1.0, SVG Export Plug-In . SVG Version: 6.00 Build 0)  -->
<svg version="1.1" id="Layer_1" xmlns="http://www.w3.org/2000/svg" xmlns:xlink="http://www.w3.org/1999/xlink" x="0px" y="0px"
	 viewBox="0 0 64 64" style="enable-background:new 0 0 64 64;" xml:space="preserve">
<style type="text/css">
	.st0{fill:#010101;}
	.st1{fill-rule:evenodd;clip-rule:evenodd;fill:none;}
</style>
<path d="M6.7,23.3c0-8.7,7-15.7,15.7-15.7c6.9,0,12.8,4.5,14.9,10.7c1.6-0.8,3.3-1.2,5.2-1.2c6.5,0,11.7,5.2,11.7,11.7
	c0,1.2-0.2,2.3-0.5,3.4c5.5,1.2,9.6,6.1,9.6,12c0,6.8-5.5,12.2-12.2,12.2H14.4c-7.5,0-13.7-6.1-13.7-13.7c0-5.4,3.2-10.1,7.7-12.3
	C7.3,28.3,6.7,25.9,6.7,23.3z M22.4,8.9C14.5,8.9,8,15.3,8,23.3c0,2.4,0.6,4.6,1.6,6.6l0.6,1.1L9,31.6c-4.2,2-7,6.3-7,11.2
	c0,6.9,5.6,12.4,12.4,12.4H51c6.1,0,11-4.9,11-11c0-5.3-3.7-9.6-8.6-10.7l-1.3-0.3l0.4-1.3c0.3-1,0.5-2,0.5-3.1
	c0-5.8-4.7-10.4-10.4-10.4c-1.7,0-3.2,0.4-4.6,1.1L36.6,20l-0.5-1.4C34.2,13,28.8,8.9,22.4,8.9z M44.5,37.6c0-1.3-0.9-2.3-2.1-2.5
	c-1-4.6-4.6-8.2-9.2-9.2c-0.2-1.2-1.2-2.1-2.5-2.1s-2.3,0.9-2.5,2.1c-4.6,1-8.2,4.6-9.2,9.2c-1.2,0.2-2.1,1.2-2.1,2.5
	s0.9,2.3,2.1,2.5c1,4.6,4.6,8.2,9.2,9.2c0.2,1.2,1.2,2.1,2.5,2.1s2.3-0.9,2.5-2.1c4.6-1,8.2-4.6,9.2-9.2
	C43.6,39.9,44.5,38.9,44.5,37.6z M39.8,32c0.6,1,1.1,2.1,1.3,3.3c-0.7,0.3-1.3,0.9-1.5,1.7h-2.4c-0.1-1.8-0.3-3.5-0.7-5H39.8z
	 M38.8,30.7h-2.8c-0.5-1.3-1.1-2.3-1.8-3.1C36.1,28.2,37.6,29.3,38.8,30.7z M32.8,47.4c-0.3-0.5-0.8-0.8-1.4-0.9v-2h3.3
	C34.2,45.8,33.5,46.8,32.8,47.4z M28.7,47.4c-0.7-0.7-1.4-1.7-1.9-2.9h3.3v2C29.6,46.6,29.1,47,28.7,47.4z M28.7,27.9
	c0.3,0.5,0.8,0.8,1.4,0.9v2h-3.3C27.3,29.5,28,28.5,28.7,27.9z M32.8,27.9c0.7,0.7,1.4,1.7,1.9,2.9h-3.3v-2
	C31.9,28.6,32.4,28.3,32.8,27.9z M30.1,32v5h-4.6c0.1-1.8,0.3-3.5,0.8-5H30.1z M30.1,38.3v5h-3.8c-0.5-1.5-0.8-3.2-0.8-5H30.1z
	 M31.4,43.3v-5H36c-0.1,1.8-0.3,3.5-0.8,5H31.4z M31.4,37v-5h3.8c0.5,1.5,0.8,3.2,0.8,5H31.4z M27.2,27.6c-0.7,0.8-1.3,1.9-1.8,3.1
	h-2.8C23.9,29.3,25.4,28.2,27.2,27.6z M25,32c-0.4,1.5-0.7,3.2-0.7,5h-2.4c-0.2-0.8-0.8-1.4-1.5-1.7c0.3-1.2,0.7-2.3,1.3-3.3H25z
	 M21.7,43.3c-0.6-1-1.1-2.1-1.3-3.3c0.7-0.3,1.3-0.9,1.5-1.7h2.4c0.1,1.8,0.3,3.5,0.7,5H21.7z M22.7,44.5h2.8
	c0.5,1.3,1.1,2.3,1.8,3.1C25.4,47,23.9,45.9,22.7,44.5z M34.3,47.7c0.7-0.8,1.3-1.9,1.8-3.1h2.8C37.6,45.9,36.1,47,34.3,47.7z
	 M36.5,43.3c0.4-1.5,0.7-3.2,0.7-5h2.4c0.2,0.8,0.8,1.4,1.5,1.7c-0.3,1.2-0.7,2.3-1.3,3.3H36.5z"/>
</svg>
