<?xml version="1.0" encoding="utf-8"?>
<!-- Generator: Adobe Illustrator 19.1.0, SVG Export Plug-In . SVG Version: 6.00 Build 0)  -->
<svg version="1.1" id="Layer_1" xmlns="http://www.w3.org/2000/svg" xmlns:xlink="http://www.w3.org/1999/xlink" x="0px" y="0px"
	 viewBox="0 0 64 64" style="enable-background:new 0 0 64 64;" xml:space="preserve">
<style type="text/css">
	.st0{fill:#010101;}
	.st1{fill-rule:evenodd;clip-rule:evenodd;fill:none;}
	.st2{fill:none;}
	.st3{fill:#020202;}
</style>
<path d="M35.4,48.7c-1.1,0.2-2.2,0.3-3.4,0.3c-1.2,0-2.3-0.1-3.4-0.3l-3.3,12.4c2.2,0.5,4.4,0.8,6.7,0.8s4.5-0.3,6.7-0.8L35.4,48.7z
	 M17.1,32c0,8.2,6.7,14.9,14.9,14.9S46.9,40.2,46.9,32c0-8.2-6.7-14.9-14.9-14.9S17.1,23.8,17.1,32z M40.9,4.3
	c8.9,2.9,15.9,9.9,18.8,18.8c0.2-5.6,2.6-12.4-1.9-16.9C53.2,1.8,46.5,4.1,40.9,4.3z M15.3,28.6L2.9,25.3c-0.5,2.2-0.8,4.4-0.8,6.7
	c0,2.3,0.3,4.5,0.8,6.7l12.4-3.3c-0.2-1.1-0.3-2.2-0.3-3.4C14.9,30.8,15,29.7,15.3,28.6z M4.3,23.1c2.9-8.9,9.9-15.9,18.8-18.8
	C17.6,4.1,10.7,1.7,6.2,6.2C1.8,10.8,4.1,17.5,4.3,23.1z M6.3,40c2.6,8.4,9.3,15.1,17.7,17.7l2.6-9.5c-5.1-1.7-9-5.7-10.7-10.7
	L6.3,40z M23.1,59.7c-8.9-2.9-15.9-9.9-18.8-18.8c-0.2,5.6-2.6,12.4,1.9,16.9C10.8,62.2,17.5,59.9,23.1,59.7z M59.7,40.9
	c-2.9,8.9-9.9,15.9-18.8,18.8c5.6,0.2,12.4,2.6,16.9-1.9C62.2,53.2,59.9,46.5,59.7,40.9z M35.4,15.3l3.3-12.4
	c-2.2-0.5-4.4-0.8-6.7-0.8s-4.5,0.3-6.7,0.8l3.3,12.4c1.1-0.2,2.2-0.3,3.4-0.3C33.2,14.9,34.3,15,35.4,15.3z M26.6,15.8L24,6.3
	C15.6,8.9,8.9,15.6,6.3,24l9.5,2.6C17.5,21.5,21.5,17.5,26.6,15.8z M48.7,35.4l12.4,3.3c0.5-2.1,0.8-4.4,0.8-6.7
	c0-2.3-0.3-4.5-0.8-6.7l-12.4,3.3c0.2,1.1,0.3,2.2,0.3,3.4C49.1,33.2,49,34.3,48.7,35.4z M57.7,40l-9.5-2.6
	c-1.7,5.1-5.7,9-10.7,10.7l2.6,9.5C48.4,55.1,55.1,48.4,57.7,40z M61.8,22.9l0.8-0.2c0.9,3.2,1.4,5.9,1.4,9.3c0,3.4-0.5,6.1-1.4,9.3
	l-0.8-0.2c0.3,6.3,2.7,12.9-2.5,18.2c-5.2,5.3-11.9,2.8-18.2,2.5l0.2,0.8C38.1,63.5,35.4,64,32,64c-3.4,0-6.1-0.5-9.3-1.4l0.2-0.8
	c-6.3,0.3-12.9,2.7-18.2-2.5c-5.3-5.2-2.8-11.9-2.5-18.2l-0.8,0.2C0.5,38.1,0,35.4,0,32c0-3.4,0.5-6.1,1.4-9.3l0.8,0.2
	C1.9,16.6-0.5,10,4.7,4.7c5.2-5.3,11.9-2.8,18.2-2.5l-0.2-0.8C25.9,0.5,28.6,0,32,0c3.4,0,6.1,0.5,9.3,1.4l-0.2,0.8
	C47.4,1.9,54-0.5,59.3,4.7C64.5,9.9,62.1,16.6,61.8,22.9z M48.2,26.6l9.5-2.6C55.1,15.6,48.4,8.9,40,6.3l-2.6,9.5
	C42.5,17.5,46.5,21.5,48.2,26.6z M40.4,28.1c0.1,0.2,0.2,0.5,0.3,0.7l1.9,0.4c0.8,0.1,1.7,0.7,1.7,2.9c0,2.1-1,2.7-1.8,2.9l-1.8,0.3
	c-0.1,0.2-0.2,0.5-0.3,0.7l1,1.6c0.5,0.6,0.7,1.7-0.8,3.2c-1.5,1.5-2.6,1.3-3.3,0.8l-1.4-1.1c-0.2,0.1-0.5,0.2-0.7,0.3l-0.4,1.9
	c-0.1,0.8-0.7,1.7-2.9,1.7c-2.1,0-2.7-1-2.9-1.8l-0.3-1.8c-0.2-0.1-0.5-0.2-0.7-0.3l-1.6,1c-0.6,0.5-1.7,0.7-3.2-0.8
	c-1.5-1.5-1.3-2.6-0.8-3.3l1.1-1.4c-0.1-0.2-0.2-0.5-0.3-0.7l-1.9-0.4c-0.8-0.1-1.7-0.7-1.7-2.9c0-2.1,1-2.7,1.8-2.9l1.8-0.3
	c0.1-0.2,0.2-0.5,0.3-0.7l-1-1.6c-0.5-0.6-0.7-1.7,0.8-3.2c1.5-1.5,2.6-1.3,3.3-0.8l1.4,1.1c0.2-0.1,0.5-0.2,0.7-0.3l0.4-1.9
	c0.1-0.8,0.7-1.7,2.9-1.7c2.1,0,2.7,1,2.9,1.8l0.3,1.8c0.2,0.1,0.5,0.2,0.7,0.3l1.6-1c0.6-0.5,1.7-0.7,3.2,0.8
	c1.5,1.5,1.2,2.6,0.8,3.3L40.4,28.1z M42.1,32.8c0-0.1,0.1-0.3,0.1-0.8s-0.1-0.7-0.1-0.8l-2.3-0.4c-0.7-0.1-0.8-0.7-0.9-0.9
	c-0.1-0.5-0.3-0.9-0.6-1.4c-0.1-0.2-0.4-0.7,0-1.3l1.4-1.9c0-0.1-0.2-0.3-0.5-0.6c-0.3-0.3-0.5-0.5-0.6-0.5l-1.9,1.4
	c-0.4,0.3-0.9,0.2-1.3,0c-0.4-0.2-0.9-0.4-1.4-0.6c-0.2-0.1-0.8-0.2-0.9-0.9l-0.4-2.3c-0.1,0-0.3-0.1-0.8-0.1c-0.5,0-0.7,0-0.8,0.1
	l-0.4,2.3c-0.1,0.7-0.7,0.8-0.9,0.9c-0.5,0.1-0.9,0.3-1.4,0.6c-0.3,0.2-0.8,0.3-1.3,0l-1.9-1.4c-0.1,0-0.3,0.2-0.6,0.5
	c-0.3,0.3-0.5,0.5-0.5,0.6l1.4,1.9c0.4,0.6,0.1,1.1,0,1.3c-0.2,0.4-0.4,0.9-0.6,1.4c-0.1,0.2-0.2,0.8-0.9,0.9l-2.3,0.4
	c0,0.1-0.1,0.3-0.1,0.8c0,0.5,0.1,0.7,0.1,0.8l2.3,0.4c0.7,0.1,0.8,0.7,0.9,0.9c0.1,0.5,0.3,0.9,0.6,1.4c0.1,0.2,0.4,0.7,0,1.3
	l-1.4,1.9c0,0.1,0.2,0.3,0.5,0.6c0.3,0.3,0.5,0.5,0.6,0.5l1.9-1.4c0.4-0.3,0.9-0.2,1.3,0c0.4,0.2,0.9,0.4,1.4,0.6
	c0.2,0.1,0.8,0.2,0.9,0.9l0.4,2.3c0.1,0,0.3,0.1,0.8,0.1c0.5,0,0.7-0.1,0.8-0.1l0.4-2.3c0.1-0.7,0.7-0.8,0.9-0.9
	c0.5-0.1,0.9-0.3,1.4-0.6c0.3-0.2,0.8-0.3,1.3,0l1.9,1.4c0.1,0,0.3-0.2,0.6-0.5c0.3-0.3,0.5-0.5,0.5-0.6l-1.4-1.9
	c-0.4-0.6-0.1-1.1,0-1.3c0.2-0.4,0.4-0.9,0.6-1.4c0.1-0.2,0.2-0.8,0.9-0.9L42.1,32.8z M32,27.2c2.6,0,4.8,2.1,4.8,4.8
	c0,2.6-2.1,4.8-4.8,4.8c-2.6,0-4.8-2.1-4.8-4.8C27.2,29.4,29.4,27.2,32,27.2z M29.4,32c0,1.4,1.2,2.6,2.6,2.6c1.4,0,2.6-1.2,2.6-2.6
	c0-1.4-1.2-2.6-2.6-2.6C30.6,29.4,29.4,30.6,29.4,32z"/>
</svg>
