<?xml version="1.0" encoding="utf-8"?>
<!-- Generator: Adobe Illustrator 19.1.0, SVG Export Plug-In . SVG Version: 6.00 Build 0)  -->
<svg version="1.1" id="Layer_1" xmlns="http://www.w3.org/2000/svg" xmlns:xlink="http://www.w3.org/1999/xlink" x="0px" y="0px"
	 viewBox="0 0 64 64" style="enable-background:new 0 0 64 64;" xml:space="preserve">
<style type="text/css">
	.st0{fill:#010101;}
	.st1{fill-rule:evenodd;clip-rule:evenodd;fill:none;}
</style>
<g>
	<rect x="4.2" y="4.6" class="st1" width="54.9" height="54.9"/>
	<path d="M13.9,56.6C6.2,56.6,0,50.4,0,42.7c0-5.5,3.2-10.3,7.9-12.6c-1.2-2.2-1.8-4.7-1.8-7.4c0-8.9,7.2-16,16-16
		c7.1,0,13.1,4.6,15.2,11c1.6-0.8,3.4-1.2,5.3-1.2c6.6,0,11.9,5.3,11.9,11.9c0,1.2-0.2,2.4-0.5,3.5c5.7,1.2,9.9,6.2,9.9,12.2
		c0,6.9-5.6,12.5-12.5,12.5H13.9z M52.1,33.1c0.7-1.4,1.1-3,1.1-4.7c0-5.8-4.7-10.5-10.5-10.5c-2.3,0-4.4,0.7-6.2,2
		c-1.3-6.7-7.2-11.8-14.3-11.8c-8.1,0-14.6,6.5-14.6,14.6c0,3,0.9,5.8,2.4,8.1c-5,1.7-8.6,6.3-8.6,11.9c0,6.9,5.6,12.5,12.5,12.5
		h37.6c6.1,0,11.1-5,11.1-11.1C62.6,38.2,57.9,33.4,52.1,33.1z M36.8,37.9l7.4,7.4l-4.5,4.5l-7.4-7.4l1-1l6.5,6.5l2.5-2.5l-6.5-6.5
		L36.8,37.9z M25.6,25.3l0.9-0.9c1.6-1.6,4.3-1.6,6,0L33,25l-4.6,4.6l2.6,2.6l-1,1l-2.6-2.6L24.9,33l2.6,2.6l-1,1L23.9,34l-4.6,4.6
		l-0.5-0.5c-1.6-1.6-1.6-4.3,0-6l0.9-0.9c-0.7-0.7-1.1-1.7-1.1-2.8c0-2.3,1.9-4.2,4.2-4.2C23.9,24.3,24.9,24.7,25.6,25.3z M30.9,25
		c-1.1-0.6-2.5-0.5-3.4,0.4l-1.8,1.8l-1-0.9c-0.5-0.4-1.2-0.7-1.9-0.7c-1.6,0-2.8,1.3-2.8,2.8c0,0.7,0.3,1.4,0.7,1.9l0.9,1l-1.8,1.8
		c-0.9,0.9-1.1,2.3-0.4,3.4L30.9,25z M41.1,24l3.8,3.8L25.3,47.4l-6.7,2.9l2.9-6.7L41.1,24z M39.3,27.8l1.8,1.8l1.8-1.8L41.1,26
		L39.3,27.8z M37.2,29.9l1.8,1.8l1.1-1.1l-1.8-1.8L37.2,29.9z M23.7,43.4l1.8,1.8L38,32.7l-1.8-1.8L23.7,43.4z M24.5,46.2l-1.8-1.8
		l-1.4,3.2L24.5,46.2z"/>
</g>
</svg>
