<?xml version="1.0" encoding="utf-8"?>
<!-- Generator: Adobe Illustrator 19.1.0, SVG Export Plug-In . SVG Version: 6.00 Build 0)  -->
<svg version="1.1" id="Layer_1" xmlns="http://www.w3.org/2000/svg" xmlns:xlink="http://www.w3.org/1999/xlink" x="0px" y="0px"
	 viewBox="0 0 64 64" style="enable-background:new 0 0 64 64;" xml:space="preserve">
<style type="text/css">
	.st0{fill-rule:evenodd;clip-rule:evenodd;fill:none;}
	.st1{fill:#010101;}
</style>
<g>
	<rect x="-1.6" y="-1.6" class="st0" width="67.3" height="67.3"/>
	<path d="M24.8,22.3l-5,5l-0.7,4.6l4.6-0.7l5-5l1.2,1.2l-5.4,5.4l-7.5,1.1l1.1-7.5l5.4-5.4L24.8,22.3z M37.4,17.6l2.8-2.8l-1.4-1.4
		l-2.8,2.8L34.8,15l2.8-2.8l-1.4-1.4l-2.8,2.8l-1.2-1.2l2.8-2.8l-2-2l1.2-1.2l3.3,3.3l4-4L40.9,5l1.2-1.2L47.3,9l-1.2,1.2l-0.7-0.7
		l-4,4l3.3,3.3l-1.2,1.2l-2-2l-2.8,2.8L37.4,17.6z M42.8,6.9l-1.4,1.4l1.4,1.4l1.4-1.4L42.8,6.9z M40.2,9.5l-1.4,1.4l1.4,1.4
		l1.4-1.4L40.2,9.5z M27.4,24.8L22.3,30L21,28.8l5.2-5.2L27.4,24.8z M22.3,5.9l-2,2l3.1,3.1l4.6-4.6l1.2,1.2l-2,2l15.5,15.5
		l-2.6,2.6l5.4,5.4l-1.2,1.2l-5.4-5.4l-2.6,2.6L20.8,16l-2,2l-1.2-1.2l4.6-4.6l-3.1-3.1l-2,2l-1.2-1.2L21,4.7L22.3,5.9z M38.9,23.7
		l-2,2l-1.2-1.2l2-2l-1.4-1.4l-2,2l-1.2-1.2l2-2l-1.4-1.4l-2,2l-1.2-1.2l2-2L31.1,16l-2,2l-1.2-1.2l2-2l-1.4-1.4l-2,2l-1.2-1.2l2-2
		L26,10.8l-4,4l14.3,14.3l4-4L38.9,23.7z M14.8,62.2v-7.4l-8.6-8.6V28.6h6v12.6l2.6-2.6l10.3,10.3v13.3h-1.7V49.6L14.8,41L13,42.8
		l5.9,5.9l-1.2,1.2l-7.2-7.2V30.3H7.9v15.2l8.6,8.6v8.1H14.8z M38.9,62.2V48.9l10.3-10.3l2.6,2.6V28.6h6v17.6l-8.6,8.6v7.4h-1.7
		v-8.1l8.6-8.6V30.3h-2.6v12.4l-7.2,7.2l-1.2-1.2l5.9-5.9L49.2,41l-8.6,8.6v12.6H38.9z"/>
</g>
</svg>
