<?xml version="1.0" encoding="utf-8"?>
<!-- Generator: Adobe Illustrator 19.1.0, SVG Export Plug-In . SVG Version: 6.00 Build 0)  -->
<svg version="1.1" id="Layer_1" xmlns="http://www.w3.org/2000/svg" xmlns:xlink="http://www.w3.org/1999/xlink" x="0px" y="0px"
	 viewBox="0 0 64 64" style="enable-background:new 0 0 64 64;" xml:space="preserve">
<style type="text/css">
	.st0{fill:#010101;}
</style>
<path class="st0" d="M26.7,26.2V20c0-3.3,1.6-6.2,4.2-8H18.7c-4.4,0-8,3.6-8,8v6.2H5.3l13.4,10.2l13.4-10.2H26.7z M36.4,10.2
	c5.4,0,9.8,4.4,9.8,9.8v2.2l-1.8,1.4V20c0-4.4-3.6-8-8-8s-8,3.6-8,8v4.4h8.9L18.7,38.7L0,24.4h8.9V20c0-5.4,4.4-9.8,9.8-9.8H36.4z
	 M27.6,53.8c-5.4,0-9.8-4.4-9.8-9.8v-2.2l1.8-1.4V44c0,4.4,3.6,8,8,8s8-3.6,8-8v-4.4h-8.9l18.7-14.2L64,39.6h-8.9V44
	c0,5.4-4.4,9.8-9.8,9.8H27.6z M37.3,37.8V44c0,3.3-1.6,6.2-4.2,8h12.2c4.4,0,8-3.6,8-8v-6.2h5.4L45.3,27.6L31.9,37.8H37.3z"/>
</svg>
