<?xml version="1.0" encoding="utf-8"?>
<!-- Generator: Adobe Illustrator 19.1.0, SVG Export Plug-In . SVG Version: 6.00 Build 0)  -->
<svg version="1.1" id="Layer_1" xmlns="http://www.w3.org/2000/svg" xmlns:xlink="http://www.w3.org/1999/xlink" x="0px" y="0px"
	 viewBox="0 0 64 64" style="enable-background:new 0 0 64 64;" xml:space="preserve">
<style type="text/css">
	.st0{fill-rule:evenodd;clip-rule:evenodd;fill:none;}
	.st1{fill:none;}
	.st2{fill:#010101;}
	.st3{fill:#020202;}
</style>
<rect x="4" y="-4.5" class="st0" width="67.9" height="67.9"/>
<rect x="4.8" y="-2.3" class="st0" width="67.9" height="67.9"/>
<path d="M4.4,29.2l9.3,12.3L23,29.2l1.5,1.1L14.9,43l9.6,12.7L23,56.8l-9.3-12.3L4.4,56.8l-1.5-1.1L12.6,43L2.9,30.3L4.4,29.2z
	 M15.5,36.1H12l-1.4-1.8h6.3L15.5,36.1z M27.4,36.1h-5.1l1.4-1.8h1.9v-6.4H1.8v6.4h1.9l1.4,1.8H0V26.1h27.4V36.1z M7.8,39.8h-6v6.4
	h6L6.5,48H0V37.9h6.5L7.8,39.8z M25.6,46.2v-6.4h-6l1.4-1.8h6.5V48H21l-1.4-1.8H25.6z M20.1,43c0-0.8,0.6-1.4,1.4-1.4
	s1.4,0.6,1.4,1.4c0,0.8-0.6,1.4-1.4,1.4S20.1,43.7,20.1,43z M16.9,51.7h-6.3l1.4-1.8h3.5L16.9,51.7z M25.6,58.1v-6.4h-1.9l-1.4-1.8
	h5.1v10.1H0V49.8h5.1l-1.4,1.8H1.8v6.4H25.6z M64,48H36.6V37.9H64V48z M62.2,46.2v-6.4H38.4v6.4H62.2z M56.7,43
	c0-0.8,0.6-1.4,1.4-1.4c0.8,0,1.4,0.6,1.4,1.4c0,0.8-0.6,1.4-1.4,1.4C57.3,44.3,56.7,43.7,56.7,43z M32.9,15.1v44.8h-1.8V15.1H32.9z
	 M64,59.9H36.6V49.8H64V59.9z M62.2,58.1v-6.4H38.4v6.4H62.2z M56.7,54.9c0-0.8,0.6-1.4,1.4-1.4c0.8,0,1.4,0.6,1.4,1.4
	c0,0.8-0.6,1.4-1.4,1.4C57.3,56.2,56.7,55.6,56.7,54.9z M45.6,25.1c-0.9-7.2-7.1-12.8-14.5-12.8c-7.1,0-13.1,5.1-14.4,11.9h-1.9
	c1.3-7.8,8.1-13.7,16.2-13.7c9.1,0,16.5,7.4,16.5,16.5l-5.1,0l7.9,6.7l7.9-6.7l-4.2,0c0-11.6-9.4-21-21-21c-10.7,0-19.5,8-20.9,18.3
	h-1.8c1.4-11.3,11-20.1,22.7-20.1c12,0,21.9,9.3,22.8,21h7.4l-12.8,11l-12.8-11H45.6z"/>
</svg>
