<?xml version="1.0" encoding="utf-8"?>
<!-- Generator: Adobe Illustrator 19.1.0, SVG Export Plug-In . SVG Version: 6.00 Build 0)  -->
<svg version="1.1" id="Layer_1" xmlns="http://www.w3.org/2000/svg" xmlns:xlink="http://www.w3.org/1999/xlink" x="0px" y="0px"
	 viewBox="0 0 64 64" style="enable-background:new 0 0 64 64;" xml:space="preserve">
<style type="text/css">
	.st0{fill:#010101;}
	.st1{fill-rule:evenodd;clip-rule:evenodd;fill:none;}
	.st2{fill-rule:evenodd;clip-rule:evenodd;fill:none;stroke:#000000;stroke-linejoin:round;stroke-miterlimit:3.8637;}
</style>
<path d="M28.4,30.6h31.4l-2.6-4.3H28.8l-4.3-8.5H9.6L3.1,32l6.5,14.2h15l4.3-7.1h5.6l1.4-2.8h6l1.4,2.8h2.5l1.4-2.8h6l1.4,2.8h2.5
	l2.8-5.7H28.4V30.6z M51.5,39.1H49L47.6,42h-6l-1.4-2.8h-2.5L36.2,42h-5.8l-4.3,7.1H7.8L0,32l7.8-17.1h18.5l4.3,8.5h28.4l5.1,8.5
	l-5,10h-6L51.5,39.1z M17.1,39.1V24.9h-2.4l-3,7.1l3,7.1H17.1z M19.9,42h-7.1L8.5,32l4.3-10h7.1V42z"/>
</svg>
