<?xml version="1.0" encoding="utf-8"?>
<!-- Generator: Adobe Illustrator 19.1.0, SVG Export Plug-In . SVG Version: 6.00 Build 0)  -->
<svg version="1.1" id="Layer_1" xmlns="http://www.w3.org/2000/svg" xmlns:xlink="http://www.w3.org/1999/xlink" x="0px" y="0px"
	 viewBox="0 0 64 64" style="enable-background:new 0 0 64 64;" xml:space="preserve">
<style type="text/css">
	.st0{fill:#010101;}
</style>
<path d="M0,23.5h64v17H0V23.5z M61.4,37.9V26.1H2.6v11.8H61.4z M22.2,34h13.1V30H22.2V34z M7.8,34h13.1V30H7.8V34z M36.6,28.7v6.5
	h-30v-6.5H36.6z M55.5,34c-1.1,0-2-0.9-2-2c0-1.1,0.9-2,2-2c1.1,0,2,0.9,2,2C57.5,33.1,56.6,34,55.5,34z M40.5,31.3h10.4v1.3H40.5
	V31.3z"/>
</svg>
