<?xml version="1.0" encoding="utf-8"?>
<!-- Generator: Adobe Illustrator 19.1.0, SVG Export Plug-In . SVG Version: 6.00 Build 0)  -->
<svg version="1.1" id="Layer_1" xmlns="http://www.w3.org/2000/svg" xmlns:xlink="http://www.w3.org/1999/xlink" x="0px" y="0px"
	 viewBox="0 0 64 64" style="enable-background:new 0 0 64 64;" xml:space="preserve">
<style type="text/css">
	.st0{fill-rule:evenodd;clip-rule:evenodd;fill:none;}
	.st1{fill:none;}
	.st2{fill:#010101;}
	.st3{fill:#020202;}
</style>
<g>
	<rect x="-7" y="-7" class="st0" width="78" height="78"/>
	<path d="M36.3,43.9L51,58.6l6.6-6.6L55,49.4l-3.3,3.3l-1.4-1.4l3.3-3.3L51,45.4l-3.3,3.3l-1.4-1.4l3.3-3.3L47,41.4l-3.3,3.3
		l-1.4-1.4l3.3-3.3l-2.7-2.7l1.4-1.4L60.4,52L51,61.4L34.9,45.3L36.3,43.9z M17.9,25.5l6.2,6.2l-1.4,1.4l-6.2-6.2L4.5,38.8l-1.1-1.1
		C1.9,36.1,1,34,1,31.7s0.9-4.4,2.5-6L8.2,21c-2.3-3.3-2-7.9,1-10.9c1.6-1.6,3.7-2.5,6-2.5c1.7,0,3.4,0.5,4.9,1.5l4.7-4.7
		c1.6-1.6,3.7-2.5,6-2.5c2.3,0,4.4,0.9,6,2.5l1.1,1.1L25.9,17.5l6.2,6.2l-1.4,1.4L29,23.4l-3.3,3.3l-1.4-1.4l3.3-3.3l-3.1-3.1
		L17.9,25.5z M15.2,9.7c-1.7,0-3.4,0.7-4.6,1.9C8.1,14,8,17.9,10.3,20.4l0.6,0.7l-6,6C3.7,28.3,3,30,3,31.7c0,1.6,0.6,3.1,1.6,4.2
		L34.9,5.6c-1.2-1-2.7-1.6-4.2-1.6c-1.7,0-3.4,0.7-4.6,1.9l-6,6l-0.7-0.6C18.3,10.2,16.7,9.7,15.2,9.7z M43.8,33.2L20.4,59
		c-3.4,3.8-8.7,4-12,0.7C5,56.3,5.3,51,9,47.6l25.7-23.4c-1.9-5.3-0.8-11.6,3.5-15.8c4.9-4.9,12.4-5.7,18.1-2.5l-8.9,8.9
		c-1.6,1.6-1.6,4.1,0,5.7c1.6,1.6,4.1,1.6,5.7,0l8.9-8.9c3.3,5.8,2.4,13.2-2.5,18.1C55.4,34,49.2,35.2,43.8,33.2z M18.9,57.6
		l24.4-26.8c4.9,2.3,10.9,1.5,15-2.5c3.6-3.6,4.7-8.7,3.2-13.2l-6.8,6.8c-2.4,2.4-6.2,2.4-8.5,0c-2.4-2.4-2.4-6.2,0-8.5l6.8-6.8
		c-4.5-1.4-9.6-0.3-13.2,3.2c-4,4-4.9,10.1-2.5,15L10.4,49.1c-3,2.7-3.1,6.6-0.6,9.1C12.3,60.7,16.2,60.6,18.9,57.6z M14.1,55
		c0.6,0,1-0.5,1-1c0-0.6-0.5-1-1-1c-0.6,0-1,0.5-1,1C13,54.5,13.5,55,14.1,55z M17.1,53.9c0,1.7-1.4,3.1-3.1,3.1
		c-1.7,0-3.1-1.4-3.1-3.1c0-1.7,1.4-3.1,3.1-3.1C15.8,50.9,17.1,52.3,17.1,53.9z"/>
</g>
</svg>
