<?xml version="1.0" encoding="utf-8"?>
<!-- Generator: Adobe Illustrator 19.1.0, SVG Export Plug-In . SVG Version: 6.00 Build 0)  -->
<svg version="1.1" id="Layer_1" xmlns="http://www.w3.org/2000/svg" xmlns:xlink="http://www.w3.org/1999/xlink" x="0px" y="0px"
	 viewBox="0 0 64 64" style="enable-background:new 0 0 64 64;" xml:space="preserve">
<style type="text/css">
	.st0{fill-rule:evenodd;clip-rule:evenodd;fill:none;}
	.st1{fill:none;}
	.st2{fill:#010101;}
	.st3{fill:#020202;}
</style>
<path d="M4.5,28.4c-5-5-5.9-12.7-2.5-18.6l9.1,9.1c1.6,1.6,4.2,1.6,5.9,0c1.6-1.6,1.6-4.2,0-5.9L7.9,4c5.9-3.3,13.5-2.5,18.6,2.5
	c4.4,4.4,5.6,10.8,3.6,16.2l1.2,1.1l-1.5,1.5l-2.2-2c2.4-5,1.5-11.2-2.6-15.3C21.3,4.3,16,3.2,11.4,4.6l7,7c2.4,2.4,2.4,6.3,0,8.8
	c-2.4,2.4-6.3,2.4-8.8,0l-7-7C1.2,18,2.3,23.3,6,26.9c4.1,4.1,10.3,5,15.3,2.6l2,2.2l-1.5,1.5L20.8,32C15.3,34,8.9,32.8,4.5,28.4z
	 M56.4,46.7l-12-10.9L43,37.3l12.1,11c3.1,2.8,3.1,6.8,0.6,9.3C53,60.1,49,60,46.3,57l-11-12.1l-1.5,1.5l10.9,12
	c3.5,3.9,8.9,4.1,12.3,0.7C60.5,55.6,60.2,50.2,56.4,46.7z M51.2,56.3c-1.7,0-3.1-1.4-3.1-3.1c0-1.7,1.4-3.1,3.1-3.1
	c1.7,0,3.1,1.4,3.1,3.1C54.3,54.9,52.9,56.3,51.2,56.3z M51.2,54.3c0.6,0,1.1-0.5,1.1-1.1c0-0.6-0.5-1.1-1.1-1.1
	c-0.6,0-1.1,0.5-1.1,1.1C50.1,53.8,50.6,54.3,51.2,54.3z M10.5,47.6L5.6,62l14.5-4.8L64,13.3l-9.6-9.6L10.5,47.6z M54.4,6.6l6.7,6.7
	L56.4,18l-6.7-6.7L54.4,6.6z M48.2,12.7l6.7,6.7l-2.6,2.6l-6.7-6.7L48.2,12.7z M48.2,20.9l2.6,2.6L19.5,54.9l-2.6-2.6L48.2,20.9z
	 M44.1,16.8l2.6,2.6L15.4,50.8l-2.6-2.6L44.1,16.8z M8.9,58.8l2.9-8.8l5.9,5.8L8.9,58.8z"/>
</svg>
