<?xml version="1.0" encoding="utf-8"?>
<!-- Generator: Adobe Illustrator 19.1.0, SVG Export Plug-In . SVG Version: 6.00 Build 0)  -->
<svg version="1.1" id="Layer_1" xmlns="http://www.w3.org/2000/svg" xmlns:xlink="http://www.w3.org/1999/xlink" x="0px" y="0px"
	 viewBox="0 0 64 64" style="enable-background:new 0 0 64 64;" xml:space="preserve">
<style type="text/css">
	.st0{fill:#010101;}
</style>
<path class="st0" d="M61.1,31.2c0.8,0,1.4-0.3,1.8-0.6c0.8-0.7,1.2-1.9,1.2-3.6c0-2.9-1.8-5-4.2-5c-1.8,0-3.2,1.1-3.9,3
	c-3.6-3.4-8.5-5.5-13.8-5.5H24.5l-0.8,0c-0.8,0-1.9,0-2.3,0l-7.8-3.9v7.1c-3.2,2.1-5.8,5.1-7.4,8.5H0l2.8,16h3
	c2.4,5.9,7.4,10.4,13.6,12l0.9,4.8h10.1v-4.2h6.7v4.2h10.1l0.9-5.1c8.4-2.6,14.2-10.4,14.2-19.3c0-3-0.7-5.9-1.8-8.4c0,0,0,0,0,0
	C60.7,31.2,60.9,31.2,61.1,31.2z M47.1,57.4l-0.5,0.1l-0.8,4.7h-7V58H28.7v4.2h-7l-0.8-4.5l-0.5-0.1c-6.1-1.4-11-5.7-13.2-11.6
	L7,45.4H4.2L2,32.8h5.3l0.2-0.5c1.5-3.5,4.1-6.5,7.4-8.5l0.4-0.2v-5.3l5.7,2.8l0.2,0c0.4,0,1.7,0,2.6,0l18.4,0
	c10.2,0,18.5,8.3,18.5,18.5C60.6,47.8,55.1,55.2,47.1,57.4z M57.3,26.3c0.2-1.3,0.9-2.7,2.5-2.7c1.7,0,2.5,1.7,2.5,3.4
	c0,1.2-0.2,2-0.6,2.3c-0.1,0.1-0.3,0.3-0.9,0.2c-0.5-0.1-0.7-0.6-0.7-0.8c-0.1-0.5,0-1.1,0.7-1.5c0.4-0.2,0.5-0.8,0.3-1.2
	c-0.2-0.4-0.8-0.5-1.2-0.3c-0.7,0.4-1.2,1.1-1.4,1.9C58.1,27.2,57.7,26.7,57.3,26.3z M14,30.3c-1.6,0-2.9,1.3-2.9,2.9
	s1.3,2.9,2.9,2.9s2.9-1.3,2.9-2.9S15.6,30.3,14,30.3z M14,34.5c-0.7,0-1.3-0.6-1.3-1.3c0-0.7,0.6-1.3,1.3-1.3c0.7,0,1.3,0.6,1.3,1.3
	C15.3,34,14.7,34.5,14,34.5z M38.8,42.1c0,1.9-1.5,3.4-3.4,3.4h-0.8v1.7h-1.7v-1.7h-0.8c-1.9,0-3.4-1.5-3.4-3.4h1.7
	c0,0.9,0.8,1.7,1.7,1.7h3.4c0.9,0,1.7-0.8,1.7-1.7s-0.8-1.7-1.7-1.7h-3.4c-1.9,0-3.4-1.5-3.4-3.4c0-1.9,1.5-3.4,3.4-3.4h0.8V32h1.7
	v1.7H35c1.9,0,3.4,1.5,3.4,3.4h-1.7c0-0.9-0.8-1.7-1.7-1.7h-2.9c-0.9,0-1.7,0.8-1.7,1.7c0,0.9,0.8,1.7,1.7,1.7h3.4
	C37.3,38.7,38.8,40.2,38.8,42.1z M43.8,13.5c0,1.5-0.4,2.9-1,4.2h-1.9c0.8-1.2,1.3-2.6,1.3-4.2c0-4.2-3.4-7.6-7.6-7.6
	S27,9.4,27,13.5c0,1.6,0.5,3,1.3,4.2h-1.9c-0.6-1.3-1-2.7-1-4.2c0-5.1,4.1-9.2,9.2-9.2C39.7,4.3,43.8,8.4,43.8,13.5z M34.6,0.1
	C42,0.1,48,6.1,48,13.5c0,1.6-0.3,3.1-0.8,4.5c-0.6-0.1-1.1-0.2-1.7-0.2c0.5-1.3,0.8-2.8,0.8-4.3c0-6.5-5.3-11.8-11.8-11.8
	c-6.5,0-11.8,5.3-11.8,11.8c0,1.5,0.3,2.9,0.8,4.2h-0.8l-0.6,0l-0.4,0c-0.4-1.3-0.7-2.7-0.7-4.2C21.2,6.1,27.2,0.1,34.6,0.1z"/>
</svg>
