<?xml version="1.0" encoding="utf-8"?>
<!-- Generator: Adobe Illustrator 19.1.0, SVG Export Plug-In . SVG Version: 6.00 Build 0)  -->
<svg version="1.1" id="Layer_1" xmlns="http://www.w3.org/2000/svg" xmlns:xlink="http://www.w3.org/1999/xlink" x="0px" y="0px"
	 viewBox="0 0 64 64" style="enable-background:new 0 0 64 64;" xml:space="preserve">
<style type="text/css">
	.st0{fill-rule:evenodd;clip-rule:evenodd;fill:none;}
	.st1{fill:#010101;}
</style>
<g>
	<path d="M32.9,19.1v19.1l2.6-1.6V19.3l5.2-2.6V7.6L32,3.7l-8.6,3.9v9.1l4.3,2.6v3.4l1.7,0.9v3.7l-1.7,0.9v1.5l1.7,0.9v3.7L27.7,35
		v1.5l3.4,1.7V19.1H32.9z M27.7,33.1v-1.5L26,30.7V27l1.7-0.9v-1.5L26,23.8v-3.5l-4.3-2.6V6.5L32,1.8l10.3,4.7v11.2l-5.2,2.6v17.2
		L32,40.6l-6.1-3v-3.7L27.7,33.1z M27.7,12.2h8.6v-1.4L32,8.9l-4.3,1.8V12.2z M26,13.9V9.6L32,7l6,2.6v4.3H26z M14.8,62.2v-7.4
		l-8.6-8.6V28.6h6v12.6l2.6-2.6l10.3,10.3v13.3h-1.7V49.6L14.8,41L13,42.8l5.9,5.9l-1.2,1.2l-7.2-7.2V30.3H7.9v15.2l8.6,8.6v8.1
		H14.8z M38.9,62.2V48.9l10.3-10.3l2.6,2.6V28.6h6v17.6l-8.6,8.6v7.4h-1.7v-8.1l8.6-8.6V30.3h-2.6v12.4l-7.2,7.2l-1.2-1.2l5.9-5.9
		L49.2,41l-8.6,8.6v12.6H38.9z"/>
	<rect x="-1.6" y="-1.6" class="st0" width="67.3" height="67.3"/>
</g>
</svg>
