<?xml version="1.0" encoding="utf-8"?>
<!-- Generator: Adobe Illustrator 19.1.0, SVG Export Plug-In . SVG Version: 6.00 Build 0)  -->
<svg version="1.1" id="Layer_1" xmlns="http://www.w3.org/2000/svg" xmlns:xlink="http://www.w3.org/1999/xlink" x="0px" y="0px"
	 viewBox="0 0 64 64" style="enable-background:new 0 0 64 64;" xml:space="preserve">
<style type="text/css">
	.st0{fill:#010101;}
	.st1{fill-rule:evenodd;clip-rule:evenodd;fill:none;}
	.st2{fill-rule:evenodd;clip-rule:evenodd;fill:none;stroke:#000000;stroke-linejoin:round;stroke-miterlimit:3.8637;}
</style>
<path d="M53.1,38.2c0.6-2,0.9-4.1,0.9-6.2c0-2.1-0.3-4.2-0.9-6.2L53,25.3l-0.4,0.1c0-0.8,0.1-1.5,0.2-2.3c0.4-3.5,0.8-7-2.1-9.9
	c-1.6-1.6-3.6-2.3-6.3-2.3c-1.2,0-2.4,0.1-3.6,0.3c-0.8,0.1-1.6,0.2-2.2,0.2l0.1-0.4l-0.5-0.1c-4-1.2-8.4-1.2-12.4,0L25.3,11
	l0.1,0.4c-0.8,0-1.5-0.1-2.3-0.2c-1.2-0.1-2.4-0.3-3.7-0.3c-2.7,0-4.6,0.8-6.2,2.4c-2.9,2.9-2.5,6.5-2.1,9.9
	c0.1,0.8,0.2,1.6,0.2,2.2L11,25.3l-0.1,0.5c-0.6,2-0.9,4.1-0.9,6.2c0,2.1,0.3,4.2,0.9,6.2l0.1,0.5l0.4-0.1c0,0.8-0.1,1.5-0.2,2.3
	c-0.4,3.5-0.8,7,2.1,9.9c1.6,1.6,3.6,2.3,6.3,2.3c1.2,0,2.4-0.1,3.6-0.3c0.8-0.1,1.6-0.2,2.2-0.2L25.3,53l0.5,0.1
	c2,0.6,4.1,0.9,6.2,0.9c2.1,0,4.2-0.3,6.2-0.9l0.5-0.1l-0.1-0.4c0.8,0,1.5,0.1,2.3,0.2c1.2,0.1,2.4,0.3,3.6,0.3
	c2.7,0,4.6-0.8,6.2-2.4c2.9-2.9,2.5-6.5,2.1-9.9c-0.1-0.8-0.2-1.6-0.2-2.2l0.4,0.1L53.1,38.2z M41,32c0,5-4,9-9,9s-9-4-9-9
	c0-5,4-9,9-9S41,27,41,32z M21.7,28.2l-6.8-1.8c1.8-5.5,6-9.7,11.5-11.5l1.8,6.8C25.2,22.8,22.8,25.2,21.7,28.2z M49.1,26.4
	l-6.8,1.8c-1.1-3-3.5-5.4-6.5-6.5l1.8-6.8C43.1,16.7,47.3,20.9,49.1,26.4z M21.2,30.1C21.1,30.7,21,31.4,21,32
	c0,0.6,0.1,1.3,0.2,1.9l-8.7,2.3C12.1,34.8,12,33.4,12,32c0-1.4,0.1-2.8,0.4-4.2L21.2,30.1z M14.9,37.6l6.8-1.8
	c1.1,3,3.5,5.4,6.5,6.5l-1.8,6.8C20.9,47.3,16.7,43.1,14.9,37.6z M42.3,35.8l6.8,1.8c-1.8,5.5-6,9.7-11.5,11.5l-1.8-6.8
	C38.8,41.2,41.2,38.8,42.3,35.8z M42.8,33.9c0.1-0.6,0.2-1.2,0.2-1.9c0-0.6-0.1-1.3-0.2-1.9l8.7-2.3c0.3,1.4,0.4,2.8,0.4,4.2
	c0,1.4-0.1,2.8-0.4,4.2L42.8,33.9z M50.8,22.9c-0.1,0.6-0.1,1.1-0.2,1.7c-2-5.2-6.1-9.2-11.2-11.2c0.5,0,1.1-0.1,1.7-0.2
	c1.2-0.1,2.3-0.3,3.4-0.3c2.1,0,3.6,0.5,4.9,1.8C51.5,16.9,51.2,19.7,50.8,22.9z M33.9,21.2C33.3,21.1,32.6,21,32,21
	c-0.6,0-1.3,0.1-1.9,0.2l-2.3-8.7c2.8-0.6,5.7-0.6,8.4,0L33.9,21.2z M23,13.2c0.6,0.1,1.1,0.1,1.7,0.2c-5.2,2-9.2,6.1-11.2,11.2
	c0-0.5-0.1-1.1-0.2-1.7c-0.4-3.2-0.7-6,1.5-8.3c1.2-1.2,2.7-1.8,4.8-1.8C20.6,12.9,21.8,13.1,23,13.2z M13.2,41
	c0.1-0.5,0.1-1.1,0.2-1.7c2,5.2,6.1,9.2,11.2,11.2c-0.6,0.1-1.1,0.1-1.7,0.2c-1.2,0.1-2.3,0.3-3.4,0.3c-2.1,0-3.6-0.5-4.9-1.8
	C12.5,47.1,12.8,44.3,13.2,41z M30.1,42.8c1.2,0.2,2.5,0.2,3.7,0l2.3,8.7c-2.7,0.6-5.7,0.6-8.4,0L30.1,42.8z M50.6,39.4
	c0.1,0.6,0.1,1.1,0.2,1.7c0.4,3.2,0.7,6-1.5,8.3c-1.2,1.2-2.7,1.8-4.8,1.8c-1.1,0-2.2-0.1-3.4-0.3c-0.6-0.1-1.1-0.1-1.7-0.2
	C44.5,48.6,48.6,44.5,50.6,39.4z"/>
</svg>
