<?xml version="1.0" encoding="utf-8"?>
<!-- Generator: Adobe Illustrator 19.1.0, SVG Export Plug-In . SVG Version: 6.00 Build 0)  -->
<svg version="1.1" id="Layer_1" xmlns="http://www.w3.org/2000/svg" xmlns:xlink="http://www.w3.org/1999/xlink" x="0px" y="0px"
	 viewBox="0 0 64 64" style="enable-background:new 0 0 64 64;" xml:space="preserve">
<style type="text/css">
	.st0{fill:#010101;}
	.st1{fill-rule:evenodd;clip-rule:evenodd;fill:none;}
	.st2{fill-rule:evenodd;clip-rule:evenodd;fill:none;stroke:#000000;stroke-linejoin:round;stroke-miterlimit:3.8637;}
</style>
<path d="M23.8,28.8H13.5L10,18.7l1.2-0.4l3.2,9.2h9.4V28.8z M38.3,10.4c0-2.9,2.4-5.3,5.3-5.3c2.9,0,5.3,2.4,5.3,5.3
	s-2.4,5.3-5.3,5.3C40.7,15.6,38.3,13.3,38.3,10.4z M44.8,24.3l-6.9,4.6l-12.7-1.3v-2.6h11.7l6.7-6.6l7-3.5c4,3.9,5.8,7,7,12.5
	c1.4,6.2-1.7,16.1-1.7,16.1H36l-0.8,17.2h-2.9L30,38.3l17.2-2.4L44.8,24.3z M59.2,51.3L58.3,46h-16v5.3H59.2z M64.1,19.7l-4.6,25.5
	l2.7,15.3h-1.3l-1.4-7.9H42.3v7.9H41V46h-2.6v-1.3h19.9l4.5-25.2L64.1,19.7z M26.5,40.7v-9.2H6.7v9.2H26.5z M26.5,60.5V42H6.7v18.5
	H5.3v-29H0.1v-1.3h33v1.3h-5.3v29H26.5z"/>
</svg>
