<?xml version="1.0" encoding="utf-8"?>
<!-- Generator: Adobe Illustrator 19.1.0, SVG Export Plug-In . SVG Version: 6.00 Build 0)  -->
<svg version="1.1" id="Layer_1" xmlns="http://www.w3.org/2000/svg" xmlns:xlink="http://www.w3.org/1999/xlink" x="0px" y="0px"
	 viewBox="0 0 64 64" style="enable-background:new 0 0 64 64;" xml:space="preserve">
<style type="text/css">
	.st0{fill:#010101;}
	.st1{fill-rule:evenodd;clip-rule:evenodd;fill:none;}
</style>
<path d="M59.8,19.1c0.2-0.7,0.3-1.4,0.3-2.2c0-4.3-3.5-7.8-7.8-7.8c-3.2,0-6,2-7.2,4.7c-1-0.9-2.4-1.5-3.9-1.5c-3.2,0-5.9,2.6-5.9,6
	c-0.4-0.1-0.9-0.1-1.3-0.1c-3.6,0-6.5,2.9-6.5,6.5H0v27.4h64V24.7C64,22,62.2,19.8,59.8,19.1z M61.4,49.5H2.6V27.3h58.8V49.5z
	 M55.5,35.2c-1.1,0-2-0.9-2-2s0.9-2,2-2c1.1,0,2,0.9,2,2S56.6,35.2,55.5,35.2z M40.5,32.5h10.4v1.3H40.5V32.5z M36.6,46.9h-30v-17
	h30V46.9z M22.2,45.6h13.1v-3.9H22.2V45.6z M7.8,45.6h13.1v-3.9H7.8V45.6z M20.9,31.2H7.8v3.9h13.1V31.2z M35.3,31.2H22.2v3.9h13.1
	V31.2z M22.2,36.5v3.9h13.1v-3.9H22.2z M20.9,40.4v-3.9H7.8v3.9H20.9z"/>
</svg>
