<?xml version="1.0" encoding="utf-8"?>
<!-- Generator: Adobe Illustrator 19.1.0, SVG Export Plug-In . SVG Version: 6.00 Build 0)  -->
<svg version="1.1" id="Layer_1" xmlns="http://www.w3.org/2000/svg" xmlns:xlink="http://www.w3.org/1999/xlink" x="0px" y="0px"
	 viewBox="0 0 64 64" style="enable-background:new 0 0 64 64;" xml:space="preserve">
<style type="text/css">
	.st0{fill-rule:evenodd;clip-rule:evenodd;fill:none;}
	.st1{fill:#010101;}
</style>
<g>
	<path d="M32,3.7c0.3,0,0.6,0,0.8,0V1.2h-1.6v2.5C31.5,3.7,31.7,3.7,32,3.7z M32,5.3c-8.6,0-15.6,7-15.6,15.6
		c0,8.6,7,15.6,15.6,15.6c8.6,0,15.6-7,15.6-15.6C47.6,12.3,40.6,5.3,32,5.3z M47.7,8.7l-1.2-1.2l-1.8,1.8c2.8,3.1,4.5,7.1,4.5,11.6
		c0,9.5-7.7,17.2-17.2,17.2c-9.5,0-17.2-7.7-17.2-17.2c0-8.7,6.4-15.9,14.8-17.1V1.2h-1.6v-1.6h8.2v1.6h-1.6v2.6
		c3.5,0.5,6.6,2,9.1,4.3l1.8-1.8l-1.2-1.2l1.2-1.2l3.5,3.5L47.7,8.7z M45.1,20.9c0,7.2-5.9,13.1-13.1,13.1s-13.1-5.9-13.1-13.1
		c0-7.3,5.9-13.1,13.1-13.1S45.1,13.7,45.1,20.9z M43.5,20.9c0-6.3-5.1-11.5-11.5-11.5c-6.3,0-11.5,5.1-11.5,11.5S25.7,32.4,32,32.4
		C38.3,32.4,43.5,27.3,43.5,20.9z M24.6,15.7c0.4,0.2,0.5,0.7,0.3,1.1c-0.2,0.4-0.7,0.5-1.1,0.3c-0.4-0.2-0.5-0.7-0.3-1.1
		C23.7,15.6,24.2,15.5,24.6,15.7z M33.6,20.9c0-0.9-0.7-1.6-1.6-1.6s-1.6,0.7-1.6,1.6c0,0.9,0.7,1.6,1.6,1.6
		C32.9,22.6,33.6,21.8,33.6,20.9z M41,21.7l-5.8,0c-0.4,1.4-1.6,2.5-3.2,2.5c-1.8,0-3.3-1.5-3.3-3.3c0-1.8,1.5-3.3,3.3-3.3
		c1.5,0,2.8,1,3.2,2.5l5.8,0c0.5,0,0.8,0.4,0.8,0.8C41.8,21.4,41.5,21.7,41,21.7z M31.2,11.9c0-0.5,0.4-0.8,0.8-0.8
		c0.5,0,0.8,0.4,0.8,0.8c0,0.5-0.4,0.8-0.8,0.8C31.5,12.7,31.2,12.4,31.2,11.9z M31.2,29.9c0-0.5,0.4-0.8,0.8-0.8
		c0.5,0,0.8,0.4,0.8,0.8c0,0.5-0.4,0.8-0.8,0.8C31.5,30.8,31.2,30.4,31.2,29.9z M23,20.1c0.5,0,0.8,0.4,0.8,0.8s-0.4,0.8-0.8,0.8
		c-0.5,0-0.8-0.4-0.8-0.8S22.5,20.1,23,20.1z M26.8,13.5c-0.2-0.4-0.1-0.9,0.3-1.1c0.4-0.2,0.9-0.1,1.1,0.3c0.2,0.4,0.1,0.9-0.3,1.1
		C27.5,14,27,13.9,26.8,13.5z M35.8,29.1c-0.2-0.4-0.1-0.9,0.3-1.1c0.4-0.2,0.9-0.1,1.1,0.3c0.2,0.4,0.1,0.9-0.3,1.1
		C36.5,29.7,36,29.5,35.8,29.1z M39.4,15.7c0.4-0.2,0.9-0.1,1.1,0.3c0.2,0.4,0.1,0.9-0.3,1.1c-0.4,0.2-0.9,0.1-1.1-0.3
		C38.9,16.4,39,15.9,39.4,15.7z M23.8,24.7c0.4-0.2,0.9-0.1,1.1,0.3c0.2,0.4,0.1,0.9-0.3,1.1c-0.4,0.2-0.9,0.1-1.1-0.3
		C23.2,25.5,23.4,25,23.8,24.7z M35.8,12.7c0.2-0.4,0.7-0.5,1.1-0.3c0.4,0.2,0.5,0.7,0.3,1.1c-0.2,0.4-0.7,0.5-1.1,0.3
		C35.7,13.6,35.6,13.1,35.8,12.7z M26.8,28.3c0.2-0.4,0.7-0.5,1.1-0.3c0.4,0.2,0.5,0.7,0.3,1.1c-0.2,0.4-0.7,0.5-1.1,0.3
		C26.7,29.2,26.5,28.7,26.8,28.3z M40.2,24.7c0.4,0.2,0.5,0.7,0.3,1.1c-0.2,0.4-0.7,0.5-1.1,0.3c-0.4-0.2-0.5-0.7-0.3-1.1
		C39.3,24.6,39.8,24.5,40.2,24.7z M38.6,61.1V48.5l9.8-9.8l2.5,2.5v-12h5.7v16.8l-8.2,8.2v7h-1.6v-7.7l8.2-8.2V30.8h-2.5v11.8
		l-6.8,6.8l-1.2-1.2l5.6-5.6L48.4,41l-8.2,8.2v12H38.6z M15.6,61.1v-7l-8.2-8.2V29.1h5.7v12l2.5-2.5l9.8,9.8v12.6h-1.6v-12L15.6,41
		l-1.7,1.7l5.6,5.6l-1.2,1.2l-6.8-6.8V30.8H9v14.4l8.2,8.2v7.7H15.6z"/>
	<rect y="0.4" class="st0" width="64" height="64"/>
</g>
</svg>
