<?xml version="1.0" encoding="utf-8"?>
<!-- Generator: Adobe Illustrator 19.1.0, SVG Export Plug-In . SVG Version: 6.00 Build 0)  -->
<svg version="1.1" id="Layer_1" xmlns="http://www.w3.org/2000/svg" xmlns:xlink="http://www.w3.org/1999/xlink" x="0px" y="0px"
	 viewBox="0 0 64 64" style="enable-background:new 0 0 64 64;" xml:space="preserve">
<style type="text/css">
	.st0{fill:#010101;}
</style>
<path d="M32,48.4c9.1,0,16.4-7.3,16.4-16.4c0-9.1-7.3-16.4-16.4-16.4S15.6,22.9,15.6,32C15.6,41.1,22.9,48.4,32,48.4z M32,17.2
	c7,0,12.9,4.9,14.4,11.5l-7.3,0l-1.8,5.5l-3.9-12.1h-1.7l-5,15.4L24.8,32l-7.6,0C17.2,23.8,23.8,17.2,32,17.2z M23.6,33.6l2.1,6.6
	h1.7l5-15.4l3.9,12.1h1.7l2.1-6.6h6.4c0.1,0.5,0.1,1.1,0.1,1.6c0,8.2-6.6,14.8-14.8,14.8c-7.6,0-13.9-5.7-14.7-13.1H23.6z M0,0v64
	h64V0H0z M62.4,62.4H1.6V1.6h60.7V62.4z"/>
</svg>
