<?xml version="1.0" encoding="utf-8"?>
<!-- Generator: Adobe Illustrator 19.1.0, SVG Export Plug-In . SVG Version: 6.00 Build 0)  -->
<svg version="1.1" id="Layer_1" xmlns="http://www.w3.org/2000/svg" xmlns:xlink="http://www.w3.org/1999/xlink" x="0px" y="0px"
	 viewBox="0 0 64 64" style="enable-background:new 0 0 64 64;" xml:space="preserve">
<style type="text/css">
	.st0{fill-rule:evenodd;clip-rule:evenodd;fill:none;}
	.st1{fill:none;}
	.st2{fill:#010101;}
	.st3{fill:#020202;}
</style>
<path d="M23.3,28.7l-3.9,3.9l3.9,3.9L21.8,38l-3.9-3.9L14,38l-1.5-1.5l3.9-3.9l-3.9-3.9l1.5-1.5l3.9,3.9l3.9-3.9L23.3,28.7z
	 M14,11.9L17.9,8l3.9,3.9l1.5-1.5l-3.9-3.9l3.9-3.9l-1.5-1.5L17.9,5L14,1.1l-1.5,1.5l3.9,3.9l-3.9,3.9L14,11.9z M47.8,14.1L43.9,18
	L40,14.1l-1.5,1.5l3.9,3.9l-3.9,3.9l1.5,1.5l3.9-3.9l3.9,3.9l1.5-1.5l-3.9-3.9l3.9-3.9L47.8,14.1z M40,51l3.9-3.9l3.9,3.9l1.5-1.5
	l-3.9-3.9l3.9-3.9l-1.5-1.5L43.9,44L40,40.1l-1.5,1.5l3.9,3.9l-3.9,3.9L40,51z M29.8,31.5H58v28.2H11.3C10.8,62.1,8.6,64,6,64
	c-3,0-5.4-2.4-5.4-5.4c0-3,2.4-5.4,5.4-5.4c2.6,0,4.8,1.9,5.3,4.3h44.6V33.6H32v13H3.8V18.4h26v-13h29.5l-3.9-3.9L56.9,0l6.5,6.5
	L56.9,13l-1.5-1.5l3.9-3.9H32v13H6v23.9h23.9V31.5z M9.2,58.6c0-1.8-1.5-3.3-3.3-3.3c-1.8,0-3.3,1.5-3.3,3.3c0,1.8,1.5,3.3,3.3,3.3
	C7.8,61.8,9.2,60.4,9.2,58.6z"/>
</svg>
