<?xml version="1.0" encoding="utf-8"?>
<!-- Generator: Adobe Illustrator 19.1.0, SVG Export Plug-In . SVG Version: 6.00 Build 0)  -->
<svg version="1.1" id="Layer_1" xmlns="http://www.w3.org/2000/svg" xmlns:xlink="http://www.w3.org/1999/xlink" x="0px" y="0px"
	 viewBox="0 0 64 64" style="enable-background:new 0 0 64 64;" xml:space="preserve">
<style type="text/css">
	.st0{fill:#010101;}
	.st1{fill-rule:evenodd;clip-rule:evenodd;fill:none;}
	.st2{fill-rule:evenodd;clip-rule:evenodd;fill:none;stroke:#000000;stroke-linejoin:round;stroke-miterlimit:3.8637;}
</style>
<path class="st0" d="M45.6,62.9h-8.7v-2.2h8.7V62.9z M32.5,62.9h-8.7v-2.2h8.7V62.9z M19.5,62.9h-8.7v-2.2h8.7V62.9z M64,58.6H3.3
	v-6.5H0v-2.2h3.3v-3.3H0v-2.2h3.3v-3.3H0v-2.2h3.3v-3.3H0v-2.2h3.3v-3.3H0v-2.2h3.3v-3.3H0v-2.2h3.3v-3.3H0v-2.2h3.3v-3.3H0v-2.2
	h3.3V8.7H0V6.5h3.3V3.3H0V1.1h5.4v55.3H64V58.6z M58.6,62.9h-8.7v-2.2h8.7V62.9z M56.4,23.9h-4.3v26h4.3V23.9z M49.9,21.7h8.7v30.4
	h-8.7V21.7z M17.4,26H13v23.9h4.3V26z M10.8,23.9h8.7v28.2h-8.7V23.9z M30.4,10.8H26v39.1h4.3V10.8z M23.9,8.7h8.7v43.4h-8.7V8.7z
	 M43.4,32.5h-4.3v17.4h4.3V32.5z M36.9,30.4h8.7v21.7h-8.7V30.4z"/>
</svg>
