<?xml version="1.0" encoding="utf-8"?>
<!-- Generator: Adobe Illustrator 19.1.0, SVG Export Plug-In . SVG Version: 6.00 Build 0)  -->
<svg version="1.1" id="Layer_1" xmlns="http://www.w3.org/2000/svg" xmlns:xlink="http://www.w3.org/1999/xlink" x="0px" y="0px"
	 viewBox="0 0 64 64" style="enable-background:new 0 0 64 64;" xml:space="preserve">
<style type="text/css">
	.st0{fill-rule:evenodd;clip-rule:evenodd;fill:none;}
	.st1{fill:#010101;}
</style>
<g>
	<g>
		<rect x="-1.6" y="-1.6" class="st0" width="67.3" height="67.3"/>
	</g>
	<path class="st1" d="M14.8,62.2v-7.4l-8.6-8.6V28.6h6v12.6l2.6-2.6l10.3,10.3v13.3h-1.7V49.6L14.8,41L13,42.8l5.9,5.9l-1.2,1.2
		l-7.2-7.2V30.3H7.9v15.2l8.6,8.6v8.1H14.8z M38.9,62.2V48.9l10.3-10.3l2.6,2.6V28.6h6v17.6l-8.6,8.6v7.4h-1.7v-8.1l8.6-8.6V30.3
		h-2.6v12.4l-7.2,7.2l-1.2-1.2l5.9-5.9L49.2,41l-8.6,8.6v12.6H38.9z M46.7,6.1l-0.2,0c-5,0.1-10.1-0.9-14.5-3.3
		c-4.5,2.5-9.7,3.4-14.7,3.3v15.5c0,3.7,1.5,7.1,3.8,9.9l7.4-7.4h-3.4l8.6-6.9h-3.4l16.1-11L38,14.6h3.4l-8.6,6.9h3.4l-15,10.3
		c2.7,3.2,6.6,5.7,10.7,7.1c7.6-2.7,14.7-9.1,14.7-17.2V6.1z M32,0.8c4.9,3,10.8,3.9,16.4,3.5v17.3c0,9.4-8.2,16.4-16.4,19
		c-8.2-2.7-16.4-9.6-16.4-19V4.3C21.2,4.7,27.1,3.8,32,0.8z"/>
</g>
</svg>
