<?xml version="1.0" encoding="utf-8"?>
<!-- Generator: Adobe Illustrator 19.1.0, SVG Export Plug-In . SVG Version: 6.00 Build 0)  -->
<svg version="1.1" id="Layer_1" xmlns="http://www.w3.org/2000/svg" xmlns:xlink="http://www.w3.org/1999/xlink" x="0px" y="0px"
	 viewBox="0 0 64 64" style="enable-background:new 0 0 64 64;" xml:space="preserve">
<style type="text/css">
	.st0{fill:#010101;}
	.st1{fill-rule:evenodd;clip-rule:evenodd;fill:none;}
	.st2{fill-rule:evenodd;clip-rule:evenodd;fill:none;stroke:#000000;stroke-linejoin:round;stroke-miterlimit:3.8637;}
</style>
<path d="M17.6,24.9l-8.4,2.3L32,33.5l22.8-6.3l-8.4-2.3l-14.4,4L17.6,24.9z M4.9,29.3v6.3L32,43.1l27.1-7.5v-6.3L32,36.9L4.9,29.3z
	 M52.3,23.2l10,2.8v12l-10,2.8l10,2.8v12L32,64L1.7,55.6v-12l10-2.8L1.7,38V26l10-2.8l-10-2.8v-12L32,0l30.3,8.4v12L52.3,23.2z
	 M46.4,42.4l-14.4,4l-14.4-4l-8.4,2.3L32,51.1l22.8-6.3L46.4,42.4z M59.1,46.9L32,54.4L4.9,46.9v6.3L32,60.7l27.1-7.5V46.9z
	 M9.2,9.6L32,16l22.8-6.3L32,3.3L9.2,9.6z M59.1,11.7L32,19.3L4.9,11.7V18L32,25.6L59.1,18V11.7z"/>
</svg>
