<?xml version="1.0" encoding="utf-8"?>
<!-- Generator: Adobe Illustrator 19.1.0, SVG Export Plug-In . SVG Version: 6.00 Build 0)  -->
<svg version="1.1" id="Layer_1" xmlns="http://www.w3.org/2000/svg" xmlns:xlink="http://www.w3.org/1999/xlink" x="0px" y="0px"
	 viewBox="0 0 64 64" style="enable-background:new 0 0 64 64;" xml:space="preserve">
<style type="text/css">
	.st0{fill:#010101;}
</style>
<path d="M0,20.9h64v22.2H0V20.9z M61.4,40.5v-17H2.6v17H61.4z M22.2,36.6h13.1v-3.9H22.2V36.6z M7.8,36.6h13.1v-3.9H7.8V36.6z
	 M20.9,27.4H7.8v3.9h13.1V27.4z M35.3,27.4H22.2v3.9h13.1V27.4z M36.6,26.1v11.8h-30V26.1H36.6z M55.5,31.3c-1.1,0-2-0.9-2-2
	s0.9-2,2-2c1.1,0,2,0.9,2,2S56.6,31.3,55.5,31.3z M40.5,28.7h10.4V30H40.5V28.7z"/>
</svg>
