<?xml version="1.0" encoding="utf-8"?>
<!-- Generator: Adobe Illustrator 19.1.0, SVG Export Plug-In . SVG Version: 6.00 Build 0)  -->
<svg version="1.1" id="Layer_1" xmlns="http://www.w3.org/2000/svg" xmlns:xlink="http://www.w3.org/1999/xlink" x="0px" y="0px"
	 viewBox="0 0 64 64" style="enable-background:new 0 0 64 64;" xml:space="preserve">
<style type="text/css">
	.st0{fill-rule:evenodd;clip-rule:evenodd;fill:none;}
	.st1{fill:#010101;}
</style>
<g>
	<rect x="-1.2" y="-1.2" class="st0" width="66.4" height="66.4"/>
	<path class="st1" d="M38.8,62.2V49.1L49,38.9l2.6,2.6V29h6v17.4L49,54.9v7.3h-1.7v-8l8.5-8.5v-15h-2.6V43l-7.1,7.1L45,48.9l5.8-5.8
		L49,41.3l-8.5,8.5v12.4H38.8z M15,62.2v-7.3l-8.5-8.5V29h6v12.4l2.6-2.6l10.2,10.2v13.1h-1.7V49.8L15,41.3l-1.8,1.8l5.8,5.8
		l-1.2,1.2L10.7,43V30.7H8.2v15l8.5,8.5v8H15z M32,39.2c-0.2,0-0.7,0-1,0l-0.4,0l-0.2-0.3c-0.4-0.6-1-1.6-1.2-3.2c0-0.1,0-0.2,0-0.3
		c-0.5-0.1-1.1-0.2-1.7-0.4c0,0-0.1,0.1-0.1,0.2c-1,1.3-2,1.8-2.7,2.2l-0.3,0.2L24,37.3c-0.3-0.1-0.7-0.4-0.9-0.5
		c-0.2-0.1-0.6-0.3-0.9-0.6l-0.3-0.2l0-0.4c-0.1-0.8-0.1-1.9,0.5-3.4c0-0.1,0.1-0.2,0.1-0.2c-0.4-0.3-0.8-0.8-1.2-1.2
		c0,0-0.1,0-0.2,0.1c-0.9,0.4-1.8,0.6-2.7,0.6c-0.2,0-0.5,0-0.7,0l-0.4,0l-0.2-0.3c-0.2-0.3-0.4-0.6-0.6-0.9
		c-0.1-0.2-0.3-0.6-0.5-0.9L15.9,29l0.2-0.3c0.3-0.7,0.9-1.7,2.1-2.6c0.1-0.1,0.2-0.1,0.2-0.2c-0.2-0.5-0.4-1.1-0.5-1.6
		c0,0-0.1,0-0.2,0c-1.6-0.2-2.6-0.8-3.2-1.2l-0.3-0.2l0-0.4c0-0.4,0-0.8,0-1c0-0.2,0-0.7,0-1l0-0.4l0.3-0.2c0.6-0.4,1.6-1,3.2-1.2
		c0.1,0,0.2,0,0.3,0c0.1-0.5,0.2-1.1,0.4-1.7c0,0-0.1-0.1-0.2-0.1c-1.3-1-1.8-2-2.2-2.7l-0.2-0.3l0.1-0.3c0.1-0.3,0.4-0.7,0.5-0.9
		c0.1-0.2,0.3-0.6,0.6-0.9l0.2-0.3l0.4,0c0.2,0,0.4,0,0.7,0c0.9,0,1.8,0.2,2.7,0.6c0.1,0,0.2,0.1,0.2,0.1c0.3-0.4,0.8-0.8,1.2-1.2
		c0,0,0-0.1-0.1-0.2c-0.6-1.5-0.6-2.6-0.5-3.4l0-0.4l0.3-0.2c0.3-0.2,0.6-0.4,0.9-0.6c0.2-0.1,0.6-0.3,0.9-0.5l0.3-0.1l0.3,0.2
		c0.7,0.3,1.7,0.9,2.6,2.1c0.1,0.1,0.1,0.2,0.2,0.2c0.5-0.2,1.1-0.4,1.6-0.5c0,0,0-0.1,0-0.2c0.2-1.6,0.8-2.6,1.2-3.2l0.2-0.3l0.4,0
		c0.4,0,0.8,0,1,0c0.3,0,0.7,0,1,0l0.4,0l0.2,0.3c0.4,0.6,1,1.6,1.2,3.2c0,0.1,0,0.2,0,0.3c0.5,0.1,1.1,0.2,1.7,0.4
		c0,0,0.1-0.1,0.1-0.2c1-1.3,2-1.8,2.7-2.2l0.3-0.2L40,5.4c0.3,0.1,0.7,0.4,0.9,0.5c0.2,0.1,0.6,0.3,0.9,0.6l0.3,0.2l0,0.4
		c0.1,0.7,0.1,1.9-0.5,3.4c0,0.1-0.1,0.2-0.1,0.2c0.4,0.3,0.8,0.8,1.2,1.2c0,0,0.1,0,0.2-0.1c0.9-0.4,1.8-0.6,2.7-0.6
		c0.2,0,0.5,0,0.7,0l0.4,0l0.2,0.3c0.2,0.3,0.4,0.6,0.6,0.9c0.1,0.2,0.3,0.6,0.5,0.9l0.1,0.3L47.9,14c-0.3,0.7-0.9,1.7-2.1,2.6
		c-0.1,0.1-0.2,0.1-0.2,0.2c0.2,0.5,0.4,1.1,0.5,1.6c0,0,0.1,0,0.2,0c1.6,0.2,2.6,0.8,3.2,1.2l0.3,0.2l0,0.4c0,0.4,0.1,0.8,0.1,1
		c0,0.2,0,0.7-0.1,1l0,0.4L49.5,23c-0.6,0.4-1.6,1-3.2,1.2c-0.1,0-0.2,0-0.3,0c-0.1,0.5-0.2,1.1-0.4,1.7c0,0,0.1,0.1,0.2,0.1
		c1.3,1,1.8,2,2.2,2.7l0.2,0.3L48,29.4c-0.1,0.3-0.4,0.7-0.5,0.9c-0.1,0.2-0.3,0.6-0.6,0.9l-0.2,0.3l-0.4,0c-0.2,0-0.4,0-0.7,0
		c-0.9,0-1.8-0.2-2.7-0.6c-0.1,0-0.2-0.1-0.2-0.1c-0.3,0.4-0.8,0.8-1.2,1.2c0,0,0,0.1,0.1,0.2c0.6,1.5,0.6,2.6,0.5,3.4l0,0.4
		l-0.3,0.2c-0.3,0.2-0.7,0.4-0.9,0.6c-0.2,0.1-0.6,0.3-0.9,0.5l-0.3,0.1l-0.3-0.2c-0.7-0.3-1.7-0.9-2.6-2.1
		c-0.1-0.1-0.1-0.2-0.2-0.2c-0.5,0.2-1.1,0.4-1.6,0.5c0,0,0,0.1,0,0.2c-0.2,1.6-0.8,2.6-1.2,3.2l-0.2,0.3l-0.4,0
		C32.7,39.2,32.2,39.2,32,39.2z M31.6,37.5c0.3,0,0.6,0,0.9,0c0.3-0.5,0.6-1.1,0.7-2.1c0.1-0.9,0.6-1.5,1.4-1.7
		c0.5-0.1,1-0.2,1.5-0.4c0.2-0.1,0.4-0.1,0.5-0.1c0.8,0,1.3,0.6,1.5,0.8c0.6,0.8,1.2,1.2,1.7,1.5l0.4-0.2l0.4-0.2
		c0-0.6-0.1-1.3-0.4-2.2c-0.4-0.9-0.3-1.6,0.4-2.1c0.4-0.3,0.7-0.7,1.1-1.1c0.3-0.4,0.8-0.6,1.2-0.6c0.4,0,0.7,0.1,0.9,0.2
		c0.7,0.3,1.5,0.4,2.2,0.4l0.2-0.4l0.2-0.4c-0.3-0.5-0.7-1.1-1.4-1.7c-0.3-0.2-1.1-0.8-0.8-2c0.2-0.5,0.3-1,0.4-1.5
		c0.2-0.8,0.7-1.3,1.7-1.4c1-0.1,1.6-0.4,2.1-0.7l0-0.4l0-0.4c-0.5-0.3-1.1-0.6-2.1-0.7c-0.9-0.1-1.5-0.6-1.7-1.4
		c-0.1-0.5-0.2-1-0.4-1.5c-0.3-1.2,0.5-1.8,0.8-2c0.8-0.6,1.2-1.2,1.5-1.7L46,13.3l-0.2-0.4c-0.7,0-1.4,0.1-2.2,0.4
		c-0.2,0.1-0.5,0.2-0.9,0.2c-0.5,0-0.9-0.2-1.2-0.6c-0.3-0.4-0.7-0.7-1.1-1.1c-0.6-0.6-0.7-1.3-0.4-2.1c0.4-0.9,0.4-1.6,0.4-2.2
		l-0.4-0.2l-0.4-0.2c-0.5,0.3-1.1,0.7-1.7,1.4c-0.2,0.3-0.6,0.8-1.5,0.8c-0.2,0-0.3,0-0.5-0.1c-0.5-0.2-1-0.3-1.5-0.4
		c-0.8-0.2-1.3-0.7-1.4-1.7c-0.1-1-0.4-1.6-0.7-2.1c-0.3,0-0.6,0-0.9,0c-0.3,0.5-0.6,1.1-0.7,2.1c-0.1,0.9-0.6,1.5-1.4,1.7
		C29,9,28.4,9.2,28,9.3c-0.2,0.1-0.4,0.1-0.5,0.1c-0.8,0-1.3-0.6-1.5-0.8c-0.6-0.8-1.2-1.2-1.7-1.5l-0.4,0.2l-0.4,0.2
		c0,0.6,0.1,1.3,0.4,2.2c0.4,0.9,0.3,1.6-0.4,2.1c-0.4,0.3-0.7,0.7-1.1,1.1c-0.3,0.4-0.8,0.6-1.2,0.6c-0.4,0-0.7-0.1-0.9-0.2
		c-0.7-0.3-1.5-0.4-2.2-0.4L18,13.3l-0.2,0.4c0.3,0.5,0.7,1.1,1.4,1.7c0.3,0.2,1.1,0.8,0.8,2c-0.2,0.5-0.3,1-0.4,1.5
		c-0.2,0.8-0.7,1.3-1.7,1.4c-1,0.1-1.6,0.4-2.1,0.7l0,0.4l0,0.4c0.5,0.3,1.1,0.6,2.1,0.7c0.9,0.1,1.5,0.6,1.7,1.4
		c0.1,0.5,0.2,1,0.4,1.5c0.3,0.8,0,1.5-0.7,2c-0.8,0.6-1.2,1.2-1.5,1.7l0.2,0.4l0.2,0.4c0.7,0,1.4-0.1,2.2-0.4
		c0.2-0.1,0.5-0.2,0.9-0.2c0.5,0,0.9,0.2,1.2,0.6c0.3,0.4,0.7,0.7,1.1,1.1c0.6,0.6,0.7,1.3,0.4,2.1c-0.4,0.9-0.4,1.6-0.4,2.2
		l0.4,0.2l0.4,0.2c0.5-0.3,1.1-0.7,1.7-1.4c0.2-0.3,0.6-0.9,1.5-0.9c0.2,0,0.4,0,0.6,0.1c0.5,0.2,1,0.3,1.5,0.4
		c0.8,0.2,1.3,0.7,1.4,1.7C31,36.4,31.3,37,31.6,37.5z M32,13.7c-4.2,0-7.7,3.4-7.7,7.7c0,1.5,0.4,3,1.2,4.2l-1.3,1.2
		c-1.1-1.5-1.7-3.4-1.7-5.3c0-5.2,4.2-9.4,9.4-9.4c1.8,0,3.5,0.5,4.9,1.4l-1.7,1C34.2,13.9,33.1,13.7,32,13.7z M28.8,28.3
		c1,0.5,2.1,0.7,3.2,0.7c4.2,0,7.7-3.4,7.7-7.7c0-1.5-0.5-3-1.2-4.2l1.3-1.2c1.1,1.5,1.7,3.4,1.7,5.3c0,5.2-4.2,9.4-9.4,9.4
		c-1.8,0-3.5-0.5-4.9-1.4L28.8,28.3z M39.7,13.7l-5.3,5l2.3,0.2l-4.8,3.9l2.3,0.2l-9.9,6l5.3-5l-2.3-0.2l4.8-3.9l-2.3-0.2L39.7,13.7
		z"/>
</g>
</svg>
