<?xml version="1.0" encoding="utf-8"?>
<!-- Generator: Adobe Illustrator 19.1.0, SVG Export Plug-In . SVG Version: 6.00 Build 0)  -->
<svg version="1.1" id="Layer_1" xmlns="http://www.w3.org/2000/svg" xmlns:xlink="http://www.w3.org/1999/xlink" x="0px" y="0px"
	 viewBox="0 0 64 64" style="enable-background:new 0 0 64 64;" xml:space="preserve">
<style type="text/css">
	.st0{fill:none;}
	.st1{fill:#010101;}
</style>
<path d="M5.6,33.9l6.4-6.4l6.4,6.4l-1.4,1.4l-3.9-4V32c0,10.5,8.5,19,19,19c8.4,0,15.5-5.4,18-13l1.6,1.6C48.5,47.4,40.9,53,32,53
	c-11.6,0-21-9.4-21-21v-0.6l-3.9,4L5.6,33.9z M58.4,30L52,36.4L45.6,30l1.4-1.4l3.9,4V32c0-10.5-8.5-19-19-19c-8.4,0-15.5,5.4-18,13
	l-1.6-1.6C15.5,16.6,23.1,11,32,11c11.6,0,21,9.4,21,21v0.6l3.9-4L58.4,30z M38,41c-0.3,0-0.7,0-1-0.1c-0.3-0.1-0.6-0.2-0.9-0.3
	c-0.3-0.1-0.6-0.3-0.8-0.5c-0.3-0.2-0.5-0.4-0.7-0.6c-0.2-0.2-0.4-0.5-0.6-0.7c-0.2-0.3-0.3-0.6-0.5-0.8c-0.1-0.3-0.2-0.6-0.3-0.9
	C33,36.7,33,36.3,33,36h2c0,0.2,0,0.4,0.1,0.6c0,0.2,0.1,0.4,0.2,0.6c0.1,0.2,0.2,0.4,0.3,0.5c0.1,0.2,0.2,0.3,0.4,0.4
	c0.1,0.1,0.3,0.3,0.4,0.4c0.2,0.1,0.3,0.2,0.5,0.3c0.2,0.1,0.4,0.1,0.6,0.2c0.4,0.1,0.8,0.1,1.2,0c0.2,0,0.4-0.1,0.6-0.2
	c0.2-0.1,0.3-0.2,0.5-0.3c0.2-0.1,0.3-0.2,0.4-0.4c0.1-0.1,0.3-0.3,0.4-0.4c0.1-0.2,0.2-0.3,0.3-0.5c0.1-0.2,0.1-0.4,0.2-0.6
	c0-0.2,0.1-0.4,0.1-0.6c0-2.2-1-2.5-2.6-2.9L37.7,33l-0.6-0.2c-1.6-0.4-4.1-1-4.1-4.8c0-0.3,0-0.7,0.1-1c0.1-0.3,0.2-0.6,0.3-0.9
	c0.1-0.3,0.3-0.6,0.5-0.8c0.2-0.3,0.4-0.5,0.6-0.7c0.2-0.2,0.5-0.4,0.7-0.6c0.3-0.2,0.6-0.3,0.8-0.5c0.3-0.1,0.6-0.2,0.9-0.3
	c0.7-0.1,1.4-0.1,2,0c0.3,0.1,0.6,0.2,0.9,0.3c0.3,0.1,0.6,0.3,0.8,0.5c0.3,0.2,0.5,0.4,0.7,0.6c0.2,0.2,0.4,0.5,0.6,0.7
	c0.2,0.3,0.3,0.6,0.5,0.9c0.1,0.3,0.2,0.6,0.3,0.9c0.1,0.3,0.1,0.7,0.1,1h-2c0-0.2,0-0.4-0.1-0.6c0-0.2-0.1-0.4-0.2-0.6
	c-0.1-0.2-0.2-0.3-0.3-0.5c-0.1-0.2-0.2-0.3-0.4-0.4c-0.1-0.1-0.3-0.3-0.4-0.4c-0.2-0.1-0.3-0.2-0.5-0.3c-0.2-0.1-0.4-0.1-0.6-0.2
	c-0.4-0.1-0.8-0.1-1.2,0c-0.2,0-0.4,0.1-0.6,0.2c-0.2,0.1-0.4,0.2-0.5,0.3c-0.2,0.1-0.3,0.2-0.4,0.4c-0.1,0.1-0.3,0.3-0.4,0.4
	c-0.1,0.2-0.2,0.3-0.3,0.5c-0.1,0.2-0.1,0.4-0.2,0.6c0,0.2-0.1,0.4-0.1,0.6c0,2.2,1,2.5,2.6,2.9l0.7,0.2l0.6,0.2
	c1.6,0.4,4.1,1,4.1,4.8c0,0.3,0,0.7-0.1,1c-0.1,0.3-0.2,0.6-0.3,0.9c-0.1,0.3-0.3,0.6-0.5,0.8c-0.2,0.3-0.4,0.5-0.6,0.7
	c-0.2,0.2-0.5,0.4-0.7,0.6c-0.3,0.2-0.6,0.3-0.9,0.5c-0.3,0.1-0.6,0.2-0.9,0.3C38.7,41,38.3,41,38,41z M26,41c-2.8,0-5-2.2-5-5v-8
	c0-2.8,2.2-5,5-5c2.8,0,5,2.2,5,5v8C31,38.8,28.8,41,26,41z M26,25c-1.7,0-3,1.3-3,3v8c0,1.7,1.3,3,3,3s3-1.3,3-3v-8
	C29,26.3,27.7,25,26,25z"/>
</svg>
