<?xml version="1.0" encoding="utf-8"?>
<!-- Generator: Adobe Illustrator 19.1.0, SVG Export Plug-In . SVG Version: 6.00 Build 0)  -->
<svg version="1.1" id="Layer_1" xmlns="http://www.w3.org/2000/svg" xmlns:xlink="http://www.w3.org/1999/xlink" x="0px" y="0px"
	 viewBox="0 0 64 64" style="enable-background:new 0 0 64 64;" xml:space="preserve">
<style type="text/css">
	.st0{fill:#010101;}
</style>
<path d="M0,18.3h64v27.4H0V18.3z M61.4,43.1V20.9H2.6v22.2H61.4z M22.2,39.2h13.1v-3.9H22.2V39.2z M7.8,39.2h13.1v-3.9H7.8V39.2z
	 M20.9,24.8H7.8v3.9h13.1V24.8z M35.3,24.8H22.2v3.9h13.1V24.8z M22.2,30V34h13.1V30H22.2z M20.9,34V30H7.8V34H20.9z M36.6,40.5h-30
	v-17h30V40.5z M55.5,28.7c-1.1,0-2-0.9-2-2s0.9-2,2-2c1.1,0,2,0.9,2,2S56.6,28.7,55.5,28.7z M40.5,26.1h10.4v1.3H40.5V26.1z"/>
</svg>
