<?xml version="1.0" encoding="utf-8"?>
<!-- Generator: Adobe Illustrator 19.1.0, SVG Export Plug-In . SVG Version: 6.00 Build 0)  -->
<svg version="1.1" id="Layer_1" xmlns="http://www.w3.org/2000/svg" xmlns:xlink="http://www.w3.org/1999/xlink" x="0px" y="0px"
	 viewBox="0 0 64 64" style="enable-background:new 0 0 64 64;" xml:space="preserve">
<style type="text/css">
	.st0{fill-rule:evenodd;clip-rule:evenodd;fill:none;}
	.st1{fill:#010101;}
</style>
<g>
	<rect x="0.2" y="0.4" class="st0" width="63.6" height="63.6"/>
	<path class="st1" d="M43.4,16.3C43.4,10,38.3,4.9,32,4.9c-6.3,0-11.4,5.1-11.4,11.4S25.7,27.7,32,27.7
		C38.3,27.7,43.4,22.6,43.4,16.3z M44.1,7.7L43,6.5l-1.2,1.2c2,2.3,3.3,5.3,3.3,8.6c0,7.2-5.8,13-13,13c-7.2,0-13-5.8-13-13
		c0-6.9,5.4-12.6,12.2-13V1.6h-1.6V0h4.9v1.6h-1.6l0,1.7c3,0.2,5.7,1.4,7.8,3.2l1.2-1.2l-1.2-1.2L41.8,3l3.5,3.5L44.1,7.7z
		 M23.8,16.3c0,4.5,3.6,8.2,8.2,8.2c4.5,0,8.2-3.6,8.2-8.2S36.5,8.2,32,8.2C27.5,8.2,23.8,11.8,23.8,16.3z M22.2,16.3
		c0-5.4,4.4-9.8,9.8-9.8s9.8,4.4,9.8,9.8c0,5.4-4.4,9.8-9.8,9.8S22.2,21.7,22.2,16.3z M27.1,12.3c0-0.5,0.4-0.8,0.8-0.8
		c0.4,0,0.8,0.4,0.8,0.8c0,0.4-0.4,0.8-0.8,0.8C27.5,13.1,27.1,12.7,27.1,12.3z M31.2,22c0-0.5,0.4-0.8,0.8-0.8
		c0.4,0,0.8,0.4,0.8,0.8s-0.4,0.8-0.8,0.8C31.5,22.8,31.2,22.5,31.2,22z M25.5,16.3c0-0.5,0.4-0.8,0.8-0.8c0.4,0,0.8,0.4,0.8,0.8
		s-0.4,0.8-0.8,0.8C25.8,17.1,25.5,16.8,25.5,16.3z M36.9,16.3c0-0.5,0.4-0.8,0.8-0.8c0.4,0,0.8,0.4,0.8,0.8s-0.4,0.8-0.8,0.8
		C37.3,17.1,36.9,16.8,36.9,16.3z M31.2,10.6c0-0.5,0.4-0.8,0.8-0.8c0.4,0,0.8,0.4,0.8,0.8s-0.4,0.8-0.8,0.8
		C31.5,11.4,31.2,11,31.2,10.6z M32.6,16.9c-0.8,0.8-1.9-0.4-1.2-1.2l4-4c0.3-0.3,0.8-0.3,1.2,0c0.3,0.3,0.3,0.8,0,1.2L32.6,16.9z
		 M35.2,20.3c0-0.4,0.4-0.8,0.8-0.8c0.5,0,0.8,0.4,0.8,0.8c0,0.5-0.4,0.8-0.8,0.8C35.6,21.2,35.2,20.8,35.2,20.3z M27.1,20.3
		c0-0.4,0.4-0.8,0.8-0.8c0.4,0,0.8,0.4,0.8,0.8c0,0.5-0.4,0.8-0.8,0.8C27.5,21.2,27.1,20.8,27.1,20.3z M45.9,36.7H18.1v-9h4.6
		c0.8,0.6,1.6,1.2,2.5,1.6h-5.5v5.7h24.5v-5.7h-5.5c0.9-0.5,1.7-1,2.5-1.6h4.6V36.7z M39.3,32.2c0-0.7,0.5-1.2,1.2-1.2
		c0.7,0,1.2,0.5,1.2,1.2c0,0.7-0.5,1.2-1.2,1.2C39.9,33.4,39.3,32.9,39.3,32.2z M15.7,61.1v-7L7.5,46V29.4h5.7v11.9l2.4-2.4l9.8,9.8
		v12.6h-1.6V49.3l-8.2-8.2L14,42.8l5.5,5.5l-1.2,1.2l-6.8-6.8V31H9.2v14.3l8.2,8.2v7.7H15.7z M38.5,61.1V48.6l9.8-9.8l2.4,2.4V29.4
		h5.7V46l-8.2,8.2v7h-1.6v-7.7l8.2-8.2V31h-2.4v11.8l-6.8,6.8l-1.2-1.2l5.5-5.5l-1.7-1.7l-8.2,8.2v11.9H38.5z"/>
</g>
</svg>
