<?xml version="1.0" encoding="utf-8"?>
<!-- Generator: Adobe Illustrator 19.1.0, SVG Export Plug-In . SVG Version: 6.00 Build 0)  -->
<svg version="1.1" id="Layer_1" xmlns="http://www.w3.org/2000/svg" xmlns:xlink="http://www.w3.org/1999/xlink" x="0px" y="0px"
	 viewBox="0 0 64 64" style="enable-background:new 0 0 64 64;" xml:space="preserve">
<style type="text/css">
	.st0{fill:#010101;}
	.st1{fill-rule:evenodd;clip-rule:evenodd;fill:none;}
	.st2{fill-rule:evenodd;clip-rule:evenodd;fill:none;stroke:#000000;stroke-linejoin:round;stroke-miterlimit:3.8637;}
</style>
<path d="M32,0c17.7,0,32,14.3,32,32c0,17.7-14.3,32-32,32C14.3,64,0,49.7,0,32C0,14.3,14.3,0,32,0z M32,3C16,3,3,16,3,32
	c0,16,13,29,29,29c16,0,29-13,29-29C61,16,48,3,32,3z M56.4,32c0,13.5-10.9,24.4-24.4,24.4C18.5,56.4,7.6,45.5,7.6,32
	C7.6,18.5,18.5,7.6,32,7.6C45.5,7.6,56.4,18.5,56.4,32z M10.9,35C12.4,45.4,21.3,53.3,32,53.3c11.8,0,21.3-9.6,21.3-21.3H40.6
	l-7.9,17.8l-3-24.4L25.4,35H10.9z M53.1,29C51.6,18.6,42.7,10.7,32,10.7c-11.8,0-21.3,9.6-21.3,21.3h12.7l7.9-17.8l3,24.4l4.3-9.6
	H53.1z"/>
</svg>
