<?xml version="1.0" encoding="utf-8"?>
<!-- Generator: Adobe Illustrator 19.1.0, SVG Export Plug-In . SVG Version: 6.00 Build 0)  -->
<svg version="1.1" id="Layer_1" xmlns="http://www.w3.org/2000/svg" xmlns:xlink="http://www.w3.org/1999/xlink" x="0px" y="0px"
	 viewBox="0 0 64 64" style="enable-background:new 0 0 64 64;" xml:space="preserve">
<style type="text/css">
	.st0{fill:none;}
	.st1{fill:#010101;}
</style>
<path class="st1" d="M39.9,28.3c0.1,0.2,0.2,0.4,0.3,0.7l1.7,0.4c0.7,0.1,1.6,0.7,1.6,2.7c0,2-0.9,2.6-1.7,2.7l-1.7,0.3
	c-0.1,0.2-0.2,0.4-0.3,0.7l1,1.5c0.4,0.6,0.7,1.6-0.7,3c-1.4,1.4-2.5,1.2-3.1,0.7l-1.4-1c-0.2,0.1-0.4,0.2-0.7,0.3l-0.4,1.7
	c-0.1,0.7-0.7,1.6-2.7,1.6s-2.6-0.9-2.7-1.7l-0.3-1.7c-0.2-0.1-0.4-0.2-0.7-0.3l-1.5,1c-0.6,0.4-1.6,0.7-3-0.7
	c-1.4-1.4-1.2-2.5-0.7-3.1l1-1.3c-0.1-0.2-0.2-0.4-0.3-0.7l-1.7-0.4c-0.7-0.1-1.6-0.7-1.6-2.7c0-2,0.9-2.6,1.7-2.7l1.7-0.3
	c0.1-0.2,0.2-0.4,0.3-0.7l-1-1.5c-0.4-0.6-0.7-1.6,0.7-3c1.4-1.4,2.5-1.2,3.1-0.7l1.4,1c0.2-0.1,0.4-0.2,0.7-0.3l0.4-1.7
	c0.1-0.7,0.7-1.6,2.7-1.6s2.6,0.9,2.7,1.7l0.3,1.7c0.2,0.1,0.4,0.2,0.7,0.3l1.5-1c0.6-0.4,1.6-0.7,3,0.7c1.4,1.4,1.2,2.5,0.7,3.1
	L39.9,28.3z M41.4,32.7c0-0.1,0.1-0.3,0.1-0.7c0-0.4,0-0.6-0.1-0.7l-2.2-0.3c-0.6-0.1-0.8-0.6-0.8-0.8c-0.1-0.5-0.3-0.9-0.5-1.3
	c-0.1-0.2-0.4-0.7,0-1.2l1.3-1.8c0-0.1-0.1-0.3-0.5-0.6c-0.3-0.3-0.5-0.4-0.6-0.5l-1.8,1.3c-0.4,0.3-0.9,0.2-1.2,0
	c-0.4-0.2-0.8-0.4-1.3-0.5c-0.2-0.1-0.7-0.2-0.8-0.8l-0.3-2.2c-0.1,0-0.3-0.1-0.7-0.1c-0.4,0-0.6,0-0.7,0.1l-0.3,2.2
	c-0.1,0.6-0.6,0.8-0.8,0.8c-0.5,0.1-0.9,0.3-1.3,0.5c-0.3,0.2-0.8,0.3-1.2,0l-1.8-1.3c-0.1,0-0.2,0.1-0.6,0.5
	c-0.3,0.3-0.4,0.5-0.5,0.6l1.3,1.8c0.4,0.5,0.1,1,0,1.2c-0.2,0.4-0.4,0.8-0.5,1.3c-0.1,0.2-0.2,0.7-0.8,0.8l-2.2,0.3
	c0,0.1-0.1,0.3-0.1,0.7c0,0.4,0,0.6,0.1,0.7l2.2,0.3c0.6,0.1,0.8,0.6,0.8,0.8c0.1,0.5,0.3,0.9,0.5,1.3c0.1,0.2,0.4,0.7,0,1.2
	l-1.3,1.8c0,0.1,0.1,0.3,0.5,0.6c0.3,0.3,0.5,0.4,0.6,0.5l1.8-1.3c0.4-0.3,0.9-0.2,1.2,0c0.4,0.2,0.8,0.4,1.3,0.5
	c0.2,0.1,0.7,0.2,0.8,0.8l0.3,2.2c0.1,0,0.3,0.1,0.7,0.1c0.4,0,0.6,0,0.7-0.1l0.3-2.2c0.1-0.6,0.6-0.8,0.8-0.8
	c0.5-0.1,0.9-0.3,1.3-0.5c0.3-0.2,0.8-0.3,1.2,0l1.8,1.3c0.1,0,0.2-0.1,0.6-0.5c0.3-0.3,0.4-0.5,0.5-0.6l-1.3-1.8
	c-0.4-0.5-0.1-1,0-1.2c0.2-0.4,0.4-0.8,0.5-1.3c0.1-0.2,0.2-0.7,0.8-0.8L41.4,32.7z M32,27.5c2.5,0,4.5,2,4.5,4.5s-2,4.5-4.5,4.5
	s-4.5-2-4.5-4.5S29.5,27.5,32,27.5z M29.5,32c0,1.4,1.1,2.5,2.5,2.5s2.5-1.1,2.5-2.5c0-1.4-1.1-2.5-2.5-2.5S29.5,30.6,29.5,32z
	 M5.6,33.9l6.4-6.4l6.4,6.4l-1.4,1.4l-3.9-4V32c0,10.5,8.5,19,19,19c8.4,0,15.5-5.4,18-13l1.6,1.6C48.5,47.4,40.9,53,32,53
	c-11.6,0-21-9.4-21-21v-0.6l-3.9,4L5.6,33.9z M58.4,30.1L52,36.4l-6.4-6.4l1.4-1.4l3.9,3.9V32c0-10.5-8.5-19-19-19
	c-8.4,0-15.5,5.4-18,13l-1.6-1.6C15.5,16.6,23.1,11,32,11c11.6,0,21,9.4,21,21v0.6l3.9-3.9L58.4,30.1z"/>
</svg>
