<?xml version="1.0" encoding="utf-8"?>
<!-- Generator: Adobe Illustrator 19.1.0, SVG Export Plug-In . SVG Version: 6.00 Build 0)  -->
<svg version="1.1" id="Layer_1" xmlns="http://www.w3.org/2000/svg" xmlns:xlink="http://www.w3.org/1999/xlink" x="0px" y="0px"
	 viewBox="0 0 64 64" style="enable-background:new 0 0 64 64;" xml:space="preserve">
<style type="text/css">
	.st0{fill-rule:evenodd;clip-rule:evenodd;fill:none;}
	.st1{fill:#010101;}
</style>
<g>
	<rect x="-1.2" y="-1.2" class="st0" width="66.4" height="66.4"/>
	<path d="M17.9,21.4c-0.2,0.4-0.4,0.9-0.4,1.3c0,2.8,5.8,6,14.5,6c8.7,0,14.5-3.1,14.5-6c0-0.4-0.1-0.8-0.4-1.3
		c-2.9,2.4-8.4,3.8-14.1,3.8C26.3,25.2,20.8,23.8,17.9,21.4z M47.3,20.1c0.5,0.8,0.9,1.6,0.9,2.5c0,0.9-0.3,1.8-0.9,2.6
		c0.5,0.8,0.9,1.6,0.9,2.5c0,4.7-7.9,7.7-16.2,7.7c-8.3,0-16.2-3-16.2-7.7c0-0.9,0.3-1.8,0.9-2.5c-0.6-0.8-0.9-1.6-0.9-2.6
		c0-0.9,0.3-1.8,0.9-2.5c-0.6-0.8-0.9-1.6-0.9-2.6c0-0.9,0.3-1.8,0.9-2.5c-0.6-0.8-0.9-1.6-0.9-2.6c0-4.7,7.9-7.7,16.2-7.7
		s16.2,3,16.2,7.7c0,0.9-0.3,1.8-0.9,2.6c0.5,0.8,0.9,1.6,0.9,2.5C48.2,18.5,47.9,19.3,47.3,20.1z M46.1,26.5
		c-2.9,2.4-8.4,3.8-14.1,3.8c-5.7,0-11.2-1.4-14.1-3.8c-0.2,0.4-0.4,0.9-0.4,1.3c0,2.8,5.8,6,14.5,6c8.7,0,14.5-3.1,14.5-6
		C46.5,27.3,46.4,26.9,46.1,26.5z M17.9,16.3c-0.2,0.4-0.4,0.9-0.4,1.3c0,2.8,5.8,6,14.5,6c8.7,0,14.5-3.1,14.5-6
		c0-0.4-0.1-0.8-0.4-1.3c-2.9,2.4-8.4,3.8-14.1,3.8S20.8,18.7,17.9,16.3z M32,6.5c-8.7,0-14.5,3.1-14.5,6s5.8,6,14.5,6
		s14.5-3.1,14.5-6S40.7,6.5,32,6.5z M35.1,12c-0.7-0.5-2.2-0.6-3.1-0.6c-0.8,0-2.3,0.1-3.1,0.6c0.7,0.5,2.4,0.6,3.1,0.6
		C32.9,12.6,34.3,12.5,35.1,12z M28.9,10.1c0.8-0.3,2-0.5,3.1-0.5c1.3,0,4.9,0.3,4.9,2.3c0,2-3.6,2.3-4.9,2.3S27.1,14,27.1,12
		C27.1,10.9,28.2,10.4,28.9,10.1z M15,61.8v-7.3L6.5,46V28.6h6V41l2.6-2.6l10.2,10.2v13.1h-1.7V49.4L15,40.9l-1.8,1.8l5.8,5.8
		l-1.2,1.2l-7.1-7.1V30.3H8.2v15l8.5,8.5v8H15z M38.8,61.8V48.7L49,38.5l2.6,2.6V28.6h6V46L49,54.5v7.3h-1.7v-8l8.5-8.5v-15h-2.6
		v12.3l-7.1,7.1L45,48.4l5.8-5.8L49,40.9l-8.5,8.5v12.4H38.8z"/>
</g>
</svg>
