<?xml version="1.0" encoding="utf-8"?>
<!-- Generator: Adobe Illustrator 19.1.0, SVG Export Plug-In . SVG Version: 6.00 Build 0)  -->
<svg version="1.1" id="Layer_1" xmlns="http://www.w3.org/2000/svg" xmlns:xlink="http://www.w3.org/1999/xlink" x="0px" y="0px"
	 viewBox="0 0 64 64" style="enable-background:new 0 0 64 64;" xml:space="preserve">
<style type="text/css">
	.st0{fill-rule:evenodd;clip-rule:evenodd;fill:none;}
	.st1{fill:none;}
	.st2{fill:#010101;}
	.st3{fill:#020202;}
</style>
<rect x="1.6" y="0.2" class="st0" width="67.9" height="67.9"/>
<path d="M48.7,20l6.7,0l0-1.9v19.1l-6.7,0l0,1.9l6.7,0l0-1.9l0,19.1H24.8l0-17.2l6.7,0l0-1.9l-6.7,0l0,1.9l0-19.1h-1.9l0,17.2
	l-6.7,0l0,1.9l6.7,0l0-1.9l0,19.1l-6.7,0l0,1.9l39.2,0h1.9V8.6h-1.9l0,9.6l-6.7,0L48.7,20z M41.1,29.6l6.7,0l0-1.9l-6.7,0L41.1,29.6
	l0-19.1h6.7V8.6H6.7v49.7h1.9l0-9.6l6.7,0l0-1.9l-6.7,0l0,1.9V29.6l6.7,0l0-1.9l-6.7,0l0,1.9l0-19.1h30.6l0,17.2l-6.7,0l0,1.9l6.7,0
	l0-1.9l0,19.1l-6.7,0l0,1.9l15.3,0l0-1.9h-6.7L41.1,29.6z M16.2,20l15.3,0l0-1.9l-15.3,0L16.2,20z M12.4,64c1.6,0,2.9-1.3,2.9-2.9
	c0-1.2-0.8-2.3-1.9-2.7v-4.9h6.7V42l-6.7,0v-7.6h6.7V22.9h-6.7v-7.7h21v7.7h-6.7v11.5h6.7V42l-6.7,0v11.5h24.8l0-11.5l-6.7,0v-7.6
	l6.7,0V22.9h-6.7v-7.6l6.7,0V3.7L55,6.1l1.4-1.4L51.6,0l-4.7,4.7l1.4,1.4l2.4-2.4v9.7l-6.7,0v11.5h6.7v7.7l-6.7,0v11.5l6.7,0l0,7.6
	h-21v-7.6l6.7,0V32.5h-6.7v-7.6h6.7V13.4H11.5v11.5h6.7v7.6h-6.7v11.4l6.7,0v7.6h-6.7v6.9c-1.1,0.4-1.9,1.5-1.9,2.7
	C9.6,62.7,10.8,64,12.4,64z"/>
</svg>
