<?xml version="1.0" encoding="utf-8"?>
<!-- Generator: Adobe Illustrator 19.1.0, SVG Export Plug-In . SVG Version: 6.00 Build 0)  -->
<svg version="1.1" id="Layer_1" xmlns="http://www.w3.org/2000/svg" xmlns:xlink="http://www.w3.org/1999/xlink" x="0px" y="0px"
	 viewBox="0 0 64 64" style="enable-background:new 0 0 64 64;" xml:space="preserve">
<style type="text/css">
	.st0{fill-rule:evenodd;clip-rule:evenodd;fill:none;}
	.st1{fill:none;}
	.st2{fill:#010101;}
	.st3{fill:#020202;}
</style>
<rect x="1.6" y="0" class="st1" width="67.9" height="67.9"/>
<g>
	<path d="M52.3,19.2H34.1v8.5h18.1V19.2z M50.1,25.6H36.3v-4.3h13.9V25.6z"/>
	<path d="M52.3,32H34.1v8.5h18.1V32z M50.1,38.4H36.3v-4.3h13.9V38.4z"/>
	<path d="M29.9,19.2H11.7v8.5h18.1V19.2z M27.7,25.6H13.9v-4.3h13.9V25.6z"/>
	<path d="M52.3,6.4H34.1v8.5h18.1V6.4z M50.1,12.8H36.3V8.5h13.9V12.8z"/>
	<path d="M29.9,6.4H11.7v8.5h18.1V6.4z M27.7,12.8H13.9V8.5h13.9V12.8z"/>
	<path d="M29.9,32H11.7v8.5h18.1V32z M27.7,38.4H13.9v-4.3h13.9V38.4z"/>
	<path d="M58.7,0H5.3v46.9h53.3V0z M56.5,44.8H7.5V2.1h49.1V44.8z"/>
	<path d="M58.7,49.1H5.3V64h53.3V49.1z M56.5,61.9H7.5V51.2h49.1V61.9z M45.9,56.5c0-1.8,1.4-3.2,3.2-3.2c1.8,0,3.2,1.4,3.2,3.2
		c0,1.8-1.4,3.2-3.2,3.2C47.3,59.7,45.9,58.3,45.9,56.5z"/>
</g>
</svg>
