<?xml version="1.0" encoding="utf-8"?>
<!-- Generator: Adobe Illustrator 19.1.0, SVG Export Plug-In . SVG Version: 6.00 Build 0)  -->
<svg version="1.1" id="Layer_1" xmlns="http://www.w3.org/2000/svg" xmlns:xlink="http://www.w3.org/1999/xlink" x="0px" y="0px"
	 viewBox="0 0 64 64" style="enable-background:new 0 0 64 64;" xml:space="preserve">
<style type="text/css">
	.st0{fill:#010101;}
	.st1{fill-rule:evenodd;clip-rule:evenodd;fill:none;}
	.st2{fill-rule:evenodd;clip-rule:evenodd;fill:none;stroke:#000000;stroke-linejoin:round;stroke-miterlimit:3.8637;}
</style>
<rect x="-0.4" y="-0.4" class="st1" width="64.8" height="64.8"/>
<path class="st0" d="M39.8,31.3V34h8.7L32,45.6L15.5,34h8.7v-2.7c-3.9-0.7-7.8-2.2-7.8-4.9V5.7c0-2.1,2.4-3.4,4.9-4.3
	c2.8-0.9,6.5-1.4,10.6-1.4c2.9,0,15.5,0.7,15.5,5.7v20.6C47.5,29.1,43.7,30.6,39.8,31.3z M18.4,8.7v3.9c0,0.5,0.8,1.5,3.6,2.4
	c2.5,0.8,6,1.3,10,1.3s7.5-0.5,10-1.3c2.8-0.9,3.6-1.9,3.6-2.4V8.7C41.9,11,34.2,11.4,32,11.4C29.8,11.4,22.1,11,18.4,8.7z
	 M18.4,15.6v3.9c0,0.5,0.8,1.5,3.6,2.4c2.5,0.8,6,1.3,10,1.3s7.5-0.5,10-1.3c2.8-0.9,3.6-1.9,3.6-2.4v-3.9
	c-3.6,2.3-11.4,2.7-13.6,2.7C29.8,18.3,22.1,17.9,18.4,15.6z M18.4,22.5v3.9c0,0.5,0.8,1.5,3.6,2.4c2.5,0.8,6,1.3,10,1.3
	s7.5-0.5,10-1.3c2.8-0.9,3.6-1.9,3.6-2.4v-3.9c-3.6,2.3-11.4,2.7-13.6,2.7C29.8,25.2,22.1,24.8,18.4,22.5z M22,3.3
	c-2.8,0.9-3.6,1.9-3.6,2.4c0,0.5,0.8,1.5,3.6,2.4c2.5,0.8,6,1.3,10,1.3S39.5,9,42,8.2c2.8-0.9,3.6-1.9,3.6-2.4
	c0-0.5-0.8-1.5-3.6-2.4C39.5,2.5,35.9,2,32,2S24.5,2.5,22,3.3z M26.2,31.6v4.3h-4.6L32,43.3l10.4-7.3h-4.6v-4.3
	C35.3,32,33,32.1,32,32.1C31,32.1,28.7,32,26.2,31.6z M54.3,59.2h1.9v1.9h1.9V49.5H33v11.6h1.9v-1.9h1.9v1.9h1.9v-1.9h1.9v1.9h1.9
	v-1.9h1.9v1.9h1.9v-1.9h1.9v1.9h1.9v-1.9h1.9v1.9h1.9V59.2z M23.3,59.2h1.9v1.9h1.9V49.5H1.9v11.6h1.9v-1.9h1.9v1.9h1.9v-1.9h1.9
	v1.9h1.9v-1.9h1.9v1.9h1.9v-1.9h1.9v1.9h1.9v-1.9h1.9v1.9h1.9V59.2z M23.3,51.5h1.9v5.8h-1.9V51.5z M19.4,51.5h1.9v5.8h-1.9V51.5z
	 M7.8,51.5h1.9v5.8H7.8V51.5z M3.9,51.5h1.9v5.8H3.9V51.5z M11.6,51.5h1.9v5.8h-1.9V51.5z M15.5,51.5h1.9v5.8h-1.9V51.5z M54.3,51.5
	h1.9v5.8h-1.9V51.5z M50.4,51.5h1.9v5.8h-1.9V51.5z M38.8,51.5h1.9v5.8h-1.9V51.5z M34.9,51.5h1.9v5.8h-1.9V51.5z M42.7,51.5h1.9
	v5.8h-1.9V51.5z M64,41.8v15.5h-3.9v5.8H31v-5.8h-1.9v5.8H0V47.6h3.9v-5.8h19.3l2.7,1.9H5.8v3.9h1.9v-1.9h1.9v1.9h1.9v-1.9h1.9v1.9
	h1.9v-1.9h1.9v1.9h1.9v-1.9h1.9v1.9h1.9v-1.9h1.9v1.9h1.9v-1.9h1.5l0.5,0.3v9.4H31v-7.8h3.9V46l1.9-1.4v3h1.9v-1.9h1.9v1.9h1.9v-1.9
	h1.9v1.9h1.9v-1.9h1.9v1.9h1.9v-1.9h1.9v1.9h1.9v-1.9h1.9v1.9h1.9v-1.9h1.9v9.7h1.9V43.7h-24l2.7-1.9H64z M46.5,51.5h1.9v5.8h-1.9
	V51.5z"/>
</svg>
