<?xml version="1.0" encoding="utf-8"?>
<!-- Generator: Adobe Illustrator 19.1.0, SVG Export Plug-In . SVG Version: 6.00 Build 0)  -->
<svg version="1.1" id="Layer_1" xmlns="http://www.w3.org/2000/svg" xmlns:xlink="http://www.w3.org/1999/xlink" x="0px" y="0px"
	 viewBox="0 0 64 64" style="enable-background:new 0 0 64 64;" xml:space="preserve">
<style type="text/css">
	.st0{fill-rule:evenodd;clip-rule:evenodd;fill:none;}
	.st1{fill:#010101;}
</style>
<g>
	<path d="M38.9,62.2V48.9l10.3-10.3l2.6,2.6V28.6h6v17.6l-8.6,8.6v7.4h-1.7v-8.1l8.6-8.6V30.3h-2.6v12.4l-7.2,7.2l-1.2-1.2l5.9-5.9
		L49.2,41l-8.6,8.6v12.6H38.9z M14.8,62.2v-7.4l-8.6-8.6V28.6h6v12.6l2.6-2.6l10.3,10.3v13.3h-1.7V49.6L14.8,41L13,42.8l5.9,5.9
		l-1.2,1.2l-7.2-7.2V30.3H7.9v15.2l8.6,8.6v8.1H14.8z M32,25.6L49.8,7.9l-2.2-2.2L32,21.1L26.8,16l-2.2,2.2L32,25.6z M48.2,11.8
		c1.2,2.4,1.9,5.2,1.9,8.1C50.1,29.9,42,38,32,38c-10,0-18.1-8.1-18.1-18.1C13.9,9.9,22,1.8,32,1.8c4.7,0,9,1.8,12.2,4.7l3.3-3.3
		l4.7,4.7L48.2,11.8z M44.9,15.1c0.6,1.5,0.9,3.1,0.9,4.8c0,7.6-6.2,13.8-13.8,13.8c-7.6,0-13.8-6.2-13.8-13.8
		c0-7.6,6.2-13.8,13.8-13.8c3.5,0,6.7,1.3,9.1,3.5L43,7.7c-2.9-2.6-6.7-4.2-11-4.2c-9.1,0-16.4,7.3-16.4,16.4
		c0,9,7.3,16.4,16.4,16.4c9.1,0,16.4-7.3,16.4-16.4c0-2.4-0.5-4.7-1.5-6.8L44.9,15.1z M44.1,19.9c0-1.2-0.2-2.4-0.5-3.5L32,28
		l-9.8-9.8l4.7-4.7l5.2,5.2l7.9-7.9C37.8,9,35,7.9,32,7.9c-6.7,0-12.1,5.4-12.1,12.1S25.3,32,32,32C38.7,32,44.1,26.6,44.1,19.9z"/>
	<rect x="-1.6" y="-1.6" class="st0" width="67.3" height="67.3"/>
</g>
</svg>
