<?xml version="1.0" encoding="utf-8"?>
<!-- Generator: Adobe Illustrator 19.1.0, SVG Export Plug-In . SVG Version: 6.00 Build 0)  -->
<svg version="1.1" id="Layer_1" xmlns="http://www.w3.org/2000/svg" xmlns:xlink="http://www.w3.org/1999/xlink" x="0px" y="0px"
	 viewBox="0 0 64 64" style="enable-background:new 0 0 64 64;" xml:space="preserve">
<style type="text/css">
	.st0{fill:none;}
	.st1{fill:#010101;}
</style>
<g>
	<polygon class="st0" points="1.6,1.6 62.4,1.6 62.4,62.4 1.6,62.4 1.6,1.6 	"/>
	<path class="st1" d="M43.5,43.5c1.4-1.5,1.2-3.4,1-5.4l-0.1-0.7c-1.4,3.1-3.9,5.7-7,7l0.7,0.1C40.1,44.7,42.1,44.9,43.5,43.5z
		 M29.3,45c1.8,0.4,3.6,0.4,5.3,0l-1.5-5.6c-0.4,0.1-0.8,0.1-1.2,0.1s-0.8,0-1.2-0.1L29.3,45z M26,44.5l0.7-0.1
		c-3.1-1.4-5.7-3.9-7-7l-0.1,0.7c-0.2,2.1-0.5,4,1,5.4C22,44.9,23.9,44.7,26,44.5z M20.5,20.5c-1.4,1.5-1.2,3.4-1,5.4l0.1,0.7
		c1.4-3.1,3.9-5.7,7-7l-0.7-0.1C23.9,19.3,21.9,19.1,20.5,20.5z M34.7,19c-1.8-0.4-3.6-0.4-5.3,0l1.5,5.6c0.4-0.1,0.8-0.1,1.2-0.1
		s0.8,0,1.2,0.1L34.7,19z M38,19.5l-0.7,0.1c3.1,1.4,5.7,3.9,7,7l0.1-0.7c0.2-2.1,0.5-4-1-5.4C42,19.1,40.1,19.3,38,19.5z M45,34.7
		c0.2-0.9,0.3-1.8,0.3-2.7c0-0.9-0.1-1.8-0.3-2.7l-5.6,1.5c0.1,0.4,0.1,0.8,0.1,1.2c0,0.4,0,0.8-0.1,1.2L45,34.7z M39,34.7
		c-0.8,2-2.3,3.5-4.3,4.3l1.2,4.3c3.5-1.2,6.3-4,7.5-7.5L39,34.7z M34.7,25c2,0.8,3.5,2.3,4.3,4.3l4.3-1.2c-1.2-3.5-4-6.3-7.5-7.5
		L34.7,25z M26.1,32c0,3.3,2.7,5.9,5.9,5.9s5.9-2.7,5.9-5.9c0-3.3-2.7-5.9-5.9-5.9S26.1,28.7,26.1,32z M25,34.7l-4.3,1.2
		c1.2,3.5,4,6.3,7.5,7.5l1.2-4.3C27.4,38.2,25.8,36.6,25,34.7z M19,29.3c-0.2,0.9-0.3,1.8-0.3,2.7c0,0.9,0.1,1.8,0.3,2.7l5.6-1.5
		c-0.1-0.4-0.1-0.8-0.1-1.2c0-0.4,0-0.8,0.1-1.2L19,29.3z M25,29.3c0.8-2,2.3-3.5,4.3-4.3l-1.2-4.3c-3.5,1.2-6.3,4-7.5,7.5L25,29.3z
		 M46.3,35.8l-0.2,0.8l-0.3-0.1c0,0.4,0.1,0.9,0.1,1.3c0.3,2.2,0.6,4.7-1.4,6.7c-1.3,1.3-2.8,1.6-4.3,1.6c-0.8,0-1.7-0.1-2.5-0.2
		c-0.5-0.1-0.9-0.1-1.4-0.1l0.1,0.2l-0.8,0.2c-1.2,0.3-2.5,0.5-3.8,0.5c-1.3,0-2.6-0.2-3.8-0.5l-0.8-0.2l0.1-0.3
		c-0.4,0-0.9,0.1-1.3,0.1c-0.8,0.1-1.6,0.2-2.4,0.2c-1.5,0-3-0.3-4.3-1.6c-2-2-1.7-4.5-1.4-6.7c0.1-0.5,0.1-0.9,0.1-1.4l-0.2,0.1
		l-0.2-0.8c-0.3-1.2-0.5-2.5-0.5-3.8c0-1.3,0.2-2.6,0.5-3.8l0.2-0.8l0.2,0.1c0-0.4-0.1-0.9-0.1-1.3c-0.3-2.2-0.6-4.7,1.4-6.7
		c2-2,4.5-1.7,6.7-1.4c0.5,0.1,0.9,0.1,1.4,0.1l-0.1-0.2l0.8-0.2c2.5-0.7,5.2-0.7,7.7,0l0.8,0.2l-0.1,0.3c0.4,0,0.9-0.1,1.3-0.1
		c2.2-0.3,4.7-0.6,6.7,1.4c2,2,1.7,4.5,1.4,6.7c-0.1,0.5-0.1,0.9-0.1,1.4l0.2-0.1l0.2,0.8c0.3,1.2,0.5,2.5,0.5,3.8
		C46.8,33.3,46.7,34.6,46.3,35.8z M32,6.2c-12.9,0-23.6,9.5-25.5,21.9l-1.4-1.4C7.6,14.2,18.7,4.7,32,4.7c15,0,27.1,12.1,27.3,27
		l3.6-3.6l1.1,1.1l-5.5,5.5l-5.5-5.5l1.1-1.1l3.6,3.6C57.6,17.6,46.1,6.2,32,6.2z M6.2,32.3C6.4,46.4,17.9,57.8,32,57.8
		c12.9,0,23.6-9.5,25.5-21.9l1.4,1.4C56.4,49.8,45.3,59.3,32,59.3c-15,0-27.1-12.1-27.3-27l-3.6,3.6L0,34.8l5.5-5.5l5.5,5.5
		l-1.1,1.1L6.2,32.3z"/>
</g>
</svg>
