<?xml version="1.0" encoding="utf-8"?>
<!-- Generator: Adobe Illustrator 19.1.0, SVG Export Plug-In . SVG Version: 6.00 Build 0)  -->
<svg version="1.1" id="Layer_1" xmlns="http://www.w3.org/2000/svg" xmlns:xlink="http://www.w3.org/1999/xlink" x="0px" y="0px"
	 viewBox="0 0 64 64" style="enable-background:new 0 0 64 64;" xml:space="preserve">
<style type="text/css">
	.st0{fill:#010101;}
	.st1{fill-rule:evenodd;clip-rule:evenodd;fill:none;}
	.st2{fill-rule:evenodd;clip-rule:evenodd;fill:none;stroke:#000000;stroke-linejoin:round;stroke-miterlimit:3.8637;}
</style>
<path d="M60.2,3.8H3.8v56.5h56.5V3.8z M0,0h64v64H0V0z M22.9,39.3l-4-4v7.1c0,2.6,2.1,4.7,4.7,4.7h4.7v1.9h-4.7
	c-3.6,0-6.6-3-6.6-6.6v-7.1l-4,4l-1.3-1.3l6.3-6.3l6.3,6.3L22.9,39.3z M33.9,28.2H11.3V11.3h9.4v1.9h13.2V28.2z M32,26.4V15.1H18.8
	v-1.9h-5.6v13.2H32z M52.7,52.7H30.1V35.8h9.4v1.9h13.2V52.7z M50.8,50.8V39.5H37.6v-1.9H32v13.2H50.8z M41.1,26.6l4,4v-7.1
	c0-2.6-2.1-4.7-4.7-4.7h-4.7v-1.9h4.7c3.6,0,6.6,2.9,6.6,6.6v7.1l4-4l1.3,1.3l-6.3,6.3L39.8,28L41.1,26.6z"/>
</svg>
