<?xml version="1.0" encoding="utf-8"?>
<!-- Generator: Adobe Illustrator 19.1.0, SVG Export Plug-In . SVG Version: 6.00 Build 0)  -->
<svg version="1.1" id="Layer_1" xmlns="http://www.w3.org/2000/svg" xmlns:xlink="http://www.w3.org/1999/xlink" x="0px" y="0px"
	 viewBox="0 0 64 64" style="enable-background:new 0 0 64 64;" xml:space="preserve">
<style type="text/css">
	.st0{fill:#010101;}
	.st1{fill-rule:evenodd;clip-rule:evenodd;fill:none;}
	.st2{fill-rule:evenodd;clip-rule:evenodd;fill:none;stroke:#000000;stroke-linejoin:round;stroke-miterlimit:3.8637;}
</style>
<path d="M47,22H17v20h30V22z M15,20h34v24H15V20z M27,35c1.7,0,3-1.3,3-3c0-1.7-1.3-3-3-3c-1.7,0-3,1.3-3,3C24,33.7,25.3,35,27,35z
	 M27,24c3.5,0,6.4,2.2,7.5,5.3l4.5,1.8c0.5,0.2,0.8,0.6,1,1c0.2,0.8-0.3,1.6-1.1,1.8c-0.5,0.1-0.9,0-1.3-0.2L35,31.6l0,0.4
	c0,4.4-3.6,8-8,8s-8-3.6-8-8S22.6,24,27,24z M28,32c0,0.6-0.4,1-1,1s-1-0.4-1-1s0.4-1,1-1S28,31.4,28,32z M45,40H33
	c1.6-1.2,2.8-2.8,3.4-4.7c0.8,0.6,1.9,0.8,3,0.6c1.9-0.5,3-2.4,2.5-4.3c-0.3-1.1-1.1-1.9-2-2.3l-0.2-0.1L37,28.1V24h8V40z"/>
</svg>
