<?xml version="1.0" encoding="utf-8"?>
<!-- Generator: Adobe Illustrator 19.1.0, SVG Export Plug-In . SVG Version: 6.00 Build 0)  -->
<svg version="1.1" id="Layer_1" xmlns="http://www.w3.org/2000/svg" xmlns:xlink="http://www.w3.org/1999/xlink" x="0px" y="0px"
	 viewBox="0 0 64 64" style="enable-background:new 0 0 64 64;" xml:space="preserve">
<style type="text/css">
	.st0{fill:none;}
	.st1{fill:#010101;}
</style>
<g>
	<g>
		<polygon class="st0" points="1.6,1.6 62.4,1.6 62.4,62.4 1.6,62.4 1.6,1.6 		"/>
	</g>
	<path class="st1" d="M38.5,33.6l8.3,8.3l-5,5l-8.3-8.3l1.1-1.1l7.2,7.2l2.8-2.8l-7.2-7.2L38.5,33.6z M26.2,19.7l1-1
		c1.8-1.8,4.8-1.8,6.6,0l0.6,0.6l-5.1,5.1l2.9,2.9L31,28.3l-2.9-2.9l-2.8,2.8l2.9,2.9l-1.1,1.1l-2.9-2.9l-5.1,5.1l-0.6-0.6
		c-1.8-1.8-1.8-4.8,0-6.6l1-1c-0.7-0.8-1.2-1.9-1.2-3.1c0-2.6,2.1-4.7,4.7-4.7C24.3,18.5,25.3,18.9,26.2,19.7z M32,19.3
		c-1.2-0.7-2.8-0.5-3.8,0.5l-2,2l-1.1-1c-0.6-0.5-1.3-0.8-2.1-0.8c-1.7,0-3.1,1.4-3.1,3.1c0,0.8,0.3,1.5,0.8,2.1l1,1.1l-2,2
		c-1,1-1.2,2.6-0.5,3.8L32,19.3z M43.3,18.1l4.2,4.2L25.8,44.1l-7.4,3.2l3.2-7.4L43.3,18.1z M41.3,22.4l2,2l2-2l-2-2L41.3,22.4z
		 M39,24.7l2,2l1.2-1.2l-2-2L39,24.7z M24,39.7l2,2l13.9-13.9l-2-2L24,39.7z M24.9,42.8l-2-2l-1.5,3.5L24.9,42.8z M57.8,31.7
		l-3.6-3.6l-1.1,1.1l5.5,5.5l5.5-5.5l-1.1-1.1l-3.6,3.6C59.1,16.7,47,4.7,32,4.7c-13.3,0-24.4,9.5-26.8,22.2l1.4,1.4
		C8.4,15.8,19.1,6.2,32,6.2C46.1,6.2,57.6,17.6,57.8,31.7z M9.8,35.9l1.1-1.1l-5.5-5.5L0,34.8l1.1,1.1l3.6-3.6
		c0.2,14.9,12.3,27,27.3,27c13.3,0,24.4-9.5,26.8-22.2l-1.4-1.4C55.6,48.2,44.9,57.8,32,57.8c-14.1,0-25.6-11.4-25.8-25.4L9.8,35.9z
		"/>
</g>
</svg>
