<?xml version="1.0" encoding="utf-8"?>
<!-- Generator: Adobe Illustrator 19.1.0, SVG Export Plug-In . SVG Version: 6.00 Build 0)  -->
<svg version="1.1" id="Layer_1" xmlns="http://www.w3.org/2000/svg" xmlns:xlink="http://www.w3.org/1999/xlink" x="0px" y="0px"
	 viewBox="0 0 64 64" style="enable-background:new 0 0 64 64;" xml:space="preserve">
<style type="text/css">
	.st0{fill:#010101;}
	.st1{fill-rule:evenodd;clip-rule:evenodd;fill:none;}
	.st2{fill-rule:evenodd;clip-rule:evenodd;fill:none;stroke:#000000;stroke-linejoin:round;stroke-miterlimit:3.8637;}
</style>
<path d="M35.6,16.6c-1.4-0.7-2.5-1.2-3.6-2.1c-1.3,0.9-2.4,1.5-4.1,2.3c-2.3,1-5.3,1.6-7.6,1.8c-0.9,0.1-1.6,0.2-2.3,0.2
	c0,2.7,0.3,8,1.8,13.5L35.6,16.6z M20.1,33.5c0.4,1.1,0.7,2.3,1.2,3.4L40.2,18c-1.2-0.3-2.4-0.6-3.5-1L20.1,33.5z M45.5,26.1
	L26.4,45.2c1.6,1.8,3.4,3.3,5.6,4.5C41.2,44.6,44.4,33.9,45.5,26.1z M23.3,40.9l22.1-22.1c-0.5,0-1.1-0.1-1.7-0.2
	c-0.7-0.1-1.5-0.2-2.4-0.4L21.7,37.9C22.2,38.9,22.7,39.9,23.3,40.9z M25.7,44.5l19.9-19.9c0.2-1.9,0.3-3.6,0.3-4.9L23.8,41.8
	C24.4,42.7,25,43.6,25.7,44.5z M32,12c1.8,1.4,2.9,2,4.9,3c4,1.8,11,2,11,2s1.5,26.3-16,35c-17.5-8.7-16-35-16-35s7-0.2,11-2
	C29.1,14,30.2,13.4,32,12z"/>
</svg>
