<?xml version="1.0" encoding="utf-8"?>
<!-- Generator: Adobe Illustrator 19.1.0, SVG Export Plug-In . SVG Version: 6.00 Build 0)  -->
<svg version="1.1" id="Layer_1" xmlns="http://www.w3.org/2000/svg" xmlns:xlink="http://www.w3.org/1999/xlink" x="0px" y="0px"
	 viewBox="0 0 64 64" style="enable-background:new 0 0 64 64;" xml:space="preserve">
<style type="text/css">
	.st0{fill:#010101;}
</style>
<path class="st0" d="M14.5,9h10.9V5.7H14.5V9z M38.6,9h10.9V5.7H38.6V9z M22.2,33.1h19.7v-2.2H22.2V33.1z M22.2,18.9h19.7v-2.2H22.2
	V18.9z M36.4,21.1h-8.8v7.7h8.8V21.1z M20,16.7H7.7l-5,21.9h22.7v-3.3H20v-6.6h5.5v-7.7H20V16.7z M38.6,38.6h22.7l-5-21.9H44v4.4
	h-5.5v7.7H44v6.6h-5.5V38.6z M38.6,52.8v5.5h23v-5.5H38.6z M42.6,40.8L39,50.6h22l-3.6-9.8H42.6z M2.5,52.8v5.5h23v-5.5H2.5z
	 M6.5,40.8l-3.6,9.8h22l-3.6-9.8H6.5z M23.2,14.5v-3.3h-6.6v3.3H23.2z M40.8,11.2v3.3h6.6v-3.3H40.8z M38.6,14.5v-3.3h-2.2V3.6h15.3
	v7.7h-2.2v3.3H58l6,26.3h-4.2l3.9,10.7v8.9H36.4v-8.9l3.9-10.7h-3.9v-5.5h-1.1v2.2h-6.6v-2.2h-1.1v5.5h-3.9l3.9,10.7v8.9H0.3v-8.9
	l3.9-10.7H0l6-26.3h8.5v-3.3h-2.2V3.6h15.3v7.7h-2.2v3.3h3.3v-2.2h6.6v2.2H38.6z"/>
</svg>
