<?xml version="1.0" encoding="utf-8"?>
<!-- Generator: Adobe Illustrator 19.1.0, SVG Export Plug-In . SVG Version: 6.00 Build 0)  -->
<svg version="1.1" id="Layer_1" xmlns="http://www.w3.org/2000/svg" xmlns:xlink="http://www.w3.org/1999/xlink" x="0px" y="0px"
	 viewBox="0 0 64 64" style="enable-background:new 0 0 64 64;" xml:space="preserve">
<style type="text/css">
	.st0{fill:#010101;}
	.st1{fill-rule:evenodd;clip-rule:evenodd;fill:none;}
	.st2{fill-rule:evenodd;clip-rule:evenodd;fill:none;stroke:#000000;stroke-linejoin:round;stroke-miterlimit:3.8637;}
</style>
<path class="st0" d="M32,53c-0.3,0-0.8,0-1.2-0.1l-0.4-0.1l-0.3-0.4c-0.5-0.7-1.2-1.9-1.4-3.7c0-0.1,0-0.3-0.1-0.3
	c-0.6-0.1-1.3-0.3-1.9-0.5c0,0-0.1,0.1-0.1,0.2c-1.1,1.5-2.3,2.2-3.1,2.5L23,50.9l-0.4-0.2c-0.4-0.2-0.8-0.4-1.1-0.6
	c-0.2-0.1-0.7-0.4-1-0.7l-0.4-0.3l0-0.4c-0.1-0.9-0.1-2.2,0.6-3.9c0-0.1,0.1-0.2,0.1-0.3c-0.5-0.4-1-0.9-1.4-1.4c0,0-0.1,0-0.2,0.1
	c-1.1,0.5-2.1,0.7-3.2,0.7c-0.3,0-0.6,0-0.8,0l-0.4,0l-0.3-0.4c-0.2-0.3-0.5-0.7-0.7-1c-0.1-0.2-0.4-0.7-0.6-1.1L13.1,41l0.2-0.4
	c0.4-0.8,1-2,2.5-3.1c0.1-0.1,0.2-0.2,0.2-0.2c-0.2-0.6-0.4-1.3-0.5-1.9c0,0-0.1,0-0.2,0c-1.9-0.2-3-0.9-3.8-1.4l-0.4-0.3l-0.1-0.4
	C11,32.8,11,32.3,11,32s0-0.8,0.1-1.2l0.1-0.4l0.4-0.3c0.7-0.5,1.9-1.2,3.7-1.4c0.1,0,0.2,0,0.3-0.1c0.1-0.6,0.3-1.3,0.5-1.9
	c0,0-0.1-0.1-0.2-0.2c-1.5-1.1-2.2-2.3-2.5-3.1L13.1,23l0.2-0.4c0.2-0.4,0.4-0.8,0.6-1.1c0.1-0.2,0.4-0.7,0.7-1l0.3-0.4l0.4,0
	c0.3,0,0.5,0,0.8,0c1.1,0,2.1,0.2,3.1,0.7c0.1,0,0.2,0.1,0.3,0.1c0.4-0.5,0.9-1,1.4-1.4c0,0,0-0.1-0.1-0.2c-0.7-1.7-0.7-3.1-0.6-4
	l0-0.4l0.4-0.3c0.3-0.2,0.7-0.5,1-0.7c0.2-0.1,0.7-0.4,1.1-0.6l0.4-0.2l0.4,0.2c0.8,0.4,2,1,3.1,2.5c0.1,0.1,0.2,0.2,0.2,0.2
	c0.6-0.2,1.3-0.4,1.9-0.6c0,0,0-0.1,0-0.2c0.2-1.9,0.9-3,1.4-3.8l0.3-0.4l0.4-0.1C31.2,11,31.7,11,32,11c0.3,0,0.8,0,1.2,0.1
	l0.4,0.1l0.3,0.4c0.5,0.7,1.2,1.9,1.4,3.7c0,0.1,0,0.2,0.1,0.3c0.6,0.1,1.3,0.3,1.9,0.5c0,0,0.1-0.1,0.1-0.2
	c1.1-1.5,2.3-2.2,3.1-2.5l0.4-0.2l0.4,0.2c0.4,0.2,0.8,0.4,1.1,0.6c0.2,0.1,0.7,0.4,1,0.7l0.4,0.3l0,0.4c0.1,0.9,0.1,2.2-0.6,3.9
	c0,0.1-0.1,0.2-0.1,0.3c0.5,0.4,1,0.9,1.4,1.4c0,0,0.1,0,0.2-0.1c1.1-0.5,2.1-0.7,3.2-0.7c0.3,0,0.6,0,0.8,0l0.4,0l0.3,0.4
	c0.2,0.3,0.5,0.7,0.7,1c0.2,0.3,0.4,0.7,0.6,1.1l0.2,0.4l-0.2,0.4c-0.4,0.8-1,2-2.5,3.1c-0.1,0.1-0.2,0.2-0.2,0.2
	c0.2,0.6,0.4,1.3,0.5,1.9c0,0,0.1,0,0.2,0c1.9,0.2,3,0.9,3.8,1.4l0.4,0.3l0.1,0.4C53,31.2,53,31.7,53,32s0,0.8-0.1,1.2l-0.1,0.4
	l-0.4,0.3c-0.7,0.5-1.9,1.2-3.7,1.4c-0.1,0-0.3,0-0.3,0.1c-0.1,0.6-0.3,1.3-0.5,1.9c0,0,0.1,0.1,0.2,0.1c1.5,1.1,2.2,2.3,2.5,3.1
	l0.2,0.4l-0.2,0.4c-0.2,0.4-0.4,0.8-0.6,1.1c-0.1,0.2-0.4,0.7-0.7,1l-0.3,0.4l-0.4,0c-0.3,0-0.5,0-0.8,0c-1.1,0-2.1-0.2-3.1-0.7
	c-0.1,0-0.2-0.1-0.3-0.1c-0.4,0.5-0.9,1-1.4,1.4c0,0,0,0.1,0.1,0.2c0.7,1.7,0.7,3.1,0.6,4l0,0.4l-0.4,0.3c-0.3,0.3-0.8,0.5-1,0.7
	c-0.3,0.2-0.7,0.4-1.1,0.6L41,50.9l-0.4-0.2c-0.8-0.4-2-1-3.1-2.5c-0.1-0.1-0.2-0.2-0.2-0.2c-0.6,0.2-1.3,0.4-1.9,0.6
	c0,0,0,0.1,0,0.2c-0.2,1.9-0.9,3-1.4,3.8l-0.3,0.4l-0.4,0.1C32.8,53,32.3,53,32,53z M31.5,51c0.4,0,0.7,0,1,0
	c0.3-0.6,0.7-1.3,0.8-2.4c0.1-1.1,0.7-1.8,1.6-2c0.6-0.1,1.2-0.3,1.8-0.5C37,46,37.2,46,37.4,46c1,0,1.5,0.7,1.7,1
	c0.7,0.9,1.4,1.4,2,1.7l0.5-0.3l0.4-0.3c0-0.7-0.1-1.5-0.5-2.5c-0.4-1-0.3-1.9,0.4-2.5c0.5-0.4,0.9-0.8,1.3-1.3
	c0.4-0.4,0.9-0.7,1.5-0.7c0.4,0,0.8,0.2,1,0.2c0.9,0.4,1.7,0.5,2.6,0.5l0.3-0.4l0.3-0.5c-0.3-0.6-0.8-1.3-1.7-1.9
	c-0.3-0.3-1.3-1-0.9-2.3c0.2-0.6,0.4-1.2,0.5-1.8c0.2-0.9,0.9-1.5,1.9-1.6c1.1-0.1,1.9-0.5,2.5-0.8l0-0.5l0-0.5
	c-0.6-0.3-1.3-0.7-2.4-0.8c-1.1-0.1-1.8-0.7-2-1.6c-0.1-0.6-0.3-1.2-0.5-1.8c-0.4-1.4,0.6-2.1,0.9-2.3c0.9-0.7,1.4-1.4,1.7-2
	l-0.3-0.5l-0.3-0.4c-0.8,0-1.7,0.1-2.5,0.5c-0.2,0.1-0.6,0.3-1.1,0.3c-0.6,0-1.1-0.2-1.5-0.7c-0.4-0.5-0.8-0.9-1.3-1.3
	c-0.7-0.7-0.9-1.5-0.4-2.5c0.4-1,0.5-1.9,0.5-2.6l-0.4-0.3L41,15.3c-0.6,0.3-1.3,0.8-1.9,1.7c-0.2,0.3-0.8,1-1.7,1
	c-0.2,0-0.4,0-0.6-0.1c-0.6-0.2-1.2-0.4-1.8-0.5c-0.9-0.2-1.5-0.9-1.6-1.9c-0.1-1.1-0.5-1.9-0.8-2.5c-0.4,0-0.7,0-1,0
	c-0.3,0.6-0.7,1.3-0.8,2.4c-0.1,1.1-0.7,1.8-1.6,2c-0.6,0.1-1.2,0.3-1.8,0.5C27,18,26.8,18,26.6,18c-1,0-1.5-0.7-1.7-1
	c-0.7-0.9-1.4-1.4-2-1.7l-0.5,0.3l-0.4,0.3c0,0.7,0.1,1.5,0.5,2.5c0.4,1,0.3,1.9-0.4,2.5c-0.5,0.4-0.9,0.8-1.3,1.3
	c-0.4,0.4-0.9,0.7-1.5,0.7c-0.5,0-0.8-0.2-1-0.2c-0.9-0.4-1.7-0.5-2.6-0.5l-0.3,0.4L15.3,23c0.3,0.6,0.8,1.3,1.7,1.9
	c0.3,0.3,1.3,1,0.9,2.3c-0.2,0.6-0.4,1.2-0.5,1.8c-0.2,0.9-0.9,1.5-1.9,1.6c-1.1,0.1-1.9,0.5-2.5,0.8l0,0.5l0,0.5
	c0.6,0.3,1.3,0.7,2.4,0.8c1.1,0.1,1.8,0.7,2,1.6c0.1,0.6,0.3,1.2,0.5,1.7c0.3,0.9,0,1.7-0.9,2.4c-0.9,0.7-1.4,1.4-1.7,2l0.3,0.5
	l0.3,0.4c0.8,0,1.7-0.1,2.5-0.5c0.2-0.1,0.6-0.3,1.1-0.3c0.6,0,1.1,0.2,1.5,0.7c0.4,0.5,0.8,0.9,1.3,1.3c0.7,0.7,0.9,1.5,0.4,2.5
	c-0.4,1-0.5,1.9-0.5,2.6l0.4,0.3l0.5,0.3c0.6-0.3,1.3-0.8,1.9-1.7c0.2-0.3,0.8-1,1.7-1c0.2,0,0.4,0,0.7,0.1c0.6,0.2,1.2,0.3,1.7,0.5
	c0.9,0.2,1.5,0.9,1.6,1.9C30.8,49.6,31.1,50.4,31.5,51z M32,23c-5,0-9,4-9,9c0,1.8,0.5,3.5,1.4,4.9L23,38.3c-1.2-1.8-2-3.9-2-6.3
	c0-6.1,4.9-11,11-11c2.1,0,4.1,0.6,5.8,1.6l-2,1.2C34.6,23.3,33.3,23,32,23z M28.2,40.2c1.1,0.5,2.4,0.8,3.8,0.8c5,0,9-4,9-9
	c0-1.8-0.5-3.5-1.4-4.9l1.5-1.4c1.2,1.8,2,3.9,2,6.3c0,6.1-4.9,11-11,11c-2.1,0-4.1-0.6-5.8-1.6L28.2,40.2z M41,23l-6.2,5.9l2.7,0.3
	l-5.6,4.5l2.7,0.3L23,41l6.2-5.9l-2.7-0.3l5.6-4.5l-2.7-0.3L41,23z"/>
</svg>
