<?xml version="1.0" encoding="utf-8"?>
<!-- Generator: Adobe Illustrator 19.1.0, SVG Export Plug-In . SVG Version: 6.00 Build 0)  -->
<svg version="1.1" id="Layer_1" xmlns="http://www.w3.org/2000/svg" xmlns:xlink="http://www.w3.org/1999/xlink" x="0px" y="0px"
	 viewBox="0 0 64 64" style="enable-background:new 0 0 64 64;" xml:space="preserve">
<style type="text/css">
	.st0{fill:#010101;}
	.st1{fill-rule:evenodd;clip-rule:evenodd;fill:none;}
	.st2{fill-rule:evenodd;clip-rule:evenodd;fill:none;stroke:#000000;stroke-linejoin:round;stroke-miterlimit:3.8637;}
</style>
<path d="M4.1,34.5c-0.5,0.9-0.7,1.7-0.7,2.5c0,5.6,11.5,11.8,28.6,11.8c17.2,0,28.6-6.2,28.6-11.8c0-0.8-0.2-1.7-0.7-2.5
	c-5.7,4.8-16.7,7.5-27.9,7.5C20.8,42.1,9.8,39.3,4.1,34.5z M62.3,32c1.1,1.5,1.7,3.2,1.7,5c0,1.8-0.6,3.5-1.7,5.1
	c1.1,1.5,1.7,3.2,1.7,5c0,9.3-15.7,15.1-32,15.1c-16.3,0-32-5.8-32-15.1c0-1.8,0.6-3.5,1.7-5C0.6,40.6,0,38.9,0,37.1s0.6-3.5,1.7-5
	C0.6,30.5,0,28.8,0,27c0-1.8,0.6-3.5,1.7-5C0.6,20.4,0,18.7,0,16.8C0,7.5,15.7,1.7,32,1.7s32,5.9,32,15.2c0,1.8-0.6,3.5-1.7,5.1
	c1.1,1.5,1.7,3.2,1.7,5C64,28.8,63.4,30.5,62.3,32z M59.9,44.7c-5.7,4.8-16.7,7.5-27.9,7.5c-11.3,0-22.2-2.8-27.9-7.6
	c-0.5,0.9-0.7,1.7-0.7,2.5c0,5.6,11.5,11.8,28.6,11.8c17.2,0,28.6-6.2,28.6-11.8C60.6,46.4,60.4,45.5,59.9,44.7z M4.1,24.4
	c-0.5,0.9-0.7,1.7-0.7,2.5c0,5.6,11.5,11.8,28.6,11.8c17.2,0,28.6-6.2,28.6-11.8c0-0.8-0.2-1.7-0.7-2.5C54.2,29.2,43.3,32,32,32
	S9.8,29.2,4.1,24.4z M32,5.1c-17.2,0-28.6,6.2-28.6,11.8S14.8,28.6,32,28.6s28.6-6.2,28.6-11.8S49.2,5.1,32,5.1z M38.1,16
	c-1.5-1-4.5-1.3-6.1-1.3c-1.6,0-4.5,0.2-6.1,1.3c1.4,1,4.7,1.3,6.1,1.3C33.7,17.3,36.5,17,38.1,16z M25.8,12.3c1.7-0.6,3.9-1,6.2-1
	c2.6,0,9.7,0.7,9.7,4.6c0,4-7,4.6-9.7,4.6S22.3,20,22.3,16C22.3,13.9,24.4,12.8,25.8,12.3z"/>
</svg>
