<?xml version="1.0" encoding="utf-8"?>
<!-- Generator: Adobe Illustrator 19.1.0, SVG Export Plug-In . SVG Version: 6.00 Build 0)  -->
<svg version="1.1" id="Layer_1" xmlns="http://www.w3.org/2000/svg" xmlns:xlink="http://www.w3.org/1999/xlink" x="0px" y="0px"
	 viewBox="0 0 64 64" style="enable-background:new 0 0 64 64;" xml:space="preserve">
<style type="text/css">
	.st0{fill:#010101;}
</style>
<path d="M0,0h64v64H0V0z M62.4,62.4V1.6H1.6v60.7H62.4z M21.3,16.4V23h4.9v6.6h-4.9v18.1h-1.6V29.5h-4.9V23h4.9v-6.6H21.3z
	 M16.4,24.6v3.3h8.2v-3.3H16.4z M39.4,24.6v3.3h8.2v-3.3H39.4z M44.3,16.4V23h4.9v6.6h-4.9v18.1h-1.6V29.5h-4.9V23h4.9v-6.6H44.3z
	 M36.1,39.4v-3.3h-8.2v3.3H36.1z M31.2,47.6V41h-4.9v-6.6h4.9V16.4h1.6v18.1h4.9V41h-4.9v6.6H31.2z"/>
</svg>
