<?xml version="1.0" encoding="utf-8"?>
<!-- Generator: Adobe Illustrator 19.1.0, SVG Export Plug-In . SVG Version: 6.00 Build 0)  -->
<svg version="1.1" id="Layer_1" xmlns="http://www.w3.org/2000/svg" xmlns:xlink="http://www.w3.org/1999/xlink" x="0px" y="0px"
	 viewBox="0 0 64 64" style="enable-background:new 0 0 64 64;" xml:space="preserve">
<style type="text/css">
	.st0{fill:#010101;}
</style>
<g>
	<path d="M23.1,43.2l-2.3-2.3c-7,2.3-12,7.2-12.8,15.1C15.9,55.2,20.7,50.3,23.1,43.2z M59.3,4.7c-4.7-4.7-11.8-3.3-22.7,7.6
		l-0.4,0.4L15.9,33L31,48.1l20.4-20.4l0.4-0.4C62.6,16.5,63.9,9.4,59.3,4.7z M34,48.1L46.8,61c1.8-1.8,3-3.4,2.8-6.1l-0.9-20.2
		c0-0.4,0-0.9,0-1.3L34,48.1z M14.4,31.5L0,17.2c2.8-2.8,4.8-5.2,9.3-5l20.2,0.9c2,0.1,3.9-0.6,5.3-2l0.4-0.4
		C45.9,0,54.6-3,60.8,3.2C67,9.4,64,18.1,53.3,28.9l-0.4,0.4c-1.4,1.4-2.1,3.3-2,5.3l0.9,20.2c0.2,4.5-2.1,6.4-5,9.3L32.5,49.6
		L31,51.2l-6.2-6.2c-3.2,8.6-9.2,12.9-19.1,13.4c0.5-9.9,4.8-15.9,13.4-19.1L12.8,33L14.4,31.5z M30.7,15.2c-0.4,0-0.9,0-1.3,0
		L9.2,14.3c-2.8-0.1-4.3,1-6.1,2.8L15.9,30L30.7,15.2z M38.5,27L25.7,39.8l-1.5-1.5L37,25.5L38.5,27z M55.1,8.9
		c4,4,2.8,9.3-0.8,12.8L42.3,9.6C45.9,6,51.1,4.8,55.1,8.9z M53.6,10.4c-2.2-2.2-5.7-2.5-8.2-0.7l8.9,8.9
		C56.1,16.1,55.9,12.6,53.6,10.4z"/>
</g>
</svg>
