<?xml version="1.0" encoding="utf-8"?>
<!-- Generator: Adobe Illustrator 19.1.0, SVG Export Plug-In . SVG Version: 6.00 Build 0)  -->
<svg version="1.1" id="Layer_1" xmlns="http://www.w3.org/2000/svg" xmlns:xlink="http://www.w3.org/1999/xlink" x="0px" y="0px"
	 viewBox="0 0 64 64" style="enable-background:new 0 0 64 64;" xml:space="preserve">
<style type="text/css">
	.st0{fill-rule:evenodd;clip-rule:evenodd;fill:none;}
	.st1{fill:none;}
	.st2{fill:#010101;}
	.st3{fill:#020202;}
</style>
<rect x="-3.1" y="-0.5" class="st0" width="67.9" height="67.9"/>
<polygon class="st1" points="0.1,-0.5 64.1,-0.5 64.1,63.5 0.1,63.5 0.1,-0.5 "/>
<rect x="-0.6" y="-0.5" class="st0" width="64" height="64"/>
<path class="st2" d="M38.3,27.6l3.3,4.4l-3.3,4.4h-2.8l3.3-4.4l-3.3-4.4H38.3z M22.3,32l3.3-4.4h2.8L25.1,32l3.3,4.4h-2.8L22.3,32z
	 M32.5,25.4h2.3l-3.3,13.2h-2.3L32.5,25.4z M32,56.3c4.7,0,9.1-1.3,12.8-3.7c0.3-0.2,0.6-0.4,0.9-0.6c0.3-0.2,0.6-0.4,0.9-0.7
	l6.6,6.6c-1.8,1.5-3.7,2.7-5.8,3.8h14.2V47.5c-1.1,2.1-2.3,4-3.8,5.8l-6.6-6.6c0.2-0.3,0.4-0.6,0.7-0.9c0.2-0.3,0.4-0.6,0.6-0.9
	c2.3-3.7,3.7-8.1,3.7-12.8c0-4.7-1.3-9.1-3.7-12.8c-0.2-0.3-0.4-0.6-0.6-0.9c-0.2-0.3-0.4-0.6-0.7-0.9l6.6-6.6
	c1.5,1.8,2.7,3.7,3.8,5.8V2.2H47.6c2.1,1.1,4,2.4,5.8,3.8l-6.6,6.6c-0.3-0.2-0.6-0.4-0.9-0.7c-0.3-0.2-0.6-0.4-0.9-0.6
	C41.1,9.1,36.7,7.7,32,7.7c-4.7,0-9.1,1.3-12.8,3.7c-0.3,0.2-0.6,0.4-0.9,0.6c-0.3,0.2-0.6,0.4-0.9,0.7L10.7,6
	c1.8-1.5,3.7-2.7,5.8-3.8H2.2v14.2c1.1-2.1,2.4-4,3.8-5.8l6.6,6.6c-0.2,0.3-0.4,0.6-0.7,0.9c-0.2,0.3-0.4,0.6-0.6,0.9
	C9.1,22.9,7.7,27.3,7.7,32c0,4.7,1.3,9.1,3.7,12.8c0.2,0.3,0.4,0.6,0.6,0.9c0.2,0.3,0.4,0.6,0.7,0.9L6,53.3
	c-1.5-1.8-2.7-3.7-3.8-5.8v14.2l14.2,0c-2.1-1.1-4-2.4-5.8-3.8l6.6-6.6c0.3,0.2,0.6,0.4,0.9,0.7c0.3,0.2,0.6,0.4,0.9,0.6
	C22.9,54.9,27.3,56.3,32,56.3z M57.8,14l-3.5,3.5c2.7,4.1,4.3,9.1,4.3,14.4c0,5.3-1.6,10.3-4.3,14.4l3.5,3.5c1.7-2.4,3.1-5.1,4-8
	l2.2,0v0.3V64H42.3l-0.3,0v-2.2c2.9-1,5.6-2.3,8-4l-3.5-3.5c-4.1,2.7-9.1,4.3-14.4,4.3c-5.3,0-10.3-1.6-14.4-4.3L14,57.8
	c2.4,1.7,5.1,3.1,8,4V64l-0.3,0H0V42.3v-0.3h2.2c1,2.9,2.3,5.6,4,8l3.5-3.5C7.1,42.3,5.5,37.3,5.5,32c0-5.3,1.6-10.3,4.3-14.4
	L6.2,14c-1.7,2.4-3.1,5.1-4,8H0v-0.3V0h21.7l0.3,0v2.2c-2.9,1-5.6,2.3-8,4l3.5,3.5c4.1-2.7,9.1-4.3,14.4-4.3
	c5.3,0,10.3,1.6,14.4,4.3L50,6.2c-2.4-1.7-5.1-3.1-8-4V0l0.3,0H64v21.7v0.3l-2.2,0C60.8,19.2,59.5,16.5,57.8,14z M32,50.8
	c-10.3,0-18.8-8.4-18.8-18.8S21.7,13.2,32,13.2c10.3,0,18.8,8.4,18.8,18.8S42.3,50.8,32,50.8z M48.6,32c0-9.1-7.4-16.6-16.6-16.6
	S15.4,22.9,15.4,32S22.9,48.6,32,48.6S48.6,41.1,48.6,32z"/>
</svg>
