<?xml version="1.0" encoding="utf-8"?>
<!-- Generator: Adobe Illustrator 19.1.0, SVG Export Plug-In . SVG Version: 6.00 Build 0)  -->
<svg version="1.1" id="Layer_1" xmlns="http://www.w3.org/2000/svg" xmlns:xlink="http://www.w3.org/1999/xlink" x="0px" y="0px"
	 viewBox="0 0 64 64" style="enable-background:new 0 0 64 64;" xml:space="preserve">
<style type="text/css">
	.st0{fill:#010101;}
</style>
<path d="M0.1,15.4h63.7v33.2H0.1V15.4z M61.3,45.9V18H2.7v27.9H61.3z M22.2,36.2h13v-3.9h-13V36.2z M7.9,36.2h13v-3.9h-13V36.2z
	 M20.9,21.9h-13v3.9h13V21.9z M35.3,21.9h-13v3.9h13V21.9z M22.2,27.1V31h13v-3.9H22.2z M20.9,31v-3.9h-13V31H20.9z M36.6,42.6H6.6
	v-22h29.9V42.6z M55.4,25.8c-1.1,0-2-0.9-2-2c0-1.1,0.9-2,2-2c1.1,0,2,0.9,2,2C57.4,24.9,56.5,25.8,55.4,25.8z M40.5,23.2h10.4v1.3
	H40.5V23.2z M22.2,41.4h13v-3.9h-13V41.4z M7.9,41.4h13v-3.9h-13V41.4z"/>
</svg>
