<?xml version="1.0" encoding="utf-8"?>
<!-- Generator: Adobe Illustrator 19.1.0, SVG Export Plug-In . SVG Version: 6.00 Build 0)  -->
<svg version="1.1" id="Layer_1" xmlns="http://www.w3.org/2000/svg" xmlns:xlink="http://www.w3.org/1999/xlink" x="0px" y="0px"
	 viewBox="0 0 64 64" style="enable-background:new 0 0 64 64;" xml:space="preserve">
<style type="text/css">
	.st0{fill:#010101;}
	.st1{fill-rule:evenodd;clip-rule:evenodd;fill:none;}
	.st2{fill-rule:evenodd;clip-rule:evenodd;fill:none;stroke:#000000;stroke-linejoin:round;stroke-miterlimit:3.8637;}
</style>
<path d="M46.1,21.3L30.7,20v4.6l15.4,1.5V21.3z M46.1,27.4l-15.4-1.5v4l15.4,1.6V27.4z M46.1,32.7l-15.4-1.6v4l15.4,1.8V32.7z
	 M46.1,38.1l-15.4-1.8v15.1l15.4,2.2V38.1z M35.3,17.8l11.9,1.1l10.9-3.8l-10.9-0.9L35.3,17.8z M61.4,16.6l-12.8,4.5v32l12.8-5.8
	V16.6z M7.1,13.8L19,14.9l10.9-3.8L19,10.2L7.1,13.8z M17.9,34.1L2.6,32.3v15.1l15.4,2.2V34.1z M17.9,28.7L2.6,27.1v4l15.4,1.8V28.7
	z M17.9,23.4L2.6,21.8v4l15.4,1.6V23.4z M17.9,17.3L2.6,16v4.6l15.4,1.5V17.3z M33.3,15.7v-3.1l-12.8,4.5v32l7.7-3.5V17.3L33.3,15.7
	z M35.8,9v6l11-3.4L64,13v36l-16.5,7.4l-19.4-2.8v-5.2l-8.8,3.9L0,49.6V13.3l18.7-5.7L35.8,9z M41,42.3c0-0.7,0.6-1.3,1.3-1.3
	c0.7,0,1.3,0.6,1.3,1.3c0,0.7-0.6,1.3-1.3,1.3C41.5,43.6,41,43,41,42.3z M41,47.4c0-0.7,0.6-1.3,1.3-1.3c0.7,0,1.3,0.6,1.3,1.3
	c0,0.7-0.6,1.3-1.3,1.3C41.5,48.7,41,48.2,41,47.4z M12.8,43.4c0-0.7,0.6-1.3,1.3-1.3c0.7,0,1.3,0.6,1.3,1.3c0,0.7-0.6,1.3-1.3,1.3
	C13.4,44.7,12.8,44.1,12.8,43.4z M12.8,38.3c0-0.7,0.6-1.3,1.3-1.3c0.7,0,1.3,0.6,1.3,1.3c0,0.7-0.6,1.3-1.3,1.3
	C13.4,39.6,12.8,39,12.8,38.3z"/>
</svg>
