<?xml version="1.0" encoding="utf-8"?>
<!-- Generator: Adobe Illustrator 19.1.0, SVG Export Plug-In . SVG Version: 6.00 Build 0)  -->
<svg version="1.1" id="Layer_1" xmlns="http://www.w3.org/2000/svg" xmlns:xlink="http://www.w3.org/1999/xlink" x="0px" y="0px"
	 viewBox="0 0 64 64" style="enable-background:new 0 0 64 64;" xml:space="preserve">
<style type="text/css">
	.st0{fill:none;}
	.st1{fill:#010101;}
</style>
<g>
	<polygon class="st0" points="2.7,0.1 62.2,0.1 62.2,59.7 2.7,59.7 2.7,0.1 	"/>
</g>
<g>
	<g>
		<polygon class="st0" points="1.6,1.6 62.4,1.6 62.4,62.4 1.6,62.4 1.6,1.6 		"/>
	</g>
	<path class="st1" d="M32,6.2c-12.9,0-23.6,9.5-25.5,21.9l-1.4-1.4C7.6,14.2,18.7,4.7,32,4.7c15,0,27.1,12.1,27.3,27l3.6-3.6
		l1.1,1.1l-5.5,5.5l-5.5-5.5l1.1-1.1l3.6,3.6C57.6,17.6,46.1,6.2,32,6.2z M9.8,35.9l1.1-1.1l-5.5-5.5L0,34.8l1.1,1.1l3.6-3.6
		c0.2,14.9,12.3,27,27.3,27c13.3,0,24.4-9.5,26.8-22.2l-1.4-1.4C55.6,48.2,44.9,57.8,32,57.8c-14.1,0-25.6-11.4-25.8-25.4L9.8,35.9z
		 M20.3,21.9v-1.6c0-1.3,1-2.3,2.3-2.3c1.3,0,2.3,1,2.3,2.3c0,0.2,0,0.4-0.1,0.6l-0.3,1H20.3z M26.5,43.7v-1.6h17.2l0,1.6
		c0,1.3-1.1,2.3-2.4,2.3H25.8C26.2,45.4,26.5,44.6,26.5,43.7z M18.7,20.3v3.1h5.5l-5.3,19.3c-0.1,0.3-0.1,0.6-0.1,1
		c0,2.2,1.7,3.9,3.9,3.9h18.7c2.2,0,3.9-1.7,3.9-3.9l0-3.1h-5.5l5.3-19.3c0.1-0.3,0.1-0.6,0.1-1c0-2.2-1.7-3.9-3.9-3.9H22.6
		C20.5,16.4,18.7,18.1,18.7,20.3z M25,40.6v3.1c0,1.3-1,2.3-2.3,2.3c-1.3,0-2.3-1-2.3-2.3c0-0.2,0-0.4,0.1-0.6l6-21.8
		c0.1-0.3,0.1-0.6,0.1-1c0-0.9-0.3-1.7-0.8-2.3h15.6c1.3,0,2.3,1,2.3,2.3c0,0.2,0,0.4-0.1,0.6l-5.5,19.7H25z M27.5,35.1h2L27.1,32
		l2.3-3.1h-2L25.2,32L27.5,35.1z M34.5,28.9l2.3,3.1l-2.3,3.1h2l2.3-3.1l-2.3-3.1H34.5z M30,36.7h1.6l2.3-9.4h-1.6L30,36.7z"/>
</g>
</svg>
