<?xml version="1.0" encoding="utf-8"?>
<!-- Generator: Adobe Illustrator 19.1.0, SVG Export Plug-In . SVG Version: 6.00 Build 0)  -->
<svg version="1.1" id="Layer_1" xmlns="http://www.w3.org/2000/svg" xmlns:xlink="http://www.w3.org/1999/xlink" x="0px" y="0px"
	 viewBox="0 0 64 64" style="enable-background:new 0 0 64 64;" xml:space="preserve">
<style type="text/css">
	.st0{fill:#010101;}
	.st1{fill-rule:evenodd;clip-rule:evenodd;fill:none;}
	.st2{fill-rule:evenodd;clip-rule:evenodd;fill:none;stroke:#000000;stroke-linejoin:round;stroke-miterlimit:3.8637;}
</style>
<path d="M60.7,13.1H3.3v37.7h57.4V13.1z M64,9.8v44.3H0V9.8H64z M55.8,29.5v3.3h-1.6v-3.3H55.8z M8.2,19.7h47.6V23H8.2V19.7z
	 M8.2,44.3h11.5v1.6H8.2V44.3z M23,44.3h3.3v1.6H23V44.3z M29.5,44.3h9.8v1.6h-9.8V44.3z M55.8,37.7v8.2H44.3v-8.2H55.8z M36.1,37.7
	h3.3v1.6h-3.3V37.7z M29.5,37.7h3.3v1.6h-3.3V37.7z M9.8,29.5v3.3H8.2v-3.3H9.8z M13.1,29.5v3.3h-1.6v-3.3H13.1z M16.4,29.5v3.3
	h-1.6v-3.3H16.4z M19.7,29.5v3.3h-1.6v-3.3H19.7z M23,29.5v3.3h-1.6v-3.3H23z M26.3,29.5v3.3h-1.6v-3.3H26.3z M29.5,29.5v3.3h-1.6
	v-3.3H29.5z M32.8,29.5v3.3h-1.6v-3.3H32.8z M36.1,29.5v3.3h-1.6v-3.3H36.1z M39.4,29.5v3.3h-1.6v-3.3H39.4z M42.7,29.5v3.3H41v-3.3
	H42.7z M45.9,29.5v3.3h-1.6v-3.3H45.9z M49.2,29.5v3.3h-1.6v-3.3H49.2z M52.5,29.5v3.3h-1.6v-3.3H52.5z"/>
</svg>
