<?xml version="1.0" encoding="utf-8"?>
<!-- Generator: Adobe Illustrator 19.1.0, SVG Export Plug-In . SVG Version: 6.00 Build 0)  -->
<svg version="1.1" id="Layer_1" xmlns="http://www.w3.org/2000/svg" xmlns:xlink="http://www.w3.org/1999/xlink" x="0px" y="0px"
	 viewBox="0 0 64 64" style="enable-background:new 0 0 64 64;" xml:space="preserve">
<style type="text/css">
	.st0{fill:#010101;}
	.st1{fill-rule:evenodd;clip-rule:evenodd;fill:none;}
	.st2{fill-rule:evenodd;clip-rule:evenodd;fill:none;stroke:#000000;stroke-linejoin:round;stroke-miterlimit:3.8637;}
</style>
<path d="M7.7,0h48.6v64H7.7V0z M12.1,59.6h39.7V4.4H12.1V59.6z M43,41.9h4.4v13.2H43V41.9z M16.6,8.8h30.9v11H16.6V8.8z M16.6,24.3
	H21v4.4h-4.4V24.3z M25.4,24.3h4.4v4.4h-4.4V24.3z M34.2,24.3h4.4v4.4h-4.4V24.3z M43,24.3h4.4v4.4H43V24.3z M16.6,33.1H21v4.4h-4.4
	V33.1z M25.4,33.1h4.4v4.4h-4.4V33.1z M34.2,33.1h4.4v4.4h-4.4V33.1z M43,33.1h4.4v4.4H43V33.1z M16.6,41.9H21v4.4h-4.4V41.9z
	 M25.4,41.9h4.4v4.4h-4.4V41.9z M34.2,41.9h4.4v4.4h-4.4V41.9z M16.6,50.8h13.2v4.4H16.6V50.8z M34.2,50.8h4.4v4.4h-4.4V50.8z"/>
</svg>
