<?xml version="1.0" encoding="utf-8"?>
<!-- Generator: Adobe Illustrator 19.1.0, SVG Export Plug-In . SVG Version: 6.00 Build 0)  -->
<svg version="1.1" id="Layer_1" xmlns="http://www.w3.org/2000/svg" xmlns:xlink="http://www.w3.org/1999/xlink" x="0px" y="0px"
	 viewBox="0 0 64 64" style="enable-background:new 0 0 64 64;" xml:space="preserve">
<style type="text/css">
	.st0{fill-rule:evenodd;clip-rule:evenodd;fill:none;}
	.st1{fill:none;}
	.st2{fill:#010101;}
	.st3{fill:#020202;}
</style>
<rect x="-1.9" y="-0.4" class="st0" width="67.9" height="67.9"/>
<path class="st2" d="M61.9,4.3H2.1v6.4h59.7V4.3z M0,2.1h64v59.7H0V2.1z M2.1,23.5h10.7c-0.5,0.7-0.9,1.4-1.2,2.1H2.1v34.1h59.7
	V25.6h-9.7c0.2-0.7,0.3-1.4,0.3-2.1h9.4V12.8H2.1V23.5z M41.2,29.1L24.8,45.4c1.1,2.4,0.7,5.3-1.3,7.3c-1.8,1.8-4.5,2.3-6.8,1.5
	l2.8-2.8c1-1,1-2.7,0-3.8c-1-1-2.7-1-3.8,0L13,50.4c-0.8-2.3-0.4-4.9,1.5-6.8c2-2,4.9-2.4,7.3-1.3l16.4-16.4
	c-1.1-2.4-0.7-5.3,1.3-7.3c1.8-1.8,4.5-2.3,6.8-1.5l-2.8,2.8c-1,1-1,2.7,0,3.8c1,1,2.7,1,3.8,0l2.8-2.8c0.8,2.3,0.4,4.9-1.5,6.8
	C46.5,29.8,43.5,30.2,41.2,29.1z M47.2,31.2c0.1,0.4,0.2,0.8,0.3,1.3c2,0.4,2.5,0.5,4.2,1.6c0.1,0.5,0.1,1.1,0.1,1.6
	c0,0.6,0,1.1-0.1,1.6c-1.3,0.9-2.4,1.5-4,1.7l-0.2,0c-0.1,0.6-0.3,1.2-0.5,1.8c1.5,1.4,2,1.7,2.8,3.5c-0.4,1-1,1.9-1.6,2.8
	c-1.6,0.1-2.8,0.1-4.3-0.6l-0.2-0.1c-0.4,0.5-0.8,0.9-1.3,1.3c0.7,1.7,0.8,2.9,0.6,4.5c-0.9,0.7-1.8,1.2-2.8,1.6
	c-1.5-0.7-2.5-1.3-3.5-2.6c-0.8,0.1-1.3,0.2-1.9,0.3c-0.4,2-0.5,2.5-1.6,4.2C32.6,56,32,56,31.5,56c-0.6,0-1.1,0-1.6-0.1
	c-0.9-1.3-1.5-2.4-1.7-4l0-0.2c-0.4-0.1-0.8-0.2-1.2-0.3c0.3-0.7,0.5-1.4,0.5-2.1c0.4,0.1,0.8,0.2,1.2,0.3c2,0.4,1.6,2.8,2.4,4.2
	l0.4,0l0.4,0c0.8-1.4,0.4-3.8,2.4-4.2c0.6-0.1,1.2-0.3,1.7-0.5c1.9-0.5,2.7,1.7,4.1,2.5l0.4-0.2l0.4-0.2c0-1.6-1.5-3.5,0-4.9
	c0.4-0.4,0.8-0.8,1.2-1.2c1.4-1.5,3.3,0.1,4.9,0l0.2-0.4l0.2-0.4c-0.8-1.5-3-2.2-2.5-4.2c0.2-0.5,0.3-1.1,0.4-1.7
	c0.4-2,2.8-1.6,4.2-2.4l0-0.4l0-0.4c-1.4-0.8-3.8-0.4-4.2-2.4c-0.1-0.4-0.2-0.8-0.3-1.2C45.8,31.7,46.5,31.5,47.2,31.2z M20.6,23.6
	c-0.7-1.7-0.8-2.9-0.6-4.5c0.9-0.7,1.8-1.2,2.8-1.6c1.5,0.7,2.5,1.3,3.5,2.6c0.8-0.1,1.3-0.2,1.9-0.3c0.4-2,0.5-2.5,1.6-4.2
	c0.5-0.1,1.1-0.1,1.6-0.1c0.6,0,1.1,0,1.6,0.1c0.9,1.3,1.5,2.4,1.7,4l0,0.2c0.4,0.1,0.8,0.2,1.2,0.3c-0.3,0.7-0.5,1.4-0.5,2.1
	c-0.4-0.1-0.8-0.2-1.2-0.3c-2-0.4-1.6-2.8-2.4-4.2l-0.4,0l-0.4,0c-0.7,1.1-0.5,3.1-1.5,3.8c-0.2,0.2-0.5,0.3-0.9,0.4
	c-0.6,0.1-1.2,0.3-1.7,0.5c-1.9,0.6-2.7-1.7-4.1-2.5L22.4,20L22,20.3c0,1.6,1.5,3.5,0,4.9c-0.4,0.4-0.8,0.8-1.2,1.2
	c-1.4,1.5-3.2-0.1-4.9,0l-0.2,0.4l-0.2,0.4c0.8,1.5,3,2.2,2.5,4.2c-0.2,0.5-0.3,1.1-0.4,1.7c-0.4,2-2.8,1.6-4.2,2.4l0,0.4l0,0.4
	c1.4,0.8,3.8,0.4,4.2,2.4c0.1,0.4,0.2,0.8,0.3,1.2c-0.7,0.1-1.4,0.3-2.1,0.6c-0.1-0.4-0.2-0.8-0.3-1.3c-2-0.4-2.5-0.5-4.2-1.6
	c-0.1-0.5-0.1-1.1-0.1-1.6c0-0.6,0-1.1,0.1-1.6c1.3-0.9,2.4-1.5,4-1.7l0.2,0c0.1-0.6,0.3-1.2,0.5-1.8c-1.5-1.4-1.9-1.7-2.8-3.5
	c0.4-1,1-1.9,1.6-2.8c1.6-0.1,2.8-0.1,4.3,0.6l0.2,0.1C19.8,24.4,20.1,24,20.6,23.6z M30.2,43.1c0.4,0.1,0.9,0.1,1.3,0.1
	c4.1,0,7.5-3.3,7.5-7.5c0-0.4,0-0.9-0.1-1.3l1.7-1.7c0.3,1,0.5,2,0.5,3.1c0,5.3-4.3,9.6-9.6,9.6c-1.1,0-2.1-0.2-3.1-0.5L30.2,43.1z
	 M24,35.7c0,0.4,0,0.9,0.1,1.3l-1.7,1.7c-0.3-1-0.5-2-0.5-3.1c0-5.3,4.3-9.6,9.6-9.6c1.1,0,2.1,0.2,3.1,0.5l-1.7,1.7
	c-0.4-0.1-0.9-0.1-1.3-0.1C27.3,28.3,24,31.6,24,35.7z M4.3,7.5c0-0.6,0.5-1.1,1.1-1.1s1.1,0.5,1.1,1.1S5.9,8.5,5.3,8.5
	S4.3,8.1,4.3,7.5z M8.5,7.5c0-0.6,0.5-1.1,1.1-1.1c0.6,0,1.1,0.5,1.1,1.1s-0.5,1.1-1.1,1.1C9,8.5,8.5,8.1,8.5,7.5z M12.8,7.5
	c0-0.6,0.5-1.1,1.1-1.1c0.6,0,1.1,0.5,1.1,1.1s-0.5,1.1-1.1,1.1C13.3,8.5,12.8,8.1,12.8,7.5z"/>
</svg>
