<?xml version="1.0" encoding="utf-8"?>
<!-- Generator: Adobe Illustrator 19.1.0, SVG Export Plug-In . SVG Version: 6.00 Build 0)  -->
<svg version="1.1" id="Layer_1" xmlns="http://www.w3.org/2000/svg" xmlns:xlink="http://www.w3.org/1999/xlink" x="0px" y="0px"
	 viewBox="0 0 64 64" style="enable-background:new 0 0 64 64;" xml:space="preserve">
<style type="text/css">
	.st0{fill:#010101;}
</style>
<path d="M0,0h64v64H0V0z M62.4,62.4V1.6H1.6v60.7H62.4z M48.4,28.7h-3.3v19.7h3.3V28.7z M43.5,27.1h6.6v23h-6.6V27.1z M18.9,30.4
	h-3.3v18.1h3.3V30.4z M13.9,28.7h6.6v21.3h-6.6V28.7z M28.7,18.9h-3.3v29.5h3.3V18.9z M23.8,17.2h6.6v32.8h-6.6V17.2z M38.6,35.3
	h-3.3v13.1h3.3V35.3z M33.6,33.6h6.6v16.4h-6.6V33.6z"/>
</svg>
