<?xml version="1.0" encoding="utf-8"?>
<!-- Generator: Adobe Illustrator 19.1.0, SVG Export Plug-In . SVG Version: 6.00 Build 0)  -->
<svg version="1.1" id="Layer_1" xmlns="http://www.w3.org/2000/svg" xmlns:xlink="http://www.w3.org/1999/xlink" x="0px" y="0px"
	 viewBox="0 0 64 64" style="enable-background:new 0 0 64 64;" xml:space="preserve">
<style type="text/css">
	.st0{fill:#010101;}
	.st1{fill-rule:evenodd;clip-rule:evenodd;fill:none;}
	.st2{fill-rule:evenodd;clip-rule:evenodd;fill:none;stroke:#000000;stroke-linejoin:round;stroke-miterlimit:3.8637;}
</style>
<path d="M46.8,49.7v-8.6H43v8.6H46.8z M42,40.1h5.7v9.6h11.5V18.1H4.8v31.5H42V40.1z M54.4,16.2v-1.9H35.3v1.9H54.4z M56.4,12.4v3.8
	h4.8v33.4H64v1.9H0v-1.9h2.9V16.2h30.6v-3.8H56.4z M50.6,23h5.7v5.7h-5.7V23z M55.4,24h-3.8v3.8h3.8V24z M12.4,32.6H8.6v3.8h3.8
	V32.6z M7.6,31.6h5.7v5.7H7.6V31.6z M12.4,41.2H8.6V45h3.8V41.2z M7.6,40.2h5.7V46H7.6V40.2z M21,32.6h-3.8v3.8H21V32.6z M16.2,31.6
	H22v5.7h-5.7V31.6z M21,41.2h-3.8V45H21V41.2z M16.2,40.2H22V46h-5.7V40.2z M29.6,32.6h-3.8v3.8h3.8V32.6z M24.8,31.6h5.7v5.7h-5.7
	V31.6z M29.6,41.2h-3.8V45h3.8V41.2z M24.8,40.2h5.7V46h-5.7V40.2z M38.2,32.6h-3.8v3.8h3.8V32.6z M33.4,31.6h5.7v5.7h-5.7V31.6z
	 M38.2,41.2h-3.8V45h3.8V41.2z M33.4,40.2h5.7V46h-5.7V40.2z M46.8,32.6H43v3.8h3.8V32.6z M42,31.6h5.7v5.7H42V31.6z M55.4,32.6
	h-3.8v3.8h3.8V32.6z M50.6,31.6h5.7v5.7h-5.7V31.6z M55.4,41.2h-3.8V45h3.8V41.2z M50.6,40.2h5.7V46h-5.7V40.2z M12.4,24H8.6v3.8
	h3.8V24z M7.6,23h5.7v5.7H7.6V23z M21,24h-3.8v3.8H21V24z M16.2,23H22v5.7h-5.7V23z M29.6,24h-3.8v3.8h3.8V24z M24.8,23h5.7v5.7
	h-5.7V23z M38.2,24h-3.8v3.8h3.8V24z M33.4,23h5.7v5.7h-5.7V23z M46.8,24H43v3.8h3.8V24z M42,23h5.7v5.7H42V23z"/>
</svg>
