<?xml version="1.0" encoding="utf-8"?>
<!-- Generator: Adobe Illustrator 19.1.0, SVG Export Plug-In . SVG Version: 6.00 Build 0)  -->
<svg version="1.1" id="Layer_1" xmlns="http://www.w3.org/2000/svg" xmlns:xlink="http://www.w3.org/1999/xlink" x="0px" y="0px"
	 viewBox="0 0 64 64" style="enable-background:new 0 0 64 64;" xml:space="preserve">
<style type="text/css">
	.st0{fill:#010101;}
</style>
<path d="M62.4,62.4V1.6H1.6v60.7H62.4z M0,0h64v64H0V0z M45.1,17.8c-2.5-0.5-8.1-1.4-13.1-1.4c-5,0-10.6,0.9-13.1,1.4v15.4
	c0,8.6,6.4,14.1,13.1,16c6.7-1.9,13.1-7.4,13.1-16V17.8z M32,14.8c6.9,0,14.8,1.6,14.8,1.6v16.8c0,9.7-7.4,15.8-14.8,17.7
	c-7.3-1.9-14.8-8-14.8-17.7V16.4C17.2,16.4,25.1,14.8,32,14.8z M23.8,29.5h3.3v-4.9c0-2.7,2.2-4.9,4.9-4.9c2.7,0,4.9,2.2,4.9,4.9
	v4.9h3.3V41H23.8V29.5z M28.7,29.5h6.6v-4.9c0-1.8-1.5-3.3-3.3-3.3c-1.8,0-3.3,1.5-3.3,3.3V29.5z M38.6,31.2H25.4v8.2h13.1V31.2z"/>
</svg>
