<?xml version="1.0" encoding="utf-8"?>
<!-- Generator: Adobe Illustrator 19.1.0, SVG Export Plug-In . SVG Version: 6.00 Build 0)  -->
<svg version="1.1" id="Layer_1" xmlns="http://www.w3.org/2000/svg" xmlns:xlink="http://www.w3.org/1999/xlink" x="0px" y="0px"
	 viewBox="0 0 64 64" style="enable-background:new 0 0 64 64;" xml:space="preserve">
<style type="text/css">
	.st0{fill:#010101;}
</style>
<path d="M51.9,37.8l-0.1,0.4l-0.4-0.1c0,0.6,0.1,1.3,0.2,2.1c0.4,3.2,0.8,6.6-1.9,9.3c-1.5,1.5-3.4,2.2-5.9,2.2
	c-1.1,0-2.3-0.1-3.4-0.3c-0.7-0.1-1.4-0.2-2.2-0.2l0.1,0.4l-0.4,0.1c-1.9,0.6-3.8,0.8-5.8,0.8s-3.9-0.3-5.8-0.8l-0.4-0.1l0.1-0.4
	c-0.7,0-1.3,0.1-2.1,0.2c-1.1,0.1-2.3,0.3-3.4,0.3c-2.5,0-4.4-0.7-5.9-2.2c-2.7-2.7-2.3-6.1-1.9-9.3c0.1-0.7,0.2-1.4,0.2-2.1
	l-0.4,0.1l-0.1-0.4c-0.6-1.9-0.8-3.8-0.8-5.8c0-2,0.3-3.9,0.8-5.8l0.1-0.4l0.4,0.1c0-0.6-0.1-1.3-0.2-2.1c-0.4-3.2-0.8-6.6,1.9-9.3
	c1.5-1.5,3.4-2.2,5.9-2.2c1.1,0,2.3,0.1,3.5,0.3c0.7,0.1,1.4,0.2,2.1,0.2l-0.1-0.4l0.4-0.1c3.8-1.1,7.9-1.1,11.6,0l0.4,0.1l-0.1,0.4
	c0.7,0,1.3-0.1,2.1-0.2c1.1-0.1,2.3-0.3,3.4-0.3c2.5,0,4.4,0.7,5.9,2.2c2.7,2.7,2.3,6.1,1.9,9.3c-0.1,0.7-0.2,1.4-0.2,2.1l0.4-0.1
	l0.1,0.4c0.5,1.9,0.8,3.8,0.8,5.8C52.7,34,52.4,35.9,51.9,37.8z M40.5,32c0-4.7-3.8-8.5-8.5-8.5s-8.5,3.8-8.5,8.5
	c0,4.7,3.8,8.5,8.5,8.5S40.5,36.7,40.5,32z M22.3,28.4c1-2.8,3.3-5.1,6.1-6.1l-1.7-6.4c-5.1,1.7-9.1,5.7-10.8,10.8L22.3,28.4z
	 M48.1,26.7c-1.7-5.1-5.7-9.1-10.8-10.8l-1.7,6.4c2.8,1,5.1,3.3,6.1,6.1L48.1,26.7z M21.8,30.2L13.6,28c-0.3,1.3-0.4,2.6-0.4,4
	c0,1.3,0.1,2.7,0.4,4l8.2-2.2c-0.1-0.6-0.2-1.2-0.2-1.8C21.6,31.4,21.7,30.8,21.8,30.2z M15.9,37.3c1.7,5.1,5.7,9.1,10.8,10.8
	l1.7-6.4c-2.8-1-5.1-3.3-6.1-6.1L15.9,37.3z M41.7,35.6c-1,2.8-3.3,5.1-6.1,6.1l1.7,6.4c5.1-1.7,9.1-5.7,10.8-10.8L41.7,35.6z
	 M42.2,33.8l8.2,2.2c0.3-1.3,0.4-2.6,0.4-4c0-1.3-0.1-2.7-0.4-4l-8.2,2.2c0.1,0.6,0.1,1.2,0.1,1.8C42.4,32.6,42.3,33.2,42.2,33.8z
	 M49.7,23.5c0.4-3.1,0.7-5.7-1.4-7.8c-1.2-1.1-2.6-1.7-4.6-1.7c-1,0-2.1,0.1-3.2,0.3l-1.6,0.2c4.8,1.9,8.7,5.7,10.6,10.6L49.7,23.5z
	 M33.8,21.8l2.2-8.2c-2.6-0.6-5.3-0.6-7.9,0l2.2,8.2c0.6-0.1,1.2-0.2,1.8-0.2S33.2,21.7,33.8,21.8z M23.5,14.3
	c-1.1-0.1-2.2-0.3-3.2-0.3c-2,0-3.4,0.5-4.5,1.7c-2.1,2.1-1.8,4.7-1.4,7.8l0.2,1.6c1.9-4.8,5.7-8.7,10.6-10.6
	C24.6,14.4,24,14.4,23.5,14.3z M14.3,40.5c-0.4,3.1-0.7,5.7,1.4,7.8c1.2,1.1,2.6,1.7,4.6,1.7c1,0,2.1-0.1,3.2-0.3l1.6-0.2
	c-4.8-1.9-8.7-5.7-10.6-10.6C14.4,39.5,14.4,40,14.3,40.5z M30.2,42.2L28,50.4c2.6,0.6,5.3,0.6,7.9,0l-2.2-8.2
	C32.6,42.4,31.4,42.4,30.2,42.2z M49.5,38.9c-1.9,4.8-5.7,8.7-10.6,10.6c0.5,0,1,0.1,1.6,0.2c1.1,0.1,2.2,0.3,3.2,0.3
	c2,0,3.4-0.5,4.5-1.7c2.1-2.1,1.8-4.7,1.4-7.8L49.5,38.9z"/>
<path d="M0,0h64v64H0V0z M62.4,62.4V1.6H1.6v60.7H62.4z"/>
</svg>
