<?xml version="1.0" encoding="utf-8"?>
<!-- Generator: Adobe Illustrator 19.1.0, SVG Export Plug-In . SVG Version: 6.00 Build 0)  -->
<svg version="1.1" id="Layer_1" xmlns="http://www.w3.org/2000/svg" xmlns:xlink="http://www.w3.org/1999/xlink" x="0px" y="0px"
	 viewBox="0 0 64 64" style="enable-background:new 0 0 64 64;" xml:space="preserve">
<style type="text/css">
	.st0{fill:#010101;}
	.st1{fill-rule:evenodd;clip-rule:evenodd;fill:none;}
	.st2{fill-rule:evenodd;clip-rule:evenodd;fill:none;stroke:#000000;stroke-linejoin:round;stroke-miterlimit:3.8637;}
</style>
<path d="M32,0C14.3,0,0,14.3,0,32c0,17.7,14.3,32,32,32s32-14.3,32-32C64,14.3,49.7,0,32,0z M61.5,31.4H50.8
	c-0.1-3.3-1.1-6.4-2.7-9.1c-0.1-0.3-0.1-0.6-0.2-1h11.6C60.7,24.5,61.4,27.8,61.5,31.4z M59,20.1H47.7c-0.9-3.9-2.2-7.3-3.8-10h7.8
	C54.8,12.8,57.3,16.2,59,20.1z M50.2,8.8h-7.1C41.2,6,38.9,4,36.4,2.8C41.6,3.6,46.3,5.7,50.2,8.8z M32.6,3.2
	c3.3,0.2,6.4,2.2,8.9,5.6h-8.9V3.2z M32.6,10h9.7c1.7,2.6,3,5.9,3.9,9.8c-3.3-3.9-8.2-6.4-13.7-6.6V10z M22.5,8.8
	c2.5-3.4,5.6-5.4,8.9-5.6v5.6H22.5z M31.4,10v3.2c-5.5,0.2-10.4,2.7-13.7,6.6c0.9-3.8,2.3-7.1,3.9-9.8H31.4z M27.6,2.8
	C25.1,4,22.8,6,20.9,8.8h-7.1C17.7,5.7,22.4,3.6,27.6,2.8z M12.3,10h7.8c-1.6,2.8-2.9,6.2-3.8,10H5C6.7,16.2,9.2,12.8,12.3,10z
	 M4.5,21.3h11.6c-0.1,0.3-0.1,0.6-0.2,1c-1.6,2.7-2.6,5.8-2.7,9.1H2.5C2.6,27.8,3.3,24.5,4.5,21.3z M2.5,32.6h10.7
	c0.1,3.3,1.1,6.4,2.7,9.1c0.1,0.3,0.1,0.6,0.2,1H4.5C3.3,39.5,2.6,36.2,2.5,32.6z M5,43.9h11.3c0.9,3.9,2.2,7.3,3.8,10h-7.8
	C9.2,51.2,6.7,47.8,5,43.9z M13.8,55.2h7.1c1.9,2.8,4.1,4.8,6.6,5.9C22.4,60.4,17.7,58.3,13.8,55.2z M31.4,60.8
	c-3.3-0.2-6.4-2.2-8.9-5.6h8.9V60.8z M31.4,54h-9.7c-1.7-2.6-3-5.9-3.9-9.8c3.3,3.9,8.2,6.4,13.7,6.6V54z M14.4,32
	c0-9.7,7.9-17.6,17.6-17.6c9.7,0,17.6,7.9,17.6,17.6S41.7,49.6,32,49.6C22.3,49.6,14.4,41.7,14.4,32z M46.3,44.2
	C45.4,48,44,51.3,42.4,54h-9.7v-3.2C38.1,50.6,43,48.1,46.3,44.2z M32.6,55.2h8.9c-2.5,3.4-5.6,5.4-8.9,5.6V55.2z M36.4,61.2
	c2.5-1.1,4.7-3.2,6.6-5.9h7.1C46.3,58.3,41.6,60.4,36.4,61.2z M51.7,54h-7.8c1.6-2.8,2.9-6.2,3.8-10H59C57.3,47.8,54.8,51.2,51.7,54
	z M59.5,42.7H47.9c0.1-0.3,0.1-0.6,0.2-1c1.6-2.7,2.6-5.8,2.7-9.1h10.7C61.4,36.2,60.7,39.5,59.5,42.7z M36.3,31.4h7.9L41,28.1
	l0.9-0.9l4.8,4.8l-4.8,4.8L41,35.9l3.3-3.3h-7.9c-0.3,1.9-1.8,3.4-3.7,3.7v7.9l3.3-3.3l0.9,0.9L32,46.7l-4.8-4.8l0.9-0.9l3.3,3.3
	v-7.9c-1.9-0.3-3.4-1.8-3.7-3.7h-7.9l3.3,3.3l-0.9,0.9L17.3,32l4.8-4.8l0.9,0.9l-3.3,3.3h7.9c0.3-1.9,1.8-3.4,3.7-3.7v-7.9L28.1,23
	l-0.9-0.9l4.8-4.8l4.8,4.8L35.9,23l-3.3-3.3v7.9C34.6,27.9,36.1,29.4,36.3,31.4z M32,28.9c-1.7,0-3.1,1.4-3.1,3.1
	c0,1.7,1.4,3.1,3.1,3.1c1.7,0,3.1-1.4,3.1-3.1C35.1,30.3,33.7,28.9,32,28.9z"/>
</svg>
