<?xml version="1.0" encoding="utf-8"?>
<!-- Generator: Adobe Illustrator 19.1.0, SVG Export Plug-In . SVG Version: 6.00 Build 0)  -->
<svg version="1.1" id="Layer_1" xmlns="http://www.w3.org/2000/svg" xmlns:xlink="http://www.w3.org/1999/xlink" x="0px" y="0px"
	 viewBox="0 0 64 64" style="enable-background:new 0 0 64 64;" xml:space="preserve">
<style type="text/css">
	.st0{fill:#010101;}
	.st1{fill-rule:evenodd;clip-rule:evenodd;fill:none;}
	.st2{fill-rule:evenodd;clip-rule:evenodd;fill:none;stroke:#000000;stroke-linejoin:round;stroke-miterlimit:3.8637;}
</style>
<path d="M36.8,27.8c-0.4,0-0.8,0.3-0.8,0.8c0,0.4,0.3,0.8,0.8,0.8s0.8-0.3,0.8-0.8C37.5,28.1,37.2,27.8,36.8,27.8z M27.2,34.2
	c0.4,0,0.8-0.3,0.8-0.8c0-0.4-0.3-0.8-0.8-0.8s-0.8,0.3-0.8,0.8C26.5,33.9,26.8,34.2,27.2,34.2z M28,42l-3,0v-2l-5,0V20h24v20l-5,0
	v2h-3v2h-8V42z M22,31v2h3.6c0.2-0.7,0.9-1.3,1.7-1.3c1,0,1.8,0.8,1.8,1.7c0,1-0.8,1.8-1.8,1.8c-0.8,0-1.5-0.5-1.7-1.2H22v4l5,0v2
	l3,0v2h4v-2h3v-2l5,0v-3h-8.2l-5-4H22z M22,28v2h7.2l5,4H42v-2h-7.2l-5-4H22z M39,22v2h-2v-2h-2v2h-2v-2h-2v2h-2v-2h-2v2h-2v-2h-3v5
	h8.2l5,4H42v-2h-3.6c-0.2,0.7-0.9,1.3-1.7,1.3c-1,0-1.8-0.8-1.8-1.8c0-1,0.8-1.8,1.8-1.8c0.8,0,1.5,0.5,1.7,1.2H42v-6H39z"/>
</svg>
