<?xml version="1.0" encoding="utf-8"?>
<!-- Generator: Adobe Illustrator 19.1.0, SVG Export Plug-In . SVG Version: 6.00 Build 0)  -->
<svg version="1.1" id="Layer_1" xmlns="http://www.w3.org/2000/svg" xmlns:xlink="http://www.w3.org/1999/xlink" x="0px" y="0px"
	 viewBox="0 0 64 64" style="enable-background:new 0 0 64 64;" xml:space="preserve">
<style type="text/css">
	.st0{fill:#010101;}
	.st1{fill-rule:evenodd;clip-rule:evenodd;fill:none;}
	.st2{fill-rule:evenodd;clip-rule:evenodd;fill:none;stroke:#000000;stroke-linejoin:round;stroke-miterlimit:3.8637;}
</style>
<path d="M57.9,60.5V48.4H6.1v12.1H57.9z M61.4,64H2.6V45h58.8V64z M47.6,54.5c0-1.4,1.2-2.6,2.6-2.6s2.6,1.2,2.6,2.6
	c0,1.4-1.2,2.6-2.6,2.6S47.6,55.9,47.6,54.5z M57.9,38.1V25.9H6.1v12.1H57.9z M61.4,41.5H2.6v-19h58.8V41.5z M47.6,32
	c0-1.4,1.2-2.6,2.6-2.6s2.6,1.2,2.6,2.6s-1.2,2.6-2.6,2.6S47.6,33.4,47.6,32z M61.4,19H2.6V0h58.8V19z M57.9,15.6V3.5H6.1v12.1H57.9
	z M47.6,9.5c0-1.4,1.2-2.6,2.6-2.6s2.6,1.2,2.6,2.6s-1.2,2.6-2.6,2.6S47.6,10.9,47.6,9.5z"/>
</svg>
