<?xml version="1.0" encoding="utf-8"?>
<!-- Generator: Adobe Illustrator 19.1.0, SVG Export Plug-In . SVG Version: 6.00 Build 0)  -->
<svg version="1.1" id="Layer_1" xmlns="http://www.w3.org/2000/svg" xmlns:xlink="http://www.w3.org/1999/xlink" x="0px" y="0px"
	 viewBox="0 0 64 64" style="enable-background:new 0 0 64 64;" xml:space="preserve">
<style type="text/css">
	.st0{fill-rule:evenodd;clip-rule:evenodd;fill:none;}
	.st1{fill:#010101;}
</style>
<g>
	<rect x="-1.2" y="-1.2" class="st0" width="66.4" height="66.4"/>
	<path d="M38.7,16.9c0.1,0.2,0.2,0.4,0.2,0.6l1.5,0.3c0.6,0.1,1.4,0.6,1.4,2.3c0,1.7-0.8,2.2-1.4,2.3L39,22.6
		c-0.1,0.2-0.1,0.4-0.2,0.6l0.8,1.3c0.4,0.5,0.6,1.4-0.6,2.6c-1.2,1.2-2.1,1-2.6,0.6l-1.2-0.8c-0.2,0.1-0.4,0.2-0.6,0.2l-0.3,1.5
		c-0.1,0.6-0.6,1.4-2.3,1.4c-1.7,0-2.2-0.8-2.3-1.4L29.5,27c-0.2-0.1-0.4-0.1-0.6-0.2l-1.3,0.8c-0.5,0.4-1.4,0.6-2.6-0.6
		c-1.2-1.2-1-2.1-0.6-2.6l0.8-1.1c-0.1-0.2-0.2-0.4-0.2-0.6l-1.5-0.3c-0.6-0.1-1.4-0.6-1.4-2.3c0-1.7,0.8-2.2,1.4-2.3l1.4-0.2
		c0.1-0.2,0.1-0.4,0.2-0.6l-0.8-1.3c-0.4-0.5-0.6-1.4,0.6-2.6c1.2-1.2,2.1-1,2.6-0.6l1.2,0.8c0.2-0.1,0.4-0.2,0.6-0.2l0.3-1.5
		c0.1-0.6,0.6-1.4,2.3-1.4c1.7,0,2.2,0.8,2.3,1.4l0.2,1.4c0.2,0.1,0.4,0.1,0.6,0.2l1.3-0.8c0.5-0.4,1.4-0.6,2.6,0.6
		c1.2,1.2,1,2.1,0.6,2.6L38.7,16.9z M40,20.7c0-0.1,0.1-0.2,0.1-0.6c0-0.4,0-0.5-0.1-0.6l-1.8-0.3c-0.5-0.1-0.7-0.5-0.7-0.7
		c-0.1-0.4-0.3-0.8-0.5-1.1c-0.1-0.2-0.3-0.6,0-1l1.1-1.5c0-0.1-0.1-0.2-0.4-0.5c-0.3-0.3-0.4-0.4-0.5-0.4l-1.5,1.1
		c-0.4,0.2-0.7,0.1-1,0c-0.4-0.2-0.7-0.3-1.1-0.5c-0.2-0.1-0.6-0.2-0.7-0.7l-0.3-1.9C32.5,12,32.4,12,32,12c-0.4,0-0.5,0-0.6,0.1
		l-0.3,1.8c-0.1,0.5-0.5,0.7-0.7,0.7c-0.4,0.1-0.8,0.3-1.1,0.5c-0.3,0.1-0.7,0.2-1,0L26.8,14c-0.1,0-0.2,0.1-0.5,0.4
		c-0.3,0.3-0.4,0.4-0.4,0.5l1.1,1.5c0.3,0.4,0.1,0.9,0,1c-0.2,0.4-0.3,0.7-0.5,1.1c-0.1,0.2-0.2,0.6-0.7,0.7L24,19.5
		c0,0.1-0.1,0.2-0.1,0.6c0,0.4,0,0.5,0.1,0.6l1.8,0.3c0.5,0.1,0.7,0.5,0.7,0.7c0.1,0.4,0.3,0.8,0.5,1.1c0.1,0.2,0.3,0.6,0,1
		l-1.1,1.5c0,0.1,0.1,0.2,0.4,0.5c0.3,0.3,0.4,0.4,0.5,0.4l1.5-1.1c0.4-0.2,0.8-0.1,1,0c0.3,0.2,0.7,0.3,1.1,0.5
		c0.2,0.1,0.6,0.2,0.7,0.7l0.3,1.9c0.1,0,0.2,0.1,0.6,0.1c0.4,0,0.5,0,0.6-0.1l0.3-1.8c0.1-0.5,0.5-0.7,0.7-0.7
		c0.4-0.1,0.8-0.3,1.1-0.5c0.3-0.1,0.7-0.2,1,0l1.5,1.1c0.1,0,0.2-0.1,0.5-0.4c0.3-0.3,0.4-0.4,0.4-0.5L37,23.8
		c-0.3-0.4-0.1-0.9,0-1c0.2-0.3,0.3-0.7,0.5-1.1c0.1-0.2,0.2-0.6,0.7-0.7L40,20.7z M32,16.3c2.1,0,3.8,1.7,3.8,3.8
		c0,2.1-1.7,3.8-3.8,3.8s-3.8-1.7-3.8-3.8C28.2,18,29.9,16.3,32,16.3z M29.9,20.1c0,1.2,0.9,2.1,2.1,2.1c1.2,0,2.1-0.9,2.1-2.1
		c0-1.2-0.9-2.1-2.1-2.1C30.8,18,29.9,18.9,29.9,20.1z M9.6,21.7l5.4-5.4l5.4,5.4l-1.2,1.2l-3.4-3.4v0.5c0,8.9,7.2,16.2,16.2,16.2
		c7.1,0,13.2-4.6,15.3-11l1.3,1.3C46.1,33.2,39.6,38,32,38c-9.9,0-17.9-8-17.9-17.9v-0.5l-3.4,3.4L9.6,21.7z M54.4,18.4L49,23.8
		l-5.4-5.4l1.2-1.2l3.4,3.4v-0.5c0-8.9-7.2-16.2-16.2-16.2c-7.1,0-13.2,4.6-15.3,11l-1.3-1.3C17.9,6.9,24.4,2.2,32,2.2
		c9.9,0,17.9,8,17.9,17.9v0.5l3.4-3.4L54.4,18.4z M15,61.8v-7.3L6.5,46V28.6h6V41l2.6-2.6l10.2,10.2v13.1h-1.7V49.4L15,40.9
		l-1.8,1.8l5.8,5.8l-1.2,1.2l-7.1-7.1V30.3H8.2v15l8.5,8.5v8H15z M38.8,61.8V48.7L49,38.5l2.6,2.6V28.6h6V46L49,54.5v7.3h-1.7v-8
		l8.5-8.5v-15h-2.6v12.3l-7.1,7.1L45,48.4l5.8-5.8L49,40.9l-8.5,8.5v12.4H38.8z"/>
</g>
</svg>
