<?xml version="1.0" encoding="utf-8"?>
<!-- Generator: Adobe Illustrator 19.1.0, SVG Export Plug-In . SVG Version: 6.00 Build 0)  -->
<svg version="1.1" id="Layer_1" xmlns="http://www.w3.org/2000/svg" xmlns:xlink="http://www.w3.org/1999/xlink" x="0px" y="0px"
	 viewBox="0 0 64 64" style="enable-background:new 0 0 64 64;" xml:space="preserve">
<style type="text/css">
	.st0{fill:#010101;}
</style>
<path class="st0" d="M32,60.6l-0.6-0.3C30.6,59.8,9.7,48.1,2.6,32.7C-1,25.2-0.8,17.8,2.9,12c3.4-5.3,9.4-8.6,15.8-8.6
	c5.2,0,9.9,2.2,13.4,6.1c3.5-3.9,8.2-6.1,13.4-6.1c6.3,0,12.4,3.3,15.8,8.6c3.7,5.8,3.8,13.2,0.3,20.8c-7.1,15.4-28,27-28.9,27.5
	L32,60.6z M18.6,5.7C13,5.7,7.7,8.6,4.8,13.2c-3.3,5.1-3.3,11.7-0.1,18.6C10.8,45.1,28.6,56,32,57.9c3.4-2,21.2-12.8,27.4-26.2
	c3.2-6.9,3.1-13.4-0.1-18.6c-3-4.6-8.3-7.5-13.8-7.5C40.4,5.7,36,8,32.9,12L32,13.2L31.1,12C28,8,23.6,5.7,18.6,5.7z"/>
</svg>
