<?xml version="1.0" encoding="utf-8"?>
<!-- Generator: Adobe Illustrator 19.1.0, SVG Export Plug-In . SVG Version: 6.00 Build 0)  -->
<svg version="1.1" id="Layer_1" xmlns="http://www.w3.org/2000/svg" xmlns:xlink="http://www.w3.org/1999/xlink" x="0px" y="0px"
	 viewBox="0 0 64 64" style="enable-background:new 0 0 64 64;" xml:space="preserve">
<style type="text/css">
	.st0{fill-rule:evenodd;clip-rule:evenodd;fill:none;}
	.st1{fill:#010101;}
</style>
<g>
	<rect x="-1.2" y="-1.2" class="st0" width="66.4" height="66.4"/>
	<path d="M38.8,61.8V48.7L49,38.5l2.6,2.6V28.6h6V46L49,54.5v7.3h-1.7v-8l8.5-8.5v-15h-2.6v12.3l-7.1,7.1L45,48.4l5.8-5.8L49,40.9
		l-8.5,8.5v12.4H38.8z M15,61.8v-7.3L6.5,46V28.6h6V41l2.6-2.6l10.2,10.2v13.1h-1.7V49.4L15,40.9l-1.8,1.8l5.8,5.8l-1.2,1.2
		l-7.1-7.1V30.3H8.2v15l8.5,8.5v8H15z M32,2.2c9.9,0,17.9,8,17.9,17.9C49.9,30,41.9,38,32,38c-9.9,0-17.9-8-17.9-17.9
		C14.1,10.2,22.1,2.2,32,2.2z M32,3.9c-8.9,0-16.2,7.2-16.2,16.2c0,8.9,7.2,16.2,16.2,16.2c8.9,0,16.2-7.2,16.2-16.2
		C48.2,11.1,40.9,3.9,32,3.9z M45.6,20.1c0,7.5-6.1,13.6-13.6,13.6c-7.5,0-13.6-6.1-13.6-13.6c0-7.5,6.1-13.6,13.6-13.6
		C39.5,6.5,45.6,12.6,45.6,20.1z M43.9,20.1c0-6.6-5.3-11.9-11.9-11.9c-6.6,0-11.9,5.3-11.9,11.9C20.1,26.7,25.4,32,32,32
		C38.6,32,43.9,26.7,43.9,20.1z M33.7,20.1c0-0.9-0.8-1.7-1.7-1.7c-0.9,0-1.7,0.8-1.7,1.7c0,0.9,0.8,1.7,1.7,1.7
		C32.9,21.8,33.7,21,33.7,20.1z M41.4,20.9l-6.1,0c-0.4,1.5-1.7,2.6-3.3,2.6c-1.9,0-3.4-1.5-3.4-3.4c0-1.9,1.5-3.4,3.4-3.4
		c1.6,0,2.9,1.1,3.3,2.6l6.1,0c0.5,0,0.9,0.4,0.9,0.9C42.2,20.6,41.8,20.9,41.4,20.9z M23.4,23.7c-0.5-1.1-0.7-2.4-0.7-3.6
		c0-5.2,4.2-9.4,9.4-9.4c4.3,0,7.9,2.9,9,6.8l-5.3,0c-1-2.3-3.2-3.8-5.9-3.8c-3.5,0-6.4,2.9-6.4,6.4c0,1.2,0.2,2.3,0.7,3.3
		L23.4,23.7z"/>
</g>
</svg>
