<?xml version="1.0" encoding="utf-8"?>
<!-- Generator: Adobe Illustrator 19.1.0, SVG Export Plug-In . SVG Version: 6.00 Build 0)  -->
<svg version="1.1" id="Layer_1" xmlns="http://www.w3.org/2000/svg" xmlns:xlink="http://www.w3.org/1999/xlink" x="0px" y="0px"
	 viewBox="0 0 64 64" style="enable-background:new 0 0 64 64;" xml:space="preserve">
<style type="text/css">
	.st0{fill:#010101;}
	.st1{fill-rule:evenodd;clip-rule:evenodd;fill:none;}
	.st2{fill-rule:evenodd;clip-rule:evenodd;fill:none;stroke:#000000;stroke-linejoin:round;stroke-miterlimit:3.8637;}
</style>
<path d="M32,64C14.3,64,0,49.7,0,32C0,14.3,14.3,0,32,0s32,14.3,32,32C64,49.7,49.7,64,32,64z M46.7,21.3h-14v10h15.1
	C47.6,27.7,47.3,24.4,46.7,21.3z M59.5,21.3H47.9c0.6,3.1,1,6.5,1,10h12.5C61.4,27.8,60.7,24.5,59.5,21.3z M42.4,10h-9.7v10h13.8
	C45.5,16.1,44.1,12.7,42.4,10z M51.7,10h-7.8c1.6,2.8,2.9,6.2,3.8,10H59C57.3,16.2,54.8,12.8,51.7,10z M43.1,8.8h7.1
	c-3.9-3.1-8.6-5.2-13.7-5.9C38.9,4,41.2,6,43.1,8.8z M32.6,8.8h8.9c-2.5-3.4-5.6-5.4-8.9-5.6V8.8z M47.9,42.7h11.6
	c1.2-3.1,1.9-6.5,2-10H48.9C48.9,36.2,48.6,39.6,47.9,42.7z M32.6,42.7h14c0.6-3,1-6.4,1-10H32.6V42.7z M41.5,55.2h-8.9v5.6
	C35.9,60.6,39,58.6,41.5,55.2z M50.2,55.2h-7.1c-1.9,2.8-4.1,4.8-6.6,5.9C41.6,60.4,46.3,58.3,50.2,55.2z M43.8,54h7.8
	c3.1-2.8,5.6-6.2,7.3-10H47.7C46.8,47.8,45.5,51.2,43.8,54z M32.6,54h9.7c1.7-2.7,3.1-6.1,4-10H32.6V54z M27.6,61.2
	c-2.5-1.1-4.7-3.2-6.6-5.9h-7.1C17.7,58.3,22.4,60.4,27.6,61.2z M16.1,21.3H4.5c-1.2,3.1-1.9,6.5-2,10h12.5
	C15.1,27.8,15.4,24.4,16.1,21.3z M13.8,8.8h7.1C22.8,6,25.1,4,27.6,2.8C22.4,3.6,17.7,5.7,13.8,8.8z M20.2,10h-7.8
	c-3.1,2.8-5.6,6.2-7.3,10h11.3C17.2,16.2,18.5,12.8,20.2,10z M4.5,42.7h11.6c-0.6-3.1-1-6.5-1-10H2.5C2.6,36.2,3.3,39.5,4.5,42.7z
	 M16.3,43.9H5c1.7,3.8,4.2,7.3,7.3,10h7.8C18.5,51.2,17.2,47.8,16.3,43.9z M31.4,43.9H17.6c0.9,4,2.3,7.4,4,10h9.7v1.3h-8.9
	c2.5,3.4,5.6,5.4,8.9,5.6V3.2c-3.3,0.2-6.4,2.2-8.9,5.6h8.9V10h-9.7c-1.7,2.7-3.1,6.1-4,10h13.8v1.3h-14c-0.6,3-1,6.4-1,10h15.1v1.3
	H16.3c0,3.6,0.4,7,1,10h14V43.9z"/>
</svg>
