<?xml version="1.0" encoding="utf-8"?>
<!-- Generator: Adobe Illustrator 19.1.0, SVG Export Plug-In . SVG Version: 6.00 Build 0)  -->
<svg version="1.1" id="Layer_1" xmlns="http://www.w3.org/2000/svg" xmlns:xlink="http://www.w3.org/1999/xlink" x="0px" y="0px"
	 viewBox="0 0 64 64" style="enable-background:new 0 0 64 64;" xml:space="preserve">
<style type="text/css">
	.st0{fill:#010101;}
	.st1{fill-rule:evenodd;clip-rule:evenodd;fill:none;}
	.st2{fill-rule:evenodd;clip-rule:evenodd;fill:none;stroke:#000000;stroke-linejoin:round;stroke-miterlimit:3.8637;}
</style>
<path d="M60.4,44.3C52.9,49,35.5,49.6,32,49.6S11.1,49,3.6,44.3v9.2c0,2,6.3,4,7.6,4.4c5.3,1.5,12.7,2.5,20.9,2.5
	c6.6,0,20.8-0.9,26.9-5c1.4-0.9,1.6-1.6,1.6-1.9V44.3z M3.6,39.2c0,2,6.3,4,7.6,4.4c5.3,1.5,12.7,2.5,20.9,2.5
	c6.6,0,20.8-0.9,26.9-5c1.4-0.9,1.6-1.6,1.6-1.9V30c-7.6,4.7-24.9,5.3-28.4,5.3S11.1,34.6,3.6,30V39.2z M3.6,24.8c0,2,6.3,4,7.6,4.4
	c5.3,1.5,12.7,2.5,20.9,2.5c6.6,0,20.8-0.9,26.9-5c1.4-0.9,1.6-1.6,1.6-1.9v-9.2c-7.6,4.7-24.9,5.3-28.4,5.3s-20.9-0.6-28.4-5.3
	V24.8z M5.1,8.5c-1.4,0.9-1.6,1.6-1.6,1.9c0,2,6.3,4,7.6,4.4c5.3,1.5,12.7,2.5,20.9,2.5c6.6,0,20.8-0.9,26.9-5
	c1.4-0.9,1.6-1.6,1.6-1.9c0-2-6.3-4-7.6-4.4C47.6,4.5,40.2,3.6,32,3.6C25.4,3.6,11.2,4.5,5.1,8.5z M3.2,5.6C9.9,1,24.5,0,32,0
	c4.5,0,32,1,32,10.4v43.2C64,63,36.5,64,32,64S0,63,0,53.6V10.4C0,8.3,1.5,6.7,3.2,5.6z"/>
</svg>
