<?xml version="1.0" encoding="utf-8"?>
<!-- Generator: Adobe Illustrator 19.1.0, SVG Export Plug-In . SVG Version: 6.00 Build 0)  -->
<svg version="1.1" id="Layer_1" xmlns="http://www.w3.org/2000/svg" xmlns:xlink="http://www.w3.org/1999/xlink" x="0px" y="0px"
	 viewBox="0 0 64 64" style="enable-background:new 0 0 64 64;" xml:space="preserve">
<style type="text/css">
	.st0{fill:#010101;}
	.st1{fill-rule:evenodd;clip-rule:evenodd;fill:none;}
</style>
<path d="M53.7,32.2c0.3-1.1,0.5-2.2,0.5-3.4c0-6.5-5.2-11.7-11.7-11.7c-1.9,0-3.6,0.4-5.2,1.2c-2.1-6.2-8-10.7-14.9-10.7
	c-8.7,0-15.7,7-15.7,15.7c0,2.6,0.6,5,1.7,7.1c-4.6,2.2-7.7,6.9-7.7,12.3c0,7.5,6.1,13.7,13.7,13.7H51c6.8,0,12.2-5.5,12.2-12.2
	C63.3,38.3,59.2,33.4,53.7,32.2z M51,55.1H14.4C7.5,55.1,2,49.6,2,42.7c0-4.9,2.9-9.2,7-11.2l1.2-0.6l-0.6-1.1c-1-2-1.6-4.2-1.6-6.6
	c0-8,6.5-14.5,14.5-14.5c6.4,0,11.8,4.1,13.7,9.8l0.5,1.4l1.3-0.6c1.4-0.7,3-1.1,4.6-1.1c5.8,0,10.4,4.7,10.4,10.4
	c0,1.1-0.2,2.1-0.5,3.1l-0.4,1.3l1.3,0.3c4.9,1.1,8.6,5.5,8.6,10.7C62,50.2,57.1,55.1,51,55.1z M36.7,37.3l4.4-5.3h6v-1.3h-6.6
	l-4.6,5.6l-4.3-5.2l4.5-5.4h6v-1.3h-6.6l-4.7,5.7L26,24.5h-6.6v1.3h6l4.5,5.4l-4.3,5.2L21,30.7h-6.6V32h6l4.4,5.3l-4.4,5.3h-6v1.3
	H21l4.6-5.6l4.3,5.2l-4.5,5.4h-6v1.3H26l4.7-5.7l4.7,5.7H42v-1.3h-6l-4.5-5.4l4.3-5.2l4.6,5.6H47v-1.3h-6L36.7,37.3z M30.8,42.5
	l-4.3-5.2l4.3-5.2l4.3,5.2L30.8,42.5z"/>
</svg>
