<?xml version="1.0" encoding="utf-8"?>
<!-- Generator: Adobe Illustrator 19.1.0, SVG Export Plug-In . SVG Version: 6.00 Build 0)  -->
<svg version="1.1" id="Layer_1" xmlns="http://www.w3.org/2000/svg" xmlns:xlink="http://www.w3.org/1999/xlink" x="0px" y="0px"
	 viewBox="0 0 64 64" style="enable-background:new 0 0 64 64;" xml:space="preserve">
<style type="text/css">
	.st0{fill-rule:evenodd;clip-rule:evenodd;fill:none;}
	.st1{fill:#010101;}
</style>
<g>
	<rect x="-1.2" y="-1.2" class="st0" width="66.4" height="66.4"/>
	<path d="M40.4,9.9l-4.6,3.9c0.1,0.1,0.1,0.2,0.2,0.3h8C43.5,7.9,38.3,3.1,32,3.1c-6.3,0-11.5,4.9-11.9,11.1h8
		c0.7-1.5,2.2-2.6,3.9-2.6c1,0,1.9,0.3,2.6,0.9l4.6-3.9c0.4-0.3,0.9-0.3,1.2,0.1C40.8,9.1,40.7,9.6,40.4,9.9z M32,1.3
		c7.5,0,13.6,6.1,13.6,13.6v0.9H34.6c0-1.4-1.1-2.6-2.6-2.6c-1.4,0-2.6,1.1-2.6,2.6H18.4V15C18.4,7.4,24.5,1.3,32,1.3z M26.9,7
		c3.6-2.1,7.9-1.7,11,0.5l-3.6,3c-2.6-1.8-6.2-2.1-9.1-0.4c-1.3,0.8-2.3,1.8-3.1,3C22.8,10.6,24.5,8.4,26.9,7z M15,61.8v-7.3L6.5,46
		V28.6h6V41l2.6-2.6l10.2,10.2v13.1h-1.7V49.4L15,40.9l-1.8,1.8l5.8,5.8l-1.2,1.2l-7.1-7.1V30.3H8.2v15l8.5,8.5v8H15z M38.8,61.8
		V48.7L49,38.5l2.6,2.6V28.6h6V46L49,54.5v7.3h-1.7v-8l8.5-8.5v-15h-2.6v12.3l-7.1,7.1L45,48.4l5.8-5.8L49,40.9l-8.5,8.5v12.4H38.8z
		 M45.6,26.9H18.4v-9.4h27.2V26.9z M43.9,25.2v-6H20.1v6H43.9z M38.8,22.2c0-0.7,0.6-1.3,1.3-1.3c0.7,0,1.3,0.6,1.3,1.3
		s-0.6,1.3-1.3,1.3C39.4,23.5,38.8,22.9,38.8,22.2z M45.6,38H18.4v-9.4h27.2V38z M43.9,36.3v-6H20.1v6H43.9z M38.8,33.3
		c0-0.7,0.6-1.3,1.3-1.3c0.7,0,1.3,0.6,1.3,1.3s-0.6,1.3-1.3,1.3C39.4,34.6,38.8,34,38.8,33.3z"/>
</g>
</svg>
