<?xml version="1.0" encoding="utf-8"?>
<!-- Generator: Adobe Illustrator 19.1.0, SVG Export Plug-In . SVG Version: 6.00 Build 0)  -->
<svg version="1.1" id="Layer_1" xmlns="http://www.w3.org/2000/svg" xmlns:xlink="http://www.w3.org/1999/xlink" x="0px" y="0px"
	 viewBox="0 0 64 64" style="enable-background:new 0 0 64 64;" xml:space="preserve">
<style type="text/css">
	.st0{fill:#010101;}
</style>
<path d="M37.6,37.6h1.9v1.9h-1.9V37.6z M37.6,33.9h1.9v1.9h-1.9V33.9z M37.6,30.1h1.9V32h-1.9V30.1z M37.6,41.4h1.9v1.9h-1.9V41.4z
	 M30.9,22.6H32v-5.6H20.7v1.9h6.4L30.9,22.6z M18.8,18.8v-3.8h7.5v-3.8h15.8l10.5,10.5v23.4h-7.5v-1.9h5.6V24.5h-6.7l1.1,1.1v23.4
	h-7.5v-1.9h5.6V28.2h-6.7l1.1,1.1v23.4H11.3V18.8H18.8z M28.2,15.1h6.4l3.8,3.8h1.1v-5.6H28.2V15.1z M41.4,21.8l0.8,0.8h8.6
	l-9.4-9.4V21.8z M34.7,26.4h8.6l-9.4-9.4v8.6L34.7,26.4z M16.9,26.4h7.5v-5.6H13.2v30.1h22.6V32H16.9v-1.9h7.5v-1.9h-7.5V26.4z
	 M26.4,20.7v9.4h9.4L26.4,20.7z M16.9,41.4H32v1.9H16.9V41.4z M16.9,37.6H32v1.9H16.9V37.6z M16.9,33.9H32v1.9H16.9V33.9z
	 M16.9,45.2H32v1.9H16.9V45.2z M45.2,37.6h1.9v1.9h-1.9V37.6z M45.2,26.4h1.9v1.9h-1.9V26.4z M45.2,30.1h1.9V32h-1.9V30.1z
	 M45.2,33.9h1.9v1.9h-1.9V33.9z"/>
<path d="M0,0h64v64H0V0z M62.4,62.4V1.6H1.6v60.7H62.4z"/>
</svg>
