<?xml version="1.0" encoding="utf-8"?>
<!-- Generator: Adobe Illustrator 19.1.0, SVG Export Plug-In . SVG Version: 6.00 Build 0)  -->
<svg version="1.1" id="Layer_1" xmlns="http://www.w3.org/2000/svg" xmlns:xlink="http://www.w3.org/1999/xlink" x="0px" y="0px"
	 viewBox="0 0 64 64" style="enable-background:new 0 0 64 64;" xml:space="preserve">
<style type="text/css">
	.st0{fill:#010101;}
	.st1{fill-rule:evenodd;clip-rule:evenodd;fill:none;}
	.st2{fill-rule:evenodd;clip-rule:evenodd;fill:none;stroke:#000000;stroke-linejoin:round;stroke-miterlimit:3.8637;}
</style>
<path d="M25.9,48c-3.5-1.8-4.8-5.8-4.3-9c0.7-4.5,5.3-7,2.5-11.4c1.6-0.2,2.9,0.1,4,0.6c-2.3-4.1-1.8-8.7,4-12.2
	c-1.8,6.7,2.4,9.1,6.5,14.1c5.7,6.7,4.8,14.8-1.7,17.9h-1.6c1.4-1.4,3.6-4.5,2.2-8.6c-0.2,1-2.2,2.7-5.4,2.3
	c1.8-1.2,2.5-5.5-0.7-9.4c0.2,0.8,0.2,1.5,0,2.1c-0.9,3.5-5.1,4.5-5.2,8.9c-0.1,2.1,1,3.7,1.8,4.6H25.9z"/>
</svg>
