<?xml version="1.0" encoding="utf-8"?>
<!-- Generator: Adobe Illustrator 19.1.0, SVG Export Plug-In . SVG Version: 6.00 Build 0)  -->
<svg version="1.1" id="Layer_1" xmlns="http://www.w3.org/2000/svg" xmlns:xlink="http://www.w3.org/1999/xlink" x="0px" y="0px"
	 viewBox="0 0 64 64" style="enable-background:new 0 0 64 64;" xml:space="preserve">
<style type="text/css">
	.st0{fill-rule:evenodd;clip-rule:evenodd;fill:none;}
	.st1{fill:none;}
	.st2{fill:#010101;}
	.st3{fill:#020202;}
</style>
<rect x="-3.9" y="0.3" class="st0" width="67.9" height="67.9"/>
<path d="M62.1,8.7H1.9v46.5h60.1V8.7z M0,6.8h64v50.4H0V6.8z M52.4,53.3H11.6V10.7h40.7V53.3z M13.6,51.4h36.8V12.6H13.6V51.4z
	 M37.3,18.5c5.4,2.1,9.2,7.4,9.2,13.5c0,6.2-3.8,11.4-9.2,13.5l-0.5-1.9c4.6-1.9,7.8-6.4,7.8-11.6c0-5.2-3.2-9.7-7.8-11.6L37.3,18.5
	z M35.9,39.8c2.9-1.4,4.8-4.4,4.8-7.8c0-3.4-2-6.4-4.8-7.8l0.5-1.9c3.7,1.7,6.3,5.4,6.3,9.7c0,4.3-2.6,8.1-6.3,9.7L35.9,39.8z
	 M34.9,35.9c1.2-0.9,1.9-2.3,1.9-3.9c0-1.6-0.8-3-1.9-3.9l0.5-2c2,1.2,3.4,3.4,3.4,5.9c0,2.5-1.4,4.7-3.4,5.9L34.9,35.9z M25.2,26.9
	v10.1l4.8,5.4V21.5L25.2,26.9z M19.4,35.9h3.9v-7.8h-3.9V35.9z M23.3,37.8h-5.8V26.2h5.8l8.7-9.7v31L23.3,37.8z M9.7,14.5H3.9v-3.9
	h5.8V14.5z M9.7,22.3H3.9v-3.9h5.8V22.3z M9.7,30.1H3.9v-3.9h5.8V30.1z M9.7,37.8H3.9v-3.9h5.8V37.8z M9.7,45.6H3.9v-3.9h5.8V45.6z
	 M9.7,53.3H3.9v-3.9h5.8V53.3z M60.1,14.5h-5.8v-3.9h5.8V14.5z M60.1,22.3h-5.8v-3.9h5.8V22.3z M60.1,30.1h-5.8v-3.9h5.8V30.1z
	 M60.1,37.8h-5.8v-3.9h5.8V37.8z M60.1,45.6h-5.8v-3.9h5.8V45.6z M60.1,53.3h-5.8v-3.9h5.8V53.3z"/>
</svg>
