<?xml version="1.0" encoding="utf-8"?>
<!-- Generator: Adobe Illustrator 19.1.0, SVG Export Plug-In . SVG Version: 6.00 Build 0)  -->
<svg version="1.1" id="Layer_1" xmlns="http://www.w3.org/2000/svg" xmlns:xlink="http://www.w3.org/1999/xlink" x="0px" y="0px"
	 viewBox="0 0 64 64" style="enable-background:new 0 0 64 64;" xml:space="preserve">
<style type="text/css">
	.st0{fill-rule:evenodd;clip-rule:evenodd;fill:none;}
	.st1{fill:none;}
	.st2{fill:#010101;}
	.st3{fill:#020202;}
</style>
<path d="M32,64L32,64c-0.3,0-0.7,0-1,0l-0.4-0.1l-0.3-0.4c-0.4-0.6-1-1.5-1.2-2.9c-0.6-0.1-1.3-0.1-1.9-0.2
	c-0.6,1.3-1.3,2.1-1.9,2.5l-0.3,0.3l-0.4-0.1c-0.3,0-0.7-0.1-0.9-0.2c-0.3-0.1-0.6-0.2-0.9-0.3l-0.4-0.2l-0.2-0.4
	c-0.3-0.6-0.6-1.7-0.4-3.1c-0.6-0.2-1.2-0.5-1.8-0.7c-0.9,1.1-1.8,1.6-2.4,1.9l-0.4,0.2l-0.4-0.2c-0.3-0.1-0.6-0.3-0.8-0.4
	c-0.2-0.1-0.6-0.3-0.8-0.5l-0.3-0.3l0-0.4c-0.1-0.7-0.1-1.8,0.4-3.1c-0.5-0.4-1-0.8-1.5-1.2c-1.2,0.9-2.2,1.1-2.9,1.2l-0.4,0.1
	l-0.3-0.3c-0.2-0.2-0.5-0.4-0.7-0.6c-0.2-0.2-0.5-0.5-0.6-0.7l-0.3-0.3l0.1-0.4c0.1-0.7,0.3-1.7,1.2-2.9c-0.4-0.5-0.8-1-1.2-1.5
	c-0.8,0.3-1.6,0.5-2.3,0.5c-0.3,0-0.5,0-0.7,0l-0.4,0l-0.3-0.3c-0.2-0.2-0.4-0.6-0.5-0.8c-0.1-0.2-0.3-0.6-0.4-0.8l-0.2-0.4l0.2-0.4
	c0.3-0.6,0.8-1.6,1.9-2.4c-0.3-0.6-0.5-1.2-0.7-1.8c-0.3,0-0.6,0.1-0.8,0.1c-1,0-1.8-0.2-2.2-0.4l-0.4-0.2l-0.2-0.4
	c-0.1-0.3-0.2-0.6-0.3-0.9C1,40,0.9,39.6,0.9,39.4l-0.1-0.4l0.3-0.3c0.4-0.5,1.2-1.3,2.5-1.9c-0.1-0.6-0.2-1.2-0.2-1.9
	c-1.4-0.2-2.3-0.8-2.9-1.2l-0.4-0.3L0,33c0-0.3,0-0.7,0-1c0-0.3,0-0.7,0-1l0-0.4l0.4-0.3c0.6-0.4,1.5-1,2.9-1.2
	c0.1-0.6,0.1-1.3,0.2-1.9c-1.3-0.6-2.1-1.3-2.5-1.9l-0.3-0.3l0.1-0.4c0-0.3,0.1-0.7,0.2-0.9c0.1-0.3,0.2-0.6,0.3-0.9l0.2-0.4
	l0.4-0.2C2.6,22,3.6,21.7,5,21.9c0.2-0.6,0.5-1.2,0.7-1.8c-1.1-0.9-1.6-1.8-1.9-2.4l-0.2-0.4l0.2-0.4C4,16.6,4.1,16.3,4.3,16
	c0.1-0.3,0.3-0.6,0.5-0.8l0.3-0.3l0.4,0c0.2,0,0.5,0,0.7,0c0.8,0,1.6,0.2,2.3,0.5c0.4-0.5,0.8-1,1.2-1.5c-0.9-1.2-1.1-2.2-1.2-2.9
	l-0.1-0.4l0.3-0.3c0.2-0.2,0.4-0.5,0.6-0.7c0.2-0.2,0.5-0.5,0.7-0.6l0.3-0.3l0.4,0.1c0.7,0.1,1.7,0.3,2.9,1.2c0.5-0.4,1-0.8,1.5-1.2
	c-0.5-1.3-0.5-2.4-0.4-3.1l0-0.4l0.4-0.3c0.2-0.2,0.6-0.4,0.8-0.5c0.3-0.1,0.6-0.3,0.8-0.4l0.4-0.2l0.4,0.2c0.6,0.3,1.6,0.8,2.4,1.9
	c0.6-0.3,1.2-0.5,1.8-0.7c-0.2-1.4,0.1-2.4,0.4-3.1l0.2-0.4l0.4-0.2c0.3-0.1,0.6-0.2,0.9-0.3C24,1,24.4,0.9,24.7,0.9l0.4-0.1
	l0.3,0.3c0.5,0.4,1.3,1.2,1.9,2.5c0.6-0.1,1.2-0.2,1.9-0.2c0.2-1.4,0.8-2.3,1.2-2.9l0.3-0.4L31,0C31.6,0,32.4,0,33,0l0.4,0l0.3,0.4
	c0.4,0.6,1,1.5,1.2,2.9c0.6,0.1,1.3,0.1,1.9,0.2c0.6-1.3,1.3-2.1,1.9-2.5l0.3-0.3l0.4,0.1c0.3,0,0.7,0.1,0.9,0.2
	c0.3,0.1,0.6,0.2,0.9,0.3l0.4,0.2l0.2,0.4C42,2.6,42.3,3.6,42.1,5c0.6,0.2,1.2,0.5,1.8,0.7c0.9-1.1,1.8-1.6,2.4-1.9l0.4-0.2l0.4,0.2
	C47.4,4,47.8,4.1,48,4.3c0.2,0.1,0.6,0.3,0.8,0.5l0.3,0.3l0,0.4c0.1,0.7,0.1,1.8-0.4,3.1c0.5,0.4,1,0.8,1.5,1.2
	c1.2-0.9,2.2-1.1,2.9-1.2l0.4-0.1l0.3,0.3c0.2,0.2,0.5,0.4,0.7,0.6c0.2,0.2,0.5,0.5,0.6,0.7l0.3,0.3l-0.1,0.4
	c-0.1,0.7-0.3,1.7-1.2,2.9c0.4,0.5,0.8,1,1.2,1.5c0.8-0.3,1.6-0.5,2.3-0.5c0.3,0,0.5,0,0.7,0l0.4,0l0.3,0.3c0.2,0.2,0.4,0.6,0.5,0.8
	c0.1,0.3,0.3,0.6,0.4,0.8l0.2,0.4l-0.2,0.4c-0.3,0.6-0.8,1.6-1.9,2.4c0.3,0.6,0.5,1.2,0.7,1.8c0.3,0,0.6-0.1,0.8-0.1
	c1,0,1.8,0.2,2.2,0.4l0.4,0.2l0.2,0.4c0.1,0.3,0.2,0.6,0.3,0.9c0.1,0.3,0.2,0.7,0.2,0.9l0.1,0.4l-0.3,0.3c-0.4,0.5-1.2,1.3-2.5,1.9
	c0.1,0.6,0.2,1.2,0.2,1.9c1.4,0.2,2.3,0.8,2.9,1.2l0.4,0.3l0,0.4c0,0.3,0,0.7,0,1c0,0.3,0,0.7,0,1l0,0.4l-0.4,0.3
	c-0.6,0.4-1.5,1-2.9,1.2c-0.1,0.6-0.1,1.3-0.2,1.9c1.3,0.6,2.1,1.3,2.5,1.9l0.3,0.3l-0.1,0.4c0,0.3-0.1,0.7-0.2,0.9
	c-0.1,0.3-0.2,0.6-0.3,0.9l-0.2,0.4l-0.4,0.2c-0.6,0.2-1.7,0.6-3.1,0.4c-0.2,0.6-0.5,1.2-0.7,1.8c1.1,0.9,1.6,1.8,1.9,2.4l0.2,0.4
	l-0.2,0.4c-0.1,0.3-0.3,0.6-0.4,0.8c-0.1,0.2-0.3,0.6-0.5,0.8l-0.3,0.3l-0.4,0c-0.2,0-0.5,0-0.7,0c-0.8,0-1.6-0.2-2.3-0.5
	c-0.4,0.5-0.8,1-1.2,1.5c0.9,1.2,1.1,2.2,1.2,2.9l0.1,0.4l-0.3,0.3c-0.2,0.2-0.4,0.5-0.6,0.7c-0.2,0.2-0.5,0.5-0.7,0.6l-0.3,0.3
	l-0.4-0.1c-0.7-0.1-1.7-0.3-2.9-1.2c-0.5,0.4-1,0.8-1.5,1.2c0.5,1.3,0.5,2.4,0.4,3.1l0,0.4l-0.3,0.3c-0.2,0.2-0.6,0.4-0.8,0.5
	c-0.3,0.1-0.6,0.3-0.8,0.4l-0.4,0.2l-0.4-0.2c-0.6-0.3-1.6-0.8-2.4-1.9c-0.6,0.3-1.2,0.5-1.8,0.7c0.2,1.4-0.1,2.4-0.4,3.1l-0.2,0.4
	l-0.4,0.2c-0.3,0.1-0.6,0.2-0.9,0.3c-0.3,0.1-0.6,0.2-0.9,0.2l-0.4,0.1l-0.3-0.3c-0.5-0.4-1.3-1.2-1.9-2.5c-0.6,0.1-1.2,0.2-1.9,0.2
	c-0.2,1.4-0.8,2.3-1.2,2.9l-0.3,0.4L33,64C32.7,64,32.3,64,32,64z M31.7,62c0.2,0,0.4,0,0.6,0c0.2-0.4,0.5-0.9,0.5-1.6
	c0.2-1.3,1-1.6,1.5-1.7c0.8-0.1,1.6-0.2,2.3-0.3l0.3,0c0.7,0,1.3,0.4,1.6,1.2c0.3,0.7,0.6,1.1,1,1.4c0.1,0,0.2,0,0.3-0.1
	c0.1,0,0.2,0,0.3-0.1c0.1-0.4,0.2-1,0.1-1.7c-0.2-1.2,0.4-1.7,0.9-2l0.1,0c0.7-0.3,1.5-0.6,2.2-0.9l0.1,0c0.2-0.1,0.4-0.1,0.6-0.1
	c0.8,0,1.3,0.6,1.4,0.8c0.4,0.6,0.9,0.9,1.3,1.1c0.1,0,0.2-0.1,0.2-0.1c0.1,0,0.2-0.1,0.2-0.1c0-0.5-0.1-1-0.3-1.7
	c-0.5-1.3,0.1-1.9,0.5-2.2c0.6-0.4,1.2-0.9,1.8-1.4c0.3-0.3,0.7-0.4,1.1-0.4c0.6,0,1,0.3,1.2,0.5c0.6,0.4,1.1,0.7,1.5,0.8
	c0.1-0.1,0.1-0.1,0.2-0.2c0.1-0.1,0.1-0.1,0.2-0.2c-0.1-0.4-0.3-1-0.7-1.5c-0.8-1.1-0.4-1.9-0.1-2.3c0.5-0.6,1-1.2,1.4-1.8
	c0.3-0.5,0.8-0.7,1.3-0.7c0.4,0,0.7,0.1,0.9,0.2c0.6,0.2,1.1,0.3,1.7,0.3c0.1-0.1,0.1-0.2,0.1-0.2c0-0.1,0.1-0.2,0.1-0.2
	c-0.2-0.4-0.5-0.8-1.1-1.3c-1-0.7-0.9-1.5-0.8-2l0-0.1c0.3-0.7,0.7-1.5,0.9-2.2l0-0.1c0.3-0.6,0.8-0.9,1.5-0.9c0.2,0,0.3,0,0.4,0
	c0.8,0.1,1.3,0,1.7-0.1c0-0.1,0.1-0.2,0.1-0.3c0-0.1,0-0.2,0.1-0.3c-0.3-0.3-0.7-0.7-1.4-0.9c-1.1-0.5-1.3-1.2-1.3-1.8
	c0.1-0.8,0.2-1.6,0.3-2.4c0.1-0.5,0.3-1.4,1.7-1.5c0.7-0.1,1.2-0.3,1.6-0.5c0-0.1,0-0.2,0-0.3c0-0.1,0-0.2,0-0.3
	c-0.4-0.2-0.9-0.5-1.6-0.5c-1.3-0.2-1.6-1-1.7-1.5c-0.1-0.8-0.2-1.6-0.3-2.3c-0.1-0.6,0.1-1.4,1.2-1.9c0.7-0.3,1.1-0.6,1.4-1
	c0-0.1,0-0.2-0.1-0.3c0-0.1,0-0.2-0.1-0.3c-0.4-0.1-1-0.2-1.7-0.1c-0.8,0.1-1.6-0.2-2-0.9l0-0.1c-0.3-0.8-0.6-1.5-0.9-2.2l0-0.1
	c-0.2-0.5-0.2-1.3,0.7-2c0.6-0.4,0.9-0.9,1.1-1.3c0-0.1-0.1-0.2-0.1-0.2c0-0.1-0.1-0.2-0.1-0.2c-0.5,0-1.1,0.1-1.7,0.3
	c-0.2,0.1-0.5,0.2-0.9,0.2c-0.5,0-1-0.2-1.3-0.7c-0.4-0.6-0.9-1.2-1.4-1.8c-0.3-0.4-0.7-1.2,0.1-2.3c0.4-0.6,0.7-1.1,0.8-1.5
	c-0.1-0.1-0.1-0.1-0.2-0.2c-0.1-0.1-0.1-0.1-0.2-0.2c-0.4,0.1-1,0.3-1.5,0.7c-0.2,0.2-0.6,0.5-1.2,0.5c-0.4,0-0.7-0.1-1-0.4
	c-0.6-0.5-1.2-1-1.8-1.4c-0.5-0.4-1-1.1-0.5-2.2c0.3-0.7,0.3-1.2,0.3-1.7C47.2,6.1,47.1,6.1,47,6c-0.1,0-0.2-0.1-0.2-0.1
	c-0.4,0.2-0.8,0.5-1.3,1.1c-0.2,0.3-0.6,0.9-1.5,0.9c-0.2,0-0.4,0-0.6-0.1l-0.1,0c-0.7-0.3-1.5-0.7-2.2-0.9l-0.1,0
	c-0.5-0.2-1-0.8-0.9-1.9c0.1-0.7,0-1.3-0.1-1.7c-0.1,0-0.2-0.1-0.3-0.1c-0.1,0-0.2,0-0.3-0.1c-0.3,0.3-0.7,0.7-0.9,1.4
	c-0.3,0.8-0.9,1.3-1.6,1.3l-0.2,0c-0.8-0.1-1.6-0.2-2.3-0.3C33.9,5.2,33,5,32.8,3.6c-0.1-0.7-0.3-1.2-0.5-1.6c-0.1,0-0.2,0-0.3,0
	c-0.1,0-0.2,0-0.3,0c-0.2,0.4-0.5,0.9-0.5,1.6c-0.2,1.3-1,1.6-1.5,1.7c-0.8,0.1-1.6,0.2-2.3,0.3l-0.3,0c-0.7,0-1.3-0.4-1.6-1.2
	c-0.3-0.7-0.6-1.1-1-1.4c-0.1,0-0.2,0-0.3,0.1c-0.1,0-0.2,0-0.3,0.1c-0.1,0.4-0.2,1-0.1,1.7C24,6,23.5,6.5,23,6.7l-0.1,0
	c-0.8,0.3-1.5,0.6-2.2,0.9l-0.1,0c-0.2,0.1-0.4,0.1-0.6,0.1c-0.8,0-1.3-0.6-1.4-0.8c-0.4-0.6-0.9-0.9-1.3-1.1C17.2,5.9,17.1,6,17,6
	c-0.1,0-0.2,0.1-0.2,0.1c0,0.5,0.1,1,0.3,1.7c0.5,1.3-0.1,1.9-0.5,2.2c-0.6,0.5-1.3,0.9-1.8,1.4c-0.3,0.3-0.7,0.4-1.1,0.4l0,0
	c-0.6,0-1-0.3-1.2-0.5c-0.6-0.4-1.1-0.7-1.5-0.8c-0.1,0.1-0.1,0.1-0.2,0.2c-0.1,0.1-0.1,0.1-0.2,0.2c0.1,0.4,0.3,1,0.7,1.5
	c0.8,1.1,0.4,1.9,0.1,2.3c-0.5,0.6-1,1.2-1.4,1.8c-0.3,0.5-0.8,0.7-1.3,0.7c-0.4,0-0.7-0.1-0.9-0.2c-0.6-0.2-1.1-0.4-1.7-0.3
	C6.1,16.8,6.1,16.9,6,17c0,0.1-0.1,0.2-0.1,0.2c0.2,0.4,0.5,0.8,1.1,1.3c1,0.7,0.9,1.5,0.8,2l0,0.1c-0.3,0.7-0.6,1.5-0.9,2.2l0,0.1
	c-0.3,0.6-0.8,0.9-1.5,0.9c-0.2,0-0.3,0-0.4,0c-0.8-0.1-1.3,0-1.7,0.1c0,0.1-0.1,0.2-0.1,0.3c0,0.1,0,0.2-0.1,0.3
	c0.3,0.3,0.7,0.7,1.4,0.9c1.3,0.5,1.3,1.4,1.2,1.9c-0.1,0.8-0.2,1.5-0.3,2.3c-0.1,0.5-0.3,1.4-1.7,1.5c-0.7,0.1-1.2,0.3-1.6,0.5
	c0,0.1,0,0.2,0,0.3c0,0.1,0,0.2,0,0.3c0.4,0.2,0.9,0.5,1.6,0.5c1.3,0.2,1.6,1,1.7,1.5c0.1,0.8,0.2,1.6,0.3,2.3
	c0.1,0.6-0.1,1.4-1.2,1.9c-0.7,0.3-1.1,0.6-1.4,1c0,0.1,0,0.2,0.1,0.3c0,0.1,0,0.2,0.1,0.3c0.4,0.1,1,0.2,1.7,0.1
	c0.8-0.1,1.6,0.2,2,0.9l0,0.1c0.3,0.8,0.6,1.5,0.9,2.2l0,0.1C7.9,44,8,44.8,7,45.5c-0.6,0.4-0.9,0.9-1.1,1.3C5.9,46.8,6,46.9,6,47
	c0,0.1,0.1,0.2,0.1,0.2c0.5,0,1.1-0.1,1.7-0.3c0.2-0.1,0.5-0.2,0.9-0.2c0.5,0,1,0.2,1.3,0.7c0.5,0.6,0.9,1.2,1.4,1.8
	c0.3,0.4,0.7,1.2-0.1,2.3c-0.4,0.6-0.7,1.1-0.8,1.5c0.1,0.1,0.1,0.1,0.2,0.2c0.1,0.1,0.1,0.1,0.2,0.2c0.4-0.1,1-0.3,1.5-0.7
	c0.2-0.2,0.6-0.5,1.2-0.5c0.4,0,0.7,0.1,1,0.4c0.6,0.5,1.2,0.9,1.8,1.4c0.4,0.3,1,1,0.5,2.2c-0.3,0.7-0.3,1.2-0.3,1.7
	c0.1,0.1,0.2,0.1,0.2,0.1c0.1,0,0.2,0.1,0.2,0.1c0.4-0.2,0.8-0.5,1.3-1.1c0.2-0.3,0.6-0.9,1.5-0.9c0.2,0,0.4,0,0.6,0.1l0.1,0
	c0.7,0.3,1.5,0.6,2.2,0.9l0.1,0c0.5,0.2,1.1,0.8,0.9,1.9c-0.1,0.7,0,1.3,0.1,1.7c0.1,0,0.2,0.1,0.3,0.1c0.1,0,0.2,0,0.3,0.1
	c0.3-0.3,0.7-0.7,0.9-1.4c0.4-1,1-1.4,1.9-1.2c0.8,0.1,1.5,0.2,2.3,0.3c0.5,0.1,1.4,0.3,1.5,1.7C31.3,61.1,31.5,61.6,31.7,62z
	 M32,48.5c-0.3,0-0.7,0-1,0l-0.4-0.1L30.3,48c-0.4-0.6-1-1.5-1.2-3c0,0,0,0,0,0c-0.4-0.1-0.8-0.2-1.2-0.3c0,0,0,0,0,0
	c-0.9,1.2-1.9,1.7-2.5,2L25,46.9l-0.4-0.2c-0.3-0.1-0.6-0.3-0.9-0.4c-0.3-0.1-0.6-0.3-0.8-0.5l-0.4-0.3l0-0.4
	c-0.1-0.7-0.1-1.8,0.5-3.2c0,0,0,0,0,0c-0.3-0.3-0.6-0.6-0.9-0.9c0,0,0,0,0,0c-0.9,0.4-1.7,0.5-2.5,0.5c-0.2,0-0.4,0-0.7,0l-0.4,0
	l-0.3-0.4c-0.2-0.2-0.4-0.6-0.5-0.8c-0.1-0.2-0.3-0.6-0.4-0.9L17.1,39l0.2-0.4c0.3-0.6,0.8-1.6,2-2.5c0,0,0,0,0,0
	c-0.1-0.4-0.2-0.8-0.3-1.2c0,0,0,0,0,0c-1.5-0.2-2.4-0.8-3-1.2l-0.4-0.3L15.5,33c0-0.3,0-0.7,0-1c0-0.3,0-0.7,0-1l0.1-0.4l0.4-0.3
	c0.6-0.4,1.5-1,3-1.2c0,0,0,0,0,0c0.1-0.4,0.2-0.8,0.3-1.2c0,0,0,0,0,0c-1.2-0.9-1.7-1.9-2-2.5L17.1,25l0.2-0.4
	c0.1-0.3,0.3-0.6,0.4-0.9c0.1-0.3,0.3-0.6,0.5-0.8l0.3-0.4l0.4,0c0.2,0,0.4,0,0.6,0c0.9,0,1.7,0.2,2.5,0.5c0,0,0,0,0,0
	c0.3-0.3,0.6-0.6,0.9-0.9c0,0,0,0,0,0c-0.6-1.4-0.6-2.5-0.5-3.2l0-0.4l0.4-0.3c0.2-0.2,0.6-0.4,0.8-0.5c0.3-0.1,0.6-0.3,0.9-0.4
	l0.4-0.2l0.4,0.2c0.6,0.3,1.6,0.8,2.5,2c0,0,0,0,0,0c0.4-0.1,0.8-0.2,1.2-0.3c0,0,0,0,0,0c0.2-1.5,0.8-2.4,1.2-3l0.3-0.4l0.4-0.1
	c0.6-0.1,1.3-0.1,1.9,0l0.4,0.1l0.3,0.4c0.4,0.6,1,1.5,1.2,3c0,0,0,0,0,0c0.4,0.1,0.8,0.2,1.2,0.3c0,0,0,0,0,0
	c0.9-1.2,1.9-1.7,2.5-2l0.4-0.2l0.4,0.2c0.3,0.1,0.6,0.3,0.9,0.4c0.3,0.1,0.6,0.3,0.8,0.5l0.4,0.3l0,0.4c0.1,0.7,0.1,1.8-0.5,3.2
	c0,0,0,0,0,0c0.3,0.3,0.6,0.6,0.9,0.9c0,0,0,0,0,0c0.9-0.4,1.7-0.5,2.5-0.5c0.2,0,0.4,0,0.6,0l0.4,0l0.3,0.4
	c0.2,0.2,0.4,0.6,0.5,0.8c0.1,0.3,0.3,0.6,0.4,0.9l0.2,0.4l-0.2,0.4c-0.3,0.6-0.8,1.6-2,2.5c0,0,0,0,0,0c0.1,0.4,0.2,0.8,0.3,1.2
	c0,0,0,0,0,0c1.5,0.2,2.4,0.7,3,1.2l0.4,0.3l0.1,0.4c0,0.3,0,0.7,0,1c0,0.3,0,0.7,0,1l-0.1,0.4L48,33.7c-0.6,0.4-1.5,1-3,1.2
	c0,0,0,0,0,0c-0.1,0.4-0.2,0.8-0.3,1.2c0,0,0,0,0,0c1.2,0.9,1.7,1.9,2,2.5l0.2,0.4l-0.2,0.4c-0.1,0.3-0.3,0.6-0.4,0.9
	c-0.1,0.2-0.3,0.6-0.5,0.8l-0.3,0.4l-0.4,0c-0.2,0-0.4,0-0.6,0c-0.9,0-1.7-0.2-2.5-0.5c0,0,0,0,0,0c-0.3,0.3-0.6,0.6-0.9,0.9
	c0,0,0,0,0,0c0.6,1.4,0.6,2.5,0.5,3.2l0,0.4l-0.4,0.3c-0.2,0.2-0.6,0.4-0.8,0.5c-0.3,0.1-0.6,0.3-0.9,0.4L39,46.9l-0.4-0.2
	c-0.6-0.3-1.6-0.8-2.5-2c0,0,0,0,0,0c-0.4,0.1-0.8,0.2-1.2,0.3c0,0,0,0,0,0c-0.2,1.5-0.8,2.4-1.2,3l-0.3,0.4L33,48.5
	C32.7,48.5,32.3,48.5,32,48.5z M31.7,46.5c0.2,0,0.4,0,0.5,0c0.2-0.4,0.5-0.9,0.6-1.7c0.1-1.2,0.9-1.6,1.4-1.7
	c0.5-0.1,0.9-0.2,1.4-0.4c0.2-0.1,0.4-0.1,0.6-0.1c0.9,0,1.3,0.6,1.5,0.9c0.5,0.6,0.9,1,1.3,1.2c0.1,0,0.2-0.1,0.2-0.1
	s0.2-0.1,0.2-0.1c0-0.5-0.1-1.1-0.4-1.7c-0.4-0.9-0.3-1.6,0.4-2.2c0.3-0.3,0.7-0.6,1-1c0.4-0.4,0.8-0.6,1.3-0.6
	c0.4,0,0.7,0.1,0.9,0.2c0.6,0.3,1.2,0.4,1.8,0.4h0c0-0.1,0.1-0.2,0.1-0.2c0-0.1,0.1-0.2,0.1-0.2c-0.2-0.4-0.6-0.9-1.2-1.3
	c-0.8-0.6-1-1.3-0.8-2.1c0.2-0.5,0.3-0.9,0.4-1.4c0.2-0.8,0.8-1.3,1.7-1.4c0.8-0.1,1.3-0.3,1.7-0.6c0-0.1,0-0.2,0-0.3
	c0-0.1,0-0.2,0-0.3c-0.4-0.2-0.9-0.5-1.7-0.6c-1-0.1-1.5-0.6-1.7-1.4c-0.1-0.5-0.2-0.9-0.4-1.4c-0.2-0.8,0-1.5,0.8-2.1
	c0.6-0.5,1-0.9,1.2-1.3c0-0.1-0.1-0.2-0.1-0.2c0-0.1-0.1-0.2-0.1-0.2h0c-0.6,0-1.2,0.1-1.7,0.4c-0.2,0.1-0.5,0.2-0.9,0.2
	c-0.5,0-0.9-0.2-1.3-0.6c-0.3-0.3-0.6-0.7-1-1c-0.6-0.6-0.8-1.3-0.4-2.2c0.3-0.7,0.4-1.3,0.4-1.8c-0.1,0-0.2-0.1-0.2-0.1
	c-0.1,0-0.2-0.1-0.2-0.1c-0.4,0.2-0.9,0.6-1.3,1.2c-0.2,0.2-0.7,0.9-1.5,0.9c-0.2,0-0.4,0-0.5-0.1c-0.5-0.2-0.9-0.3-1.4-0.4
	c-0.6-0.1-1.3-0.5-1.4-1.7c-0.1-0.8-0.3-1.3-0.6-1.7c-0.2,0-0.4,0-0.5,0c-0.2,0.4-0.5,0.9-0.6,1.7c-0.1,1.2-0.9,1.6-1.4,1.7
	c-0.5,0.1-0.9,0.2-1.3,0.4c-0.2,0.1-0.4,0.1-0.6,0.1l0,0c-0.9,0-1.3-0.6-1.5-0.9c-0.5-0.6-0.9-1-1.3-1.2c-0.1,0-0.2,0.1-0.2,0.1
	s-0.2,0.1-0.2,0.1c0,0.5,0.1,1.1,0.4,1.7c0.4,0.9,0.3,1.6-0.4,2.2c-0.3,0.3-0.7,0.6-1,1c-0.4,0.4-0.8,0.6-1.3,0.6
	c-0.4,0-0.7-0.1-0.9-0.2c-0.6-0.3-1.1-0.4-1.8-0.4c-0.1,0.1-0.1,0.2-0.1,0.2c0,0.1-0.1,0.2-0.1,0.2c0.2,0.4,0.6,0.9,1.2,1.3
	c0.8,0.6,1,1.3,0.8,2.1c-0.2,0.5-0.3,0.9-0.4,1.4c-0.2,0.8-0.8,1.3-1.7,1.4c-0.8,0.1-1.3,0.3-1.7,0.6c0,0.1,0,0.2,0,0.3
	c0,0.1,0,0.2,0,0.3c0.4,0.2,0.9,0.5,1.7,0.6c1,0.1,1.5,0.6,1.7,1.4c0.1,0.4,0.2,0.9,0.4,1.3c0.2,0.6,0.2,1.4-0.8,2.1
	c-0.6,0.5-1,0.9-1.2,1.3c0,0.1,0.1,0.2,0.1,0.2s0.1,0.2,0.1,0.2c0,0,0,0,0,0c0.6,0,1.2-0.1,1.7-0.4c0.2-0.1,0.5-0.2,0.9-0.2
	c0.5,0,0.9,0.2,1.3,0.6c0.3,0.3,0.6,0.7,1,1c0.6,0.6,0.8,1.3,0.4,2.2c-0.3,0.7-0.4,1.3-0.4,1.8c0.1,0,0.2,0.1,0.2,0.1
	s0.2,0.1,0.2,0.1c0.4-0.2,0.9-0.6,1.3-1.2c0.2-0.3,0.7-0.9,1.5-0.9c0.2,0,0.4,0,0.6,0.1c0.4,0.1,0.9,0.3,1.3,0.4
	c0.6,0.1,1.3,0.5,1.4,1.7C31.3,45.5,31.5,46.1,31.7,46.5z M32,37c-2.8,0-5-2.2-5-5c0-2.8,2.2-5,5-5s5,2.2,5,5C37,34.8,34.8,37,32,37
	z M32,29c-1.7,0-3,1.3-3,3s1.3,3,3,3s3-1.3,3-3S33.7,29,32,29z"/>
</svg>
