<?xml version="1.0" encoding="utf-8"?>
<!-- Generator: Adobe Illustrator 19.1.0, SVG Export Plug-In . SVG Version: 6.00 Build 0)  -->
<svg version="1.1" id="Layer_1" xmlns="http://www.w3.org/2000/svg" xmlns:xlink="http://www.w3.org/1999/xlink" x="0px" y="0px"
	 viewBox="0 0 64 64" style="enable-background:new 0 0 64 64;" xml:space="preserve">
<style type="text/css">
	.st0{fill:#010101;}
	.st1{fill-rule:evenodd;clip-rule:evenodd;fill:none;}
	.st2{fill-rule:evenodd;clip-rule:evenodd;fill:none;stroke:#000000;stroke-linejoin:round;stroke-miterlimit:3.8637;}
</style>
<path d="M0.8,49.2h2.4V14.4h59.1v34.8h2.4v1.6h-64V49.2z M20.2,49.2V22.5H8.9v26.7H20.2z M32.4,49.2V22.5H21v26.7H32.4z M44.5,49.2
	V22.5H33.2v26.7H44.5z M56.7,49.2V22.5H45.4v26.7H56.7z M57.5,33h3.2v-1.6h-3.2V33z M57.5,35.5h3.2v-1.6h-3.2V35.5z M57.5,37.9h3.2
	v-1.6h-3.2V37.9z M60.7,41.1h-3.2v8.1h3.2V41.1z M57.5,40.3h3.2v-1.6h-3.2V40.3z M4.8,30.6h3.2v-8.9h13h12.2h12.2h12.2v8.9h3.2V16
	H4.8V30.6z M4.8,33h3.2v-1.6H4.8V33z M4.8,35.5h3.2v-1.6H4.8V35.5z M4.8,37.9h3.2v-1.6H4.8V37.9z M8.1,41.1H4.8v8.1h3.2V41.1z
	 M4.8,40.3h3.2v-1.6H4.8V40.3z M47,40.3h8.1v3.2H47V40.3z M54.3,41.1h-6.5v1.6h6.5V41.1z M47,36.3h8.1v3.2H47V36.3z M54.3,37.1h-6.5
	v1.6h6.5V37.1z M47,32.2h8.1v3.2H47V32.2z M54.3,33h-6.5v1.6h6.5V33z M47,28.2h8.1v3.2H47V28.2z M54.3,29h-6.5v1.6h6.5V29z M47,24.1
	h8.1v3.2H47V24.1z M54.3,24.9h-6.5v1.6h6.5V24.9z M47,44.4h8.1v3.2H47V44.4z M54.3,45.2h-6.5v1.6h6.5V45.2z M17.8,45.2h-6.5v1.6h6.5
	V45.2z M10.5,44.4h8.1v3.2h-8.1V44.4z M17.8,24.9h-6.5v1.6h6.5V24.9z M10.5,24.1h8.1v3.2h-8.1V24.1z M17.8,29h-6.5v1.6h6.5V29z
	 M10.5,28.2h8.1v3.2h-8.1V28.2z M17.8,33h-6.5v1.6h6.5V33z M10.5,32.2h8.1v3.2h-8.1V32.2z M17.8,37.1h-6.5v1.6h6.5V37.1z M10.5,36.3
	h8.1v3.2h-8.1V36.3z M17.8,41.1h-6.5v1.6h6.5V41.1z M10.5,40.3h8.1v3.2h-8.1V40.3z M30,45.2h-6.5v1.6H30V45.2z M22.7,44.4h8.1v3.2
	h-8.1V44.4z M30,24.9h-6.5v1.6H30V24.9z M22.7,24.1h8.1v3.2h-8.1V24.1z M30,29h-6.5v1.6H30V29z M22.7,28.2h8.1v3.2h-8.1V28.2z
	 M30,33h-6.5v1.6H30V33z M22.7,32.2h8.1v3.2h-8.1V32.2z M30,37.1h-6.5v1.6H30V37.1z M22.7,36.3h8.1v3.2h-8.1V36.3z M30,41.1h-6.5
	v1.6H30V41.1z M22.7,40.3h8.1v3.2h-8.1V40.3z M42.1,45.2h-6.5v1.6h6.5V45.2z M34.8,44.4h8.1v3.2h-8.1V44.4z M42.1,24.9h-6.5v1.6h6.5
	V24.9z M34.8,24.1h8.1v3.2h-8.1V24.1z M42.1,29h-6.5v1.6h6.5V29z M34.8,28.2h8.1v3.2h-8.1V28.2z M42.1,33h-6.5v1.6h6.5V33z
	 M34.8,32.2h8.1v3.2h-8.1V32.2z M42.1,37.1h-6.5v1.6h6.5V37.1z M34.8,36.3h8.1v3.2h-8.1V36.3z M42.1,41.1h-6.5v1.6h6.5V41.1z
	 M34.8,40.3h8.1v3.2h-8.1V40.3z"/>
</svg>
