<?xml version="1.0" encoding="utf-8"?>
<!-- Generator: Adobe Illustrator 19.1.0, SVG Export Plug-In . SVG Version: 6.00 Build 0)  -->
<svg version="1.1" id="Layer_1" xmlns="http://www.w3.org/2000/svg" xmlns:xlink="http://www.w3.org/1999/xlink" x="0px" y="0px"
	 viewBox="0 0 64 64" style="enable-background:new 0 0 64 64;" xml:space="preserve">
<style type="text/css">
	.st0{fill:none;}
	.st1{fill:#010101;}
</style>
<g>
	<polygon class="st0" points="1.6,1.6 62.4,1.6 62.4,62.4 1.6,62.4 1.6,1.6 	"/>
	<path d="M32,15.6c9.1,0,16.4,7.3,16.4,16.4c0,9.1-7.3,16.4-16.4,16.4S15.6,41.1,15.6,32C15.6,22.9,22.9,15.6,32,15.6z M32,17.2
		c-8.2,0-14.8,6.6-14.8,14.8c0,8.2,6.6,14.8,14.8,14.8c8.2,0,14.8-6.6,14.8-14.8C46.8,23.8,40.2,17.2,32,17.2z M44.5,32
		c0,6.9-5.6,12.5-12.5,12.5S19.5,38.9,19.5,32c0-6.9,5.6-12.5,12.5-12.5S44.5,25.1,44.5,32z M21.2,33.6c0.8,5.3,5.3,9.4,10.8,9.4
		c6,0,10.9-4.9,10.9-10.9h-6.5l-4.1,9.1l-1.6-12.5l-2.2,4.9H21.2z M42.8,30.4c-0.8-5.3-5.3-9.4-10.8-9.4c-6,0-10.9,4.9-10.9,10.9
		h6.5l4.1-9.1l1.6,12.5l2.2-4.9H42.8z M57.8,31.7l-3.6-3.6l-1.1,1.1l5.5,5.5l5.5-5.5l-1.1-1.1l-3.6,3.6C59.1,16.7,47,4.7,32,4.7
		c-13.3,0-24.4,9.5-26.8,22.2l1.4,1.4C8.4,15.8,19.1,6.2,32,6.2C46.1,6.2,57.6,17.6,57.8,31.7z M9.8,35.9l1.1-1.1l-5.5-5.5L0,34.8
		l1.1,1.1l3.6-3.6c0.2,14.9,12.3,27,27.3,27c13.3,0,24.4-9.5,26.8-22.2l-1.4-1.4C55.6,48.2,44.9,57.8,32,57.8
		c-14.1,0-25.6-11.4-25.8-25.4L9.8,35.9z"/>
</g>
</svg>
