<?xml version="1.0" encoding="utf-8"?>
<!-- Generator: Adobe Illustrator 19.1.0, SVG Export Plug-In . SVG Version: 6.00 Build 0)  -->
<svg version="1.1" id="Layer_1" xmlns="http://www.w3.org/2000/svg" xmlns:xlink="http://www.w3.org/1999/xlink" x="0px" y="0px"
	 viewBox="0 0 64 64" style="enable-background:new 0 0 64 64;" xml:space="preserve">
<style type="text/css">
	.st0{fill:#010101;}
</style>
<path d="M41.5,28l0.7-1.8H21.9l0.7,1.8H41.5z M23.8,31.5h16.3l0.7-1.8H23.2L23.8,31.5z M31.1,33.3h-3.4l3.3,29h0.1V33.3z M36.3,33.3
	h-3.4v29H33L36.3,33.3z M25.4,22.7c-0.9-0.9-1.4-2.1-1.4-3.4c0-1.2,0.5-2.4,1.3-3.2c-0.6-0.9-0.9-2-0.9-3.2c0-2.4,1.3-4.5,3.3-5.6
	C28,4,30.1,1.3,33,0l0.7,1.6c-1.1,0.5-1.8,1.6-1.8,2.8c0,0.8,0.3,1.6,0.9,2.1c3.1,3.1,7.3,6,7.3,10.9c0,2.8-1.4,5.5-3.6,7.1h8.2
	l-3.3,8.8H38L34.5,64h-5.1L26,33.3h-3.3l-3.3-8.8h7.9L25.4,22.7z M26.3,17.5c-0.4,0.5-0.6,1.1-0.6,1.8c0,0.8,0.3,1.6,0.9,2.1
	l3.1,3.1h3.3C31.4,21.9,27.4,18.5,26.3,17.5z M36.2,17.8c0.7,0.7,1.2,1.7,1.4,2.8c0.5-1,0.7-2,0.7-3.2c0-4.2-4.2-7.1-6.7-9.7
	C30.8,7,30.3,6,30.2,5c-0.5,1-0.7,2-0.7,3.2C29.4,12.3,33.6,15.2,36.2,17.8z M34.5,23.7c0.7-0.7,1.3-1.5,1.3-2.6
	c0-0.8-0.3-1.6-0.9-2.1c-2.9-2.9-6.6-5.5-7.2-9.7c-1,0.9-1.6,2.1-1.6,3.5c0,1.3,0.5,2.5,1.4,3.3C29,17.7,32.8,20.8,34.5,23.7z"/>
</svg>
