<?xml version="1.0" encoding="utf-8"?>
<!-- Generator: Adobe Illustrator 19.1.0, SVG Export Plug-In . SVG Version: 6.00 Build 0)  -->
<svg version="1.1" id="Layer_1" xmlns="http://www.w3.org/2000/svg" xmlns:xlink="http://www.w3.org/1999/xlink" x="0px" y="0px"
	 viewBox="0 0 64 64" style="enable-background:new 0 0 64 64;" xml:space="preserve">
<style type="text/css">
	.st0{fill-rule:evenodd;clip-rule:evenodd;fill:none;}
	.st1{fill:#010101;}
</style>
<g>
	<rect x="-1.6" y="-1.6" class="st0" width="67.3" height="67.3"/>
	<path d="M38.9,62.2V48.9l10.3-10.3l2.6,2.6V28.6h6v17.6l-8.6,8.6v7.4h-1.7v-8.1l8.6-8.6V30.3h-2.6v12.4l-7.2,7.2l-1.2-1.2l5.9-5.9
		L49.2,41l-8.6,8.6v12.6H38.9z M14.8,62.2v-7.4l-8.6-8.6V28.6h6v12.6l2.6-2.6l10.3,10.3v13.3h-1.7V49.6L14.8,41L13,42.8l5.9,5.9
		l-1.2,1.2l-7.2-7.2V30.3H7.9v15.2l8.6,8.6v8.1H14.8z M32,38.9c-0.2,0-0.7,0-1-0.1l-0.4,0l-0.2-0.3c-0.4-0.6-1-1.6-1.2-3.2
		c0-0.1,0-0.2,0-0.3c-0.6-0.1-1.1-0.2-1.7-0.4c0,0-0.1,0.1-0.1,0.2c-1,1.3-2,1.9-2.7,2.2l-0.3,0.2l-0.4-0.2
		c-0.3-0.1-0.7-0.4-0.9-0.5c-0.2-0.1-0.6-0.3-0.9-0.6l-0.3-0.2l0-0.4c-0.1-0.8-0.1-1.9,0.5-3.4c0-0.1,0.1-0.2,0.1-0.2
		c-0.4-0.4-0.9-0.8-1.2-1.2c0,0-0.1,0-0.2,0.1c-0.9,0.4-1.8,0.6-2.7,0.6c-0.2,0-0.5,0-0.7,0l-0.4,0l-0.2-0.3
		c-0.2-0.3-0.4-0.6-0.6-0.9c-0.1-0.2-0.3-0.6-0.5-0.9l-0.2-0.4l0.2-0.3c0.3-0.7,0.9-1.7,2.2-2.7c0.1-0.1,0.2-0.1,0.2-0.2
		c-0.2-0.5-0.4-1.1-0.5-1.7c0,0-0.1,0-0.2,0c-1.6-0.2-2.6-0.8-3.2-1.2L14,22.2l0-0.4c0-0.4-0.1-0.8-0.1-1s0-0.7,0.1-1l0-0.4l0.3-0.2
		c0.6-0.4,1.6-1,3.2-1.2c0.1,0,0.2,0,0.3,0c0.1-0.6,0.2-1.1,0.4-1.7c0,0-0.1-0.1-0.2-0.1c-1.3-1-1.9-2-2.2-2.7L15.7,13l0.2-0.4
		c0.1-0.3,0.4-0.7,0.5-0.9c0.1-0.2,0.3-0.6,0.6-0.9l0.2-0.3l0.4,0c0.2,0,0.5,0,0.7,0c0.9,0,1.8,0.2,2.7,0.6c0.1,0,0.2,0.1,0.2,0.1
		c0.4-0.4,0.8-0.9,1.2-1.2c0,0,0-0.1-0.1-0.2c-0.6-1.5-0.6-2.7-0.5-3.4l0-0.4l0.3-0.2c0.3-0.2,0.6-0.4,0.9-0.6
		c0.2-0.1,0.6-0.3,0.9-0.5l0.4-0.1l0.3,0.2c0.7,0.3,1.7,0.9,2.7,2.2C27.3,6.9,27.4,7,27.4,7c0.5-0.2,1.1-0.4,1.7-0.5
		c0,0,0-0.1,0-0.2c0.2-1.6,0.8-2.6,1.2-3.2l0.2-0.3l0.4,0c0.4,0,0.8,0,1,0c0.3,0,0.7,0,1.1,0l0.4,0l0.2,0.3c0.4,0.6,1,1.6,1.2,3.2
		c0,0.1,0,0.2,0,0.3C35.5,6.6,36,6.8,36.6,7c0,0,0.1-0.1,0.1-0.2c1-1.3,2-1.9,2.7-2.2l0.3-0.2l0.4,0.1c0.3,0.1,0.7,0.4,0.9,0.5
		c0.2,0.1,0.6,0.3,0.9,0.6l0.3,0.2l0,0.4c0.1,0.8,0.1,1.9-0.5,3.4c0,0.1-0.1,0.2-0.1,0.2c0.4,0.4,0.9,0.8,1.2,1.2c0,0,0.1,0,0.2-0.1
		c0.9-0.4,1.8-0.6,2.7-0.6c0.2,0,0.5,0,0.7,0l0.4,0l0.2,0.3c0.2,0.3,0.4,0.6,0.6,0.9c0.1,0.2,0.3,0.6,0.5,0.9l0.2,0.4l-0.2,0.3
		c-0.3,0.7-0.9,1.7-2.2,2.7c-0.1,0.1-0.2,0.1-0.2,0.2c0.2,0.5,0.4,1.1,0.5,1.7c0,0,0.1,0,0.2,0c1.6,0.2,2.6,0.8,3.2,1.2l0.3,0.2
		l0,0.4c0,0.4,0,0.8,0,1s0,0.7,0,1l0,0.4l-0.3,0.2c-0.6,0.4-1.6,1-3.2,1.2c-0.1,0-0.2,0-0.3,0c-0.1,0.6-0.2,1.1-0.4,1.7
		c0,0,0.1,0.1,0.2,0.1c1.3,1,1.9,2,2.2,2.7l0.2,0.3l-0.2,0.4c-0.1,0.3-0.4,0.7-0.5,0.9c-0.1,0.2-0.3,0.6-0.6,0.9L46.9,31l-0.4,0
		c-0.2,0-0.5,0-0.7,0c-0.9,0-1.8-0.2-2.7-0.6c-0.1,0-0.2-0.1-0.2-0.1c-0.4,0.4-0.8,0.9-1.2,1.2c0,0,0,0.1,0.1,0.2
		c0.6,1.5,0.6,2.7,0.5,3.4l0,0.4l-0.3,0.2c-0.3,0.2-0.7,0.4-0.9,0.6c-0.2,0.1-0.6,0.3-0.9,0.5l-0.4,0.1l-0.3-0.2
		c-0.7-0.3-1.7-0.9-2.7-2.2c-0.1-0.1-0.1-0.2-0.2-0.2c-0.5,0.2-1.1,0.4-1.7,0.5c0,0,0,0.1,0,0.2c-0.2,1.6-0.8,2.6-1.2,3.2l-0.2,0.3
		l-0.4,0C32.7,38.9,32.2,38.9,32,38.9z M31.6,37.2c0.3,0,0.6,0,0.9,0c0.3-0.5,0.6-1.2,0.7-2.1c0.1-1,0.6-1.5,1.4-1.7
		c0.5-0.1,1-0.2,1.5-0.4c0.2-0.1,0.4-0.1,0.5-0.1c0.8,0,1.3,0.6,1.5,0.8c0.6,0.8,1.2,1.2,1.7,1.5l0.4-0.2l0.4-0.2
		c0-0.6-0.1-1.3-0.4-2.2c-0.4-0.9-0.3-1.6,0.4-2.2c0.4-0.3,0.8-0.7,1.1-1.1c0.3-0.4,0.8-0.6,1.3-0.6c0.4,0,0.7,0.1,0.9,0.2
		c0.8,0.3,1.5,0.5,2.2,0.4l0.2-0.4l0.2-0.4c-0.3-0.5-0.7-1.1-1.5-1.7c-0.3-0.2-1.1-0.8-0.8-2c0.2-0.5,0.3-1,0.4-1.5
		c0.2-0.8,0.7-1.3,1.7-1.4c1-0.1,1.6-0.4,2.1-0.7l0-0.4l0-0.4c-0.5-0.3-1.2-0.6-2.1-0.7c-1-0.1-1.5-0.6-1.7-1.4
		c-0.1-0.5-0.2-1-0.4-1.5c-0.3-1.2,0.5-1.8,0.8-2c0.8-0.6,1.2-1.2,1.5-1.7l-0.2-0.4L46,12.2c-0.7,0-1.4,0.1-2.2,0.4
		c-0.2,0.1-0.5,0.2-0.9,0.2c-0.5,0-0.9-0.2-1.3-0.6c-0.3-0.4-0.7-0.8-1.1-1.1c-0.6-0.6-0.7-1.3-0.4-2.2c0.4-0.9,0.5-1.6,0.4-2.2
		l-0.4-0.2l-0.4-0.2c-0.5,0.3-1.1,0.7-1.7,1.5c-0.2,0.3-0.6,0.9-1.5,0.9c-0.2,0-0.4,0-0.5-0.1c-0.5-0.2-1-0.3-1.5-0.4
		c-0.8-0.2-1.3-0.7-1.4-1.7c-0.1-1-0.4-1.6-0.7-2.1c-0.3,0-0.6,0-0.9,0c-0.3,0.5-0.6,1.2-0.7,2.1c-0.1,1-0.6,1.5-1.4,1.7
		c-0.5,0.1-1,0.2-1.5,0.4c-0.2,0.1-0.4,0.1-0.5,0.1c-0.8,0-1.3-0.6-1.5-0.8c-0.6-0.8-1.2-1.2-1.7-1.5l-0.4,0.2l-0.4,0.2
		c0,0.6,0.1,1.3,0.4,2.2c0.4,0.9,0.3,1.6-0.4,2.2c-0.4,0.3-0.8,0.7-1.1,1.1c-0.3,0.4-0.8,0.6-1.3,0.6c-0.4,0-0.7-0.1-0.9-0.2
		c-0.8-0.3-1.5-0.5-2.2-0.4l-0.2,0.4L17.6,13c0.3,0.5,0.7,1.1,1.5,1.7c0.3,0.2,1.1,0.8,0.8,2c-0.2,0.5-0.3,1-0.4,1.5
		c-0.2,0.8-0.7,1.3-1.7,1.4c-1,0.1-1.6,0.4-2.1,0.7l0,0.4l0,0.4c0.5,0.3,1.2,0.6,2.1,0.7c1,0.1,1.5,0.6,1.7,1.4
		c0.1,0.5,0.2,1,0.4,1.5c0.3,0.8,0,1.5-0.8,2.1c-0.8,0.6-1.2,1.2-1.5,1.7l0.2,0.4l0.2,0.4c0.7,0,1.5-0.1,2.2-0.4
		c0.2-0.1,0.5-0.2,0.9-0.2c0.5,0,0.9,0.2,1.3,0.6c0.3,0.4,0.7,0.8,1.1,1.1c0.6,0.6,0.7,1.3,0.4,2.2c-0.4,0.9-0.5,1.6-0.4,2.2
		l0.4,0.2l0.4,0.2c0.5-0.3,1.1-0.7,1.7-1.5c0.2-0.3,0.7-0.9,1.5-0.9c0.2,0,0.4,0,0.6,0.1c0.5,0.2,1,0.3,1.5,0.4
		c0.8,0.2,1.3,0.7,1.4,1.7C30.9,36,31.3,36.7,31.6,37.2z M32,26c-2.9,0-5.2-2.3-5.2-5.2s2.3-5.2,5.2-5.2c2.9,0,5.2,2.3,5.2,5.2
		S34.9,26,32,26z M32,17.3c-1.9,0-3.4,1.5-3.4,3.4c0,1.9,1.5,3.4,3.4,3.4c1.9,0,3.4-1.5,3.4-3.4C35.4,18.9,33.9,17.3,32,17.3z"/>
</g>
</svg>
