<?xml version="1.0" encoding="utf-8"?>
<!-- Generator: Adobe Illustrator 19.1.0, SVG Export Plug-In . SVG Version: 6.00 Build 0)  -->
<svg version="1.1" id="Layer_1" xmlns="http://www.w3.org/2000/svg" xmlns:xlink="http://www.w3.org/1999/xlink" x="0px" y="0px"
	 viewBox="0 0 64 64" style="enable-background:new 0 0 64 64;" xml:space="preserve">
<style type="text/css">
	.st0{fill:#010101;}
</style>
<path class="st0" d="M64,21.1L32,57L0,21.1L11,7h42L64,21.1z M18.3,22h-15l26,29.2L18.3,22z M43.7,22H20.3L32,52.9L43.7,22z
	 M60.7,22h-15L34.7,51.2L60.7,22z M42.8,20.1L32,9.3L21.2,20.1H42.8z M17.3,20.1l-6-10.5L3.1,20.1H17.3z M13.1,8.9l6.1,10.6
	L29.7,8.9H13.1z M44.9,19.5l6.1-10.6H34.3L44.9,19.5z M52.6,9.6l-6,10.5h14.2L52.6,9.6z"/>
</svg>
