<?xml version="1.0" encoding="utf-8"?>
<!-- Generator: Adobe Illustrator 19.1.0, SVG Export Plug-In . SVG Version: 6.00 Build 0)  -->
<svg version="1.1" id="Layer_1" xmlns="http://www.w3.org/2000/svg" xmlns:xlink="http://www.w3.org/1999/xlink" x="0px" y="0px"
	 viewBox="0 0 64 64" style="enable-background:new 0 0 64 64;" xml:space="preserve">
<style type="text/css">
	.st0{fill:none;}
	.st1{fill:#010101;}
</style>
<g>
	<polygon class="st0" points="1.6,1.6 62.4,1.6 62.4,62.4 1.6,62.4 1.6,1.6 	"/>
	<path class="st1" d="M26.7,34.9l-4.5,4.5l-0.6,4.2l4.2-0.6l4.5-4.5l1.1,1.1l-4.9,4.9l-6.7,1l1-6.8l4.9-4.9L26.7,34.9z M38.1,30.7
		l2.6-2.6l-1.2-1.2l-2.6,2.6l-1.1-1.1l2.6-2.6l-1.2-1.2l-2.6,2.6L33.4,26l2.6-2.6l-1.8-1.8l1.1-1.1l3,3l3.6-3.6l-0.6-0.6l1.1-1.1
		l4.7,4.7L45.9,24l-0.6-0.6l-3.6,3.6l3,3L43.5,31l-1.8-1.8l-2.6,2.6L38.1,30.7z M42.9,21l-1.2,1.2l1.2,1.2l1.2-1.2L42.9,21z
		 M40.6,23.3l-1.2,1.2l1.2,1.2l1.2-1.2L40.6,23.3z M29,37.2l-4.7,4.7l-1.1-1.1l4.7-4.7L29,37.2z M24.4,20.1l-1.8,1.8l2.8,2.8
		l4.1-4.1l1.1,1.1l-1.8,1.8l14,14l-2.3,2.3l4.9,4.9l-1.1,1.1l-4.9-4.9l-2.3,2.3l-14-14L21.2,31l-1.1-1.1l4.1-4.1L21.5,23l-1.8,1.8
		l-1.1-1.1l4.7-4.7L24.4,20.1z M39.4,36.2L37.6,38l-1.1-1.1l1.8-1.8l-1.2-1.2l-1.8,1.8l-1.1-1.1l1.8-1.8l-1.2-1.2l-1.8,1.8l-1.1-1.1
		l1.8-1.8l-1.2-1.2L30.6,31l-1.1-1.1l1.8-1.8L30,26.9l-1.8,1.8l-1.1-1.1l1.8-1.8l-1.2-1.2l-3.6,3.6L37.1,41l3.6-3.6L39.4,36.2z
		 M57.8,31.7l-3.6-3.6l-1.1,1.1l5.5,5.5l5.5-5.5l-1.1-1.1l-3.6,3.6C59.1,16.7,47,4.7,32,4.7c-13.3,0-24.4,9.5-26.8,22.2l1.4,1.4
		C8.4,15.8,19.1,6.2,32,6.2C46.1,6.2,57.6,17.6,57.8,31.7z M9.8,35.9l1.1-1.1l-5.5-5.5L0,34.8l1.1,1.1l3.6-3.6
		c0.2,14.9,12.3,27,27.3,27c13.3,0,24.4-9.5,26.8-22.2l-1.4-1.4C55.6,48.2,44.9,57.8,32,57.8c-14.1,0-25.6-11.4-25.8-25.4L9.8,35.9z
		"/>
</g>
</svg>
