<?xml version="1.0" encoding="utf-8"?>
<!-- Generator: Adobe Illustrator 19.1.0, SVG Export Plug-In . SVG Version: 6.00 Build 0)  -->
<svg version="1.1" id="Layer_1" xmlns="http://www.w3.org/2000/svg" xmlns:xlink="http://www.w3.org/1999/xlink" x="0px" y="0px"
	 viewBox="0 0 64 64" style="enable-background:new 0 0 64 64;" xml:space="preserve">
<style type="text/css">
	.st0{fill:#010101;}
</style>
<path d="M38.7,2.2l0,7.9h4.5l0-7.9H38.7z M18.5,21.3H23V9h-4.5V21.3z M25.2,19.1h4.5V5.6h-4.5L25.2,19.1z M32,18h5.3
	c-1.8-1.2-3-3.3-3-5.6v-2.2h2.2l0-6.7H32L32,18z M28.8,30.9c2.4-5.8,8.1-9.6,14.4-9.6l0-2.2h-2.2c-0.8,0-1.5-0.1-2.2-0.4l0,1.5H32
	v1.1h-6.7v2.2h-9l0-6.8c-1.6,3-2.2,6.1-2.2,9c0,5.7,3,10.4,7.8,13.4V64h-2.2l0-23.5c-4.9-3.3-7.8-8.9-7.8-14.6
	c0-4.2,1.1-8.9,4.4-13.1l0-6H23l0-3.4h6.7l0-2.2h6.7l0-1.1h9v10.1h6.7v18.5L39.8,39.8l0,24.2h-2.2V38.8l12.3-11.2V12.4H36.5
	c0,2.5,2,4.5,4.5,4.5h4.5v6.7h-2.2c-5.4,0-10.3,3.3-12.4,8.2L28.8,30.9z"/>
</svg>
