<?xml version="1.0" encoding="utf-8"?>
<!-- Generator: Adobe Illustrator 19.1.0, SVG Export Plug-In . SVG Version: 6.00 Build 0)  -->
<svg version="1.1" id="Layer_1" xmlns="http://www.w3.org/2000/svg" xmlns:xlink="http://www.w3.org/1999/xlink" x="0px" y="0px"
	 viewBox="0 0 64 64" style="enable-background:new 0 0 64 64;" xml:space="preserve">
<style type="text/css">
	.st0{fill:#010101;}
	.st1{fill-rule:evenodd;clip-rule:evenodd;fill:none;}
</style>
<g>
	<rect x="0" y="0" class="st1" width="64" height="64"/>
	<path d="M37,25.2c0-0.5,0.4-0.9,0.9-0.9c0.5,0,0.9,0.4,0.9,0.9c0,0.5-0.4,0.9-0.9,0.9C37.4,26.2,37,25.8,37,25.2z M37,37.1
		c0-0.5,0.4-0.9,0.9-0.9c0.5,0,0.9,0.4,0.9,0.9c0,0.5-0.4,0.9-0.9,0.9C37.4,38.1,37,37.6,37,37.1z M57,31.2c0-3.6-2.1-6.8-5.2-8.2
		c1.2-3.2,0.5-6.9-2.1-9.5c-2.6-2.6-6.3-3.3-9.5-2.1c-1.4-3.1-4.6-5.2-8.2-5.2s-6.8,2.1-8.2,5.2c-3.2-1.2-6.9-0.5-9.5,2.1
		S11,19.8,12.2,23C9.1,24.4,7,27.5,7,31.2s2.1,6.8,5.2,8.2c-1.2,3.2-0.5,6.9,2.1,9.5s6.3,3.3,9.5,2.1c1.4,3.1,4.6,5.2,8.2,5.2
		s6.8-2.1,8.2-5.2c3.2,1.2,6.9,0.5,9.5-2.1c2.6-2.6,3.3-6.3,2.1-9.5C54.9,37.9,57,34.8,57,31.2z M31.4,54.9c-3.3-0.3-6-2.6-6.9-5.6
		c-1.1,0.6-2.4,1-3.8,1c-2.1,0-4.1-0.8-5.5-2.3c-2.5-2.5-2.9-6.3-1.3-9.3c-3.3-0.9-5.6-3.9-5.6-7.5s2.4-6.6,5.6-7.5
		c-1.6-3-1.2-6.8,1.3-9.3c1.5-1.5,3.4-2.3,5.5-2.3c1.3,0,2.6,0.3,3.8,1c0.9-3.1,3.6-5.4,6.9-5.6v13.7H20.7v8.1h10.6v3.8H20.7v8.1
		h10.6V54.9z M42,22.4v5.6H22v-5.6H42z M22,39.9v-5.6h20v5.6H22z M50.1,38.7c1.6,3,1.2,6.8-1.3,9.3c-1.5,1.5-3.4,2.3-5.5,2.3
		c-1.3,0-2.6-0.3-3.8-1c-0.9,3.1-3.6,5.4-6.9,5.6V41.2h10.6v-8.1H32.6v-3.8h10.6v-8.1H32.6V7.4c3.3,0.3,6,2.6,6.9,5.6
		c1.1-0.6,2.4-1,3.8-1c2.1,0,4.1,0.8,5.5,2.3c2.5,2.5,2.9,6.3,1.3,9.3c3.3,0.9,5.6,3.9,5.6,7.5S53.4,37.7,50.1,38.7z"/>
</g>
</svg>
