<?xml version="1.0" encoding="utf-8"?>
<!-- Generator: Adobe Illustrator 19.1.0, SVG Export Plug-In . SVG Version: 6.00 Build 0)  -->
<svg version="1.1" id="Layer_1" xmlns="http://www.w3.org/2000/svg" xmlns:xlink="http://www.w3.org/1999/xlink" x="0px" y="0px"
	 viewBox="0 0 64 64" style="enable-background:new 0 0 64 64;" xml:space="preserve">
<style type="text/css">
	.st0{fill:#010101;}
	.st1{fill-rule:evenodd;clip-rule:evenodd;fill:none;}
	.st2{fill-rule:evenodd;clip-rule:evenodd;fill:none;stroke:#000000;stroke-linejoin:round;stroke-miterlimit:3.8637;}
</style>
<path d="M32,16c-8.8,0-16,7.2-16,16c0,8.8,7.2,16,16,16s16-7.2,16-16C48,23.2,40.8,16,32,16z M18,32c0-7.7,6.3-14,14-14
	c3.7,0,7.1,1.5,9.6,3.8l-12.8,7.8l3.3,0.3l-6.8,5.6l3.3,0.3l-6.4,6.1C19.6,39.4,18,35.9,18,32z M32,46c-3.7,0-7.1-1.5-9.6-3.8
	l12.8-7.8L31.9,34l6.8-5.6l-3.3-0.3l6.4-6.1c2.6,2.5,4.1,6,4.1,9.9C46,39.7,39.7,46,32,46z"/>
</svg>
