<?xml version="1.0" encoding="utf-8"?>
<!-- Generator: Adobe Illustrator 19.1.0, SVG Export Plug-In . SVG Version: 6.00 Build 0)  -->
<svg version="1.1" id="Layer_1" xmlns="http://www.w3.org/2000/svg" xmlns:xlink="http://www.w3.org/1999/xlink" x="0px" y="0px"
	 viewBox="0 0 64 64" style="enable-background:new 0 0 64 64;" xml:space="preserve">
<style type="text/css">
	.st0{fill:#010101;}
	.st1{fill-rule:evenodd;clip-rule:evenodd;fill:none;}
	.st2{fill-rule:evenodd;clip-rule:evenodd;fill:none;stroke:#000000;stroke-linejoin:round;stroke-miterlimit:3.8637;}
</style>
<path d="M42.2,17.2H27.9c-5.4,0-9.8,4.4-9.8,9.8v6.6h-7.7L27.9,46l17.5-12.4h-7.7v-6.6C37.7,23.2,39.5,19.6,42.2,17.2z M14.8,27.1
	c0-7.3,5.9-13.1,13.1-13.1h23c7.3,0,13.1,5.9,13.1,13.1v6.6h-3.3v-6.6c0-5.4-4.4-9.8-9.8-9.8c-5.4,0-9.8,4.4-9.8,9.8v3.3h14.8
	L29,49.3l-1.1,0.8l-1.1-0.8L0,30.4h14.8V27.1z"/>
</svg>
