<?xml version="1.0" encoding="utf-8"?>
<!-- Generator: Adobe Illustrator 19.1.0, SVG Export Plug-In . SVG Version: 6.00 Build 0)  -->
<svg version="1.1" id="Layer_1" xmlns="http://www.w3.org/2000/svg" xmlns:xlink="http://www.w3.org/1999/xlink" x="0px" y="0px"
	 viewBox="0 0 64 64" style="enable-background:new 0 0 64 64;" xml:space="preserve">
<style type="text/css">
	.st0{fill:#010101;}
	.st1{fill-rule:evenodd;clip-rule:evenodd;fill:none;}
</style>
<path d="M6.3,23.2c0-8.8,7.1-16,16-16c7,0,13,4.5,15.1,10.9c1.6-0.8,3.4-1.2,5.3-1.2c6.6,0,11.9,5.3,11.9,11.9
	c0,1.2-0.2,2.4-0.5,3.5c5.6,1.2,9.8,6.2,9.8,12.2c0,6.9-5.6,12.4-12.4,12.4H14.1c-7.7,0-13.9-6.2-13.9-13.9c0-5.5,3.2-10.3,7.8-12.5
	C6.9,28.2,6.3,25.8,6.3,23.2z M22.3,8.5C14.2,8.5,7.6,15,7.6,23.2c0,2.4,0.6,4.7,1.6,6.7L9.8,31l-1.2,0.6c-4.2,2-7.1,6.4-7.1,11.4
	c0,7,5.6,12.6,12.6,12.6h37.3c6.2,0,11.2-5,11.2-11.2c0-5.3-3.7-9.8-8.8-10.9l-1.3-0.3l0.4-1.3c0.3-1,0.5-2,0.5-3.1
	c0-5.9-4.8-10.6-10.6-10.6c-1.7,0-3.3,0.4-4.7,1.1l-1.3,0.6l-0.5-1.4C34.2,12.7,28.7,8.5,22.3,8.5z M30.7,23.7
	c5.3,0,11.4,1.3,11.4,1.3v13c0,7.5-5.8,12.3-11.4,13.7c-5.7-1.4-11.4-6.2-11.4-13.7V25C19.3,25,25.4,23.7,30.7,23.7z M40.9,26.1
	C39,25.7,34.6,25,30.7,25s-8.2,0.7-10.2,1.1V38c0,6.6,5,11,10.2,12.4C35.9,49,40.9,44.6,40.9,38V26.1z M35.8,36.5H25.6v6.4h10.2
	V36.5z M28.2,35.2h5.1v-3.8c0-1.4-1.1-2.5-2.5-2.5s-2.5,1.1-2.5,2.5V35.2z M24.4,35.2h2.5v-3.8c0-2.1,1.7-3.8,3.8-3.8
	s3.8,1.7,3.8,3.8v3.8h2.5v8.9H24.4V35.2z"/>
</svg>
