<?xml version="1.0" encoding="utf-8"?>
<!-- Generator: Adobe Illustrator 19.1.0, SVG Export Plug-In . SVG Version: 6.00 Build 0)  -->
<svg version="1.1" id="Layer_1" xmlns="http://www.w3.org/2000/svg" xmlns:xlink="http://www.w3.org/1999/xlink" x="0px" y="0px"
	 viewBox="0 0 64 64" style="enable-background:new 0 0 64 64;" xml:space="preserve">
<style type="text/css">
	.st0{fill:#010101;}
	.st1{fill-rule:evenodd;clip-rule:evenodd;fill:none;}
	.st2{fill-rule:evenodd;clip-rule:evenodd;fill:none;stroke:#000000;stroke-linejoin:round;stroke-miterlimit:3.8637;}
</style>
<path class="st0" d="M49,15.1c-5.8,0.1-11.8-1-17-3.9c-5.2,2.9-11.2,4-17,3.9v18c0,9.4,8.1,16.8,17,19.9c8.9-3.1,17-10.5,17-19.9
	V15.1z M32,8.9c5.6,3.5,12.5,4.5,19,4.1v20.1c0,10.9-9.5,19-19,22.1C22.5,52,13,43.9,13,33.1V13C19.5,13.4,26.4,12.4,32,8.9z
	 M27.1,44.4c-2.8-1.4-3.9-4.6-3.4-7.2c0.6-3.6,4.2-5.6,2-9.1c1.3-0.2,2.3,0,3.2,0.5c-1.8-3.2-1.4-7,3.2-9.8
	c-1.5,5.3,1.9,7.3,5.2,11.2c4.5,5.4,3.8,11.8-1.4,14.3h-1.3c1.1-1.1,2.8-3.6,1.8-6.8c-0.2,0.8-1.7,2.2-4.3,1.9c1.5-1,2-4.4-0.6-7.5
	c0.1,0.6,0.2,1.2,0,1.7c-0.7,2.8-4.1,3.6-4.1,7.1c0,1.7,0.8,2.9,1.5,3.7H27.1z"/>
</svg>
