<?xml version="1.0" encoding="utf-8"?>
<!-- Generator: Adobe Illustrator 19.1.0, SVG Export Plug-In . SVG Version: 6.00 Build 0)  -->
<svg version="1.1" id="Layer_1" xmlns="http://www.w3.org/2000/svg" xmlns:xlink="http://www.w3.org/1999/xlink" x="0px" y="0px"
	 viewBox="0 0 64 64" style="enable-background:new 0 0 64 64;" xml:space="preserve">
<style type="text/css">
	.st0{fill:#010101;}
	.st1{fill-rule:evenodd;clip-rule:evenodd;fill:none;}
	.st2{fill-rule:evenodd;clip-rule:evenodd;fill:none;stroke:#000000;stroke-linejoin:round;stroke-miterlimit:3.8637;}
</style>
<path class="st0" d="M18.3,38.5L8.2,48.6L6.8,58l9.4-1.3l10.1-10.1l2.5,2.5l-11,11L2.7,62.2L4.9,47l11-11L18.3,38.5z M43.9,29
	l5.8-5.8l-2.8-2.8l-5.8,5.8l-2.5-2.5l5.8-5.8l-2.8-2.8l-5.8,5.8l-2.5-2.5l5.8-5.8l-4-4l2.5-2.5l6.7,6.7l8.1-8.1L51,3.4l2.5-2.5
	L64,11.4l-2.5,2.5l-1.4-1.4l-8.1,8.1l6.7,6.7l-2.5,2.5l-4-4l-5.8,5.8L43.9,29z M54.8,7.2L52.1,10l2.8,2.8l2.8-2.8L54.8,7.2z
	 M49.6,12.5l-2.8,2.8l2.8,2.8l2.8-2.8L49.6,12.5z M23.6,43.8L13,54.3l-2.5-2.5l10.5-10.5L23.6,43.8z M13,5.1l-4,4l6.3,6.3l9.3-9.3
	l2.5,2.5l-4,4l31.6,31.6l-5.3,5.3l11.1,11.1L58,63.1L46.9,52.1l-5.3,5.3L10,25.7l-4,4l-2.5-2.5l9.3-9.3l-6.3-6.3l-4,4L0,13.2
	L10.5,2.6L13,5.1z M46.9,41.5l-4,4l-2.5-2.5l4-4l-2.8-2.8l-4,4l-2.5-2.5l4-4L36.4,31l-4,4l-2.5-2.5l4-4l-2.8-2.8l-4,4l-2.5-2.5l4-4
	l-2.8-2.8l-4,4L19.3,22l4-4l-2.8-2.8l-8.1,8.1l29.2,29.2l8.1-8.1L46.9,41.5z"/>
</svg>
