<?xml version="1.0" encoding="utf-8"?>
<!-- Generator: Adobe Illustrator 19.1.0, SVG Export Plug-In . SVG Version: 6.00 Build 0)  -->
<svg version="1.1" id="Layer_1" xmlns="http://www.w3.org/2000/svg" xmlns:xlink="http://www.w3.org/1999/xlink" x="0px" y="0px"
	 viewBox="0 0 64 64" style="enable-background:new 0 0 64 64;" xml:space="preserve">
<style type="text/css">
	.st0{fill-rule:evenodd;clip-rule:evenodd;fill:none;}
	.st1{fill:none;}
	.st2{fill:#010101;}
	.st3{fill:#020202;}
</style>
<rect x="-1" y="-0.7" class="st0" width="64" height="64"/>
<path class="st2" d="M39,10c5,0,9,4,9,9c0,0.3,0,0.7-0.1,1h-2c0-0.3,0.1-0.7,0.1-1c0-3.9-3.1-7-7-7s-7,3.1-7,7c0,0.3,0,0.7,0.1,1h-2
	c0-0.3-0.1-0.7-0.1-1C30,14,34,10,39,10z M54,37l9,8.1l-4,0.3l2.5,5.7L59.4,52l-2.5-5.7L54,49.2L54,37z M23,60c1.1,0,2,0.9,2,2
	s-0.9,2-2,2s-2-0.9-2-2S21.9,60,23,60z M54,60c1.1,0,2,0.9,2,2s-0.9,2-2,2s-2-0.9-2-2S52.9,60,54,60z M18.8,32h39.5l0.8-3H18
	L18.8,32z M17.4,27h42.2l0.8-3H16.6L17.4,27z M22,56h34v2H22c-3,0-5.5-2.5-5.5-5.5c0-2.6,1.8-4.8,4.2-5.4L13.2,19H1v-2h13.8l1.3,5
	H63l-4.2,15.9l-1.7-1.5l0.6-2.4H19.3l0.8,3h31.4l0,2H20.6l0.8,3h30.1l0,2H22l0.8,3h28.7l0,2H22c-1.9,0-3.5,1.6-3.5,3.5
	C18.5,54.4,20.1,56,22,56z M22,19c0,0.4,0.1,0.8,0.1,1h-2C20,19.6,20,19.2,20,19c0-0.3,0-0.9,0.2-1.6c0.2-0.5,0.6-1.5,1.7-1.6l2-0.2
	c0.1-0.4,0.2-0.9,0.3-1.3l-1.6-1.2c-0.9-0.6-0.8-1.7-0.6-2.2c0.2-0.6,0.5-1.2,0.6-1.4c0.1-0.3,0.4-0.7,0.8-1.1
	C23.7,8,24.3,7.5,25,7.5l0.6,0.1l1.9,0.9c0.3-0.3,0.6-0.6,0.9-0.9l-0.8-1.8c-0.5-1,0.2-1.8,0.6-2.2c0.5-0.5,1-0.8,1.3-0.9
	c0.7-0.4,1.5-0.7,2.2-0.7c0.7,0,1.2,0.3,1.5,0.7l1.2,1.6c0.4-0.1,0.9-0.2,1.3-0.3l0-0.2l0.2-1.8c0.1-1.1,1.1-1.5,1.6-1.7
	C38.1,0,38.7,0,39,0c0.3,0,0.9,0,1.6,0.2c0.5,0.2,1.5,0.6,1.6,1.7l0.2,2c0.4,0.1,0.9,0.2,1.3,0.3l1.2-1.6c0.3-0.4,0.7-0.7,1.5-0.7
	c0.7,0,1.5,0.3,2.2,0.7c0.2,0.1,0.8,0.5,1.3,0.9c0.4,0.4,1,1.3,0.6,2.2l-0.8,1.8c0.3,0.3,0.7,0.6,1,1l0.4-0.2l1.7-0.8l0.4,0
	c0.8,0,1.4,0.5,1.7,0.9c0.4,0.4,0.7,0.9,0.8,1.1c0.1,0.2,0.5,0.8,0.6,1.4c0.1,0.5,0.3,1.6-0.6,2.2l-1.6,1.2c0.1,0.4,0.2,0.9,0.3,1.3
	l2,0.2c1.1,0.1,1.5,1.1,1.7,1.6C58,18.1,58,18.7,58,19c0,0.2,0,0.6-0.1,1h-2c0.1-0.2,0.1-0.6,0.1-1c0-0.6-0.1-1-0.2-1.2l-2.5-0.2
	c-0.4,0-0.9-0.2-1-0.9c-0.1-0.8-0.4-1.6-0.6-2.4c-0.1-0.4-0.1-0.8,0.4-1.2l2-1.5c0-0.2-0.1-0.6-0.4-1.1c-0.3-0.5-0.6-0.8-0.8-1
	l-2.3,1c-0.5,0.2-0.9,0.1-1.3-0.3c-0.5-0.6-1.1-1.2-1.7-1.7c-0.5-0.4-0.4-0.9-0.3-1.3l1-2.3c-0.1-0.2-0.4-0.5-1-0.8
	C47,4,46.6,3.9,46.4,3.8l-1.4,2c-0.3,0.4-0.7,0.6-1.2,0.4c-0.8-0.3-1.6-0.5-2.4-0.6c-0.7-0.1-0.9-0.6-0.9-1l-0.2-2.5
	C40,2.1,39.6,2,39,2s-1,0.1-1.2,0.2l-0.1,1.6l-0.1,0.9c0,0.4-0.2,0.9-0.9,1c-0.8,0.1-1.6,0.4-2.4,0.6c-0.6,0.2-0.9,0-1.2-0.4
	l-0.2-0.3l-1.2-1.8c-0.2,0-0.7,0.2-1.1,0.4c-0.5,0.3-0.8,0.6-1,0.8l1,2.3c0.2,0.5,0.1,0.9-0.3,1.3c-0.6,0.5-1.2,1.1-1.7,1.7
	c-0.3,0.4-0.8,0.5-1.3,0.3L25,9.5c-0.1,0.1-0.4,0.4-0.7,1c-0.3,0.5-0.4,1-0.4,1.1l2,1.5c0.4,0.3,0.6,0.7,0.4,1.2
	c-0.3,0.8-0.5,1.6-0.6,2.4c-0.1,0.7-0.6,0.9-1,0.9l-2.5,0.2C22.1,18,22,18.4,22,19z"/>
</svg>
