<?xml version="1.0" encoding="utf-8"?>
<!-- Generator: Adobe Illustrator 19.1.0, SVG Export Plug-In . SVG Version: 6.00 Build 0)  -->
<svg version="1.1" id="Layer_1" xmlns="http://www.w3.org/2000/svg" xmlns:xlink="http://www.w3.org/1999/xlink" x="0px" y="0px"
	 viewBox="0 0 64 64" style="enable-background:new 0 0 64 64;" xml:space="preserve">
<style type="text/css">
	.st0{fill:#010101;}
	.st1{fill-rule:evenodd;clip-rule:evenodd;fill:none;}
	.st2{fill-rule:evenodd;clip-rule:evenodd;fill:none;stroke:#000000;stroke-linejoin:round;stroke-miterlimit:3.8637;}
</style>
<path d="M53.9,7.2l-18.3,6.4v45.8l18.3-8.2V7.2z M16.6,8.9l17,1.5L49.1,5L33.6,3.7L16.6,8.9z M32,37.9l-21.9-2.5v21.5L32,60V37.9z
	 M32,30.2l-21.9-2.4v5.6L32,36V30.2z M32,22.5l-21.9-2.2V26L32,28.4V22.5z M32,13.9l-21.9-2v6.6L32,20.7V13.9z M57.6,2v51.4L34.1,64
	L6.4,60V8.1L33.1,0L57.6,2z M24.7,51.2c0-1,0.8-1.8,1.8-1.8c1,0,1.8,0.8,1.8,1.8c0,1-0.8,1.8-1.8,1.8C25.5,53,24.7,52.2,24.7,51.2z
	 M24.7,43.9c0-1,0.8-1.8,1.8-1.8c1,0,1.8,0.8,1.8,1.8s-0.8,1.8-1.8,1.8C25.5,45.7,24.7,44.9,24.7,43.9z"/>
</svg>
