<?xml version="1.0" encoding="utf-8"?>
<!-- Generator: Adobe Illustrator 19.1.0, SVG Export Plug-In . SVG Version: 6.00 Build 0)  -->
<svg version="1.1" id="Layer_1" xmlns="http://www.w3.org/2000/svg" xmlns:xlink="http://www.w3.org/1999/xlink" x="0px" y="0px"
	 viewBox="0 0 64 64" style="enable-background:new 0 0 64 64;" xml:space="preserve">
<style type="text/css">
	.st0{fill:#010101;}
	.st1{fill-rule:evenodd;clip-rule:evenodd;fill:none;}
	.st2{fill-rule:evenodd;clip-rule:evenodd;fill:none;stroke:#000000;stroke-linejoin:round;stroke-miterlimit:3.8637;}
</style>
<g id="Foreground">
	<path d="M11.2,60.1h50.7V17.4H44.8V0.3H2.1V51L16,37.1c-0.7-1.8-1.1-3.8-1.1-5.8c0-8.8,7.2-16,16-16c2.9,0,5.6,0.8,7.9,2.1L30,26.1
		c-1.7,1.7-1.7,4.4,0,6c1.7,1.7,4.4,1.7,6,0l8.8-8.8c1.3,2.3,2.1,5,2.1,7.9c0,8.8-7.2,16-16,16c-2.1,0-4-0.4-5.8-1.1L11.2,60.1z
		 M2.1,60.1h6l16.5-16.5c1.9,1,4,1.5,6.3,1.5c7.7,0,13.9-6.2,13.9-13.9c0-1.5-0.2-2.9-0.6-4.2l-6.6,6.6c-2.5,2.5-6.6,2.5-9.1,0
		c-2.5-2.5-2.5-6.6,0-9.1l6.6-6.6c-1.3-0.4-2.7-0.6-4.2-0.6c-7.7,0-13.9,6.2-13.9,13.9c0,2.3,0.5,4.4,1.5,6.3L2.1,54V60.1z
		 M46.9,0.4v14.9h14.9L46.9,0.4z M47.7-1.8L64,14.5v47.7H0v-64H47.7z M13.1,34.5H8.5v-1.1h4.4C13,33.8,13,34.1,13.1,34.5z M8.5,11
		h33.1v1.1H8.5V11z M8.5,7.8h33.1v1.1H8.5V7.8z M21.7,52.6h33.8v1.1H20.6L21.7,52.6z M24.9,49.4h6.1h24.5v1.1H23.8L24.9,49.4z
		 M41.2,46.2h14.2v1.1h-16C40.1,47,40.7,46.6,41.2,46.2z M44.8,43h10.7v1.1H43.8C44.1,43.7,44.4,43.4,44.8,43z M46.9,39.8h8.5v1.1
		h-9.1C46.5,40.5,46.7,40.2,46.9,39.8z M8.5,39.8h1.8l-1.1,1.1H8.5V39.8z M48.3,36.6h7.2v1.1h-7.6C48,37.3,48.2,37,48.3,36.6z
		 M48.9,33.4h6.5v1.1h-6.7C48.8,34.1,48.9,33.8,48.9,33.4z M49,30.2h6.4v1.1h-6.4C49.1,30.9,49.1,30.6,49,30.2z M31.2,30.2H35
		l-0.4,0.4c-0.4,0.4-1,0.6-1.5,0.6c-0.5,0-1.1-0.2-1.5-0.6C31.4,30.5,31.3,30.4,31.2,30.2z M8.5,30.2h4.3c0,0.4,0,0.7,0,1.1H8.5
		V30.2z M48.6,27h6.9v1.1h-6.7C48.7,27.7,48.6,27.4,48.6,27z M32.2,27h6l-1.1,1.1h-5.9c0.1-0.2,0.2-0.3,0.3-0.4L32.2,27z M8.5,27
		h4.8c-0.1,0.4-0.2,0.7-0.2,1.1H8.5V27z M47.5,23.8h8v1.1h-7.6C47.8,24.5,47.6,24.2,47.5,23.8z M35.4,23.8h6l-1.1,1.1h-6L35.4,23.8z
		 M8.5,23.8h5.9c-0.2,0.3-0.3,0.7-0.4,1.1H8.5V23.8z M45.7,20.6h9.7v1.1h-9.1L45.7,20.6z M38.6,20.6h6l-1.1,1.1h-6L38.6,20.6z
		 M8.5,20.6h7.7c-0.3,0.3-0.5,0.7-0.7,1.1h-7V20.6z M8.5,17.4h10.7c-0.4,0.3-0.8,0.7-1.2,1.1H8.5V17.4z M37.1,14.2h4.5v1.1h-2.1
		C38.7,14.9,37.9,14.5,37.1,14.2z M8.5,14.2h16.3c-0.8,0.3-1.6,0.7-2.4,1.1H8.5V14.2z M12.5,37.7H8.5v-1.1h5L12.5,37.7z"/>
</g>
</svg>
