<?xml version="1.0" encoding="utf-8"?>
<!-- Generator: Adobe Illustrator 19.1.0, SVG Export Plug-In . SVG Version: 6.00 Build 0)  -->
<svg version="1.1" id="Layer_1" xmlns="http://www.w3.org/2000/svg" xmlns:xlink="http://www.w3.org/1999/xlink" x="0px" y="0px"
	 viewBox="0 0 64 64" style="enable-background:new 0 0 64 64;" xml:space="preserve">
<style type="text/css">
	.st0{fill:#010101;}
	.st1{fill-rule:evenodd;clip-rule:evenodd;fill:none;}
	.st2{fill-rule:evenodd;clip-rule:evenodd;fill:none;stroke:#000000;stroke-linejoin:round;stroke-miterlimit:3.8637;}
</style>
<g>
	<path d="M42.6,29.8H37l-1.8-5.4l0.7-0.2l1.7,4.9h5V29.8z M61.6,46.9c-1.5-1.5-2.9-2.2-5-2.2v2h-0.7v-2c-2.1,0.1-3.5,0.7-5,2.2
		l-0.5-0.5c1.7-1.7,3.2-2.4,5.5-2.4v-5h-5.6v-0.7h10.6l2.4-13.4l0.7,0.1l-2.5,13.7c0,0.1-0.2,0.3-0.3,0.3h-4.6v5
		c2.3,0.1,3.9,0.8,5.5,2.4L61.6,46.9z M50.3,19.9c0-1.6,1.3-2.8,2.8-2.8s2.8,1.3,2.8,2.8s-1.3,2.8-2.8,2.8S50.3,21.5,50.3,19.9z
		 M53.7,27.3L50,29.8l-6.8-0.7v-1.4h6.3l3.6-3.5l3.8-1.9c2.2,2.1,3.1,3.7,3.7,6.6c0.7,3.2-0.9,8.6-0.9,8.6H49.1l-0.4,9.1h-1.5
		l-1.3-11.8l9.2-1.3L53.7,27.3z M47.5,31.2H33.4v15.5h-0.7V20.2h0.7v10.3h14.1V31.2z"/>
	<path d="M21.4,29.8H27l1.8-5.4l-0.7-0.2l-1.7,4.9h-5V29.8z M2.4,46.9c1.5-1.5,2.9-2.2,5-2.2v2h0.7v-2c2.1,0.1,3.5,0.7,5,2.2
		l0.5-0.5C12,44.7,10.4,44,8.1,44v-5h5.6v-0.7H3.1L0.7,24.8L0,24.9l2.5,13.7c0,0.1,0.2,0.3,0.3,0.3h4.6v5c-2.3,0.1-3.9,0.8-5.5,2.4
		L2.4,46.9z M13.7,19.9c0-1.6-1.3-2.8-2.8-2.8s-2.8,1.3-2.8,2.8s1.3,2.8,2.8,2.8S13.7,21.5,13.7,19.9z M10.3,27.3l3.7,2.4l6.8-0.7
		v-1.4h-6.3l-3.6-3.5l-3.8-1.9C5,24.3,4,26,3.4,28.9c-0.7,3.2,0.9,8.6,0.9,8.6h10.6l0.4,9.1h1.5l1.3-11.8L9,33.5L10.3,27.3z
		 M16.5,31.2h14.1v15.5h0.7V20.2h-0.7v10.3H16.5V31.2z"/>
</g>
</svg>
