<?xml version="1.0" encoding="utf-8"?>
<!-- Generator: Adobe Illustrator 19.1.0, SVG Export Plug-In . SVG Version: 6.00 Build 0)  -->
<svg version="1.1" id="Layer_1" xmlns="http://www.w3.org/2000/svg" xmlns:xlink="http://www.w3.org/1999/xlink" x="0px" y="0px"
	 viewBox="0 0 64 64" style="enable-background:new 0 0 64 64;" xml:space="preserve">
<style type="text/css">
	.st0{fill:#010101;}
	.st1{fill-rule:evenodd;clip-rule:evenodd;fill:none;}
	.st2{fill-rule:evenodd;clip-rule:evenodd;fill:none;stroke:#000000;stroke-linejoin:round;stroke-miterlimit:3.8637;}
</style>
<path class="st0" d="M32,64C14.3,64,0,49.7,0,32C0,14.3,14.3,0,32,0s32,14.3,32,32C64,49.7,49.7,64,32,64z M32,61.5
	c16.3,0,29.5-13.2,29.5-29.5S48.3,2.5,32,2.5C15.7,2.5,2.5,15.7,2.5,32S15.7,61.5,32,61.5z M56.6,32c0,13.6-11,24.6-24.6,24.6
	c-13.6,0-24.6-11-24.6-24.6S18.4,7.4,32,7.4C45.6,7.4,56.6,18.4,56.6,32z M54.2,32c0-12.2-9.9-22.2-22.2-22.2S9.8,19.8,9.8,32
	c0,12.2,9.9,22.2,22.2,22.2S54.2,44.2,54.2,32z M49.2,33.2l-12.5,0c-0.5,2.1-2.5,3.7-4.8,3.7c-2.7,0-4.9-2.2-4.9-4.9
	c0-2.3,1.6-4.2,3.7-4.8v-7.5c0-0.7,0.6-1.2,1.2-1.2c0.7,0,1.2,0.6,1.2,1.2l0,7.5c1.7,0.4,3.1,1.8,3.5,3.5l12.5,0
	c0.7,0,1.2,0.6,1.2,1.2C50.5,32.7,49.9,33.2,49.2,33.2z M34.5,32c0-1.4-1.1-2.5-2.5-2.5c-1.4,0-2.5,1.1-2.5,2.5
	c0,1.4,1.1,2.5,2.5,2.5C33.3,34.5,34.5,33.4,34.5,32z M30.8,14.8c0-0.7,0.6-1.2,1.2-1.2c0.7,0,1.2,0.6,1.2,1.2
	c0,0.7-0.6,1.2-1.2,1.2C31.3,16,30.8,15.4,30.8,14.8z M33.2,49.2c0,0.7-0.5,1.2-1.2,1.2c-0.7,0-1.2-0.6-1.2-1.2
	c0-0.7,0.6-1.2,1.2-1.2C32.7,48,33.2,48.6,33.2,49.2z M14.8,33.2c-0.7,0-1.2-0.5-1.2-1.2c0-0.7,0.6-1.2,1.2-1.2S16,31.3,16,32
	C16,32.7,15.4,33.2,14.8,33.2z M22.3,17.7c-0.3-0.6-0.1-1.3,0.5-1.7c0.6-0.3,1.3-0.1,1.7,0.4c0.3,0.6,0.1,1.3-0.4,1.7
	C23.4,18.5,22.7,18.3,22.3,17.7z M41.7,46.3c0.3,0.6,0.1,1.3-0.4,1.7c-0.6,0.3-1.3,0.1-1.7-0.4c-0.3-0.6-0.1-1.3,0.5-1.7
	C40.6,45.5,41.3,45.7,41.7,46.3z M46.3,22.3c0.6-0.3,1.3-0.1,1.7,0.4c0.3,0.6,0.1,1.3-0.5,1.7c-0.6,0.3-1.3,0.1-1.7-0.5
	C45.5,23.4,45.7,22.7,46.3,22.3z M17.7,41.7c-0.6,0.3-1.3,0.1-1.7-0.5c-0.3-0.6-0.1-1.3,0.4-1.7c0.6-0.3,1.3-0.1,1.7,0.4
	C18.5,40.6,18.3,41.3,17.7,41.7z M16.5,24.4c-0.6-0.3-0.8-1.1-0.5-1.7c0.3-0.6,1.1-0.8,1.7-0.5c0.6,0.3,0.8,1.1,0.4,1.7
	C17.8,24.6,17.1,24.8,16.5,24.4z M47.5,39.5c0.6,0.3,0.8,1.1,0.4,1.7c-0.3,0.6-1.1,0.8-1.7,0.5c-0.6-0.3-0.8-1.1-0.5-1.7
	C46.2,39.4,46.9,39.2,47.5,39.5z M39.5,16.5c0.3-0.6,1.1-0.8,1.7-0.4c0.6,0.3,0.8,1.1,0.5,1.7c-0.3,0.6-1.1,0.8-1.7,0.5
	C39.4,17.8,39.2,17,39.5,16.5z M24.4,47.5c-0.3,0.6-1.1,0.8-1.7,0.4c-0.6-0.3-0.8-1.1-0.4-1.7c0.3-0.6,1.1-0.8,1.7-0.5
	C24.6,46.2,24.8,46.9,24.4,47.5z"/>
</svg>
