<?xml version="1.0" encoding="utf-8"?>
<!-- Generator: Adobe Illustrator 19.1.0, SVG Export Plug-In . SVG Version: 6.00 Build 0)  -->
<svg version="1.1" id="Layer_1" xmlns="http://www.w3.org/2000/svg" xmlns:xlink="http://www.w3.org/1999/xlink" x="0px" y="0px"
	 viewBox="0 0 64 64" style="enable-background:new 0 0 64 64;" xml:space="preserve">
<style type="text/css">
	.st0{fill:#010101;}
</style>
<path class="st0" d="M27.2,17.8c-0.7-1.2-2.1-2-3.6-2c-2.2,0-3.9,1.6-4.2,3.7c-0.6-0.7-1.5-1.2-2.6-1.2c-1.8,0-3.3,1.4-3.4,3.2
	c-0.4-0.4-1-0.7-1.7-0.7c-1.4,0-2.5,1.1-2.5,2.5c0,0.4,0.1,0.8,0.2,1.1c-1.6,0.6-2.8,2.1-2.8,4c0,2,1.5,3.7,3.4,4.2
	c0,1.4,1.1,2.5,2.5,2.5c0.9,0,1.7-0.4,2.1-1.1C16,35.8,18,37,20.3,37c1.4,0,2.7-0.4,3.8-1.1c0.6,1.8,2.1,3.3,3.9,4
	c0,0.2,0,0.3,0,0.5c0,1.7,1.1,3.2,2.6,3.9c0.3,3.5,3.2,6.3,6.7,6.3c1.3,0,2.5-0.4,3.5-1c0.6,0.6,1.5,1,2.4,1c1.9,0,3.4-1.5,3.4-3.4
	c0-0.3,0-0.6,0-0.8c3.7,0,6.8-3,6.8-6.8c0-2.3-1.2-4.4-3-5.6c1.3-0.7,2.1-2.1,2.1-3.7c0-2.3-1.9-4.2-4.3-4.2
	c0.1-0.3,0.1-0.6,0.1-0.8c0-1.9-1.5-3.4-3.4-3.4c-0.6,0-1.2,0.2-1.7,0.5c-0.2-2.2-2-3.8-4.2-3.8c-1.1,0-2,0.4-2.8,1
	c-0.6-2.1-2.6-3.6-4.8-3.6C29.6,15.9,28.2,16.6,27.2,17.8z M34.6,51.8c-0.8-0.2-1.5-0.6-2.2-1c0.6,2.3,1.9,4.3,3.8,5.8l0.9-1.4
	C36.1,54.2,35.2,53.1,34.6,51.8z M28.9,45.3c-1.5-1-2.5-2.5-2.7-4.4c-1.2-0.7-2.2-1.7-2.9-2.8c-0.9,0.4-1.9,0.5-3,0.5
	c-2.2,0-4.2-0.8-5.6-2.2c-0.6,0.3-1.2,0.5-2,0.5c-1.9,0-3.5-1.3-4-3c-2.1-0.9-3.5-3-3.5-5.4c0-2,1-3.8,2.5-4.9l0-0.2
	c0-2.3,1.9-4.2,4.2-4.2c0.2,0,0.4,0,0.6,0.1c0.9-1.5,2.5-2.6,4.4-2.6c0.6,0,1.2,0.1,1.7,0.3c1-1.7,2.9-2.8,5-2.8
	c1.4,0,2.7,0.5,3.7,1.3c1.1-0.8,2.5-1.3,3.9-1.3c2.3,0,4.3,1.1,5.5,2.9c0.6-0.2,1.3-0.4,2.1-0.4c2.4,0,4.4,1.4,5.4,3.4
	c0.2,0,0.4,0,0.6,0c2.6,0,4.7,1.9,5,4.5c2.5,0.7,4.3,3,4.3,5.7c0,1.4-0.5,2.7-1.3,3.7c1.3,1.5,2.1,3.5,2.1,5.6
	c0,4.1-2.9,7.5-6.8,8.3c-0.3,2.5-2.5,4.4-5,4.4c-0.9,0-1.8-0.3-2.6-0.7c-1,0.4-2.2,0.7-3.4,0.7l-0.4,0c0.7,1.1,1.6,1.8,2.8,2.6
	l-2.8,4.2c-3.6-2.5-6-5.7-6.3-10.1C29.7,47.8,29.1,46.6,28.9,45.3z M23.7,27.7c0,2.8-2.3,5.1-5.1,5.1c-1.4,0-2.7-0.6-3.6-1.5
	l1.2-1.2c0.6,0.6,1.5,1,2.4,1c1.9,0,3.4-1.5,3.4-3.4H23.7z M46.4,28.5c-1.1,1.1-2.5,1.7-4.2,1.7c-1.6,0-3.1-0.7-4.2-1.7l1.2-1.2
	c0.8,0.8,1.8,1.2,3,1.2c1.2,0,2.2-0.5,3-1.2L46.4,28.5z M45,44.8c-0.9,0.9-2.2,1.5-3.6,1.5c-1.9,0-3.7-1.1-4.5-2.8l-0.2,0.1
	c-0.4,0.1-0.8,0.2-1.2,0.2c-2.3,0-4.2-1.9-4.2-4.2h1.7c0,1.4,1.1,2.5,2.5,2.5c1,0,1.6-0.5,2.3-1c0.5,1.9,1.2,3.6,3.6,3.6
	c0.9,0,1.8-0.4,2.4-1L45,44.8z M50.7,37c0,2.8-2.3,5.1-5.1,5.1c-1.4,0-2.7-0.6-3.6-1.5l1.2-1.2c0.6,0.6,1.5,1,2.4,1
	c1.9,0,3.4-1.5,3.4-3.4H50.7z M36.7,33.7l0.3-0.3c0.9-0.9,2.2-1.5,3.6-1.5c2.8,0,5.1,2.3,5.1,5.1h-1.7c0-1.9-1.5-3.4-3.4-3.4
	c-1.8,0-2.6,1.3-3.8,2.4c-0.9-0.9-1.6-1.6-3-1.6c-1.9,0-3.4,1.5-3.4,3.4h-1.7c0-2.8,2.3-5.1,5.1-5.1C34.9,32.7,35.9,33.1,36.7,33.7z
	 M26.2,31.1c0-2.8,2.3-5.1,5.1-5.1c0.4,0,0.7,0,1.1,0.1c0.7-2.1,2.7-3.5,4.8-3.5c1.4,0,2.7,0.6,3.6,1.5l-1.2,1.2
	c-0.6-0.6-1.5-1-2.4-1c-2.6,0-3.2,2-3.5,4.1c-0.8-0.4-1.5-0.8-2.4-0.8c-1.9,0-3.4,1.5-3.4,3.4H26.2z M11.8,27.7
	c0-2.8,2.3-5.1,5.1-5.1c1.2,0,2.5,0.5,3.4,1.3c0.9-0.8,2.1-1.3,3.4-1.3c0.4,0,0.7,0,1.1,0.1c0.7-2.1,2.7-3.5,4.8-3.5
	c1.4,0,2.7,0.6,3.6,1.5L32,21.9c-0.6-0.6-1.5-1-2.4-1c-2.6,0-3.2,2-3.5,4.1c-0.8-0.4-1.5-0.8-2.4-0.8c-1.7,0-2.4,1-3.4,2.2
	c-0.9-1.3-1.6-2.2-3.4-2.2c-1.9,0-3.4,1.5-3.4,3.4H11.8z M29.4,5.1V11h-1.7V5.1H29.4z M13.8,8.2l2.5,5.4l-1.5,0.7l-2.5-5.4L13.8,8.2
	z M1.1,17.5l4.5,3.8l-1.1,1.3L0,18.8L1.1,17.5z M44.7,8.9l-2.5,5.4l-1.5-0.7l2.5-5.4L44.7,8.9z M57,18.8l-4.5,3.8l-1.1-1.3l4.5-3.8
	L57,18.8z M64,33l-5.7,1.5l-0.4-1.6l5.7-1.5L64,33z"/>
</svg>
