<?xml version="1.0" encoding="utf-8"?>
<!-- Generator: Adobe Illustrator 19.1.0, SVG Export Plug-In . SVG Version: 6.00 Build 0)  -->
<svg version="1.1" id="Layer_1" xmlns="http://www.w3.org/2000/svg" xmlns:xlink="http://www.w3.org/1999/xlink" x="0px" y="0px"
	 viewBox="0 0 64 64" style="enable-background:new 0 0 64 64;" xml:space="preserve">
<style type="text/css">
	.st0{fill-rule:evenodd;clip-rule:evenodd;fill:none;}
	.st1{fill:none;}
	.st2{fill:#010101;}
	.st3{fill:#020202;}
</style>
<rect x="1.3" y="1.6" class="st0" width="64" height="64"/>
<path d="M56.4,33c0.4,1.7,1.9,2.9,3.7,2.9c2.1,0,3.9-1.7,3.9-3.9c0-2.1-1.7-3.9-3.9-3.9c-1.8,0-3.3,1.2-3.7,2.9h-7.9v-3.9h4.3
	l5.4-5.4c0.6,0.3,1.2,0.5,2,0.5c2.1,0,3.9-1.7,3.9-3.9c0-2.1-1.7-3.9-3.9-3.9s-3.9,1.7-3.9,3.9c0,0.7,0.2,1.4,0.6,2L52,25.2h-3.5
	v-7.8h-9.7V13l4.8-4.8c0.6,0.3,1.2,0.5,2,0.5c2.1,0,3.9-1.7,3.9-3.9c0-2.1-1.7-3.9-3.9-3.9c-2.1,0-3.9,1.7-3.9,3.9
	c0,0.7,0.2,1.4,0.5,2l-5.4,5.4v5.2H33V8.6c1.7-0.4,2.9-1.9,2.9-3.7C35.9,2.7,34.1,1,32,1s-3.9,1.7-3.9,3.9c0,1.8,1.2,3.3,2.9,3.7
	v8.9h-3.9v-5.2l-5.4-5.4c0.3-0.6,0.5-1.2,0.5-2c0-2.1-1.7-3.9-3.9-3.9s-3.9,1.7-3.9,3.9c0,2.1,1.7,3.9,3.9,3.9c0.7,0,1.4-0.2,2-0.6
	l4.8,4.8v4.4h-9.7v7.8H12l-4.8-4.8c0.3-0.6,0.5-1.2,0.5-2c0-2.1-1.7-3.9-3.9-3.9S0,16.3,0,18.4c0,2.1,1.7,3.9,3.9,3.9
	c0.7,0,1.4-0.2,2-0.5l5.4,5.4h4.3V31H7.6c-0.4-1.7-1.9-2.9-3.7-2.9C1.7,28.1,0,29.9,0,32c0,2.1,1.7,3.9,3.9,3.9
	c1.8,0,3.3-1.2,3.7-2.9h7.9v3.9h-4.3l-5.4,5.4c-0.6-0.3-1.2-0.5-2-0.5c-2.1,0-3.9,1.7-3.9,3.9c0,2.1,1.7,3.9,3.9,3.9
	s3.9-1.7,3.9-3.9c0-0.7-0.2-1.4-0.6-2l4.8-4.8h3.5v7.8h9.7V51l-4.8,4.8c-0.6-0.3-1.2-0.5-2-0.5c-2.1,0-3.9,1.7-3.9,3.9
	c0,2.1,1.7,3.9,3.9,3.9s3.9-1.7,3.9-3.9c0-0.7-0.2-1.4-0.5-2l5.4-5.4v-5.3H31v8.9c-1.7,0.4-2.9,1.9-2.9,3.7c0,2.1,1.7,3.9,3.9,3.9
	s3.9-1.7,3.9-3.9c0-1.8-1.2-3.3-2.9-3.7v-8.9h3.9v5.3l5.4,5.4c-0.3,0.6-0.5,1.2-0.5,2c0,2.1,1.7,3.9,3.9,3.9c2.1,0,3.9-1.7,3.9-3.9
	c0-2.1-1.7-3.9-3.9-3.9c-0.7,0-1.4,0.2-2,0.6L38.8,51v-4.4h9.7v-7.8H52l4.8,4.8c-0.3,0.6-0.5,1.2-0.5,2c0,2.1,1.7,3.9,3.9,3.9
	s3.9-1.7,3.9-3.9c0-2.1-1.7-3.9-3.9-3.9c-0.7,0-1.4,0.2-2,0.5l-5.4-5.4h-4.3V33H56.4z M60.1,30.1c1.1,0,1.9,0.9,1.9,1.9
	s-0.9,1.9-1.9,1.9c-1.1,0-1.9-0.9-1.9-1.9S59,30.1,60.1,30.1z M60.1,16.5c1.1,0,1.9,0.9,1.9,1.9c0,1.1-0.9,1.9-1.9,1.9
	c-1.1,0-1.9-0.9-1.9-1.9C58.2,17.4,59,16.5,60.1,16.5z M45.6,2.9c1.1,0,1.9,0.9,1.9,1.9c0,1.1-0.9,1.9-1.9,1.9
	c-1.1,0-1.9-0.9-1.9-1.9C43.6,3.8,44.5,2.9,45.6,2.9z M30.1,4.8c0-1.1,0.9-1.9,1.9-1.9c1.1,0,1.9,0.9,1.9,1.9c0,1.1-0.9,1.9-1.9,1.9
	C30.9,6.8,30.1,5.9,30.1,4.8z M16.5,4.8c0-1.1,0.9-1.9,1.9-1.9c1.1,0,1.9,0.9,1.9,1.9c0,1.1-0.9,1.9-1.9,1.9
	C17.4,6.8,16.5,5.9,16.5,4.8z M1.9,18.4c0-1.1,0.9-1.9,1.9-1.9c1.1,0,1.9,0.9,1.9,1.9c0,1.1-0.9,1.9-1.9,1.9
	C2.8,20.4,1.9,19.5,1.9,18.4z M3.9,33.9c-1.1,0-1.9-0.9-1.9-1.9s0.9-1.9,1.9-1.9c1.1,0,1.9,0.9,1.9,1.9S4.9,33.9,3.9,33.9z
	 M3.9,47.5c-1.1,0-1.9-0.9-1.9-1.9c0-1.1,0.9-1.9,1.9-1.9c1.1,0,1.9,0.9,1.9,1.9C5.8,46.6,4.9,47.5,3.9,47.5z M18.4,61.1
	c-1.1,0-1.9-0.9-1.9-1.9s0.9-1.9,1.9-1.9c1.1,0,1.9,0.9,1.9,1.9S19.5,61.1,18.4,61.1z M33.9,59.2c0,1.1-0.9,1.9-1.9,1.9
	c-1.1,0-1.9-0.9-1.9-1.9s0.9-1.9,1.9-1.9C33.1,57.2,33.9,58.1,33.9,59.2z M47.5,59.2c0,1.1-0.9,1.9-1.9,1.9c-1.1,0-1.9-0.9-1.9-1.9
	s0.9-1.9,1.9-1.9C46.6,57.2,47.5,58.1,47.5,59.2z M46.5,44.6H17.5V25.2h29.1V44.6z M62.1,45.6c0,1.1-0.9,1.9-1.9,1.9
	c-1.1,0-1.9-0.9-1.9-1.9c0-1.1,0.9-1.9,1.9-1.9C61.2,43.6,62.1,44.5,62.1,45.6z M37.8,30.1H20.4v-1.9h17.5V30.1z M37.8,33.9H20.4V32
	h17.5V33.9z M37.8,37.8H20.4v-1.9h17.5V37.8z M34.9,41.7H20.4v-1.9h14.5V41.7z M43.6,30.1h-3.9v-1.9h3.9V30.1z M43.6,33.9h-3.9V32
	h3.9V33.9z M43.6,37.8h-3.9v-1.9h3.9V37.8z"/>
<rect x="1.3" y="1.6" class="st0" width="64" height="64"/>
</svg>
