<?xml version="1.0" encoding="utf-8"?>
<!-- Generator: Adobe Illustrator 19.1.0, SVG Export Plug-In . SVG Version: 6.00 Build 0)  -->
<svg version="1.1" id="Layer_1" xmlns="http://www.w3.org/2000/svg" xmlns:xlink="http://www.w3.org/1999/xlink" x="0px" y="0px"
	 viewBox="0 0 64 64" style="enable-background:new 0 0 64 64;" xml:space="preserve">
<style type="text/css">
	.st0{fill:#010101;}
	.st1{fill-rule:evenodd;clip-rule:evenodd;fill:none;}
	.st2{fill-rule:evenodd;clip-rule:evenodd;fill:none;stroke:#000000;stroke-linejoin:round;stroke-miterlimit:3.8637;}
</style>
<path d="M21.9,29c-2.1,0-3.9,1.3-5.1,3l-1.3-1c1.5-2.1,3.8-3.7,6.5-3.7c2.7,0,4.9,1.6,6.5,3.7l-1.3,1C25.9,30.3,24.1,29,21.9,29z
	 M41.8,27.3c-2.7,0-4.9,1.6-6.5,3.7l1.3,1c1.2-1.7,3-3,5.1-3c2.1,0,3.9,1.3,5.1,3l1.3-1C46.8,28.9,44.5,27.3,41.8,27.3z M37.5,43.7
	c-1.3,0.7-3.2,1.2-5.2,1.2c-3.8,0-7.8-1.5-7.8-4.3h-1.7c0,3.9,4.8,6,9.5,6c2.3,0,4.5-0.5,6-1.4c1.9-1.1,3-2.7,3-4.6h-1.7
	C39.6,41.9,38.9,42.9,37.5,43.7z M57.5,35.3l-3.4,18.1c0,0.3-0.2,0.5-0.5,0.6l-12.5,6.1c0.3,0.4,0.4,0.9,0.4,1.4
	c0,1.4-1.1,2.5-2.5,2.5c-1.4,0-2.5-1.1-2.5-2.5s1.1-2.5,2.5-2.5c0.1,0,0.3,0,0.4,0l13.1-6.4L55,39.6C51.3,48.6,42.4,55,32,55
	c-11.9,0-21.8-8.4-24.2-19.5c-2.8-0.1-5.1-2.3-5.1-5.2c0-2,1.2-3.8,2.9-4.6c0.2-3.8,1.5-12.4,7.5-18.6C17.7,2.4,24.1,0,32,0
	s14.3,2.4,18.9,7.1c6.1,6.3,7.3,14.8,7.5,18.7c1.7,0.9,2.8,2.6,2.8,4.6C61.3,32.7,59.7,34.7,57.5,35.3z M7.3,25.2c0.1,0,0.3,0,0.4,0
	C10,13.9,20.1,5.4,32,5.4c12,0,22,8.5,24.3,19.8c0.1,0,0.3,0,0.4,0c-0.3-3.9-1.7-11.5-7-17C45.5,3.9,39.5,1.7,32,1.7
	c-7.5,0-13.5,2.2-17.7,6.6C9,13.8,7.7,21.4,7.3,25.2z M53.8,30.2c0-3.5-0.9-6.9-2.4-9.8C45.4,24.9,35,23.2,35,23.2
	c-6-1.1-9.3-3.2-11.1-5.3c-0.2,3.8-2.1,7.7-9,7.7c0,0-2.4,0.1-3.7-1.4c-0.6,1.9-0.9,3.9-0.9,6c0,12,9.7,21.7,21.7,21.7
	S53.8,42.2,53.8,30.2z"/>
</svg>
