<?xml version="1.0" encoding="utf-8"?>
<!-- Generator: Adobe Illustrator 19.1.0, SVG Export Plug-In . SVG Version: 6.00 Build 0)  -->
<svg version="1.1" id="Layer_1" xmlns="http://www.w3.org/2000/svg" xmlns:xlink="http://www.w3.org/1999/xlink" x="0px" y="0px"
	 viewBox="0 0 64 64" style="enable-background:new 0 0 64 64;" xml:space="preserve">
<style type="text/css">
	.st0{fill:#010101;}
	.st1{fill-rule:evenodd;clip-rule:evenodd;fill:none;}
	.st2{fill-rule:evenodd;clip-rule:evenodd;fill:none;stroke:#000000;stroke-linejoin:round;stroke-miterlimit:3.8637;}
</style>
<path d="M14.3,37.3H6.7v-1h7.6V37.3z M64,7.6v48.7H0V7.6H64z M9.6,10.5c0,0.5,0.4,1,1,1c0.5,0,1-0.4,1-1s-0.4-1-1-1
	C10,9.6,9.6,10,9.6,10.5z M5.7,10.5c0,0.5,0.4,1,1,1c0.5,0,1-0.4,1-1s-0.4-1-1-1C6.2,9.6,5.7,10,5.7,10.5z M1.9,10.5
	c0,0.5,0.4,1,1,1c0.5,0,1-0.4,1-1s-0.4-1-1-1C2.3,9.6,1.9,10,1.9,10.5z M62.1,22.9H1.9v31.5h60.2V22.9z M62.1,13.4H1.9V22h60.2V13.4
	z M12.4,46.8H6.7v1h5.7V46.8z M14.3,43.9H6.7v1h7.6V43.9z M12.4,39.2H6.7v1h5.7V39.2z M12.4,31.5H6.7v1h5.7V31.5z M14.3,28.7H6.7v1
	h7.6V28.7z M28.8,28.2h-5.8v-1h6.6l0.6,2.4h22.4l-3.4,12.9H33c-0.9,0-1.7,0.7-1.7,1.7s0.7,1.7,1.7,1.7h16.2v1H33
	c-1.5,0-2.6-1.2-2.6-2.6c0-1.2,0.9-2.3,2-2.6L28.8,28.2z M48.7,40.1H32.9l0.4,1.4h15L48.7,40.1z M49.4,37.7H32.3l0.4,1.4H49
	L49.4,37.7z M50,35.3H31.7l0.4,1.4h17.6L50,35.3z M50.7,33H31l0.4,1.4h18.9L50.7,33z M30.4,30.6l0.4,1.4h20.1l0.4-1.4H30.4z
	 M33.4,47.8c-0.5,0-1,0.4-1,1c0,0.5,0.4,1,1,1c0.5,0,1-0.4,1-1C34.4,48.2,34,47.8,33.4,47.8z M48.2,47.8c-0.5,0-1,0.4-1,1
	c0,0.5,0.4,1,1,1c0.5,0,1-0.4,1-1C49.2,48.2,48.8,47.8,48.2,47.8z"/>
</svg>
