<?xml version="1.0" encoding="utf-8"?>
<!-- Generator: Adobe Illustrator 19.1.0, SVG Export Plug-In . SVG Version: 6.00 Build 0)  -->
<svg version="1.1" id="Layer_1" xmlns="http://www.w3.org/2000/svg" xmlns:xlink="http://www.w3.org/1999/xlink" x="0px" y="0px"
	 viewBox="0 0 64 64" style="enable-background:new 0 0 64 64;" xml:space="preserve">
<style type="text/css">
	.st0{fill-rule:evenodd;clip-rule:evenodd;fill:none;}
	.st1{fill:none;}
	.st2{fill:#010101;}
	.st3{fill:#020202;}
</style>
<rect x="1.1" y="-1.9" class="st0" width="64" height="64"/>
<path class="st3" d="M18.4,17.6h5.4c0.9-2.4,2.2-4.5,3.6-6C23.9,12.8,20.8,14.9,18.4,17.6z M25.8,17.6h6.3v-6.7
	C29.7,11.4,27.4,13.9,25.8,17.6z M34,17.6h6.3c-1.6-3.8-3.9-6.2-6.3-6.7V17.6z M42.3,17.6h5.4c-2.3-2.8-5.5-4.9-9-6
	C40.1,13.2,41.3,15.2,42.3,17.6z M25.8,42.5c1.6,3.8,3.9,6.2,6.3,6.7v-6.7H25.8z M27.4,48.4c-1.4-1.5-2.7-3.5-3.6-6h-5.4
	C20.8,45.2,23.9,47.3,27.4,48.4z M33,9c11.7,0,21.1,9.4,21.1,21c0,11.6-9.4,21-21,21c-11.6,0-21-9.4-21-21C12,18.5,21.4,9,33,9z
	 M42.3,42.5c-0.9,2.4-2.2,4.5-3.6,6c3.6-1.1,6.7-3.2,9-6H42.3z M34,49.2c2.4-0.5,4.7-2.9,6.3-6.7H34V49.2z M21.7,31h-7.8
	c0.2,3.6,1.3,6.9,3.2,9.7h6.2C22.3,37.7,21.8,34.4,21.7,31z M32.1,31h-8.6c0.1,3.6,0.7,6.9,1.6,9.7h7V31z M42.6,31H34v9.7h7
	C41.9,37.9,42.5,34.6,42.6,31z M52.2,31h-7.8c-0.1,3.4-0.6,6.8-1.5,9.7h6.2C50.9,37.8,52.1,34.5,52.2,31z M44.4,29.1h7.8
	c-0.2-3.6-1.3-6.9-3.2-9.7h-6.2C43.8,22.4,44.3,25.7,44.4,29.1z M34,29.1h8.6c-0.1-3.6-0.7-6.9-1.6-9.7h-7V29.1z M23.5,29.1h8.6
	v-9.7h-7C24.2,22.2,23.6,25.5,23.5,29.1z M13.9,29.1h7.8c0.1-3.4,0.6-6.8,1.5-9.7H17C15.2,22.3,14,25.6,13.9,29.1z"/>
<path class="st3" d="M62.6,15.6c-1.9-3.5-16.3-1.2-33.6,7.3C11.7,31.4,1.6,41.2,3.5,44.5c1,1.9,5.6,2.1,12.3,0.6
	c0.5,0.5,1,1.1,1.5,1.6c-7.7,1.9-13.7,2-15.5-1.2c-6.4-11.7,56-42.3,62.3-30.7c1.8,3.3-1.9,8.2-8.4,13.2c-0.1-0.7-0.2-1.4-0.3-2.1
	C61,21.3,63.6,17.4,62.6,15.6z"/>
</svg>
