<?xml version="1.0" encoding="utf-8"?>
<!-- Generator: Adobe Illustrator 19.1.0, SVG Export Plug-In . SVG Version: 6.00 Build 0)  -->
<svg version="1.1" id="Layer_1" xmlns="http://www.w3.org/2000/svg" xmlns:xlink="http://www.w3.org/1999/xlink" x="0px" y="0px"
	 viewBox="0 0 64 64" style="enable-background:new 0 0 64 64;" xml:space="preserve">
<style type="text/css">
	.st0{fill:#010101;}
	.st1{fill-rule:evenodd;clip-rule:evenodd;fill:none;}
</style>
<path d="M6.3,23.2c0-8.8,7.1-16,16-16c7,0,13,4.5,15.1,10.9c1.6-0.8,3.4-1.2,5.3-1.2c6.6,0,11.9,5.3,11.9,11.9
	c0,1.2-0.2,2.4-0.5,3.5c5.6,1.2,9.8,6.2,9.8,12.2c0,6.9-5.6,12.4-12.4,12.4H14.1c-7.7,0-13.9-6.2-13.9-13.9c0-5.5,3.2-10.3,7.8-12.5
	C6.9,28.2,6.3,25.8,6.3,23.2z M22.3,8.5C14.2,8.5,7.6,15,7.6,23.2c0,2.4,0.6,4.7,1.6,6.7L9.8,31l-1.2,0.6c-4.2,2-7.1,6.4-7.1,11.4
	c0,7,5.6,12.6,12.6,12.6h37.3c6.2,0,11.2-5,11.2-11.2c0-5.3-3.7-9.8-8.8-10.9l-1.3-0.3l0.4-1.3c0.3-1,0.5-2,0.5-3.1
	c0-5.9-4.8-10.6-10.6-10.6c-1.7,0-3.3,0.4-4.7,1.1l-1.3,0.6l-0.5-1.4C34.2,12.7,28.7,8.5,22.3,8.5z M26.9,49.2v1.3h-6.4v-1.3H26.9z
	 M40.9,45.4V26.3H21.8v19.1H40.9z M32,46.6V48c0.7,0.3,1.3,1,1.3,1.8c0,1.1-0.9,1.9-1.9,1.9c-1.1,0-1.9-0.9-1.9-1.9
	c0-0.8,0.5-1.5,1.3-1.8v-1.4H20.6V25h21.6v21.6H32z M39,35.8c0,4.2-3.4,7.6-7.6,7.6s-7.6-3.4-7.6-7.6s3.4-7.6,7.6-7.6
	S39,31.6,39,35.8z M31.4,42.2c3.5,0,6.4-2.8,6.4-6.4c0-3.5-2.8-6.4-6.4-6.4S25,32.3,25,35.8C25,39.3,27.9,42.2,31.4,42.2z
	 M31.4,32.6c1.8,0,3.2,1.4,3.2,3.2c0,1.8-1.4,3.2-3.2,3.2c-1.8,0-3.2-1.4-3.2-3.2C28.2,34.1,29.6,32.6,31.4,32.6z M33.3,35.8
	c0-1.1-0.9-1.9-1.9-1.9c-1.1,0-1.9,0.9-1.9,1.9c0,1.1,0.9,1.9,1.9,1.9C32.4,37.7,33.3,36.9,33.3,35.8z M42.2,49.2v1.3h-6.4v-1.3
	H42.2z"/>
</svg>
