<?xml version="1.0" encoding="utf-8"?>
<!-- Generator: Adobe Illustrator 19.1.0, SVG Export Plug-In . SVG Version: 6.00 Build 0)  -->
<svg version="1.1" id="Layer_1" xmlns="http://www.w3.org/2000/svg" xmlns:xlink="http://www.w3.org/1999/xlink" x="0px" y="0px"
	 viewBox="0 0 64 64" style="enable-background:new 0 0 64 64;" xml:space="preserve">
<style type="text/css">
	.st0{fill-rule:evenodd;clip-rule:evenodd;fill:none;}
	.st1{fill:#010101;}
</style>
<g>
	<rect x="-1.2" y="-1.2" class="st0" width="66.4" height="66.4"/>
	<path d="M45.6,26C42,28.2,33.7,28.5,32,28.5S22,28.2,18.4,26v4.4c0,1,3,1.9,3.6,2.1c2.5,0.7,6.1,1.2,10,1.2c3.1,0,10-0.4,12.9-2.4
		c0.7-0.4,0.8-0.8,0.8-0.9V26z M18.4,23.5c0,1,3,1.9,3.6,2.1c2.5,0.7,6.1,1.2,10,1.2c3.1,0,10-0.4,12.9-2.4c0.7-0.4,0.8-0.8,0.8-0.9
		v-4.4C42,21.3,33.7,21.6,32,21.6s-10-0.3-13.6-2.5V23.5z M18.4,16.6c0,1,3,1.9,3.6,2.1c2.5,0.7,6.1,1.2,10,1.2
		c3.1,0,10-0.4,12.9-2.4c0.7-0.4,0.8-0.8,0.8-0.9v-4.4C42,14.5,33.7,14.7,32,14.7s-10-0.3-13.6-2.5V16.6z M19.1,8.8
		c-0.7,0.4-0.8,0.8-0.8,0.9c0,1,3,1.9,3.6,2.1c2.5,0.7,6.1,1.2,10,1.2c3.1,0,10-0.4,12.9-2.4c0.7-0.4,0.8-0.8,0.8-0.9
		c0-1-3-1.9-3.6-2.1c-2.5-0.7-6.1-1.2-10-1.2C28.9,6.5,22,6.9,19.1,8.8z M18.2,7.4C21.4,5.2,28.4,4.8,32,4.8c2.2,0,15.3,0.5,15.3,5
		v20.7c0,4.5-13.2,5-15.3,5s-15.3-0.5-15.3-5V9.7C16.7,8.7,17.4,8,18.2,7.4z M15,61.8v-7.3L6.5,46V28.6h6V41l2.6-2.6l10.2,10.2v13.1
		h-1.7V49.4L15,40.9l-1.8,1.8l5.8,5.8l-1.2,1.2l-7.1-7.1V30.3H8.2v15l8.5,8.5v8H15z M38.8,61.8V48.7L49,38.5l2.6,2.6V28.6h6V46
		L49,54.5v7.3h-1.7v-8l8.5-8.5v-15h-2.6v12.3l-7.1,7.1L45,48.4l5.8-5.8L49,40.9l-8.5,8.5v12.4H38.8z"/>
</g>
</svg>
