<?xml version="1.0" encoding="utf-8"?>
<!-- Generator: Adobe Illustrator 19.1.0, SVG Export Plug-In . SVG Version: 6.00 Build 0)  -->
<svg version="1.1" id="Layer_1" xmlns="http://www.w3.org/2000/svg" xmlns:xlink="http://www.w3.org/1999/xlink" x="0px" y="0px"
	 viewBox="0 0 64 64" style="enable-background:new 0 0 64 64;" xml:space="preserve">
<style type="text/css">
	.st0{fill:#010101;}
	.st1{fill-rule:evenodd;clip-rule:evenodd;fill:none;}
</style>
<path d="M6.3,23.2c0-8.8,7.1-16,16-16c7,0,13,4.5,15.1,10.9c1.6-0.8,3.4-1.2,5.3-1.2c6.6,0,11.9,5.3,11.9,11.9
	c0,1.2-0.2,2.4-0.5,3.5c5.6,1.2,9.8,6.2,9.8,12.2c0,6.9-5.6,12.4-12.4,12.4H14.1c-7.7,0-13.9-6.2-13.9-13.9c0-5.5,3.2-10.3,7.8-12.5
	C6.9,28.2,6.3,25.8,6.3,23.2z M22.3,8.5C14.2,8.5,7.6,15,7.6,23.2c0,2.4,0.6,4.7,1.6,6.7L9.8,31l-1.2,0.6c-4.2,2-7.1,6.4-7.1,11.4
	c0,7,5.6,12.6,12.6,12.6h37.3c6.2,0,11.2-5,11.2-11.2c0-5.3-3.7-9.8-8.8-10.9l-1.3-0.3l0.4-1.3c0.3-1,0.5-2,0.5-3.1
	c0-5.9-4.8-10.6-10.6-10.6c-1.7,0-3.3,0.4-4.7,1.1l-1.3,0.6l-0.5-1.4C34.2,12.7,28.7,8.5,22.3,8.5z M28.8,26.2c-1.4-0.4-3-0.1-4.1,1
	l-3.5,3.5c0.2,0.8,0,1.8-0.7,2.5c-0.7,0.7-1.6,0.9-2.5,0.7l-0.5,0.5l2.9,2.9l0.5-0.5c-0.2-0.8,0-1.8,0.7-2.5c1-1,2.6-1,3.6,0
	l12.8,14.1c1,1.1,2.3,1.1,3.2,0.2c0.8-0.8,0.8-2.2-0.2-3.2L26.9,32.6c-1.5-1.5-1.5-3.9,0-5.4C27.5,26.7,28.1,26.3,28.8,26.2z
	 M24.4,35.2c-1.2-1.2-3,0.6-1.8,1.8l-2,2l-4.7-4.7l2-2c1.2,1.2,3-0.6,1.8-1.8l4.1-4.1c2.1-2.1,5.5-2.1,7.7,0l0.9,0.9l-0.9,0.9
	c-1-1-2.6-1-3.6,0c-1,1-1,2.6,0,3.6l3.8,3.5l1.6-1.5c-0.8-2.1-0.3-4.6,1.4-6.3c2.1-2.1,5.2-2.3,7.5-0.8l-3.7,3.7
	c-0.5,0.5-0.5,1.3,0,1.8c0.5,0.5,1.3,0.5,1.8,0l3.7-3.7c1.5,2.3,1.2,5.5-0.8,7.5c-1.7,1.7-4.1,2.2-6.3,1.4l-1.3,1.5l6.2,5.6
	c1.6,1.4,1.7,3.6,0.3,5c-1.4,1.4-3.6,1.3-5-0.3l-5.5-6l-5.5,6c-1.4,1.6-3.6,1.7-5,0.3c-1.4-1.4-1.3-3.6,0.3-5l6.2-5.7L24.4,35.2z
	 M32.6,36l2.1,1.9l2-2.2c1.8,1,4.1,0.7,5.7-0.8c1.2-1.2,1.6-2.9,1.3-4.4L41.2,33c-1,1-2.6,1-3.6,0c-1-1-1-2.6,0-3.6L40,27
	c-1.5-0.3-3.2,0.1-4.4,1.3c-1.6,1.6-1.8,3.9-0.8,5.8L32.6,36z M30.8,42.2l-2.3-2.5l-6.2,5.7c-1.1,1-1.1,2.3-0.2,3.2
	c0.8,0.8,2.2,0.8,3.2-0.2L30.8,42.2z"/>
</svg>
