<?xml version="1.0" encoding="utf-8"?>
<!-- Generator: Adobe Illustrator 19.1.0, SVG Export Plug-In . SVG Version: 6.00 Build 0)  -->
<svg version="1.1" id="Layer_1" xmlns="http://www.w3.org/2000/svg" xmlns:xlink="http://www.w3.org/1999/xlink" x="0px" y="0px"
	 viewBox="0 0 64 64" style="enable-background:new 0 0 64 64;" xml:space="preserve">
<style type="text/css">
	.st0{fill:#010101;}
</style>
<g>
	<path class="st0" d="M14.9,2.1c2.9,0,5.3,2.4,5.3,5.3s-2.4,5.3-5.3,5.3s-5.3-2.4-5.3-5.3S12,2.1,14.9,2.1z M14.9,4.3
		c-1.8,0-3.2,1.4-3.2,3.2c0,1.8,1.4,3.2,3.2,3.2c1.8,0,3.2-1.4,3.2-3.2C18.1,5.7,16.7,4.3,14.9,4.3z M0,38.4v-9.6
		c0-8.2,6.7-14.9,14.9-14.9s14.9,6.7,14.9,14.9v9.6h-6.4v-9.6c0-1.5-0.4-2.9-1.1-4.1v37.2H16V39.5h-2.1v22.4H7.5V24.7
		c-0.7,1.3-1.1,2.7-1.1,4.1v9.6H0z M2.1,36.3h2.1v-7.5c0-3,1.3-5.9,3.6-7.9c0.3-0.3,0.8-0.3,1.1-0.2c0.4,0.2,0.6,0.6,0.6,1v38.1h2.1
		V37.3h6.4v22.4h2.1V21.6c0-0.4,0.2-0.8,0.6-1c0.4-0.2,0.8-0.1,1.1,0.2c2.3,2,3.6,4.9,3.6,7.9v7.5h2.1v-7.5C27.7,21.7,22,16,14.9,16
		S2.1,21.7,2.1,28.8V36.3z"/>
	<path class="st0" d="M36.3,36.3h2.1v-7.5c0-3,1.3-5.9,3.6-7.9c0.3-0.3,0.8-0.3,1.1-0.2c0.4,0.2,0.6,0.6,0.6,1v38.1h2.1V37.3h6.4
		v22.4h2.1V21.6c0-0.4,0.2-0.8,0.6-1c0.4-0.2,0.8-0.1,1.1,0.2c2.3,2,3.6,4.9,3.6,7.9v7.5h2.1v-7.5c0-7.1-5.7-12.8-12.8-12.8
		s-12.8,5.7-12.8,12.8V36.3z M34.1,38.4v-9.6c0-8.2,6.7-14.9,14.9-14.9S64,20.6,64,28.8v9.6h-6.4v-9.6c0-1.5-0.4-2.9-1.1-4.1v37.2
		h-6.4V39.5H48v22.4h-6.4V24.7c-0.7,1.3-1.1,2.7-1.1,4.1v9.6H34.1z M49.1,4.3c-1.8,0-3.2,1.4-3.2,3.2c0,1.8,1.4,3.2,3.2,3.2
		c1.8,0,3.2-1.4,3.2-3.2C52.3,5.7,50.8,4.3,49.1,4.3z M49.1,2.1c2.9,0,5.3,2.4,5.3,5.3s-2.4,5.3-5.3,5.3c-2.9,0-5.3-2.4-5.3-5.3
		S46.1,2.1,49.1,2.1z"/>
</g>
</svg>
