<?xml version="1.0" encoding="utf-8"?>
<!-- Generator: Adobe Illustrator 19.1.0, SVG Export Plug-In . SVG Version: 6.00 Build 0)  -->
<svg version="1.1" id="Layer_1" xmlns="http://www.w3.org/2000/svg" xmlns:xlink="http://www.w3.org/1999/xlink" x="0px" y="0px"
	 viewBox="0 0 64 64" style="enable-background:new 0 0 64 64;" xml:space="preserve">
<style type="text/css">
	.st0{fill:#010101;}
</style>
<path d="M0,0h64v64H0V0z M62.4,62.4V1.6H1.6v60.7H62.4z M46.8,38.7c-3.8,2.3-13.1,2.6-14.8,2.6c-1.6,0-10.9-0.2-14.8-2.6v4.8
	c0,1,3.4,2,4,2.1c2.7,0.7,6.6,1.2,10.8,1.2c3.4,0,10.8-0.4,13.9-2.4c0.7-0.5,0.8-0.8,0.8-0.9V38.7z M17.2,36.4c0,1,3.4,2,4,2.1
	c2.7,0.7,6.6,1.2,10.8,1.2c3.4,0,10.8-0.4,13.9-2.4c0.7-0.5,0.8-0.8,0.8-0.9v-4.8c-3.8,2.3-13.1,2.6-14.8,2.6
	c-1.6,0-10.9-0.2-14.8-2.6V36.4z M17.2,29.3c0,1,3.4,2,4,2.1c2.7,0.7,6.6,1.2,10.8,1.2c3.4,0,10.8-0.4,13.9-2.4
	c0.7-0.5,0.8-0.8,0.8-0.9v-4.8c-3.8,2.3-13.1,2.6-14.8,2.6c-1.6,0-10.9-0.2-14.8-2.6V29.3z M18.1,21.3c-0.7,0.5-0.8,0.8-0.8,0.9
	c0,1,3.4,2,4,2.1c2.7,0.7,6.6,1.2,10.8,1.2c3.4,0,10.8-0.4,13.9-2.4c0.7-0.5,0.8-0.8,0.8-0.9c0-1-3.4-2-4-2.1
	c-2.7-0.7-6.6-1.2-10.8-1.2C28.6,18.9,21.2,19.3,18.1,21.3z M17.2,19.9c3.5-2.2,11-2.6,14.8-2.6c2.1,0,16.4,0.4,16.4,4.9v21.3
	c0,4.5-14.4,4.9-16.4,4.9S15.6,48,15.6,43.5V22.2C15.6,21.1,16.4,20.4,17.2,19.9z"/>
</svg>
