<?xml version="1.0" encoding="utf-8"?>
<!-- Generator: Adobe Illustrator 19.1.0, SVG Export Plug-In . SVG Version: 6.00 Build 0)  -->
<svg version="1.1" id="Layer_1" xmlns="http://www.w3.org/2000/svg" xmlns:xlink="http://www.w3.org/1999/xlink" x="0px" y="0px"
	 viewBox="0 0 64 64" style="enable-background:new 0 0 64 64;" xml:space="preserve">
<style type="text/css">
	.st0{fill:#010101;}
	.st1{fill-rule:evenodd;clip-rule:evenodd;fill:none;}
	.st2{fill-rule:evenodd;clip-rule:evenodd;fill:none;stroke:#000000;stroke-linejoin:round;stroke-miterlimit:3.8637;}
</style>
<path d="M34,50.5v-9h-4v9H34z M29,40.5h6v10h13v-33H16v33h13V40.5z M42,15.5v-2H31v2H42z M44,11.5v4h6v35h3v2H11v-2h3v-35h15v-4H44z
	 M38,40.6h6v6h-6V40.6z M43,41.6h-4v4h4V41.6z M25,23.6h-4v4h4V23.6z M20,22.6h6v6h-6V22.6z M34,23.6h-4v4h4V23.6z M29,22.6h6v6h-6
	V22.6z M43,23.6h-4v4h4V23.6z M38,22.6h6v6h-6V22.6z M25,32.6h-4v4h4V32.6z M20,31.6h6v6h-6V31.6z M34,32.6h-4v4h4V32.6z M29,31.6h6
	v6h-6V31.6z M43,32.6h-4v4h4V32.6z M38,31.6h6v6h-6V31.6z M25,41.6h-4v4h4V41.6z M20,40.6h6v6h-6V40.6z"/>
</svg>
