<?xml version="1.0" encoding="utf-8"?>
<!-- Generator: Adobe Illustrator 19.1.0, SVG Export Plug-In . SVG Version: 6.00 Build 0)  -->
<svg version="1.1" id="Layer_1" xmlns="http://www.w3.org/2000/svg" xmlns:xlink="http://www.w3.org/1999/xlink" x="0px" y="0px"
	 viewBox="0 0 64 64" style="enable-background:new 0 0 64 64;" xml:space="preserve">
<style type="text/css">
	.st0{fill:#010101;}
	.st1{fill-rule:evenodd;clip-rule:evenodd;fill:none;}
	.st2{fill-rule:evenodd;clip-rule:evenodd;fill:none;stroke:#000000;stroke-linejoin:round;stroke-miterlimit:3.8637;}
</style>
<path d="M32,4C16.5,4,4,16.5,4,32s12.5,28,28,28c15.5,0,28-12.5,28-28S47.5,4,32,4z M64,32c0,17.7-14.3,32-32,32
	C14.3,64,0,49.7,0,32C0,14.3,14.3,0,32,0C49.7,0,64,14.3,64,32z M38.9,31h12.7l-5.3-5.3l1.4-1.4l7.7,7.7l-7.7,7.7l-1.4-1.4l5.3-5.3
	H38.9c-0.4,3.1-2.9,5.5-5.9,5.9v12.7l5.3-5.3l1.4,1.4L32,55.4l-7.7-7.7l1.4-1.4l5.3,5.3V38.9c-3.1-0.4-5.5-2.9-5.9-5.9H12.4l5.3,5.3
	l-1.4,1.4L8.6,32l7.7-7.7l1.4,1.4L12.4,31h12.7c0.4-3.1,2.9-5.5,5.9-5.9V12.4l-5.3,5.3l-1.4-1.4L32,8.6l7.7,7.7l-1.4,1.4L33,12.4
	v12.7C36.1,25.5,38.5,27.9,38.9,31z M32,27c-2.8,0-5,2.2-5,5s2.2,5,5,5c2.8,0,5-2.2,5-5S34.8,27,32,27z"/>
</svg>
