<?xml version="1.0" encoding="utf-8"?>
<!-- Generator: Adobe Illustrator 19.1.0, SVG Export Plug-In . SVG Version: 6.00 Build 0)  -->
<svg version="1.1" id="Layer_1" xmlns="http://www.w3.org/2000/svg" xmlns:xlink="http://www.w3.org/1999/xlink" x="0px" y="0px"
	 viewBox="0 0 64 64" style="enable-background:new 0 0 64 64;" xml:space="preserve">
<style type="text/css">
	.st0{fill:#010101;}
</style>
<path d="M34.7,31.1v20.1h1.8V19.5c0-0.4,0.2-0.7,0.5-0.8c0.3-0.1,0.7-0.1,1,0.2c1.9,1.7,3,4.2,3,6.8v5.5H43v-5.5c0-6.1-4.9-11-11-11
	h-4.6c-4.5,0-8.2-3.7-8.2-8.2V1.8h-1.8v4.6c0,5.1,3.8,9.3,8.8,10h1.3v34.8h1.8V31.1H34.7z M32.9,53V32.9h-1.8V53h-5.5V18.1
	c-5.7-0.9-10.1-5.8-10.1-11.7V0H21v6.4c0,3.5,2.9,6.4,6.4,6.4H32c7.1,0,12.8,5.7,12.8,12.8v7.3h-5.5v-7.3c0-1.2-0.3-2.5-0.9-3.5v31
	H32.9z M32,2.7c2.5,0,4.6,2,4.6,4.6c0,2.5-2,4.6-4.6,4.6c-2.5,0-4.6-2-4.6-4.6C27.4,4.8,29.5,2.7,32,2.7z M32,4.6
	c-1.5,0-2.7,1.2-2.7,2.7s1.2,2.7,2.7,2.7c1.5,0,2.7-1.2,2.7-2.7S33.5,4.6,32,4.6z M7.3,59.4h15.5v-4.6h18.3v7.3h15.5V64H39.3v-7.3
	H24.7v4.6H7.3V59.4z"/>
</svg>
