<?xml version="1.0" encoding="utf-8"?>
<!-- Generator: Adobe Illustrator 20.1.0, SVG Export Plug-In . SVG Version: 6.00 Build 0)  -->
<svg version="1.1" id="Layer_1" xmlns="http://www.w3.org/2000/svg" xmlns:xlink="http://www.w3.org/1999/xlink" x="0px" y="0px"
	 viewBox="0 0 64 64" style="enable-background:new 0 0 64 64;" xml:space="preserve">
<style type="text/css">
	.st0{fill:#010101;}
</style>
<g>
	<g>
		<path class="st0" d="M37.3,62.2h-2v-8c0-12.7-9.8-23-21.8-23h-2.9V26l-7.8,8.6l7.8,8.8v-5.2h2.9c8.4,0,15.3,7.2,15.3,16v8h-2v-8
			c0-7.7-6-14-13.3-14h-0.9v8.4L0,34.6l12.5-13.8v8.4h0.9c13.1,0,23.8,11.2,23.8,25V62.2z"/>
		<polygon class="st0" points="37.3,35.4 35.3,35.4 35.3,13.2 40.5,13.2 32,4.6 23.5,13.2 28.7,13.2 28.7,35.4 26.7,35.4 26.7,15.2 
			18.7,15.2 32,1.8 45.3,15.2 37.3,15.2 		"/>
		<path class="st0" d="M37.3,54.1h-2c0-8.8,6.8-16,15.3-16h2.9v5.2l7.8-8.6L53.4,26v5.2h-2.9c-7.1,0-13.5,3.5-17.7,9.6l-1.6-1.1
			c4.5-6.5,11.7-10.4,19.4-10.4h0.9v-8.4L64,34.7L51.4,48.5v-8.4h-0.9C43.2,40.1,37.3,46.4,37.3,54.1z"/>
	</g>
</g>
</svg>
