<svg height="40" viewBox="0 0 230 40" width="230" xmlns="http://www.w3.org/2000/svg"><path d="m130.8192 15.6208h-.7292a11.4614 11.4614 0 0 0 -3.0707.4191v-4.7387h-2.2753v17.1442h2.2095a16.19 16.19 0 0 0 3.0708.2882h.73a3.9548 3.9548 0 0 0 3.8777-3.9436v-5.2256a3.9547 3.9547 0 0 0 -3.8128-3.9436zm1.547 7.2364v1.9328a1.6236 1.6236 0 0 1 -1.6232 1.6231h-.6625a13.8718 13.8718 0 0 1 -3.0724-.32v-7.6219a9.1177 9.1177 0 0 1 3.0724-.5316h.6625a1.624 1.624 0 0 1 1.6232 1.6248v3.2927zm69.8538-11.556h-2.2757v4.6177a11.5153 11.5153 0 0 0 -2.607-.2982h-.7288a3.9541 3.9541 0 0 0 -3.879 3.9436v5.214a3.9541 3.9541 0 0 0 3.879 3.9437h.7288a16.3734 16.3734 0 0 0 3.0493-.2865h1.8881zm-5.5237 15.1a1.6231 1.6231 0 0 1 -1.6249-1.6232v-5.214a1.6244 1.6244 0 0 1 1.6249-1.6248h.6625a9.2079 9.2079 0 0 1 2.607.3876v7.8442a14.19 14.19 0 0 1 -2.607.2418l-.6625-.0115zm-105.9463-15.1h2.2757v17.1343h-2.2757zm74.5594 0h2.2774v17.1343h-2.2768v-17.1343zm-69.5869 4.6508h2.2758v12.4835h-2.2758zm11.0259-.3313h-.73a11.4527 11.4527 0 0 0 -3.0708.4191v-4.7386h-2.3088v17.1442h2.2757a16.1887 16.1887 0 0 0 3.0707.2882h.7288a3.955 3.955 0 0 0 3.867-3.9436v-5.2256a3.9539 3.9539 0 0 0 -3.8326-3.9436zm1.547 7.2364v1.9329a1.6251 1.6251 0 0 1 -1.6248 1.6231h-.6625a13.7579 13.7579 0 0 1 -3.0608-.32v-7.6219a9.1079 9.1079 0 0 1 3.0708-.5316h.6626a1.6243 1.6243 0 0 1 1.6247 1.6248v3.3142zm10.3617-7.2264h-1.7571a13.4312 13.4312 0 0 0 -3.6455.7189l.5415 2.21a14.7377 14.7377 0 0 1 3.3142-.6079h1.4029a1.6119 1.6119 0 0 1 1.4476 1.6132v1.3913c-1.7342-.1987-4.84-.2981-6.5291 1.1047a3.3141 3.3141 0 0 0 -1.2157 2.6517 3.5329 3.5329 0 0 0 1.3366 2.8936 6.7091 6.7091 0 0 0 4.0877 1.1064 16.2842 16.2842 0 0 0 2.7064-.2435h1.9346v-8.8384a3.9341 3.9341 0 0 0 -3.624-4zm1.2588 10.5174c-1.547.265-3.9652.419-4.97-.3859a1.2152 1.2152 0 0 1 -.4539-1.1047 1.0079 1.0079 0 0 1 .3875-.8513c.949-.7735 3.3142-.7735 5.0368-.5532v2.8952zm22.8253-10.5174h-1.7573a13.4316 13.4316 0 0 0 -3.6455.7189l.5415 2.21a14.7217 14.7217 0 0 1 3.3142-.6079h1.403a1.6117 1.6117 0 0 1 1.4459 1.6132v1.3913c-1.7342-.1987-4.838-.2981-6.5291 1.1047a3.3172 3.3172 0 0 0 -1.2139 2.6512 3.5326 3.5326 0 0 0 1.3366 2.8936 6.7086 6.7086 0 0 0 4.0876 1.1064 16.3 16.3 0 0 0 2.7064-.2435h1.9329v-8.8379a3.9328 3.9328 0 0 0 -3.6223-4zm1.2588 10.5175c-1.547.265-3.9668.419-4.9721-.3859a1.2174 1.2174 0 0 1 -.4522-1.1047 1.0108 1.0108 0 0 1 .3859-.8513c.9507-.7735 3.3142-.7735 5.0384-.5532v2.8952zm-48.61-13.5054a1.48 1.48 0 1 1 1.224 1.6977 1.48 1.48 0 0 1 -1.224-1.6977zm80.229 3.0658h-2.2111a3.7567 3.7567 0 0 0 -3.7565 3.7565v5.5238a3.7563 3.7563 0 0 0 3.7565 3.7548h2.2111a3.7549 3.7549 0 0 0 3.7548-3.7548v-5.5239a3.7552 3.7552 0 0 0 -3.7548-3.7565zm1.4343 9.2686a1.4353 1.4353 0 0 1 -1.4343 1.436h-2.2111a1.4367 1.4367 0 0 1 -1.4361-1.436v-5.5122a1.4381 1.4381 0 0 1 1.4361-1.4376h2.2111a1.4367 1.4367 0 0 1 1.4343 1.4376v5.5121zm-21.0568-11.3224a2.3168 2.3168 0 0 0 -2.3072 2.3188v8.1191a2.3185 2.3185 0 0 0 2.3188 2.32h2.5739a17.1473 17.1473 0 0 0 3.9-.5846l.6857 2.2095a19.1819 19.1819 0 0 1 -4.5862.6841h-2.5739a4.65 4.65 0 0 1 -4.6509-4.6509v-8.086a4.6519 4.6519 0 0 1 4.6509-4.6525h2.5739a19.2338 19.2338 0 0 1 4.6525.7189l-.6957 2.2095a17.035 17.035 0 0 0 -3.9685-.6062zm32.5576 9.8752-.0116-7.6007h2.32v12.5161h-1.7673a12.7339 12.7339 0 0 1 -2.6517.2882h-1.426a3.8546 3.8546 0 0 1 -3.8427-3.8459v-8.9588h2.3188v8.982a1.5265 1.5265 0 0 0 1.547 1.5022h1.4244a10.5278 10.5278 0 0 0 2.0886-.22v-2.6631zm-105.5917-12.2288h-3.1253c-.3876.7718-1.1064 2.0869-1.4377 2.9051a84.719 84.719 0 0 0 -4.6956 14.2391h2.3862c.2219-.9043.62-2.4414 1.1611-4.308h8.33c.5515 1.8666.949 3.4037 1.1594 4.308h2.3867a84.6828 84.6828 0 0 0 -4.684-14.2391c-.376-.8181-1.0286-2.1216-1.4807-2.9051zm-1.7457 2.2078h.32a63.5727 63.5727 0 0 1 3.3158 8.298h-6.8837a63.7228 63.7228 0 0 1 3.2927-8.2417zm-19.8967-5.9643.0114-.0447a6.629 6.629 0 0 1 6.6286 6.6285v11.7447a6.6276 6.6276 0 0 1 -6.6286 6.6268h-10.66l1.0268-4.0214 9.0367-1.8335a1.91 1.91 0 0 0 1.5451-1.8783v-9.4888a1.91 1.91 0 0 0 -1.545-1.878l-9.0367-1.8335-1.0268-4.0218zm-26.966 0h10.66l-1.0269 4.0215-9.0271 1.8338a1.91 1.91 0 0 0 -1.5453 1.8782v9.4889a1.91 1.91 0 0 0 1.5453 1.878l9.0384 1.8335 1.0268 4.0214h-10.6715a6.6276 6.6276 0 0 1 -6.6285-6.6268v-11.7447a6.6282 6.6282 0 0 1 6.6285-6.5838zm9.6 11.9866h7.7v.9938h-7.7z" fill="#363d40"/></svg>