<svg height="40" viewBox="0 0 230 40" width="230" xmlns="http://www.w3.org/2000/svg"><path d="m107.4487 26.9709-4.6944-13.0754a2.1087 2.1087 0 0 1 -.15-.6275 1.1361 1.1361 0 0 1 1.1644-1.1052 1.21 1.21 0 0 1 1.1679.9553l3.8907 11.266 3.9169-11.2956a1.1781 1.1781 0 0 1 1.1348-.9256h.12a1.2221 1.2221 0 0 1 1.1975.9256l3.8873 11.2956 3.9517-11.3235a1.1258 1.1258 0 0 1 1.1051-.8977 1.1031 1.1031 0 0 1 1.1366 1.0772 2.2 2.2 0 0 1 -.1482.6276l-4.7257 13.1033a1.3673 1.3673 0 0 1 -1.2567 1.0441h-.0906a1.2927 1.2927 0 0 1 -1.2586-1.0441l-3.8558-11.1091-3.8908 11.1091a1.2891 1.2891 0 0 1 -1.2551 1.0441h-.0627a1.3709 1.3709 0 0 1 -1.2846-1.0441m34.2267-13.6681v13.5233a1.1541 1.1541 0 1 0 2.308 0v-5.2521c0-4.4677 2.4543-6.7164 5.4526-7.0754a1.1454 1.1454 0 0 0 1.0215-1.168 1.11 1.11 0 0 0 -1.1418-1.1679 6.303 6.303 0 0 0 -5.3323 3.7931v-2.6531a1.1541 1.1541 0 1 0 -2.308 0zm16.1834 14.836a7.6772 7.6772 0 0 0 5.7246-2.3149.9719.9719 0 0 0 .3538-.7373.9779.9779 0 0 0 -1.6455-.7165 6.167 6.167 0 0 1 -4.3735 1.7815 5.32 5.32 0 0 1 -5.3411-5.1893h10.9766a1.0607 1.0607 0 0 0 1.0581-1.0686c0-4.0668-2.5572-7.7709-7.0458-7.7709-4.1992 0-7.2829 3.56-7.2829 7.9766v.0628c0 4.7431 3.4061 7.9766 7.5757 7.9766m4.4922-8.8692h-9.7739c.2876-2.9948 2.2852-5.219 4.93-5.219 3.0209 0 4.6107 2.4317 4.8443 5.219zm-37.0316 4.0685c0 3.1656 2.9006 4.8094 5.7716 4.8094a6.7755 6.7755 0 0 0 5.5851-2.66v1.4747a1.0555 1.0555 0 0 0 1.0982 1.0737 1.0914 1.0914 0 0 0 1.1086-1.133v-8.524a6.091 6.091 0 0 0 -1.5862-4.5113 6.7626 6.7626 0 0 0 -4.9854-1.703 10.2508 10.2508 0 0 0 -4.6385.88.9516.9516 0 0 0 -.6293.9588 1.0235 1.0235 0 0 0 1.0179.9866 1.1452 1.1452 0 0 0 .4149-.0924 7.8416 7.8416 0 0 1 3.5961-.7042c2.8954 0 4.6037 1.4364 4.6037 4.2132v.5386a16.4359 16.4359 0 0 0 -4.7553-.6589c-3.9117 0-6.6014 1.7344-6.6014 4.9907v.061m11.3845-1.1958c0 2.4473-2.3341 4.18-5.17 4.18-2.0919 0-3.8837-1.1348-3.8837-3.0767v-.0593c0-1.94 1.6159-3.1969 4.5112-3.1969a16.1224 16.1224 0 0 1 4.5426.6589v1.4939m-71.105-9.01a2.1789 2.1789 0 0 0 -2.925-1.0912 2.1373 2.1373 0 0 0 -1.07 2.925l4.9018 10.654c.7722 1.6717 1.5845 2.5467 3.1081 2.5467 1.63 0 2.3393-.9535 3.11-2.5467 0 0 4.276-9.31 4.32-9.406a.6157.6157 0 0 1 .6154-.3975.6823.6823 0 0 1 .678.6886v9.1063a2.2864 2.2864 0 0 0 2.2747 2.5554 2.31 2.31 0 0 0 2.3063-2.5554v-7.4487a2.29 2.29 0 0 1 2.4316-2.3707 2.2321 2.2321 0 0 1 2.3376 2.3707v7.4485a2.2886 2.2886 0 0 0 2.2766 2.5554 2.3131 2.3131 0 0 0 2.31-2.5554v-7.4485a2.2877 2.2877 0 0 1 2.43-2.3707 2.2349 2.2349 0 0 1 2.3362 2.3707v7.4485a2.305 2.305 0 1 0 4.5827 0v-8.4787a5.314 5.314 0 0 0 -5.5206-5.2992 7.0918 7.0918 0 0 0 -4.8982 2.0831 5.4179 5.4179 0 0 0 -4.7222-2.0813 7.7762 7.7762 0 0 0 -4.6281 2.0813 5.54 5.54 0 0 0 -4.1261-2.0813 5.0718 5.0718 0 0 0 -4.9832 3.3849l-3.1307 7.3806-4.0146-9.4686zm99.1994.9239a1.9105 1.9105 0 1 0 3.821-.0122v-.0087a1.91 1.91 0 1 0 -3.821.0087zm3.455-.0122a1.5472 1.5472 0 1 1 -3.0941.0087v-.0087a1.5541 1.5541 0 0 1 1.548-1.5671 1.5379 1.5379 0 0 1 1.5462 1.56v.007m-2.2766-.7565v1.459a.202.202 0 0 0 .2058.2022.1991.1991 0 0 0 .2022-.2022v-.4026h.3259l.3957.502a.2535.2535 0 0 0 .2.1028.1892.1892 0 0 0 .1935-.1865.2442.2442 0 0 0 -.0662-.1551l-.2824-.3434a.5675.5675 0 0 0 .3695-.563v-.007a.5759.5759 0 0 0 -.16-.4218.73.73 0 0 0 -.54-.1883h-.6379a.2035.2035 0 0 0 -.2058.204zm.8211.6937h-.4131v-.5316h.4061c.1987 0 .3155.0923.3155.2649v.007c0 .1569-.11.26-.3085.26z" fill="#55565a"/></svg>