<svg height="40" viewBox="0 0 230 40" width="230" xmlns="http://www.w3.org/2000/svg"><path d="m124.4652 28.038h-2.5l-2.0663-5.4326h-8.1478l-1.9553 5.4326h-2.5l7.4987-19.2306h2.28l7.39 19.2306zm-5.217-7.4967-3.0418-8.15a5.3737 5.3737 0 0 1 -.3265-1.3042 11.6365 11.6365 0 0 1 -.3246 1.3042l-2.935 8.15zm16.6243-5.65v-.6513h-10.5385v1.9553h7.3878l-8.1479 11.1917v.6511h11.19v-1.9554h-8.039l8.1478-11.1917zm13.2558 13.147h.1089v-13.7983h-2.173v7.8233a4.7863 4.7863 0 0 1 -1.0865 3.1507 3.3054 3.3054 0 0 1 -2.6084 1.1954c-2.2819 0-3.3663-1.4131-3.3663-4.3461v-7.8233h-2.1751v8.2567q0 5.869 4.89 5.868a4.4939 4.4939 0 0 0 4.2392-2.5v2.173zm11.0748-11.5163h-.1089v-2.282a4.0535 4.0535 0 0 0 -1.3022-.2177 3.3268 3.3268 0 0 0 -2.1749.76 4.8413 4.8413 0 0 0 -1.4111 2.2819v-2.8242h-2.173v13.798h2.173v-7.0613a5.86 5.86 0 0 1 .9776-3.5861 2.8584 2.8584 0 0 1 2.3888-1.3042 2.6172 2.6172 0 0 1 1.6307.4354zm12.8225 5.106h-9.6718a5.2729 5.2729 0 0 0 1.1974 3.5861 4.04 4.04 0 0 0 3.26 1.1954 6.9877 6.9877 0 0 0 4.2372-1.5219v2.0662a8.0521 8.0521 0 0 1 -4.7814 1.3022 5.8877 5.8877 0 0 1 -4.5638-1.8465 7.6888 7.6888 0 0 1 -1.6288-5.2149 7.4583 7.4583 0 0 1 1.8465-5.2169 5.965 5.965 0 0 1 4.4548-2.0641 5.045 5.045 0 0 1 4.1284 1.74 7.4026 7.4026 0 0 1 1.5219 4.7795v1.1953zm-2.2819-1.8464a4.5081 4.5081 0 0 0 -.8688-2.935 3.3548 3.3548 0 0 0 -2.5-1.0845 3.2221 3.2221 0 0 0 -2.6084 1.0845 4.6111 4.6111 0 0 0 -1.3042 2.935zm-103.1522-5.6868-10.6171 18.8452h9.4238l13.3828-29.4-12.19 10.5547zm13.3829-8.043-5.2169 14.5761 9.9278 12.3121-19.6016 3.52h31.9163z" fill="#2272b9"/></svg>