<svg xmlns="http://www.w3.org/2000/svg" width="230" height="40" viewBox="0 0 230 40"><path d="M130.1344,19.6586a1.1653,1.1653,0,0,1-.7358-1.123v-1.015c0-.42.1528-.6318.4565-.6318l.3669.0713c.1284.0469.2976.1162.51.21a10.5344,10.5344,0,0,0,2.2053.7011,11.82,11.82,0,0,0,2.3826.2446,5.3884,5.3884,0,0,0,2.9247-.6665,2.1188,2.1188,0,0,0,1.0333-1.8914,1.9344,1.9344,0,0,0-.5421-1.4023,5.1892,5.1892,0,0,0-2.0137-1.05l-2.9085-.9111a6.2013,6.2013,0,0,1-3.206-2.032,4.7364,4.7364,0,0,1-.9987-2.9085,4.4435,4.4435,0,0,1,.5442-2.2236,5.3845,5.3845,0,0,1,1.4348-1.6469,6.4006,6.4006,0,0,1,2.0851-1.0333A8.9342,8.9342,0,0,1,136.1958,2a10.43,10.43,0,0,1,1.3472.0877q.6848.0886,1.2984.2283c.4076.0917.7867.1977,1.1373.3139a5.0612,5.0612,0,0,1,.8417.3525,1.9283,1.9283,0,0,1,.5952.4892,1.13,1.13,0,0,1,.1753.6665v.9437c0,.4218-.1509.6318-.4546.6318a2.1066,2.1066,0,0,1-.77-.2446,9.3159,9.3159,0,0,0-3.8541-.77,5.2389,5.2389,0,0,0-2.6639.56,1.9211,1.9211,0,0,0-.9456,1.7854,1.8978,1.8978,0,0,0,.5951,1.4185,5.9556,5.9556,0,0,0,2.2074,1.1047l2.8392.9111a6.1182,6.1182,0,0,1,3.1,1.926,4.53,4.53,0,0,1,.9273,2.8025,5.0889,5.0889,0,0,1-.5238,2.33,5.32,5.32,0,0,1-1.4553,1.7712,6.5533,6.5533,0,0,1-2.2256,1.121,9.9155,9.9155,0,0,1-2.837.3852,13.6079,13.6079,0,0,1-3.0818-.3506,9.1109,9.1109,0,0,1-2.3132-.805Zm-33.86-9.724q1.1036.159,2.295.4382V8.9012a4.405,4.405,0,0,0-.9457-3.206,4.596,4.596,0,0,0-3.259-.9273,9.2749,9.2749,0,0,0-2.1543.2629,15.4607,15.4607,0,0,0-2.1543.6828,5.3493,5.3493,0,0,1-.7012.2629l-.3139.053c-.2813,0-.422-.21-.422-.6318v-.98a1.314,1.314,0,0,1,.1406-.7011,1.4759,1.4759,0,0,1,.5606-.42,13.06,13.06,0,0,1,2.5212-.911A12.2735,12.2735,0,0,1,94.96,2q3.5738,0,5.238,1.6306a6.6013,6.6013,0,0,1,1.6652,4.9222v6.516a5.714,5.714,0,0,0,.2262,1.7854,9.5353,9.5353,0,0,0,.6481,1.4369l.1406.4545a.7676.7676,0,0,1-.3853.5972l-1.2615.84-.5258.1753a.8334.8334,0,0,1-.5952-.2793,4.5136,4.5136,0,0,1-.7175-.9293q-.3-.5075-.6135-1.174a7.397,7.397,0,0,1-5.8862,2.77,5.4755,5.4755,0,0,1-3.9948-1.4369,5.1435,5.1435,0,0,1-1.4695-3.8542,5.152,5.152,0,0,1,1.822-4.1171,7.286,7.286,0,0,1,4.9038-1.5591,15.1766,15.1766,0,0,1,2.12.1569Zm2.295,3.5219v-.8418a17.5861,17.5861,0,0,0-1.84-.3321,14.8449,14.8449,0,0,0-1.8731-.1223,4.6293,4.6293,0,0,0-2.9777.805,2.8229,2.8229,0,0,0-.98,2.3133,2.8389,2.8389,0,0,0,.7337,2.12,2.8888,2.8888,0,0,0,2.1033.7175,6.4552,6.4552,0,0,0,2.0668-.3669,4.3918,4.3918,0,0,0,1.8914-1.28,3.1636,3.1636,0,0,0,.6828-1.2779,6.7657,6.7657,0,0,0,.1936-1.7344Zm10.0542,5.8516a1.56,1.56,0,0,0,.42.7867,1.2483,1.2483,0,0,0,.77.1936h1.7181a1.2414,1.2414,0,0,0,.8051-.21,1.53,1.53,0,0,0,.3853-.805L115.8061,6.38l3.1184,12.8934a1.5152,1.5152,0,0,0,.3852.805,1.2415,1.2415,0,0,0,.8051.21h1.7182a1.2522,1.2522,0,0,0,.77-.1936,1.5751,1.5751,0,0,0,.42-.7867l4.8345-15.4859a4.7729,4.7729,0,0,0,.1407-.4913l.0346-.3139a.4344.4344,0,0,0-.4912-.4912h-1.8568a1.24,1.24,0,0,0-.7888.1936,1.6372,1.6372,0,0,0-.4015.7867l-3.469,13.4192-3.153-13.4192a1.4,1.4,0,0,0-.3852-.7867,1.3154,1.3154,0,0,0-.8051-.1936H115.07a1.3112,1.3112,0,0,0-.805.1936,1.3862,1.3862,0,0,0-.3872.7867L110.76,16.75l-3.361-13.244a1.6751,1.6751,0,0,0-.4035-.7867,1.2407,1.2407,0,0,0-.7888-.1936h-1.9627a.433.433,0,0,0-.4892.4912,3.5158,3.5158,0,0,0,.1753.8051l4.6939,15.4859Z" fill="#262e3d"/><path d="M138.3583,29.0077c1.1148-.4709,2.0483.7358.9579,1.5408C132.7249,35.4136,123.17,38,114.94,38A44.1137,44.1137,0,0,1,85.1645,26.6414c-.6176-.5564-.0673-1.3188.6746-.8866a59.9453,59.9453,0,0,0,29.7937,7.904,59.2747,59.2747,0,0,0,22.7256-4.651Zm-4.16-2.7393c-.5809.4076-.481.97.163.8928,2.1258-.2548,6.8543-.8235,7.6981.2568s-.9376,5.5275-1.7324,7.5147c-.2426.6013.2751.8438.8192.3893,3.5362-2.9574,4.4493-9.1575,3.7258-10.05-.7195-.8887-6.9012-1.653-10.6738.9966Z" fill="#f7981d"/></svg>