<?xml version="1.0" encoding="utf-8"?>
<!-- Generator: Adobe Illustrator 19.1.0, SVG Export Plug-In . SVG Version: 6.00 Build 0)  -->
<svg version="1.1" id="Layer_1" xmlns="http://www.w3.org/2000/svg" xmlns:xlink="http://www.w3.org/1999/xlink" x="0px" y="0px"
	 viewBox="139 468 88 86" style="enable-background:new 139 468 88 86;" xml:space="preserve">
<style type="text/css">
	.st0{fill:#2A5699;}
	.st1{fill:#FFFFFF;}
	.st2{fill:#207245;}
	.st3{fill:#D24625;}
	.st4{fill:#0071C5;}
	.st5{fill:#733781;}
	.st6{fill:#077467;}
	.st7{fill:#094AB1;}
</style>
<g id="excel">
	<path class="st2" d="M185.1,468h5.9c0,2.7,0,5.3,0,8c10,0,20,0,30,0c1.7,0.1,3.5,0,5,1c1,1.5,0.9,3.4,1,5.1
		c-0.1,17.4,0,34.7,0,52.1c0,2.9,0.3,5.9-0.3,8.8c-0.4,2.1-2.9,2.1-4.6,2.2c-10.4,0-20.7,0-31.1,0c0,3,0,6,0,9h-6.2
		c-15.2-2.8-30.5-5.3-45.8-8c0-23.3,0-46.7,0-70C154.4,473.3,169.7,470.7,185.1,468z"/>
	<path class="st1" d="M191,479c11,0,22,0,33,0c0,21,0,42,0,63c-11,0-22,0-33,0c0-2,0-4,0-6c2.7,0,5.3,0,8,0c0-2.3,0-4.7,0-7
		c-2.7,0-5.3,0-8,0c0-1.3,0-2.7,0-4c2.7,0,5.3,0,8,0c0-2.3,0-4.7,0-7c-2.7,0-5.3,0-8,0c0-1.3,0-2.7,0-4c2.7,0,5.3,0,8,0
		c0-2.3,0-4.7,0-7c-2.7,0-5.3,0-8,0c0-1.3,0-2.7,0-4c2.7,0,5.3,0,8,0c0-2.3,0-4.7,0-7c-2.7,0-5.3,0-8,0c0-1.3,0-2.7,0-4
		c2.7,0,5.3,0,8,0c0-2.3,0-4.7,0-7c-2.7,0-5.3,0-8,0C191,483,191,481,191,479z"/>
	<path class="st2" d="M203,485c4.7,0,9.3,0,14,0c0,2.3,0,4.7,0,7c-4.7,0-9.3,0-14,0C203,489.7,203,487.3,203,485z"/>
	<path class="st1" d="M168.6,494.4c2.3-0.2,4.5-0.3,6.8-0.4c-2.7,5.5-5.4,10.9-8.1,16.4c2.8,5.6,5.6,11.2,8.3,16.8
		c-2.4-0.1-4.8-0.3-7.2-0.5c-1.7-4.2-3.8-8.2-5-12.6c-1.4,4.1-3.3,7.9-4.9,11.9c-2.2,0-4.4-0.1-6.6-0.2c2.6-5,5.1-10.1,7.7-15.1
		c-2.2-5.1-4.7-10.2-7-15.3c2.2-0.1,4.4-0.3,6.6-0.4c1.5,3.9,3.1,7.8,4.4,11.8C165,502.5,166.9,498.5,168.6,494.4z"/>
	<path class="st2" d="M203,496c4.7,0,9.3,0,14,0c0,2.3,0,4.7,0,7c-4.7,0-9.3,0-14,0C203,500.7,203,498.3,203,496z"/>
	<path class="st2" d="M203,507c4.7,0,9.3,0,14,0c0,2.3,0,4.7,0,7c-4.7,0-9.3,0-14,0C203,511.7,203,509.3,203,507z"/>
	<path class="st2" d="M203,518c4.7,0,9.3,0,14,0c0,2.3,0,4.7,0,7c-4.7,0-9.3,0-14,0C203,522.7,203,520.3,203,518z"/>
	<path class="st2" d="M203,529c4.7,0,9.3,0,14,0c0,2.3,0,4.7,0,7c-4.7,0-9.3,0-14,0C203,533.7,203,531.3,203,529z"/>
</g>
</svg>
