<?xml version="1.0" encoding="utf-8"?>
<!-- Generator: Adobe Illustrator 21.1.0, SVG Export Plug-In . SVG Version: 6.00 Build 0)  -->
<svg version="1.1" id="Layer_1" xmlns="http://www.w3.org/2000/svg" xmlns:xlink="http://www.w3.org/1999/xlink" x="0px" y="0px"
	 width="2500px" height="550px" viewBox="0 0 2500 550" style="enable-background:new 0 0 2500 550;" xml:space="preserve">
<style type="text/css">
	.st0{fill:#000000;}
</style>
<g>
	<path class="st0" d="M937.2,271.2c0,35.1-6.4,65.9-19.2,92.3c-12.8,26.4-31.2,46.8-55.2,61c-24,14.2-51.6,21.4-82.9,21.4
		c-30.2,0-57.1-6.9-80.6-20.8c-23.5-13.9-41.7-33.6-54.6-59.1c-12.9-25.5-19.3-54.4-19.3-86.8c0-34.8,6.5-65.4,19.6-92
		c13-26.5,31.7-46.8,56.1-61c24.4-14.2,52.6-21.3,84.6-21.3c29.3,0,55.5,7,78.8,20.9c23.2,13.9,41.1,33.6,53.8,58.9
		C930.9,210,937.2,238.9,937.2,271.2 M896.7,276.3c0-42.9-10-76.4-30.1-100.5c-20.1-24-48.1-36.1-83.9-36.1
		c-22.5,0-42.7,5.7-60.6,17.1c-17.8,11.4-31.7,27.6-41.5,48.6c-9.8,21-14.7,44.5-14.7,70.3c0,26.4,4.7,49.9,14.2,70.5
		c9.4,20.6,22.9,36.6,40.3,47.8c17.5,11.2,37.3,16.9,59.6,16.9c36.5,0,65.1-12,85.8-35.9C886.4,351.2,896.7,318.2,896.7,276.3
		 M1102.9,124.7c-7.4-4.2-15.7-6.2-25.1-6.2c-26.4,0-39.5,16.6-39.5,49.9v36.3h55.2v31.9h-55.2v203.5h-37.7V236.7h-40v-31.9h40
		v-38.2c0-23.9,7.1-43.2,21.1-57.9c14.1-14.7,32.1-22.1,53.8-22.1c11.5,0,20.6,1.4,27.4,4.2L1102.9,124.7L1102.9,124.7L1102.9,124.7
		z"/>
	<path class="st0" d="M1232.9,124.7c-7.4-4.2-15.7-6.2-25.1-6.2c-26.4,0-39.5,16.6-39.5,49.9v36.3h55.2v31.9h-55.2v203.5h-37.7
		V236.7h-40v-31.9h40v-38.2c0-23.9,7.1-43.2,21.2-57.9c14.1-14.7,32-22.1,53.8-22.1c11.5,0,20.6,1.4,27.4,4.2L1232.9,124.7
		L1232.9,124.7z M1302.4,120.4c0,7.1-2.4,12.9-7.4,17.6c-4.9,4.7-10.7,7-17.5,7c-6.9,0-12.7-2.2-17.5-6.8
		c-4.7-4.5-7.1-10.5-7.1-17.8c0-6.6,2.3-12.3,7-17.1c4.7-4.9,10.5-7.2,17.6-7.2c7,0,12.9,2.3,17.7,7.1
		C1300.1,107.9,1302.4,113.6,1302.4,120.4 M1296,440.2h-37.7V204.7h37.7V440.2z M1511.2,429.4c-18.2,11-39.8,16.6-64.6,16.6
		c-21.4,0-40.7-5-57.8-14.8c-17.1-9.9-30.4-23.9-39.9-42c-9.5-18.1-14.2-38.4-14.2-60.9c0-38.9,11.1-70.2,33.4-93.8
		c22.3-23.6,52-35.4,89.1-35.4c20.6,0,38.7,4,54.5,12v38.6c-17.6-12.3-36.3-18.4-56.1-18.4c-24.4,0-44.2,8.7-59.4,26.1
		c-15.3,17.4-22.9,39.9-22.9,67.5c0,27.5,7.3,49.1,21.7,65.1c14.5,15.9,33.9,23.9,58.3,23.9c20.5,0,39.9-6.7,57.9-20.2L1511.2,429.4
		L1511.2,429.4z M1742.9,331.9h-166.2c0.6,26.5,7.6,46.8,21.1,60.8c13.4,14,32,21,55.7,21c26.7,0,51-8.6,72.9-25.7v35.2
		c-20.5,15.2-47.8,22.7-81.9,22.7c-33.6,0-59.8-10.8-78.7-32.5c-18.8-21.7-28.3-51.7-28.3-90c0-23.3,4.7-44.6,14.2-63.8
		c9.4-19.2,22.4-34.1,39-44.7c16.6-10.6,35-15.9,55.2-15.9c30.5,0,54.3,9.9,71.4,29.8c17.1,19.8,25.6,47.6,25.6,83.3L1742.9,331.9
		L1742.9,331.9z M1704.3,299.9c-0.3-21.8-5.6-38.7-15.8-50.7c-10.2-12-24.6-18-43.1-18c-17.5,0-32.4,6.3-44.8,18.8
		c-12.4,12.6-20.2,29.2-23.4,49.9L1704.3,299.9L1704.3,299.9z M2029.8,346.8c0,29.7-10.7,53.7-32,71.9
		c-21.3,18.2-49.3,27.2-83.9,27.2c-31.4,0-56.4-6-75-17.9v-40.5c22.2,17.5,47.7,26.2,76.3,26.2c23.2,0,41.6-5.7,55.3-17.1
		c13.7-11.4,20.6-26.9,20.6-46.3c0-43.1-30.7-64.6-92-64.6h-27.4v-32h26c54.3,0,81.4-20.2,81.4-60.7c0-37.4-20.7-56.1-62.1-56.1
		c-23.3,0-45.1,7.8-65.5,23.4v-36.6c21-12.6,46-18.9,74.9-18.9c27.3,0,49.3,7.2,66.1,21.7c16.8,14.5,25.2,33.5,25.2,56.9
		c0,43.4-21.9,71.3-65.8,83.7v0.9c23.3,2.6,42.1,11,56.4,25.3C2022.6,307.7,2029.8,325.5,2029.8,346.8 M2277.8,335.6
		c0,20.9-4.5,39.8-13.4,56.8c-9,17-21.3,30.2-37.2,39.5c-15.8,9.4-33.5,14-53.1,14c-33,0-58.8-13.3-77.6-39.8
		c-18.8-26.5-28.1-63.5-28.1-111.1c0-37.7,5.6-71,16.7-99.9c11.1-28.9,26.8-51.2,47.2-66.8c20.4-15.7,43.9-23.5,70.6-23.5
		c22.7,0,40.9,3.1,54.7,9.4v35.6c-17-8.7-35-13.1-53.8-13.1c-29.1,0-52.4,13.1-70,39.2c-17.6,26.1-26.3,61-26.3,104.5h0.9
		c15.2-31.1,40.2-46.7,75.2-46.7c28.5,0,51.4,9.3,68.5,27.9C2269.3,280.5,2277.8,305.1,2277.8,335.6 M2239.2,340.4
		c0-23-5.7-41.2-16.9-54.5c-11.3-13.3-27-20-47.3-20c-18.4,0-33.9,6.5-46.4,19.4c-12.6,12.9-18.8,28.6-18.8,47
		c0,23.2,6.2,42.5,18.7,58c12.5,15.6,28.3,23.3,47.3,23.3c18.8,0,34.1-6.8,45.9-20.3C2233.4,379.8,2239.2,362.2,2239.2,340.4
		 M2499.7,339.5c0,32.1-10.6,57.8-31.8,77.3c-21.2,19.4-49.6,29.2-85,29.2c-30.7,0-53.4-4.6-68.3-13.8v-40
		c22.4,14.4,45.3,21.6,68.7,21.6c23.3,0,42.1-6.5,56.3-19.6c14.3-13,21.4-30.5,21.4-52.4c0-21.5-7.2-38.3-21.6-50.5
		c-14.4-12.2-35.3-18.3-62.8-18.3c-21.9,0-40.6,0.9-55.9,2.7l11.3-165.3h152.5v34h-119.8l-6.7,96.8l30.3-1.2
		c34.3,0,61.5,8.7,81.4,26C2489.8,283.5,2499.7,307.9,2499.7,339.5 M459.1,504.2L459.1,504.2l0-456.9L295.3,0L1,110.5l-0.7,0.1
		l0,330.4l100.4-39.3V132.9l194.6-46.5l0,395.2L0.5,441l294.8,108.9v0.1L459,504.7L459.1,504.2L459.1,504.2z"/>
</g>
</svg>
